<?xml version="1.0" encoding="UTF-8"?><svg id="_레이어_1" xmlns="http://www.w3.org/2000/svg" viewBox="0 0 200 38"><g><rect x="164.99" y="2.09" width="33.82" height="4.82"/><polygon points="188.81 35.91 174.99 35.91 174.99 15.91 164.99 15.91 164.99 11.09 179.81 11.09 179.81 31.09 183.99 31.09 183.99 11.09 198.81 11.09 198.81 15.91 188.81 15.91 188.81 35.91"/></g><g><polygon points="108.85 35.91 75.03 35.91 75.03 2.09 108.85 2.09 108.85 6.91 79.85 6.91 79.85 31.09 108.85 31.09 108.85 35.91"/><rect x="84.03" y="11.61" width="19.82" height="4.82"/><rect x="99.03" y="13.09" width="4.82" height="11.82"/><rect x="84.03" y="21.16" width="19.82" height="4.82"/></g><g><path d="m32.01,21.16c-1.03,6.2-6.44,10.93-12.92,10.93-7.21,0-13.09-5.87-13.09-13.09s5.88-13.09,13.09-13.09c6.34,0,11.65,4.53,12.84,10.52h4.88C35.57,7.77,28.1,1.09,19.09,1.09,9.22,1.09,1.19,9.12,1.19,19s8.03,17.91,17.9,17.91c9.15,0,16.71-6.89,17.78-15.75h-4.86Z"/><path d="m22.57,21.16c-.72,1.16-2.01,1.93-3.48,1.93-2.25,0-4.09-1.84-4.09-4.09s1.84-4.09,4.09-4.09c1.28,0,2.43.59,3.18,1.52h5.35c-1.11-3.67-4.51-6.34-8.53-6.34-4.91,0-8.9,4-8.9,8.91s3.99,8.91,8.9,8.91c4.17,0,7.68-2.88,8.64-6.75h-5.16Z"/></g><g><rect x="48" y="17.42" width="4.82" height="18.49"/><path d="m50.41,20.7c-1.33,0-2.41-1.08-2.41-2.41v-6.46h11.41c1.33,0,2.41,1.08,2.41,2.41s-1.08,2.41-2.41,2.41h-6.59v1.65c0,1.33-1.08,2.41-2.41,2.41Z"/><path d="m62.82,35.91h-4.82v-9.5h-6v-4.82h7.41c1.88,0,3.41,1.53,3.41,3.41v10.91Z"/><path d="m71.82,35.91h-4.82v-10.41c0-1.49-.43-2.94-1.25-4.17l-.88-1.33.89-1.33c.82-1.23,1.25-2.67,1.25-4.17,0-4.19-3.41-7.59-7.59-7.59h-15.59v29h-4.82V2.09h20.41c6.84,0,12.41,5.57,12.41,12.41,0,1.93-.44,3.81-1.28,5.5.84,1.7,1.28,3.57,1.28,5.5v10.41Z"/></g><g><rect x="148.35" y="2.09" width="4.82" height="33.82"/><rect x="157.35" y="2.09" width="4.82" height="33.82"/></g><g><path d="m128.94,35.91h-16.91v-4.82h16.91c6.67,0,12.09-5.42,12.09-12.09s-5.42-12.09-12.09-12.09h-12.09v18h-4.82V2.09h16.91c9.32,0,16.91,7.59,16.91,16.91s-7.59,16.91-16.91,16.91Z"/><path d="m128.94,26.91h-16.91v-4.82h9v-11h7.91c4.36,0,7.91,3.55,7.91,7.91s-3.55,7.91-7.91,7.91Zm-3.09-4.82h3.09c1.7,0,3.09-1.39,3.09-3.09s-1.39-3.09-3.09-3.09h-3.09v6.18Z"/></g></svg>