<?xml version="1.0" encoding="utf-8"?>
<!-- Generator: Adobe Illustrator 27.1.0, SVG Export Plug-In . SVG Version: 6.00 Build 0)  -->
<svg version="1.1" id="_레이어_1" xmlns="http://www.w3.org/2000/svg" xmlns:xlink="http://www.w3.org/1999/xlink" x="0px"
	 y="0px" viewBox="0 0 2251.3 236.4" style="enable-background:new 0 0 2251.3 236.4;" xml:space="preserve">
<g>
	<rect x="969.3" y="71.3" transform="matrix(1 -1.047154e-03 1.047154e-03 1 -8.123118e-02 1.1216)" width="203.5" height="13.7"/>
	<path d="M177.4,20.8l0.1,25.9h-2.8l-0.1-25.9H177.4L177.4,20.8z M169.3,21.2h2.8l0.1,24.1h-2.8V32.2h-3.8v-2.4h3.8L169.3,21.2
		L169.3,21.2z M163.1,27.9c0,4.4,1.7,8.9,5.3,11l-1.7,2.1c-2.5-1.4-4-4-5-7c-0.9,3.3-2.6,6-5.1,7.7l-1.8-2.2c3.6-2.3,5.4-7,5.4-11.6
		v-1.8h-4.6v-2.4h11.7v2.5h-4.3L163.1,27.9L163.1,27.9z"/>
	<path d="M188.6,41.7h4.6V27.6h-3.8v-2.1c2-0.4,3.3-0.9,4.6-1.6h2.5v17.8h4.1v2.7h-12.1L188.6,41.7L188.6,41.7z"/>
	<path d="M203.6,34.1c0-6.9,2.6-10.6,6.8-10.6s6.8,3.6,6.9,10.5c0,6.9-2.6,10.7-6.8,10.7C206.2,44.8,203.6,41,203.6,34.1L203.6,34.1
		z M214,34.1c0-5.9-1.5-7.9-3.7-7.9c-2.1,0-3.6,2.1-3.6,7.9c0,5.9,1.5,8.1,3.7,8.1C212.6,42.2,214,40,214,34.1z"/>
	<path d="M241,20.7l0.1,25.9h-3L238,20.7H241L241,20.7z M229.7,39.3c2.3-0.2,4.7-0.3,6.9-0.7l0.2,2.1c-5.7,1-11.9,1.1-16.6,1.1
		l-0.4-2.5c2.1,0,4.4,0,6.9-0.1v-2.5c-3-0.5-4.9-2.2-4.9-4.7c0-2.9,2.6-4.8,6.3-4.8c3.7,0,6.3,1.9,6.3,4.8c0,2.5-1.9,4.3-4.9,4.8
		L229.7,39.3L229.7,39.3z M228.3,34.7c2.1,0,3.5-1,3.5-2.6c0-1.6-1.4-2.6-3.5-2.6c-2.1,0-3.5,1-3.5,2.6
		C224.7,33.8,226.2,34.7,228.3,34.7L228.3,34.7z M236,26h-15.7v-2.4h6.3v-3h3v3h6.3L236,26L236,26z"/>
	<path d="M275.6,20.6l0.1,25.9H273V33.3h-3.1v12h-2.8L267,21.1h2.8v9.7h3.1V20.6H275.6L275.6,20.6z M257.4,37.9c3,0,5.4-0.2,8-0.8
		l0.3,2.5c-3.2,0.6-5.8,0.8-9.5,0.8h-1.7V23.7h9.6v2.4h-6.7V37.9L257.4,37.9z"/>
	<path d="M303.2,35.6h-10.3v10.8h-3V35.6h-10.1v-2.4h16.8c0.8-3.6,0.8-6.3,0.8-8.7h-14.8v-2.4h17.7v2.3c0,2.5,0,5.2-0.7,8.8h3.6
		L303.2,35.6L303.2,35.6z"/>
	<path d="M329.9,33.1H326v13.2h-3l-0.1-25.9h3v10.2h3.9L329.9,33.1L329.9,33.1z M319.2,23.2c0,7.6-3.2,14.2-11.7,18.5l-1.6-2.3
		c6.3-3.3,9.8-7.8,10.3-13.8h-9.1v-2.4H319.2L319.2,23.2z"/>
	<path d="M337.8,44h15.5v2.1h-18.4V40h14.7v-1.8h-14.8v-2.1h17.7V42h-14.7V44L337.8,44z M355.5,32.3v2.2L332,34.6v-2.2h10.1v-1.9
		h-7.3V21h17.7v2h-14.7v1.7h14.1v2h-14.1v1.8h14.9v2.1h-7.7v1.9L355.5,32.3L355.5,32.3z"/>
	<path d="M362,37.5h17.5v8.8h-3V40H362L362,37.5L362,37.5z M379.5,20.3v15.9h-3V20.3H379.5L379.5,20.3z M374.2,34.2
		c-4.1,0.7-7.6,0.9-12.5,0.9h-2.2v-7.8h8.9v-3h-9v-2.4h11.9v7.6h-8.9v3.2c4.5,0,7.7-0.2,11.5-0.8L374.2,34.2L374.2,34.2z"/>
	<path d="M406.3,20.3l0.1,25.9h-2.8V32.9h-3.1V45h-2.9l-0.1-24.1h2.8v9.7h3.1V20.3H406.3L406.3,20.3z M388,37.6c3,0,5.4-0.2,8-0.8
		l0.3,2.5c-3.2,0.6-5.8,0.8-9.5,0.8h-1.7V23.4h9.6v2.4H388V37.6L388,37.6z"/>
	<path d="M413.6,37.8h17v8.4h-3v-6h-14.1L413.6,37.8L413.6,37.8z M434.3,29.6h-3.6v6.8h-3V20.2h3v6.9h3.6V29.6L434.3,29.6z
		 M418.1,35.7c-3.7,0-6.3-1.9-6.3-4.7c0-2.9,2.6-4.8,6.3-4.8c3.7,0,6.3,1.9,6.3,4.7C424.4,33.8,421.8,35.7,418.1,35.7L418.1,35.7z
		 M418.1,33.4c2.1,0,3.4-1,3.4-2.5s-1.4-2.5-3.4-2.5c-2.1,0-3.4,1-3.4,2.5C414.6,32.5,416,33.5,418.1,33.4L418.1,33.4z M425.7,25.2
		h-15.3v-2.4h6.1v-2.7h3v2.7h6.2V25.2L425.7,25.2z"/>
	<path d="M460,40.3v2.5h-23.4v-2.4h5.4V32h3v8.4h3.4V32h3v8.4L460,40.3L460,40.3z M454.5,25h-15.7v-2.4h18.7v2.8
		c0,3.3,0,6.7-0.9,11.8l-3-0.4c1-4.8,0.9-8.2,0.9-11.4V25L454.5,25z"/>
	<path d="M491.7,20.1l0.1,26h-3l-0.1-26H491.7L491.7,20.1z M474.9,37.3c4.8,0,7.9-0.2,11.4-0.9l0.3,2.5c-3.7,0.7-7.1,0.9-12.4,0.9
		H472V22.6h12.3V25H475L474.9,37.3L474.9,37.3z"/>
	<path d="M517.8,20.1l0.1,25.9h-3l-0.1-25.9H517.8L517.8,20.1z M506.1,27.6c0,4.3,2.7,8.8,6.7,10.5l-1.6,2.3
		c-3.1-1.3-5.4-4.1-6.6-7.5c-1.1,3.6-3.4,6.7-6.5,8.1l-1.7-2.4c4-1.9,6.7-6.7,6.7-11.2V25h-5.7v-2.4h14.5v2.5h-5.7V27.6L506.1,27.6z
		"/>
	<path d="M545,43.3v2.3h-17.7v-6.5h13.9v-1.9h-14v-2.3H544v6.4h-13.9v2.1L545,43.3L545,43.3z M541.1,28.1h-4.5v-2.3h4.5v-5.7h3V34
		h-3V28.1L541.1,28.1z M537,32.5c-3.4,0.6-6.3,0.6-11.2,0.6h-1.9V21.5h11.9v2.3h-8.9V26h8.1v2.2h-8.1v2.4c4.3,0,6.9-0.1,10-0.7
		L537,32.5L537,32.5z"/>
	<path d="M570,19.9l0.1,26h-3l-0.1-26H570L570,19.9z M553.3,37.1c4.8,0,7.9-0.2,11.4-0.9l0.3,2.5c-3.7,0.7-7.1,0.9-12.4,0.9h-2.1
		V22.4h12.3v2.5h-9.4L553.3,37.1L553.3,37.1z"/>
	<path d="M599,32.5h-4v13.3h-3L592,19.9h3v10.2h4L599,32.5L599,32.5z M583.9,27.5c0,4,2.6,8.6,6.5,10.4l-1.6,2.3
		c-2.9-1.3-5.1-4.2-6.3-7.5c-1.1,3.6-3.4,6.7-6.4,8.2l-1.7-2.4c3.9-1.9,6.6-6.8,6.6-11.1V25h-5.6v-2.4h14.1v2.5h-5.5V27.5
		L583.9,27.5z"/>
	<path d="M623.2,42.9v2.4h-17.7v-8.5h3v6.1H623.2z M622.4,38.7h-3V19.8h3V38.7z M608.4,34.5c-3.9,0-6.9-2.7-6.9-6.5s3-6.5,6.9-6.5
		s6.9,2.7,6.9,6.5C615.2,31.8,612.3,34.5,608.4,34.5L608.4,34.5z M608.4,32c2.3,0,4-1.6,4-3.9c0-2.4-1.7-3.9-4-3.9
		c-2.3,0-4,1.5-4,3.9S606.1,32,608.4,32z"/>
	<path d="M651.1,32.9h-3.8v12.8h-3l-0.1-25.9h3v10.6h3.8L651.1,32.9L651.1,32.9z M634.9,37.7c2.7-0.1,5.5-0.3,7.9-0.6l0.2,2.1
		c-5.4,0.9-11.3,1.1-15.8,1.1l-0.3-2.5c1.6,0,3.3,0,5.2-0.1v-7.8h2.9L634.9,37.7L634.9,37.7z M637.8,34.1c0.7-4,0.7-7,0.7-9.2h-10.2
		v-2.4h13.2v1.7c0,2.3,0,5.6-0.7,10.1L637.8,34.1z"/>
	<path d="M666.8,43.2h15.5v2.3h-18.4V39h14.7v-1.9h-14.8v-2.2h17.7v6.2h-14.7V43.2L666.8,43.2z M684.5,30.7v2.4l-23.4,0.1v-2.4h10.2
		V28h3v2.8L684.5,30.7z M662.1,27.2c4.7-0.4,8-2.2,8.5-4.3h-7.5v-2.3h19.1v2.3h-7.6c0.5,2.1,3.9,3.9,8.6,4.3l-1,2.2
		c-4.6-0.4-8.2-2.1-9.7-4.7c-1.3,2.6-5,4.3-9.6,4.7L662.1,27.2L662.1,27.2z"/>
	<path d="M705.8,34.7h3v10.4h-16.8V34.7h3v2.9h11L705.8,34.7L705.8,34.7z M705.8,40h-11v2.9h11V40L705.8,40z M708.6,19.6v13.9h-3
		v-5.6h-4.8c-0.5,3-3.2,4.9-6.6,5c-3.9,0-6.8-2.5-6.8-6c0-3.5,2.9-6,6.8-6c3.4,0,6,1.9,6.6,4.8h4.8v-5.9L708.6,19.6L708.6,19.6z
		 M698.2,26.9c0-2.2-1.7-3.6-3.9-3.6c-2.3,0-3.9,1.4-3.9,3.6s1.6,3.6,3.9,3.6C696.5,30.5,698.2,29,698.2,26.9L698.2,26.9z"/>
	<path d="M735.4,42.6V45H718v-8.1h3v5.6L735.4,42.6L735.4,42.6z M731.8,26.5v-6.9h3v19h-3V29h-4.7v-2.4L731.8,26.5L731.8,26.5z
		 M727.3,34.9c-2.9-1-5-3-6-5.6c-1.1,2.8-3.3,5.1-6.4,6.1l-1.5-2.3c4-1.4,6.4-4.8,6.3-8.3V24h-5.5v-2.4h13.9V24h-5.4v0.9
		c0,3.2,2.2,6.4,6.1,7.8L727.3,34.9L727.3,34.9z"/>
	<path d="M760.7,19.5l0.1,26h-3l-0.1-26H760.7L760.7,19.5z M748.9,25.9c0,4.8,2.7,9.6,6.7,11.4l-1.7,2.4c-3-1.4-5.3-4.3-6.4-7.8
		c-1.1,3.7-3.4,6.9-6.6,8.4l-1.7-2.5C743.3,36,746,31,746,26v-4.2h3L748.9,25.9L748.9,25.9z"/>
	<path d="M786.8,19.4l0.1,25.9h-3l-0.1-25.9H786.8L786.8,19.4z M775.5,38.2c2.3-0.2,4.7-0.3,6.9-0.6l0.2,2.1
		c-5.7,1-11.9,1.1-16.6,1.1l-0.4-2.4c2.1,0,4.5,0,6.9-0.1v-2.5c-3-0.5-4.9-2.2-4.9-4.7c0-2.9,2.6-4.8,6.3-4.9c3.7,0,6.3,1.9,6.3,4.8
		c0,2.5-1.9,4.3-4.9,4.8L775.5,38.2L775.5,38.2z M774.1,33.6c2.1,0,3.5-1,3.5-2.6s-1.4-2.6-3.5-2.6s-3.5,1-3.5,2.6
		S772,33.6,774.1,33.6L774.1,33.6z M781.8,24.9h-15.7v-2.4h6.4v-3h3v3h6.3L781.8,24.9L781.8,24.9z"/>
	<path d="M28,177h9.5c7.2,0,11.2,4.6,11.2,10.4c0,6.9-5,11.2-11.3,11.2H28L28,177z M32.5,195h4.2c4.7,0,7.2-2.8,7.2-7.5
		c0-4.3-2.5-7-7-7h-4.3L32.5,195L32.5,195z"/>
	<path d="M56.2,193.1l-2.2,5.5h-4.7l8.9-21.6h5.7l9.4,21.6h-5l-2.3-5.5H56.2L56.2,193.1z M64.7,189.5c-2.2-5.3-3.3-7.8-3.8-9.5l0,0
		c-0.5,1.5-1.7,5-3.5,9.5H64.7z"/>
	<path d="M92.4,189.1H80v5.7h13.7l-0.5,3.6H75.5v-21.6H93v3.6H80v4.9h12.3V189.1L92.4,189.1z"/>
	<path d="M117.9,198.5h-3.3c-0.1-0.5-0.3-1.7-0.3-2.5c-1.4,1.9-3.3,3-7.5,3c-7,0-10.9-4.7-10.9-11.2c0-6.3,4.2-11.4,11.8-11.4
		c6.8,0,9.8,3.6,10.4,6.8h-4.6c-0.6-1.3-2-3.3-5.8-3.3c-4.8,0-7,3.3-7,7.7c0,4.5,2.3,7.8,7,7.8c3.9,0,5.8-2,5.8-5.2v-0.4h-5.8v-3.5
		h10.2V198.5L117.9,198.5z"/>
	<path d="M126.6,176.9v12.3c0,4.9,2.7,6.2,5.6,6.2c3.2,0,5.3-1.4,5.3-6.2v-12.3h4.5v12.3c0,6.7-3.6,9.8-9.9,9.8c-6,0-10-2.9-10-9.6
		v-12.5H126.6L126.6,176.9z"/>
	<path d="M175.3,191.8c-1.1,3.7-4,7.2-10.6,7.2c-7.6,0-11.3-5.3-11.4-11.2c-0.1-5.9,4.1-11.3,11.6-11.3c6.5,0,9.7,3.5,10.4,7.2h-4.6
		c-0.6-1.5-2-3.5-5.8-3.5c-4.3,0-6.7,3.3-6.7,7.6s2.3,7.8,6.8,7.8c3.4,0,4.9-1.3,5.7-3.6L175.3,191.8L175.3,191.8z"/>
	<path d="M182.9,193l-2.2,5.5H176l8.9-21.6h5.7l9.4,21.6h-4.9l-2.3-5.5H182.9L182.9,193z M191.5,189.3c-2.2-5.3-3.3-7.8-3.8-9.5l0,0
		c-0.5,1.5-1.7,5-3.5,9.5H191.5L191.5,189.3z"/>
	<path d="M204.7,180.4h-7.8v-3.6h20.2v3.6h-7.8v18h-4.5L204.7,180.4L204.7,180.4z"/>
	<path d="M219.8,176.8h4.5v8.3h10.9v-8.3h4.5v21.6h-4.5v-9.7h-10.9v9.7h-4.5L219.8,176.8L219.8,176.8z"/>
	<path d="M266.8,187.5c0,6-4,11.4-11.7,11.4c-7.2,0-11.5-5-11.5-11.3c0-5.9,4.4-11.2,11.6-11.2C262.6,176.3,266.8,181.5,266.8,187.5
		L266.8,187.5z M248.5,187.5c0,4.2,2.3,7.8,6.9,7.8c4.7,0,6.7-3.7,6.7-7.7c0-4-2.2-7.7-6.9-7.7C250.7,179.9,248.5,183.5,248.5,187.5
		L248.5,187.5z"/>
	<path d="M270.5,176.8h4.5v18h12.4l-0.6,3.6h-16.3L270.5,176.8L270.5,176.8z"/>
	<path d="M294.3,176.7v21.6h-4.5v-21.6H294.3L294.3,176.7z"/>
	<path d="M320.2,191.6c-1.1,3.7-4,7.2-10.6,7.2c-7.6,0-11.3-5.3-11.4-11.2c-0.1-5.9,4.1-11.3,11.6-11.3c6.5,0,9.7,3.5,10.4,7.2h-4.6
		c-0.6-1.5-1.9-3.5-5.8-3.5c-4.3,0-6.7,3.3-6.7,7.6s2.3,7.8,6.8,7.8c3.3,0,4.8-1.3,5.7-3.6L320.2,191.6L320.2,191.6z"/>
	<path d="M335.8,176.7v12.3c0,5,2.7,6.2,5.6,6.2c3.2,0,5.3-1.4,5.3-6.2v-12.3h4.5V189c0,6.7-3.6,9.8-9.9,9.8c-6,0-10-2.9-10-9.6
		v-12.5H335.8L335.8,176.7z"/>
	<path d="M356.1,198.3v-21.6h5.4c5.7,8.4,9.6,13.6,10.9,16.1h0.1c-0.2-2.5-0.2-6.3-0.2-9.9v-6.2h4.2v21.6h-5.1
		c-2.4-3.5-9.9-14.6-11.3-17.1h-0.1c0.2,2.7,0.2,5.7,0.2,9.6v7.5L356.1,198.3L356.1,198.3z"/>
	<path d="M386.1,176.6v21.6h-4.5v-21.6H386.1z"/>
	<path d="M397.4,198.2l-9.1-21.6h5l4.2,10.7c1.5,4,2.2,6,2.6,7.4h0.1c0.4-1.1,0.9-2.6,2.7-7.5l4.1-10.6h4.9l-9.2,21.6L397.4,198.2
		L397.4,198.2z"/>
	<path d="M430.9,188.7h-12.3v5.7h13.7l-0.5,3.6H414v-21.6h17.5v3.6h-13v4.9h12.3L430.9,188.7L430.9,188.7z"/>
	<path d="M440.1,189.5v8.6h-4.5v-21.6h11.3c4.8,0,7.7,2.3,7.7,6c0,2.8-1.5,4.4-3.8,5.2c1.1,0.4,3.3,1.2,3.3,5.2v1.1
		c0,1.5,0,3.3,0.3,4.3h-4.7c-0.4-1-0.4-2.4-0.4-4.5V193c0-2.5-1-3.4-4.3-3.4L440.1,189.5L440.1,189.5z M440.1,186h5.7
		c2.8,0,4.1-1.1,4.1-3.1c0-1.9-1.3-3-4-3h-5.8L440.1,186L440.1,186z"/>
	<path d="M461.3,191.7c0.7,2.1,2.3,3.4,6.1,3.4c3.6,0,4.8-1.2,4.8-2.8c0-1.7-1.1-2.7-5.9-3.5c-7.2-1.2-8.6-3.5-8.6-6.4
		c0-4.2,3.9-6.4,9-6.4c7.3,0,9.2,3.8,9.5,6.2h-4.5c-0.4-1.1-1.1-2.8-5-2.8c-2.7,0-4.2,0.9-4.2,2.5c0,1.4,0.9,2.2,5.3,3
		c8.1,1.4,9.4,3.8,9.4,7c0,3.6-2.9,6.6-9.9,6.7c-6.6,0-9.6-3-10.2-6.9L461.3,191.7L461.3,191.7z"/>
	<path d="M485.2,176.5v21.6h-4.5v-21.6H485.2z"/>
	<path d="M495.7,180.1h-7.8v-3.6H508v3.6h-7.8v18h-4.5L495.7,180.1L495.7,180.1z"/>
	<path d="M518.5,198.1v-7.8c0-0.3-0.1-0.4-0.3-0.7l-9-13h5.4c2.3,3.4,5.3,7.9,6.3,9.9c1.1-1.9,4.1-6.4,6.3-10h5l-9.1,13.2
		c-0.1,0.2-0.2,0.3-0.2,0.6v7.8L518.5,198.1L518.5,198.1z"/>
	<path d="M549.4,176.4h9.5c7.2,0,11.2,4.6,11.2,10.4c0,6.9-5,11.2-11.3,11.2h-9.4L549.4,176.4z M554,194.5h4.2
		c4.7,0,7.2-2.8,7.2-7.5c0-4.3-2.5-7-7-7h-4.3L554,194.5L554,194.5z"/>
	<path d="M590.6,188.5h-12.3v5.7H592l-0.5,3.6h-17.7v-21.6h17.5v3.6h-13v4.9h12.3V188.5L590.6,188.5z"/>
	<path d="M595.3,176.4h10.8c5.2,0,8.2,2.6,8.2,6.6c0,4.4-3.1,6.9-8.2,6.9h-6.3v8h-4.5V176.4L595.3,176.4z M599.9,186.3h5.8
		c2.5,0,4-0.8,4-3.3c0-2-1.2-3.2-4.1-3.2h-5.8L599.9,186.3L599.9,186.3z"/>
	<path d="M623.7,180h-7.8v-3.6h20.2v3.6h-7.8v18h-4.5L623.7,180z"/>
	<path d="M634.7,197.9V192h4.9v5.9H634.7L634.7,197.9z"/>
	<path d="M673.3,187c0,6-4,11.4-11.7,11.4c-7.2,0-11.5-5-11.5-11.3c0-5.9,4.4-11.2,11.7-11.2C669.2,175.8,673.4,181.1,673.3,187
		L673.3,187z M654.9,187c0,4.3,2.3,7.8,6.9,7.8c4.7,0,6.7-3.7,6.7-7.7c0-4-2.2-7.7-6.9-7.7C657.1,179.4,654.9,183.1,654.9,187
		L654.9,187z"/>
	<path d="M677,176.3h17.3v3.6h-12.8v5.6h12v3.7h-12v8.7H677L677,176.3L677,176.3z"/>
	<path d="M705.6,176.3h9.5c7.2,0,11.2,4.6,11.2,10.4c0,6.9-5,11.2-11.3,11.2h-9.4L705.6,176.3z M710.2,194.3h4.2
		c4.7,0,7.2-2.8,7.2-7.5c0-4.3-2.5-7-7-7h-4.3L710.2,194.3L710.2,194.3z"/>
	<path d="M734.5,176.2v21.6H730v-21.6H734.5L734.5,176.2z"/>
	<path d="M760.5,197.8h-3.3c-0.1-0.5-0.3-1.7-0.3-2.6c-1.4,1.9-3.3,3-7.5,3c-7,0-10.9-4.7-10.9-11.2c0-6.3,4.2-11.4,11.8-11.4
		c6.8,0,9.8,3.6,10.4,6.8h-4.6c-0.6-1.3-2-3.3-5.7-3.3c-4.8,0-7,3.3-7,7.7c0,4.5,2.3,7.8,7,7.8c3.9,0,5.8-2,5.8-5.2v-0.4h-5.8v-3.5
		h10.2L760.5,197.8L760.5,197.8z"/>
	<path d="M769.4,176.2v21.6h-4.5v-21.6H769.4L769.4,176.2z"/>
	<path d="M779.9,179.8h-7.8v-3.6h20.2v3.6h-7.8v18h-4.5L779.9,179.8L779.9,179.8z"/>
	<path d="M796.3,192.4l-2.2,5.5h-4.7l8.9-21.6h5.7l9.4,21.6h-5l-2.3-5.5H796.3L796.3,192.4z M804.9,188.6c-2.2-5.3-3.3-7.8-3.8-9.5
		l0,0c-0.5,1.5-1.7,5-3.5,9.5H804.9z"/>
	<path d="M815.6,176.1h4.5v18h12.4l-0.6,3.6h-16.3L815.6,176.1L815.6,176.1z"/>
	<path d="M843.1,176.1h9.5c7.2,0,11.2,4.6,11.2,10.4c0,6.9-5,11.2-11.3,11.2h-9.4L843.1,176.1z M847.7,194.2h4.2
		c4.7,0,7.2-2.8,7.2-7.5c0-4.3-2.5-7-7-7h-4.3L847.7,194.2L847.7,194.2z"/>
	<path d="M884.4,188.2h-12.3v5.7h13.7l-0.5,3.6h-17.7V176h17.5v3.6h-13v4.9h12.3V188.2L884.4,188.2z"/>
	<path d="M891.9,191.2c0.7,2.1,2.3,3.4,6.1,3.4c3.6,0,4.8-1.2,4.8-2.9c0-1.7-1.1-2.7-5.9-3.5c-7.2-1.2-8.6-3.5-8.6-6.4
		c0-4.2,4-6.4,9-6.4c7.3,0,9.2,3.8,9.5,6.1h-4.5c-0.4-1.1-1.1-2.8-5-2.8c-2.7,0-4.2,0.9-4.2,2.5c0,1.4,0.9,2.2,5.3,3
		c8.1,1.4,9.4,3.8,9.4,7c0,3.6-2.9,6.6-9.9,6.7c-6.5,0-9.6-3-10.2-6.9L891.9,191.2L891.9,191.2z"/>
	<path d="M915.7,176v21.6h-4.5V176H915.7z"/>
	<path d="M941.8,197.6h-3.3c-0.1-0.5-0.3-1.7-0.3-2.5c-1.4,1.8-3.3,3-7.5,3c-7,0-10.9-4.7-10.9-11.2c0-6.3,4.2-11.4,11.8-11.4
		c6.8,0,9.8,3.6,10.4,6.8h-4.6c-0.6-1.3-2-3.3-5.7-3.3c-4.8,0-7,3.3-7,7.7c0,4.5,2.3,7.8,7,7.8c3.9,0,5.8-2,5.8-5.2V189h-5.8v-3.5
		h10.2L941.8,197.6L941.8,197.6z"/>
	<path d="M946.2,197.6V176h5.4c5.7,8.4,9.6,13.6,10.9,16.1h0.1c-0.2-2.5-0.2-6.3-0.2-9.9V176h4.2v21.6h-5.1
		c-2.4-3.5-9.9-14.6-11.3-17.1h-0.1c0.2,2.8,0.2,5.8,0.2,9.7v7.5H946.2L946.2,197.6z"/>
	<path d="M30.9,233v-16.5c-1.1,0.6-3.6,1.1-4.7,1.1v-3.2c2.7-0.6,4.8-1.9,5.9-3.2h3.3V233L30.9,233L30.9,233z"/>
	<path d="M57.4,222c0,6.3-2.7,11.5-9.1,11.5c-6,0-9.2-5-9.2-11.2c0-6,3-11.3,9.2-11.3C54.3,211,57.4,215.6,57.4,222L57.4,222z
		 M43.6,222.2c0,3.5,1.1,7.8,4.7,7.8c3.7,0,4.6-4,4.6-7.9c0-3.3-1-7.6-4.6-7.6C44.7,214.5,43.6,217.9,43.6,222.2L43.6,222.2z"/>
	<path d="M66.3,215h-7.8v-3.6h20.2v3.6h-7.8v18h-4.5L66.3,215L66.3,215z"/>
	<path d="M81.4,211.4h4.5v8.3h10.9v-8.3h4.5V233h-4.5v-9.7H85.9v9.7h-4.5V211.4L81.4,211.4z"/>
	<path d="M135.1,232.9h-3.3c-0.1-0.5-0.3-1.7-0.3-2.5c-1.4,1.9-3.3,3-7.5,3c-7,0-10.9-4.7-10.9-11.2c0-6.3,4.2-11.4,11.8-11.4
		c6.8,0,9.8,3.6,10.4,6.8h-4.6c-0.6-1.3-2-3.3-5.8-3.3c-4.8,0-7,3.3-7,7.7c0,4.5,2.3,7.8,7,7.8c3.9,0,5.8-2,5.8-5.2v-0.5h-5.8v-3.5
		h10.2L135.1,232.9L135.1,232.9z"/>
	<path d="M144,224.2v8.7h-4.5v-21.6h11.3c4.8,0,7.7,2.3,7.7,6c0,2.7-1.5,4.4-3.8,5.2c1.1,0.4,3.3,1.2,3.3,5.2v1.1
		c0,1.5,0,3.3,0.3,4.2h-4.5c-0.4-1-0.4-2.4-0.4-4.5v-0.7c0-2.5-1-3.4-4.3-3.4L144,224.2L144,224.2z M144,220.8h5.7
		c2.8,0,4.1-1.1,4.1-3.1c0-1.9-1.3-3-4-3H144V220.8L144,220.8z"/>
	<path d="M167.1,227.5l-2.2,5.5h-4.7l8.9-21.6h5.7l9.4,21.6h-4.9l-2.3-5.5H167.1L167.1,227.5z M175.6,223.8
		c-2.2-5.3-3.3-7.8-3.8-9.5l0,0c-0.5,1.5-1.7,5-3.5,9.5H175.6z"/>
	<path d="M186.4,211.3h9.5c7.2,0,11.2,4.6,11.2,10.4c0,6.9-5,11.2-11.3,11.2h-9.4L186.4,211.3L186.4,211.3z M190.9,229.3h4.2
		c4.7,0,7.1-2.8,7.1-7.5c0-4.3-2.5-7-7-7h-4.3V229.3L190.9,229.3z"/>
	<path d="M215.1,211.2v12.3c0,4.9,2.7,6.2,5.6,6.2c3.2,0,5.3-1.4,5.3-6.2v-12.3h4.5v12.3c0,6.7-3.6,9.8-9.9,9.8c-6,0-10-2.9-10-9.6
		v-12.5H215.1L215.1,211.2z"/>
	<path d="M238.9,227.4l-2.2,5.5H232l8.9-21.6h5.7l9.4,21.6h-4.9l-2.3-5.5H238.9L238.9,227.4z M247.4,223.8c-2.2-5.3-3.3-7.8-3.8-9.5
		l0,0c-0.5,1.5-1.7,5-3.5,9.5H247.4L247.4,223.8z"/>
	<path d="M260.7,214.9h-7.8v-3.6h20.2v3.6h-7.8v18h-4.5L260.7,214.9L260.7,214.9z"/>
	<path d="M280.2,211.2v21.6h-4.5v-21.6H280.2z"/>
	<path d="M307.3,221.8c0,6-4,11.4-11.7,11.4c-7.2,0-11.5-5-11.5-11.3c0-5.9,4.4-11.2,11.6-11.2C303.1,210.7,307.3,215.9,307.3,221.8
		L307.3,221.8z M289,221.8c0,4.2,2.3,7.8,6.9,7.8c4.7,0,6.7-3.7,6.7-7.7c0-4-2.2-7.7-6.9-7.7C291.2,214.3,289,217.9,289,221.8z"/>
	<path d="M311.1,232.8v-21.6h5.4c5.7,8.4,9.6,13.6,10.9,16.1h0.1c-0.2-2.5-0.2-6.3-0.2-9.9v-6.2h4.2v21.6h-5.1
		c-2.4-3.5-9.9-14.6-11.3-17.1H315c0.2,2.8,0.2,5.7,0.2,9.6v7.5L311.1,232.8L311.1,232.8z"/>
	<path d="M361.2,223.3h-12.3v5.7h13.7l-0.5,3.6h-17.7V211h17.5v3.6h-13v4.9h12.3V223.3L361.2,223.3z"/>
	<path d="M380.9,232.7l-6-8h-0.1l-5.8,8h-5.1l8.4-11l-8.1-10.5h5.4l5.6,7.5l0,0l5.6-7.5h5l-8.1,10.4l8.6,11.2L380.9,232.7
		L380.9,232.7z"/>
	<path d="M388,211h4.5v8.3h10.9V211h4.5v21.6h-4.5V223h-10.9v9.7h-4.4L388,211L388,211z"/>
	<path d="M417.8,211v21.6h-4.5V211H417.8z"/>
	<path d="M422.8,211h11.5c5,0,7.3,2.3,7.3,5.5c0,2.6-1.6,4-3.3,4.6c2,0.6,4.1,2.1,4.1,5.1c0,4.1-3.3,6.4-8.1,6.4h-11.4V211
		L422.8,211z M427.3,229.2h6.2c2.2,0,4.1-0.7,4.1-3.2c0-2-1.4-3.1-4.1-3.1h-6.2V229.2L427.3,229.2z M433.3,219.6
		c2.6,0,3.5-1,3.5-2.6c0-1.9-1.4-2.6-3.5-2.6h-5.9v5.2L433.3,219.6L433.3,219.6z"/>
	<path d="M450.5,211v21.6H446V211H450.5L450.5,211z"/>
	<path d="M461,214.7h-7.8V211h20.2v3.6h-7.8v18H461L461,214.7L461,214.7z"/>
	<path d="M480.6,210.9v21.6h-4.5v-21.6H480.6L480.6,210.9z"/>
	<path d="M507.6,221.7c0,6-4,11.4-11.7,11.4c-7.2,0-11.5-5-11.5-11.3c0-5.9,4.4-11.2,11.7-11.2C503.4,210.5,507.6,215.7,507.6,221.7
		L507.6,221.7z M489.3,221.7c0,4.3,2.3,7.8,6.9,7.8c4.7,0,6.7-3.7,6.7-7.7c0-4-2.2-7.7-6.9-7.7C491.5,214.1,489.3,217.7,489.3,221.7
		L489.3,221.7z"/>
	<path d="M511.4,232.6v-21.6h5.4c5.7,8.4,9.6,13.6,10.9,16.1h0.1c-0.2-2.5-0.2-6.3-0.2-9.9v-6.2h4.2v21.6h-5.1
		c-2.4-3.5-9.9-14.6-11.3-17.1h-0.1c0.2,2.8,0.2,5.7,0.2,9.6v7.5L511.4,232.6L511.4,232.6z"/>
	<path d="M91.2,112.7l-47.5,0.1v22.1l52.6-0.1l-2,14.2l-68.1,0.1l-0.1-83.2l67.6-0.1V80l-50.1,0.1v18.7h47.5L91.2,112.7L91.2,112.7z
		"/>
	<path d="M167,148.9l-23.2-30.8h-0.4L121.1,149h-19.5l32.3-42.6l-31.3-40.7h20.6l21.4,28.6h0.1l21.5-28.7h19l-31.4,40l33.3,43.3
		L167,148.9L167,148.9z"/>
	<path d="M219.2,79.7H189v-14l77.7-0.1v14h-30.1l0.1,69.2h-17.4L219.2,79.7L219.2,79.7z"/>
	<path d="M341.9,112.4l-47.5,0.1v22.1l52.6-0.1l-2,14.2l-68.1,0.1l-0.1-83.2l67.6-0.1v14.2l-50.1,0.1v18.7h47.5L341.9,112.4
		L341.9,112.4z"/>
	<path d="M360.1,148.7L360,65.6h20.6c21.9,32.5,36.9,52.4,42,61.8h0.2c-0.9-9.5-0.8-24.3-0.8-37.8v-24h16.2l0.1,83.2h-19.4
		c-9.4-13.8-38-56.3-43.4-65.8h-0.2c0.8,10.5,0.8,22.3,0.8,37v28.9L360.1,148.7L360.1,148.7z"/>
	<path d="M458,65.5h36.4c27.7,0,43.2,17.9,43.2,40.2c0,26.6-19.3,43.1-43.5,43.1H458L458,65.5L458,65.5z M475.5,134.8h16.2
		c18.2,0,27.5-10.6,27.5-28.8c0-16.7-9.5-26.9-27-27h-16.7V134.8z"/>
	<path d="M671.2,147.8l-23.1-30.9h-0.4l-22.4,30.9h-19.5l32.3-42.6l-31.2-40.7h20.6l21.4,28.6h0.1l21.5-28.6h19.1l-31.5,40
		l33.2,43.3H671.2L671.2,147.8z"/>
	<path d="M709.3,147.8V84.6c-4.3,2.5-13.4,4.9-17.3,5.1V76.7c10.3-2.5,17.9-8.4,21.6-12.5h12.9v83.6L709.3,147.8L709.3,147.8z"/>
	<path d="M812.1,105.1c0,24.9-10.2,44.4-35.3,44.4c-23.6,0-35.3-19.1-35.3-43.5s11.6-43.5,35.6-43.5S812.1,81.8,812.1,105.1z
		 M759.5,105.7c0,14.1,3.7,29.9,17.4,29.9c13.7,0,17.1-14.6,17.1-30.3c0-13.4-3.3-29-16.9-29C763.4,76.3,759.5,89.6,759.5,105.7z"/>
	<path d="M826.4,64.6h36.4c27.7,0,43.2,17.9,43.2,40.2c0,26.6-19.3,43.1-43.5,43.1h-36.1V64.6L826.4,64.6z M843.8,134h16.2
		c18.2,0,27.5-10.6,27.5-28.7c0-16.7-9.4-26.9-27-27h-16.7V134z"/>
	<path d="M566.3,137V116h17.4V137H566.3z M566.3,97.4V76.4h17.4v21.1H566.3z"/>
	<path d="M1331.4,19.9v25.9h-2.8V32.5h-3.1v12h-2.8V20.4h2.8V30h3.1V19.8L1331.4,19.9L1331.4,19.9z M1313,37.2c3,0,5.4-0.2,8-0.8
		l0.3,2.4c-3.2,0.6-5.8,0.8-9.5,0.8h-1.7V23h9.6v2.4h-6.7V37.2L1313,37.2z"/>
	<path d="M1358.9,34.9h-10.3v10.9h-3V35h-10.1v-2.4h16.8c0.8-3.6,0.8-6.3,0.8-8.7h-14.7v-2.4h17.7v2.3c0,2.5,0,5.2-0.7,8.8h3.6
		L1358.9,34.9L1358.9,34.9z"/>
	<path d="M1382.2,41c0,3-3.3,4.8-8.8,4.8c-5.4,0-8.7-1.8-8.7-4.8c0-3.1,3.3-4.8,8.7-4.8C1378.8,36.2,1382.2,37.9,1382.2,41z
		 M1379.2,41c0-1.6-2.1-2.5-5.7-2.5s-5.7,0.9-5.7,2.5s2.1,2.5,5.7,2.5S1379.2,42.6,1379.2,41z M1385.4,26.6V29h-3.4v6.8h-3V19.7h3
		v6.8L1385.4,26.6L1385.4,26.6z M1377.6,33.3c-5.4,0.9-11.4,1.1-16,1.1l-0.3-2.4c1.6,0,3.3,0,5.2,0v-4.9h3v4.8
		c2.7-0.1,5.5-0.3,8-0.7L1377.6,33.3L1377.6,33.3z M1372.4,29.6c0.5-2.5,0.6-4.3,0.6-5.8h-10.1v-2.4h13v1.5c0,1.6,0,4-0.7,7
		L1372.4,29.6L1372.4,29.6z"/>
	<path d="M1391.7,36.5h17.5v9.4h-3v-7h-14.5L1391.7,36.5L1391.7,36.5z M1409.1,19.8v15.4h-3v-3.5h-6.1c-1.2,1.4-3.1,2.3-5.3,2.2
		c-3.8,0-6.8-2.7-6.8-6.3c0-3.7,2.9-6.3,6.7-6.3c2.2,0,4.1,0.9,5.3,2.2h6.1v-3.6L1409.1,19.8L1409.1,19.8z M1398.7,27.6
		c0-2.3-1.7-3.8-3.9-3.8s-3.9,1.5-3.9,3.8s1.7,3.8,3.9,3.8C1397,31.4,1398.7,29.8,1398.7,27.6L1398.7,27.6z M1406.2,29.2v-3.3h-4.9
		c0.1,0.5,0.2,1.1,0.2,1.7c0,0.6-0.1,1.1-0.2,1.6H1406.2L1406.2,29.2z"/>
	<path d="M1435.2,19.7v26h-3v-26H1435.2z M1423.4,26.2c0,4.8,2.7,9.6,6.7,11.4l-1.7,2.4c-3-1.4-5.3-4.3-6.4-7.8
		c-1.1,3.7-3.4,6.8-6.6,8.3l-1.7-2.5c4.1-1.9,6.8-6.9,6.8-11.9V22h3L1423.4,26.2L1423.4,26.2z"/>
	<path d="M1468.3,41c0,3-3.3,4.8-8.9,4.8s-8.9-1.7-8.9-4.7s3.3-4.7,8.9-4.7C1464.9,36.3,1468.3,38,1468.3,41z M1465.3,41
		c0-1.6-2.1-2.5-5.9-2.4c-3.8,0-5.9,0.9-5.9,2.5s2.1,2.4,5.9,2.4C1463.1,43.4,1465.3,42.6,1465.3,41z M1471.1,32.2v2.4h-23.4v-2.4
		h10.2v-2.6h-7.4v-8.8h17.6v2.4h-14.7v4h14.9v2.4h-7.6v2.6H1471.1L1471.1,32.2z"/>
	<path d="M1497.3,34.8h-10.3v10.8h-3V34.8h-10.1v-2.4h16.8c0.8-3.6,0.8-6.3,0.8-8.7h-14.7v-2.4h17.7v2.3c0,2.5,0,5.2-0.7,8.8h3.6
		L1497.3,34.8L1497.3,34.8z"/>
	<path d="M1528.3,40.9c0,3-3.3,4.8-8.9,4.8s-8.9-1.7-8.9-4.7s3.3-4.7,8.9-4.7C1524.9,36.2,1528.3,37.9,1528.3,40.9z M1525.3,40.9
		c0-1.5-2.1-2.4-5.9-2.4c-3.8,0-5.9,0.9-5.9,2.5s2.1,2.5,5.9,2.4C1523.1,43.3,1525.3,42.5,1525.3,40.9z M1531.2,32.1v2.4h-23.4v-2.4
		h10.2v-2.6h-7.4v-8.8h17.6v2.4h-14.7v4h14.9v2.4h-7.6v2.6H1531.2L1531.2,32.1z"/>
	<path d="M1555.9,19.6v25.9h-2.8V32.2h-3.1v12h-2.8V20.1h2.8v9.7h3.1V19.5L1555.9,19.6L1555.9,19.6z M1537.6,36.9c3,0,5.4-0.2,8-0.8
		l0.3,2.4c-3.2,0.6-5.8,0.8-9.5,0.8h-1.7V22.7h9.6v2.4h-6.7V36.9L1537.6,36.9z"/>
	<path d="M1583.4,34.7h-10.3v10.8h-3V34.7H1560v-2.4h16.8c0.8-3.6,0.8-6.3,0.8-8.7h-14.7v-2.4h17.7v2.3c0,2.4,0,5.2-0.7,8.8h3.6
		L1583.4,34.7L1583.4,34.7z"/>
	<path d="M1609.5,40v2.4h-23.4v-2.5h10.2v-4.4h-7.4v-8.3h14.9v-3.4h-15v-2.4h17.9v8.2h-14.9v3.6h15.5v2.4h-8.1V40L1609.5,40
		L1609.5,40z"/>
	<path d="M1626.7,37.8h-9.2v-2.2l8.4-12.9h3.8v12.6h2.7v2.6h-2.7v5.5h-3.1L1626.7,37.8L1626.7,37.8z M1626.7,35.3v-5.2
		c0-1.1,0.1-3,0.1-4.1h-0.1c-0.5,1.1-1.1,2-1.7,3.1l-4.1,6.2L1626.7,35.3L1626.7,35.3z"/>
	<path d="M1634.5,33.7c0-8.1,3.7-11.4,7.9-11.4c2.4,0,4.1,1,5.3,2.3l-1.8,2c-0.8-1-2.1-1.5-3.3-1.5c-2.7,0-4.9,2-5.1,8
		c1.2-1.5,3.1-2.5,4.6-2.5c3.5,0,5.9,2.1,5.9,6.3c0,4-2.9,6.7-6.3,6.7C1637.8,43.6,1634.5,40.5,1634.5,33.7L1634.5,33.7z
		 M1637.7,35.5c0.4,3.8,1.9,5.6,4.1,5.6c1.8,0,3.3-1.5,3.3-4.2c0-2.5-1.2-3.9-3.5-3.9C1640.4,33,1638.9,33.7,1637.7,35.5
		L1637.7,35.5z"/>
	<path d="M1651.6,40.6h4.6V26.4h-3.8v-2.1c2-0.4,3.3-0.9,4.6-1.6h2.5v17.8h4.1v2.7h-12.1L1651.6,40.6L1651.6,40.6z"/>
	<path d="M1694.9,19.4v25.9h-2.8V32.1h-3.1v12h-2.8V19.9h2.8v9.7h3.1V19.3L1694.9,19.4L1694.9,19.4z M1676.5,36.8c3,0,5.4-0.2,8-0.8
		l0.3,2.5c-3.2,0.6-5.8,0.8-9.5,0.8h-1.7V22.7h9.6v2.4h-6.7V36.8L1676.5,36.8z"/>
	<path d="M1722.4,34.5H1712v10.8h-3V34.5h-10.1v-2.4h16.8c0.8-3.6,0.8-6.3,0.8-8.7h-14.7V21h17.7v2.3c0,2.4,0,5.2-0.7,8.8h3.6
		L1722.4,34.5L1722.4,34.5z"/>
	<path d="M1746.7,40.1c0,3.2-3.4,5.2-8.7,5.2c-5.3,0-8.6-1.9-8.6-5.2c0-3.2,3.3-5.1,8.6-5.1C1743.2,35,1746.7,36.9,1746.7,40.1
		L1746.7,40.1z M1743.8,40.1c0-1.8-2.2-2.8-5.7-2.8c-3.5,0-5.7,1.1-5.7,2.8c0,1.8,2.2,2.8,5.7,2.8
		C1741.6,43,1743.8,41.9,1743.8,40.1L1743.8,40.1z M1737.5,26.3c-1.6,4.1-5.5,7.1-11,8.7l-1.1-2.4c6.1-1.7,9.5-4.9,10-8.9h-8.6v-2.4
		h11.8c0,1-0.1,1.8-0.2,2.6h5.4v-4.5h3v15.2h-3v-3h-6.3v-2.4h6.3v-3H1737.5L1737.5,26.3z"/>
	<path d="M1764.3,34.3V37h7.4v8.3h-3v-6h-15v-2.4h7.6v-2.7H1751v-2.4h23.5v2.4L1764.3,34.3L1764.3,34.3z M1771.6,29.9h-17.4V20h3
		v2.7h11.6V20h3L1771.6,29.9L1771.6,29.9z M1768.7,25h-11.6v2.6h11.6V25z"/>
	<path d="M1798.7,19.3v26h-3v-26H1798.7z M1781.8,36.6c4.8,0,7.9-0.2,11.4-0.9l0.3,2.5c-3.7,0.7-7.1,0.9-12.5,0.9h-2.1V21.8h12.3
		v2.5h-9.4L1781.8,36.6L1781.8,36.6z"/>
	<path d="M1827.6,32.1h-4v13.3h-3V19.4h3v10.1h4V32.1L1827.6,32.1z M1812.5,26.9c0,4,2.6,8.6,6.5,10.4l-1.6,2.3
		c-2.9-1.3-5.1-4.2-6.3-7.6c-1.1,3.6-3.4,6.7-6.4,8.2l-1.7-2.4c3.9-1.9,6.6-6.8,6.6-11.1v-2.5h-5.6v-2.4h14.1v2.5h-5.5L1812.5,26.9
		L1812.5,26.9z"/>
	<path d="M1851.7,42.4v2.4H1834v-8.5h3v6.1H1851.7z M1850.9,38.2h-3V19.3h3V38.2z M1836.9,34.1c-3.9,0-6.9-2.7-6.9-6.5
		s3-6.5,6.9-6.5s6.9,2.7,6.9,6.5C1843.8,31.3,1840.9,34.1,1836.9,34.1z M1836.9,31.5c2.3,0,4-1.6,4-3.9c0-2.4-1.7-3.9-4-3.9
		c-2.3,0-4,1.5-4,3.9C1832.9,29.9,1834.6,31.5,1836.9,31.5z"/>
	<path d="M1877.8,42.3v2.4h-17.7v-8.2h3v5.8H1877.8z M1877,38.2h-3V19.3h3V38.2z M1870.2,34.7c-3-1-5.2-3-6.3-5.6
		c-1.1,2.8-3.3,5-6.4,6l-1.5-2.3c4.1-1.4,6.4-4.8,6.4-8.2v-1h-5.6v-2.4h14.2v2.4h-5.6v1c0,3.3,2.4,6.5,6.3,7.8L1870.2,34.7
		L1870.2,34.7z"/>
	<path d="M1902.4,41.1c0,2.7-3.3,4-8.9,4s-8.9-1.4-8.9-4c0-2.6,3.3-4,8.9-4C1899.2,37.1,1902.4,38.6,1902.4,41.1z M1899.4,41.1
		c0-1.2-2-1.8-5.9-1.8s-5.9,0.6-5.9,1.8s2,1.8,5.9,1.8C1897.4,43.1,1899.4,42.4,1899.4,41.1z M1905.3,33.4v2.3h-23.4v-2.3H1905.3z
		 M1893.5,24.5c5.5,0,8.5,1.2,8.5,3.7s-3.1,3.7-8.5,3.7c-5.5,0-8.5-1.2-8.5-3.7S1888,24.5,1893.5,24.5z M1893.5,26.5
		c-3.5,0-5.4,0.6-5.4,1.7c0,1.1,1.8,1.7,5.4,1.7s5.4-0.6,5.4-1.7S1897,26.5,1893.5,26.5z M1903.9,23.6h-21v-2.3h9.1v-2.4h3v2.4h8.9
		V23.6L1903.9,23.6z"/>
	<path d="M1930.1,42.3v2.4h-18.8V37h3v5.3H1930.1L1930.1,42.3z M1926.4,34.4V19.2h3v19.7h-3v-2.4h-5.1v-2.1H1926.4L1926.4,34.4z
		 M1915,33.3c-2.5,0.1-4.8,0.2-6.9,0.2l-0.4-2.4c4.8,0,11.1-0.1,16.7-0.8l0.2,2.1c-2.2,0.4-4.5,0.6-6.7,0.8v5h-3L1915,33.3
		L1915,33.3z M1909.8,24.8c0-2.8,2.6-4.6,6.4-4.6s6.4,1.8,6.4,4.6s-2.6,4.6-6.4,4.6S1909.8,27.6,1909.8,24.8L1909.8,24.8z
		 M1912.6,24.8c0,1.4,1.4,2.4,3.6,2.4c2.1,0,3.6-1,3.6-2.4c0-1.4-1.4-2.4-3.6-2.4C1914.1,22.4,1912.6,23.3,1912.6,24.8z"/>
	<path d="M1948.5,37.5h-9.2v-2.2l8.4-12.9h3.8v12.5h2.7v2.6h-2.7V43h-3.1V37.5L1948.5,37.5z M1948.5,34.9v-5.2c0-1.1,0.1-3,0.1-4.1
		h-0.1c-0.5,1.1-1.1,2-1.7,3.1l-4.1,6.2L1948.5,34.9L1948.5,34.9z"/>
	<path d="M1977,40.8c0,2.8-3.3,4.4-8.9,4.4c-5.6,0-8.9-1.5-8.9-4.3s3.3-4.3,8.9-4.3C1973.6,36.5,1977,37.9,1977,40.8L1977,40.8z
		 M1973.9,40.8c0-1.4-2.1-2.1-5.9-2.1s-5.9,0.8-5.9,2.2c0,1.4,2.1,2.1,5.9,2.1C1971.9,42.9,1973.9,42.1,1973.9,40.8z M1979.7,32.1
		v2.4h-23.4v-2.4H1979.7z M1957.5,28.5c5.3-0.4,8.5-2.2,8.8-4.6h-7.7v-2.3h7.8v-2.5h3v2.5h7.8v2.3h-7.7c0.4,2.3,3.6,4.2,8.8,4.6
		l-1,2.2c-4.5-0.4-7.9-1.8-9.7-4.1c-1.6,2.3-5.1,3.7-9.6,4.1L1957.5,28.5L1957.5,28.5z"/>
	<path d="M2011.5,19.1v26h-3v-26H2011.5z M1994.8,36.4c4.8,0,7.9-0.2,11.4-0.9l0.3,2.5c-3.7,0.7-7.1,0.9-12.5,0.9h-2.1V21.6h12.3V24
		h-9.4L1994.8,36.4L1994.8,36.4z"/>
	<path d="M2040.4,31.8h-4v13.3h-3V19.1h3v10.2h4V31.8L2040.4,31.8z M2025.4,26.7c0,4,2.6,8.6,6.5,10.4l-1.6,2.3
		c-2.9-1.3-5.1-4.2-6.3-7.6c-1.1,3.6-3.4,6.7-6.4,8.2l-1.7-2.4c3.9-1.9,6.6-6.8,6.6-11.1v-2.5h-5.6v-2.4h14.1v2.5h-5.5V26.7
		L2025.4,26.7z"/>
	<path d="M2064.6,42.1v2.4h-17.7V36h3v6.1H2064.6L2064.6,42.1z M2063.9,37.9h-3V19h3V37.9z M2049.9,33.8c-3.9,0-6.9-2.7-6.9-6.5
		s3-6.5,6.9-6.5c3.9,0,6.9,2.7,6.9,6.5C2056.7,31.1,2053.7,33.8,2049.9,33.8z M2049.9,31.3c2.3,0,4-1.5,4-3.9s-1.7-3.9-4-3.9
		s-4,1.5-4,3.9C2045.9,29.7,2047.6,31.3,2049.9,31.3z"/>
	<path d="M2098.5,42.1v2.4h-17.4v-8.1h3V42L2098.5,42.1z M2094.9,26v-6.9h3v19h-3v-9.6h-4.7v-2.4L2094.9,26L2094.9,26z M2090.3,34.3
		c-2.9-1-5-3-6-5.6c-1.1,2.8-3.3,5.1-6.4,6.1l-1.5-2.3c4-1.4,6.3-4.9,6.3-8.3v-0.9h-5.5V21h13.9v2.4h-5.4v0.9c0,3.2,2.2,6.4,6.1,7.8
		L2090.3,34.3L2090.3,34.3z"/>
	<path d="M2123.8,19v26h-3V19H2123.8z M2112,25.4c0,4.8,2.7,9.6,6.7,11.4l-1.7,2.4c-3-1.4-5.3-4.3-6.4-7.8c-1.1,3.7-3.4,6.8-6.6,8.3
		l-1.7-2.5c4.1-1.9,6.8-6.8,6.8-11.9v-4.2h3L2112,25.4L2112,25.4z"/>
	<path d="M2149.1,40c0,3.1-3.3,4.9-8.6,4.9s-8.6-1.8-8.6-4.9s3.3-4.9,8.6-4.9S2149.1,36.9,2149.1,40L2149.1,40z M2146.2,40
		c0-1.7-2.1-2.6-5.7-2.6c-3.6,0-5.7,0.9-5.7,2.6c0,1.6,2.1,2.6,5.7,2.6C2144.2,42.6,2146.2,41.7,2146.2,40z M2152.5,25.3v2.4h-3.6
		v6.8h-3V18.9h3v6.3H2152.5L2152.5,25.3z M2142.3,33.5c-2.9-1-5-2.8-6.1-5.2c-1.1,2.8-3.3,5-6.4,6l-1.5-2.3c4.1-1.4,6.3-4.8,6.3-8.2
		v-0.5h-5.6V21h14v2.4h-5.5v0.5c0,3.3,2.2,6.2,6.1,7.5L2142.3,33.5L2142.3,33.5z"/>
	<path d="M1410.2,170v6.6h-18.3V170H1410.2z"/>
	<path d="M1750,170v6.6h-18.3V170H1750z"/>
	<path d="M1237.3,126.8v-0.6c0-11.6,5.6-20.4,21.3-30.2c10.7-6.6,13.6-8.6,13.6-14.1c0-4.6-2.6-8.9-10.4-8.9
		c-7.1,0-10.3,4.2-11.4,10.7h-12.7c1-12.3,10-21,24.6-21s23.2,8.2,23.2,19c0,9.8-4.5,14.1-17,21.3c-8,4.8-13.4,8.9-15.2,13h34.8
		l-1.7,10.5L1237.3,126.8L1237.3,126.8z"/>
	<path d="M1346.3,94.8c0,18.7-7.7,33.3-26.5,33.3c-17.7,0-26.5-14.4-26.5-32.6s8.7-32.6,26.7-32.6
		C1338,62.9,1346.2,77.4,1346.3,94.8L1346.3,94.8z M1306.8,95.3c0,10.5,2.8,22.4,13,22.4c10.2,0,12.8-11,12.8-22.8
		c0-10-2.4-21.7-12.6-21.7C1309.8,73.2,1306.8,83.2,1306.8,95.3z"/>
	<path d="M1353.1,126.8v-0.6c0-11.6,5.6-20.4,21.3-30.2c10.7-6.6,13.6-8.6,13.6-14.1c0-4.6-2.6-8.9-10.4-8.9
		c-7.1,0-10.3,4.2-11.4,10.7h-12.7c1-12.3,10-21,24.6-21s23.2,8.2,23.2,19c0,9.8-4.5,14.1-17,21.3c-8,4.8-13.4,8.9-15.2,13h34.8
		l-1.7,10.5L1353.1,126.8L1353.1,126.8z"/>
	<path d="M1410.5,126.8v-0.6c0-11.6,5.6-20.4,21.3-30.2c10.7-6.6,13.6-8.6,13.6-14.1c0-4.6-2.6-8.9-10.4-8.9
		c-7.1,0-10.3,4.2-11.4,10.7h-12.7c1-12.3,10-21,24.6-21s23.2,8.2,23.2,19c0,9.8-4.5,14.1-17,21.3c-8,4.8-13.4,8.9-15.2,13h34.8
		l-1.7,10.5L1410.5,126.8L1410.5,126.8z"/>
	<path d="M1468.8,126.8v-18.2h15v18.2H1468.8z"/>
	<path d="M1496,126.8V79.4c-3.3,1.9-10,3.6-13,3.8v-9.7c7.8-1.8,13.4-6.3,16.3-9.4h9.7v62.7L1496,126.8L1496,126.8z"/>
	<path d="M1531.2,126.8V79.4c-3.3,1.9-10,3.6-13,3.8v-9.7c7.8-1.8,13.4-6.3,16.3-9.4h9.7v62.7L1531.2,126.8L1531.2,126.8z"/>
	<path d="M1555.6,126.8v-18.2h15v18.2H1555.6z"/>
	<path d="M1579.8,80.8c1.1-7.7,7.2-17.9,24.3-17.9c15.9,0,23.3,8.1,23.3,17.4c0,8.3-5.8,11.6-9,12.5V93c4.5,1.4,11.6,5.3,11.6,15.5
		c0,11.3-8.9,19.7-25.9,19.7c-17,0-24.2-9.1-25.7-19.2h13.1c1.3,5.3,5.5,8.9,13.3,8.9c6.9,0,11.7-3.1,11.7-9.8c0-6-4-9.4-12.3-9.4
		h-5.2V88.4h3.9c8.3,0,11-2.4,11-7.3c0-4.4-2.9-8-10.1-8s-10,3.8-11,7.8L1579.8,80.8L1579.8,80.8z"/>
	<path d="M1689.9,94.8c0,18.7-7.7,33.3-26.5,33.3c-17.7,0-26.5-14.4-26.5-32.6s8.7-32.6,26.7-32.6
		C1681.6,62.9,1689.9,77.4,1689.9,94.8L1689.9,94.8z M1650.5,95.3c0,10.5,2.8,22.4,13,22.4c10.2,0,12.8-11,12.8-22.8
		c0-10-2.4-21.7-12.6-21.7C1653.5,73.2,1650.5,83.2,1650.5,95.3z"/>
	<path d="M1750.3,126.8v-0.6c0-11.6,5.6-20.4,21.3-30.2c10.7-6.6,13.6-8.6,13.6-14.1c0-4.6-2.6-8.9-10.4-8.9
		c-7.1,0-10.3,4.2-11.4,10.7h-12.7c1-12.3,10-21,24.6-21s23.2,8.2,23.2,19c0,9.8-4.5,14.1-17,21.3c-8,4.8-13.4,8.9-15.2,13h34.8
		l-1.7,10.5L1750.3,126.8L1750.3,126.8z"/>
	<path d="M1859.3,94.8c0,18.7-7.7,33.3-26.5,33.3c-17.7,0-26.5-14.4-26.5-32.6s8.7-32.6,26.7-32.6
		C1851,62.9,1859.3,77.4,1859.3,94.8L1859.3,94.8z M1819.9,95.3c0,10.5,2.8,22.4,13,22.4c10.2,0,12.8-11,12.8-22.8
		c0-10-2.4-21.7-12.6-21.7C1822.9,73.2,1819.9,83.2,1819.9,95.3z"/>
	<path d="M1866.1,126.8v-0.6c0-11.6,5.6-20.4,21.3-30.2c10.7-6.6,13.6-8.6,13.6-14.1c0-4.6-2.6-8.9-10.4-8.9
		c-7.1,0-10.3,4.2-11.4,10.7h-12.7c1-12.3,10-21,24.6-21s23.2,8.2,23.2,19c0,9.8-4.5,14.1-17,21.3c-8,4.8-13.4,8.9-15.2,13h34.8
		l-1.7,10.5L1866.1,126.8L1866.1,126.8z"/>
	<path d="M1923.5,126.8v-0.6c0-11.6,5.6-20.4,21.3-30.2c10.7-6.6,13.6-8.6,13.6-14.1c0-4.6-2.6-8.9-10.4-8.9
		c-7.1,0-10.3,4.2-11.4,10.7h-12.7c1-12.3,10-21,24.6-21s23.2,8.2,23.2,19c0,9.8-4.5,14.1-17,21.3c-8,4.8-13.4,8.9-15.2,13h34.9
		l-1.7,10.5L1923.5,126.8L1923.5,126.8z"/>
	<path d="M1981.7,126.8v-18.2h15v18.2H1981.7z"/>
	<path d="M2009,126.8V79.4c-3.3,1.9-10,3.6-13,3.8v-9.7c7.8-1.8,13.4-6.3,16.3-9.4h9.7v62.7L2009,126.8L2009,126.8z"/>
	<path d="M2033.8,126.8v-0.6c0-11.6,5.6-20.4,21.3-30.2c10.7-6.6,13.6-8.6,13.6-14.1c0-4.6-2.6-8.9-10.4-8.9
		c-7.1,0-10.3,4.2-11.4,10.7h-12.8c1-12.3,10-21,24.6-21c14.6,0,23.2,8.2,23.2,19c0,9.8-4.5,14.1-17,21.3c-8,4.8-13.4,8.9-15.2,13
		h34.8l-1.7,10.5L2033.8,126.8L2033.8,126.8z"/>
	<path d="M2092.1,126.8v-18.2h15v18.2H2092.1z"/>
	<path d="M2167.4,94.8c0,18.7-7.7,33.3-26.5,33.3c-17.7,0-26.5-14.4-26.5-32.6s8.7-32.6,26.7-32.6
		C2159.1,62.9,2167.3,77.4,2167.4,94.8L2167.4,94.8z M2127.9,95.3c0,10.5,2.8,22.4,13,22.4c10.2,0,12.8-11,12.8-22.8
		c0-10-2.4-21.7-12.6-21.7C2130.9,73.2,2127.9,83.2,2127.9,95.3L2127.9,95.3z"/>
	<path d="M2175,80.8c1.1-7.7,7.2-17.9,24.3-17.9c15.9,0,23.3,8.1,23.3,17.4c0,8.3-5.8,11.6-9,12.5V93c4.5,1.4,11.6,5.3,11.6,15.5
		c0,11.3-8.9,19.7-25.9,19.7s-24.2-9.1-25.7-19.2h13.1c1.3,5.3,5.4,8.9,13.3,8.9c6.9,0,11.7-3.1,11.7-9.8c0-6-4-9.4-12.3-9.4h-5.2
		V88.4h3.9c8.3,0,11-2.4,11-7.3c0-4.4-2.9-8-10.1-8s-10,3.8-11,7.8L2175,80.8L2175,80.8z"/>
	<path d="M1734.6,89.8v11.1h-30.7V89.8H1734.6z"/>
	<path d="M1252.2,193.7l-11.6-39.2h8.7c2.5,9.2,7.2,25.3,7.9,31.8h0.1c1.2-6.7,5.9-22.6,8.8-31.8h7.9c2.6,8.7,7.7,26.2,8.7,31.5h0.1
		c1.1-6.7,5.7-22.6,8.2-31.5h8.3l-12.3,39.3h-8.9c-2.6-8.7-7.5-25.3-8.6-30.6h-0.1c-1.1,6.1-5.6,20.9-8.5,30.6L1252.2,193.7
		L1252.2,193.7z"/>
	<path d="M1334.6,176.5h-22.4v10.4h24.9l-1,6.7h-32.2v-39.3h31.9v6.7h-23.6v8.8h22.4L1334.6,176.5L1334.6,176.5z"/>
	<path d="M1343.2,154.4h17.2c13.1,0,20.4,8.4,20.4,19c0,12.5-9.1,20.3-20.5,20.3h-17L1343.2,154.4L1343.2,154.4z M1351.4,187.1h7.7
		c8.6,0,12.9-5.1,12.9-13.6c0-7.8-4.5-12.6-12.7-12.7h-7.8V187.1L1351.4,187.1z"/>
	<path d="M1429.8,182c1.2,3.8,4.2,6.3,11.1,6.3c6.6,0,8.8-2.2,8.8-5.2c0-3.1-1.9-4.9-10.8-6.4c-13.1-2.2-15.7-6.4-15.7-11.7
		c0-7.6,7.3-11.6,16.3-11.6c13.2,0,16.7,6.9,17.1,11.2h-8.2c-0.7-2.2-2.1-5.1-9.1-5.1c-4.9,0-7.7,1.5-7.7,4.6c0,2.6,1.6,4,9.5,5.4
		c14.7,2.6,17,7.1,17,12.6c0,6.6-5.2,12.1-18,12.1c-11.9,0-17.4-5.4-18.7-12.4L1429.8,182L1429.8,182z"/>
	<path d="M1473.2,183.8l-3.9,10h-8.5l16.2-39.3h10.4l17,39.2h-9l-4.2-9.9H1473.2z M1488.8,177.1c-4-9.6-5.9-14.4-6.9-17.2h-0.1
		c-0.9,2.8-3.1,9-6.4,17.2H1488.8L1488.8,177.1z"/>
	<path d="M1513,161h-14.3v-6.6h36.7v6.6h-14.2v32.6h-8.2V161L1513,161z"/>
	<path d="M1578.1,193.8v-28.2c-1.9,1.1-6,2.2-7.8,2.3v-5.7c4.6-1.1,8-3.8,9.7-5.6h5.8v37.4L1578.1,193.8L1578.1,193.8z"/>
	<path d="M1624.1,174.7c0,11.1-4.6,19.9-15.8,19.9c-10.6,0-15.8-8.5-15.8-19.4c0-10.7,5.2-19.5,15.9-19.5
		C1618.8,155.5,1624.1,164.2,1624.1,174.7L1624.1,174.7z M1600.5,174.9c0,6.3,1.7,13.3,7.8,13.3c6.3,0,7.7-6.6,7.7-13.6
		c0-6-1.4-13-7.6-12.9C1602.6,161.7,1600.5,167.7,1600.5,174.9L1600.5,174.9z"/>
	<path d="M1638.2,183.8l-3.9,10h-8.5l16.2-39.3h10.4l17,39.2h-9l-4.2-9.9H1638.2z M1653.8,177.1c-4-9.7-5.9-14.4-6.9-17.2h-0.1
		c-0.9,2.8-3.1,9-6.4,17.2H1653.8L1653.8,177.1z"/>
	<path d="M1709.6,177.9c0-7,0-14,0.2-18.3h-0.1c-1.9,6.8-6.6,19.8-11.6,34h-7.3c-3.8-12.2-9-26.9-11.2-33.9h-0.1
		c0.3,4.6,0.7,12.4,0.7,19v14.8h-7.5v-39.2h11.9c4.5,12.3,9.1,24.8,10.2,29.6h0.1c1.7-5.7,6.3-17.8,10.5-29.6h12v39.2h-7.9
		L1709.6,177.9L1709.6,177.9z"/>
	<path d="M1785.4,165.2c-0.8-1.9-2.4-3.6-6.2-3.6c-5.6,0-7.7,4.8-7.8,11c1.9-2.4,5-4.3,10.1-4.3c7.5,0,12.9,4.8,12.9,12.3
		c0,9-6.8,14.1-15.2,14.1c-9.8,0-15.8-6.4-15.8-19c0-9.8,4-19.9,16.3-19.9c8.7,0,12.7,5,13.4,9.6L1785.4,165.2L1785.4,165.2z
		 M1786.4,181.1c0-3.9-2.2-6.8-7.3-6.8c-4.9,0-7.4,3.1-7.4,6.4c0,2.5,1.5,7.7,7.5,7.7C1783.6,188.3,1786.4,185.6,1786.4,181.1
		L1786.4,181.1z"/>
	<path d="M1800.5,154.4h19.7c9.4,0,14.9,4.7,14.9,12.1c0,7.9-5.6,12.5-14.9,12.6h-11.4v14.6h-8.2L1800.5,154.4L1800.5,154.4z
		 M1808.7,172.6h10.7c4.5,0,7.4-1.4,7.4-5.9c0-3.5-2.3-5.7-7.4-5.7h-10.7V172.6L1808.7,172.6z"/>
	<path d="M1877.7,177.9c0-7,0-14,0.2-18.3h-0.1c-1.9,6.8-6.6,19.8-11.6,34h-7.3c-3.8-12.2-9-26.9-11.2-33.9h-0.1
		c0.3,4.6,0.7,12.4,0.7,19v14.8h-7.5v-39.3h11.9c4.5,12.3,9.1,24.8,10.2,29.6h0.1c1.7-5.7,6.3-17.8,10.5-29.7h12v39.2h-7.9
		L1877.7,177.9L1877.7,177.9z"/>
</g>
</svg>
