<?xml version="1.0" encoding="UTF-8"?><svg id="_레이어_1" xmlns="http://www.w3.org/2000/svg" viewBox="0 0 2251.27 167.46"><g><path d="M1224.33,154.48c3.12-.03,5.58-.19,8.37-.76l.27,2.55c-3.27,.63-6.06,.76-9.87,.76h-1.8s-.02-17.43-.02-17.43h10.02s0,2.51,0,2.51h-6.99s.01,12.37,.01,12.37Zm19.15-18.14l.03,27.09h-2.94s-.02-13.86-.02-13.86h-3.21s.01,12.54,.01,12.54h-2.91s-.03-25.2-.03-25.2h2.91s.01,10.14,.01,10.14h3.21s-.01-10.71-.01-10.71h2.94Z"/><path d="M1272.21,152.12h-10.8s.01,11.32,.01,11.32h-3.12s-.01-11.31-.01-11.31h-10.59s0-2.54,0-2.54l17.61-.02c.78-3.78,.77-6.6,.77-9.09l-15.45,.02v-2.49s18.48-.02,18.48-.02v2.37c0,2.55,0,5.37-.68,9.21h3.78s0,2.55,0,2.55Z"/><path d="M1291.77,150.45c-5.64,.94-11.91,1.09-16.74,1.1l-.33-2.52c1.65,0,3.51,0,5.4-.04v-5.13s3.05,0,3.05,0v5.04c2.83-.12,5.73-.31,8.4-.67l.21,2.22Zm-5.49-3.92c.51-2.58,.59-4.53,.62-6.12h-10.56s0-2.51,0-2.51h13.59s0,1.61,0,1.61c0,1.74,0,4.17-.65,7.29l-3-.27Zm10.27,11.84c0,3.15-3.5,5.01-9.17,5.02-5.61,0-9.12-1.85-9.12-5,0-3.15,3.5-5.01,9.11-5.02,5.67,0,9.18,1.85,9.18,5Zm-3.15,0c0-1.68-2.22-2.58-6.03-2.57-3.75,0-5.97,.91-5.97,2.59,0,1.68,2.22,2.58,5.97,2.57,3.81,0,6.03-.91,6.03-2.59Zm6.52-14.98v2.55s-3.6,0-3.6,0v7.11s-3.11,0-3.11,0l-.02-16.77h3.12s0,7.11,0,7.11h3.6Z"/><path d="M1324.72,136.26l.02,16.05h-3.09s0-3.69,0-3.69h-6.42c-1.26,1.48-3.24,2.38-5.52,2.35-4.02,0-7.05-2.75-7.06-6.59,0-3.87,3.02-6.6,7.04-6.61,2.28,0,4.26,.89,5.52,2.33h6.42s0-3.82,0-3.82l3.09-.03Zm-10.91,8.11c0-2.37-1.77-3.99-4.11-3.99s-4.11,1.62-4.11,4c0,2.37,1.77,3.96,4.11,3.96s4.11-1.6,4.11-3.96Zm-7.34,9.31l18.27-.02v9.75s-3.08,0-3.08,0v-7.26s-15.19,.02-15.19,.02v-2.49Zm15.17-7.58v-3.48s-5.1,0-5.1,0c.12,.54,.21,1.11,.21,1.74,0,.6-.09,1.2-.24,1.74h5.13Z"/><path d="M1339.58,142.96c0,4.98,2.77,9.96,7.03,11.87l-1.8,2.46c-3.12-1.47-5.49-4.46-6.73-8.12-1.23,3.93-3.62,7.14-6.89,8.74l-1.83-2.58c4.32-1.96,7.13-7.15,7.13-12.37v-4.44s3.08,0,3.08,0v4.44Zm12.3-6.73l.03,27.18h-3.12s-.03-27.18-.03-27.18h3.12Z"/><path d="M1389.5,149.29v2.52s-24.48,.03-24.48,.03v-2.52s10.68-.01,10.68-.01v-2.7s-7.65,0-7.65,0v-9.18s18.44-.02,18.44-.02v2.46s-15.39,.02-15.39,.02v4.23s15.57-.02,15.57-.02v2.49s-7.89,0-7.89,0v2.7s10.71-.01,10.71-.01Zm-2.99,9.09c0,3.15-3.5,4.95-9.32,4.96-5.79,0-9.33-1.79-9.33-4.94,0-3.12,3.53-4.92,9.32-4.93,5.82,0,9.33,1.79,9.33,4.91Zm-3.12,0c0-1.65-2.25-2.55-6.21-2.54-3.96,0-6.18,.91-6.18,2.56,0,1.68,2.22,2.55,6.18,2.54,3.96,0,6.21-.88,6.21-2.56Z"/><path d="M1416.81,151.96h-10.8s.01,11.32,.01,11.32h-3.12s-.01-11.31-.01-11.31h-10.59s0-2.54,0-2.54l17.61-.02c.78-3.78,.77-6.6,.77-9.09l-15.45,.02v-2.49s18.48-.02,18.48-.02v2.37c0,2.55,0,5.37-.68,9.21h3.78s0,2.55,0,2.55Z"/><path d="M1452.2,149.23v2.52s-24.48,.03-24.48,.03v-2.52s10.68-.01,10.68-.01v-2.7s-7.65,0-7.65,0v-9.18s18.44-.02,18.44-.02v2.46s-15.39,.02-15.39,.02v4.23s15.57-.02,15.57-.02v2.49s-7.89,0-7.89,0v2.7s10.71-.01,10.71-.01Zm-2.99,9.09c0,3.15-3.5,4.95-9.32,4.96-5.79,0-9.33-1.79-9.33-4.94,0-3.12,3.53-4.92,9.32-4.93,5.82,0,9.33,1.79,9.33,4.91Zm-3.12,0c0-1.65-2.25-2.55-6.21-2.54-3.96,0-6.18,.91-6.18,2.56,0,1.68,2.22,2.55,6.18,2.54,3.96,0,6.21-.88,6.21-2.56Z"/><path d="M1458.93,154.23c3.12-.03,5.58-.19,8.37-.76l.27,2.55c-3.27,.63-6.06,.76-9.87,.76h-1.8s-.02-17.43-.02-17.43h10.02s0,2.51,0,2.51h-6.99s.01,12.37,.01,12.37Zm19.15-18.14l.03,27.09h-2.94s-.02-13.86-.02-13.86h-3.21s.01,12.54,.01,12.54h-2.91s-.03-25.2-.03-25.2h2.91s.01,10.14,.01,10.14h3.21s-.01-10.71-.01-10.71h2.94Z"/><path d="M1506.8,151.87h-10.8s.01,11.32,.01,11.32h-3.12s-.01-11.31-.01-11.31h-10.59s0-2.54,0-2.54l17.61-.02c.78-3.78,.77-6.6,.77-9.09l-15.45,.02v-2.49s18.48-.02,18.48-.02v2.37c0,2.55,0,5.37-.68,9.21h3.78s0,2.55,0,2.55Z"/><path d="M1534.14,157.42v2.55s-24.54,.03-24.54,.03v-2.55s10.68-.01,10.68-.01v-4.62s-7.71,0-7.71,0v-8.73s15.59-.02,15.59-.02v-3.63s-15.66,.02-15.66,.02v-2.49s18.72-.02,18.72-.02v8.58s-15.62,.02-15.62,.02v3.78s16.23-.02,16.23-.02v2.49s-8.46,0-8.46,0v4.62s10.77-.01,10.77-.01Z"/><path d="M1551.99,155.12h-9.57s0-2.3,0-2.3l8.78-13.48h4.02s.01,13.1,.01,13.1h2.79s0,2.67,0,2.67h-2.79s0,5.7,0,5.7h-3.24s0-5.7,0-5.7Zm0-2.67v-5.43c0-1.2,.08-3.12,.14-4.32h-.12c-.54,1.08-1.14,2.1-1.77,3.21l-4.34,6.54h6.09Z"/><path d="M1560.17,150.79c0-8.46,3.95-11.88,8.33-11.89,2.46,0,4.26,1.04,5.52,2.36l-1.89,2.1c-.81-.96-2.16-1.62-3.48-1.62-2.79,0-5.13,2.11-5.27,8.41,1.29-1.59,3.21-2.58,4.8-2.58,3.69,0,6.21,2.18,6.22,6.62,0,4.23-2.99,6.99-6.59,7-4.2,0-7.62-3.32-7.63-10.4Zm3.3,1.92c.36,3.99,1.96,5.85,4.3,5.84,1.92,0,3.45-1.62,3.45-4.35,0-2.64-1.32-4.11-3.66-4.11-1.23,0-2.76,.69-4.08,2.62Z"/><path d="M1578,157.94h4.83s-.02-14.77-.02-14.77h-3.96s0-2.18,0-2.18c2.07-.36,3.54-.9,4.8-1.69h2.61s.02,18.63,.02,18.63h4.32s0,2.85,0,2.85h-12.6s0-2.84,0-2.84Z"/><path d="M1613.23,143.14c-1.68,4.32-5.66,7.36-11.51,9.07l-1.23-2.46c6.36-1.78,9.86-5.11,10.4-9.34h-9s0-2.48,0-2.48h12.3c0,.95-.09,1.85-.24,2.69h5.58s0-4.66,0-4.66h3.09s.02,15.93,.02,15.93h-3.09s0-3.12,0-3.12h-6.57s0-2.51,0-2.51h6.57s0-3.13,0-3.13h-6.3Zm9.58,14.43c0,3.33-3.56,5.37-9.05,5.38-5.49,0-9.03-2.03-9.04-5.36,0-3.3,3.53-5.34,9.02-5.35,5.49,0,9.06,2.03,9.07,5.33Zm-3.06,0c0-1.86-2.31-2.91-6-2.9-3.66,0-5.97,1.06-5.97,2.92,0,1.89,2.31,2.94,5.97,2.93,3.69,0,6-1.06,6-2.95Z"/><path d="M1641.23,151.54v2.76s7.74,0,7.74,0v8.73s-3.08,0-3.08,0v-6.27s-15.7,.02-15.7,.02v-2.46s7.95,0,7.95,0v-2.76s-10.71,.01-10.71,.01v-2.49s24.57-.03,24.57-.03v2.49s-10.77,.01-10.77,.01Zm7.58-4.69l-18.18,.02v-10.26s3.05,0,3.05,0v2.76s12.06-.01,12.06-.01v-2.76s3.06,0,3.06,0v10.26Zm-3.05-5.13h-12.06s0,2.68,0,2.68h12.06s0-2.68,0-2.68Z"/><path d="M1659.53,153.86c5.04-.04,8.28-.19,11.91-.88l.33,2.58c-3.93,.72-7.44,.88-13.05,.88h-2.25s-.02-18.03-.02-18.03h12.9s0,2.54,0,2.54h-9.84s.01,12.91,.01,12.91Zm17.53-17.99l.03,27.18h-3.12s-.03-27.17-.03-27.17h3.12Z"/><path d="M1691.56,143.75c0,4.2,2.68,9,6.79,10.94l-1.71,2.43c-3.03-1.44-5.34-4.43-6.58-7.85-1.2,3.78-3.59,7.02-6.71,8.56l-1.77-2.46c4.14-1.99,6.89-7.12,6.89-11.62v-2.61s-5.91,0-5.91,0v-2.55s14.73-.02,14.73-.02v2.55s-5.73,0-5.73,0v2.61Zm15.73,5.35h-4.23s.01,13.86,.01,13.86h-3.09s-.03-27.09-.03-27.09h3.09s.01,10.68,.01,10.68h4.23s0,2.54,0,2.54Z"/><path d="M1717.1,151.22c-4.08,0-7.2-2.84-7.21-6.77,0-3.96,3.11-6.78,7.19-6.79,4.08,0,7.17,2.81,7.18,6.77,0,3.93-3.08,6.78-7.16,6.79Zm0-2.67c2.37,0,4.17-1.65,4.17-4.11,0-2.49-1.8-4.11-4.17-4.11-2.4,0-4.17,1.62-4.17,4.12,0,2.46,1.77,4.11,4.17,4.1Zm15.4,11.35v2.52s-18.48,.02-18.48,.02v-8.88s3.11,0,3.11,0v6.36s15.37-.02,15.37-.02Zm-.78-4.38h-3.09s-.02-19.68-.02-19.68h3.09s.02,19.68,.02,19.68Z"/><path d="M1748.27,151.72c-2.28-1.05-3.9-2.91-4.81-5.18-.99,2.52-2.69,4.71-5.21,5.89l-1.71-2.34c3.6-1.74,5.39-5.38,5.39-8.62v-3.78s3,0,3,0v3.78c0,3.18,1.66,6.36,5.02,7.92l-1.68,2.34Zm12.1,8.15v2.52s-18.66,.02-18.66,.02v-8.67s3.11,0,3.11,0v6.15s15.55-.02,15.55-.02Zm-9.02-14.96h-3.81s0-2.55,0-2.55h3.81s0-6.03,0-6.03h2.91s.02,19.02,.02,19.02h-2.91s-.01-10.44-.01-10.44Zm8.26,11.21h-2.94s-.02-20.31-.02-20.31h2.94s.02,20.31,.02,20.31Z"/><path d="M1768.28,154.07c4.32-.04,7.41-.19,10.95-.79l.27,2.49c-3.87,.69-7.26,.82-12.18,.82h-2.13s-.02-18.45-.02-18.45h12.57s0,2.54,0,2.54h-9.48s0,5.08,0,5.08h8.37s0,2.45,0,2.45h-8.37s0,5.86,0,5.86Zm18.19-18.35l.03,27.18h-3.12s-.02-14.67-.02-14.67h-5.19s0-2.54,0-2.54h5.19s-.01-9.96-.01-9.96h3.12Z"/><path d="M1806.38,154.84h-9.57s0-2.3,0-2.3l8.77-13.48h4.02s.01,13.1,.01,13.1h2.79s0,2.67,0,2.67h-2.79s0,5.7,0,5.7h-3.24s0-5.7,0-5.7Zm0-2.67v-5.43c0-1.2,.08-3.12,.14-4.32h-.12c-.54,1.08-1.14,2.1-1.77,3.21l-4.34,6.54h6.09Z"/><path d="M1839.02,149.31v2.46s-24.5,.03-24.5,.03v-2.46s24.5-.03,24.5-.03Zm-23.25-3.81c5.49-.4,8.88-2.35,9.23-4.78h-8.04s0-2.42,0-2.42h8.25s0-2.59,0-2.59h3.09s0,2.58,0,2.58h8.25s0,2.42,0,2.42h-8.04c.36,2.44,3.75,4.38,9.25,4.77l-.96,2.34c-4.71-.38-8.34-1.91-10.05-4.31-1.68,2.4-5.3,3.94-10.04,4.33l-.93-2.34Zm20.29,12.76c0,2.94-3.44,4.56-9.32,4.57-5.85,0-9.33-1.61-9.33-4.55,0-2.94,3.47-4.53,9.32-4.54,5.88,0,9.33,1.58,9.33,4.52Zm-3.12,0c0-1.47-2.19-2.25-6.21-2.24-3.99,0-6.18,.79-6.18,2.26,0,1.47,2.19,2.22,6.18,2.21,4.02,0,6.21-.76,6.21-2.23Z"/><path d="M1854.68,153.65c5.04-.04,8.28-.19,11.91-.88l.33,2.58c-3.93,.72-7.44,.88-13.05,.88h-2.25s-.02-18.03-.02-18.03h12.9s0,2.54,0,2.54h-9.84s.01,12.91,.01,12.91Zm17.53-17.99l.03,27.18h-3.12s-.03-27.17-.03-27.17h3.12Z"/><path d="M1886.71,143.53c0,4.2,2.68,9,6.79,10.94l-1.71,2.43c-3.03-1.44-5.34-4.43-6.58-7.85-1.2,3.78-3.59,7.02-6.71,8.56l-1.77-2.46c4.14-1.98,6.89-7.12,6.89-11.62v-2.61s-5.91,0-5.91,0v-2.55s14.73-.02,14.73-.02v2.55s-5.73,0-5.73,0v2.61Zm15.73,5.35h-4.23s.01,13.86,.01,13.86h-3.09s-.03-27.08-.03-27.08h3.09s.01,10.68,.01,10.68h4.23s0,2.54,0,2.54Z"/><path d="M1912.25,151c-4.08,0-7.2-2.84-7.21-6.77,0-3.96,3.11-6.78,7.19-6.79,4.08,0,7.17,2.81,7.18,6.77,0,3.93-3.08,6.78-7.16,6.79Zm0-2.67c2.37,0,4.17-1.65,4.17-4.11,0-2.49-1.8-4.11-4.17-4.11-2.4,0-4.17,1.62-4.17,4.11,0,2.46,1.77,4.11,4.17,4.11Zm15.4,11.35v2.52s-18.48,.02-18.48,.02v-8.88s3.11,0,3.11,0v6.36s15.37-.02,15.37-.02Zm-.79-4.38h-3.09s-.02-19.68-.02-19.68h3.09s.02,19.68,.02,19.68Z"/><path d="M1954.52,151.59c-3-1.02-5.19-3.14-6.34-5.81-1.2,2.94-3.47,5.31-6.68,6.43l-1.59-2.43c4.2-1.48,6.65-5.05,6.65-8.71v-.93s-5.73,0-5.73,0v-2.49s14.49-.02,14.49-.02v2.49s-5.64,0-5.64,0v.93c0,3.33,2.32,6.72,6.37,8.12l-1.53,2.4Zm8.56,8.06v2.52s-18.24,.02-18.24,.02v-8.46s3.08,0,3.08,0v5.94s15.16-.02,15.16-.02Zm-3.8-16.8v-7.23s3.08,0,3.08,0l.02,19.8h-3.09s-.01-10.02-.01-10.02h-4.92s0-2.54,0-2.54h4.92Z"/><path d="M1977.22,142.26c0,4.98,2.77,9.96,7.03,11.87l-1.8,2.46c-3.12-1.47-5.49-4.46-6.73-8.12-1.23,3.93-3.62,7.14-6.89,8.74l-1.83-2.58c4.32-1.95,7.13-7.15,7.13-12.37v-4.44s3.08,0,3.08,0v4.44Zm12.3-6.73l.03,27.18h-3.12s-.03-27.17-.03-27.17h3.12Z"/><path d="M2008.94,150.69c-3.03-.96-5.19-2.9-6.37-5.42-1.2,2.88-3.47,5.19-6.71,6.31l-1.56-2.43c4.26-1.47,6.62-4.96,6.62-8.65v-.54h-5.76s0-2.48,0-2.48l14.55-.02v2.49s-5.67,0-5.67,0v.51c0,3.36,2.26,6.51,6.4,7.82l-1.5,2.4Zm7.06,6.8c0,3.21-3.44,5.13-9.02,5.14-5.58,0-9.03-1.91-9.03-5.12,0-3.24,3.44-5.13,9.02-5.14s9.03,1.88,9.04,5.12Zm-3.06,0c0-1.77-2.19-2.7-5.97-2.69s-5.97,.94-5.97,2.71c0,1.74,2.19,2.7,5.97,2.69s5.97-.97,5.97-2.71Zm6.58-15.37v2.55s-3.84,0-3.84,0v7.05s-3.08,0-3.08,0l-.02-16.2h3.09s0,6.6,0,6.6h3.84Z"/></g><g><path d="M1252.61,17.54c.02,7.49-4.97,14.11-14.5,14.14-8.93,.03-14.23-6.18-14.26-14.01-.02-7.41,5.46-13.92,14.39-13.95,9.12-.03,14.34,6.49,14.37,13.82Zm-22.83,.04c.02,5.28,2.92,9.64,8.62,9.62,5.78-.02,8.27-4.7,8.25-9.56-.02-5.01-2.73-9.49-8.58-9.47-5.55,.02-8.31,4.51-8.29,9.41Z"/><path d="M1257.13,4.22l13.45-.04c6.38-.02,10.19,3.2,10.21,8.21,.02,5.43-3.81,8.6-10.19,8.62l-7.79,.03,.03,9.99-5.62,.02-.09-26.82Zm5.66,12.37l7.29-.02c3.04,0,5.05-1,5.04-4.08,0-2.43-1.57-3.91-5.07-3.9l-7.29,.02,.03,7.98Z"/><path d="M1305.59,19.19l-15.31,.05,.02,7.14,16.98-.05-.63,4.56-21.96,.07-.09-26.82,21.77-.07v4.56s-16.13,.05-16.13,.05l.02,6,15.31-.05,.02,4.56Z"/><path d="M1311.48,30.87l-.09-26.82,6.65-.02c7.1,10.46,11.95,16.87,13.59,19.9h.08c-.28-3.04-.25-7.83-.27-12.19l-.03-7.75,5.21-.02,.09,26.82-6.27,.02c-3.02-4.44-12.29-18.12-14.01-21.19h-.08c.24,3.38,.25,7.18,.27,11.93l.03,9.31-5.17,.02Z"/><path d="M1348.6,3.93l.09,26.82-5.62,.02-.09-26.82,5.62-.02Z"/><path d="M1355.03,30.73l-.09-26.82,6.65-.02c7.1,10.46,11.95,16.87,13.59,19.9h.08c-.28-3.04-.25-7.83-.27-12.19l-.03-7.75,5.21-.02,.09,26.82-6.27,.02c-3.02-4.44-12.29-18.12-14.01-21.19h-.08c.24,3.38,.25,7.18,.27,11.93l.03,9.31-5.17,.02Z"/><path d="M1412.48,30.54h-4.14c-.15-.59-.35-2.08-.39-3.14-1.74,2.32-4.17,3.74-9.3,3.75-8.62,.03-13.58-5.81-13.61-13.82-.03-7.86,5.2-14.11,14.54-14.14,8.43-.03,12.1,4.44,12.91,8.35l-5.7,.02c-.69-1.71-2.52-4.06-7.2-4.04-5.89,.02-8.65,4.21-8.63,9.53,.02,5.59,2.88,9.76,8.73,9.74,4.86-.02,7.29-2.53,7.27-6.41v-.53s-7.22,.02-7.22,.02v-4.44s12.68-.04,12.68-.04l.05,15.16Z"/></g><g><path d="M1220.32,115.17v-.58c-.03-12.08,5.9-21.36,22.25-31.62,11.19-6.94,14.21-9,14.2-14.75,0-4.78-2.75-9.25-10.93-9.24-7.41,.02-10.81,4.41-11.87,11.23l-13.35,.03c.95-12.87,10.38-21.95,25.68-21.99,15.2-.03,24.19,8.52,24.21,19.83,.02,10.23-4.65,14.73-17.79,22.36-8.37,4.99-14.01,9.29-15.86,13.68l36.45-.08-1.73,11.02-51.26,.11Z"/><path d="M1332.13,81.5c.04,19.49-7.92,34.81-27.6,34.85-18.52,.04-27.71-14.95-27.75-34.05-.04-18.81,8.99-34.13,27.8-34.17,18.22-.04,27.52,15.14,27.56,33.37Zm-41.22,.58c.02,11.01,2.98,23.38,13.7,23.36,11.01-.02,13.42-11.53,13.4-23.81-.02-10.53-2.58-22.7-13.3-22.68-10.43,.02-13.82,10.46-13.79,23.13Z"/><path d="M1339.31,114.91v-.58c-.03-12.08,5.9-21.36,22.25-31.62,11.19-6.94,14.21-9,14.2-14.75,0-4.78-2.75-9.25-10.93-9.24-7.41,.02-10.81,4.41-11.87,11.23l-13.35,.03c.95-12.87,10.38-21.95,25.68-21.98,15.2-.03,24.19,8.52,24.21,19.83,.02,10.23-4.65,14.72-17.79,22.36-8.37,4.99-14.01,9.29-15.85,13.68l36.45-.08-1.73,11.02-51.26,.11Z"/><path d="M1399.24,114.78v-.58c-.03-12.08,5.9-21.36,22.25-31.62,11.19-6.94,14.21-9,14.2-14.75,0-4.78-2.75-9.25-10.93-9.24-7.41,.02-10.81,4.41-11.87,11.23l-13.35,.03c.95-12.87,10.38-21.95,25.68-21.98,15.2-.03,24.19,8.52,24.21,19.83,.02,10.23-4.65,14.73-17.79,22.36-8.37,4.99-14.01,9.29-15.86,13.68l36.45-.08-1.73,11.02-51.26,.11Z"/><path d="M1460.15,114.65l-.04-19,15.69-.03,.04,19-15.69,.03Z"/><path d="M1488.61,114.58l-.11-49.51c-3.41,1.96-10.52,3.82-13.54,4.03l-.02-10.14c8.08-1.97,14.02-6.66,16.94-9.88l10.14-.02,.14,65.49-13.55,.03Z"/><path d="M1525.35,114.5l-.11-49.51c-3.41,1.96-10.52,3.82-13.54,4.03l-.02-10.14c8.08-1.97,14.02-6.66,16.94-9.88l10.14-.02,.14,65.49-13.55,.03Z"/><path d="M1550.78,114.45l-.04-19,15.69-.03,.04,19-15.69,.03Z"/><path d="M1576.02,66.25c1.15-7.99,7.46-18.73,25.4-18.77,16.57-.04,24.29,8.43,24.31,18.17,.02,8.67-6.11,12.1-9.33,13.08v.2c4.68,1.45,12.1,5.53,12.12,16.15,.03,11.79-9.21,20.58-27.05,20.62-17.54,.04-25.36-9.4-26.94-20.02l13.74-.03c1.38,5.55,5.67,9.25,13.96,9.23,7.21-.02,12.17-3.24,12.16-10.26-.01-6.33-4.21-9.74-12.89-9.72h-5.36s-.02-10.81-.02-10.81h4.09c8.67-.03,11.49-2.57,11.48-7.63,0-4.58-3.04-8.38-10.64-8.36-7.7,.02-10.52,4.02-11.48,8.11l-13.55,.03Z"/><path d="M1689.19,80.72c.04,19.49-7.92,34.81-27.6,34.85-18.52,.04-27.71-14.95-27.75-34.05-.04-18.81,8.99-34.13,27.8-34.17,18.22-.04,27.52,15.14,27.55,33.37Zm-41.22,.58c.02,11.01,2.97,23.38,13.7,23.36,11.01-.02,13.42-11.53,13.4-23.81-.02-10.53-2.58-22.7-13.3-22.68-10.43,.02-13.82,10.46-13.79,23.13Z"/><path d="M1761.87,113.99l-20.32-68.76,15.2-.03c4.42,16.17,12.57,44.22,14.06,55.62h.1c2.12-11.8,10.34-39.49,15.28-55.68l13.94-.03c4.52,15.19,13.45,45.87,15.23,55.13h.1c2.02-11.8,10.05-39.59,14.4-55.19l14.52-.03-21.39,68.85-15.59,.03c-4.61-15.29-13.06-44.22-15.12-53.57h-.1c-1.93,10.72-9.67,36.47-14.79,53.63l-15.5,.03Z"/><path d="M1906.13,83.66l-39.28,.09,.04,18.32,43.56-.09-1.63,11.7-56.33,.12-.15-68.8,55.84-.12,.03,11.7-41.42,.09,.03,15.4,39.28-.09,.03,11.7Z"/><path d="M1921.05,44.84l30.11-.07c22.9-.05,35.7,14.74,35.74,33.16,.05,22.03-15.91,35.61-35.88,35.65l-29.82,.07-.15-68.8Zm14.55,57.37l13.35-.03c15.01-.03,22.69-8.82,22.65-23.83-.03-13.74-7.84-22.2-22.37-22.27l-13.74,.03,.1,46.1Z"/><path d="M2075.65,63.31c-1.27-3.41-4.21-6.42-10.83-6.41-9.84,.02-13.43,8.41-13.8,19.33,3.4-4.2,8.66-7.52,17.82-7.54,13.16-.03,22.63,8.33,22.66,21.39,.03,15.79-11.84,24.58-26.65,24.62-17.05,.04-27.7-11.24-27.75-33.37-.04-17.15,6.94-34.81,28.38-34.85,15.3-.03,22.34,8.63,23.52,16.81l-13.35,.03Zm1.91,27.87c-.02-6.92-3.83-11.98-12.79-11.96-8.58,.02-12.95,5.39-12.94,11.24,0,4.39,2.76,13.44,13.09,13.42,7.7-.02,12.66-4.9,12.64-12.7Z"/><path d="M2102.12,44.44l34.5-.08c16.37-.04,26.14,8.23,26.17,21.09,.03,13.94-9.79,22.05-26.17,22.08l-19.98,.04,.06,25.63-14.42,.03-.15-68.8Zm14.49,31.74l18.71-.04c7.8-.02,12.96-2.56,12.94-10.46-.01-6.24-4.02-10.03-12.98-10.01l-18.71,.04,.04,20.46Z"/><path d="M2235.43,85.47c-.03-12.18-.05-24.46,.32-31.96h-.1c-3.38,11.99-11.52,34.72-20.14,59.49l-12.67,.03c-6.77-21.23-15.89-47.04-19.62-59.41h-.1c.5,7.99,1.12,21.73,1.14,33.42l.06,26.02-13.06,.03-.15-68.8,20.76-.05c7.84,21.62,15.98,43.43,18.05,51.81h.1c3-10.04,10.95-31.21,18.31-51.89l20.95-.05,.15,68.8-13.94,.03-.06-27.48Z"/></g></svg>