<?xml version="1.0" encoding="UTF-8"?><svg id="_레이어_1" xmlns="http://www.w3.org/2000/svg" viewBox="0 0 2251.27 228.46"><rect x="968.03" y="56.24" width="212.63" height="14.32"/><g><path d="M13.71,9.78c0,4.62,1.75,9.3,5.53,11.48l-1.8,2.25c-2.55-1.5-4.23-4.17-5.2-7.31-.96,3.42-2.69,6.33-5.3,7.99l-1.86-2.28c3.84-2.4,5.63-7.3,5.63-12.12v-1.95s-4.77,0-4.77,0v-2.55s12.24-.01,12.24-.01v2.55s-4.47,0-4.47,0v1.95Zm6.47-6.94h2.91s.03,25.26,.03,25.26h-2.91s-.01-13.74-.01-13.74h-3.99s0-2.52,0-2.52h3.99s0-9,0-9Zm8.4-.55l.03,27.09h-2.94s-.03-27.09-.03-27.09h2.94Z"/><path d="M40.3,24.24h4.83s-.02-14.77-.02-14.77h-3.96s0-2.18,0-2.18c2.07-.36,3.54-.9,4.8-1.69h2.61s.02,18.63,.02,18.63h4.32s0,2.84,0,2.84h-12.6s0-2.84,0-2.84Z"/><path d="M55.92,16.24c0-7.23,2.75-11.07,7.13-11.08,4.41,0,7.14,3.86,7.15,11.06,0,7.23-2.72,11.22-7.13,11.23-4.38,0-7.14-3.98-7.15-11.21Zm10.98-.01c0-6.18-1.6-8.34-3.85-8.34-2.25,0-3.84,2.16-3.83,8.34,0,6.18,1.6,8.49,3.85,8.48,2.25,0,3.84-2.31,3.83-8.49Z"/><path d="M83.29,21.76c2.43-.15,4.89-.31,7.2-.64l.21,2.25c-5.97,1.03-12.39,1.12-17.31,1.13l-.39-2.55c2.16,0,4.65,0,7.2-.1v-2.64c-3.06-.48-5.08-2.33-5.08-4.94,0-3.03,2.69-5.04,6.62-5.05,3.9,0,6.6,2,6.61,5.03,0,2.64-2,4.47-5.06,4.96v2.55Zm6.62-13.87l-16.38,.02v-2.49s6.66,0,6.66,0V2.32s3.09,0,3.09,0v3.09s6.63,0,6.63,0v2.49Zm-8.15,9.07c2.16,0,3.66-1.02,3.66-2.7,0-1.65-1.5-2.67-3.66-2.67-2.19,0-3.69,1.02-3.69,2.67,0,1.68,1.5,2.7,3.69,2.7Zm13.36-14.74l.03,27.12h-3.12s-.03-27.12-.03-27.12h3.12Z"/><path d="M112.18,20.32c3.12-.03,5.58-.19,8.37-.76l.27,2.55c-3.27,.63-6.06,.76-9.87,.76h-1.8s-.02-17.43-.02-17.43h10.02s0,2.51,0,2.51h-6.99s.01,12.37,.01,12.37ZM131.33,2.18l.03,27.09h-2.94s-.02-13.86-.02-13.86h-3.21s.01,12.54,.01,12.54h-2.91s-.03-25.2-.03-25.2h2.91s.01,10.14,.01,10.14h3.21s-.01-10.71-.01-10.71h2.94Z"/><path d="M160.05,17.96h-10.8s.01,11.32,.01,11.32h-3.12s-.01-11.31-.01-11.31h-10.59s0-2.54,0-2.54l17.61-.02c.78-3.78,.77-6.6,.77-9.09l-15.45,.02V3.85s18.48-.02,18.48-.02v2.37c0,2.55,0,5.37-.68,9.21h3.78s0,2.55,0,2.55Z"/><path d="M176.72,5.01c0,7.86-3.34,14.82-12.19,19.3l-1.71-2.37c6.63-3.4,10.19-8.17,10.81-14.41h-9.48s0-2.51,0-2.51h12.57Zm11.2,10.38h-4.11s.01,13.8,.01,13.8h-3.09s-.03-27.09-.03-27.09h3.09s.01,10.71,.01,10.71h4.11s0,2.58,0,2.58Z"/><path d="M214.62,14.6v2.34s-24.48,.03-24.48,.03v-2.34s10.65-.01,10.65-.01v-1.98s-7.56,0-7.56,0V2.62s18.47-.02,18.47-.02v2.13s-15.39,.02-15.39,.02v1.8s14.73-.02,14.73-.02v2.07s-14.73,.02-14.73,.02v1.86s15.57-.02,15.57-.02v2.16s-7.98,0-7.98,0v1.98s10.71-.01,10.71-.01Zm-18.47,12.17l16.2-.02v2.22s-19.26,.02-19.26,.02v-6.36s15.44-.02,15.44-.02v-1.92s-15.51,.02-15.51,.02v-2.19s18.54-.02,18.54-.02v6.21s-15.41,.02-15.41,.02v2.04Z"/><path d="M234.21,16.52c-4.26,.7-7.92,.85-13.11,.85h-2.28s0-8.19,0-8.19h9.3s0-3.07,0-3.07h-9.36s0-2.48,0-2.48h12.39s0,7.88,0,7.88h-9.27s0,3.34,0,3.34c4.65-.04,8.04-.19,11.97-.82l.36,2.49Zm-12.72,3.52l18.27-.02v9.18s-3.08,0-3.08,0v-6.66s-15.19,.02-15.19,.02v-2.52ZM239.74,2.06l.02,16.65h-3.09s-.02-16.65-.02-16.65h3.09Z"/><path d="M248.67,20.17c3.12-.03,5.58-.19,8.37-.76l.27,2.55c-3.27,.63-6.06,.76-9.87,.76h-1.8s-.02-17.43-.02-17.43h10.02s0,2.51,0,2.51h-6.99s.01,12.37,.01,12.37Zm19.15-18.14l.03,27.09h-2.94s-.01-13.86-.01-13.86h-3.21s.01,12.54,.01,12.54h-2.91s-.03-25.2-.03-25.2h2.91s.01,10.14,.01,10.14h3.21s-.01-10.71-.01-10.71h2.94Z"/><path d="M288.05,7.14l-15.99,.02v-2.46s6.45,0,6.45,0V1.9s3.09,0,3.09,0v2.79s6.45,0,6.45,0v2.46Zm-8,11.05c-3.9,0-6.57-1.97-6.58-4.91,0-2.97,2.67-4.95,6.56-4.96,3.9,0,6.57,1.97,6.58,4.94,0,2.94-2.66,4.92-6.56,4.93Zm-4.68,2.13l17.82-.02v8.82s-3.08,0-3.08,0v-6.33s-14.74,.02-14.74,.02v-2.49Zm4.67-4.5c2.16,0,3.63-.96,3.63-2.55,0-1.62-1.47-2.58-3.63-2.58-2.16,0-3.6,.96-3.6,2.58,0,1.59,1.44,2.55,3.6,2.55Zm16.97-3.98h-3.84s0,7.14,0,7.14h-3.09s-.02-16.95-.02-16.95h3.09s0,7.26,0,7.26h3.84s0,2.55,0,2.55Z"/><path d="M323.83,23v2.55s-24.48,.03-24.48,.03v-2.55s5.64,0,5.64,0V14.26s3.05,0,3.05,0v8.76s3.64,0,3.64,0V14.25s3.05,0,3.05,0v8.76s9.1,0,9.1,0Zm-5.66-15.95l-16.41,.02v-2.52s19.5-.02,19.5-.02v2.85c0,3.39,.01,7.02-.94,12.27l-3.09-.36c.96-4.95,.95-8.61,.95-11.91v-.33Z"/><path d="M339.48,19.92c5.04-.04,8.28-.19,11.91-.88l.33,2.58c-3.93,.72-7.44,.88-13.05,.88h-2.25s-.02-18.03-.02-18.03h12.9s0,2.54,0,2.54h-9.84s.01,12.91,.01,12.91ZM357.01,1.93l.03,27.18h-3.12s-.03-27.17-.03-27.17h3.12Z"/><path d="M372.02,9.77c0,4.5,2.8,9.18,7.03,10.97l-1.71,2.43c-3.15-1.38-5.58-4.31-6.85-7.82-1.2,3.78-3.62,6.99-6.8,8.53l-1.77-2.46c4.2-1.96,6.98-7,6.98-11.65v-2.58s-6.03,0-6.03,0v-2.55s15.18-.02,15.18-.02v2.55s-6.03,0-6.03,0v2.58Zm12.29-7.84l.03,27.09h-3.12s-.03-27.09-.03-27.09h3.12Z"/><path d="M404.4,14.96c-3.57,.57-6.6,.61-11.73,.61h-2.04s-.01-12.06-.01-12.06h12.36s0,2.42,0,2.42h-9.27s0,2.35,0,2.35h8.49s0,2.33,0,2.33h-8.49s0,2.53,0,2.53c4.44,0,7.2-.1,10.44-.64l.24,2.46Zm8.29,11.39v2.4s-18.51,.02-18.51,.02v-6.81s14.54-.02,14.54-.02v-2.04s-14.58,.02-14.58,.02v-2.4s17.64-.02,17.64-.02v6.66s-14.54,.02-14.54,.02v2.19s15.45-.02,15.45-.02Zm-4.04-15.98h-4.68s0-2.46,0-2.46h4.68s0-6.03,0-6.03h3.12s.02,14.51,.02,14.51h-3.12s0-6.03,0-6.03Z"/><path d="M421.38,19.83c5.04-.04,8.28-.19,11.91-.88l.33,2.58c-3.93,.72-7.44,.88-13.05,.88h-2.25s-.02-18.03-.02-18.03h12.9s0,2.54,0,2.54h-9.84s.01,12.91,.01,12.91ZM438.91,1.84l.03,27.18h-3.12s-.03-27.18-.03-27.18h3.12Z"/><path d="M453.41,9.72c0,4.2,2.68,9,6.79,10.94l-1.71,2.43c-3.03-1.44-5.34-4.43-6.58-7.85-1.2,3.78-3.59,7.02-6.71,8.56l-1.77-2.46c4.14-1.99,6.89-7.12,6.89-11.62v-2.61s-5.91,0-5.91,0v-2.55s14.73-.02,14.73-.02v2.55s-5.73,0-5.73,0v2.61Zm15.73,5.35h-4.23s.02,13.86,.02,13.86h-3.09s-.03-27.09-.03-27.09h3.09s.01,10.68,.01,10.68h4.23s0,2.54,0,2.54Z"/><path d="M478.95,17.19c-4.08,0-7.2-2.84-7.21-6.77,0-3.96,3.11-6.78,7.19-6.79,4.08,0,7.17,2.81,7.18,6.77,0,3.93-3.08,6.78-7.16,6.79Zm0-2.67c2.37,0,4.17-1.65,4.17-4.11,0-2.49-1.8-4.11-4.17-4.11-2.4,0-4.17,1.62-4.17,4.12,0,2.46,1.77,4.11,4.17,4.1Zm15.4,11.35v2.52s-18.48,.02-18.48,.02v-8.88s3.11,0,3.11,0v6.36s15.37-.02,15.37-.02Zm-.79-4.38h-3.09s-.02-19.68-.02-19.68h3.09s.02,19.68,.02,19.68Z"/><path d="M506.67,20.52c2.82-.12,5.67-.31,8.31-.64l.15,2.25c-5.58,.94-11.79,1.06-16.53,1.07l-.33-2.55c1.65,0,3.48-.03,5.37-.07V12.42s3.02,0,3.02,0v8.1Zm3.03-3.75c.69-4.2,.74-7.35,.74-9.63h-10.74s0-2.48,0-2.48h13.77s0,1.79,0,1.79c0,2.37,0,5.79-.74,10.59l-3.03-.27Zm13.83-1.25h-3.99s.01,13.35,.01,13.35h-3.12s-.03-27.09-.03-27.09h3.12s.01,11.13,.01,11.13h3.99s0,2.6,0,2.6Z"/><path d="M558.44,13.29v2.46s-24.54,.03-24.54,.03v-2.46s10.71-.01,10.71-.01v-2.91s3.09,0,3.09,0v2.91s10.74-.01,10.74-.01Zm-23.34-3.78c4.89-.42,8.4-2.26,8.9-4.51h-7.83s0-2.42,0-2.42l20.04-.02v2.43s-7.92,0-7.92,0c.54,2.25,4.05,4.08,8.94,4.49l-.99,2.31c-4.83-.42-8.64-2.21-10.08-4.91-1.44,2.67-5.24,4.51-10.04,4.93l-1.02-2.31Zm4.85,16.73l16.2-.02v2.37s-19.26,.02-19.26,.02v-6.69s15.44-.02,15.44-.02v-2.04s-15.51,.02-15.51,.02v-2.31s18.54-.02,18.54-.02v6.54s-15.41,.02-15.41,.02v2.13Z"/><path d="M583.66,1.71l.02,14.52h-3.09s0-5.76,0-5.76h-5.01c-.54,3.07-3.29,5.14-6.89,5.14-4.08,0-7.08-2.6-7.09-6.35,0-3.72,2.99-6.33,7.07-6.34,3.57,0,6.3,2,6.91,5.03h5.01s0-6.25,0-6.25h3.09Zm-10.91,7.54c0-2.31-1.74-3.78-4.08-3.78-2.4,0-4.11,1.47-4.11,3.79,0,2.28,1.71,3.81,4.11,3.8,2.34,0,4.08-1.54,4.08-3.81Zm7.87,8.27h3.06s.01,10.95,.01,10.95l-17.61,.02v-10.95s3.05,0,3.05,0v3.06s11.49-.01,11.49-.01v-3.06Zm0,5.46h-11.49s0,3.01,0,3.01h11.49s0-3.01,0-3.01Z"/><path d="M603.12,17.68c-3-1.02-5.19-3.14-6.34-5.81-1.2,2.94-3.47,5.31-6.68,6.43l-1.59-2.43c4.2-1.48,6.65-5.05,6.65-8.71v-.93s-5.73,0-5.73,0V3.75s14.49-.02,14.49-.02v2.49s-5.64,0-5.64,0v.93c0,3.33,2.32,6.72,6.37,8.12l-1.53,2.4Zm8.56,8.06v2.52s-18.24,.02-18.24,.02v-8.46s3.08,0,3.08,0v5.94s15.16-.02,15.16-.02Zm-3.8-16.8V1.72s3.08,0,3.08,0l.02,19.8h-3.09s-.01-10.02-.01-10.02h-4.92s0-2.54,0-2.54h4.92Z"/><path d="M625.82,8.36c0,4.98,2.77,9.96,7.03,11.87l-1.8,2.46c-3.12-1.47-5.49-4.46-6.73-8.12-1.23,3.93-3.62,7.14-6.89,8.74l-1.83-2.58c4.32-1.96,7.13-7.15,7.13-12.37V3.92s3.08,0,3.08,0v4.44Zm12.3-6.73l.03,27.18h-3.12s-.03-27.17-.03-27.17h3.12Z"/><path d="M653.58,21.14c2.43-.15,4.89-.3,7.2-.64l.21,2.25c-5.97,1.03-12.39,1.12-17.31,1.13l-.39-2.55c2.16,0,4.65,0,7.2-.1v-2.64c-3.06-.48-5.08-2.33-5.08-4.94,0-3.03,2.69-5.04,6.62-5.05,3.9,0,6.6,2,6.61,5.03,0,2.64-2,4.47-5.06,4.95v2.55Zm6.62-13.87l-16.38,.02v-2.49s6.66,0,6.66,0V1.7s3.09,0,3.09,0v3.09s6.63,0,6.63,0v2.49Zm-8.15,9.07c2.16,0,3.66-1.02,3.66-2.7,0-1.65-1.5-2.67-3.66-2.67-2.19,0-3.69,1.02-3.69,2.67,0,1.68,1.5,2.7,3.69,2.7Zm13.36-14.74l.03,27.12h-3.12s-.03-27.12-.03-27.12h3.12Z"/></g><path d="M1460.72,114.18v-19h15.69v19h-15.69Z"/><path d="M1551.35,114.18v-19h15.69v19h-15.69Z"/><path d="M1996.92,114.18v-19h15.69v19h-15.69Z"/><path d="M2112.2,114.18v-19h15.69v19h-15.69Z"/><path d="M1218.94,114.18v-.58c0-12.08,5.95-21.34,22.32-31.58,11.21-6.92,14.23-8.97,14.23-14.72,0-4.78-2.73-9.26-10.92-9.26-7.41,0-10.82,4.39-11.89,11.21h-13.35c.97-12.87,10.43-21.93,25.73-21.93s24.17,8.58,24.17,19.88c0,10.23-4.68,14.72-17.83,22.32-8.38,4.97-14.03,9.26-15.88,13.64h36.45l-1.75,11.01h-51.26Z"/><path d="M1332.76,80.75c0,19.49-7.99,34.79-27.68,34.79-18.52,0-27.68-15.01-27.68-34.11s9.06-34.11,27.87-34.11,27.48,15.2,27.48,33.43Zm-41.22,.49c0,11.01,2.92,23.39,13.64,23.39s13.45-11.5,13.45-23.78c0-10.53-2.53-22.71-13.25-22.71s-13.84,10.43-13.84,23.1Z"/><path d="M1339.88,114.18v-.58c0-12.08,5.95-21.34,22.32-31.58,11.21-6.92,14.23-8.97,14.23-14.72,0-4.78-2.73-9.26-10.92-9.26-7.41,0-10.82,4.39-11.89,11.21h-13.35c.97-12.87,10.43-21.93,25.73-21.93s24.17,8.58,24.17,19.88c0,10.23-4.68,14.72-17.83,22.32-8.38,4.97-14.03,9.26-15.88,13.64h36.45l-1.75,11.01h-51.26Z"/><path d="M1399.81,114.18v-.58c0-12.08,5.95-21.34,22.32-31.58,11.21-6.92,14.23-8.97,14.23-14.72,0-4.78-2.73-9.26-10.92-9.26-7.41,0-10.82,4.39-11.89,11.21h-13.35c.97-12.87,10.43-21.93,25.73-21.93s24.17,8.58,24.17,19.88c0,10.23-4.68,14.72-17.83,22.32-8.38,4.97-14.03,9.26-15.88,13.64h36.45l-1.75,11.01h-51.26Z"/><path d="M1489.17,114.18v-49.51c-3.41,1.95-10.53,3.8-13.55,4v-10.14c8.09-1.95,14.03-6.63,16.96-9.84h10.14V114.18h-13.55Z"/><path d="M1525.92,114.18v-49.51c-3.41,1.95-10.53,3.8-13.55,4v-10.14c8.09-1.95,14.03-6.63,16.96-9.84h10.14V114.18h-13.55Z"/><path d="M1576.69,66.03c1.17-7.99,7.5-18.71,25.44-18.71,16.57,0,24.27,8.48,24.27,18.22,0,8.67-6.14,12.08-9.36,13.06v.2c4.68,1.46,12.08,5.55,12.08,16.18,0,11.79-9.26,20.56-27.09,20.56s-25.34-9.45-26.9-20.08h13.74c1.36,5.55,5.65,9.26,13.94,9.26,7.21,0,12.18-3.22,12.18-10.23,0-6.33-4.19-9.75-12.87-9.75h-5.36v-10.82h4.09c8.67,0,11.5-2.53,11.5-7.6,0-4.58-3.02-8.38-10.62-8.38s-10.53,4-11.5,8.09h-13.55Z"/><path d="M1691.78,80.75c0,19.49-7.99,34.79-27.68,34.79-18.52,0-27.68-15.01-27.68-34.11s9.06-34.11,27.87-34.11,27.48,15.2,27.48,33.43Zm-41.22,.49c0,11.01,2.92,23.39,13.64,23.39s13.45-11.5,13.45-23.78c0-10.53-2.53-22.71-13.25-22.71s-13.84,10.43-13.84,23.1Z"/><path d="M1738.78,75.48v11.6h-32.06v-11.6h32.06Z"/><path d="M1755.14,114.18v-.58c0-12.08,5.95-21.34,22.32-31.58,11.21-6.92,14.23-8.97,14.23-14.72,0-4.78-2.73-9.26-10.92-9.26-7.41,0-10.82,4.39-11.89,11.21h-13.35c.97-12.87,10.43-21.93,25.73-21.93s24.17,8.58,24.17,19.88c0,10.23-4.68,14.72-17.83,22.32-8.38,4.97-14.03,9.26-15.88,13.64h36.45l-1.75,11.01h-51.26Z"/><path d="M1868.96,80.75c0,19.49-7.99,34.79-27.68,34.79-18.52,0-27.68-15.01-27.68-34.11s9.06-34.11,27.87-34.11,27.48,15.2,27.48,33.43Zm-41.22,.49c0,11.01,2.92,23.39,13.64,23.39s13.45-11.5,13.45-23.78c0-10.53-2.53-22.71-13.25-22.71s-13.84,10.43-13.84,23.1Z"/><path d="M1876.08,114.18v-.58c0-12.08,5.95-21.34,22.32-31.58,11.21-6.92,14.23-8.97,14.23-14.72,0-4.78-2.73-9.26-10.92-9.26-7.41,0-10.82,4.39-11.89,11.21h-13.35c.97-12.87,10.43-21.93,25.73-21.93s24.17,8.58,24.17,19.88c0,10.23-4.68,14.72-17.83,22.32-8.38,4.97-14.03,9.26-15.88,13.64h36.45l-1.75,11.01h-51.26Z"/><path d="M1936.01,114.18v-.58c0-12.08,5.95-21.34,22.32-31.58,11.21-6.92,14.23-8.97,14.23-14.72,0-4.78-2.73-9.26-10.92-9.26-7.41,0-10.82,4.39-11.89,11.21h-13.35c.97-12.87,10.43-21.93,25.73-21.93s24.17,8.58,24.17,19.88c0,10.23-4.68,14.72-17.83,22.32-8.38,4.97-14.03,9.26-15.88,13.64h36.45l-1.75,11.01h-51.26Z"/><path d="M2025.37,114.18v-49.51c-3.41,1.95-10.53,3.8-13.55,4v-10.14c8.09-1.95,14.03-6.63,16.96-9.84h10.14V114.18h-13.55Z"/><path d="M2051.3,114.18v-.58c0-12.08,5.95-21.34,22.32-31.58,11.21-6.92,14.23-8.97,14.23-14.72,0-4.78-2.73-9.26-10.92-9.26-7.41,0-10.82,4.39-11.89,11.21h-13.35c.97-12.87,10.43-21.93,25.73-21.93s24.17,8.58,24.17,19.88c0,10.23-4.68,14.72-17.83,22.32-8.38,4.97-14.03,9.26-15.88,13.64h36.45l-1.75,11.01h-51.26Z"/><path d="M2190.85,80.75c0,19.49-7.99,34.79-27.68,34.79-18.52,0-27.68-15.01-27.68-34.11s9.06-34.11,27.87-34.11,27.48,15.2,27.48,33.43Zm-41.22,.49c0,11.01,2.92,23.39,13.64,23.39s13.45-11.5,13.45-23.78c0-10.53-2.53-22.71-13.25-22.71s-13.84,10.43-13.84,23.1Z"/><path d="M2198.84,66.03c1.17-7.99,7.5-18.71,25.44-18.71,16.57,0,24.27,8.48,24.27,18.22,0,8.67-6.14,12.08-9.36,13.06v.2c4.68,1.46,12.08,5.55,12.08,16.18,0,11.79-9.26,20.56-27.09,20.56s-25.34-9.45-26.9-20.08h13.74c1.36,5.55,5.65,9.26,13.94,9.26,7.21,0,12.18-3.22,12.18-10.23,0-6.33-4.19-9.75-12.87-9.75h-5.36v-10.82h4.09c8.67,0,11.5-2.53,11.5-7.6,0-4.58-3.02-8.38-10.62-8.38s-10.53,4-11.5,8.09h-13.55Z"/><path d="M1234.4,184.1l-12.08-41.04h9.07c2.63,9.64,7.47,26.38,8.35,33.18h.06c1.27-7.04,6.2-23.56,9.15-33.21h8.32c2.69,9.06,8,27.37,9.05,32.89h.06c1.21-7.04,6.02-23.62,8.63-32.92h8.66s-12.81,41.06-12.81,41.06h-9.3c-2.74-9.12-7.76-26.38-8.99-31.96h-.06c-1.16,6.4-5.79,21.76-8.86,31.99h-9.25Z"/><path d="M1320.5,166.1l-23.43,.03v10.93s26-.03,26-.03l-.98,6.98-33.61,.04-.04-41.05,33.32-.04v6.98s-24.71,.03-24.71,.03v9.19s23.44-.03,23.44-.03v6.98Z"/><path d="M1329.43,142.94l17.97-.02c13.67-.02,21.29,8.82,21.3,19.81,.01,13.14-9.51,21.23-21.43,21.25l-17.79,.02-.04-41.05Zm8.64,34.24h7.97c8.96-.02,13.54-5.26,13.53-14.21,0-8.2-4.67-13.25-13.33-13.3h-8.2s.03,27.51,.03,27.51Z"/><path d="M1399.56,159.21v6.92s-19.12,.02-19.12,.02v-6.92s19.12-.02,19.12-.02Z"/><path d="M1419.67,171.67c1.28,3.95,4.37,6.62,11.58,6.62,6.92,0,9.18-2.34,9.18-5.36,0-3.2-2.04-5.12-11.29-6.67-13.67-2.31-16.41-6.67-16.41-12.19,0-7.91,7.55-12.1,17.03-12.11,13.84-.02,17.45,7.19,17.92,11.73h-8.61c-.7-2.26-2.16-5.28-9.54-5.27-5.12,0-8.02,1.64-8.02,4.78,0,2.73,1.69,4.19,9.95,5.63,15.35,2.72,17.8,7.37,17.81,13.24,0,6.92-5.45,12.62-18.77,12.64-12.44,.01-18.21-5.56-19.5-13h8.67Z"/><path d="M1465.09,173.48l-4.12,10.36h-8.9s16.88-41.06,16.88-41.06h10.87s17.78,41.02,17.78,41.02h-9.36s-4.37-10.34-4.37-10.34l-18.78,.02Zm16.27-7c-4.2-10.05-6.24-15-7.23-18.02h-.06c-.87,2.91-3.25,9.42-6.67,18.03l13.96-.02Z"/><path d="M1506.58,149.65l-14.89,.02v-6.92s38.31-.04,38.31-.04v6.92s-14.82,.02-14.82,.02l.04,34.13h-8.61s-.04-34.12-.04-34.12Z"/><path d="M1575.54,183.73l-.03-29.54c-2.03,1.17-6.28,2.27-8.08,2.39v-6.05c4.82-1.17,8.36-3.96,10.11-5.88h6.05s.04,39.07,.04,39.07h-8.08Z"/><path d="M1623.55,163.74c.01,11.63-4.75,20.76-16.49,20.78-11.05,.01-16.52-8.94-16.54-20.33-.01-11.22,5.39-20.36,16.61-20.37,10.88-.01,16.41,9.05,16.42,19.93Zm-24.6,.32c0,6.57,1.76,13.96,8.16,13.95,6.57,0,8.02-6.87,8.01-14.2,0-6.28-1.53-13.55-7.92-13.54-6.22,0-8.25,6.23-8.24,13.79Z"/><path d="M1638.22,173.32l-4.12,10.36h-8.9s16.88-41.06,16.88-41.06h10.87s17.78,41.02,17.78,41.02h-9.36s-4.37-10.34-4.37-10.34l-18.78,.02Zm16.27-7c-4.2-10.05-6.24-15-7.23-18.02h-.06c-.87,2.91-3.25,9.42-6.67,18.03l13.96-.02Z"/><path d="M1712.94,167.19c0-7.27-.02-14.6,.21-19.07h-.06c-2.03,7.16-6.9,20.71-12.06,35.49h-7.56c-4.03-12.66-9.45-28.07-11.67-35.45h-.06c.3,4.77,.65,12.97,.66,19.94l.02,15.53h-7.79s-.04-41.05-.04-41.05h12.39c4.67,12.89,9.51,25.91,10.73,30.91h.06c1.8-5.99,6.55-18.62,10.96-30.95h12.5s.04,41.04,.04,41.04h-8.32s-.02-16.39-.02-16.39Z"/><path d="M1754.6,159.21v6.92s-19.12,.02-19.12,.02v-6.92s19.12-.02,19.12-.02Z"/><path d="M1791.21,153.65c-.76-2.04-2.5-3.84-6.46-3.83-5.87,0-8.02,5.01-8.24,11.52,2.03-2.5,5.17-4.48,10.64-4.49,7.85,0,13.5,4.99,13.5,12.78,.01,9.42-7.08,14.66-15.92,14.67-10.18,.01-16.52-6.73-16.54-19.93-.01-10.23,4.16-20.76,16.96-20.78,9.13,0,13.32,5.16,14.03,10.04h-7.97Zm1.12,16.64c0-4.13-2.28-7.15-7.62-7.14-5.12,0-7.73,3.21-7.73,6.7,0,2.62,1.64,8.02,7.8,8.02,4.59,0,7.56-2.92,7.55-7.57Z"/><path d="M1807.02,142.41l20.58-.02c9.77,0,15.59,4.93,15.6,12.6,0,8.32-5.86,13.15-15.63,13.16h-11.92s.02,15.31,.02,15.31h-8.61s-.04-41.04-.04-41.04Zm8.63,18.95h11.17c4.65-.02,7.73-1.53,7.73-6.24,0-3.72-2.39-5.99-7.74-5.98h-11.17s.01,12.22,.01,12.22Z"/><path d="M1887.7,166.98c0-7.27-.02-14.6,.21-19.07h-.06c-2.03,7.15-6.9,20.71-12.06,35.48h-7.56c-4.03-12.66-9.45-28.07-11.67-35.45h-.06c.29,4.77,.65,12.97,.66,19.94l.02,15.53h-7.79s-.04-41.05-.04-41.05h12.39c4.67,12.89,9.51,25.91,10.73,30.91h.06c1.8-5.99,6.55-18.62,10.96-30.95h12.5s.04,41.04,.04,41.04h-8.32s-.02-16.39-.02-16.39Z"/><path d="M71.8,98.16H22.17v23.15h55.05l-2.09,14.78H3.95V49.14H74.51v14.78H22.17v19.46h49.63v14.78Z"/><path d="M150.99,136.09l-24.14-32.27h-.37l-23.4,32.27h-20.44l33.74-44.46-32.64-42.49h21.55l22.41,29.93h.12l22.54-29.93h19.95l-32.88,41.75,34.73,45.2h-21.18Z"/><path d="M205.55,63.8h-31.53v-14.66h81.16v14.66h-31.4v72.29h-18.23V63.8Z"/><path d="M333.74,98.16h-49.63v23.15h55.05l-2.09,14.78h-71.18V49.14h70.57v14.78h-52.34v19.46h49.63v14.78Z"/><path d="M352.71,136.09V49.14h21.55c22.91,33.99,38.55,54.8,43.84,64.66h.25c-.86-9.85-.74-25.37-.74-39.53v-25.12h16.87v86.95h-20.32c-9.73-14.41-39.66-58.87-45.2-68.84h-.25c.74,10.96,.74,23.28,.74,38.67v30.17h-16.75Z"/><path d="M455.05,49.14h38.05c28.94,0,45.07,18.72,45.07,42,0,27.83-20.2,44.95-45.44,44.95h-37.68V49.14Zm18.23,72.54h16.87c18.97,0,28.69-11.08,28.69-30.05,0-17.37-9.85-28.08-28.2-28.2h-17.36v58.25Z"/><path d="M561.62,124.09v-22.04h18.23v22.04h-18.23Zm0-41.38v-22.04h18.23v22.04h-18.23Z"/><path d="M685.88,136.09l-24.14-32.27h-.37l-23.4,32.27h-20.44l33.74-44.46-32.64-42.49h21.55l22.41,29.93h.12l22.54-29.93h19.95l-32.88,41.75,34.73,45.2h-21.18Z"/><path d="M725.64,136.09V70.05c-4.55,2.6-14.04,5.07-18.07,5.33v-13.52c10.79-2.6,18.72-8.84,22.62-13.13h13.52v87.36h-18.07Z"/><path d="M833.02,91.5c0,26-10.66,46.41-36.92,46.41-24.7,0-36.92-20.02-36.92-45.5s12.09-45.5,37.18-45.5,36.66,20.28,36.66,44.59Zm-54.99,.65c0,14.69,3.9,31.2,18.2,31.2s17.94-15.34,17.94-31.72c0-14.04-3.38-30.29-17.68-30.29s-18.46,13.91-18.46,30.81Z"/><path d="M847.97,49.14h38.05c28.94,0,45.07,18.72,45.07,42,0,27.83-20.2,44.95-45.44,44.95h-37.69V49.14Zm18.23,72.54h16.87c18.97,0,28.7-11.08,28.7-30.05,0-17.37-9.85-28.08-28.2-28.2h-17.37v58.25Z"/><g><path d="M3.04,161.42H12.93c7.52,0,11.71,4.86,11.71,10.91,0,7.23-5.25,11.68-11.81,11.68H3.04v-22.59Zm4.74,18.85h4.38c4.93,0,7.46-2.88,7.46-7.81,0-4.51-2.56-7.3-7.33-7.33H7.78v15.13Z"/><path d="M32.42,178.31l-2.27,5.7h-4.9l9.31-22.59h5.98l9.76,22.59h-5.15l-2.4-5.7h-10.33Zm8.96-3.84c-2.3-5.54-3.42-8.26-3.97-9.92h-.03c-.48,1.6-1.79,5.18-3.68,9.92h7.68Z"/><path d="M70.27,174.15h-12.9v6.02h14.3l-.54,3.84h-18.49v-22.59h18.33v3.84h-13.6v5.06h12.9v3.84Z"/><path d="M96.89,184.01h-3.49c-.13-.51-.29-1.76-.32-2.66-1.47,1.95-3.52,3.13-7.84,3.13-7.26,0-11.42-4.93-11.42-11.68s4.42-11.87,12.29-11.87c7.1,0,10.18,3.78,10.85,7.07h-4.8c-.58-1.44-2.11-3.42-6.05-3.42-4.96,0-7.3,3.52-7.3,8,0,4.7,2.4,8.22,7.33,8.22,4.1,0,6.14-2.11,6.14-5.38v-.45h-6.08v-3.74h10.69v12.77Z"/><path d="M106.08,161.42v12.8c0,5.15,2.82,6.5,5.82,6.5,3.33,0,5.47-1.47,5.47-6.5v-12.8h4.74v12.9c0,7.01-3.84,10.17-10.37,10.17s-10.4-2.97-10.4-10.01v-13.06h4.74Z"/><path d="M156.96,177c-1.15,3.94-4.19,7.49-11.07,7.49-7.87,0-11.84-5.47-11.84-11.74s4.35-11.81,12.09-11.81c6.78,0,10.11,3.74,10.85,7.49h-4.8c-.64-1.63-2.05-3.74-6.11-3.74-4.51,0-7.04,3.39-7.04,7.87s2.37,8.22,7.07,8.22c3.55,0,5.06-1.44,6.05-3.78h4.8Z"/><path d="M164.83,178.31l-2.27,5.7h-4.9l9.31-22.59h5.98l9.76,22.59h-5.15l-2.4-5.7h-10.33Zm8.96-3.84c-2.3-5.54-3.42-8.26-3.97-9.92h-.03c-.48,1.6-1.79,5.18-3.68,9.92h7.68Z"/><path d="M187.68,165.23h-8.19v-3.81h21.09v3.81h-8.16v18.78h-4.74v-18.78Z"/><path d="M203.36,161.42h4.74v8.7h11.42v-8.7h4.74v22.59h-4.74v-10.08h-11.42v10.08h-4.74v-22.59Z"/><path d="M252.57,172.62c0,6.3-4.22,11.87-12.26,11.87-7.52,0-11.97-5.25-11.97-11.84,0-6.24,4.64-11.71,12.16-11.71s12.06,5.5,12.06,11.68Zm-19.23-.03c0,4.45,2.43,8.13,7.23,8.13s6.97-3.94,6.97-8.03-2.27-8-7.2-8c-4.67,0-7.01,3.78-7.01,7.9Z"/><path d="M256.41,161.42h4.7v18.75h12.99l-.64,3.84h-17.05v-22.59Z"/><path d="M281.24,161.42v22.59h-4.74v-22.59h4.74Z"/><path d="M308.22,177c-1.15,3.94-4.19,7.49-11.07,7.49-7.87,0-11.84-5.47-11.84-11.74s4.35-11.81,12.09-11.81c6.78,0,10.11,3.74,10.85,7.49h-4.8c-.64-1.63-2.05-3.74-6.11-3.74-4.51,0-7.04,3.39-7.04,7.87s2.37,8.22,7.07,8.22c3.55,0,5.06-1.44,6.05-3.78h4.8Z"/><path d="M324.67,161.42v12.8c0,5.15,2.82,6.5,5.82,6.5,3.33,0,5.47-1.47,5.47-6.5v-12.8h4.74v12.9c0,7.01-3.84,10.17-10.37,10.17s-10.4-2.97-10.4-10.01v-13.06h4.74Z"/><path d="M345.82,184.01v-22.59h5.6c5.95,8.83,10.01,14.24,11.39,16.8h.06c-.22-2.56-.19-6.59-.19-10.27v-6.53h4.38v22.59h-5.28c-2.53-3.74-10.3-15.29-11.74-17.89h-.06c.19,2.85,.19,6.05,.19,10.05v7.84h-4.35Z"/><path d="M377.15,161.42v22.59h-4.74v-22.59h4.74Z"/><path d="M388.92,184.01l-9.44-22.59h5.25l4.35,11.17c1.63,4.19,2.3,6.34,2.72,7.74h.06c.35-1.25,.9-2.69,2.82-7.84l4.35-11.07h5.09l-9.6,22.59h-5.6Z"/><path d="M423.93,174.15h-12.9v6.02h14.3l-.54,3.84h-18.49v-22.59h18.33v3.84h-13.6v5.06h12.9v3.84Z"/><path d="M433.56,174.95v9.06h-4.7v-22.59h11.84c5.02,0,8.03,2.4,8.03,6.33,0,2.85-1.6,4.64-4,5.38,1.12,.38,3.42,1.34,3.42,5.38v1.06c0,1.63-.03,3.42,.26,4.45h-4.86c-.35-.99-.38-2.46-.38-4.7v-.74c0-2.62-.96-3.62-4.48-3.62h-5.12Zm0-3.62h6.02c2.94,0,4.29-1.06,4.29-3.2,0-2.02-1.34-3.1-4.19-3.1h-6.11v6.3Z"/><path d="M455.77,177.29c.7,2.18,2.4,3.65,6.37,3.65s5.06-1.28,5.06-2.94c0-1.76-1.12-2.82-6.21-3.68-7.52-1.28-9.02-3.68-9.02-6.72,0-4.35,4.16-6.65,9.38-6.65,7.62,0,9.6,3.97,9.86,6.46h-4.74c-.38-1.25-1.18-2.91-5.25-2.91-2.82,0-4.42,.9-4.42,2.62,0,1.5,.93,2.3,5.47,3.1,8.45,1.5,9.79,4.06,9.79,7.29,0,3.81-3.01,6.94-10.33,6.94-6.85,0-10.02-3.07-10.72-7.17h4.77Z"/><path d="M480.73,161.42v22.59h-4.74v-22.59h4.74Z"/><path d="M491.67,165.23h-8.19v-3.81h21.09v3.81h-8.16v18.78h-4.74v-18.78Z"/><path d="M515.45,184.01v-8.26c0-.29-.06-.42-.26-.67l-9.38-13.66h5.63c2.37,3.65,5.5,8.32,6.59,10.37,1.12-2.05,4.29-6.72,6.62-10.37h5.22l-9.5,13.82c-.13,.19-.16,.32-.16,.58v8.19h-4.77Z"/><path d="M547.77,161.42h9.89c7.52,0,11.71,4.86,11.71,10.91,0,7.23-5.25,11.68-11.81,11.68h-9.79v-22.59Zm4.74,18.85h4.38c4.93,0,7.46-2.88,7.46-7.81,0-4.51-2.56-7.3-7.33-7.33h-4.51v15.13Z"/><path d="M590.87,174.15h-12.9v6.02h14.3l-.54,3.84h-18.49v-22.59h18.33v3.84h-13.6v5.06h12.9v3.84Z"/><path d="M595.8,161.42h11.33c5.38,0,8.58,2.72,8.58,6.94,0,4.58-3.23,7.23-8.61,7.23h-6.56v8.42h-4.74v-22.59Zm4.74,10.43h6.14c2.56,0,4.26-.83,4.26-3.42,0-2.05-1.31-3.29-4.26-3.29h-6.14v6.72Z"/><path d="M625.46,165.23h-8.19v-3.81h21.09v3.81h-8.16v18.78h-4.74v-18.78Z"/><path d="M636.95,184.01v-6.24h5.15v6.24h-5.15Z"/><path d="M677.3,172.62c0,6.3-4.22,11.87-12.26,11.87-7.52,0-11.97-5.25-11.97-11.84,0-6.24,4.64-11.71,12.16-11.71s12.06,5.5,12.06,11.68Zm-19.23-.03c0,4.45,2.43,8.13,7.23,8.13s6.97-3.94,6.97-8.03-2.27-8-7.2-8c-4.67,0-7.01,3.78-7.01,7.9Z"/><path d="M681.14,161.42h18.14v3.81h-13.41v5.86h12.51v3.87h-12.51v9.06h-4.74v-22.59Z"/><path d="M711,161.42h9.89c7.52,0,11.71,4.86,11.71,10.91,0,7.23-5.25,11.68-11.81,11.68h-9.79v-22.59Zm4.74,18.85h4.38c4.93,0,7.46-2.88,7.46-7.81,0-4.51-2.56-7.3-7.33-7.33h-4.51v15.13Z"/><path d="M741.2,161.42v22.59h-4.74v-22.59h4.74Z"/><path d="M768.34,184.01h-3.49c-.13-.51-.29-1.76-.32-2.66-1.47,1.95-3.52,3.13-7.84,3.13-7.26,0-11.42-4.93-11.42-11.68s4.42-11.87,12.29-11.87c7.1,0,10.18,3.78,10.85,7.07h-4.8c-.58-1.44-2.11-3.42-6.05-3.42-4.96,0-7.3,3.52-7.3,8,0,4.7,2.4,8.22,7.33,8.22,4.1,0,6.14-2.11,6.14-5.38v-.45h-6.08v-3.74h10.69v12.77Z"/><path d="M777.68,161.42v22.59h-4.74v-22.59h4.74Z"/><path d="M788.62,165.23h-8.19v-3.81h21.09v3.81h-8.16v18.78h-4.74v-18.78Z"/><path d="M805.75,178.31l-2.27,5.7h-4.9l9.31-22.59h5.98l9.76,22.59h-5.15l-2.4-5.7h-10.33Zm8.96-3.84c-2.3-5.54-3.42-8.26-3.97-9.92h-.03c-.48,1.6-1.79,5.18-3.68,9.92h7.68Z"/><path d="M825.97,161.42h4.7v18.75h12.99l-.64,3.84h-17.05v-22.59Z"/><path d="M854.71,161.42h9.89c7.52,0,11.71,4.86,11.71,10.91,0,7.23-5.25,11.68-11.81,11.68h-9.79v-22.59Zm4.74,18.85h4.38c4.93,0,7.46-2.88,7.46-7.81,0-4.51-2.56-7.3-7.33-7.33h-4.51v15.13Z"/><path d="M897.81,174.15h-12.9v6.02h14.3l-.54,3.84h-18.49v-22.59h18.33v3.84h-13.6v5.06h12.9v3.84Z"/><path d="M905.65,177.29c.7,2.18,2.4,3.65,6.37,3.65s5.06-1.28,5.06-2.94c0-1.76-1.12-2.82-6.21-3.68-7.52-1.28-9.02-3.68-9.02-6.72,0-4.35,4.16-6.65,9.38-6.65,7.62,0,9.6,3.97,9.86,6.46h-4.74c-.38-1.25-1.18-2.91-5.25-2.91-2.82,0-4.42,.9-4.42,2.62,0,1.5,.93,2.3,5.47,3.1,8.45,1.5,9.79,4.06,9.79,7.29,0,3.81-3.01,6.94-10.33,6.94-6.85,0-10.02-3.07-10.72-7.17h4.77Z"/><path d="M930.61,161.42v22.59h-4.74v-22.59h4.74Z"/><path d="M957.74,184.01h-3.49c-.13-.51-.29-1.76-.32-2.66-1.47,1.95-3.52,3.13-7.84,3.13-7.26,0-11.42-4.93-11.42-11.68s4.42-11.87,12.29-11.87c7.1,0,10.18,3.78,10.85,7.07h-4.8c-.58-1.44-2.11-3.42-6.05-3.42-4.96,0-7.3,3.52-7.3,8,0,4.7,2.4,8.22,7.33,8.22,4.1,0,6.14-2.11,6.14-5.38v-.45h-6.08v-3.74h10.69v12.77Z"/><path d="M962.35,184.01v-22.59h5.6c5.95,8.83,10.01,14.24,11.39,16.8h.06c-.22-2.56-.19-6.59-.19-10.27v-6.53h4.38v22.59h-5.28c-2.53-3.74-10.3-15.29-11.74-17.89h-.06c.19,2.85,.19,6.05,.19,10.05v7.84h-4.35Z"/><path d="M6.02,220.01v-17.25c-1.12,.64-3.84,1.19-4.86,1.25v-3.29c2.85-.58,5.06-2.02,6.17-3.3h3.46v22.59H6.02Z"/><path d="M33.66,208.49c0,6.59-2.78,11.97-9.54,11.97-6.34,0-9.57-5.25-9.57-11.74s3.1-11.74,9.63-11.74,9.47,4.83,9.47,11.52Zm-14.37,.16c0,3.71,1.15,8.16,4.86,8.16,3.9,0,4.8-4.16,4.8-8.29,0-3.52-.96-7.94-4.77-7.94s-4.9,3.65-4.9,8.06Z"/><path d="M43.01,201.23h-8.19v-3.81h21.09v3.81h-8.16v18.78h-4.74v-18.78Z"/><path d="M58.69,197.42h4.74v8.71h11.42v-8.71h4.74v22.59h-4.74v-10.08h-11.42v10.08h-4.74v-22.59Z"/><path d="M114.84,220.01h-3.49c-.13-.51-.29-1.76-.32-2.66-1.47,1.95-3.52,3.13-7.84,3.13-7.26,0-11.42-4.93-11.42-11.68s4.42-11.87,12.29-11.87c7.1,0,10.18,3.78,10.85,7.07h-4.8c-.58-1.44-2.11-3.42-6.05-3.42-4.96,0-7.3,3.52-7.3,8,0,4.7,2.4,8.22,7.33,8.22,4.1,0,6.14-2.11,6.14-5.38v-.45h-6.08v-3.74h10.69v12.77Z"/><path d="M124.16,210.95v9.06h-4.7v-22.59h11.84c5.02,0,8.03,2.4,8.03,6.34,0,2.85-1.6,4.64-4,5.38,1.12,.38,3.42,1.34,3.42,5.38v1.06c0,1.63-.03,3.42,.26,4.45h-4.86c-.35-.99-.38-2.46-.38-4.71v-.73c0-2.62-.96-3.62-4.48-3.62h-5.12Zm0-3.62h6.02c2.94,0,4.29-1.05,4.29-3.2,0-2.02-1.34-3.1-4.19-3.1h-6.11v6.3Z"/><path d="M148.29,214.31l-2.27,5.7h-4.9l9.31-22.59h5.98l9.76,22.59h-5.15l-2.4-5.7h-10.33Zm8.96-3.84c-2.3-5.54-3.42-8.26-3.97-9.92h-.03c-.48,1.6-1.79,5.18-3.68,9.92h7.68Z"/><path d="M168.51,197.42h9.89c7.52,0,11.71,4.87,11.71,10.91,0,7.23-5.25,11.68-11.81,11.68h-9.79v-22.59Zm4.74,18.85h4.38c4.93,0,7.46-2.88,7.46-7.81,0-4.51-2.56-7.3-7.33-7.33h-4.51v15.13Z"/><path d="M198.46,197.42v12.8c0,5.15,2.82,6.49,5.82,6.49,3.33,0,5.47-1.47,5.47-6.49v-12.8h4.74v12.9c0,7.01-3.84,10.17-10.37,10.17s-10.4-2.97-10.4-10.01v-13.06h4.74Z"/><path d="M223.26,214.31l-2.27,5.7h-4.9l9.31-22.59h5.98l9.76,22.59h-5.15l-2.4-5.7h-10.33Zm8.96-3.84c-2.3-5.54-3.42-8.26-3.97-9.92h-.03c-.48,1.6-1.79,5.18-3.68,9.92h7.68Z"/><path d="M246.11,201.23h-8.19v-3.81h21.09v3.81h-8.16v18.78h-4.74v-18.78Z"/><path d="M266.52,197.42v22.59h-4.74v-22.59h4.74Z"/><path d="M294.81,208.62c0,6.3-4.22,11.87-12.26,11.87-7.52,0-11.97-5.25-11.97-11.84,0-6.24,4.64-11.71,12.16-11.71s12.06,5.5,12.06,11.68Zm-19.23-.03c0,4.45,2.43,8.13,7.23,8.13s6.97-3.94,6.97-8.03-2.27-8-7.2-8c-4.67,0-7.01,3.78-7.01,7.9Z"/><path d="M298.65,220.01v-22.59h5.6c5.95,8.83,10.01,14.24,11.39,16.8h.06c-.22-2.56-.19-6.59-.19-10.27v-6.53h4.38v22.59h-5.28c-2.53-3.74-10.3-15.29-11.74-17.89h-.06c.19,2.85,.19,6.05,.19,10.05v7.84h-4.35Z"/><path d="M351.1,210.15h-12.9v6.02h14.3l-.54,3.84h-18.49v-22.59h18.33v3.84h-13.6v5.06h12.9v3.84Z"/><path d="M371.67,220.01l-6.27-8.38h-.1l-6.08,8.38h-5.31l8.77-11.55-8.48-11.04h5.6l5.82,7.78h.03l5.86-7.78h5.18l-8.54,10.85,9.02,11.74h-5.5Z"/><path d="M379.16,197.42h4.74v8.71h11.42v-8.71h4.74v22.59h-4.74v-10.08h-11.42v10.08h-4.74v-22.59Z"/><path d="M410.17,197.42v22.59h-4.74v-22.59h4.74Z"/><path d="M415.51,197.42h11.97c5.22,0,7.65,2.46,7.65,5.76,0,2.69-1.73,4.22-3.49,4.83,2.14,.64,4.32,2.24,4.32,5.31,0,4.32-3.39,6.69-8.54,6.69h-11.9v-22.59Zm10.94,8.99c2.72,0,3.74-1.02,3.74-2.66,0-2.02-1.54-2.72-3.68-2.72h-6.33v5.38h6.27Zm-6.27,10.02h6.5c2.3,0,4.29-.71,4.29-3.26,0-2.08-1.54-3.17-4.32-3.17h-6.46v6.43Z"/><path d="M444.47,197.42v22.59h-4.74v-22.59h4.74Z"/><path d="M455.42,201.23h-8.19v-3.81h21.09v3.81h-8.16v18.78h-4.74v-18.78Z"/><path d="M475.83,197.42v22.59h-4.74v-22.59h4.74Z"/><path d="M504.12,208.62c0,6.3-4.22,11.87-12.26,11.87-7.52,0-11.97-5.25-11.97-11.84,0-6.24,4.64-11.71,12.16-11.71s12.06,5.5,12.06,11.68Zm-19.23-.03c0,4.45,2.43,8.13,7.23,8.13s6.97-3.94,6.97-8.03-2.27-8-7.2-8c-4.67,0-7.01,3.78-7.01,7.9Z"/><path d="M507.96,220.01v-22.59h5.6c5.95,8.83,10.01,14.24,11.39,16.8h.06c-.22-2.56-.19-6.59-.19-10.27v-6.53h4.38v22.59h-5.28c-2.53-3.74-10.3-15.29-11.74-17.89h-.06c.19,2.85,.19,6.05,.19,10.05v7.84h-4.35Z"/></g></svg>