<?xml version="1.0" encoding="UTF-8"?><svg id="_레이어_1" xmlns="http://www.w3.org/2000/svg" viewBox="0 0 200 38"><g><polygon points="160.93 35.85 156.62 30.26 152.32 35.85 139.71 35.85 139.71 2.03 144.53 2.03 144.53 31.03 149.95 31.03 156.62 22.37 167.01 35.85 160.93 35.85"/><polygon points="172.3 35.85 159.27 18.94 168.59 6.85 163.3 6.85 148.71 25.77 148.71 2.03 153.53 2.03 153.53 11.63 160.93 2.03 178.38 2.03 165.36 18.94 178.38 35.85 172.3 35.85"/></g><g><path d="m84.7,1.15v4.87c6.23,1,11,6.41,11,12.92,0,7.22-5.87,13.09-13.09,13.09s-13.09-5.87-13.09-13.09c0-6.51,4.77-11.92,11-12.92V1.15c-8.9,1.04-15.82,8.62-15.82,17.79,0,9.87,8.03,17.91,17.91,17.91s17.91-8.04,17.91-17.91c0-9.17-6.92-16.75-15.82-17.79Z"/><path d="m84.7,10.28v5.15c1.2.71,2,2.01,2,3.51,0,2.25-1.83,4.09-4.09,4.09s-4.09-1.84-4.09-4.09c0-1.5.8-2.8,2-3.51v-5.15c-3.91.94-6.82,4.47-6.82,8.66,0,4.91,4,8.91,8.91,8.91s8.91-4,8.91-8.91c0-4.19-2.91-7.72-6.82-8.66Z"/></g><g><rect x="112.4" y="17.36" width="4.82" height="18.49"/><path d="m114.8,20.64c-1.33,0-2.41-1.08-2.41-2.41v-6.46h11.41c1.33,0,2.41,1.08,2.41,2.41s-1.08,2.41-2.41,2.41h-6.59v1.65c0,1.33-1.08,2.41-2.41,2.41Z"/><path d="m127.21,35.85h-4.82v-9.5h-6v-4.82h7.41c1.88,0,3.41,1.53,3.41,3.41v10.91Z"/><path d="m136.21,35.85h-4.82v-10.41c0-1.49-.43-2.94-1.25-4.17l-.88-1.33.88-1.33c.82-1.23,1.25-2.67,1.25-4.17,0-4.19-3.41-7.59-7.59-7.59h-15.59v29h-4.82V2.03h20.41c6.84,0,12.41,5.57,12.41,12.41,0,1.93-.44,3.8-1.28,5.5.84,1.7,1.28,3.57,1.28,5.5v10.41Z"/></g><g><polygon points="56.84 35.85 30.68 35.85 21.62 2.03 26.61 2.03 34.38 31.03 40.14 31.03 43.76 17.52 47.38 31.03 53.14 31.03 60.91 2.03 65.9 2.03 56.84 35.85"/><polygon points="56.58 2.03 50.26 25.62 45.77 8.85 41.75 8.85 37.26 25.62 30.94 2.03 34.89 2.03 37.26 10.86 38.82 5.03 48.7 5.03 50.26 10.86 52.63 2.03 56.58 2.03"/></g></svg>