<?xml version="1.0" encoding="UTF-8"?><svg id="_이어_1" xmlns="http://www.w3.org/2000/svg" viewBox="0 0 1920 570"><defs><style>.cls-1{fill-rule:evenodd;}.cls-1,.cls-2{fill:none;stroke:#fff;stroke-linecap:square;stroke-miterlimit:10;stroke-width:8px;}</style></defs><g><path class="cls-1" d="M610.32,26.83h213.66V115.85h4.81c6.77-9.08,14.42-17.8,22.61-26,49.85-49.85,118.94-80.83,195.14-80.83h0c152.42,0,275.98,123.56,275.98,275.98h0c0,152.42-123.56,275.98-275.98,275.98h0c-88.67,0-167.72-41.84-217.93-106.83h-4.63v89.02"/><path class="cls-1" d="M610.32,44.63h195.85v89.02h31.16c4.45-6.05,9.08-12.11,14.24-17.8,3.92-4.63,8.01-9.08,12.46-13.35,46.65-46.83,111.28-75.67,182.5-75.67h0c142.58,0,258.17,115.59,258.17,258.17h0c0,142.59-115.59,258.17-258.17,258.17h0c-77.99,0-147.6-34.36-194.79-89.02-4.99-5.7-9.79-11.57-14.24-17.8h-31.34v106.83"/><path class="cls-1" d="M610.32,62.44h178.05v89.02h58.58c4.1-6.23,8.55-12.11,13.18-17.8,43.8-54.31,111.1-89.02,186.42-89.02h0c132.75,0,240.37,107.62,240.37,240.37h0c0,132.75-107.62,240.37-240.37,240.37h0c-66.41,0-126.42-26.89-170.04-70.33-6.05-6.05-11.57-12.29-16.74-18.7-4.81-5.7-9.08-11.57-13.18-17.8h-58.22v124.63"/><path class="cls-1" d="M610.32,80.24h160.24v89.02h86c3.74-6.05,7.66-12.11,11.93-17.8,6.23-8.37,13.18-16.38,20.65-23.86,40.24-40.24,95.97-65.17,157.4-65.17h0c122.92,0,222.56,99.64,222.56,222.56h0c0,122.92-99.64,222.56-222.56,222.56h0c-72.64,0-137.28-34.9-177.69-89.02-4.27-5.7-8.37-11.57-12.11-17.8h-86.18v142.44"/><path class="cls-1" d="M610.32,98.05h142.44v89.02h114.13c3.2-6.05,6.94-12.11,11.04-17.8,6.94-10.5,14.96-20.12,23.86-29.02,37.03-37.03,88.13-60,144.75-60h0c113.08,0,204.76,91.67,204.76,204.76h0c0,113.08-91.67,204.76-204.76,204.76h0c-69.97,0-131.93-35.25-168.61-89.02-4.1-5.7-7.66-11.75-11.04-17.8h-114.13v160.24"/><path class="cls-1" d="M610.32,115.85h124.63v89.02h142.97c2.85-6.05,6.05-12.11,9.61-17.8,32.58-53.41,91.7-89.02,159-89.02h0c103.25,0,186.95,83.7,186.95,186.95h0c0,103.25-83.7,186.95-186.95,186.95h0c-51.63,0-98.28-21.01-132.11-54.84-10.33-10.33-19.41-21.72-26.89-34.19-3.74-5.7-6.94-11.57-9.79-17.8h-142.8v178.05"/><path class="cls-1" d="M610.32,133.66h106.83v89.02h172.17c2.31-6.05,5.16-12.11,8.37-17.8,28.31-53.06,84.22-89.02,148.85-89.02h0c93.42,0,169.15,75.73,169.15,169.15h0c0,93.42-75.73,169.15-169.15,169.15h0c-46.65,0-89.02-18.87-119.65-49.5-11.75-11.75-21.72-24.93-29.38-39.53-3.03-5.7-5.88-11.75-8.19-17.8h-172.17v195.85"/><path class="cls-1" d="M610.32,151.46h89.02v89.02h202.8c1.78-6.05,4.1-12.11,6.59-17.8,7.48-16.74,18.16-32.05,30.8-44.69,27.42-27.42,65.34-44.33,107.01-44.33h0c83.58,0,151.34,67.76,151.34,151.34h0c0,83.58-67.76,151.34-151.34,151.34h0c-61.25,0-114.13-36.5-137.81-89.02-2.67-5.7-4.99-11.75-6.77-17.8h-202.62v213.66"/><path class="cls-1" d="M610.32,169.27h71.22v89.02h234.31c1.25-6.05,2.85-12.11,4.99-17.8,6.59-19.05,17.45-35.97,31.34-49.85,24.21-24.21,57.51-39.17,94.37-39.17h0c73.75,0,133.54,59.79,133.54,133.54h0c0,73.75-59.79,133.54-133.54,133.54h0c-58.22,0-107.72-37.21-125.53-89.02-2.14-5.7-3.74-11.75-4.99-17.8h-234.49v231.46"/><path class="cls-1" d="M610.32,187.07h53.41v89.02h267.43c.53-6.05,1.42-12.11,2.85-17.8,4.99-21.19,15.85-40.24,30.62-55.2,21.01-20.83,49.85-33.83,81.9-33.83h0c63.92,0,115.73,51.81,115.73,115.73h0c0,63.92-51.82,115.73-115.73,115.73h0c-54.66,0-100.6-37.92-112.53-89.02-1.42-5.7-2.49-11.75-2.85-17.8h-267.43v249.27"/></g><g><path class="cls-1" d="M1393.74,543.17h258.17c142.58,0,258.17-115.59,258.17-258.17h0c0-142.59-115.59-258.17-258.17-258.17h-258.17V365.12"/><path class="cls-1" d="M1393.74,525.37h258.17c132.75,0,240.37-107.62,240.37-240.37h0c0-132.75-107.62-240.37-240.37-240.37h-240.37V365.12"/><path class="cls-1" d="M1393.74,507.56h258.17c122.92,0,222.56-99.64,222.56-222.56h0c0-122.92-99.64-222.56-222.56-222.56h-222.56V365.12"/><path class="cls-1" d="M1393.74,489.76h258.17c113.08,0,204.76-91.67,204.76-204.76h0c0-113.08-91.67-204.76-204.76-204.76h-204.76V365.12"/><path class="cls-1" d="M1393.74,471.95h258.17c103.25,0,186.95-83.7,186.95-186.95h0c0-103.25-83.7-186.95-186.95-186.95h-186.95V365.12"/><path class="cls-1" d="M1393.74,454.15h258.17c93.42,0,169.15-75.73,169.15-169.15h0c0-93.42-75.73-169.15-169.15-169.15h-169.15v249.27"/><path class="cls-1" d="M1393.74,436.34h258.17c83.58,0,151.34-67.76,151.34-151.34h0c0-83.58-67.76-151.34-151.34-151.34h-151.34v231.46"/><path class="cls-1" d="M1393.74,418.54h258.17c73.75,0,133.54-59.79,133.54-133.54h0c0-73.75-59.79-133.54-133.54-133.54h-133.54v213.66"/><path class="cls-1" d="M1393.74,400.73h258.17c63.92,0,115.73-51.82,115.73-115.73h0c0-63.92-51.82-115.73-115.73-115.73h-115.73v195.85"/><path class="cls-1" d="M1393.74,382.93h258.17c54.08,0,97.93-43.84,97.93-97.93h0c0-54.08-43.84-97.93-97.93-97.93h-97.93v178.05"/></g><g><polyline class="cls-1" points="280.92 272.41 293.51 259.82 306.1 247.23 318.69 234.64 331.28 222.05 438.3 115.03 450.89 127.62 343.87 234.64 331.28 247.23 318.69 259.82 306.1 272.41 293.51 285"/><polyline class="cls-1" points="268.33 285 255.74 297.59 243.15 310.18 230.56 322.77 217.97 335.36 110.96 442.38 123.55 454.97 230.56 347.95 243.15 335.36 255.74 322.77 268.33 310.18 280.92 297.59"/><polyline class="cls-1" points="280.92 247.23 293.51 234.64 306.1 222.05 318.69 209.46 438.3 89.85 476.07 127.62 356.46 247.23 343.87 259.82 331.28 272.41 318.69 285"/><polyline class="cls-1" points="243.15 285 230.56 297.59 217.97 310.18 205.38 322.77 85.78 442.38 123.55 480.15 243.15 360.54 255.74 347.95 268.33 335.36 280.92 322.77"/><polyline class="cls-1" points="280.92 222.05 293.51 209.46 306.1 196.87 438.3 64.67 501.25 127.62 369.05 259.82 356.46 272.41 343.87 285"/><polyline class="cls-1" points="217.97 285 205.38 297.59 192.79 310.18 60.6 442.38 123.55 505.33 255.74 373.13 268.33 360.54 280.92 347.95"/><polyline class="cls-1" points="280.92 196.87 293.51 184.28 438.3 39.49 526.43 127.62 381.64 272.41 369.05 285"/><polyline class="cls-1" points="192.79 285 180.2 297.59 35.42 442.38 123.55 530.51 268.33 385.72 280.92 373.13"/><polyline class="cls-1" points="280.92 171.69 438.3 14.31 551.61 127.62 394.23 285"/><polyline class="cls-1" points="167.61 285 10.24 442.38 123.55 555.69 280.92 398.31"/><line class="cls-2" x1="280.92" y1="171.69" x2="123.55" y2="14.31"/><line class="cls-2" x1="551.61" y1="442.38" x2="394.23" y2="285"/><polyline class="cls-1" points="110.96 26.9 268.33 184.28 280.92 196.87"/><polyline class="cls-1" points="539.02 454.97 381.64 297.59 369.05 285"/><polyline class="cls-1" points="280.92 222.05 268.33 209.46 255.74 196.87 98.37 39.49"/><polyline class="cls-1" points="343.87 285 356.46 297.59 369.05 310.18 526.43 467.56"/><polyline class="cls-1" points="85.78 52.08 243.15 209.46 255.74 222.05 268.33 234.64 280.92 247.23"/><polyline class="cls-1" points="513.84 480.15 356.46 322.77 343.87 310.18 331.28 297.59 318.69 285"/><polyline class="cls-1" points="293.51 285 306.1 297.59 318.69 310.18 331.28 322.77 343.87 335.36 501.25 492.74"/><polyline class="cls-1" points="73.19 64.67 230.56 222.05 243.15 234.64 255.74 247.23 268.33 259.82 280.92 272.41"/><polyline class="cls-1" points="280.92 297.59 293.51 310.18 306.1 322.77 318.69 335.36 331.28 347.95 488.66 505.33"/><polyline class="cls-1" points="60.6 77.26 217.97 234.64 230.56 247.23 243.15 259.82 255.74 272.41 268.33 285"/><polyline class="cls-1" points="243.15 285 230.56 272.41 217.97 259.82 205.38 247.23 48.01 89.85"/><polyline class="cls-1" points="280.92 322.77 293.51 335.36 306.1 347.95 318.69 360.54 476.07 517.92"/><polyline class="cls-1" points="217.97 285 205.38 272.41 192.79 259.82 35.42 102.44"/><polyline class="cls-1" points="280.92 347.95 293.51 360.54 306.1 373.13 463.48 530.51"/><polyline class="cls-1" points="450.89 543.1 293.51 385.72 280.92 373.13"/><polyline class="cls-1" points="192.79 285 180.2 272.41 22.83 115.03"/><line class="cls-2" x1="167.61" y1="285" x2="10.24" y2="127.62"/><line class="cls-2" x1="438.3" y1="555.69" x2="280.92" y2="398.31"/></g><line class="cls-2" x1="844.81" y1="187.07" x2="841.78" y2="187.07"/><line class="cls-2" x1="827" y1="187.07" x2="823.98" y2="187.07"/></svg>