<?xml version="1.0" encoding="UTF-8"?><svg id="_이어_1" xmlns="http://www.w3.org/2000/svg" viewBox="0 0 310.74 698.17"><defs><style>.cls-1{fill-rule:evenodd;}</style></defs><g><path class="cls-1" d="M90,70.58c0,5.12-2.07,9.77-5.44,13.12-3.35,3.37-8,5.44-13.12,5.44-5.6,0-10.61-2.48-14.01-6.4h-.72v6.4h-11.52v-17.28h19.33c.04,.22,.09,.43,.16,.64,.12,.45,.28,.87,.5,1.28,.23,.46,.51,.88,.83,1.28,.41,.49,.87,.92,1.38,1.28,1.14,.81,2.53,1.28,4.05,1.28,1.95,0,3.71-.79,4.98-2.06,1.27-1.27,2.06-3.03,2.06-4.98,0-3.89-3.15-7.04-7.04-7.04-1.51,0-2.91,.47-4.05,1.28-.33,.23-.65,.5-.93,.78-.15,.15-.31,.32-.45,.5-.33,.4-.61,.82-.84,1.28-.2,.4-.37,.83-.5,1.28-.06,.21-.11,.42-.15,.64h-19.33v-5.76h-3.84v-11.52h15.36v6.4h.72c.28-.33,.58-.65,.88-.96,3.35-3.37,8-5.44,13.12-5.44,10.25,0,18.56,8.31,18.56,18.56Z"/><path d="M2.25,15.98v-1.67l5.69-5.79c1.15-1.17,1.19-2.02,1.19-2.5,0-1.46-1-2.71-2.44-2.71-1.52,0-2.52,1.21-2.52,3.06v.27h-2v-.25c0-3.21,2.25-4.9,4.48-4.9,2.54,0,4.48,2.06,4.48,4.6,0,1.4-.42,2.4-2,4.02l-3.94,4.06h5.96v1.83H2.25Z"/><path d="M22.08,11.69c0,3.12-2.6,4.56-4.63,4.56s-4.58-1.56-4.58-4.75V6.21c0-3.02,2.29-4.75,4.65-4.75,2.6,0,4.56,2.1,4.56,4.62v5.62Zm-2-5.62c0-1.42-.81-2.79-2.6-2.79-1.67,0-2.62,1.27-2.62,2.79v5.33c0,1.63,.87,3.02,2.62,3.02,1.27,0,2.6-1,2.6-2.63V6.08Z"/><path d="M23.6,15.98v-1.67l5.69-5.79c1.15-1.17,1.19-2.02,1.19-2.5,0-1.46-1-2.71-2.44-2.71-1.52,0-2.52,1.21-2.52,3.06v.27h-2v-.25c0-3.21,2.25-4.9,4.48-4.9,2.54,0,4.48,2.06,4.48,4.6,0,1.4-.42,2.4-2,4.02l-3.94,4.06h5.96v1.83h-8.9Z"/><path d="M34.27,15.98v-1.67l5.69-5.79c1.15-1.17,1.19-2.02,1.19-2.5,0-1.46-1-2.71-2.44-2.71-1.52,0-2.52,1.21-2.52,3.06v.27h-2v-.25c0-3.21,2.25-4.9,4.48-4.9,2.54,0,4.48,2.06,4.48,4.6,0,1.4-.42,2.4-2,4.02l-3.94,4.06h5.96v1.83h-8.9Z"/><path d="M51.98,11.69c2-.02,3.58-.12,5.37-.48l.17,1.63c-2.1,.4-3.88,.48-6.33,.48h-1.15V2.15h6.42v1.62h-4.48v7.92ZM64.27,.08V17.44h-1.88V8.56h-2.06v8.04h-1.87V.44h1.87V6.94h2.06V.08h1.88Z"/><path d="M82.1,10.21h-6.92v7.25h-2v-7.25h-6.79v-1.63h11.29c.5-2.42,.5-4.23,.5-5.83h-9.9V1.15h11.85v1.52c0,1.63,0,3.44-.44,5.9h2.42v1.63Z"/><path d="M92.22,1.92c0,5.04-2.15,9.5-7.83,12.36l-1.1-1.52c4.25-2.17,6.54-5.23,6.94-9.23h-6.08V1.92h8.06Zm7.17,6.67h-2.63v8.85h-1.98V.08h1.98V6.94h2.63v1.65Z"/><path d="M115.93,8.1v1.5h-15.69v-1.5h6.83v-1.27h-4.85V.4h11.85V1.77h-9.86v1.15h9.44v1.33h-9.44v1.19h9.98v1.38h-5.12v1.27h6.87Zm-11.85,7.79h10.38v1.42h-12.35v-4.08h9.9v-1.23h-9.94v-1.4h11.88v3.98h-9.88v1.31Z"/><path d="M127.91,9.35c-2.73,.44-5.08,.54-8.4,.54h-1.46V4.63h5.96v-1.96h-6V1.08h7.94V6.13h-5.94v2.13c2.98-.02,5.15-.12,7.67-.52l.23,1.6Zm-8.15,2.25h11.71v5.88h-1.98v-4.27h-9.73v-1.62ZM131.47,.08V10.75h-1.98V.08h1.98Z"/><path d="M136.61,11.69c2-.02,3.58-.12,5.37-.48l.17,1.63c-2.1,.4-3.88,.48-6.33,.48h-1.15V2.15h6.42v1.62h-4.48v7.92ZM148.89,.08V17.44h-1.88V8.56h-2.06v8.04h-1.87V.44h1.87V6.94h2.06V.08h1.88Z"/><path d="M161.28,3.37h-10.25V1.79h4.13V0h1.98V1.79h4.13v1.58Zm-5.13,7.08c-2.5,0-4.21-1.27-4.21-3.15s1.71-3.17,4.21-3.17c2.5,0,4.21,1.27,4.21,3.17s-1.71,3.15-4.21,3.15Zm-3,1.37h11.42v5.65h-1.98v-4.06h-9.44v-1.6Zm3-2.88c1.38,0,2.33-.62,2.33-1.63s-.94-1.65-2.33-1.65-2.31,.62-2.31,1.65,.92,1.63,2.31,1.63Zm10.88-2.54h-2.46v4.58h-1.98V.1h1.98V4.75h2.46v1.63Z"/><path d="M183.63,13.56v1.63h-15.69v-1.63h3.61V7.94h1.96v5.61h2.33V7.94h1.96v5.61h5.83Zm-3.61-10.23h-10.52V1.71h12.5v1.83c0,2.17,0,4.5-.62,7.86l-1.98-.23c.62-3.17,.62-5.52,.62-7.63v-.21Z"/><path d="M3.62,33.98c3.23-.02,5.31-.12,7.63-.56l.21,1.65c-2.52,.46-4.77,.56-8.37,.56H1.66v-11.56H9.93v1.63H3.62v8.27Zm11.25-11.52v17.42h-2V22.46h2Z"/><path d="M23.59,27.52c0,2.69,1.71,5.77,4.35,7.02l-1.1,1.56c-1.94-.92-3.42-2.85-4.21-5.04-.77,2.42-2.31,4.5-4.31,5.48l-1.13-1.58c2.65-1.27,4.42-4.56,4.42-7.44v-1.67h-3.79v-1.63h9.44v1.63h-3.67v1.67Zm10.08,3.44h-2.71v8.88h-1.98V22.48h1.98v6.85h2.71v1.63Z"/><path d="M39.38,32.33c-2.62,0-4.62-1.83-4.62-4.35,0-2.54,2-4.35,4.62-4.35s4.6,1.81,4.6,4.35-1.98,4.35-4.6,4.35Zm0-1.71c1.52,0,2.67-1.06,2.67-2.63s-1.15-2.63-2.67-2.63-2.67,1.04-2.67,2.63,1.13,2.63,2.67,2.63Zm9.86,7.29v1.62h-11.85v-5.69h2v4.08h9.85Zm-.5-2.81h-1.98v-12.61h1.98v12.61Z"/><path d="M53.88,34.08c2-.02,3.58-.12,5.37-.48l.17,1.63c-2.1,.4-3.88,.48-6.33,.48h-1.15v-11.17h6.42v1.62h-4.48v7.92Zm12.29-11.61v17.36h-1.88v-8.88h-2.06v8.04h-1.87V22.83h1.87v6.5h2.06v-6.86h1.88Z"/><path d="M78.55,25.75h-10.25v-1.58h4.13v-1.79h1.98v1.79h4.13v1.58Zm-5.13,7.08c-2.5,0-4.21-1.27-4.21-3.15s1.71-3.17,4.21-3.17,4.21,1.27,4.21,3.17-1.71,3.15-4.21,3.15Zm-3,1.37h11.42v5.65h-1.98v-4.06h-9.44v-1.6Zm3-2.88c1.38,0,2.33-.62,2.33-1.63s-.94-1.65-2.33-1.65-2.31,.62-2.31,1.65,.92,1.63,2.31,1.63Zm10.88-2.54h-2.46v4.58h-1.98v-10.86h1.98v4.65h2.46v1.63Z"/><path d="M93.63,33.98c3.23-.02,5.31-.12,7.63-.56l.21,1.65c-2.52,.46-4.77,.56-8.37,.56h-1.44v-11.56h8.27v1.63h-6.31v8.27Zm11.25-11.52v17.42h-2V22.46h2Z"/><path d="M113.92,27.5c0,2.88,1.79,5.88,4.5,7.04l-1.1,1.56c-2.02-.88-3.58-2.77-4.38-5.02-.77,2.42-2.33,4.48-4.37,5.46l-1.13-1.58c2.69-1.25,4.48-4.48,4.48-7.46v-1.65h-3.87v-1.63h9.73v1.63h-3.87v1.65Zm7.88-5.02v17.36h-2V22.48h2Z"/><path d="M134.09,30.85c-2.29,.37-4.23,.38-7.52,.38h-1.31v-7.73h7.92v1.56h-5.94v1.5h5.44v1.5h-5.44v1.62c2.85,0,4.62-.06,6.69-.4l.15,1.58Zm5.31,7.31v1.54h-11.86v-4.37h9.33v-1.31h-9.35v-1.54h11.31v4.27h-9.33v1.4h9.9Zm-2.58-10.25h-3v-1.58h3v-3.87h2v9.31h-2v-3.87Z"/><path d="M144.4,33.98c3.23-.02,5.31-.12,7.63-.56l.21,1.65c-2.52,.46-4.77,.56-8.37,.56h-1.44v-11.56h8.27v1.63h-6.31v8.27Zm11.25-11.52v17.42h-2V22.46h2Z"/><path d="M164.36,27.52c0,2.69,1.71,5.77,4.35,7.02l-1.1,1.56c-1.94-.92-3.42-2.85-4.21-5.04-.77,2.42-2.31,4.5-4.31,5.48l-1.13-1.58c2.65-1.27,4.42-4.56,4.42-7.44v-1.67h-3.79v-1.63h9.44v1.63h-3.67v1.67Zm10.08,3.44h-2.71v8.88h-1.98V22.48h1.98v6.85h2.71v1.63Z"/><path d="M180.16,32.33c-2.62,0-4.62-1.83-4.62-4.35s2-4.35,4.62-4.35,4.6,1.81,4.6,4.35-1.98,4.35-4.6,4.35Zm0-1.71c1.52,0,2.67-1.06,2.67-2.63s-1.15-2.63-2.67-2.63-2.67,1.04-2.67,2.63,1.13,2.63,2.67,2.63Zm9.86,7.29v1.62h-11.85v-5.69h2v4.08h9.85Zm-.5-2.81h-1.98v-12.61h1.98v12.61Z"/><path d="M197.35,34.48c1.81-.08,3.63-.19,5.33-.4l.1,1.44c-3.58,.6-7.56,.67-10.6,.67l-.21-1.63c1.06,0,2.23-.02,3.44-.04v-5.23h1.94v5.19Zm1.94-2.4c.44-2.69,.48-4.71,.48-6.17h-6.88v-1.6h8.83v1.15c0,1.52,0,3.71-.48,6.79l-1.94-.17Zm8.86-.79h-2.56v8.56h-2V22.48h2v7.13h2.56v1.67Z"/><path d="M19.45,52.46h5.94v35.13h-5.94v-9.94l-3.13,3.92c-3.05-1.78-4.99-4.63-6.26-8.04-1.19,3.76-3.21,6.97-6.3,8.91l-3.76-4.63c5.62-3.6,6.93-10.22,6.93-16.32v-.99H1.58v-5.11H17.94v5.11h-4.79v.99c0,5.86,1.19,11.8,6.3,15.09v-7.13h-4v-5.11h4v-11.88Zm13.58-.48v37.11h-6.06V51.99h6.06Z"/><path d="M107.54,78.05c2.77-.16,5.54-.4,8.2-.71l.48,4.55c-8.04,1.54-16.48,1.58-22.93,1.58l-.75-5.11c2.61,0,5.58,0,8.63-.08v-2.65c-3.76-.91-6.22-3.41-6.22-6.69,0-4.16,3.92-7.05,9.47-7.05s9.43,2.89,9.43,7.05c0,3.29-2.5,5.82-6.3,6.69v2.42Zm7.96-17.23h-22.26v-4.95h7.92v-3.64h6.42v3.64h7.92v4.95Zm-14.46,8.12c0,1.58,1.35,2.3,3.37,2.3s3.33-.71,3.33-2.3-1.35-2.26-3.33-2.26-3.37,.71-3.37,2.26Zm22.77-16.91v37.11h-6.42V52.03h6.42Z"/><path d="M173.56,66.72v4.91h-33.66v-4.91h13.58v-2.77h6.42v2.77h13.66Zm-32.44-5.47c6.22-.4,9.23-1.94,10.42-3.52h-8.59v-4.87h27.61v4.87h-8.67c1.19,1.58,4.2,3.09,10.46,3.52l-2.02,4.79c-7.53-.51-11.72-2.89-13.62-6.06-1.82,3.17-6.06,5.54-13.55,6.06l-2.02-4.79Zm8.87,23.05h20.52v4.71h-26.85v-10.3h19.61v-1.19h-19.64v-4.63h25.98v10.14h-19.6v1.27Z"/><path d="M206.15,52.03v20h-6.42v-7.09h-5.07c-1.11,3.88-4.87,6.53-9.58,6.53-5.62,0-9.94-3.8-9.94-9.03s4.32-8.99,9.94-8.99c4.63,0,8.36,2.57,9.55,6.38h5.11v-7.8h6.42Zm-6.34,21.47h6.34v15.29h-25.15v-15.29h6.34v2.89h12.48v-2.89Zm-10.89-11.05c0-2.46-1.62-3.72-3.84-3.72s-3.84,1.27-3.84,3.72,1.62,3.76,3.84,3.76,3.84-1.31,3.84-3.76Zm10.89,18.77h-12.48v2.53h12.48v-2.53Z"/><path d="M229.2,74.64c-3.96-1.23-6.57-3.68-8.16-6.73-1.62,3.37-4.36,6.02-8.63,7.41l-3.21-5.07c6.34-2.02,8.4-6.65,8.48-10.97h-6.81v-5.03h20.08v5.03h-6.73c.08,4.04,2.06,8.4,8.08,10.38l-3.09,4.99Zm12.59,8.95v5.03h-25.78v-11.8h6.42v6.77h19.37Zm-7.21-22.34v-9.23h6.42v27.01h-6.42v-12.67h-4.91v-5.11h4.91Z"/><path d="M259.57,59.39c0,6.97,2.1,13.74,8.91,16.59l-3.68,5.15c-4.12-1.82-6.77-5.03-8.4-9.11-1.58,4.48-4.36,8.12-8.79,10.1l-3.76-5.31c6.97-2.89,9.27-10.1,9.27-17.43v-4.67h6.46v4.67Zm15.96-7.45v37.35h-6.42V51.95h6.42Z"/><path d="M294.46,78.05c2.77-.16,5.54-.4,8.2-.71l.48,4.55c-8.04,1.54-16.48,1.58-22.93,1.58l-.75-5.11c2.61,0,5.58,0,8.63-.08v-2.65c-3.76-.91-6.22-3.41-6.22-6.69,0-4.16,3.92-7.05,9.47-7.05s9.43,2.89,9.43,7.05c0,3.29-2.5,5.82-6.3,6.69v2.42Zm7.96-17.23h-22.26v-4.95h7.92v-3.64h6.42v3.64h7.92v4.95Zm-14.46,8.12c0,1.58,1.35,2.3,3.37,2.3s3.33-.71,3.33-2.3-1.35-2.26-3.33-2.26-3.37,.71-3.37,2.26Zm22.77-16.91v37.11h-6.42V52.03h6.42Z"/></g><g><g><path d="M42.2,668.51c1.63-.04,3.12-.13,4.79-.44l.19,2.03c-2.13,.4-3.99,.47-6.23,.47h-1.22v-11.55h6.48v2.03h-4.01v7.45Zm12.04-11.51v17.52h-2.37v-8.76h-1.58v7.94h-2.34v-16.36h2.34v6.4h1.58v-6.74h2.37Z"/><path d="M72.54,667.48h-6.72v7.03h-2.55v-7.03h-6.54v-2.01h11.02c.44-2.22,.47-3.93,.47-5.43h-9.69v-2.01h12.14v1.58c0,1.63,0,3.42-.44,5.87h2.3v2.01Z"/><path d="M84.85,666.28c-3.59,.59-7.54,.66-10.66,.66l-.25-1.99c.99,0,2.07,0,3.19-.02v-3.06h2.45v3c1.73-.08,3.48-.19,5.11-.38l.15,1.79Zm-3.74-2.77c.27-1.44,.34-2.58,.36-3.55h-6.5v-2h8.97v1.14c0,1.16,0,2.7-.4,4.6l-2.43-.19Zm7.2,7.67c0,2.07-2.34,3.31-6.04,3.31s-6.08-1.23-6.08-3.31,2.34-3.3,6.08-3.3,6.04,1.23,6.04,3.3Zm-2.56,0c0-.93-1.23-1.37-3.48-1.37s-3.51,.44-3.51,1.37,1.24,1.35,3.51,1.35,3.48-.42,3.48-1.35Zm4.52-9.88v2.07h-2.11v4.31h-2.51v-10.68h2.51v4.29h2.11Z"/><path d="M106.3,657.01v10.35h-2.51v-2.2h-3.8c-.84,.89-2.09,1.44-3.5,1.44-2.58,0-4.6-1.82-4.6-4.35s2.01-4.33,4.6-4.33c1.42,0,2.68,.55,3.51,1.44h3.78v-2.36h2.51Zm-7.56,5.24c0-1.37-.95-2.18-2.24-2.18s-2.22,.82-2.22,2.18,.95,2.2,2.22,2.2,2.24-.82,2.24-2.2Zm-4.35,5.91h11.91v6.36h-2.51v-4.39h-9.4v-1.98Zm9.4-5v-1.8h-2.77c.06,.29,.1,.57,.1,.89,0,.3-.04,.61-.1,.91h2.77Z"/><path d="M115.93,660.91c0,3.25,1.39,6.44,4.35,7.71l-1.42,2.03c-2.01-.91-3.36-2.64-4.14-4.79-.78,2.34-2.2,4.22-4.29,5.21l-1.5-2.07c3.06-1.31,4.5-4.69,4.5-8.09v-2.54h2.51v2.54Zm7.71-3.91v17.55h-2.51v-17.55h2.51Z"/><path d="M147.8,665.24v1.99h-15.82v-1.99h6.65v-1.44h-4.73v-6.04h12.01v2h-9.52v2.05h9.61v1.99h-4.86v1.44h6.67Zm-1.9,6.08c0,2.05-2.3,3.21-6.08,3.21s-6.06-1.16-6.06-3.21,2.28-3.23,6.06-3.23,6.08,1.16,6.08,3.23Zm-2.55,0c0-.91-1.2-1.33-3.53-1.33s-3.53,.42-3.53,1.33,1.2,1.31,3.53,1.31,3.53-.4,3.53-1.31Z"/><path d="M165.26,667.48h-6.72v7.03h-2.55v-7.03h-6.54v-2.01h11.02c.44-2.22,.47-3.93,.47-5.43h-9.69v-2.01h12.14v1.58c0,1.63,0,3.42-.44,5.87h2.3v2.01Z"/><path d="M188.07,665.24v1.99h-15.82v-1.99h6.65v-1.44h-4.73v-6.04h12.01v2h-9.52v2.05h9.61v1.99h-4.86v1.44h6.67Zm-1.9,6.08c0,2.05-2.3,3.21-6.08,3.21s-6.06-1.16-6.06-3.21,2.28-3.23,6.06-3.23,6.08,1.16,6.08,3.23Zm-2.55,0c0-.91-1.2-1.33-3.53-1.33s-3.53,.42-3.53,1.33,1.2,1.31,3.53,1.31,3.53-.4,3.53-1.31Z"/><path d="M192.67,668.51c1.63-.04,3.12-.13,4.79-.44l.19,2.03c-2.13,.4-3.99,.47-6.23,.47h-1.22v-11.55h6.48v2.03h-4.01v7.45Zm12.04-11.51v17.52h-2.37v-8.76h-1.58v7.94h-2.34v-16.36h2.34v6.4h1.58v-6.74h2.37Z"/><path d="M223.02,667.48h-6.72v7.03h-2.55v-7.03h-6.54v-2.01h11.02c.44-2.22,.47-3.93,.47-5.43h-9.69v-2.01h12.14v1.58c0,1.63,0,3.42-.44,5.87h2.3v2.01Z"/><path d="M240.51,670.54v2.05h-15.84v-2.05h6.65v-2.6h-4.83v-5.93h9.76v-1.88h-9.78v-2h12.25v5.83h-9.75v1.96h10.14v2.01h-5.3v2.6h6.69Z"/><path d="M252.05,669.48h-6v-1.92l5.24-8.38h3.36v8.15h1.65v2.15h-1.65v3.4h-2.6v-3.4Zm0-2.15v-2.74c0-.82,.06-2.11,.09-2.93h-.08c-.34,.74-.72,1.44-1.12,2.2l-2.18,3.46h3.29Z"/><path d="M257.77,666.4c0-5.22,2.6-7.48,5.45-7.48,1.71,0,2.96,.72,3.8,1.6l-1.48,1.67c-.49-.55-1.35-1.01-2.17-1.01-1.62,0-2.94,1.2-3.06,4.73,.78-.97,1.98-1.54,2.89-1.54,2.36,0,4.05,1.35,4.05,4.22s-2.01,4.56-4.43,4.56c-2.66,0-5.05-2.05-5.05-6.74Zm2.62,1.44c.27,2.32,1.22,3.19,2.37,3.19,1.06,0,1.92-.82,1.92-2.45,0-1.54-.8-2.24-2.01-2.24-.72,0-1.58,.4-2.28,1.5Z"/><path d="M269.58,670.61h3.02v-8.53h-2.55v-1.73c1.41-.27,2.38-.63,3.27-1.18h2.07v11.44h2.64v2.26h-8.45v-2.26Z"/><path d="M47.73,685.38c-1.08,2.75-3.53,4.63-7.39,5.72l-.97-1.98c3.99-1.06,5.91-2.94,6.23-5.32h-5.28v-2.01h8.02c0,.55-.04,1.08-.11,1.6h3.13v-2.77h2.51v10.07h-2.51v-1.67h-3.86v-2.01h3.86v-1.61h-3.63Zm6.25,9.08c0,2.18-2.34,3.55-5.89,3.55s-5.91-1.37-5.91-3.55,2.34-3.55,5.91-3.55,5.89,1.37,5.89,3.55Zm-2.47,0c0-1.06-1.27-1.61-3.42-1.61s-3.44,.55-3.44,1.61,1.27,1.62,3.44,1.62,3.42-.55,3.42-1.62Z"/><path d="M65.85,690.93v1.48h4.77v5.72h-2.51v-3.74h-9.65v-1.98h4.88v-1.48h-6.63v-2h15.83v2h-6.69Zm4.67-3.12h-11.8v-6.74h2.49v1.54h6.82v-1.54h2.49v6.74Zm-2.49-3.33h-6.82v1.37h6.82v-1.37Z"/><path d="M77.75,691.9c3.06-.02,5.02-.11,7.12-.51l.23,2.07c-2.38,.46-4.6,.53-8.32,.53h-1.54v-11.82h8.45v2.03h-5.95v7.69Zm10.94-11.28v17.55h-2.51v-17.55h2.51Z"/><path d="M98.09,685.32c0,2.66,1.39,5.76,4.25,7.09l-1.39,1.98c-1.94-.89-3.31-2.64-4.08-4.71-.78,2.28-2.18,4.2-4.18,5.15l-1.41-2c2.87-1.33,4.29-4.62,4.29-7.5v-.97h-3.63v-2.07h9.61v2.07h-3.48v.97Zm9.82,4.03h-2.55v8.76h-2.51v-17.5h2.51v6.67h2.55v2.07Z"/><path d="M114.17,690.61c-2.68,0-4.77-1.88-4.77-4.43s2.09-4.45,4.77-4.45,4.75,1.86,4.75,4.45-2.07,4.43-4.75,4.43Zm0-2.17c1.31,0,2.3-.86,2.3-2.26s-.99-2.28-2.3-2.28-2.32,.84-2.32,2.28,1.03,2.26,2.32,2.26Zm9.96,7.37v2h-12.08v-5.85h2.51v3.86h9.58Zm-.44-2.62h-2.53v-12.56h2.53v12.56Z"/><path d="M133.79,691.04c-1.37-.65-2.28-1.73-2.83-3.04-.63,1.48-1.65,2.74-3.19,3.46l-1.37-1.9c2.39-1.18,3.31-3.44,3.31-5.53v-2.24h2.43v2.24c0,2.05,.84,4.03,3.02,5.09l-1.37,1.92Zm8.19,4.77v2h-12.22v-5.62h2.51v3.63h9.71Zm-6.31-9.17h-2.09v-2.03h2.09v-3.69h2.34v12.27h-2.34v-6.55Zm5.87,7.07h-2.37v-13.09h2.37v13.09Z"/><path d="M147.4,692.16c2.36-.02,4.27-.11,6.42-.46l.23,2.01c-2.53,.4-4.77,.46-7.71,.46h-1.42v-12.1h8.09v2.01h-5.6v2.85h5.02v1.96h-5.02v3.27Zm11.4-11.57v17.55h-2.51v-9.37h-3v-2.01h3v-6.17h2.51Z"/><path d="M171.49,693.07h-6v-1.92l5.24-8.38h3.36v8.15h1.65v2.15h-1.65v3.4h-2.6v-3.4Zm0-2.15v-2.74c0-.82,.06-2.11,.09-2.93h-.08c-.34,.74-.72,1.44-1.12,2.2l-2.18,3.46h3.29Z"/><path d="M192.9,689.24v1.98h-15.81v-1.98h15.81Zm-15.14-2.58c3.74-.23,5.45-1.31,5.78-2.51h-4.94v-1.96h5.13v-1.54h2.51v1.54h5.15v1.96h-4.94c.32,1.2,2.03,2.28,5.78,2.51l-.74,1.86c-3.21-.23-5.39-1.12-6.48-2.51-1.1,1.39-3.29,2.28-6.5,2.51l-.74-1.86Zm13.28,8.49c0,1.92-2.26,2.96-6.08,2.96s-6.06-1.04-6.06-2.96,2.24-2.96,6.06-2.96,6.08,1.04,6.08,2.96Zm-2.55,0c0-.8-1.16-1.12-3.53-1.12s-3.53,.32-3.53,1.12,1.16,1.12,3.53,1.12,3.53-.34,3.53-1.12Z"/><path d="M209.22,691.12c-1.92-.63-3.21-1.88-3.97-3.46-.78,1.73-2.15,3.12-4.18,3.8l-1.27-2c2.87-.93,4.12-3.23,4.12-5.43v-.25h-3.44v-2h9.4v2h-3.4v.23c0,2.07,1.2,4.22,3.95,5.15l-1.22,1.96Zm5.7,4.69v2h-11.93v-5.49h2.51v3.5h9.42Zm-2.91-10.68v-4.52h2.51v12.77h-2.51v-6.21h-2.74v-2.03h2.74Z"/><path d="M224.15,684.51c0,3.25,1.39,6.44,4.35,7.71l-1.42,2.03c-2.01-.91-3.36-2.64-4.14-4.79-.78,2.34-2.2,4.22-4.29,5.21l-1.5-2.07c3.06-1.31,4.5-4.69,4.5-8.09v-2.55h2.51v2.55Zm7.71-3.91v17.55h-2.51v-17.55h2.51Z"/><path d="M244.09,690.49c-1.92-.57-3.25-1.73-4.01-3.17-.78,1.73-2.17,3.12-4.22,3.78l-1.25-1.96c2.83-.95,4.08-3.17,4.12-5.36h-3.48v-2.01h9.46v2.01h-3.42c.04,1.99,1.24,3.95,3.99,4.77l-1.2,1.94Zm4.73,4.24c0,2.13-2.28,3.38-5.91,3.38s-5.93-1.25-5.93-3.38,2.28-3.42,5.93-3.42,5.91,1.27,5.91,3.42Zm-2.49,0c0-1.01-1.2-1.48-3.42-1.48s-3.44,.48-3.44,1.48,1.2,1.46,3.44,1.46,3.42-.47,3.42-1.46Zm4.62-10.09v2.05h-2.32v4.31h-2.51v-10.39h2.51v4.03h2.32Z"/></g><g><g><path d="M58.84,587.48l-11.21-17.84,.2,17.84h-7.14v-29.21h6.43l11.37,18.47-.32-18.47h7.14v29.21h-6.47Z"/><path d="M67.8,573.55c0-9.04,6.51-15.83,15.39-15.83,8.53,0,15.43,6.59,15.43,14.96s-6.71,15.35-15.08,15.35c-8.13,0-15.75-5.84-15.75-14.49Zm23.37-.63c0-4.58-3.28-8.64-7.97-8.64s-7.93,3.91-7.93,8.53,3.28,8.68,8.05,8.68c4.62,0,7.85-3.91,7.85-8.57Z"/><path d="M106.83,587.48l-9.75-29.21h7.66l5.88,20.49h.08l5.92-20.49h7.7l-9.79,29.21h-7.7Z"/><path d="M201.08,587.48v-5.8c3.59-2.33,6.2-4.3,7.82-5.96,3.32-3.36,5.13-6.35,5.13-8.6,0-1.7-1.14-2.84-2.76-2.84-2.05,0-3.2,1.46-3.36,4.62h-7.1c0-6.83,4.22-11.17,10.74-11.17,5.96,0,9.95,3.87,9.95,8.49s-2.57,8.88-9.71,15h9.91v6.28h-20.6Z"/><path d="M244.97,577.1c0,6.75-4.97,10.93-10.78,10.93s-11.01-4.22-11.01-10.93v-8.57c0-6.95,5.49-10.82,10.93-10.82,5.88,0,10.85,4.26,10.85,10.74v8.64Zm-7.46-8.6c0-2.57-1.07-4.22-3.43-4.22-2.21,0-3.43,1.74-3.43,4.22v8.76c0,2.53,1.22,4.22,3.43,4.22,2.37,0,3.43-1.66,3.43-4.22v-8.76Z"/><path d="M246.71,587.48v-5.8c3.59-2.33,6.2-4.3,7.82-5.96,3.32-3.36,5.13-6.35,5.13-8.6,0-1.7-1.14-2.84-2.76-2.84-2.05,0-3.2,1.46-3.36,4.62h-7.1c0-6.83,4.22-11.17,10.74-11.17,5.96,0,9.95,3.87,9.95,8.49s-2.57,8.88-9.71,15h9.91v6.28h-20.6Z"/><path d="M269.52,587.48v-5.8c3.59-2.33,6.2-4.3,7.82-5.96,3.32-3.36,5.13-6.35,5.13-8.6,0-1.7-1.14-2.84-2.76-2.84-2.05,0-3.2,1.46-3.35,4.62h-7.11c0-6.83,4.22-11.17,10.74-11.17,5.96,0,9.95,3.87,9.95,8.49,0,4.66-2.57,8.88-9.71,15h9.91v6.28h-20.6Z"/><path d="M59.6,619.96c-1.93,2.72-3.24,3.47-5.01,3.47-2.96,0-5.09-2.68-8.57-2.68-1.3,0-2.33,.79-3.39,2.72l-1.42-6.16c1.38-2.49,2.96-3.51,5.01-3.51,2.92,0,6.39,2.68,8.41,2.68,1.14,0,2.17-.75,3.55-2.76l1.42,6.24Z"/><path d="M70.25,632.65v-29.21h9.95c3.63,0,6.51,.63,8.57,1.78,4.14,2.37,6.75,6.87,6.75,12.83,0,9.63-5.68,14.6-14.8,14.6h-10.46Zm10.82-6.55c4.3,0,6.99-2.68,6.99-8.01,0-5.21-2.64-8.09-6.95-8.09h-3.39v16.1h3.35Z"/><path d="M98.35,632.65v-29.21h16.22v6.55h-9.08v4.54h8.8v6.55h-8.8v5.01h9.08v6.55h-16.22Z"/><path d="M138.76,614.53c-1.26-3.2-4.03-5.09-7.07-5.09-4.66,0-7.82,3.99-7.82,8.53s3.24,8.68,7.85,8.68c2.96,0,5.49-1.66,7.03-4.93h7.82c-1.82,7.03-7.85,11.49-14.76,11.49-4.07,0-7.89-1.42-10.89-4.38-3.16-3.08-4.5-6.79-4.5-11.21,0-7.74,6.67-14.72,15.04-14.72,4.03,0,7.26,1.11,10.18,3.59,2.76,2.37,4.42,5.05,4.93,8.05h-7.82Z"/><path d="M170.3,632.65v-5.13h-12.87v-5.45l13.07-18.63h6.95v18.24h3.24v5.84h-3.24v5.13h-7.14Zm.47-20.13h-.08l-5.76,9.16h5.84v-9.16Z"/><path d="M182.45,639v-3.51h1.11c1.18,0,1.97-.51,1.97-1.42v-1.42h-3.08v-6.71h6.83v8.49c0,2.53-1.66,4.58-3.91,4.58h-2.92Z"/><path d="M201.12,632.65v-5.8c3.59-2.33,6.2-4.3,7.82-5.96,3.32-3.36,5.13-6.35,5.13-8.6,0-1.7-1.14-2.84-2.76-2.84-2.05,0-3.2,1.46-3.35,4.62h-7.11c0-6.83,4.22-11.17,10.74-11.17,5.96,0,9.95,3.87,9.95,8.49s-2.57,8.88-9.71,15h9.91v6.28h-20.6Z"/><path d="M245.01,622.27c0,6.75-4.97,10.93-10.78,10.93s-11.01-4.22-11.01-10.93v-8.57c0-6.95,5.49-10.82,10.93-10.82,5.88,0,10.85,4.26,10.85,10.74v8.64Zm-7.46-8.6c0-2.57-1.07-4.22-3.43-4.22-2.21,0-3.43,1.74-3.43,4.22v8.76c0,2.53,1.22,4.22,3.43,4.22,2.37,0,3.43-1.66,3.43-4.22v-8.76Z"/><path d="M246.75,632.65v-5.8c3.59-2.33,6.2-4.3,7.82-5.96,3.32-3.36,5.13-6.35,5.13-8.6,0-1.7-1.14-2.84-2.76-2.84-2.05,0-3.2,1.46-3.35,4.62h-7.11c0-6.83,4.22-11.17,10.74-11.17,5.96,0,9.95,3.87,9.95,8.49s-2.57,8.88-9.71,15h9.91v6.28h-20.6Z"/><path d="M269.56,632.65v-5.8c3.59-2.33,6.2-4.3,7.82-5.96,3.32-3.36,5.13-6.35,5.13-8.6,0-1.7-1.14-2.84-2.76-2.84-2.05,0-3.2,1.46-3.36,4.62h-7.1c0-6.83,4.22-11.17,10.74-11.17,5.96,0,9.95,3.87,9.95,8.49,0,4.66-2.57,8.88-9.71,15h9.91v6.28h-20.6Z"/></g><g><path d="M135.96,587.44v-5.8c3.59-2.33,6.2-4.3,7.82-5.96,3.32-3.36,5.13-6.36,5.13-8.61,0-1.7-1.15-2.84-2.76-2.84-2.05,0-3.2,1.46-3.36,4.62h-7.11c0-6.83,4.22-11.17,10.74-11.17,5.96,0,9.95,3.87,9.95,8.49s-2.57,8.88-9.71,15h9.91v6.28h-20.61Z"/><path d="M178.47,578.93c0,5.25-5.01,9.16-10.62,9.16s-10.7-3.71-10.7-9.24c0-3.36,1.62-6.08,4.58-7.38-1.86-1.42-2.84-3.08-2.84-5.49,0-4.9,4.03-8.21,8.92-8.21s8.92,3.44,8.92,8.09c0,2.49-.99,4.15-2.84,5.61,2.92,1.26,4.58,3.95,4.58,7.46Zm-7.46-.71c0-1.86-1.42-3.36-3.2-3.36-1.9,0-3.2,1.42-3.2,3.32s1.42,3.36,3.32,3.36c1.7,0,3.08-1.54,3.08-3.32Zm-.51-11.8c0-1.42-1.26-2.61-2.65-2.61-1.46,0-2.72,1.15-2.72,2.68s1.11,2.68,2.65,2.68,2.72-1.3,2.72-2.76Z"/><path d="M180.31,593.92v-3.51h1.11c1.18,0,1.97-.51,1.97-1.42v-1.42h-3.08v-6.71h6.83v8.49c0,2.53-1.66,4.58-3.91,4.58h-2.92Z"/></g></g></g></svg>