<svg xmlns="http://www.w3.org/2000/svg" viewBox="0 0 1663.12 844.44"><defs><style>.cls-1,.cls-3,.cls-6,.cls-7{fill:none;}.cls-1{stroke:#ff6442;stroke-width:4px;}.cls-1,.cls-5,.cls-6{stroke-miterlimit:10;}.cls-2{fill:#ff6442;}.cls-3,.cls-5{stroke:#216f9b;}.cls-3,.cls-7{stroke-linejoin:round;}.cls-3,.cls-5,.cls-7{stroke-width:2px;}.cls-4{fill:#ffbc58;}.cls-5{fill:#f1f3f9;}.cls-6,.cls-7{stroke:#ffbc58;}</style></defs><g id="silitim"><path class="cls-1" d="M1043,553.49c-25.39,1-51.54-16.94-63.57-45.92a81.19,81.19,0,0,1-6.26-28.43"/><polygon class="cls-2" points="990.72 491.15 988 494.08 973.55 480.66 961.22 496.05 958.1 493.54 973.12 474.8 990.72 491.15"/><polygon class="cls-3" points="986.52 59.33 1078.2 78.97 1078.2 297.22 986.52 277.58 986.52 59.33"/><path class="cls-4" d="M1043.43,273.13a1.84,1.84,0,0,1,.39,0,2.81,2.81,0,0,1,2,2.69,1.69,1.69,0,0,1-2,1.82,2.81,2.81,0,0,1-2-2.69,1.7,1.7,0,0,1,1.66-1.86m0-2a3.68,3.68,0,0,0-3.66,3.86,4.77,4.77,0,0,0,3.63,4.64,3.72,3.72,0,0,0,.81.09,3.69,3.69,0,0,0,3.66-3.86,4.79,4.79,0,0,0-3.63-4.65,4.45,4.45,0,0,0-.81-.08Z"/><path class="cls-4" d="M1043.43,255.09a1.84,1.84,0,0,1,.39,0,2.82,2.82,0,0,1,2,2.7,1.69,1.69,0,0,1-2,1.81,2.81,2.81,0,0,1-2-2.69,1.7,1.7,0,0,1,1.66-1.86m0-2a3.68,3.68,0,0,0-3.66,3.86,4.78,4.78,0,0,0,3.63,4.65,4.45,4.45,0,0,0,.81.08,3.68,3.68,0,0,0,3.66-3.85,4.77,4.77,0,0,0-3.63-4.65,3.72,3.72,0,0,0-.81-.09Z"/><path class="cls-4" d="M1043.43,237.05a1.89,1.89,0,0,1,.39,0,2.81,2.81,0,0,1,2,2.69,1.71,1.71,0,0,1-1.66,1.86,1.74,1.74,0,0,1-.39-.05,2.81,2.81,0,0,1-2-2.69,1.7,1.7,0,0,1,1.66-1.86m0-2a3.68,3.68,0,0,0-3.66,3.86,4.77,4.77,0,0,0,3.63,4.65,3.72,3.72,0,0,0,.81.09,3.69,3.69,0,0,0,3.66-3.86,4.77,4.77,0,0,0-3.63-4.65,3.72,3.72,0,0,0-.81-.09Z"/><path class="cls-4" d="M1043.43,219a1.84,1.84,0,0,1,.39,0,2.81,2.81,0,0,1,2,2.69,1.69,1.69,0,0,1-2,1.82,2.82,2.82,0,0,1-2-2.7,1.7,1.7,0,0,1,1.66-1.85m0-2a3.67,3.67,0,0,0-3.66,3.85,4.77,4.77,0,0,0,3.63,4.65,3.72,3.72,0,0,0,.81.09,3.69,3.69,0,0,0,3.66-3.86,4.78,4.78,0,0,0-3.63-4.65,3.71,3.71,0,0,0-.81-.08Z"/><path class="cls-4" d="M1043.43,201a1.84,1.84,0,0,1,.39,0,2.81,2.81,0,0,1,2,2.69,1.69,1.69,0,0,1-2,1.82,2.81,2.81,0,0,1-2-2.69,1.7,1.7,0,0,1,1.66-1.86m0-2a3.68,3.68,0,0,0-3.66,3.86,4.79,4.79,0,0,0,3.63,4.65,4.45,4.45,0,0,0,.81.08,3.69,3.69,0,0,0,3.66-3.86,4.77,4.77,0,0,0-3.63-4.64,3.72,3.72,0,0,0-.81-.09Z"/><path class="cls-4" d="M1043.43,182.94a1.84,1.84,0,0,1,.39,0,2.83,2.83,0,0,1,2,2.7,1.72,1.72,0,0,1-1.66,1.86,1.74,1.74,0,0,1-.39,0,2.81,2.81,0,0,1-2-2.69,1.7,1.7,0,0,1,1.66-1.86m0-2a3.68,3.68,0,0,0-3.66,3.86,4.77,4.77,0,0,0,3.63,4.65,3.72,3.72,0,0,0,.81.09,3.69,3.69,0,0,0,3.66-3.86,4.77,4.77,0,0,0-3.63-4.65,3.72,3.72,0,0,0-.81-.09Z"/><polyline class="cls-3" points="1188.15 33.63 1078.2 78.97 986.52 59.33 1096.48 14 1188.15 33.63 1188.15 251.88 1078.2 297.22"/><polygon class="cls-5" points="1139.06 520.73 1139.08 421.01 925.68 375.26 925.66 474.98 1139.06 520.73"/><path class="cls-4" d="M939.37,411.31a2,2,0,0,1,.41,0,3,3,0,0,1,2.12,3,2,2,0,0,1-1.88,2.07,2,2,0,0,1-.41-.05,3,3,0,0,1-2.12-3,2,2,0,0,1,1.88-2.06m0-2h0a4,4,0,0,0-3.88,4,5,5,0,0,0,3.7,5,3.88,3.88,0,0,0,4.71-3.91,5,5,0,0,0-3.7-5,4.67,4.67,0,0,0-.83-.08Z"/><path class="cls-4" d="M957,415.09a2,2,0,0,1,.42,0,3,3,0,0,1,2.12,3,2,2,0,0,1-1.88,2.07,2.09,2.09,0,0,1-.42-.05,3,3,0,0,1-2.11-3,2,2,0,0,1,1.87-2.06m0-2h0a4,4,0,0,0-3.87,4,5,5,0,0,0,3.7,5,3.84,3.84,0,0,0,.83.09,4,4,0,0,0,3.88-4,5,5,0,0,0-3.7-5,4,4,0,0,0-.84-.09Z"/><path class="cls-4" d="M974.64,418.87a2.06,2.06,0,0,1,.42,0,3,3,0,0,1,2.11,3A2,2,0,0,1,975.3,424a2,2,0,0,1-.42-.05,3,3,0,0,1-2.12-3,2,2,0,0,1,1.88-2.07m0-2h0a4,4,0,0,0-3.88,4,5,5,0,0,0,3.7,5,4,4,0,0,0,.84.09,4,4,0,0,0,3.87-4,5,5,0,0,0-3.7-5,3.84,3.84,0,0,0-.83-.09Z"/><path class="cls-4" d="M992.28,422.65a2,2,0,0,1,.41,0,3,3,0,0,1,2.12,3,1.91,1.91,0,0,1-2.29,2,3,3,0,0,1-2.12-3,2,2,0,0,1,1.88-2.07m0-2h0a4,4,0,0,0-3.88,4,5,5,0,0,0,3.7,5,3.91,3.91,0,0,0,.83.09,4,4,0,0,0,3.88-4,5,5,0,0,0-3.7-5,4,4,0,0,0-.83-.09Z"/><path class="cls-4" d="M1009.91,426.43a2,2,0,0,1,.42.05,3,3,0,0,1,2.12,3,2,2,0,0,1-1.88,2.07,2.06,2.06,0,0,1-.42,0,3,3,0,0,1-2.11-3,2,2,0,0,1,1.87-2.07m0-2h0a4,4,0,0,0-3.87,4,5,5,0,0,0,3.69,5,4,4,0,0,0,.84.09,4,4,0,0,0,3.87-4,5,5,0,0,0-3.69-5,4,4,0,0,0-.84-.09Z"/><path class="cls-4" d="M1027.55,430.21a2,2,0,0,1,.41.05,3,3,0,0,1,2.12,3,1.91,1.91,0,0,1-2.29,2,3,3,0,0,1-2.12-3,2,2,0,0,1,1.88-2.07m0-2h0a4,4,0,0,0-3.88,4,5,5,0,0,0,3.7,5,3.88,3.88,0,0,0,4.71-3.91,5,5,0,0,0-3.7-5,3.84,3.84,0,0,0-.83-.09Z"/><polyline class="cls-3" points="1249.02 375.76 1139.08 421.01 1139.06 520.73 1249 475.48 1249.02 375.76 1035.62 330.01 925.68 375.26"/><polygon class="cls-3" points="1078.2 836.74 986.52 817.11 986.52 598.86 1078.2 618.49 1078.2 836.74"/><path class="cls-4" d="M1020.51,618.35a1.81,1.81,0,0,1,.39,0,2.81,2.81,0,0,1,2.05,2.69,1.7,1.7,0,0,1-1.66,1.86,1.78,1.78,0,0,1-.39,0,2.83,2.83,0,0,1-2-2.7,1.72,1.72,0,0,1,1.66-1.86m0-2a3.68,3.68,0,0,0-3.66,3.86,4.77,4.77,0,0,0,3.63,4.65,3.72,3.72,0,0,0,.81.09,3.68,3.68,0,0,0,3.66-3.86,4.77,4.77,0,0,0-3.63-4.65,3.72,3.72,0,0,0-.81-.09Z"/><path class="cls-4" d="M1020.51,636.39a2.72,2.72,0,0,1,.39,0,2.83,2.83,0,0,1,2.05,2.7,1.71,1.71,0,0,1-1.66,1.86,1.81,1.81,0,0,1-.39,0,2.81,2.81,0,0,1-2-2.69,1.71,1.71,0,0,1,1.66-1.86m0-2a3.68,3.68,0,0,0-3.66,3.86,4.77,4.77,0,0,0,3.63,4.65,3.72,3.72,0,0,0,.81.09,3.68,3.68,0,0,0,3.66-3.86,4.77,4.77,0,0,0-3.63-4.65,3.72,3.72,0,0,0-.81-.09Z"/><path class="cls-4" d="M1020.51,654.43a1.78,1.78,0,0,1,.39,0,2.81,2.81,0,0,1,2.05,2.69,1.7,1.7,0,0,1-1.66,1.86,1.78,1.78,0,0,1-.39,0,2.81,2.81,0,0,1-2-2.69,1.71,1.71,0,0,1,1.66-1.86m0-2a3.68,3.68,0,0,0-3.66,3.86,4.79,4.79,0,0,0,3.63,4.65,4.45,4.45,0,0,0,.81.08,3.68,3.68,0,0,0,3.66-3.86,4.77,4.77,0,0,0-3.63-4.64,3.72,3.72,0,0,0-.81-.09Z"/><path class="cls-4" d="M1020.51,672.47a1.78,1.78,0,0,1,.39,0,2.81,2.81,0,0,1,2.05,2.69,1.7,1.7,0,0,1-1.66,1.86,1.78,1.78,0,0,1-.39,0,2.82,2.82,0,0,1-2-2.7,1.71,1.71,0,0,1,1.66-1.85m0-2a3.67,3.67,0,0,0-3.66,3.85,4.77,4.77,0,0,0,3.63,4.65,3.72,3.72,0,0,0,.81.09,3.68,3.68,0,0,0,3.66-3.86,4.78,4.78,0,0,0-3.63-4.65,4.45,4.45,0,0,0-.81-.08Z"/><path class="cls-4" d="M1020.51,690.5a1.81,1.81,0,0,1,.39,0,2.81,2.81,0,0,1,2.05,2.69,1.7,1.7,0,0,1-1.66,1.86,1.81,1.81,0,0,1-.39-.05,2.81,2.81,0,0,1-2-2.69,1.71,1.71,0,0,1,1.66-1.86m0-2a3.68,3.68,0,0,0-3.66,3.86,4.77,4.77,0,0,0,3.63,4.65,3.72,3.72,0,0,0,.81.09,3.68,3.68,0,0,0,3.66-3.86,4.77,4.77,0,0,0-3.63-4.65,3.72,3.72,0,0,0-.81-.09Z"/><path class="cls-4" d="M1020.51,708.54a1.78,1.78,0,0,1,.39,0,2.82,2.82,0,0,1,2.05,2.7,1.7,1.7,0,0,1-1.66,1.85,1.78,1.78,0,0,1-.39,0,2.81,2.81,0,0,1-2-2.69,1.71,1.71,0,0,1,1.66-1.86m0-2a3.68,3.68,0,0,0-3.66,3.86,4.78,4.78,0,0,0,3.63,4.65,3.71,3.71,0,0,0,.81.08,3.67,3.67,0,0,0,3.66-3.85,4.77,4.77,0,0,0-3.63-4.65,3.72,3.72,0,0,0-.81-.09Z"/><polyline class="cls-3" points="1188.15 573.16 1078.2 618.49 986.52 598.86 1096.48 553.52 1188.15 573.16 1188.15 791.41 1078.2 836.74"/><line class="cls-1" x1="1050.42" y1="624.94" x2="1050.42" y2="717.65"/><polygon class="cls-2" points="1034.06 704.4 1036.99 701.67 1050.41 716.12 1063.84 701.67 1066.77 704.4 1050.41 721.99 1034.06 704.4"/><path class="cls-6" d="M1018.48,663.38h0a3.06,3.06,0,0,0-3.7-3.1h0a3.07,3.07,0,0,0-.84-4.77h0a3.06,3.06,0,0,0,2.41-4.19h0a3.07,3.07,0,0,0,4.55-1.65h0a3.07,3.07,0,0,0,4.55,1.65h0a3.06,3.06,0,0,0,2.41,4.19h0a3.07,3.07,0,0,0-.84,4.77h0a3.06,3.06,0,0,0-3.7,3.1h0A3.08,3.08,0,0,0,1018.48,663.38Z"/><path class="cls-6" d="M1018.48,681.42h0a3.06,3.06,0,0,0-3.7-3.11h0a3.06,3.06,0,0,0-.84-4.76h0a3.06,3.06,0,0,0,2.41-4.19h0a3.06,3.06,0,0,0,4.55-1.66h0a3.06,3.06,0,0,0,4.55,1.66h0a3.06,3.06,0,0,0,2.41,4.19h0a3.06,3.06,0,0,0-.84,4.76h0a3.06,3.06,0,0,0-3.7,3.11h0A3.06,3.06,0,0,0,1018.48,681.42Z"/><path class="cls-6" d="M1018.48,699.46h0a3.06,3.06,0,0,0-3.7-3.11h0a3.06,3.06,0,0,0-.84-4.76h0a3.06,3.06,0,0,0,2.41-4.19h0a3.07,3.07,0,0,0,4.55-1.66h0a3.07,3.07,0,0,0,4.55,1.66h0a3.06,3.06,0,0,0,2.41,4.19h0a3.06,3.06,0,0,0-.84,4.76h0a3.06,3.06,0,0,0-3.7,3.11h0A3.06,3.06,0,0,0,1018.48,699.46Z"/><path class="cls-6" d="M1018.48,717.5h0a3.06,3.06,0,0,0-3.7-3.11h0a3.07,3.07,0,0,0-.84-4.77h0a3.06,3.06,0,0,0,2.41-4.19h0a3.06,3.06,0,0,0,4.55-1.65h0a3.06,3.06,0,0,0,4.55,1.65h0a3.06,3.06,0,0,0,2.41,4.19h0a3.07,3.07,0,0,0-.84,4.77h0a3.06,3.06,0,0,0-3.7,3.11h0A3.06,3.06,0,0,0,1018.48,717.5Z"/><path class="cls-1" d="M1104.14,314.41c25.39-1,51.55,16.94,63.58,45.92a81.39,81.39,0,0,1,6.25,28.43"/><polygon class="cls-2" points="1156.39 376.75 1159.12 373.82 1173.56 387.24 1185.9 371.85 1189.02 374.36 1173.99 393.1 1156.39 376.75"/><path class="cls-1" d="M581.07,522.84c-25.39.95-51.54-16.94-63.57-45.92a81.19,81.19,0,0,1-6.26-28.43"/><polygon class="cls-2" points="528.82 460.5 526.1 463.44 511.65 450.01 499.32 465.4 496.19 462.89 511.22 444.15 528.82 460.5"/><path class="cls-3" d="M658,51.34C651.75,36,636,28.5,609.78,28.5s-42,7.47-48.23,22.84c-9.8,24.07,7.1,59.3,38.15,108-31.05,48.69-48,83.92-38.15,108,6.26,15.36,22,22.83,48.23,22.83s42-7.47,48.23-22.83c9.8-24.07-7.1-59.3-38.15-108C650.91,110.64,667.81,75.41,658,51.34Z"/><path class="cls-3" d="M609.78,63.36c-21.61,0-39.13-7.13-39.13-15.91"/><path class="cls-3" d="M609.78,31.54c21.61,0,39.13,7.12,39.13,15.91"/><path class="cls-7" d="M571.09,223c-6.5,16.39-8.28,29.89-3.83,40.8,5.52,13.55,19.42,20.14,42.52,20.14s37-6.59,42.52-20.14c4.44-10.91,2.67-24.41-3.83-40.8"/><ellipse class="cls-7" cx="609.78" cy="225.45" rx="39.13" ry="15.91"/><path class="cls-3" d="M658,576.36c-6.26-15.37-22-22.84-48.23-22.84s-42,7.47-48.23,22.84c-9.8,24.07,7.1,59.3,38.15,108-31.05,48.69-48,83.92-38.15,108,6.26,15.36,22,22.83,48.23,22.83s42-7.47,48.23-22.83c9.8-24.07-7.1-59.3-38.15-108C650.91,635.66,667.81,600.43,658,576.36Z"/><path class="cls-3" d="M609.78,588.38c-21.61,0-39.13-7.13-39.13-15.91"/><path class="cls-3" d="M609.78,556.56c21.61,0,39.13,7.12,39.13,15.91"/><path class="cls-7" d="M615.3,773.09c-1.9-.55-3.75-1.07-5.52-1.56l-5.5,1.55h0"/><path class="cls-7" d="M583.78,780.07h0c-7.56,3.3-13.12,7.1-13.12,11.42,0,9.64,17.52,17.46,39.13,17.46s39.13-7.82,39.13-17.46c0-4.31-5.55-8.12-13.11-11.41h0"/><path class="cls-7" d="M577.6,634.73c6,12,13.92,25.31,23.3,40l5.41,7.81a4.22,4.22,0,0,0,6.94,0l5.41-7.81c9.38-14.7,17.3-28,23.3-40"/><ellipse class="cls-7" cx="609.78" cy="632.44" rx="32.54" ry="13.23"/><path class="cls-7" d="M624.17,775.71c-.27-.16-.56-.31-.86-.45a27.28,27.28,0,0,0-8-2.17"/><path class="cls-7" d="M614.62,786.94c7.48-.86,13-3.65,13-7a3.24,3.24,0,0,0-.31-1.35"/><path class="cls-7" d="M592,780c0,2.28,2.6,4.32,6.65,5.64"/><path class="cls-7" d="M604.28,773.08h0a27.19,27.19,0,0,0-8,2.17,11,11,0,0,0-2.9,1.9"/><path class="cls-7" d="M639.52,784.61a9.23,9.23,0,0,0-3.72-4.52h0c-2.91-2.07-7.26-3.75-12.49-4.83h0"/><path class="cls-7" d="M593.8,796.46a65.52,65.52,0,0,0,16,1.87,69.75,69.75,0,0,0,9.59-.64"/><path class="cls-7" d="M596.26,775.26h0c-5.22,1.08-9.56,2.76-12.47,4.81h0c-2.52,1.79-4,3.86-4,6.06a5.47,5.47,0,0,0,.11,1.07"/><path class="cls-5" d="M705.38,491.46c16.33-2.93,26.91-16.81,32.36-42.43s1.42-42.6-12.31-51.92c-21.5-14.6-59.48-5.39-113.56,14.87-41.16-40.5-72.1-64.36-97.69-59.77-16.33,2.92-26.92,16.8-32.36,42.42s-1.42,42.61,12.31,51.93c21.5,14.59,59.48,5.39,113.55-14.87C648.85,472.19,679.79,496.05,705.38,491.46Z"/><path class="cls-3" d="M703.65,441.79c4.49-21.14,15.1-36.8,23.7-35"/><path class="cls-3" d="M734.78,448.4c-4.5,21.14-15.11,36.8-23.7,35"/><path class="cls-7" d="M490.47,385.8a90.44,90.44,0,0,0-2.58,10.13c-4.8,22.59-1.25,37.56,10.85,45.77,19,12.87,49.58,5.82,97.26-12"/><path class="cls-7" d="M593.87,430.45c-12.35,4.61-58.23-.66-80.78-12.4-16.83-8.76-33.35-31.56-15.21-39.83,12.43-5.67,31.63,1.63,60.72,26.47C592.24,433.42,600.77,427.87,593.87,430.45Z"/><line class="cls-1" x1="609.78" y1="694.66" x2="609.78" y2="760.35"/><polygon class="cls-2" points="593.42 747.1 596.35 744.37 609.78 758.82 623.21 744.37 626.14 747.1 609.78 764.69 593.42 747.1"/><path class="cls-1" d="M633.78,325.57c25.39-.95,51.54,16.94,63.57,45.92a81.63,81.63,0,0,1,6.26,28.43"/><polygon class="cls-2" points="686.02 387.91 688.75 384.98 703.2 398.4 715.53 383.01 718.65 385.52 703.63 404.26 686.02 387.91"/></g></svg>