<svg id="백" xmlns="http://www.w3.org/2000/svg" viewBox="0 0 507.58 180.24"><defs><style>.cls-1{fill:#313339;}</style></defs><path class="cls-1" d="M55.23,92.36H83.86l5.81-30.42H61.05l6.71-34.66L25.33,51,23.26,61.94H5.82L0,92.36H17.22l-7.16,37.57a77,77,0,0,0-1.34,13.63q0,16.56,9.73,25.83t30.08,9.28a66.22,66.22,0,0,0,18.11-2.23,71.86,71.86,0,0,0,14.09-5.59l-9.62-27.73A21.64,21.64,0,0,1,59,146.47q-11.41,0-11.41-11.4a34.22,34.22,0,0,1,.67-6.26Z"/><path class="cls-1" d="M221.77,58.64,179.11,82.52a28.08,28.08,0,0,0-11.85-17.67q-9.39-6.48-23-6.48a51.2,51.2,0,0,0-30,9.17,63,63,0,0,0-20.8,24.93,80.15,80.15,0,0,0-7.6,35.22q0,16.77,5.7,28.51a42.09,42.09,0,0,0,15.55,17.89,40.88,40.88,0,0,0,22.13,6.15A43.14,43.14,0,0,0,152.5,174a40.32,40.32,0,0,0,15.21-16.77l-3.8,19.45h47.18l6-30.41H205.05Zm-55.41,79a25.36,25.36,0,0,1-20.12,9.06q-9.62,0-15.43-6T125,123.44Q125,110,132.82,101a25.16,25.16,0,0,1,19.91-9.06q9.6,0,15.54,6.15t5.92,17.1Q174.19,128.59,166.36,137.64Z"/><polyline class="cls-1" points="280.92 126.61 364.26 61.94 314.64 61.94 275.98 91.94 294.03 0 251.49 23.81 221.69 176.66 259.35 176.66 267.07 137.35 280.92 126.61"/><polyline class="cls-1" points="280.92 126.61 307.45 176.66 342.33 176.66 348.15 146.25 334.73 146.25 322.78 126.61 280.92 126.61"/><polygon class="cls-1" points="369.37 92.36 352.93 176.66 403.14 176.66 408.95 146.25 396.88 146.25 411.92 68.55 369.37 92.36"/><path class="cls-1" d="M473.15,92.36h28.62l5.81-30.42H479l6.71-34.66L443.24,51l-2.07,10.91H423.73l-5.82,30.42h17.22L428,129.93a76.1,76.1,0,0,0-1.35,13.63q0,16.56,9.73,25.83t30.08,9.28a66.22,66.22,0,0,0,18.11-2.23,71.61,71.61,0,0,0,14.09-5.59L489,143.12A21.64,21.64,0,0,1,477,146.47q-11.42,0-11.41-11.4a35.13,35.13,0,0,1,.67-6.26Z"/></svg>