<?xml version="1.0" encoding="utf-8"?>
<!-- Generator: Adobe Illustrator 26.0.2, SVG Export Plug-In . SVG Version: 6.00 Build 0)  -->
<svg version="1.1" id="레이어_1" xmlns="http://www.w3.org/2000/svg" xmlns:xlink="http://www.w3.org/1999/xlink" x="0px"
	 y="0px" viewBox="0 0 4081.6 3473.9" style="enable-background:new 0 0 4081.6 3473.9;" xml:space="preserve">
<style type="text/css">
	.st0{fill:#313339;}
	.st1{fill:url(#다크_00000173143657428669327840000003048972735239481739_);}
	.st2{opacity:0.22;}
	.st3{fill:#FF6442;}
	.st4{fill:none;stroke:#A7ACAF;stroke-width:2.0638;stroke-miterlimit:10;}
	.st5{fill:#FF0084;}
	.st6{fill:#6666F6;}
	.st7{fill:#216F9B;}
	.st8{fill:#19C800;}
	.st9{fill:none;stroke:#000000;stroke-width:2.0638;stroke-miterlimit:10;}
	.st10{fill:#EEEFF0;}
	.st11{fill:#EEEFF0;fill-opacity:0;}
	.st12{fill:#FFFFFF;}
</style>
<rect class="st0" width="4081.6" height="3473.9"/>
<g id="schedule_edit">
	<g id="_2">
		
			<linearGradient id="다크_00000132776462449844094140000007646271426070770110_" gradientUnits="userSpaceOnUse" x1="1567.4673" y1="2786.1365" x2="2514.0928" y2="1146.4862" gradientTransform="matrix(1 0 0 -1 0 3474)">
			<stop  offset="0" style="stop-color:#EEEFF0"/>
			<stop  offset="1" style="stop-color:#FFFFFF"/>
		</linearGradient>
		<polygon id="다크" style="fill:url(#다크_00000132776462449844094140000007646271426070770110_);" points="3135.8,1968.6 
			2817.9,2146.5 945.7,2146.5 945.7,1046.8 1263.7,868.9 3135.8,868.9 		"/>
	</g>
	<g class="st2">
		<path class="st3" d="M1253.3,1172.3c-15.7,0-27.5-9.8-27.5-23.5s11.8-23.4,27.5-23.4c15.7,0,27.3,9.8,27.3,23.4
			S1268.9,1172.3,1253.3,1172.3z M1253.3,1160.4c7.6,0,13-4.3,13-11.6s-5.5-11.6-13-11.6c-7.6,0-13.2,4.4-13.2,11.6
			S1245.8,1160.4,1253.3,1160.4z M1312.2,1212.4v11.4h-70.9v-28.3h53.7v-6.2h-53.8v-11.2h68.4v28h-53.7v6.5L1312.2,1212.4z
			 M1309.6,1173.8h-14.8v-51.4h14.8V1173.8z"/>
		<path class="st4" d="M1270.8,1075.1L1270.8,1075.1c51.3,0,92.9,41.6,92.9,92.9v189.7c0,51.3-41.6,92.9-92.9,92.9h0
			c-51.3,0-92.9-41.6-92.9-92.9v-189.7C1178,1116.6,1219.5,1075.1,1270.8,1075.1z"/>
	</g>
	<g class="st2">
		<path d="M1776.1,1195.3c7.9-0.5,15.8-1,23.2-2.1l1.1,10.6c-21.6,4.1-44.7,4.1-62.1,4.1l-1.8-11.9c7.3,0,15.8,0,24.8-0.2v-8.7
			c-10.7-2.2-17.7-9.1-17.7-18.6c0-11.5,10.3-19.3,25.1-19.3c14.8,0,25.1,7.8,25.1,19.3c0,9.5-7,16.4-17.7,18.6L1776.1,1195.3z
			 M1798.8,1145.2h-60.4v-11.6h23v-10.8h14.7v10.8h22.7L1798.8,1145.2z M1768.8,1176.9c6.7,0,11.1-2.9,11.1-8.3s-4.5-8.1-11.1-8.1
			s-11.1,2.9-11.1,8.1S1762.1,1176.9,1768.8,1176.9z M1832.1,1176.3h-12.8v48.7h-14.7v-102.7h14.7v41.8h12.8V1176.3z"/>
		<path class="st4" d="M1784.1,1075.1L1784.1,1075.1c51.3,0,92.9,41.6,92.9,92.9v189.7c0,51.3-41.6,92.9-92.9,92.9h0
			c-51.3,0-92.9-41.6-92.9-92.9v-189.7C1691.3,1116.6,1732.8,1075.1,1784.1,1075.1z"/>
	</g>
	<g class="st2">
		<path d="M2343.7,1172.3v11.7H2251v-11.7h38.9v-9.6h-27.5v-36.3h69.7v36.3h-27.4v9.6H2343.7z M2261.1,1191.4h71.3v33.8h-14.7v-22.1
			h-56.6L2261.1,1191.4z M2276.7,1151.1h40.7v-13.2h-40.7V1151.1z"/>
		<path class="st4" d="M2297.4,1075.1L2297.4,1075.1c51.3,0,92.9,41.6,92.9,92.9v189.7c0,51.3-41.6,92.9-92.9,92.9h0
			c-51.3,0-92.9-41.6-92.9-92.9v-189.7C2204.5,1116.6,2246.1,1075.1,2297.4,1075.1z"/>
	</g>
	<g class="st2">
		<path d="M2600.5,1164v11.7h-92.9V1164h65.1c1.7-8.3,2.6-16.8,2.5-25.3h-56.1V1127h70.5v8.3c0.2,9.6-0.5,19.3-2.3,28.7L2600.5,1164
			z M2518.5,1186.4h70.6v37.4h-70.6V1186.4z M2533,1212.3h41.8v-14.4H2533V1212.3z"/>
		<path class="st4" d="M2554.1,1075.1L2554.1,1075.1c51.3,0,92.9,41.6,92.9,92.9v189.7c0,51.3-41.6,92.9-92.9,92.9h0
			c-51.3,0-92.9-41.6-92.9-92.9v-189.7C2461.2,1116.6,2502.8,1075.1,2554.1,1075.1z"/>
		<circle class="st5" cx="2554.1" cy="1319.2" r="21.5"/>
	</g>
	<g class="st2">
		<path d="M1505.9,1168.4c-8.1,0.1-16.1,0.1-23.3,0.1l-1.4-10c19.6,0,44,0,65.5-2.2l0.9,9c-8.9,1.2-18,2.1-27,2.5v14.2h-14.7
			L1505.9,1168.4z M1488,1139.3c0-9.5,10.3-15.4,25.6-15.4s25.6,5.9,25.6,15.4c0,9.5-10.3,15.1-25.6,15.1s-25.5-5.8-25.5-15.1H1488z
			 M1569.7,1214.2v10h-73.9v-24.5h57.1v-4.9h-57.2v-9.9h71.7v24.1h-57.1v5.2H1569.7z M1501.6,1139.3c0,3.8,4.7,5.7,12,5.7
			s11.9-1.9,11.9-5.7s-4.6-5.8-11.9-5.8C1506.3,1133.5,1501.6,1135.4,1501.6,1139.3L1501.6,1139.3z M1552.6,1169.9v-47.5h14.7v59.4
			h-14.7v-3h-18.2v-8.9L1552.6,1169.9z"/>
		<path class="st4" d="M1527.5,1075.1L1527.5,1075.1c51.3,0,92.9,41.6,92.9,92.9v189.7c0,51.3-41.6,92.9-92.9,92.9h0
			c-51.3,0-92.9-41.6-92.9-92.9v-189.7C1434.6,1116.6,1476.2,1075.1,1527.5,1075.1z"/>
		<circle class="st6" cx="1527.5" cy="1323.2" r="21.5"/>
	</g>
	<g class="st2">
		<path class="st7" d="M2857.2,1201.9v11.9h-92.9v-11.9h39.2v-17h-28.2v-55.4h71.3v11.7h-56.4v10h54.1v11.4h-54.1v10.7h57.2v11.6
			h-29.2v17H2857.2z"/>
		<path class="st4" d="M2810.7,1075.1L2810.7,1075.1c51.3,0,92.9,41.6,92.9,92.9v189.7c0,51.3-41.6,92.9-92.9,92.9h0
			c-51.3,0-92.9-41.6-92.9-92.9v-189.7C2717.9,1116.6,2759.4,1075.1,2810.7,1075.1z"/>
		<circle class="st6" cx="2810.7" cy="1276.1" r="21.5"/>
		<circle class="st5" cx="2810.7" cy="1326.5" r="21.5"/>
		<circle class="st8" cx="2810.7" cy="1376.8" r="21.5"/>
	</g>
	<path class="st9" d="M2040.8,1075.1L2040.8,1075.1c51.3,0,92.9,41.6,92.9,92.9v189.7c0,51.3-41.6,92.9-92.9,92.9h0
		c-51.3,0-92.9-41.6-92.9-92.9v-189.7C1947.9,1116.6,1989.5,1075.1,2040.8,1075.1z"/>
	<path d="M2087.1,1190.2h-39.3v35.1h-14.7v-35.1h-38.7v-11.9h92.7V1190.2z M2078.2,1170.6c-18-2.7-30.8-11-37.4-22.1
		c-6.6,11-19.5,19.4-37.4,22.1l-5.6-11.8c23.4-3.2,35.1-16.5,35.1-28.5v-4.9h15.7v4.9c0,11.9,11.8,25.3,35.1,28.5L2078.2,1170.6z"/>
	<circle class="st6" cx="2040.8" cy="1294.7" r="21.5"/>
	<circle class="st8" cx="2040.8" cy="1348" r="21.5"/>
	<path class="st6" d="M2939.8,965.8c0,11.4,6.7,23.7,17.1,28.5l-4.5,6c-7.7-3.7-13.4-11.3-16.3-20.3c-3,9.5-8.8,17.7-16.5,21.7
		l-4.5-6.2c10.3-5,17.1-17.7,17.1-29.9v-5.4h-14.4v-6.2h36.8v6.2H2940L2939.8,965.8z M2971.4,947.4v67.2h-7.6v-36.9h-13.2v-6.3h13.2
		v-24L2971.4,947.4z"/>
	<path class="st6" d="M3019.7,984.9c-6.9-2-12.7-6.9-15.7-13.5c-3,7.4-9.1,13.1-16.6,15.6l-3.9-6c10.5-3.7,16.4-12.3,16.4-21.4v-1.3
		h-14.3v-6.2h36v6.2h-14v1.3c0,8.3,5.6,16.1,15.8,19.4L3019.7,984.9z M3037.2,1001.8c0,7.9-8.5,12.7-22.4,12.7s-22.4-4.8-22.4-12.7
		s8.5-12.7,22.4-12.7S3037.2,993.9,3037.2,1001.8L3037.2,1001.8z M3029.6,1001.8c0-4.4-5.4-6.7-14.8-6.7s-14.8,2.3-14.8,6.7
		c0,4.4,5.4,6.7,14.8,6.7S3029.6,1006.1,3029.6,1001.8L3029.6,1001.8z M3046,963.8v6.3h-9.5v17.5h-7.7v-40.1h7.7v16.3L3046,963.8z"
		/>
	<path class="st10" d="M1466.3,1656.7h234.8c23.9,0,43.3,19.4,43.3,43.3V1897c0,23.9-19.4,43.3-43.3,43.3h-234.8
		c-23.9,0-43.3-19.4-43.3-43.3V1700C1423,1676.1,1442.4,1656.7,1466.3,1656.7z"/>
	<circle class="st6" cx="1583.7" cy="1757.2" r="21.5"/>
	<path d="M1484.9,1833c-6.7,0-11.7-4.1-11.7-10.1s5-10.1,11.7-10.1c6.7,0,11.8,4.1,11.8,10.1S1491.7,1833,1484.9,1833z
		 M1484.9,1828.9c3.9,0,6.8-2.3,6.8-5.9c0-3.5-2.9-5.9-6.8-5.9c-3.9,0-6.7,2.3-6.7,5.9C1478.1,1826.6,1481,1828.8,1484.9,1828.9
		L1484.9,1828.9z M1510.5,1851.6v4H1480v-11.7h24.2v-3.7h-24.3v-4.1h29.3v11.5H1485v4L1510.5,1851.6z M1509.2,1834.1h-5.1v-22.7h5.1
		V1834.1z"/>
	<path d="M1540.6,1837.1h-21.1v-22.5h5.1v7h10.9v-7h5.1V1837.1z M1529.7,1851.1h25v4.1h-30.1v-14.2h5.2V1851.1z M1535.6,1825.6
		h-10.9v7.4h10.9V1825.6z M1559.3,1824.6v4.1h-6.3v15.5h-5.1v-32.8h5.1v13.1L1559.3,1824.6z"/>
	<path d="M1604.1,1846.2v4.1h-40.7v-4.1H1604.1z M1601.1,1837.7c-4-1.8-7.1-5.2-8.6-9.4c-1.5,4.4-4.7,8-8.9,10
		c-4.2-2-7.4-5.6-8.9-10.1c-1.5,4.2-4.6,7.6-8.6,9.5l-2.7-3.8c5.3-2.4,8.7-7.7,8.7-13.5v-5.4h5.1v5.4c0,5,2.4,9.6,6.3,12.6
		c4-3,6.3-7.6,6.2-12.6v-5.4h5.1v5.4c-0.1,5.9,3.3,11.2,8.7,13.5L1601.1,1837.7z"/>
	<path d="M1615.3,1841.2c4.8,0,9.7-0.4,14.4-1.2l0.4,4.1c-5.5,0.9-11.1,1.3-16.6,1.2h-3.1v-17.2h10.9v-8h-11v-4.1h15.9v16.3h-10.9
		L1615.3,1841.2z M1633.3,1812.3h4.7v41.5h-4.7v-22.7h-5.1v-4.1h5.1V1812.3z M1647.2,1811.3v44.7h-4.8v-44.7H1647.2z"/>
	<path d="M1678.4,1816.1c0,13.3-5.4,24.6-20.6,32.1l-2.7-4.1c11.7-5.7,17.3-13.5,18.2-23.8h-16v-4.1L1678.4,1816.1z M1691.5,1811.4
		v44.7h-5.1v-44.7H1691.5z"/>
	<path class="st11" d="M1923.4,1656.7h234.8c23.9,0,43.3,19.4,43.3,43.3V1897c0,23.9-19.4,43.3-43.3,43.3h-234.8
		c-23.9,0-43.3-19.4-43.3-43.3V1700C1880,1676.1,1899.4,1656.7,1923.4,1656.7z"/>
	<circle class="st5" cx="2040.8" cy="1757.2" r="21.5"/>
	<path d="M1965.8,1823c0,8.1,2.8,15.4,9.3,18.8l-3,3.9c-4.3-2.5-7.4-6.6-8.7-11.3c-1.1,5.3-4.3,9.9-8.8,12.9l-3.1-3.8
		c6.5-3.8,9.3-11.5,9.3-20.4v-2.5h-8.1v-4.1h20.5v4.1h-7.5V1823z M1990.5,1811.4v44.8h-4.9v-22.9h-4.9v20.8h-4.8v-41.9h4.8v16.8h4.9
		v-17.7H1990.5z"/>
	<path d="M2025.7,1835.2c-9.2,1.4-18.5,2-27.8,1.8l-0.6-3.6c3.4,0,7.3,0,11.4,0v-2.5c-5.1-0.5-8.1-2.5-8.1-5.8
		c0-3.7,4.1-5.8,10.6-5.8s10.6,2.2,10.6,5.8c0,3.2-3,5.3-8,5.8v2.3c3.9-0.2,7.8-0.5,11.4-1L2025.7,1835.2z M2024,1818h-25.5v-3.5
		h10.2v-3.6h5.2v3.6h10.2V1818z M2008.4,1852.2h26v3.5h-31v-9.9h24.3v-2.8h-24.4v-3.5h29.5v9.5h-24.3L2008.4,1852.2z M2011.3,1827.7
		c3.6,0,5.8-0.9,5.8-2.7c0-1.8-2.2-2.6-5.8-2.6s-5.9,0.9-5.9,2.6C2005.4,1826.7,2007.7,1827.7,2011.3,1827.7L2011.3,1827.7z
		 M2038.9,1822.5v4.1h-6.2v11h-5.1v-26.3h5.1v11.1L2038.9,1822.5z"/>
	<path d="M2083.7,1833.2v4.1h-40.4v-4.1h9.6v-5.9c-3.4-1.4-5.3-3.7-5.3-6.6c0-5.2,6.2-8.4,16-8.4s16,3.2,16,8.4
		c0,2.9-2.1,5.2-5.4,6.7v5.9H2083.7z M2078.8,1848.1c0,5.2-5.7,8-15.4,8c-9.7,0-15.4-2.9-15.4-8c0-5.2,5.8-8,15.4-8
		S2078.8,1843,2078.8,1848.1L2078.8,1848.1z M2052.8,1820.6c0,2.9,4.1,4.5,10.7,4.5c6.6,0,10.6-1.6,10.6-4.5c0-2.9-4-4.5-10.6-4.5
		S2052.8,1817.7,2052.8,1820.6L2052.8,1820.6z M2073.7,1848.1c0-2.7-3.7-4.1-10.3-4.1c-6.6,0-10.3,1.4-10.3,4.1
		c0,2.7,3.7,4.1,10.3,4.1C2070,1852.2,2073.7,1850.8,2073.7,1848.1L2073.7,1848.1z M2058,1833.2h11v-4.6c-1.8,0.3-3.6,0.4-5.4,0.4
		c-1.9,0-3.7-0.1-5.6-0.4L2058,1833.2z"/>
	<path d="M2111.6,1836.8v4.6h12.8v14.2h-30.7v-14.2h12.8v-4.6h-17.7v-4.1h40.5v4.1H2111.6z M2098.8,1816.8h-6.4v-4.1h33.1v4.1h-6.2
		v8.3h6v4.1h-32.6v-4.1h6.2L2098.8,1816.8z M2119.4,1845.4h-20.6v6.2h20.6V1845.4z M2114.2,1816.8h-10.3v8.3h10.3V1816.8z"/>
	<path class="st10" d="M2380.4,1656.7h234.8c23.9,0,43.3,19.4,43.3,43.3V1897c0,23.9-19.4,43.3-43.3,43.3h-234.8
		c-23.9,0-43.3-19.4-43.3-43.3V1700C2337.1,1676.1,2356.5,1656.7,2380.4,1656.7z"/>
	<circle class="st8" cx="2497.8" cy="1757.2" r="21.5"/>
	<path d="M2472.4,1832.8v4.1h-40.5v-4.1H2472.4z M2468.2,1820.9c0,5.3-6.2,8.6-16,8.6c-9.8,0-16-3.3-16-8.6c0-5.3,6.2-8.6,16-8.6
		C2462,1812.3,2468.2,1815.6,2468.2,1820.9L2468.2,1820.9z M2467.5,1840.6v14.9h-30.7v-14.9H2467.5z M2441.5,1820.9
		c0,2.9,4.1,4.6,10.7,4.6s10.6-1.6,10.6-4.6c0-2.9-4-4.6-10.6-4.6c-6.6,0-10.6,1.6-10.6,4.6H2441.5z M2441.9,1844.7v6.9h20.6v-6.9
		H2441.9z"/>
	<path d="M2502.2,1835.7c-4.8-1.6-8.8-5.1-10.9-9.8c-2,5-6.1,8.8-11.1,10.5l-2.5-4c6.5-2,10.9-8,11-14.7v-4.4h5.2v4.4
		c0.2,6.5,4.6,12.2,10.8,13.9L2502.2,1835.7z M2484.3,1840.3h30.2v15.8h-5.1v-11.7h-25.1L2484.3,1840.3z M2514.4,1811.4v26.8h-5.1
		v-26.8H2514.4z"/>
	<path d="M2545.9,1833.9v3.7h12.6v10.6H2533v3.7h26.8v3.9h-31.8v-11.2h25.5v-3.2h-25.7v-3.9h12.8v-3.7H2523v-4.1h40.5v4.1H2545.9z
		 M2558.3,1826.7h-30v-13.8h30.1L2558.3,1826.7z M2553.3,1816.8h-20.1v5.8h20.1V1816.8z"/>
</g>
<g>
	<path class="st12" d="M959,2207.7c0,6.9,3.2,14.2,8.9,17.7l-2.3,3.1c-4.1-2.5-7-7.1-8.5-12.3c-1.5,5.7-4.7,10.6-8.9,13.2l-2.4-2.9
		c5.9-3.4,9.4-11.2,9.4-18.6v-8.2h3.8V2207.7z M970.3,2196.5h3.7v40h-3.7v-22.2h-7.1v-3.3h7.1V2196.5z M982.8,2195.5v43.1H979v-43.1
		H982.8z"/>
	<path class="st12" d="M1023.1,2200.1c0,12.2-5.6,23.3-19.5,30.3l-2.2-3.1c11-5.5,16.9-13.8,17.8-23.9h-15.8v-3.3H1023.1z
		 M1041.1,2216.3h-6.9v22.3h-3.9v-43.1h3.9v17.5h6.9V2216.3z"/>
	<path class="st12" d="M1060.6,2208.7c0.3,7.5,4.7,14.2,11.5,17.4l-2.2,3.2c-5-2.3-9.2-7.2-11.3-13.1c-2,6.3-6.2,11.7-11.1,14.2
		l-2.3-3.2c6.2-2.9,11.4-11,11.4-18.5v-5.5h-10v-3.3h24v3.3h-10.1L1060.6,2208.7z M1080.5,2195.6v43h-3.9v-43H1080.5z"/>
	<path class="st12" d="M1089.7,2225.9c7.8,0,18.6,0,28-1.5l0.3,2.9c-9.7,1.8-20.1,1.9-27.9,1.9L1089.7,2225.9z M1114.9,2208.8
		c0,6-4.8,10.1-11.5,10.1s-11.5-4.1-11.5-10.1s4.8-10.1,11.5-10.1S1114.9,2202.8,1114.9,2208.8L1114.9,2208.8z M1095.7,2208.8
		c0,4,3.3,6.8,7.7,6.8s7.7-2.8,7.7-6.8s-3.2-6.8-7.7-6.8S1095.7,2204.8,1095.7,2208.8L1095.7,2208.8z M1124.5,2195.5v43.1h-3.9
		v-43.1H1124.5z"/>
	<path class="st12" d="M1160.9,2224.3c1.5-0.1,3.1-0.2,4.5-0.4l0.2,2.9c-6.6,1.1-15.6,1.3-21.3,1.3l-0.4-3.3c1.3,0,2.8,0,4.4,0
		v-20.6h-3.6v-3.2h19.7v3.2h-3.6L1160.9,2224.3z M1151.9,2224.7c1.8-0.1,3.6-0.1,5.4-0.2v-20.4h-5.4V2224.7z M1169,2196.6h3.7v39.8
		h-3.7v-16.2h-5.6v-3.2h5.7v-6h-5.7v-3.2h5.7L1169,2196.6z M1181,2195.6v43h-3.8v-43H1181z"/>
	<path class="st12" d="M1211.2,2200.2c0,12.4-5.7,23.4-20,30.4l-2.1-3.2c11.6-5.5,17.3-13.8,18.1-24h-16.2v-3.2H1211.2z
		 M1223.8,2195.5v43.1h-3.9v-43.1H1223.8z"/>
	<path class="st12" d="M1254.1,2216.8v4.2h12.5v9.7h-25.3v4.2h26.6v3.1h-30.4v-10.2h25.2v-3.9h-25.4v-3h12.8v-4.2h-17.5v-3.2h39v3.2
		L1254.1,2216.8z M1266.6,2210.1h-28.8V2197h28.8V2210.1z M1262.7,2200.1h-21.1v6.9h21.1V2200.1z"/>
	<path class="st12" d="M1326.5,2217v3.2h-38.9v-3.2h17.5v-6.2h3.9v6.2H1326.5z M1289.7,2209.9c7.6-0.8,14.4-4.4,14.8-9.2h-13.3v-3.2
		h31.8v3.2h-13.4c0.3,4.8,7.2,8.4,14.8,9.2l-1.4,3.1c-7.1-0.8-13.5-3.9-15.9-8.6c-2.4,4.7-8.8,7.8-15.9,8.6L1289.7,2209.9z
		 M1321.7,2231.1c0,4.8-5.5,7.4-14.7,7.4s-14.7-2.6-14.7-7.4s5.5-7.4,14.7-7.4S1321.8,2226.3,1321.7,2231.1L1321.7,2231.1z
		 M1317.7,2231.1c0-2.8-4-4.4-10.8-4.4s-10.8,1.6-10.8,4.4s3.9,4.4,10.8,4.4S1317.8,2233.9,1317.7,2231.1L1317.7,2231.1z"/>
	<path class="st12" d="M1370.8,2224.4h-10.2v14.2h-3.9v-14.2h-10.8v14.2h-3.9v-14.2h-10.2v-3.2h39.1V2224.4z M1362.1,2200.4h-25.7
		v-3.2h29.7v11.1h-25.7v5.3h26.6v3.2h-30.5v-11.4h25.6L1362.1,2200.4z"/>
	<path class="st12" d="M1414.9,2215.5v3h-39v-3H1414.9z M1384.5,2235.2h26.9v2.8h-30.8v-9.6h25.5v-3.6h-25.6v-2.8h29.5v9.2h-25.5
		L1384.5,2235.2z M1406,2199.6h-25.2v-2.8h29.1v9h-25.2v3.7h25.9v2.8h-29.8v-9.2h25.2V2199.6z"/>
	<path class="st12" d="M965.6,2290.9c-3.8-1.6-6.9-4.6-8.5-8.5c-1.5,4.2-4.7,7.7-8.8,9.6l-2.1-3c5.6-2.5,9-8.2,9-13.1v-5.8h3.8v5.8
		c0.2,5.4,3.7,10.2,8.7,12L965.6,2290.9z M953.6,2295.9h29v14.6h-3.9v-11.5h-25L953.6,2295.9z M982.6,2267.5v26h-3.8V2282h-5.5v11.3
		h-3.7v-25h3.7v10.5h5.5v-11.2L982.6,2267.5z"/>
	<path class="st12" d="M1029.4,2301.6v3.3h-39.1v-3.3H1029.4z M1025.4,2282.1c0,7.2-6.7,11.9-15.7,11.9s-15.7-4.7-15.7-11.9
		s6.7-11.9,15.7-11.9S1025.5,2275,1025.4,2282.1L1025.4,2282.1z M997.8,2282.1c0,5.2,5.1,8.7,11.9,8.7s11.9-3.5,11.9-8.7
		s-5.1-8.7-11.9-8.7S997.9,2276.9,997.8,2282.1L997.8,2282.1z"/>
	<path class="st12" d="M1073.6,2302v3.2h-39.1v-3.2h17.5v-8.1h-12.6v-13.3h25.5v-6.7h-25.6v-3.2h29.5v13.1h-25.5v7h26.5v3.2H1056
		v8.1H1073.6z"/>
	<path class="st12" d="M1128.4,2292.1h-17.6v18.6h-4v-18.6h-17.4v-3.2h28.6c1-4.9,1.5-9.8,1.3-14.8v-0.6h-25v-3.2h28.9v3.7
		c0.1,5-0.3,9.9-1.2,14.8h6.3V2292.1z"/>
	<path class="st12" d="M1172.6,2290.3v3.2h-17.2v8.4h-4v-8.4h-17.9v-3.2H1172.6z M1142.4,2306.4h25.9v3.2h-29.8v-11.7h3.9V2306.4z
		 M1167.4,2286.1h-28.7v-17.2h3.9v5.5h20.9v-5.5h3.9V2286.1z M1163.5,2277.4h-20.9v5.6h20.9V2277.4z"/>
	<path class="st12" d="M1192.3,2274.4h10.6v3.2h-25.4v-3.2h10.9v-6.4h3.9L1192.3,2274.4z M1200.9,2291.1c0,5.9-4.4,9.9-10.5,9.9
		s-10.4-4-10.4-9.9s4.4-9.9,10.4-9.9S1200.9,2285.3,1200.9,2291.1L1200.9,2291.1z M1197.1,2291.1c0.1-3.7-2.9-6.8-6.6-6.9
		c-3.7-0.1-6.8,2.9-6.9,6.6c-0.1,3.7,2.9,6.8,6.6,6.9c0,0,0.1,0,0.1,0c3.6,0.2,6.6-2.6,6.8-6.2
		C1197.1,2291.4,1197.1,2291.2,1197.1,2291.1L1197.1,2291.1z M1218,2288.5h-7.1v22h-3.9v-43h3.9v17.7h7.1V2288.5z"/>
	<path class="st12" d="M1257.4,2267.5v43.1h-3.9V2294h-10.8c-1.8,4.4-5.1,6.9-9.3,6.9c-6.3,0-10.8-5.9-10.8-15s4.5-15,10.8-15
		c4,0,7.2,2.3,9,6.3h11v-9.6L1257.4,2267.5z M1240.4,2285.9c0-7-2.9-11.5-7-11.5s-7,4.5-7,11.5s2.9,11.5,7,11.5
		S1240.4,2292.9,1240.4,2285.9L1240.4,2285.9z M1253.4,2290.8v-10.4h-9.9c0.4,1.8,0.6,3.6,0.6,5.5c0,1.6-0.2,3.3-0.5,4.9
		L1253.4,2290.8z"/>
	<path class="st12" d="M1298.5,2270.3c0,10.9-7.6,18.6-20.2,22.1l-1.6-3.1c10.5-2.8,16.8-8.4,17.6-15.7h-15.6v-3.2H1298.5z
		 M1282.3,2294.7h28v15.9h-3.9v-12.7h-24.1L1282.3,2294.7z M1316.6,2281.7h-6.4v11.1h-3.9v-25.3h3.9v10.9h6.4V2281.7z"/>
	<path class="st12" d="M1370.8,2301.8v3.3h-39.1v-3.3h9.6v-11.6c-3.6-1.9-5.8-5-5.8-8.9c0-6.7,6.5-11,15.7-11s15.7,4.3,15.7,11
		c0,3.9-2.1,7-5.7,8.8v11.7H1370.8z M1339.3,2281.3c0,4.8,4.9,8,11.9,8s11.9-3.2,11.9-8s-5-8-11.9-8S1339.3,2276.5,1339.3,2281.3z
		 M1345.2,2301.8h12v-10.1c-2,0.5-4,0.7-6,0.7c-2,0-4-0.2-6-0.7V2301.8z"/>
	<path class="st12" d="M1388,2288.2c-6.4,0-11.1-3.8-11.1-9.5s4.7-9.6,11.1-9.6s11.1,3.9,11.1,9.6S1394.4,2288.2,1388,2288.2z
		 M1388,2285c4.2,0,7.3-2.6,7.3-6.3s-3.1-6.4-7.3-6.4s-7.3,2.6-7.3,6.4S1383.8,2285,1388,2285z M1412.7,2306.9v3.1h-29.3v-10.8h24
		v-4.4h-24v-3.1h27.9v10.4h-23.9v4.8L1412.7,2306.9z M1411.2,2289.6h-3.9v-22.1h3.9V2289.6z"/>
	<path class="st12" d="M1444.4,2268.5h3.8v40h-3.8v-21h-5.4c-0.3,8.4-3.8,13.6-9.1,13.6c-5.6,0-9.2-5.8-9.2-15.1s3.6-14.9,9.2-14.9
		c5.2,0,8.6,5,9.1,13.1h5.4V2268.5z M1435.4,2286.1c0-6.9-2.2-11.3-5.6-11.3s-5.6,4.4-5.6,11.3s2.2,11.4,5.6,11.4
		S1435.4,2293.1,1435.4,2286.1z M1456.7,2267.5v43.1h-3.7v-43.1H1456.7z"/>
	<path class="st12" d="M1476.7,2271.9h19.7v27.8h-19.7V2271.9z M1480.5,2296.5h12V2275h-12L1480.5,2296.5z M1515.2,2288h-7.1v22.6
		h-3.9v-43h3.9v17.1h7.1V2288z"/>
	<path class="st12" d="M1541.8,2270.4c0,11.1-6.2,19.1-20,23.1l-1.5-3.1c7.2-2.1,12-5.2,14.6-9.1l-14.3,1.1l-0.7-3.3l16.6-0.7
		c0.6-1.5,1-3.2,1.1-4.8h-15.5v-3.2L1541.8,2270.4z M1554.7,2302.3c0,5.2-5.6,8.3-14.4,8.3s-14.5-3-14.5-8.3s5.6-8.2,14.5-8.2
		S1554.7,2297.1,1554.7,2302.3z M1550.7,2302.3c0-3.2-4-5.1-10.5-5.1s-10.6,1.9-10.6,5.1s4,5.2,10.6,5.2
		S1550.7,2305.5,1550.7,2302.3z M1554.5,2293.4h-3.9v-25.9h3.9V2293.4z"/>
</g>
</svg>
