<svg xmlns="http://www.w3.org/2000/svg" viewBox="0 0 762 344"><defs><style>.cls-1{fill:#ff008c;}.cls-2{fill:#7171f6;}.cls-3{fill:#1acb00;}</style></defs><g id="silitim"><polygon class="cls-1" points="301.22 229.39 341.31 258.08 455.53 258.08 480.71 128.94 301.22 229.39"/><polygon class="cls-1" points="460.66 114.59 420.57 85.89 306.35 85.89 281.17 215.04 460.66 114.59"/><polygon class="cls-2" points="256.26 85.89 142.04 85.89 65.12 128.94 39.94 258.08 154.16 258.08 231.08 215.04 256.26 85.89"/><polyline class="cls-3" points="505.74 258.11 551.42 258.11 511.33 229.41 505.74 258.11"/><polygon class="cls-3" points="722.06 85.92 539.31 85.92 514.13 215.06 574.14 258.11 688.49 258.11 722.06 85.92"/><path d="M86.2,178.66,85.55,182l-16.24,1.18L70,179.8l2.77-.17,2.38-15.13h4l-2.48,14.84,1.61-.12,3-14.72h4L82.21,179ZM74.33,159.48H88.64l-.67,3.4H73.66Zm21-1.17H91.45L90,165.79h-3.4l-.65,3.34h3.4l-.57,3H85.36l-.65,3.35h3.41l-1.91,9.82h3.84ZM92.07,185.7h3.85l5.32-27.39H97.4Z"/><path d="M106.63,183.15,115.24,163H104l.66-3.37H120.7l-9.79,23.52Zm18.47-24.84H129l-5.33,27.39h-3.9Z"/><path d="M150.83,178.07l.26-1.34H132l.62-3.17H142l.32-1.67H130.68l.65-3.32h27.56l-.64,3.32H146.52l-.33,1.67h9.45l-1.47,7.56H135.08l-.27,1.38h19.68l-.63,3.23H130.25l1.49-7.66ZM134,167.19l1.74-8.94h22.73l-1.74,8.94Zm4.54-3.28h14.93l.46-2.37H139Z"/><path d="M184.07,174.61l-1.21,6.25h11.79l-.66,3.37H166.43l.65-3.37h11.73l1.22-6.25ZM182,165.76h8l4.26,10.06h-4.42l-2.87-6.69h-7.66l-5.37,6.69H169.5l13.75-17.19h4.43Z"/><path d="M205.81,169.39h4l.42,14h-3.93l-.61-10.58H204.3l-4.75,10.58h-4L204.71,163h-4.93l.65-3.37H214l-.65,3.37h-4.7Zm16.1,16.31h-3.85l2.74-14.08h-3.29l-2.65,13.64H211l5.24-26.95h3.84l-1.9,9.79h3.28l1.91-9.79h3.84Z"/><path d="M567.53,159.44l-4.64,23.87H551l4.64-23.87h3.78l-1.68,8.62h4.4l1.68-8.62ZM559.79,180l1.66-8.57h-4.4L555.39,180Zm16.37,6.12h-3.84L575.06,172H571.8l-2.65,13.64h-3.84l5.24-26.95h3.84l-1.91,9.79h3.26l1.9-9.79h3.85Z"/><path d="M601.68,178.76l.24-1.26H582.83l.59-3.05h9.36l.29-1.46H581.45l.61-3.14h27.57L609,173H597.35l-.29,1.46h9.39L605,181.7H586l-.26,1.32h19.68l-.61,3.1h-23.6l1.43-7.36Zm-12.61-9.82h-5.19l10.34-6h-8.77l.61-3.14h9.62l.38-2h4.17l-.38,2h9.67l-.61,3.14h-9.12l-1.67.94h4l6.18,5h-5.49l-3-2.26h-6.71Z"/><path d="M639.26,159l-2.76,14.19H620.76L623.52,159h3.87l-.73,3.75h8l.73-3.75ZM626.4,186h9.88c4.11,0,6.49-1.85,7.18-5.4s-1-5.39-5.08-5.39H628.5c-4.11,0-6.49,1.84-7.18,5.39S622.3,186,626.4,186Zm6.88-16.1.73-3.75h-8l-.73,3.75Zm-5.43,8.65h9.88c1.53,0,2.14.61,1.86,2.05a2.33,2.33,0,0,1-2.66,2h-9.88c-1.52,0-2.14-.61-1.86-2A2.33,2.33,0,0,1,627.85,178.5Zm15.37-19.79h3.9l-1.07,5.51h3.75l-.66,3.4h-3.75l-1.3,6.66h-3.9Z"/><path d="M668.6,158.85l-1,5.16h4.66l1-5.3h3.91l-2.83,14.51h-3.9l1.11-5.69h-4.66l-1,5.16H650.22l2.69-13.84h3.88l-.71,3.61h8l.7-3.61Zm-11.84,15.51-.48,2.5H669.8l.48-2.5h3.9l-2.25,11.56H650.65l2.24-11.56Zm6-5,.7-3.61h-8l-.7,3.61Zm6,13.17.46-2.41H655.63l-.46,2.41Z"/><path d="M319,175.11h27.57l-.65,3.37H334.05l-1.51,7.75h-3.93l1.51-7.75H318.33Zm15.66-9.76h5.48l5.74,7.56h-4.75l-3.67-4.19h-6.95l-5.07,4.19h-4.54l12.19-10.23h-9.32l.65-3.37h22.88l-.66,3.37h-8.74Z"/><path d="M367.89,179.16l-.65,3.37-20.41,1.18.66-3.38Zm.79-13-.43,2.23c-.8,4.1-4.21,7.15-10.25,7.15s-8.29-3.05-7.49-7.15l.43-2.23c.8-4.11,4.23-7.16,10.27-7.16S369.48,162.09,368.68,166.2Zm-4.24,1.9.31-1.58c.48-2.49-.81-4.13-4.19-4.13s-5.33,1.64-5.81,4.13l-.31,1.58c-.49,2.5.84,4.14,4.21,4.14S364,170.6,364.44,168.1Zm9-9.56h3.9L372,185.93h-3.9Z"/><path d="M387.36,169h5.83l1.45,14.58h-4.16l-1.29-11.2h-3.57l-5.82,11.2h-4.19l12.58-24.31h4.23ZM401,158.54h3.91l-2,10.06h4.49l-.66,3.4h-4.49l-2.71,13.93h-3.9Z"/><path d="M410.41,160h7.09l.45-2.29h4.16l-.44,2.29h7.1l-.65,3.31H409.76Zm8.42,14.13h-4c-3.94,0-6-1.52-5.39-4.86s3.35-4.87,7.28-4.87h4c3.93,0,6,1.52,5.38,4.87S422.76,174.17,418.83,174.17Zm-2.62,1.59h10.17c4.11,0,5.66,1.7,5,5s-2.85,5-7,5H414.26c-4.11,0-5.65-1.7-5-5S412.1,175.76,416.21,175.76Zm4-8.1H416c-1.49,0-2.4.47-2.63,1.65s.5,1.64,2,1.64h4.29c1.49,0,2.41-.47,2.63-1.64S421.74,167.66,420.24,167.66Zm-5.34,14.81h10.18c1.52,0,2.21-.5,2.44-1.7s-.26-1.7-1.78-1.7H415.56c-1.52,0-2.2.5-2.44,1.7S413.38,182.47,414.9,182.47Zm16.33-23.93h3.9l-1.33,6.84h3.61l-.67,3.4h-3.6L432,174.85h-3.9Z"/></g></svg>