<?xml version="1.0" encoding="UTF-8"?><svg id="_레이어_1" xmlns="http://www.w3.org/2000/svg" viewBox="0 0 675.39 574.28"><defs><style>.cls-1{fill:#fff;}.cls-2{fill:none;stroke:#fff;stroke-miterlimit:10;}</style></defs><g><polyline class="cls-2" points="670.55 573.85 339.24 382.57 7.93 573.85"/><line class="cls-2" x1="339.24" y1="382.57" x2="339.24" y2="0"/></g><g><path class="cls-1" d="M654.03,547.14l.77,.44-2.81,4.87c-1.12,1.94-2.84,2.3-4.32,1.44s-2.05-2.49-.9-4.48l2.8-4.85,.77,.44-2.82,4.89c-.89,1.55-.46,2.71,.56,3.3,.88,.51,2.17,.52,3.13-1.16l2.83-4.9Z"/><path class="cls-1" d="M651.95,556.18l4.44-7.69,.77,.44-4.44,7.69-.77-.44Z"/><path class="cls-1" d="M653.36,558.38l7.95-7.05,.82,.47-7.98,7.03-.79-.46Z"/><path class="cls-1" d="M667.73,555.04l.77,.44-2.81,4.87c-1.12,1.94-2.84,2.3-4.32,1.44s-2.05-2.49-.9-4.48l2.8-4.85,.77,.44-2.82,4.89c-.89,1.55-.46,2.71,.56,3.3,.88,.51,2.17,.52,3.13-1.16l2.83-4.9Z"/><path class="cls-1" d="M670.19,566.71l-.27-4.53-4.09,2.02-.9-.52,4.87-2.42-.29-5.18,.9,.52,.27,4.26,3.8-1.9,.89,.52-4.64,2.33,.36,5.44-.91-.53Z"/></g><g><path class="cls-1" d="M4.44,568.78l-4.44-7.69,4.21-2.43,.4,.7-3.44,1.98,1.6,2.76,3.32-1.92,.4,.7-3.32,1.92,1.64,2.84,3.44-1.98,.4,.7-4.21,2.43Z"/><path class="cls-1" d="M14.23,563.13l-1.83-3.17c-.74-1.28-1.93-1.56-2.92-.98-1.1,.64-1.29,1.87-.65,2.98l1.86,3.22-.73,.42-3.28-5.68,.73-.42,.42,.73h.02c.05-.77,.5-1.47,1.24-1.89,1.57-.91,3.13-.36,4.04,1.21l1.83,3.17-.73,.42Z"/><path class="cls-1" d="M16.96,561.55l-2.9-5.03-1.19,.69-.38-.65,1.19-.69-1.16-2,.73-.42,1.16,2,1.36-.79,.38,.65-1.36,.79,2.9,5.03-.73,.42Z"/><path class="cls-1" d="M18.8,557.05c.72,1.1,2.29,1.42,3.39,.79,.88-.51,1.43-1.5,1.26-2.52l.77-.44c.27,1.48-.43,2.91-1.64,3.61-1.61,.93-3.72,.4-4.68-1.26s-.37-3.78,1.22-4.69c1.7-.98,3.83-.26,4.73,1.31,.04,.07,.07,.15,.12,.22l-5.17,2.99Zm4.06-3.21c-.87-1.02-2.23-1.3-3.35-.65-1.06,.61-1.56,1.93-1.08,3.21l4.43-2.56Z"/><path class="cls-1" d="M26.57,556l-3.28-5.68,.73-.42,.47,.82h.02c-.09-.75,.16-1.32,1.04-1.9l.44,.77h-.01c-.99,.72-1.15,1.73-.63,2.64l1.94,3.36-.73,.42Z"/><path class="cls-1" d="M30.37,553.81l-2.9-5.03-1.19,.69-.38-.65,1.19-.69-1.16-2,.73-.42,1.16,2,1.36-.79,.38,.65-1.36,.79,2.9,5.03-.73,.42Z"/><path class="cls-1" d="M38.27,549.24l-.58-1h-.02c-.06,.99-.63,1.89-1.56,2.42-1.7,.98-3.8,.47-4.78-1.23s-.32-3.77,1.34-4.73c.95-.55,2-.59,2.87-.13h.02s-.58-1.01-.58-1.01l.73-.42,3.28,5.68-.73,.42Zm-1.6-2.86c-.73-1.27-2.35-1.76-3.63-1.02s-1.74,2.33-.96,3.68,2.32,1.74,3.66,.96c1.27-.73,1.67-2.35,.94-3.63Z"/><path class="cls-1" d="M36.64,541.68l-.76-1.31,.73-.42,.76,1.31-.73,.42Zm3.68,6.38l-3.28-5.68,.73-.42,3.28,5.68-.73,.42Z"/><path class="cls-1" d="M46.67,544.39l-1.83-3.17c-.74-1.28-1.93-1.56-2.92-.98-1.1,.64-1.29,1.87-.65,2.98l1.86,3.22-.73,.42-3.28-5.68,.73-.42,.42,.73h.02c.05-.77,.5-1.47,1.24-1.89,1.57-.91,3.13-.36,4.04,1.21l1.83,3.17-.73,.42Z"/><path class="cls-1" d="M56.39,538.78l-1.93-3.33c-.62-1.08-1.58-1.54-2.61-.94s-1.12,1.64-.47,2.75l1.91,3.31-.73,.42-1.92-3.32c-.64-1.11-1.61-1.54-2.62-.96s-1.12,1.63-.48,2.74l1.92,3.32-.73,.42-3.28-5.68,.73-.42,.38,.65c.03-.74,.46-1.33,1.09-1.69,.82-.47,1.73-.49,2.54-.01,.04-.95,.45-1.71,1.28-2.19,1.46-.85,2.9-.23,3.67,1.11l1.97,3.41-.73,.42Z"/><path class="cls-1" d="M57.47,534.73c.72,1.1,2.29,1.42,3.39,.79,.88-.51,1.43-1.5,1.26-2.52l.77-.44c.27,1.48-.43,2.91-1.64,3.61-1.61,.93-3.72,.4-4.68-1.26s-.37-3.78,1.22-4.69c1.7-.98,3.83-.26,4.73,1.31,.04,.07,.07,.15,.12,.22l-5.17,2.99Zm4.06-3.21c-.87-1.02-2.23-1.3-3.35-.65-1.06,.61-1.56,1.93-1.08,3.21l4.43-2.56Z"/><path class="cls-1" d="M69.51,531.21l-1.83-3.17c-.74-1.28-1.93-1.56-2.92-.98-1.1,.64-1.29,1.87-.65,2.98l1.86,3.22-.73,.42-3.28-5.68,.73-.42,.42,.73h.02c.05-.77,.5-1.47,1.24-1.89,1.57-.91,3.13-.36,4.04,1.21l1.83,3.17-.73,.42Z"/><path class="cls-1" d="M72.25,529.63l-2.9-5.03-1.19,.69-.38-.65,1.19-.69-1.16-2,.73-.42,1.16,2,1.36-.79,.38,.65-1.36,.79,2.9,5.03-.73,.42Z"/></g><g><path class="cls-1" d="M345.43,5.38h8.88v2.28c0,1.86-1.02,2.85-2.36,2.85-.73,0-1.22-.26-1.79-.97-.4,.95-1.24,1.48-2.18,1.48-1.21,0-2.54-.68-2.54-3v-2.64Zm5.05,2.29c0,1.7,.98,1.96,1.5,1.96,.66,0,1.52-.38,1.52-2.03v-1.33h-3.02v1.4Zm-4.25,.28c0,1.14,.46,2.18,1.74,2.18,1.01,0,1.7-.88,1.7-2.18v-1.68h-3.44v1.68Z"/><path class="cls-1" d="M345.43,17.55l3.79-2.49-3.79-2.53v-1.04l4.53,3.01,4.34-2.84v1.04l-3.55,2.36,3.55,2.34v1.03l-4.34-2.85-4.53,3.03v-1.06Z"/></g></svg>