<?xml version="1.0" encoding="utf-8"?>
<!-- Generator: Adobe Illustrator 26.0.1, SVG Export Plug-In . SVG Version: 6.00 Build 0)  -->
<svg version="1.1" id="레이어_1" xmlns="http://www.w3.org/2000/svg" xmlns:xlink="http://www.w3.org/1999/xlink" x="0px"
	 y="0px" viewBox="0 0 1000 1000" style="enable-background:new 0 0 1000 1000;" xml:space="preserve">
<g id="레이어_5">
	<path d="M674,500c0,74.6,60.4,135,135,135s135-60.4,135-135s-60.4-135-135-135l0,0C734.4,365,674,425.4,674,500z M929,500
		c0,66.3-53.7,120-120,120s-120-53.7-120-120s53.7-120,120-120S929,433.7,929,500z"/>
	<path d="M704,500c0,58,47,105,105,105s105-47,105-105s-47-105-105-105l0,0C751,395,704,442,704,500z M899,500c0,49.7-40.3,90-90,90
		s-90-40.3-90-90s40.3-90,90-90S899,450.3,899,500L899,500z"/>
	<path d="M734,500c0,41.4,33.6,75,75,75s75-33.6,75-75s-33.6-75-75-75S734,458.6,734,500z M869,500c0,33.1-26.9,60-60,60
		s-60-26.9-60-60s26.9-60,60-60S869,466.9,869,500L869,500z"/>
	<path d="M764,500c0,24.9,20.1,45,45,45s45-20.1,45-45c0-24.9-20.1-45-45-45S764,475.1,764,500L764,500z M839,500
		c0,16.6-13.4,30-30,30s-30-13.4-30-30s13.4-30,30-30S839,483.4,839,500L839,500z"/>
	<path d="M178.7,365.5l1.3,14.9c7-0.6,14-0.6,20.9,0l1.3-15C194.4,364.8,186.5,364.8,178.7,365.5z"/>
	<path d="M133.4,377.6l6.3,13.6c6.3-3,12.9-5.3,19.7-7.1l-3.9-14.5C147.9,371.6,140.5,374.3,133.4,377.6z"/>
	<path d="M121.6,401.7l-8.6-12.3c-6.4,4.5-12.5,9.6-18,15.1l10.6,10.6C110.6,410.2,115.9,405.7,121.6,401.7z"/>
	<path d="M68.1,442.9l13.6,6.3c3-6.3,6.5-12.4,10.5-18.1l-12.3-8.6C75.4,429,71.4,435.8,68.1,442.9z"/>
	<path d="M74.5,468.9L60.1,465c-2,7.6-3.4,15.3-4.1,23.2l14.9,1.3C71.5,482.6,72.7,475.7,74.5,468.9z"/>
	<path d="M247.5,377.6c-7.1-3.3-14.5-6-22.1-8.1l-3.9,14.5c6.8,1.8,13.3,4.2,19.7,7.2L247.5,377.6z"/>
	<path d="M285.9,404.5c-5.6-5.6-11.6-10.6-18-15.1l-8.6,12.3c5.7,4,11.1,8.5,16,13.4L285.9,404.5z"/>
	<path d="M312.9,442.9c-3.3-7.1-7.3-13.9-11.8-20.4l-12.3,8.6c4,5.7,7.5,11.8,10.5,18.1L312.9,442.9z"/>
	<path d="M310,489.5l15-1.3c-0.7-7.8-2-15.6-4.1-23.2l-14.5,3.9C308.2,475.7,309.4,482.6,310,489.5z"/>
	<path d="M70.9,510.5L56,511.8c0.7,7.8,2,15.6,4.1,23.2l14.5-3.9C72.8,524.3,71.5,517.4,70.9,510.5z"/>
	<path d="M68.1,557.1c3.3,7.1,7.3,13.9,11.8,20.4l12.3-8.6c-4-5.7-7.5-11.8-10.5-18.1L68.1,557.1z"/>
	<path d="M95,595.5c5.6,5.6,11.6,10.6,18,15.1l8.6-12.3c-5.7-4-11.1-8.5-16-13.4L95,595.5z"/>
	<path d="M133.4,622.4c7.1,3.3,14.5,6,22.1,8.1l3.9-14.5c-6.7-1.8-13.3-4.2-19.6-7.2L133.4,622.4z"/>
	<path d="M310,510.5c-0.6,7-1.8,13.9-3.6,20.6l14.5,3.9c2-7.6,3.4-15.3,4.1-23.2L310,510.5z"/>
	<path d="M288.8,568.8l12.3,8.6c4.5-6.4,8.5-13.3,11.8-20.4l-13.6-6.3C296.3,557,292.8,563.1,288.8,568.8z"/>
	<path d="M259.3,598.3l8.6,12.3c6.4-4.5,12.5-9.6,18-15.1l-10.6-10.6C270.4,589.8,265,594.3,259.3,598.3z"/>
	<path d="M221.5,615.9l3.9,14.5c7.6-2,15-4.7,22.1-8l-6.3-13.6C234.9,611.8,228.3,614.1,221.5,615.9z"/>
	<path d="M180,619.6l-1.3,14.9c7.8,0.7,15.7,0.7,23.5,0l-1.3-14.9C194,620.2,187,620.2,180,619.6z"/>
	<path d="M404.3,404.5c-15.3,15.2-26.6,33.9-33.2,54.4l87.5-87.6C438.1,377.9,419.5,389.3,404.3,404.5z"/>
	<path d="M485.5,365.8l-120,120c-0.8,7.2-0.9,14.5-0.5,21.8l142.3-142.3C500,364.8,492.7,365,485.5,365.8z"/>
	<path d="M526.1,367.6L367.3,526.3c1.1,5.7,2.6,11.3,4.5,16.8L542.9,372C537.4,370.2,531.8,368.7,526.1,367.6z"/>
	<path d="M558,378.1L377.9,558.2c2.2,4.7,4.8,9.3,7.5,13.7l186.2-186.2C567.2,382.9,562.7,380.4,558,378.1z"/>
	<path d="M584,394.5L394.3,584.3c3.1,3.9,6.5,7.6,10,11.2l190.9-190.9C591.7,401,587.9,397.6,584,394.5z"/>
	<path d="M605.2,415.7L415.5,605.5c4,3.2,8.1,6.1,12.4,8.8L614,428.1C611.3,423.8,608.4,419.7,605.2,415.7z"/>
	<path d="M621.6,441.8L441.5,621.8c4.9,2.3,9.9,4.4,15.1,6.1l171.1-171.1C626,451.7,623.9,446.7,621.6,441.8z"/>
	<path d="M632.2,473.6L473.4,632.4c6.2,1.2,12.5,2,18.8,2.4l142.3-142.3C634.2,486.2,633.4,479.9,632.2,473.6z"/>
</g>
</svg>
