<svg xmlns="http://www.w3.org/2000/svg" viewBox="0 0 1000 1000"><defs><style>.cls-1{fill:#ffbc58;}.cls-2{fill:#216f9b;}.cls-3{fill:#ff6442;}.cls-4{opacity:0.55;}</style></defs><g id="레이어_5" data-name="레이어 5"><path class="cls-1" d="M180.27,380.46h0L179,365.52h0a136.3,136.3,0,0,0-23.18,4.07l3.88,14.49A120.85,120.85,0,0,1,180.27,380.46Z"/><path class="cls-2" d="M201.19,380.44l1.31-14.94a136,136,0,0,0-23.53,0l1.3,14.94A120.8,120.8,0,0,1,201.19,380.44Z"/><path class="cls-3" d="M140,391.22a118.93,118.93,0,0,1,19.66-7.14l-3.88-14.49a134.21,134.21,0,0,0-22.12,8Z"/><path class="cls-1" d="M140,391.22l-6.34-13.6a134.72,134.72,0,0,0-20.38,11.78l8.6,12.29A119.91,119.91,0,0,1,140,391.22Z"/><path class="cls-2" d="M105.88,415.15a120.73,120.73,0,0,1,16-13.46l-8.6-12.29a134.75,134.75,0,0,0-18,15.15Z"/><path class="cls-1" d="M105.88,415.15l-10.6-10.6a135,135,0,0,0-15.13,18l12.29,8.6A121.07,121.07,0,0,1,105.88,415.15Z"/><path class="cls-3" d="M82,449.28a120.63,120.63,0,0,1,10.48-18.11l-12.29-8.6a134.66,134.66,0,0,0-11.78,20.37Z"/><path class="cls-1" d="M82,449.28l-13.59-6.34a134.49,134.49,0,0,0-8.07,22.11l14.5,3.89A119.17,119.17,0,0,1,82,449.28Z"/><path class="cls-2" d="M71.18,489.54a118.2,118.2,0,0,1,3.62-20.6l-14.5-3.89a134.92,134.92,0,0,0-4.07,23.18Z"/><path class="cls-1" d="M71.18,489.54l-15-1.31a136.08,136.08,0,0,0,0,23.54l14.94-1.31A119.81,119.81,0,0,1,71.18,489.54Z"/><path class="cls-1" d="M225.68,369.57a134,134,0,0,0-23.18-4.07l-1.31,14.94a120.39,120.39,0,0,1,20.61,3.62Z"/><path class="cls-3" d="M241.45,391.23l6.34-13.59a134.16,134.16,0,0,0-22.11-8.07l-3.88,14.49A120.35,120.35,0,0,1,241.45,391.23Z"/><path class="cls-1" d="M268.16,389.42a134.66,134.66,0,0,0-20.37-11.78l-6.34,13.59a120.63,120.63,0,0,1,18.11,10.48Z"/><path class="cls-2" d="M275.58,415.15l10.61-10.61a136.37,136.37,0,0,0-18-15.12l-8.6,12.29A120.31,120.31,0,0,1,275.58,415.15Z"/><path class="cls-1" d="M301.33,422.56a136.16,136.16,0,0,0-15.14-18l-10.61,10.61a120,120,0,0,1,13.46,16Z"/><path class="cls-3" d="M299.51,449.28l13.6-6.35a135.11,135.11,0,0,0-11.78-20.37L289,431.16A119.07,119.07,0,0,1,299.51,449.28Z"/><path class="cls-1" d="M321.14,465.06a134.65,134.65,0,0,0-8-22.13l-13.6,6.35a118.93,118.93,0,0,1,7.14,19.66Z"/><path class="cls-2" d="M310.27,489.54l14.94-1.31a135.37,135.37,0,0,0-4.07-23.17l-14.49,3.88A120.85,120.85,0,0,1,310.27,489.54Z"/><path class="cls-3" d="M74.81,531.06a120.85,120.85,0,0,1-3.62-20.6l-14.94,1.31a136.35,136.35,0,0,0,4.07,23.17Z"/><path class="cls-1" d="M74.81,531.06l-14.49,3.88a134.65,134.65,0,0,0,8,22.13L82,550.72A118.93,118.93,0,0,1,74.81,531.06Z"/><path class="cls-2" d="M92.42,568.84A119.91,119.91,0,0,1,82,550.72l-13.6,6.35a135.11,135.11,0,0,0,11.78,20.37Z"/><path class="cls-1" d="M92.42,568.84l-12.29,8.6a135.47,135.47,0,0,0,15.15,18l10.6-10.61A120.73,120.73,0,0,1,92.42,568.84Z"/><path class="cls-3" d="M113.3,610.58l8.6-12.29a120.19,120.19,0,0,1-16-13.44l-10.6,10.61A135.64,135.64,0,0,0,113.3,610.58Z"/><path class="cls-1" d="M121.9,598.29l-8.6,12.29a134.66,134.66,0,0,0,20.37,11.78L140,608.77A120.63,120.63,0,0,1,121.9,598.29Z"/><path class="cls-2" d="M159.67,615.94A120.12,120.12,0,0,1,140,608.77l-6.34,13.59a134.49,134.49,0,0,0,22.11,8.07Z"/><path class="cls-1" d="M159.67,615.94l-3.89,14.49A134,134,0,0,0,179,634.5l1.31-14.94A120.11,120.11,0,0,1,159.67,615.94Z"/><path class="cls-1" d="M310.29,510.46l14.94,1.31a135.09,135.09,0,0,0,0-23.54l-14.94,1.31A120.8,120.8,0,0,1,310.29,510.46Z"/><path class="cls-3" d="M306.67,531.06,321.16,535a134,134,0,0,0,4.07-23.18l-14.94-1.31A119.14,119.14,0,0,1,306.67,531.06Z"/><path class="cls-1" d="M313.1,557.06A135.38,135.38,0,0,0,321.16,535l-14.49-3.89a119.2,119.2,0,0,1-7.17,19.66Z"/><path class="cls-2" d="M289,568.83l12.28,8.6a135.56,135.56,0,0,0,11.79-20.37l-13.6-6.34A121.44,121.44,0,0,1,289,568.83Z"/><path class="cls-1" d="M275.58,584.85l10.61,10.61a136.37,136.37,0,0,0,15.12-18L289,568.83A120.39,120.39,0,0,1,275.58,584.85Z"/><path class="cls-3" d="M259.57,598.31l8.6,12.29a136.16,136.16,0,0,0,18-15.14l-10.61-10.61A120.73,120.73,0,0,1,259.57,598.31Z"/><path class="cls-1" d="M247.8,622.38a135.11,135.11,0,0,0,20.37-11.78l-8.6-12.29a119.46,119.46,0,0,1-18.11,10.47Z"/><path class="cls-2" d="M221.79,615.92l3.89,14.49a134.88,134.88,0,0,0,22.12-8l-6.34-13.6A119.37,119.37,0,0,1,221.79,615.92Z"/><path class="cls-3" d="M201.19,619.54a120.8,120.8,0,0,1-20.92,0L179,634.5a136.08,136.08,0,0,0,23.54,0Z"/><path class="cls-1" d="M202.5,634.48a136.47,136.47,0,0,0,23.18-4.07l-3.89-14.49a120.85,120.85,0,0,1-20.6,3.62h0l1.31,14.94Z"/><circle class="cls-1" cx="809.28" cy="500" r="134.99"/><circle class="cls-3" cx="809.28" cy="500" r="119.99"/><circle class="cls-1" cx="809.28" cy="500" r="104.99"/><circle class="cls-2" cx="809.28" cy="500" r="90"/><circle class="cls-1" cx="809.28" cy="500" r="75"/><circle class="cls-3" cx="809.28" cy="500" r="60"/><circle class="cls-1" cx="809.28" cy="500" r="45"/><circle class="cls-2" cx="809.28" cy="500" r="30"/><circle class="cls-1" cx="809.28" cy="500" r="15"/><path class="cls-1" d="M458.92,371.37a135.24,135.24,0,0,0-87.54,87.54Z"/><path class="cls-3" d="M365.75,485.75l120-120a135.4,135.4,0,0,0-26.83,5.62l-87.54,87.54A134.81,134.81,0,0,0,365.75,485.75Z"/><path class="cls-1" d="M365.21,507.5,507.5,365.21a136.22,136.22,0,0,0-21.75.54l-120,120A136.22,136.22,0,0,0,365.21,507.5Z"/><path class="cls-2" d="M367.59,526.34,526.34,367.58a135.88,135.88,0,0,0-18.84-2.37L365.21,507.5A134.58,134.58,0,0,0,367.59,526.34Z"/><path class="cls-1" d="M372,543.1,543.1,372a136.15,136.15,0,0,0-16.76-4.45L367.59,526.34A134.39,134.39,0,0,0,372,543.1Z"/><path class="cls-3" d="M378.15,558.2,558.2,378.15A136.31,136.31,0,0,0,543.1,372L372,543.1A135.1,135.1,0,0,0,378.15,558.2Z"/><path class="cls-1" d="M385.69,571.87,571.87,385.69a133.25,133.25,0,0,0-13.67-7.54L378.15,558.2A136.28,136.28,0,0,0,385.69,571.87Z"/><path class="cls-2" d="M394.52,584.26,584.26,394.51a135.7,135.7,0,0,0-12.39-8.82L385.69,571.87A137.79,137.79,0,0,0,394.52,584.26Z"/><path class="cls-1" d="M404.54,595.45,595.45,404.54a136.52,136.52,0,0,0-11.19-10L394.52,584.26A138,138,0,0,0,404.54,595.45Z"/><path class="cls-3" d="M415.73,605.47,605.47,415.73a136.58,136.58,0,0,0-10-11.19L404.54,595.45A138.25,138.25,0,0,0,415.73,605.47Z"/><path class="cls-1" d="M428.12,614.29,614.29,428.12a133,133,0,0,0-8.82-12.39L415.73,605.47A134.33,134.33,0,0,0,428.12,614.29Z"/><path class="cls-2" d="M441.79,621.83l180-180a130.35,130.35,0,0,0-7.54-13.67L428.12,614.29A133.25,133.25,0,0,0,441.79,621.83Z"/><path class="cls-1" d="M456.89,628,628,456.88a133.14,133.14,0,0,0-6.12-15.09l-180,180A134.4,134.4,0,0,0,456.89,628Z"/><path class="cls-3" d="M473.65,632.4,632.4,473.64A135.32,135.32,0,0,0,628,456.88L456.89,628A134.39,134.39,0,0,0,473.65,632.4Z"/><path class="cls-1" d="M492.48,634.77l142.3-142.29a134.58,134.58,0,0,0-2.38-18.84L473.65,632.4A135.93,135.93,0,0,0,492.48,634.77Z"/></g></svg>