<svg xmlns="http://www.w3.org/2000/svg" viewBox="0 0 1000 1000"><defs><style>.cls-1{fill:none;stroke:#000;stroke-miterlimit:10;stroke-width:0.2px;}.cls-2{fill-rule:evenodd;}.cls-3{opacity:0.55;}</style></defs><g id="레이어_5" data-name="레이어 5"><path d="M637.45,485a15,15,0,1,1-15,15,15,15,0,0,1,15-15m0-15a30,30,0,1,0,30,30,30,30,0,0,0-30-30Z"/><path d="M637.45,455a45,45,0,1,1-31.82,13.18A44.7,44.7,0,0,1,637.45,455m0-15a60,60,0,1,0,60,60,60,60,0,0,0-60-60Z"/><path d="M496.24,440.12l-56.12,56.12a60,60,0,0,1,56.12-56.12Z"/><path d="M530.48,448.3,448.3,530.48A59.6,59.6,0,0,1,442,515.54l73.5-73.5A59.6,59.6,0,0,1,530.48,448.3Z"/><path d="M551.7,469.52,469.52,551.7a60.34,60.34,0,0,1-11.95-9.27l84.86-84.86A60.34,60.34,0,0,1,551.7,469.52Z"/><path d="M559.88,503.76l-56.12,56.12a59.92,59.92,0,0,1-19.3-1.92l73.5-73.5A59.92,59.92,0,0,1,559.88,503.76Z"/><path d="M418.94,479.71l-14.08,5.13a45.23,45.23,0,0,1,2.69,15.4h15A60,60,0,0,0,418.94,479.71Z"/><path d="M418.94,520.77a59.72,59.72,0,0,1-10.43,18L397,529.17a44.61,44.61,0,0,0,7.83-13.53Z"/><path d="M354.73,544.57l-2.6,14.76a59.52,59.52,0,0,1-19.59-7.12l7.5-13A44.48,44.48,0,0,0,354.73,544.57Z"/><path d="M328.07,529.17l-11.49,9.64a60,60,0,0,1-10.43-18l14.09-5.13A44.61,44.61,0,0,0,328.07,529.17Z"/><path d="M320.24,484.84a45,45,0,0,0-2.69,15.4h-15a60,60,0,0,1,3.6-20.53Z"/><path d="M340,461.25a45.1,45.1,0,0,0-9.31,7.17c-.94.93-1.82,1.89-2.66,2.89l-11.49-9.64a60.33,60.33,0,0,1,16-13.4Z"/><path d="M408.51,461.67,397,471.31c-.84-1-1.72-2-2.65-2.89a45.37,45.37,0,0,0-9.31-7.17l7.49-13A60.33,60.33,0,0,1,408.51,461.67Z"/><path class="cls-1" d="M392.55,552.21A59.55,59.55,0,0,1,373,559.33l-2.61-14.76a44.84,44.84,0,0,0,14.7-5.34Z"/><path class="cls-2" d="M392.55,552.21A59.55,59.55,0,0,1,373,559.33l-2.61-14.76a44.84,44.84,0,0,0,14.7-5.34Z"/><path class="cls-1" d="M373,441.14l-2.61,14.77a45.91,45.91,0,0,0-15.63,0l-2.6-14.77a60.77,60.77,0,0,1,20.84,0Z"/><path class="cls-2" d="M373,441.14l-2.61,14.77a45.91,45.91,0,0,0-15.63,0l-2.6-14.77a60.77,60.77,0,0,1,20.84,0Z"/></g></svg>