<svg xmlns="http://www.w3.org/2000/svg" viewBox="0 0 1000 1000"><defs><style>.cls-1{fill:none;}.cls-2{opacity:0.55;}</style></defs><g id="레이어_5" data-name="레이어 5"><path d="M500,675.27a134,134,0,1,1-94.75,39.25A133.12,133.12,0,0,1,500,675.27m0-1a135,135,0,1,0,135,135,135,135,0,0,0-135-135Z"/><path d="M500,678.66a130.61,130.61,0,1,1-92.36,38.25A129.75,129.75,0,0,1,500,678.66m0-1A131.62,131.62,0,1,0,631.62,809.27,131.61,131.61,0,0,0,500,677.66Z"/><path d="M500,682a127.21,127.21,0,1,1-90,37.26A126.41,126.41,0,0,1,500,682m0-1A128.23,128.23,0,1,0,628.23,809.27,128.23,128.23,0,0,0,500,681Z"/><path d="M500,685.42a123.87,123.87,0,1,1-87.57,36.28A123,123,0,0,1,500,685.42m0-1A124.85,124.85,0,1,0,624.85,809.27,124.85,124.85,0,0,0,500,684.42Z"/><path d="M500,688.81a120.45,120.45,0,1,1-85.18,35.28A119.67,119.67,0,0,1,500,688.81m0-1A121.47,121.47,0,1,0,621.46,809.27,121.46,121.46,0,0,0,500,687.81Z"/><path d="M500,692.19a117.07,117.07,0,1,1-82.79,34.29A116.33,116.33,0,0,1,500,692.19m0-1A118.08,118.08,0,1,0,618.08,809.27,118.08,118.08,0,0,0,500,691.19Z"/><path d="M500,695.57a113.71,113.71,0,1,1-80.4,33.31A113,113,0,0,1,500,695.57m0-1a114.7,114.7,0,1,0,114.7,114.7A114.7,114.7,0,0,0,500,694.57Z"/><path d="M500,699a110.31,110.31,0,1,1-78,32.31A109.55,109.55,0,0,1,500,699m0-1A111.32,111.32,0,1,0,611.31,809.27,111.3,111.3,0,0,0,500,698Z"/><path d="M500,702.34a106.93,106.93,0,1,1-75.61,31.32A106.22,106.22,0,0,1,500,702.34m0-1A107.93,107.93,0,1,0,607.93,809.27,107.93,107.93,0,0,0,500,701.34Z"/><path d="M500,705.73A103.55,103.55,0,1,1,396.45,809.27,103.66,103.66,0,0,1,500,705.73m0-1A104.55,104.55,0,1,0,604.55,809.27,104.54,104.54,0,0,0,500,704.73Z"/><path d="M500,709.11A100.16,100.16,0,1,1,399.84,809.27,100.27,100.27,0,0,1,500,709.11m0-1A101.16,101.16,0,1,0,601.16,809.27,101.16,101.16,0,0,0,500,708.11Z"/><path d="M500,712.49a96.78,96.78,0,1,1-96.78,96.78A96.9,96.9,0,0,1,500,712.49m0-1a97.78,97.78,0,1,0,97.78,97.78A97.78,97.78,0,0,0,500,711.49Z"/><path d="M500,715.88a93.4,93.4,0,1,1-93.4,93.39A93.5,93.5,0,0,1,500,715.88m0-1a94.4,94.4,0,1,0,94.4,94.39A94.4,94.4,0,0,0,500,714.88Z"/><path d="M500,719.26a90,90,0,1,1-90,90,90.11,90.11,0,0,1,90-90m0-1a91,91,0,1,0,91,91,91,91,0,0,0-91-91Z"/><path d="M500,722.64a86.63,86.63,0,1,1-86.63,86.63A86.73,86.73,0,0,1,500,722.64m0-1a87.63,87.63,0,1,0,87.63,87.63A87.63,87.63,0,0,0,500,721.64Z"/><path d="M500,726a83.25,83.25,0,1,1-83.24,83.24A83.33,83.33,0,0,1,500,726m0-1a84.25,84.25,0,1,0,84.24,84.24A84.23,84.23,0,0,0,500,725Z"/><path d="M500,729.41a79.86,79.86,0,1,1-79.86,79.86A80,80,0,0,1,500,729.41m0-1a80.86,80.86,0,1,0,80.86,80.86A80.86,80.86,0,0,0,500,728.41Z"/><path d="M500,732.79a76.48,76.48,0,1,1-76.48,76.48A76.57,76.57,0,0,1,500,732.79m0-1a77.48,77.48,0,1,0,77.48,77.48A77.48,77.48,0,0,0,500,731.79Z"/><path d="M500,736.18a73.09,73.09,0,1,1-73.09,73.09A73.18,73.18,0,0,1,500,736.18m0-1a74.09,74.09,0,1,0,74.09,74.09A74.09,74.09,0,0,0,500,735.18Z"/><path d="M500,739.56a69.71,69.71,0,1,1-69.71,69.71A69.79,69.79,0,0,1,500,739.56m0-1a70.71,70.71,0,1,0,70.71,70.71A70.71,70.71,0,0,0,500,738.56Z"/><path d="M500,743a66.33,66.33,0,1,1-66.33,66.32A66.4,66.4,0,0,1,500,743m0-1a67.33,67.33,0,1,0,67.33,67.32A67.33,67.33,0,0,0,500,742Z"/><path d="M500,746.33a62.94,62.94,0,1,1-62.94,62.94A63,63,0,0,1,500,746.33m0-1a63.94,63.94,0,1,0,63.94,63.94A63.94,63.94,0,0,0,500,745.33Z"/><path d="M500,749.71a59.56,59.56,0,1,1-59.56,59.56A59.63,59.63,0,0,1,500,749.71m0-1a60.56,60.56,0,1,0,60.56,60.56A60.56,60.56,0,0,0,500,748.71Z"/><path d="M500,753.1a56.18,56.18,0,1,1-56.17,56.17A56.24,56.24,0,0,1,500,753.1m0-1a57.18,57.18,0,1,0,57.17,57.17A57.17,57.17,0,0,0,500,752.1Z"/><path d="M500,756.48a52.79,52.79,0,1,1-52.79,52.79A52.85,52.85,0,0,1,500,756.48m0-1a53.79,53.79,0,1,0,53.79,53.79A53.79,53.79,0,0,0,500,755.48Z"/><path d="M500,759.86a49.41,49.41,0,1,1-49.41,49.41A49.47,49.47,0,0,1,500,759.86m0-1a50.41,50.41,0,1,0,50.41,50.41A50.41,50.41,0,0,0,500,758.86Z"/><path d="M500,763.25a46,46,0,1,1-46,46,46.07,46.07,0,0,1,46-46m0-1a47,47,0,1,0,47,47,47,47,0,0,0-47-47Z"/><path d="M500,766.63a42.64,42.64,0,1,1-42.64,42.64A42.69,42.69,0,0,1,500,766.63m0-1a43.64,43.64,0,1,0,43.64,43.64A43.64,43.64,0,0,0,500,765.63Z"/><path d="M500,770a39.26,39.26,0,1,1-39.26,39.25A39.3,39.3,0,0,1,500,770m0-1a40.26,40.26,0,1,0,40.26,40.25A40.26,40.26,0,0,0,500,769Z"/><path d="M500,773.4a35.87,35.87,0,1,1-35.87,35.87A35.91,35.91,0,0,1,500,773.4m0-1a36.87,36.87,0,1,0,36.87,36.87A36.87,36.87,0,0,0,500,772.4Z"/><path d="M500,776.78a32.49,32.49,0,1,1-32.49,32.49A32.53,32.53,0,0,1,500,776.78m0-1a33.49,33.49,0,1,0,33.49,33.49A33.49,33.49,0,0,0,500,775.78Z"/><path d="M500,780.17a29.11,29.11,0,1,1-29.1,29.1,29.13,29.13,0,0,1,29.1-29.1m0-1a30.11,30.11,0,1,0,30.1,30.1,30.1,30.1,0,0,0-30.1-30.1Z"/><path d="M500,783.55a25.72,25.72,0,1,1-25.72,25.72A25.75,25.75,0,0,1,500,783.55m0-1a26.72,26.72,0,1,0,26.72,26.72A26.72,26.72,0,0,0,500,782.55Z"/><path d="M500,786.93a22.34,22.34,0,1,1-22.34,22.34A22.36,22.36,0,0,1,500,786.93m0-1a23.34,23.34,0,1,0,23.34,23.34A23.34,23.34,0,0,0,500,785.93Z"/><path d="M500,790.32a19,19,0,1,1-18.95,18.95A19,19,0,0,1,500,790.32m0-1a20,20,0,1,0,20,19.95,19.95,19.95,0,0,0-20-19.95Z"/><path d="M500,793.7a15.57,15.57,0,1,1-15.57,15.57A15.59,15.59,0,0,1,500,793.7m0-1a16.57,16.57,0,1,0,16.57,16.57A16.57,16.57,0,0,0,500,792.7Z"/><path d="M500,797.09a12.19,12.19,0,1,1-12.19,12.18A12.2,12.2,0,0,1,500,797.09m0-1a13.19,13.19,0,1,0,13.19,13.18A13.19,13.19,0,0,0,500,796.09Z"/><path d="M500,800.47a8.8,8.8,0,1,1-8.8,8.8,8.81,8.81,0,0,1,8.8-8.8m0-1a9.8,9.8,0,1,0,9.8,9.8,9.8,9.8,0,0,0-9.8-9.8Z"/><path d="M500,803.85a5.42,5.42,0,1,1-5.42,5.42,5.42,5.42,0,0,1,5.42-5.42m0-1a6.42,6.42,0,1,0,6.42,6.42,6.43,6.43,0,0,0-6.42-6.42Z"/><path d="M500,807.24a2,2,0,1,1-2,2,2,2,0,0,1,2-2m0-1a3,3,0,1,0,3,3,3,3,0,0,0-3-3Z"/><path d="M500,55.73h-1l.11,15H500v-15Zm-4.74.08-.8,0h-.2l.63,15,.89,0-.52-15Zm-4.73.25h-.23l-.41,0h-.05l-.31,0,1.15,15,.89-.07-1-15Zm-4.72.41-.76.08-.23,0,1.66,14.91.89-.09L485.8,56.47Zm-4.7.57-.66.1h-.17l-.16,0L482.3,72l.88-.12L481.1,57Zm-4.68.74-.74.13-.25.05,2.71,14.75.88-.16-2.6-14.77Zm-4.66.91-1,.21L474,73.55l.86-.19-3.12-14.67Zm-4.61,1.06-.18,0-.79.2,3.74,14.52.86-.21-3.63-14.56ZM462.57,61l-.52.16H462l0,0h0l-.3.08,4.26,14.39.85-.25L462.57,61ZM458,62.38l-.16,0h-.08l-.59.2h0l-.09,0,4.76,14.22.85-.28L458,62.38Zm-4.48,1.55-.12,0-.82.3,5.27,14,.83-.31-5.16-14.08Zm-4.42,1.71-.8.32-.12.06L454,79.87l.82-.34-5.65-13.89Zm-4.36,1.86-.7.32-.21.09,6.24,13.64.81-.37L444.78,67.5Zm-4.29,2-.16.08h0l-.06,0h0l0,0h0l0,0h0l0,0h0l-.49.24h0l6.72,13.41.79-.39-6.62-13.46Zm-4.21,2.16-.66.36h0l0,0-.18.1,7.19,13.16.78-.42-7.09-13.22ZM432.14,74l-.3.18h0l0,0h0l0,0h0l0,0h0l-.38.22,7.65,12.91c.25-.16.51-.31.76-.45l-7.55-13Zm-4.05,2.46-.55.35h0l-.25.17,8.09,12.63.75-.48-8-12.69Zm-4,2.6-.83.56L431.83,92l.74-.5-8.44-12.4Zm-3.88,2.73-.16.13-.64.47,9,12,.71-.53-8.87-12.1Zm-3.77,2.87-.24.19,0,0h0l-.39.31h0l0,0,0,0h0l0,0L425.07,97l.7-.56-9.29-11.78Zm-3.67,3-.32.28-.44.37,9.78,11.38c.22-.2.45-.39.68-.58l-9.7-11.45Zm-3.56,3.13-.09.08h0l0,0-.62.57,10.17,11,.66-.6-10.09-11.1ZM405.8,94l-.1.1,0,0h0a1.37,1.37,0,0,0-.17.17h0l0,0-.37.36,10.55,10.67c.21-.21.42-.42.64-.62L405.8,94Zm-3.34,3.37c-.15.16-.31.32-.46.49s-.15.16-.23.23l10.91,10.3.62-.65L402.46,97.39Zm-3.22,3.48-.14.16-.38.43h0l0,0,0,0h0l-.08.09,11.27,9.9.59-.66-11.2-10Zm-3.09,3.59-.45.55h0l0,0-.16.18,11.61,9.51.56-.69-11.53-9.59Zm-3,3.7a1.25,1.25,0,0,0-.15.19l0,0v0c-.15.18-.29.37-.43.56L404.5,118c.18-.23.36-.47.55-.7l-11.86-9.18ZM390.35,112l-.41.58,0,0v0l-.14.2L402,121.44l.51-.72L390.35,112Zm-2.7,3.9,0,.06-.3.45v0l0,0-.18.28,12.53,8.24.49-.74-12.47-8.33Zm-2.56,4-.26.42,0,0h0c-.06.11-.12.2-.18.3h0l0,0,0,0,12.82,7.79.46-.76-12.75-7.89Zm-2.42,4.08-.5.87,13.08,7.34c.15-.26.3-.52.44-.78l-13-7.43Zm-2.28,4.16c-.05.09-.1.17-.14.26v0l-.3.57,13.33,6.88.41-.79-13.28-7Zm-2.13,4.23c-.09.2-.19.39-.28.59h0l0,0v0l0,0h0l0,.07v0l0,0v.08h0l13.57,6.4c.12-.27.25-.53.38-.8l-13.52-6.5Zm-2,4.31c-.13.3-.26.61-.4.91l13.79,5.92c.11-.27.23-.54.35-.81l-13.74-6ZM374.46,141c0,.06,0,.11-.07.17v0l-.29.72,14,5.43c.1-.28.21-.55.32-.83L374.46,141Zm-1.67,4.44s0,.09-.05.14c-.1.26-.19.53-.28.8l14.16,4.93.3-.84-14.13-5Zm-1.51,4.49-.27.86v.09h0l14.33,4.43.27-.85-14.3-4.53Zm-1.35,4.54-.15.54v0l-.11.38,14.48,3.92.24-.86-14.45-4ZM368.74,159l-.12.48c0,.17-.08.33-.11.49l14.61,3.4c.06-.29.13-.58.2-.86L368.74,159Zm-1,4.62-.07.36v0h0c0,.17-.06.33-.1.5v.11l14.72,2.88.18-.87-14.7-3Zm-.86,4.66c-.06.33-.11.66-.16,1l14.81,2.36c0-.29.09-.58.14-.87l-14.79-2.48Zm-.7,4.69-.09.68h0c0,.1,0,.2,0,.3l14.89,1.84c0-.29.07-.59.11-.88l-14.87-2Zm-.54,4.71c0,.21,0,.41-.05.62h0v0l0,.34L380.46,180l.09-.88-14.94-1.43Zm-.36,4.72-.06,1,15,.8c0-.3,0-.59.05-.89l-15-.91Zm-.21,4.74c0,.15,0,.29,0,.43h0v0c0,.18,0,.36,0,.54l15,.28c0-.3,0-.6,0-.89l-15-.39Zm15,4.61-15,.13c0,.23,0,.48,0,.71v.29l15-.24c0-.29,0-.59,0-.89Zm.11,4.22-15,.65c0,.33,0,.67.05,1l15-.76c0-.3,0-.59,0-.89Zm.25,4.21-14.95,1.17c0,.33,0,.67.08,1l14.95-1.28c0-.3-.05-.59-.08-.89Zm.41,4.2-14.91,1.69h0c0,.29.07.58.1.86v.1h0v0l14.89-1.8c0-.29-.07-.59-.1-.88Zm.54,4.17-14.83,2.22.15,1,14.82-2.33c-.05-.29-.09-.58-.14-.88Zm.7,4.16-14.75,2.73c0,.18.07.37.1.55l.09.43,14.72-2.84c-.05-.29-.11-.58-.16-.87Zm.84,4.12-14.64,3.25a1.06,1.06,0,0,0,0,.19h0v.09h0l.05.25h0v.07h0l.09.36L383,217.74c-.06-.29-.13-.58-.19-.87Zm1,4.1-14.52,3.76c.09.33.17.65.26,1l14.49-3.88c-.08-.28-.15-.57-.23-.85ZM385,225l-14.37,4.28c.09.32.19.64.28,1l14.35-4.39c-.09-.28-.17-.57-.26-.85Zm1.27,4L372,233.82a.76.76,0,0,0,0,.11v0l.27.78,14.18-4.89-.29-.84Zm1.42,4-14,5.28.35.93,14-5.38c-.1-.28-.21-.56-.31-.83Zm1.55,3.91-13.84,5.78c.12.3.25.61.39.92l13.79-5.88c-.11-.28-.23-.55-.34-.82Zm1.69,3.85L377.26,247l.28.61.14.29,13.58-6.36-.37-.81Zm1.82,3.8-13.4,6.74c.08.14.15.29.23.44v.09l0,0h0l.17.32,13.35-6.84-.41-.79Zm2,3.73-13.15,7.2.28.52v0l.18.32,13.1-7.31-.43-.77Zm2.09,3.65-12.89,7.67h0l0,0h0l.36.6.12.2,12.84-7.76-.46-.77Zm2.22,3.59-12.62,8.11.18.28h0l0,0c.12.17.23.34.34.52h0l12.56-8.21-.48-.74Zm2.34,3.5L389,267.58l.57.82,12.27-8.64c-.18-.24-.35-.49-.51-.73Zm2.46,3.42-12,9,.14.19,0,0h0l.42.57,11.95-9.07c-.18-.23-.35-.47-.53-.71Zm2.58,3.33-11.7,9.39.14.17h0l0,0h0l.09.12h0l0,0h0l0,0h0l0,0,.07.09h0l.2.24,11.63-9.47c-.19-.23-.38-.46-.56-.7Zm2.69,3.24-11.36,9.8.13.15.53.6,11.29-9.87-.59-.68Zm2.81,3.15-11,10.18.68.73,10.94-10.26-.61-.65Zm2.92,3-10.65,10.57.7.7h0l10.58-10.64-.63-.63Zm3,3-10.28,10.92.2.19,0,0h0l.5.46,10.2-11-.65-.6Zm3.12,2.83L411,292.27l.39.34h0v0l.33.29,9.81-11.36-.67-.58Zm3.22,2.72-9.49,11.62.77.63,9.41-11.69-.69-.56Zm3.31,2.61-9.08,11.94h0l.24.18h0l0,0,.51.39,9-12-.71-.54Zm3.4,2.49-8.66,12.26.61.42.21.15,8.56-12.32q-.36-.24-.72-.51Zm3.48,2.38-8.22,12.54.1.07.74.48,8.12-12.61-.74-.48Zm3.56,2.24-7.77,12.83.34.21h0l.48.28,7.67-12.88-.76-.46Zm3.64,2.12-7.32,13.09.72.4.16.09L442.31,296l-.78-.43Zm3.71,2-6.85,13.34.89.46,6.76-13.4-.8-.4ZM449,299.4,442.64,313l.2.09h0l.67.31,6.28-13.63-.81-.37Zm3.84,1.72L447,314.91l.38.17h0l.51.21,5.79-13.83-.82-.35Zm3.9,1.59-5.4,14h0l.91.35,5.3-14-.83-.32Zm3.95,1.45-4.9,14.17.52.18h0l.23.08h0l0,0,.11,0,4.8-14.21-.84-.28Zm4,1.3-4.41,14.34.57.17H461l.29.09h0l4.3-14.37-.85-.26Zm4,1.17-3.89,14.48,1,.26,3.79-14.52-.86-.22Zm4.08,1-3.38,14.61.18,0H470l.48.11,3.27-14.64-.87-.19Zm4.12.87-2.86,14.73,1,.18,2.75-14.74-.87-.17Zm4.15.73-2.34,14.82.3.05.46.07.23,0L482,309.39l-.88-.14Zm4.17.59-1.82,14.89.31,0h0l.64.07,1.71-14.9-.88-.1Zm4.19.43-1.3,15,.25,0h0l.72.06,1.19-14.95-.89-.08Zm4.21.29-.78,15,1,0,.67-15-.89-.05Zm4.21.15-.25,15h1l.15-15Zm5.12,0-.89,0,.26,15,1,0-.37-15Zm4.22-.18-.89.05.78,15h0l.42,0h.1l.36,0h.11l-.89-15Zm4.2-.32-.88.08,1.3,14.94q.49,0,1-.09l-1.41-14.93Zm4.19-.47-.88.11,1.82,14.89.18,0h0l.76-.09-1.93-14.88Zm4.17-.61-.88.14,2.34,14.81.19,0,.55-.09h0l.21,0-2.45-14.79Zm4.14-.77-.87.18,2.86,14.72.14,0h.05l.54-.1h.05l.2,0-3-14.71Zm4.11-.9-.87.2,3.38,14.61.24-.05h.05l.69-.16L528,307.44Zm4.07-1.05-.85.23,3.89,14.48.64-.17h.12l.21-.06-4-14.45Zm4-1.2-.85.26,4.41,14.34.95-.29-4.51-14.31Zm4-1.34-.84.3,4.91,14.17.12,0h0l0,0h0l.73-.26-5-14.14Zm3.94-1.47-.83.32,5.41,14,.93-.36-5.51-13.95Zm3.88-1.62-.81.35,5.9,13.79.81-.35.11,0-6-13.75Zm3.83-1.75-.8.38L557.37,313l.55-.26h0l.33-.16L551.79,299Zm3.77-1.89-.79.41,6.86,13.34.43-.22h0l0,0,.41-.21-7-13.29Zm3.69-2-.77.44,7.32,13.09.64-.36h0l.2-.12-7.42-13Zm3.63-2.15-.76.47,7.78,12.82.37-.22h0l0,0,.44-.27L562.88,293Zm3.54-2.27-.74.49,8.23,12.55.12-.09h0l0,0h0l0,0h0l.05,0h0l0,0h0l.47-.3h0l-8.32-12.48Zm3.47-2.4-.72.52,8.65,12.25.23-.16,0,0h0l.55-.39-8.75-12.19Zm3.38-2.51-.71.54,9.09,11.94.13-.11.66-.5-9.17-11.87Zm3.29-2.64-.69.57,9.5,11.61,0,0,.7-.57,0,0-9.58-11.55Zm3.2-2.75-.67.59L589,292.25l.14-.12h0l0,0,.58-.51-10-11.21Zm3.1-2.85-.65.61,10.28,10.92.73-.69-10.36-10.84Zm3-3-.62.64,10.65,10.55.71-.71-10.74-10.48Zm2.9-3.07-.6.66,11,10.18.11-.11v0l0,0,0,0h0c.12-.14.25-.27.37-.4l.14-.16-11.09-10.1Zm2.78-3.16c-.19.22-.38.45-.58.67l11.37,9.79L603,278l-11.44-9.7Zm2.67-3.26-.55.69,11.7,9.39.11-.15h0l0,0h0l0,0h0l0,0h0l0,0h0l.35-.43-11.77-9.3Zm2.56-3.35c-.18.23-.36.47-.53.71l12,9,.11-.15h0l0,0,0,0h0l.42-.57-12.08-8.88Zm2.43-3.44-.5.73L611,267.56l.55-.81v0l-12.39-8.45Zm2.32-3.52-.48.75,12.62,8.1.05-.07h0l0,0,.43-.67v0h0l0,0-12.68-8Zm2.18-3.6c-.14.25-.29.51-.45.76l12.9,7.66,0,0,0,0h0l.46-.78-13-7.56Zm2.06-3.68-.42.78,13.16,7.21.16-.3v0c.1-.18.2-.36.29-.54l-13.21-7.11Zm1.93-3.74-.39.79,13.4,6.74.45-.89-13.46-6.64Zm1.8-3.81c-.12.27-.24.54-.37.81L622.74,247l.42-.91-13.68-6.16Zm1.66-3.87c-.11.28-.22.55-.34.82l13.85,5.78.21-.51c0-.14.11-.28.17-.42l-13.89-5.67Zm1.52-3.92c-.1.28-.2.55-.31.83l14,5.28.12-.32v-.05h0v-.05h0c.07-.17.13-.34.19-.5l-14.08-5.18Zm1.38-4c-.09.28-.18.57-.28.85L628,233.79a.3.3,0,0,1,0-.1h0v-.08l0,0h0l.06-.18h0l0-.05h0l0-.05h0v0c0-.13.09-.25.13-.38L614,228.16Zm1.24-4c-.08.29-.16.57-.25.85l14.38,4.28c.06-.19.11-.38.17-.56v-.05l0,0h0a1.55,1.55,0,0,1,.07-.23v-.07l-14.41-4.17Zm1.1-4.06c-.07.29-.14.57-.22.86l14.52,3.76v0h0v0l.09-.35h0l0-.06h0v-.06h0v-.05h0V224h0c0-.1,0-.21.08-.31l-14.55-3.65Zm1-4.1c-.07.29-.13.58-.19.87l14.64,3.25c0-.19.08-.38.13-.57h0v0a.43.43,0,0,1,0-.11v-.05l0-.2L617.34,216Zm.8-4.13-.15.87,14.75,2.73,0-.11v0h0l.15-.83-14.77-2.62Zm.67-4.16c0,.29-.09.59-.13.88l14.84,2.21c0-.33.09-.65.14-1h0l-14.85-2.1Zm.51-4.18-.09.88,14.9,1.69c0-.16,0-.32,0-.47v0c0-.16,0-.32,0-.49l-14.92-1.57Zm.37-4.2-.06.89,15,1.16,0-.33v0h0c0-.19,0-.39,0-.59v0l-15-1.05Zm.23-4.21c0,.29,0,.59,0,.89l15,.64v-.2h0l0-.8-15-.53Zm.07-4.23v.9l15,.12v-1l-15,0Zm14.93-4.72-15,.5c0,.3,0,.59,0,.89l15-.39v-.37h0v-.09c0-.18,0-.35,0-.53Zm-.24-4.73-15,1,.06.88,15-.9c0-.22,0-.44,0-.66v0h0c0-.1,0-.2,0-.3Zm-.41-4.72-14.92,1.54.09.88,14.93-1.43c0-.33-.06-.66-.1-1ZM633.7,172l-14.85,2.06.12.88,14.87-2c0-.16,0-.32-.07-.48v0h0l-.06-.45v0Zm-.73-4.68-14.78,2.58c.06.3.11.59.15.88l14.8-2.48c-.06-.32-.11-.65-.17-1Zm-.9-4.65-14.67,3.1.18.87,14.69-3,0-.12-.18-.86ZM631,158l-14.56,3.62.21.86L631.25,159c0-.19-.1-.38-.14-.58s-.07-.26-.1-.39Zm-1.23-4.58-14.42,4.13c.09.29.17.57.25.86l14.45-4,0-.11,0,0h0c-.07-.27-.15-.54-.23-.81Zm-1.38-4.53-14.27,4.64c.1.28.19.56.28.84l14.29-4.53-.15-.48-.15-.47Zm-1.55-4.48-14.09,5.14.3.84,14.13-5c-.06-.17-.11-.33-.17-.49v-.05l-.15-.4Zm-1.7-4.43-13.9,5.64.33.83L625.52,141a2.44,2.44,0,0,0-.1-.24v-.05a.49.49,0,0,0,0-.11h0l0,0v-.08l0,0h0c0-.11-.09-.23-.14-.35Zm-1.86-4.36-13.69,6.13.36.81,13.74-6a1.42,1.42,0,0,1-.08-.18l-.33-.74Zm-2-4.29L607.81,138l.39.8,13.52-6.51c0-.07-.07-.14-.11-.22h0l0,0h0l0-.05h0l-.27-.56Zm-2.16-4.21-13.23,7.07.42.78,13.28-7-.06-.11h0l0,0-.39-.74ZM616.81,123l-13,7.53c.15.26.3.51.44.77l13-7.44-.48-.83h0l0,0ZM614.36,119l-12.7,8c.16.25.32.5.47.75l12.76-7.89-.45-.71v0h0l-.06-.1Zm-2.59-4-12.41,8.43.49.74,12.47-8.34-.27-.41h0l0,0,0,0h0l-.13-.2h0l0,0,0,0h0l0-.06ZM609,111.12,596.93,120l.52.72,12.17-8.76-.2-.28,0,0h0l-.36-.5Zm-2.87-3.78-11.79,9.28c.18.23.37.46.55.7l11.86-9.19,0,0h0l-.57-.74Zm-3-3.67-11.46,9.68.57.68,11.53-9.59c-.15-.19-.31-.37-.46-.55h0l0,0,0,0,0,0a1.34,1.34,0,0,0-.11-.14Zm-3.12-3.57-11.12,10.08.6.66,11.19-10c-.17-.19-.34-.37-.5-.56l0,0,0,0-.13-.15Zm-3.25-3.45L586.06,107.1c.2.22.41.43.61.64l10.84-10.37-.7-.72Zm-3.36-3.34-10.38,10.82.64.62L594.17,94h0l0,0h0c-.07-.07-.14-.15-.22-.22h0l0,0,0,0h0l0,0h0l-.18-.18h0l0,0-.13-.12ZM590,90.09l-10,11.18.66.59,10.09-11.1,0,0h0l0,0,0,0h0l-.55-.5h0l0,0v0h0l0,0ZM586.39,87l-9.61,11.52.68.57,9.69-11.45L587,87.5l-.61-.51Zm-3.69-3-9.2,11.85.7.55,9.28-11.79-.49-.39L582.7,84Zm-3.8-2.84-8.78,12.16.72.53,8.87-12.1-.16-.12-.54-.4-.11-.07ZM575,78.47l-8.34,12.47.73.49L575.84,79l-.08,0-.61-.42h0l0,0h0l0,0Zm-4-2.56-7.91,12.74.76.48,8-12.69-.19-.12h0l0,0h0q-.29-.19-.57-.36ZM567,73.48l-7.46,13,.77.44,7.55-13-.45-.26h0l0,0-.37-.21ZM562.8,71.2l-7,13.27.79.42,7.09-13.22-.11-.06-.78-.41Zm-4.23-2.14-6.52,13.51.8.39,6.62-13.46-.07,0-.38-.19h0l-.41-.2Zm-4.3-2-6,13.73.81.36,6.14-13.68-.52-.23-.39-.18Zm-4.38-1.83-5.54,13.94.82.33,5.65-13.9-.05,0h0l-.84-.34Zm-4.43-1.67L540.41,77.7l.84.3,5.15-14.08,0,0-.62-.22h0l-.11,0h-.12ZM541,62.06l-4.55,14.29.85.28,4.65-14.26-.95-.31Zm-4.54-1.36-4,14.45.86.24L537.39,61l-.19-.06-.77-.22Zm-4.59-1.19-3.52,14.58.86.21,3.63-14.55-.89-.22h-.08Zm-4.62-1-3,14.69.87.18,3.12-14.67-.31-.06h-.08l-.59-.12Zm-4.66-.87L520.07,72.4l.88.15,2.59-14.77-.21,0h-.16l-.12,0h-.25l-.24,0Zm-4.69-.71-2,14.87.88.12L518.86,57l-.59-.08-.4-.06Zm-4.71-.54-1.44,14.93.88.09,1.56-14.92-.5-.05h-.09l-.36,0ZM508.44,56l-.92,15,.88.06,1-15-.33,0h-.05l-.49,0h-.13Zm-4.73-.21-.41,15,.89,0,.52-15-1,0Z"/><path class="cls-1" d="M544.07,372.37,372.37,544.06c.29.84.59,1.68.89,2.51L546.57,373.26C545.74,373,544.91,372.65,544.07,372.37Z"/><path class="cls-1" d="M592.14,401.34l-190.8,190.8,1.66,1.74L593.88,403C593.31,402.44,592.73,401.89,592.14,401.34Z"/><path class="cls-1" d="M595.46,404.54c-.28-.29-.57-.56-.86-.84L403.7,594.59l.84.87c.29.28.58.55.86.84L596.3,405.4Z"/><path class="cls-1" d="M488.32,365.51,365.51,488.32c-.1,1.22-.19,2.44-.26,3.67L492,365.24C490.77,365.31,489.55,365.4,488.32,365.51Z"/><path class="cls-1" d="M554.45,376.43l-178,178c.35.79.7,1.57,1.06,2.35L556.8,377.49C556,377.12,555.23,376.78,554.45,376.43Z"/><path class="cls-1" d="M557.75,377.94,378,557.75c.36.77.72,1.53,1.1,2.29l181-181C559.29,378.67,558.52,378.31,557.75,377.94Z"/><path class="cls-1" d="M493.49,365.15,365.16,493.49c-.06,1.17-.1,2.35-.12,3.52L497,365C495.84,365.06,494.67,365.1,493.49,365.15Z"/><path class="cls-1" d="M498.45,365,365,498.44c0,1.14,0,2.27,0,3.4L501.85,365C500.71,365,499.58,365,498.45,365Z"/><path class="cls-1" d="M589.62,399,399.05,589.62c.53.6,1.07,1.19,1.61,1.78L591.41,400.66C590.82,400.11,590.22,399.58,589.62,399Z"/><path class="cls-1" d="M540.44,371.18,371.18,540.44c.27.86.55,1.71.83,2.57L543,372C542.16,371.72,541.3,371.45,540.44,371.18Z"/><path class="cls-1" d="M608.09,419.1l-189,189,1.95,1.45L609.53,421.06C609.06,420.4,608.58,419.75,608.09,419.1Z"/><path class="cls-1" d="M477.29,366.91,366.91,477.29c-.22,1.33-.42,2.67-.61,4l115-115C480,366.48,478.63,366.68,477.29,366.91Z"/><path class="cls-1" d="M606,416.38,416.39,606l1.91,1.49L607.48,418.3C607,417.65,606.49,417,606,416.38Z"/><path class="cls-1" d="M547.61,373.64l-174,174c.31.82.63,1.63,1,2.44L550.06,374.59Z"/><path class="cls-1" d="M610.12,421.88,421.89,610.12c.66.47,1.33.94,2,1.39L611.52,423.89Z"/><path class="cls-1" d="M599.34,408.59,408.59,599.33c.6.55,1.19,1.09,1.79,1.62L601,410.37Z"/><path class="cls-1" d="M482.94,366.08,366.08,482.93c-.16,1.28-.31,2.56-.43,3.84L486.77,365.65C485.49,365.77,484.21,365.92,482.94,366.08Z"/><path class="cls-1" d="M601.62,411.13,411.13,601.61c.61.53,1.21,1.06,1.83,1.58L603.19,413C602.67,412.34,602.15,411.73,601.62,411.13Z"/><path class="cls-1" d="M603.83,413.72,413.73,603.83c.62.52,1.24,1,1.87,1.53L605.37,415.59C604.86,415,604.35,414.34,603.83,413.72Z"/><path class="cls-1" d="M578.94,390.47,390.47,578.93c.47.66,1,1.31,1.44,2l189-189C580.25,391.42,579.59,390.94,578.94,390.47Z"/><path class="cls-1" d="M532.93,369.06,369.06,532.92c.23.9.46,1.8.71,2.7L535.63,369.76Z"/><path class="cls-1" d="M520.91,366.63,366.63,520.91c.15,1,.31,1.94.49,2.91L523.83,367.11C522.86,366.94,521.89,366.78,520.91,366.63Z"/><path class="cls-1" d="M567.24,382.9,382.91,567.23c.41.72.83,1.44,1.26,2.15L569.38,384.16C568.67,383.73,568,383.32,567.24,382.9Z"/><path class="cls-1" d="M516.69,366,366,516.69c.12,1,.25,2,.4,3L519.69,366.44C518.69,366.29,517.69,366.16,516.69,366Z"/><path class="cls-1" d="M576.11,388.48,388.48,576.11c.46.67.93,1.33,1.4,2L578.11,389.88C577.45,389.4,576.78,388.94,576.11,388.48Z"/><path class="cls-1" d="M525,367.33,367.33,525c.18,1,.37,1.89.57,2.84l160-160C526.92,367.7,526,367.51,525,367.33Z"/><path class="cls-1" d="M570.26,384.7,384.7,570.26c.43.7.86,1.4,1.31,2.09L572.36,386C571.66,385.56,571,385.12,570.26,384.7Z"/><path class="cls-1" d="M573.22,386.55,386.56,573.21c.44.69.89,1.37,1.35,2L575.27,387.91Z"/><path class="cls-1" d="M529,368.14,368.14,529c.21.92.42,1.84.64,2.76l163-163C530.88,368.56,530,368.34,529,368.14Z"/><path class="cls-1" d="M564.15,381.18l-183,183c.4.73.8,1.47,1.21,2.19l184-183.94Z"/><path class="cls-1" d="M561,379.53,379.53,561c.38.75.76,1.5,1.16,2.24L563.23,380.68Z"/><path class="cls-1" d="M584.4,394.63,394.64,584.4c.5.63,1,1.25,1.53,1.87l190.1-190.11C585.65,395.65,585,395.13,584.4,394.63Z"/><path class="cls-1" d="M503.24,365,365,503.24c0,1.09.07,2.19.12,3.28L506.53,365.15C505.43,365.1,504.34,365.06,503.24,365Z"/><path class="cls-1" d="M507.86,365.23,365.24,507.86c.06,1.06.13,2.12.22,3.18L511,365.46C510,365.37,508.92,365.3,507.86,365.23Z"/><path class="cls-1" d="M587,396.81,396.81,587l1.57,1.83L588.87,398.38C588.26,397.85,587.66,397.32,587,396.81Z"/><path class="cls-1" d="M512.34,365.56,365.57,512.34c.09,1,.2,2.06.32,3.08L515.43,365.88Z"/><path class="cls-1" d="M612.09,424.73,424.73,612.09l2,1.35L613.44,426.78C613,426.09,612.55,425.41,612.09,424.73Z"/><path class="cls-1" d="M536.73,370.07,370.08,536.72c.25.88.5,1.76.77,2.64L539.36,370.84Z"/><path class="cls-1" d="M581.7,392.52,392.52,581.7c.49.64,1,1.28,1.49,1.91L583.62,394Z"/><path class="cls-1" d="M597,406.11,406.12,597c.58.56,1.16,1.12,1.74,1.66l190.8-190.79C598.11,407.27,597.56,406.69,597,406.11Z"/><path class="cls-1" d="M450.61,374.33,374.33,450.6q-1.05,2.68-2,5.39L456,372.34Q453.29,373.29,450.61,374.33Z"/><path class="cls-1" d="M633.56,480.31,480.31,633.56c1,.14,2,.28,3,.4L634,483.3C633.84,482.3,633.71,481.3,633.56,480.31Z"/><path class="cls-1" d="M634.11,484.57,484.57,634.11c1,.12,2.06.22,3.09.32L634.43,487.65C634.34,486.62,634.23,485.6,634.11,484.57Z"/><path class="cls-1" d="M627.65,544,544,627.65c1.81-.62,3.61-1.29,5.39-2l76.28-76.27C626.37,547.6,627,545.81,627.65,544Z"/><path class="cls-1" d="M634.54,489,489,634.54c1.06.08,2.12.16,3.18.22L634.76,492.14C634.7,491.08,634.63,490,634.54,489Z"/><path class="cls-1" d="M632.88,476.17,476.17,632.88l2.92.49L633.37,479.08C633.22,478.11,633.06,477.14,632.88,476.17Z"/><path class="cls-1" d="M634.84,493.47,493.48,634.84c1.09,0,2.18.09,3.28.12L635,496.75C634.94,495.66,634.9,494.56,634.84,493.47Z"/><path class="cls-1" d="M624.71,551.76l-73,73q3.09-1.28,6.12-2.72L622,557.88C623,555.86,623.86,553.81,624.71,551.76Z"/><path class="cls-1" d="M631.22,468.2l-163,163,2.76.63L631.86,471C631.66,470,631.44,469.12,631.22,468.2Z"/><path class="cls-1" d="M632.1,472.14l-160,160c.94.2,1.89.39,2.84.56L632.67,475C632.49,474,632.3,473.08,632.1,472.14Z"/><path class="cls-1" d="M442.12,378,378,442.12q-1.44,3-2.72,6.12l72.95-73C446.18,376.14,444.14,377,442.12,378Z"/><path class="cls-1" d="M632.77,524.43,524.44,632.77c1.42-.26,2.83-.54,4.24-.84L631.93,528.68C632.24,527.27,632.51,525.85,632.77,524.43Z"/><path class="cls-1" d="M634.35,513.22,513.23,634.35c1.28-.13,2.56-.28,3.84-.44L633.92,517.06C634.08,515.78,634.23,514.51,634.35,513.22Z"/><path class="cls-1" d="M614,427.64,427.64,614l2.1,1.31L615.3,429.74C614.87,429,614.44,428.34,614,427.64Z"/><path class="cls-1" d="M634.75,508,508,634.75c1.22-.07,2.45-.16,3.67-.27L634.49,511.67C634.59,510.45,634.68,509.23,634.75,508Z"/><path class="cls-1" d="M633.7,518.69l-115,115c1.35-.19,2.69-.39,4-.62L633.09,522.71C633.31,521.37,633.51,520,633.7,518.69Z"/><path class="cls-1" d="M631.52,530.51l-101,101c1.51-.35,3-.72,4.52-1.12L630.4,535C630.8,533.53,631.17,532,631.52,530.51Z"/><path class="cls-1" d="M431.92,383.39l-48.53,48.52q-2.14,3.68-4,7.44l60-60C436.84,380.62,434.36,382,431.92,383.39Z"/><path class="cls-1" d="M635,498.15,498.16,635c1.13,0,2.26,0,3.39,0L635,501.55C635,500.42,635,499.28,635,498.15Z"/><path class="cls-1" d="M635,503,503,635c1.18,0,2.35-.06,3.53-.12L634.84,506.5C634.9,505.33,634.94,504.16,635,503Z"/><path class="cls-1" d="M416.88,393.61l-23.26,23.27a132.23,132.23,0,0,0-8.06,11.45l42.78-42.77A134.47,134.47,0,0,0,416.88,393.61Z"/><path class="cls-1" d="M629.85,537,537,629.84c1.63-.46,3.26-1,4.87-1.48l86.5-86.49C628.9,540.25,629.38,538.62,629.85,537Z"/><path class="cls-1" d="M624,446.53,446.54,624c.79.35,1.59.68,2.39,1L625,448.93C624.68,448.13,624.34,447.33,624,446.53Z"/><path class="cls-1" d="M621,440l-181,181c.76.38,1.53.75,2.3,1.11l179.8-179.81C621.69,441.48,621.33,440.71,621,440Z"/><path class="cls-1" d="M625.41,449.94,449.94,625.4c.82.33,1.63.65,2.45,1l174-174C626.05,451.57,625.73,450.75,625.41,449.94Z"/><path class="cls-1" d="M619.31,436.77,436.77,619.31l2.25,1.16L620.47,439C620.09,438.26,619.71,437.51,619.31,436.77Z"/><path class="cls-1" d="M617.61,433.66,433.66,617.6c.73.42,1.46.82,2.2,1.21l183-183C618.42,435.12,618,434.39,617.61,433.66Z"/><path class="cls-1" d="M622.51,443.2,443.21,622.51c.77.36,1.56.71,2.34,1l178-178C623.22,444.76,622.87,444,622.51,443.2Z"/><path class="cls-1" d="M614.44,571.66l-42.78,42.78a134.47,134.47,0,0,0,11.46-8.05l23.27-23.28A135.93,135.93,0,0,0,614.44,571.66Z"/><path class="cls-1" d="M630.24,464.37,464.38,630.23c.89.25,1.79.48,2.69.7L630.94,467.07C630.71,466.17,630.48,465.27,630.24,464.37Z"/><path class="cls-1" d="M465,369.6,369.6,465c-.4,1.51-.77,3-1.12,4.53l101-101C468,368.83,466.47,369.2,465,369.6Z"/><path class="cls-1" d="M458.13,371.63l-86.5,86.49q-.78,2.43-1.48,4.88L463,370.15Q460.55,370.84,458.13,371.63Z"/><path class="cls-1" d="M629.15,460.64,460.64,629.15c.88.27,1.75.52,2.63.77L629.92,463.27C629.68,462.39,629.42,461.51,629.15,460.64Z"/><path class="cls-1" d="M471.32,368.06,368.07,471.32c-.31,1.41-.58,2.82-.84,4.24L475.56,367.22C474.15,367.48,472.73,367.76,471.32,368.06Z"/><path class="cls-1" d="M615.84,430.62,430.62,615.83c.71.43,1.43.85,2.14,1.26L617.09,432.76C616.68,432,616.26,431.33,615.84,430.62Z"/><path class="cls-1" d="M595.44,595.48l0,0,0,0Z"/><path class="cls-1" d="M626.74,453.42,453.43,626.73c.83.31,1.66.61,2.5.9l171.7-171.7C627.34,455.09,627,454.26,626.74,453.42Z"/><path class="cls-1" d="M551.07,375,375,551.07c.33.8.66,1.59,1,2.39L553.47,376Z"/><path class="cls-1" d="M628,457,457,628c.86.29,1.71.57,2.57.84L628.82,459.56C628.55,458.7,628.27,457.84,628,457Z"/><path class="cls-1" d="M620.64,560.64l-60,60q3.78-1.89,7.44-4l48.53-48.52Q618.75,564.41,620.64,560.64Z"/><path d="M629.92,463.27,463.27,629.92l1.11.31L630.24,464.37Z"/><path d="M631.86,471,471,631.85l1.17.25,160-160Z"/><path d="M463,370.15,370.15,463c-.18.66-.37,1.31-.55,2L465,369.6Z"/><path d="M627.63,455.93l-171.7,171.7L457,628,628,457Z"/><path d="M630.94,467.07,467.07,630.93l1.14.29,163-163C631.13,467.82,631,467.45,630.94,467.07Z"/><path d="M626.36,452.39l-174,174,1,.37L626.74,453.42C626.61,453.08,626.49,452.73,626.36,452.39Z"/><path d="M628.82,459.56,459.56,628.82l1.08.33L629.15,460.64Z"/><path d="M456,372.34,372.35,456q-.37,1.06-.72,2.13l86.5-86.49Z"/><path d="M448.24,375.28l-72.95,73c-.33.78-.64,1.57-1,2.36l76.28-76.27Z"/><path d="M628.37,541.87l-86.5,86.49,2.13-.71L627.65,544Q628,542.93,628.37,541.87Z"/><path d="M625.67,549.39l-76.28,76.27,2.37-.95,73-73Q625.2,550.58,625.67,549.39Z"/><path d="M630.4,535,535,630.39c.66-.17,1.31-.36,2-.55L629.85,537Z"/><path d="M428.34,385.56l-42.78,42.77c-.74,1.19-1.46,2.38-2.17,3.58l48.53-48.52C430.72,384.09,429.52,384.81,428.34,385.56Z"/><path d="M631.93,528.68,528.68,631.93l1.83-.42,101-101C631.66,529.9,631.8,529.29,631.93,528.68Z"/><path d="M632.67,475,475,632.66l1.19.22L632.88,476.17Z"/><path d="M633.09,522.71,522.71,633.08l1.73-.31L632.77,524.43C632.88,523.86,633,523.28,633.09,522.71Z"/><path d="M606.39,583.11l-23.27,23.28a138.36,138.36,0,0,0,12.32-10.91l0-.05A135.43,135.43,0,0,0,606.39,583.11Z"/><path d="M616.61,568.08,568.08,616.6c1.21-.7,2.4-1.42,3.58-2.16l42.78-42.78C615.18,570.48,615.9,569.28,616.61,568.08Z"/><path d="M404.54,404.54a135.78,135.78,0,0,0-10.92,12.34l23.26-23.27A135.9,135.9,0,0,0,404.54,404.54Z"/><path d="M622,557.88,557.88,622q1.39-.66,2.76-1.35l60-60C621.11,559.72,621.55,558.8,622,557.88Z"/><path d="M439.36,379.35l-60,60c-.46.92-.91,1.84-1.35,2.77L442.12,378Q440.73,378.66,439.36,379.35Z"/><path d="M634.43,487.65,487.66,634.43l1.3.11L634.54,489C634.51,488.52,634.47,488.09,634.43,487.65Z"/><path d="M634,483.3,483.31,634l1.26.15L634.11,484.57C634.07,484.15,634,483.73,634,483.3Z"/><path d="M633.37,479.08,479.09,633.37l1.22.19L633.56,480.31C633.5,479.9,633.43,479.49,633.37,479.08Z"/><path d="M635,496.75,496.76,635h1.4L635,498.15C635,497.69,635,497.22,635,496.75Z"/><path d="M634.76,492.14,492.14,634.76l1.34.08L634.84,493.47C634.82,493,634.79,492.58,634.76,492.14Z"/><path d="M635,501.55,501.55,635l1.43,0L635,503C635,502.5,635,502,635,501.55Z"/><path d="M634.49,511.67,511.68,634.48l1.55-.13L634.35,513.22C634.4,512.71,634.44,512.19,634.49,511.67Z"/><path d="M633.92,517.06,517.07,633.91l1.62-.21,115-115C633.78,518.15,633.85,517.6,633.92,517.06Z"/><path d="M634.84,506.5,506.51,634.84l1.5-.09L634.75,508C634.78,507.51,634.82,507,634.84,506.5Z"/><path d="M475.56,367.22,367.23,475.56c-.11.57-.22,1.15-.32,1.73L477.29,366.91Z"/><path d="M523.83,367.11,367.12,523.82l.21,1.2L525,367.33Z"/><path d="M575.27,387.91,387.91,575.26l.57.85L576.11,388.48Z"/><path d="M578.11,389.88,389.88,578.11l.59.82L578.94,390.47Z"/><path d="M519.69,366.44,366.44,519.69c.06.4.13.81.19,1.22L520.91,366.63C520.51,366.56,520.1,366.49,519.69,366.44Z"/><path d="M586.27,396.16,396.17,586.27l.64.77L587,396.81Z"/><path d="M527.86,367.9l-160,160,.24,1.17L529,368.14Z"/><path d="M511,365.46,365.46,511c0,.43.07.87.11,1.3L512.34,365.56Z"/><path d="M583.62,394,394,583.61c.21.26.41.53.63.79L584.4,394.63Z"/><path d="M515.43,365.88,365.89,515.42c0,.43.09.85.15,1.27L516.69,366Z"/><path d="M506.53,365.15,365.16,506.52c0,.45,0,.89.08,1.34L507.86,365.23Z"/><path d="M580.9,391.91l-189,189,.61.81L581.7,392.52Z"/><path d="M569.38,384.16,384.17,569.38l.53.88L570.26,384.7Z"/><path d="M572.36,386,386,572.35c.18.29.36.58.55.86L573.22,386.55Z"/><path d="M625,448.93,448.93,625l1,.4L625.41,449.94C625.27,449.6,625.14,449.26,625,448.93Z"/><path d="M556.8,377.49,377.49,556.79l.46,1,179.8-179.81C557.43,377.79,557.12,377.63,556.8,377.49Z"/><path d="M546.57,373.26,373.26,546.57l.38,1,174-174Z"/><path d="M550.06,374.59,374.6,550.05c.13.34.26.68.4,1L551.07,375Z"/><path d="M553.47,376,376,553.46c.15.33.29.66.43,1l178-178Z"/><path d="M560.05,379.05l-181,181,.48.94L561,379.53Z"/><path d="M535.63,369.76,369.77,535.62c.1.37.2.74.31,1.1L536.73,370.07Z"/><path d="M566.34,382.39l-184,183.94.52.9L567.24,382.9Z"/><path d="M563.23,380.68,380.69,563.22l.49.92,183-183Z"/><path d="M539.36,370.84,370.85,539.36l.33,1.08L540.44,371.18Z"/><path d="M531.79,368.78l-163,163c.09.38.19.76.28,1.13L532.93,369.06Z"/><path d="M543,372,372,543l.36,1,171.7-171.69C543.72,372.24,543.36,372.13,543,372Z"/><path d="M617.09,432.76,432.76,617.09l.9.51,184-183.94Z"/><path d="M613.44,426.78,426.78,613.44l.86.55L614,427.64Z"/><path d="M605.37,415.59,415.6,605.36l.79.63L606,416.38Z"/><path d="M611.52,423.89,423.89,611.51l.84.58L612.09,424.73Z"/><path d="M607.48,418.3,418.3,607.48l.81.6,189-189Z"/><path d="M609.53,421.06,421.06,609.53l.83.59L610.12,421.88Z"/><path d="M615.3,429.74,429.74,615.3l.88.53L615.84,430.62Z"/><path d="M622.05,442.24,442.25,622.05l1,.46L622.51,443.2C622.36,442.88,622.21,442.56,622.05,442.24Z"/><path d="M623.57,445.55l-178,178,1,.43L624,446.53C623.86,446.2,623.71,445.88,623.57,445.55Z"/><path d="M469.49,368.48l-101,101c-.14.61-.28,1.21-.41,1.83L471.32,368.06Z"/><path d="M620.47,439,439,620.47l.93.47L621,440Z"/><path d="M618.82,435.85l-183,183,.91.5L619.31,436.77Z"/><path d="M603.19,413,413,603.19l.77.64,190.1-190.11Z"/><path d="M492,365.24,365.25,492c0,.5-.07,1-.09,1.5L493.49,365.15Z"/><path d="M591.41,400.66,400.66,591.4c.23.25.46.49.68.74l190.8-190.8Z"/><path d="M497,365,365,497c0,.48,0,1,0,1.43L498.45,365Z"/><path d="M588.87,398.38,398.38,588.87l.67.75L589.62,399Z"/><path d="M593.88,403,403,593.88l.7.71L594.6,403.7Z"/><path d="M596.3,405.4,405.4,596.3l.72.69L597,406.11Z"/><path d="M481.31,366.3l-115,115c-.08.55-.15,1.09-.22,1.63L482.94,366.08Z"/><path d="M486.77,365.65,365.65,486.77c0,.52-.09,1-.14,1.55L488.32,365.51C487.81,365.55,487.29,365.59,486.77,365.65Z"/><path d="M601,410.37,410.38,601l.75.66L601.62,411.13C601.4,410.88,601.18,410.62,601,410.37Z"/><path d="M598.66,407.86,407.86,598.65l.73.68L599.34,408.59Z"/><path d="M501.85,365,365,501.84c0,.47,0,.93,0,1.4L503.24,365C502.78,365,502.31,365,501.85,365Z"/></g></svg>