<svg xmlns="http://www.w3.org/2000/svg" viewBox="0 0 1000 1000"><defs><style>.cls-1{fill:none;stroke:#000;stroke-miterlimit:10;stroke-width:0.2px;}.cls-2{fill-rule:evenodd;}.cls-3{opacity:0.55;}</style></defs><g id="레이어_5" data-name="레이어 5"><path d="M499.89,622a15,15,0,1,1-15,15,15,15,0,0,1,15-15m0-15a29.93,29.93,0,1,0,30,29.93,29.93,29.93,0,0,0-30-29.93Z"/><path d="M499.89,592.06A44.89,44.89,0,1,1,455,637a45,45,0,0,1,44.92-44.89m0-15A59.86,59.86,0,1,0,559.79,637a59.88,59.88,0,0,0-59.9-59.86Z"/><path d="M496.14,440.09l-56,56a59.86,59.86,0,0,1,56-56Z"/><path d="M530.32,448.25l-82,82A59.62,59.62,0,0,1,442,515.32L515.4,442A59.65,59.65,0,0,1,530.32,448.25Z"/><path d="M551.5,469.41l-82,82a60.72,60.72,0,0,1-11.92-9.25l84.7-84.65A60,60,0,0,1,551.5,469.41Z"/><path d="M559.67,503.57l-56,56a60,60,0,0,1-19.27-1.91l73.38-73.33A60.48,60.48,0,0,1,559.67,503.57Z"/><path d="M556.4,342.67l-14.06,5.12A44.81,44.81,0,0,1,545,363.15h15A59.68,59.68,0,0,0,556.4,342.67Z"/><path d="M556.4,383.63a59.67,59.67,0,0,1-10.41,18L534.52,392a44.64,44.64,0,0,0,7.82-13.5Z"/><path d="M492.3,407.37l-2.59,14.74A59.44,59.44,0,0,1,470.16,415l7.48-12.94A44.36,44.36,0,0,0,492.3,407.37Z"/><path d="M465.69,392l-11.46,9.62a59.66,59.66,0,0,1-10.42-18l14.07-5.12A44.41,44.41,0,0,0,465.69,392Z"/><path d="M457.87,347.79a45,45,0,0,0-2.68,15.36h-15a59.68,59.68,0,0,1,3.6-20.48Z"/><path d="M477.64,324.26a44.86,44.86,0,0,0-9.3,7.15c-.93.93-1.81,1.89-2.65,2.88l-11.46-9.61a59.78,59.78,0,0,1,15.93-13.37Z"/><path d="M546,324.68l-11.47,9.62c-.84-1-1.72-2-2.65-2.89a44.81,44.81,0,0,0-9.29-7.15l7.48-12.95A60.09,60.09,0,0,1,546,324.68Z"/><path class="cls-1" d="M530.06,415a59.61,59.61,0,0,1-19.55,7.12l-2.6-14.74a44.41,44.41,0,0,0,14.67-5.32Z"/><path class="cls-2" d="M530.06,415a59.61,59.61,0,0,1-19.55,7.12l-2.6-14.74a44.41,44.41,0,0,0,14.67-5.32Z"/><path class="cls-1" d="M510.51,304.2l-2.6,14.73a45.8,45.8,0,0,0-15.61,0l-2.59-14.73a60.54,60.54,0,0,1,20.8,0Z"/><path class="cls-2" d="M510.51,304.2l-2.6,14.73a45.8,45.8,0,0,0-15.61,0l-2.59-14.73a60.54,60.54,0,0,1,20.8,0Z"/></g></svg>