<svg xmlns="http://www.w3.org/2000/svg" viewBox="0 0 1000 1000"><defs><style>.cls-1{opacity:0.55;}</style></defs><g id="레이어_5" data-name="레이어 5"><path d="M500,674.27a135,135,0,1,0,135,135A135,135,0,0,0,500,674.27Zm0,255a120,120,0,1,1,120-120A120,120,0,0,1,500,929.27Z"/><path d="M500,704.27a105,105,0,1,0,105,105A105,105,0,0,0,500,704.27Zm0,195a90,90,0,1,1,90-90A90,90,0,0,1,500,899.27Z"/><path d="M500,734.27a75,75,0,1,0,75,75A75,75,0,0,0,500,734.27Zm0,135a60,60,0,1,1,60-60A60,60,0,0,1,500,869.27Z"/><path d="M500,764.27a45,45,0,1,0,45,45A45,45,0,0,0,500,764.27Zm0,75a30,30,0,1,1,30-30A30,30,0,0,1,500,839.27Z"/><path d="M488.23,56.25l1.31,14.94a120.8,120.8,0,0,1,20.92,0l1.31-14.94A135.09,135.09,0,0,0,488.23,56.25Z"/><path d="M442.93,68.35,449.27,82a119.37,119.37,0,0,1,19.67-7.14l-3.88-14.49A134.65,134.65,0,0,0,442.93,68.35Z"/><path d="M431.16,92.42l-8.6-12.29a136.16,136.16,0,0,0-18,15.14l10.61,10.61A120,120,0,0,1,431.16,92.42Z"/><path d="M377.64,133.67,391.23,140a120.63,120.63,0,0,1,10.48-18.11l-12.29-8.6A134.66,134.66,0,0,0,377.64,133.67Z"/><path d="M384.06,159.66l-14.49-3.88A134,134,0,0,0,365.5,179l14.94,1.31A120.39,120.39,0,0,1,384.06,159.66Z"/><path d="M557.06,68.37A134.49,134.49,0,0,0,535,60.3l-3.89,14.49A119.2,119.2,0,0,1,550.72,82Z"/><path d="M595.45,95.27a135.64,135.64,0,0,0-18-15.12l-8.6,12.29a120.19,120.19,0,0,1,16,13.44Z"/><path d="M622.38,133.66a135.11,135.11,0,0,0-11.78-20.37l-12.29,8.6A120.31,120.31,0,0,1,608.78,140Z"/><path d="M619.54,180.27,634.48,179a136.47,136.47,0,0,0-4.07-23.18l-14.49,3.89A120.85,120.85,0,0,1,619.54,180.27Z"/><path d="M380.46,201.19l-14.94,1.3a136.3,136.3,0,0,0,4.07,23.18l14.49-3.88A120.85,120.85,0,0,1,380.46,201.19Z"/><path d="M377.62,247.79a135.21,135.21,0,0,0,11.78,20.38l12.29-8.61a118.49,118.49,0,0,1-10.47-18.11Z"/><path d="M404.54,286.18a135.68,135.68,0,0,0,18,15.13l8.6-12.29a121.07,121.07,0,0,1-16-13.44Z"/><path d="M442.94,313.09a134.16,134.16,0,0,0,22.11,8.07l3.88-14.5a119.39,119.39,0,0,1-19.65-7.16Z"/><path d="M619.55,201.19a118.2,118.2,0,0,1-3.62,20.6l14.5,3.89a134.92,134.92,0,0,0,4.07-23.18Z"/><path d="M598.29,259.55l12.29,8.61a134.66,134.66,0,0,0,11.78-20.37l-13.59-6.34A120.53,120.53,0,0,1,598.29,259.55Z"/><path d="M568.84,289l8.6,12.28a133.93,133.93,0,0,0,18-15.14l-10.6-10.6A121.5,121.5,0,0,1,568.84,289Z"/><path d="M531.06,306.65l3.88,14.49a134.21,134.21,0,0,0,22.12-8l-6.34-13.6A118.93,118.93,0,0,1,531.06,306.65Z"/><path d="M489.54,310.28l-1.31,15a137,137,0,0,0,23.53,0l-1.3-14.94A121.8,121.8,0,0,1,489.54,310.28Z"/><path d="M404.54,404.54a134.48,134.48,0,0,0-33.17,54.38l87.55-87.54A134.35,134.35,0,0,0,404.54,404.54Z"/><path d="M485.75,365.75l-120,120a136.19,136.19,0,0,0-.54,21.75l142.3-142.3A136.35,136.35,0,0,0,485.75,365.75Z"/><path d="M526.35,367.58,367.58,526.35A136.15,136.15,0,0,0,372,543.11L543.11,372A137.15,137.15,0,0,0,526.35,367.58Z"/><path d="M558.2,378.15,378.15,558.21a136.28,136.28,0,0,0,7.54,13.67L571.88,385.69A135.33,135.33,0,0,0,558.2,378.15Z"/><path d="M584.27,394.52,394.52,584.27a134.57,134.57,0,0,0,10,11.19L595.46,404.54A140,140,0,0,0,584.27,394.52Z"/><path d="M605.48,415.73,415.73,605.48a136.38,136.38,0,0,0,12.39,8.83L614.3,428.12A135.7,135.7,0,0,0,605.48,415.73Z"/><path d="M621.84,441.79l-180,180.06a134.33,134.33,0,0,0,15.1,6.11L628,456.89A132.54,132.54,0,0,0,621.84,441.79Z"/><path d="M632.41,473.65,473.65,632.42a135.88,135.88,0,0,0,18.84,2.37l142.3-142.3A134.58,134.58,0,0,0,632.41,473.65Z"/></g></svg>