<svg xmlns="http://www.w3.org/2000/svg" viewBox="0 0 1000 1000"><defs><style>.cls-1{fill:#ffbc58;}.cls-2{fill:#216f9b;}.cls-3{fill:#ff6442;}.cls-4{opacity:0.55;}</style></defs><g id="레이어_5" data-name="레이어 5"><path class="cls-1" d="M489.54,71.19h0l-1.31-14.94h0a136.35,136.35,0,0,0-23.17,4.07l3.88,14.49A120.85,120.85,0,0,1,489.54,71.19Z"/><path class="cls-2" d="M510.46,71.18l1.31-15a136.08,136.08,0,0,0-23.54,0l1.31,14.94A119.81,119.81,0,0,1,510.46,71.18Z"/><path class="cls-3" d="M449.27,82a119.37,119.37,0,0,1,19.67-7.14l-3.88-14.49a134.65,134.65,0,0,0-22.13,8Z"/><path class="cls-1" d="M449.27,82l-6.34-13.6a135.11,135.11,0,0,0-20.37,11.78l8.6,12.29A120.31,120.31,0,0,1,449.27,82Z"/><path class="cls-2" d="M415.15,105.88a120.73,120.73,0,0,1,16-13.46l-8.6-12.29a135.47,135.47,0,0,0-18,15.15Z"/><path class="cls-1" d="M415.15,105.88l-10.61-10.6a135.64,135.64,0,0,0-15.12,18l12.29,8.6A121,121,0,0,1,415.15,105.88Z"/><path class="cls-3" d="M391.23,140a120.63,120.63,0,0,1,10.48-18.11l-12.29-8.6a134.66,134.66,0,0,0-11.78,20.37Z"/><path class="cls-1" d="M391.23,140l-13.59-6.34a134.49,134.49,0,0,0-8.07,22.11l14.49,3.89A120.12,120.12,0,0,1,391.23,140Z"/><path class="cls-2" d="M380.44,180.27a120.11,120.11,0,0,1,3.62-20.6l-14.49-3.89A134,134,0,0,0,365.5,179Z"/><path class="cls-1" d="M380.44,180.27,365.5,179a136.08,136.08,0,0,0,0,23.54l14.94-1.31A120.8,120.8,0,0,1,380.44,180.27Z"/><path class="cls-1" d="M535,60.3a134.92,134.92,0,0,0-23.18-4.07l-1.31,15a118.2,118.2,0,0,1,20.6,3.62Z"/><path class="cls-3" d="M550.72,82l6.34-13.59A134.49,134.49,0,0,0,535,60.3l-3.89,14.5A119.17,119.17,0,0,1,550.72,82Z"/><path class="cls-1" d="M577.43,80.15a134.66,134.66,0,0,0-20.37-11.78L550.72,82a120.63,120.63,0,0,1,18.11,10.48Z"/><path class="cls-2" d="M584.85,105.88l10.61-10.6a135.68,135.68,0,0,0-18-15.13l-8.6,12.29A121.07,121.07,0,0,1,584.85,105.88Z"/><path class="cls-1" d="M610.6,113.29a135.43,135.43,0,0,0-15.14-18l-10.61,10.6a120.73,120.73,0,0,1,13.46,16Z"/><path class="cls-3" d="M608.78,140l13.6-6.34a134.72,134.72,0,0,0-11.78-20.38l-12.29,8.6A119.07,119.07,0,0,1,608.78,140Z"/><path class="cls-1" d="M630.41,155.79a134.21,134.21,0,0,0-8-22.12L608.78,140a118.93,118.93,0,0,1,7.14,19.66Z"/><path class="cls-2" d="M619.54,180.27l14.94-1.3a136.3,136.3,0,0,0-4.07-23.18l-14.49,3.88A120.85,120.85,0,0,1,619.54,180.27Z"/><path class="cls-3" d="M384.08,221.79a120.85,120.85,0,0,1-3.62-20.6l-14.94,1.31a136.18,136.18,0,0,0,4.07,23.17Z"/><path class="cls-1" d="M384.08,221.79l-14.49,3.88a134.65,134.65,0,0,0,8,22.13l13.6-6.34A119.37,119.37,0,0,1,384.08,221.79Z"/><path class="cls-2" d="M401.69,259.57a119.46,119.46,0,0,1-10.47-18.11l-13.6,6.34a135.11,135.11,0,0,0,11.78,20.37Z"/><path class="cls-1" d="M401.69,259.57l-12.29,8.6a136.16,136.16,0,0,0,15.14,18l10.61-10.61A120.73,120.73,0,0,1,401.69,259.57Z"/><path class="cls-3" d="M422.57,301.31l8.6-12.28a120.39,120.39,0,0,1-16-13.45l-10.61,10.61A136.37,136.37,0,0,0,422.57,301.31Z"/><path class="cls-1" d="M431.17,289l-8.6,12.28a134.66,134.66,0,0,0,20.37,11.78l6.34-13.59A121.44,121.44,0,0,1,431.17,289Z"/><path class="cls-2" d="M468.93,306.67a119.43,119.43,0,0,1-19.65-7.17l-6.34,13.59a134.49,134.49,0,0,0,22.11,8.07Z"/><path class="cls-1" d="M468.93,306.67l-3.88,14.49a134,134,0,0,0,23.18,4.07l1.31-14.94A119.43,119.43,0,0,1,468.93,306.67Z"/><path class="cls-1" d="M619.56,201.19l14.94,1.31a136,136,0,0,0,0-23.53l-14.94,1.3A120.8,120.8,0,0,1,619.56,201.19Z"/><path class="cls-3" d="M615.94,221.8l14.49,3.88a134,134,0,0,0,4.07-23.18l-14.94-1.31A120.39,120.39,0,0,1,615.94,221.8Z"/><path class="cls-1" d="M622.36,247.79a134.16,134.16,0,0,0,8.07-22.11l-14.49-3.88a120.35,120.35,0,0,1-7.17,19.65Z"/><path class="cls-2" d="M598.29,259.56l12.29,8.6a134.66,134.66,0,0,0,11.78-20.37l-13.59-6.34A120.63,120.63,0,0,1,598.29,259.56Z"/><path class="cls-1" d="M584.85,275.58l10.61,10.61a136.37,136.37,0,0,0,15.12-18l-12.29-8.6A119.56,119.56,0,0,1,584.85,275.58Z"/><path class="cls-3" d="M568.84,289l8.6,12.29a136.16,136.16,0,0,0,18-15.14l-10.61-10.61A120,120,0,0,1,568.84,289Z"/><path class="cls-1" d="M557.07,313.11a135.11,135.11,0,0,0,20.37-11.78L568.84,289a119.46,119.46,0,0,1-18.11,10.47Z"/><path class="cls-2" d="M531.06,306.65l3.88,14.49a134.65,134.65,0,0,0,22.13-8l-6.34-13.6A119.37,119.37,0,0,1,531.06,306.65Z"/><path class="cls-3" d="M510.46,310.27a120.8,120.8,0,0,1-20.92,0l-1.31,14.94a135.09,135.09,0,0,0,23.54,0Z"/><path class="cls-1" d="M511.77,325.21a135.37,135.37,0,0,0,23.17-4.07l-3.88-14.49a120.85,120.85,0,0,1-20.6,3.62h0l1.31,14.94Z"/><circle class="cls-1" cx="500" cy="809.28" r="134.99"/><circle class="cls-3" cx="500" cy="809.28" r="119.99"/><circle class="cls-1" cx="500" cy="809.28" r="104.99"/><circle class="cls-2" cx="500" cy="809.28" r="90"/><circle class="cls-1" cx="500" cy="809.28" r="75"/><circle class="cls-3" cx="500" cy="809.28" r="60"/><circle class="cls-1" cx="500" cy="809.28" r="45"/><circle class="cls-2" cx="500" cy="809.28" r="30"/><circle class="cls-1" cx="500" cy="809.28" r="15"/><path class="cls-1" d="M458.91,371.38a135.24,135.24,0,0,0-87.54,87.54Z"/><path class="cls-3" d="M365.75,485.75l120-120a134.81,134.81,0,0,0-26.84,5.63l-87.54,87.54A135.4,135.4,0,0,0,365.75,485.75Z"/><path class="cls-1" d="M365.21,507.5,507.5,365.21a136.22,136.22,0,0,0-21.75.54l-120,120A136.22,136.22,0,0,0,365.21,507.5Z"/><path class="cls-2" d="M367.58,526.34,526.34,367.59a134.58,134.58,0,0,0-18.84-2.38L365.21,507.5A135.88,135.88,0,0,0,367.58,526.34Z"/><path class="cls-1" d="M372,543.1,543.1,372a134.39,134.39,0,0,0-16.76-4.45L367.58,526.34A136.15,136.15,0,0,0,372,543.1Z"/><path class="cls-3" d="M378.15,558.2,558.2,378.15A135.1,135.1,0,0,0,543.1,372L372,543.1A136.31,136.31,0,0,0,378.15,558.2Z"/><path class="cls-1" d="M385.69,571.87,571.87,385.69a136.28,136.28,0,0,0-13.67-7.54L378.15,558.2A133.25,133.25,0,0,0,385.69,571.87Z"/><path class="cls-2" d="M394.51,584.26,584.26,394.52a137.79,137.79,0,0,0-12.39-8.83L385.69,571.87A135.7,135.7,0,0,0,394.51,584.26Z"/><path class="cls-1" d="M404.54,595.45,595.45,404.54a138,138,0,0,0-11.19-10L394.51,584.26A136.52,136.52,0,0,0,404.54,595.45Z"/><path class="cls-3" d="M415.73,605.47,605.47,415.73a138.25,138.25,0,0,0-10-11.19L404.54,595.45A136.58,136.58,0,0,0,415.73,605.47Z"/><path class="cls-1" d="M428.12,614.29,614.29,428.12a134.33,134.33,0,0,0-8.82-12.39L415.73,605.47A133,133,0,0,0,428.12,614.29Z"/><path class="cls-2" d="M441.79,621.83l180-180a133.25,133.25,0,0,0-7.54-13.67L428.12,614.29A130.35,130.35,0,0,0,441.79,621.83Z"/><path class="cls-1" d="M456.88,628,628,456.89a134.4,134.4,0,0,0-6.12-15.1l-180,180A133.14,133.14,0,0,0,456.88,628Z"/><path class="cls-3" d="M473.64,632.4,632.4,473.65A134.39,134.39,0,0,0,628,456.89L456.88,628A135.32,135.32,0,0,0,473.64,632.4Z"/><path class="cls-1" d="M492.48,634.78l142.29-142.3a135.93,135.93,0,0,0-2.37-18.83L473.64,632.4A134.58,134.58,0,0,0,492.48,634.78Z"/></g></svg>