<svg xmlns="http://www.w3.org/2000/svg" viewBox="0 0 1000 1000"><defs><style>.cls-1{fill:none;}.cls-2{opacity:0.55;}</style></defs><g id="레이어_5" data-name="레이어 5"><path d="M809.27,366a134,134,0,1,1-94.75,39.25A133.12,133.12,0,0,1,809.27,366m0-1a135,135,0,1,0,135,135,135,135,0,0,0-135-135Z"/><path d="M809.27,369.38a130.61,130.61,0,1,1-92.36,38.26,129.76,129.76,0,0,1,92.36-38.26m0-1A131.62,131.62,0,1,0,940.89,500,131.61,131.61,0,0,0,809.27,368.38Z"/><path d="M809.27,372.77a127.21,127.21,0,1,1-90,37.26,126.4,126.4,0,0,1,90-37.26m0-1A128.23,128.23,0,1,0,937.5,500,128.23,128.23,0,0,0,809.27,371.77Z"/><path d="M809.27,376.15a123.87,123.87,0,1,1-87.57,36.28,123,123,0,0,1,87.57-36.28m0-1A124.85,124.85,0,1,0,934.12,500,124.85,124.85,0,0,0,809.27,375.15Z"/><path d="M809.27,379.54a120.45,120.45,0,1,1-85.18,35.28,119.67,119.67,0,0,1,85.18-35.28m0-1A121.46,121.46,0,1,0,930.74,500,121.46,121.46,0,0,0,809.27,378.54Z"/><path d="M809.27,382.92a117.07,117.07,0,1,1-82.79,34.29,116.33,116.33,0,0,1,82.79-34.29m0-1A118.08,118.08,0,1,0,927.35,500,118.08,118.08,0,0,0,809.27,381.92Z"/><path d="M809.27,386.3a113.71,113.71,0,1,1-80.39,33.3,113,113,0,0,1,80.39-33.3m0-1A114.7,114.7,0,1,0,924,500a114.7,114.7,0,0,0-114.7-114.7Z"/><path d="M809.27,389.69a110.31,110.31,0,1,1-78,32.31,109.59,109.59,0,0,1,78-32.31m0-1A111.31,111.31,0,1,0,920.59,500,111.3,111.3,0,0,0,809.27,388.69Z"/><path d="M809.27,393.07a106.93,106.93,0,1,1-75.61,31.32,106.21,106.21,0,0,1,75.61-31.32m0-1A107.93,107.93,0,1,0,917.2,500,107.93,107.93,0,0,0,809.27,392.07Z"/><path d="M809.27,396.45A103.55,103.55,0,1,1,705.73,500,103.66,103.66,0,0,1,809.27,396.45m0-1A104.55,104.55,0,1,0,913.82,500,104.54,104.54,0,0,0,809.27,395.45Z"/><path d="M809.27,399.84A100.16,100.16,0,1,1,709.11,500,100.27,100.27,0,0,1,809.27,399.84m0-1A101.16,101.16,0,1,0,910.43,500,101.16,101.16,0,0,0,809.27,398.84Z"/><path d="M809.27,403.22A96.78,96.78,0,1,1,712.49,500a96.89,96.89,0,0,1,96.78-96.78m0-1A97.78,97.78,0,1,0,907.05,500a97.78,97.78,0,0,0-97.78-97.78Z"/><path d="M809.27,406.6A93.4,93.4,0,1,1,715.88,500a93.51,93.51,0,0,1,93.39-93.4m0-1a94.4,94.4,0,1,0,94.4,94.4,94.4,94.4,0,0,0-94.4-94.4Z"/><path d="M809.27,410a90,90,0,1,1-90,90,90.11,90.11,0,0,1,90-90m0-1a91,91,0,1,0,91,91,91,91,0,0,0-91-91Z"/><path d="M809.27,413.37A86.63,86.63,0,1,1,722.64,500a86.73,86.73,0,0,1,86.63-86.63m0-1A87.63,87.63,0,1,0,896.9,500a87.63,87.63,0,0,0-87.63-87.63Z"/><path d="M809.27,416.76A83.24,83.24,0,1,1,726,500a83.34,83.34,0,0,1,83.24-83.24m0-1A84.24,84.24,0,1,0,893.52,500a84.23,84.23,0,0,0-84.25-84.24Z"/><path d="M809.27,420.14A79.86,79.86,0,1,1,729.41,500a79.94,79.94,0,0,1,79.86-79.86m0-1A80.86,80.86,0,1,0,890.13,500a80.86,80.86,0,0,0-80.86-80.86Z"/><path d="M809.27,423.52A76.48,76.48,0,1,1,732.79,500a76.57,76.57,0,0,1,76.48-76.48m0-1A77.48,77.48,0,1,0,886.75,500a77.48,77.48,0,0,0-77.48-77.48Z"/><path d="M809.27,426.91A73.09,73.09,0,1,1,736.18,500a73.17,73.17,0,0,1,73.09-73.09m0-1A74.09,74.09,0,1,0,883.36,500a74.09,74.09,0,0,0-74.09-74.09Z"/><path d="M809.27,430.29A69.71,69.71,0,1,1,739.56,500a69.79,69.79,0,0,1,69.71-69.71m0-1A70.71,70.71,0,1,0,880,500a70.71,70.71,0,0,0-70.71-70.71Z"/><path d="M809.27,433.67A66.33,66.33,0,1,1,743,500a66.41,66.41,0,0,1,66.32-66.33m0-1A67.33,67.33,0,1,0,876.6,500a67.33,67.33,0,0,0-67.33-67.33Z"/><path d="M809.27,437.06A62.94,62.94,0,1,1,746.33,500a63,63,0,0,1,62.94-62.94m0-1A63.94,63.94,0,1,0,873.21,500a63.94,63.94,0,0,0-63.94-63.94Z"/><path d="M809.27,440.44A59.56,59.56,0,1,1,749.71,500a59.63,59.63,0,0,1,59.56-59.56m0-1A60.56,60.56,0,1,0,869.83,500a60.56,60.56,0,0,0-60.56-60.56Z"/><path d="M809.27,443.83A56.17,56.17,0,1,1,753.1,500a56.24,56.24,0,0,1,56.17-56.17m0-1A57.17,57.17,0,1,0,866.45,500a57.17,57.17,0,0,0-57.18-57.17Z"/><path d="M809.27,447.21A52.79,52.79,0,1,1,756.48,500a52.85,52.85,0,0,1,52.79-52.79m0-1A53.79,53.79,0,1,0,863.06,500a53.79,53.79,0,0,0-53.79-53.79Z"/><path d="M809.27,450.59A49.41,49.41,0,1,1,759.86,500a49.47,49.47,0,0,1,49.41-49.41m0-1A50.41,50.41,0,1,0,859.68,500a50.41,50.41,0,0,0-50.41-50.41Z"/><path d="M809.27,454a46,46,0,1,1-46,46,46.07,46.07,0,0,1,46-46m0-1a47,47,0,1,0,47,47,47,47,0,0,0-47-47Z"/><path d="M809.27,457.36A42.64,42.64,0,1,1,766.63,500a42.69,42.69,0,0,1,42.64-42.64m0-1A43.64,43.64,0,1,0,852.91,500a43.64,43.64,0,0,0-43.64-43.64Z"/><path d="M809.27,460.74A39.26,39.26,0,1,1,770,500a39.3,39.3,0,0,1,39.25-39.26m0-1A40.26,40.26,0,1,0,849.53,500a40.26,40.26,0,0,0-40.26-40.26Z"/><path d="M809.27,464.13A35.87,35.87,0,1,1,773.4,500a35.91,35.91,0,0,1,35.87-35.87m0-1A36.87,36.87,0,1,0,846.14,500a36.87,36.87,0,0,0-36.87-36.87Z"/><path d="M809.27,467.51A32.49,32.49,0,1,1,776.78,500a32.53,32.53,0,0,1,32.49-32.49m0-1A33.49,33.49,0,1,0,842.76,500a33.49,33.49,0,0,0-33.49-33.49Z"/><path d="M809.27,470.9a29.1,29.1,0,1,1-29.1,29.1,29.14,29.14,0,0,1,29.1-29.1m0-1A30.1,30.1,0,1,0,839.38,500a30.1,30.1,0,0,0-30.11-30.1Z"/><path d="M809.27,474.28A25.72,25.72,0,1,1,783.55,500a25.75,25.75,0,0,1,25.72-25.72m0-1A26.72,26.72,0,1,0,836,500a26.72,26.72,0,0,0-26.72-26.72Z"/><path d="M809.27,477.66A22.34,22.34,0,1,1,786.93,500a22.36,22.36,0,0,1,22.34-22.34m0-1A23.34,23.34,0,1,0,832.61,500a23.34,23.34,0,0,0-23.34-23.34Z"/><path d="M809.27,481.05A18.95,18.95,0,1,1,790.32,500a19,19,0,0,1,18.95-18.95m0-1a20,20,0,1,0,20,19.95,19.95,19.95,0,0,0-20-19.95Z"/><path d="M809.27,484.43A15.57,15.57,0,1,1,793.7,500a15.58,15.58,0,0,1,15.57-15.57m0-1A16.57,16.57,0,1,0,825.84,500a16.57,16.57,0,0,0-16.57-16.57Z"/><path d="M809.27,487.81A12.19,12.19,0,1,1,797.09,500a12.21,12.21,0,0,1,12.18-12.19m0-1A13.19,13.19,0,1,0,822.46,500a13.19,13.19,0,0,0-13.19-13.19Z"/><path d="M809.27,491.2a8.8,8.8,0,1,1-8.8,8.8,8.81,8.81,0,0,1,8.8-8.8m0-1a9.8,9.8,0,1,0,9.8,9.8,9.8,9.8,0,0,0-9.8-9.8Z"/><path d="M809.27,494.58a5.42,5.42,0,1,1-5.42,5.42,5.42,5.42,0,0,1,5.42-5.42m0-1a6.42,6.42,0,1,0,6.42,6.42,6.42,6.42,0,0,0-6.42-6.42Z"/><path d="M809.27,498a2,2,0,1,1-2,2,2,2,0,0,1,2-2m0-1a3,3,0,1,0,3,3,3,3,0,0,0-3-3Z"/><path d="M190.73,365h-1l.11,15h.89V365Zm-4.74.08-.81,0H185l.63,15,.89,0-.52-15Zm-4.73.24-.24,0h0l-.32,0h-.09l-.31,0,1.15,14.95.88-.06-1-15Zm-4.73.41-.76.08-.23,0,1.67,14.91.88-.1-1.56-14.92Zm-4.7.58-.57.08-.3,0h-.12L173,381.3l.88-.13-2.08-14.85Zm-4.68.74-.86.15h-.13L168.88,382l.87-.16-2.6-14.77Zm-4.65.9-.3.07h-.32l-.36.08,3.23,14.65.87-.19L162.5,368ZM157.88,369l-.42.11h-.06l-.49.13,3.75,14.52.86-.22L157.88,369Zm-4.58,1.23-.13,0-.83.24,4.26,14.38.85-.24-4.15-14.42Zm-4.53,1.39-.09,0-.75.25-.11,0,4.77,14.22.84-.28-4.66-14.26Zm-4.48,1.55-.1,0h0l-.8.3,5.26,14.05.83-.31-5.16-14.09Zm-4.42,1.71-.06,0-.86.35,5.76,13.85.82-.33-5.66-13.9Zm-4.35,1.87-.28.12h-.07l0,0h0l0,0H135l-.39.18,6.24,13.64.81-.37-6.14-13.68Zm-4.29,2,0,0-.85.42,6.72,13.41.8-.4-6.62-13.46ZM127,381l-.71.38h0l-.15.08,7.19,13.17.78-.42L127,381Zm-4.13,2.31-.57.33h0l0,0h0l0,0,0,0h0l-.16.1,7.65,12.9.77-.45-7.55-13Zm-4.06,2.46-.73.47h0l-.07,0,8.09,12.63.75-.47-8-12.69Zm-4,2.6-.51.34,0,0h0l-.29.2,8.54,12.34c.24-.17.48-.34.73-.5l-8.44-12.4ZM111,391.06l-.25.18h0l0,0-.52.37,9,12,.72-.53L111,391.06Zm-3.77,2.87-.79.62,9.38,11.71.69-.55-9.28-11.78Zm-3.67,3-.07.06,0,0h0l0,0h0l0,0h0l-.38.32h0l0,0h0l0,0-.11.1L112.56,409l.68-.57-9.69-11.45ZM100,400.05l-.12.12c-.21.18-.41.37-.61.56l10.16,11,.66-.6L100,400.05Zm-3.45,3.25-.71.7,10.54,10.67L107,414,96.53,403.3Zm-3.33,3.37c-.19.18-.36.37-.54.56h0l0,0-.12.13,10.91,10.29L104,417,93.2,406.67ZM90,410.15l-.13.14-.53.6,11.26,9.91.59-.67L90,410.15Zm-3.1,3.59-.63.77,11.6,9.5.57-.68-11.54-9.59Zm-3,3.69,0,0h0l-.3.39h0l0,0-.24.32,11.93,9.09.54-.7-11.86-9.19Zm-2.84,3.8c-.14.21-.29.41-.44.62l-.14.19,12.24,8.68c.17-.25.34-.49.52-.73l-12.18-8.76Zm-2.7,3.89c0,.09-.11.17-.16.25l-.39.59,12.54,8.24c.16-.25.32-.5.49-.74l-12.48-8.34Zm-2.56,4-.11.18v0l0,0v0l0,0h0l-.34.56,12.81,7.8.47-.76-12.76-7.89Zm-2.42,4.08-.12.2,0,0h0l-.22.39h0v0l0,0h0l-.09.16L86,441.39l.44-.77-13-7.43Zm-2.28,4.15-.21.4,0,0h0l0,0h0l0,.05h0l-.08.16h0l0,0h0l0,.05h0l0,.05L84,445.1c.14-.26.28-.52.41-.79l-13.28-7ZM69,441.58a2.56,2.56,0,0,1-.11.24l-.32.66,13.57,6.4c.13-.27.25-.54.38-.8L69,441.58Zm-2,4.3c-.14.31-.27.61-.4.92l13.78,5.92c.12-.28.24-.55.35-.82l-13.73-6Zm-1.83,4.38-.36.93,14,5.42c.11-.27.22-.55.32-.82l-13.94-5.53Zm-1.67,4.43-.08.24h0l0,0v0l-.22.63,14.17,4.92c.09-.28.19-.56.29-.83l-14.13-5ZM62,459.18c0,.08,0,.16-.07.24l-.2.62v0l0,.05h0L76,464.56l.27-.85L62,459.18Zm-1.35,4.55v0h0v0c-.09.29-.17.59-.25.88l14.49,3.91c.07-.28.15-.57.23-.85l-14.45-4Zm-1.19,4.58-.09.36h0v.07h0c0,.15-.07.3-.1.45h0v.07h0l14.61,3.4c.07-.29.13-.58.2-.87l-14.58-3.51Zm-1,4.63V473l-.18.92L73,476.8c0-.29.11-.58.17-.87l-14.7-3Zm-.86,4.66h0v0l-.12.78,0,.18L72.23,481c0-.29.1-.59.14-.88L57.58,477.6Zm-.7,4.69c0,.33-.08.66-.13,1l14.89,1.84c0-.29.08-.59.11-.88l-14.87-1.95ZM56.35,487c0,.14,0,.28,0,.42h0c0,.18,0,.37-.05.55l14.94,1.32c0-.3,0-.59.08-.89L56.35,487ZM56,491.72c0,.21,0,.42,0,.64v.05h0c0,.1,0,.21,0,.31l15,.8c0-.3,0-.6,0-.89l-15-.91Zm-.21,4.74c0,.29,0,.58,0,.87h0v.12l15,.27c0-.29,0-.59,0-.89l-15-.38Zm15,4.61-15,.13c0,.19,0,.4,0,.59v.09h0c0,.1,0,.21,0,.31l15-.24c0-.3,0-.59,0-.89Zm.11,4.22-15,.65c0,.33,0,.66,0,1l15-.75c0-.3,0-.6,0-.89Zm.26,4.21-15,1.17.09,1,14.94-1.27c0-.3,0-.6-.07-.89Zm.4,4.19-14.9,1.7c0,.24,0,.5.08.75l0,.24,14.89-1.8c0-.3-.07-.59-.1-.89Zm.55,4.18-14.84,2.21,0,.18v0h0c0,.26.07.51.11.77l14.82-2.32c0-.29-.09-.59-.13-.88Zm.69,4.15L58,524.76v.09c0,.2.08.4.11.6v0c0,.08,0,.16,0,.24l14.73-2.84c-.06-.29-.11-.58-.17-.88Zm.84,4.13L58.94,529.4c.07.33.14.65.22,1L73.78,527c-.07-.29-.13-.58-.2-.87Zm1,4.09L60.05,534l.06.24v0h0l0,.05h0c0,.1,0,.2.08.3h0v.05h0v.09l0,.18,14.49-3.88c-.07-.29-.15-.57-.22-.86Zm1.13,4.06-14.38,4.27,0,.17.24.79L76,535.15c-.08-.29-.17-.57-.25-.85Zm1.27,4-14.22,4.78c0,.16.11.32.16.47h0l0,0h0c0,.13.1.27.14.41l14.18-4.89c-.09-.28-.19-.56-.28-.84Zm1.41,4-14,5.29.36.93,14-5.39c-.11-.27-.22-.55-.32-.83Zm1.55,3.91L66.09,552l.39.92L80.28,547c-.12-.27-.23-.54-.35-.82ZM81.62,550,68,556.3l.05.11h0v0l0,0v0h0l0,.09h0v.07l0,0h0l.21.45L82,550.85l-.38-.81Zm1.83,3.79-13.4,6.74v0h0l0,0h0l.07.13h0l0,0h0l.14.27h0l0,0,0,0h0l.14.28,13.35-6.84-.4-.8Zm2,3.73-13.15,7.21.1.19,0,0h0l.36.65,13.1-7.3c-.14-.26-.28-.52-.43-.78Zm2.09,3.66L74.6,568.89l0,.07h0l0,0,.3.51.14.23L88,562c-.15-.25-.31-.5-.46-.76Zm2.22,3.58-12.62,8.12c.18.28.36.56.55.83l12.55-8.2-.48-.75Zm2.34,3.51-12.33,8.55.44.63,0,0v0l.11.15L92.56,569l-.51-.73Zm2.46,3.42-12,9,.15.2h0l.22.29h0l0,0v0h0c.06.08.12.15.17.23l12-9.06-.54-.71Zm2.58,3.33-11.7,9.39.61.75,0,0h0l11.63-9.48-.56-.69Zm2.7,3.24-11.36,9.79a1.46,1.46,0,0,0,.16.19v0l0,0,0,0h0l.13.15h0l0,0,0,0h0l.24.28L100.37,579c-.19-.22-.39-.44-.58-.67Zm2.81,3.15-11,10.18h0l.67.72L103.2,582.1l-.6-.65Zm2.91,3L94.86,595.05l.41.41h0l0,0,.27.26,10.57-10.64-.63-.63Zm3,2.94L98.25,598.36l.1.09L99,599l10.2-11-.65-.61Zm3.12,2.84-9.89,11.28.31.27h0l0,0,0,0v0l.38.32,9.8-11.35-.67-.58Zm3.22,2.72-9.49,11.62.35.28,0,0h0l0,0h0l.34.28,9.4-11.69-.69-.56Zm3.31,2.61-9.08,11.94.8.6,9-12-.71-.54Zm3.4,2.49-8.66,12.25.2.14h0l0,0h0l0,0h0l.51.36,8.57-12.32-.73-.51Zm3.48,2.37L116.84,613l.69.45,0,0h0l.1.06,8.13-12.6-.75-.49Zm3.57,2.25-7.78,12.83.86.51,7.68-12.88-.76-.46Zm3.64,2.12L125,617.92l0,0,.58.31,0,0h0l.21.12L133,605.26l-.77-.43Zm3.71,2-6.86,13.34.64.32,0,0h0l.21.1,6.76-13.39-.79-.4Zm3.78,1.86-6.38,13.57.16.08.74.34,6.28-13.62-.8-.37Zm3.84,1.72-5.9,13.79.53.23.39.16,5.8-13.83-.82-.35Zm3.9,1.59-5.41,14,0,0h0l.86.33,5.31-14-.83-.31Zm3.95,1.44-4.91,14.18.25.08h.05l.34.12.31.1,4.8-14.21-.84-.29Zm4,1.31-4.4,14.34.65.2h0l.26.08L156.3,615l-.85-.26Zm4,1.16-3.89,14.49.07,0h.05l.78.21h.07l3.78-14.51-.86-.23Zm4.09,1-3.38,14.62.26.06h.2l.51.12,3.27-14.64-.86-.2Zm4.11.88-2.86,14.72,1,.19L168.57,618l-.88-.16Zm4.15.73-2.34,14.82,1,.15,2.23-14.84-.88-.13Zm4.17.58L174.19,634h0l1,.12,1.7-14.9-.88-.11Zm4.19.44-1.29,14.94.24,0h0l.71.06,1.19-15-.89-.07Zm4.21.29-.77,15,1,0,.67-15-.89,0Zm4.22.15-.26,15h1l.15-15Zm5.11,0-.89,0,.26,15h.33l.59,0h.08l-.37-15Zm4.22-.18-.89.05.78,15,.46,0h.34l.2,0-.89-15Zm4.2-.32-.88.08,1.3,14.94.51,0h.27l.21,0-1.41-14.93Zm4.19-.47-.88.11L207.29,634l.41,0h0l.55-.07L206.35,619Zm4.17-.62-.88.14L212,633.34l.36-.06h.32l.3-.05-2.45-14.8Zm4.14-.76-.87.17,2.86,14.73.4-.08h.16l.42-.09-3-14.7Zm4.11-.91-.86.21,3.38,14.61.36-.08h.13l.05,0H222l.22-.05-3.49-14.59Zm4.07-1.05-.85.24,3.9,14.48H226l.76-.2.11,0-4-14.46Zm4-1.19-.85.26,4.41,14.34.63-.2h.06l.19-.06h0l0,0h0l-4.51-14.3Zm4-1.34-.84.29,4.91,14.18.95-.33-5-14.14Zm3.94-1.48L234,612l5.41,14,.94-.37-5.52-14ZM238.7,610l-.82.35,5.9,13.79.4-.17h0l0,0h0l.43-.19-6-13.74Zm3.83-1.76-.81.39,6.39,13.57,0,0h0l0,0h0l.45-.21h0l.28-.13-6.48-13.53Zm3.76-1.88-.79.41,6.86,13.34.57-.3,0,0h0l.28-.14-7-13.29Zm3.7-2-.78.44,7.33,13.09.59-.34,0,0h0l.24-.13-7.42-13Zm3.62-2.15-.76.47,7.78,12.82.44-.27h0l0,0,.36-.22-7.87-12.77Zm3.55-2.27-.74.49L264.64,613l.34-.22h0l.46-.31L257.16,600Zm3.46-2.4-.72.52,8.66,12.25.81-.58-8.75-12.19ZM264,595l-.7.54,9.08,11.94.52-.4h0l0,0h0l.19-.15L264,595Zm3.29-2.63-.68.56,9.49,11.62.77-.64-9.58-11.54Zm3.2-2.75-.67.59,9.9,11.28.27-.25.26-.23h0l0,0,.18-.16-10-11.2Zm3.1-2.86-.65.62,10.28,10.92h0l.39-.37h0l0,0v0h0l.26-.24L273.59,586.8Zm3-3-.63.63L286.62,595l.48-.49h0l0,0,.2-.2-10.73-10.48Zm2.89-3.07-.6.66,11,10.18.27-.29,0,0h0l0,0h0l.12-.13,0,0h0l.18-.2-11.09-10.1Zm2.78-3.16-.57.67,11.36,9.79.19-.22h0l0,0,.44-.52-11.44-9.7Zm2.67-3.27c-.18.24-.36.47-.55.7l11.7,9.39.25-.32h0v0l.3-.38,0,0h0l0,0-11.77-9.31Zm2.56-3.35-.53.72,12,9,0,0,0,0h0l.41-.55,0,0h0l.11-.15L287.49,571Zm2.44-3.44-.51.74,12.33,8.54.57-.82-12.39-8.46Zm2.31-3.52-.48.75,12.62,8.11.11-.16.43-.68-12.68-8Zm2.19-3.6-.45.77,12.89,7.66.51-.86-12.95-7.57Zm2.06-3.67c-.14.26-.28.52-.43.78l13.16,7.2.48-.87-13.21-7.11Zm1.93-3.74-.4.79,13.4,6.74.45-.9L298.42,553Zm1.79-3.81-.36.81,13.63,6.26.07-.17,0,0h0c.11-.23.21-.47.32-.7l-13.68-6.16Zm1.66-3.87c-.11.27-.22.55-.34.82l13.85,5.78.11-.26v0h0l.26-.63-13.89-5.67Zm1.53-3.92c-.11.27-.21.55-.31.83l14,5.28.12-.32V547l0,0v-.1l0,0h0l.08-.24-14.07-5.17Zm1.38-4-.28.84,14.21,4.79.18-.53h0v0c.05-.13.09-.25.13-.37h0l-14.25-4.68Zm1.24-4-.25.85,14.38,4.28.08-.28h0v-.08l0,0h0l0-.12v0c0-.13.07-.25.11-.37L306,533.42Zm1.1-4.06c-.08.28-.15.57-.22.86L321.42,534l0-.1v0h0l.21-.83-14.54-3.65Zm.95-4.1c-.06.29-.13.58-.19.86l14.64,3.25c.08-.32.15-.65.22-1l-14.67-3.14Zm.81-4.13c-.05.29-.11.58-.16.87l14.75,2.73,0-.12h0v-.07h0c0-.09,0-.17,0-.25h0v0h0v-.05h0c0-.14.05-.27.08-.4l-14.77-2.62Zm.66-4.16c0,.29-.08.58-.13.88l14.84,2.2c.05-.33.1-.65.14-1L309.54,517Zm.52-4.18c0,.29-.07.59-.1.88l14.9,1.69,0-.21v0h0c0-.25.06-.5.08-.75l-14.91-1.57Zm.37-4.2c0,.29-.05.59-.07.88l15,1.17c0-.26,0-.52.05-.78h0v0c0-.06,0-.12,0-.18l-15-1.05Zm.22-4.22c0,.3,0,.6,0,.89l15,.65,0-.84v-.16l-15-.54Zm.08-4.22c0,.3,0,.6,0,.89l15,.13h0v0c0-.33,0-.65,0-1l-15,0Zm14.92-4.72-15,.5,0,.89,15-.39v-.31h0c0-.22,0-.44,0-.66v0Zm-.24-4.73-15,1c0,.3,0,.6.05.89l15-.91c0-.18,0-.37,0-.56h0v0l0-.4ZM325,486l-14.92,1.54c0,.3.06.59.08.89L325.11,487c0-.33-.07-.66-.1-1Zm-.57-4.7-14.86,2.06.12.88,14.87-1.95c0-.27-.07-.54-.11-.82,0-.05,0-.11,0-.17Zm-.74-4.68-14.77,2.58.15.88,14.79-2.48v-.12h0l-.06-.35V477h0c0-.14,0-.27-.07-.4Zm-.89-4.66L308.13,475l.18.87,14.7-3,0-.1v0h0l-.12-.61-.05-.25Zm-1.07-4.61-14.55,3.62.21.86L322,468.29c-.06-.24-.11-.48-.17-.72l-.07-.25Zm-1.22-4.58-14.42,4.13.24.85,14.45-4a1.55,1.55,0,0,0-.07-.23v0c0-.16-.09-.32-.13-.48h0l0-.05h0v0l0-.11Zm-1.39-4.54-14.26,4.65.27.84,14.3-4.53,0-.06h0l0,0V459c-.09-.26-.17-.53-.26-.8Zm-1.54-4.48-14.1,5.15c.11.27.21.55.31.83l14.13-5c-.12-.32-.23-.63-.34-.95Zm-1.71-4.42L302,454.94l.33.82,13.95-5.53c-.11-.26-.21-.52-.31-.77l0,0h0l-.05-.12ZM314,444.94l-13.69,6.13.36.81,13.74-6c-.08-.19-.17-.38-.25-.56h0l-.15-.34Zm-2-4.29-13.46,6.6.38.8,13.52-6.5-.33-.67v-.05l0,0v0l0,0v-.07l0,0Zm-2.16-4.22-13.22,7.08.41.78,13.28-7,0,0h0l0,0h0l0,0h0c-.13-.25-.26-.5-.4-.75Zm-2.31-4.14-13,7.54.45.77,13-7.44-.24-.43h0c-.08-.14-.15-.28-.24-.42Zm-2.45-4.05-12.7,8,.47.76,12.76-7.89c-.09-.16-.19-.31-.29-.47h0l-.23-.36Zm-2.59-4-12.41,8.43.5.73,12.47-8.33-.45-.67v0l0,0-.08-.12Zm-2.73-3.87-12.11,8.85.52.72,12.18-8.76-.59-.81Zm-2.86-3.78-11.8,9.27.55.7,11.86-9.18-.21-.27h0l0,0v0l0,0,0,0h0l0,0h0l0,0h0l0,0h0l-.19-.25Zm-3-3.67-11.46,9.68.57.68,11.53-9.6h0l-.29-.35h0l0,0h0l0,0-.28-.33Zm-3.12-3.57-11.11,10.07.59.67,11.19-10-.67-.74Zm-3.24-3.45-10.76,10.45.62.64,10.83-10.37c-.12-.14-.25-.27-.38-.4l-.31-.32Zm-3.36-3.35L273.8,413.41l.64.62,10.46-10.75-.21-.21-.5-.49Zm-3.48-3.22-10,11.18.66.6L281.45,400h0l0,0-.63-.58-.08-.07Zm-3.59-3.09-9.6,11.52.68.57,9.69-11.45h0l0,0-.75-.62Zm-3.69-3-9.2,11.85.7.54,9.29-11.78-.79-.61Zm-3.79-2.84-8.78,12.16.72.52,8.86-12.1-.17-.12-.53-.39-.1-.07Zm-3.9-2.71-8.34,12.46.74.5,8.43-12.4-.28-.19h0l0,0-.34-.23-.17-.11Zm-4-2.57-7.9,12.75.75.47,8-12.69-.85-.53Zm-4.07-2.42-7.45,13,.77.44,7.55-13-.87-.5Zm-4.15-2.28-7,13.27.78.41,7.09-13.22-.33-.17-.05,0h0l0,0h0l-.26-.14h0l-.16-.08Zm-4.24-2.14-6.51,13.51.8.39,6.61-13.46h0l-.5-.24h0l0,0h0l-.11-.06h0l0,0h0l0,0,0,0Zm-4.3-2-6,13.73.82.36,6.13-13.69-.39-.17h-.09l-.43-.19Zm-4.37-1.83-5.55,13.93.83.34,5.65-13.9-.12,0h0l-.65-.26h0l-.1,0Zm-4.44-1.68L231.14,387l.84.3,5.16-14.09-.4-.14h0l-.18-.07h0l0,0-.29-.1Zm-4.48-1.51-4.55,14.29.84.27,4.66-14.26h0l-.62-.21h-.13l-.06,0h0l-.11,0ZM227.16,370l-4,14.45.86.24,4.15-14.42h0l-.39-.11h-.05l-.51-.14Zm-4.58-1.2-3.53,14.58.86.22L223.55,369l-.83-.2-.14,0Zm-4.63-1-3,14.7.87.18L218.93,368l-.54-.12h0l-.39-.08Zm-4.66-.87-2.49,14.8c.3,0,.59.09.88.15l2.6-14.78-.55-.09h-.17l-.27-.05Zm-4.68-.7-2,14.87.88.12,2.08-14.86-.7-.09-.29,0Zm-4.71-.54-1.45,14.93.89.09,1.55-14.92-.24,0h0l-.5,0-.23,0Zm-4.72-.37-.93,15,.89.06,1-15-1-.06Zm-4.74-.21-.41,15,.9,0,.51-15-.48,0Z"/><path class="cls-1" d="M544.06,372.37,372.37,544.07c.28.84.58,1.67.89,2.5L546.57,373.26Z"/><path class="cls-1" d="M592.14,401.34l-190.8,190.8,1.66,1.74L593.88,403Z"/><path class="cls-1" d="M595.46,404.54l-.87-.84L403.7,594.6l.84.86.86.84L596.3,405.4Z"/><path class="cls-1" d="M488.32,365.51,365.51,488.32c-.11,1.22-.2,2.45-.27,3.67L492,365.25C490.76,365.32,489.54,365.41,488.32,365.51Z"/><path class="cls-1" d="M554.44,376.43l-178,178c.35.78.69,1.57,1.06,2.34l179.3-179.3Z"/><path class="cls-1" d="M557.75,378,377.94,557.75c.37.77.73,1.54,1.11,2.3l181-181C559.28,378.67,558.52,378.31,557.75,378Z"/><path class="cls-1" d="M493.49,365.16,365.15,493.49c0,1.18-.09,2.35-.12,3.53L497,365C495.84,365.06,494.66,365.1,493.49,365.16Z"/><path class="cls-1" d="M498.44,365,365,498.45q0,1.69,0,3.39L501.84,365C500.71,365,499.58,365,498.44,365Z"/><path class="cls-1" d="M589.62,399.05,399,589.62l1.62,1.79L591.4,400.66C590.81,400.12,590.22,399.58,589.62,399.05Z"/><path class="cls-1" d="M540.44,371.18,371.18,540.44c.27.86.54,1.71.83,2.57L543,372Z"/><path class="cls-1" d="M608.08,419.1l-189,189c.65.48,1.3,1,2,1.44L609.53,421.06C609.05,420.41,608.57,419.75,608.08,419.1Z"/><path class="cls-1" d="M477.29,366.91,366.91,477.29c-.23,1.33-.43,2.67-.61,4l115-115C480,366.49,478.62,366.69,477.29,366.91Z"/><path class="cls-1" d="M606,416.38,416.38,606c.64.5,1.27,1,1.92,1.49L607.48,418.3Z"/><path class="cls-1" d="M547.61,373.64l-174,174c.31.82.63,1.63.95,2.45L550.05,374.59Z"/><path class="cls-1" d="M610.12,421.89,421.88,610.12l2,1.4L611.51,423.89C611.06,423.22,610.59,422.55,610.12,421.89Z"/><path class="cls-1" d="M599.33,408.59,408.59,599.34l1.78,1.61L601,410.38C600.42,409.78,599.88,409.18,599.33,408.59Z"/><path class="cls-1" d="M482.93,366.08,366.08,482.93c-.16,1.28-.31,2.56-.43,3.84L486.77,365.65C485.49,365.77,484.21,365.92,482.93,366.08Z"/><path class="cls-1" d="M601.61,411.13,411.13,601.61c.6.54,1.21,1.06,1.82,1.58L603.19,413C602.67,412.34,602.14,411.74,601.61,411.13Z"/><path class="cls-1" d="M603.83,413.73,413.72,603.83c.62.52,1.25,1,1.87,1.53L605.36,415.6C604.86,415,604.35,414.35,603.83,413.73Z"/><path class="cls-1" d="M578.93,390.47,390.47,578.94q.7,1,1.44,1.95l189-189C580.24,391.42,579.59,390.94,578.93,390.47Z"/><path class="cls-1" d="M532.92,369.06,369.06,532.93c.23.9.46,1.8.7,2.69L535.62,369.76Z"/><path class="cls-1" d="M520.91,366.63,366.63,520.91c.15,1,.31,2,.48,2.92L523.82,367.12C522.85,366.94,521.88,366.78,520.91,366.63Z"/><path class="cls-1" d="M567.23,382.91,382.9,567.24c.42.71.83,1.43,1.26,2.14L569.38,384.16Z"/><path class="cls-1" d="M516.69,366,366,516.69c.13,1,.26,2,.41,3L519.69,366.44C518.69,366.29,517.69,366.16,516.69,366Z"/><path class="cls-1" d="M576.11,388.48,388.48,576.11c.46.67.92,1.34,1.4,2L578.11,389.88Z"/><path class="cls-1" d="M525,367.33,367.33,525c.18,1,.37,1.9.57,2.84l160-160C526.91,367.7,526,367.51,525,367.33Z"/><path class="cls-1" d="M570.26,384.7,384.7,570.26c.42.7.86,1.4,1.3,2.1L572.35,386C571.66,385.56,571,385.13,570.26,384.7Z"/><path class="cls-1" d="M573.21,386.56,386.55,573.22c.45.68.9,1.37,1.36,2L575.26,387.91C574.58,387.45,573.9,387,573.21,386.56Z"/><path class="cls-1" d="M529,368.14,368.14,529c.2.92.42,1.84.64,2.76l163-163C530.87,368.56,530,368.34,529,368.14Z"/><path class="cls-1" d="M564.14,381.18l-183,183c.4.74.8,1.47,1.21,2.2l183.94-184C565.61,382,564.87,381.58,564.14,381.18Z"/><path class="cls-1" d="M561,379.53,379.53,561c.38.75.76,1.5,1.15,2.25L563.22,380.69C562.48,380.29,561.73,379.91,561,379.53Z"/><path class="cls-1" d="M584.4,394.63,394.63,584.4c.5.63,1,1.25,1.53,1.87l190.11-190.1Z"/><path class="cls-1" d="M503.24,365,365,503.24c0,1.1.06,2.19.11,3.29L506.52,365.16C505.43,365.1,504.33,365.06,503.24,365Z"/><path class="cls-1" d="M507.86,365.24,365.23,507.86c.07,1.06.14,2.12.23,3.18L511,365.46C510,365.37,508.92,365.3,507.86,365.24Z"/><path class="cls-1" d="M587,396.81,396.81,587c.51.61,1,1.22,1.57,1.83L588.87,398.38Z"/><path class="cls-1" d="M512.34,365.57,365.56,512.34c.1,1,.21,2.06.32,3.09L515.42,365.89C514.4,365.77,513.37,365.66,512.34,365.57Z"/><path class="cls-1" d="M612.09,424.73,424.73,612.09c.68.46,1.36.91,2,1.35L613.44,426.78Z"/><path class="cls-1" d="M536.72,370.08,370.07,536.73c.25.88.51,1.75.77,2.63L539.36,370.85C538.48,370.58,537.6,370.32,536.72,370.08Z"/><path class="cls-1" d="M581.7,392.52,392.52,581.7c.49.64,1,1.28,1.48,1.91L583.61,394Z"/><path class="cls-1" d="M597,406.12,406.11,597l1.75,1.66,190.79-190.8C598.11,407.27,597.55,406.69,597,406.12Z"/><path class="cls-1" d="M450.6,374.33l-76.27,76.28q-1.05,2.67-2,5.39L456,372.35Q453.29,373.28,450.6,374.33Z"/><path class="cls-1" d="M633.56,480.31,480.31,633.56c1,.15,2,.28,3,.4L634,483.31C633.84,482.31,633.7,481.31,633.56,480.31Z"/><path class="cls-1" d="M634.11,484.57,484.57,634.11c1,.12,2.05.23,3.08.32L634.43,487.65C634.33,486.63,634.23,485.6,634.11,484.57Z"/><path class="cls-1" d="M627.65,544,544,627.65c1.81-.62,3.6-1.28,5.39-2l76.27-76.28C626.36,547.61,627,545.81,627.65,544Z"/><path class="cls-1" d="M634.54,489,489,634.54c1.06.09,2.12.16,3.18.22L634.76,492.14C634.7,491.08,634.62,490,634.54,489Z"/><path class="cls-1" d="M632.88,476.17,476.17,632.88c1,.18,1.94.34,2.91.49L633.37,479.09C633.21,478.11,633.05,477.14,632.88,476.17Z"/><path class="cls-1" d="M634.84,493.47,493.47,634.84c1.09,0,2.19.09,3.28.12L635,496.76C634.93,495.66,634.89,494.57,634.84,493.47Z"/><path class="cls-1" d="M624.71,551.76l-73,73q3.09-1.28,6.12-2.72L622,557.88Q623.43,554.85,624.71,551.76Z"/><path class="cls-1" d="M631.22,468.21l-163,163,2.76.64L631.85,471Q631.55,469.58,631.22,468.21Z"/><path class="cls-1" d="M632.1,472.14l-160,160c.94.2,1.88.39,2.83.57L632.66,475C632.49,474,632.3,473.08,632.1,472.14Z"/><path class="cls-1" d="M442.12,378,378,442.12c-1,2-1.86,4.06-2.72,6.12l73-72.95Q445.15,376.56,442.12,378Z"/><path class="cls-1" d="M632.77,524.44,524.43,632.77c1.42-.26,2.84-.53,4.25-.84L631.93,528.68C632.23,527.27,632.51,525.85,632.77,524.44Z"/><path class="cls-1" d="M634.35,513.23,513.22,634.35c1.29-.12,2.56-.27,3.84-.43L633.91,517.06C634.07,515.79,634.22,514.51,634.35,513.23Z"/><path class="cls-1" d="M614,427.64,427.64,614c.7.45,1.39.88,2.1,1.31L615.3,429.74C614.87,429,614.43,428.34,614,427.64Z"/><path class="cls-1" d="M634.75,508,508,634.75c1.22-.07,2.44-.16,3.66-.26L634.48,511.68C634.59,510.46,634.68,509.23,634.75,508Z"/><path class="cls-1" d="M633.7,518.69l-115,115c1.34-.19,2.68-.39,4-.62L633.08,522.71C633.31,521.37,633.51,520,633.7,518.69Z"/><path class="cls-1" d="M631.51,530.51l-101,101c1.51-.34,3-.71,4.52-1.12L630.39,535C630.79,533.53,631.16,532,631.51,530.51Z"/><path class="cls-1" d="M431.91,383.39l-48.52,48.53c-1.43,2.44-2.77,4.92-4,7.44l60-60Q435.58,381.25,431.91,383.39Z"/><path class="cls-1" d="M635,498.15,498.15,635h3.4L635,501.55C635,500.42,635,499.29,635,498.15Z"/><path class="cls-1" d="M635,503,503,635c1.18,0,2.35-.06,3.52-.12L634.84,506.51C634.9,505.33,634.94,504.16,635,503Z"/><path class="cls-1" d="M416.88,393.61l-23.27,23.27a134.47,134.47,0,0,0-8.05,11.46l42.77-42.78A134.32,134.32,0,0,0,416.88,393.61Z"/><path class="cls-1" d="M629.84,537,537,629.85q2.44-.71,4.88-1.48l86.49-86.5Q629.16,539.45,629.84,537Z"/><path class="cls-1" d="M624,446.53,446.53,624l2.4,1L625,448.93C624.67,448.13,624.34,447.33,624,446.53Z"/><path class="cls-1" d="M620.94,440,440,621c.76.38,1.53.74,2.29,1.1l179.81-179.8C621.69,441.48,621.32,440.71,620.94,440Z"/><path class="cls-1" d="M625.4,449.94,449.94,625.4c.81.33,1.63.65,2.45,1l174-174C626.05,451.57,625.73,450.76,625.4,449.94Z"/><path class="cls-1" d="M619.31,436.77,436.77,619.31c.74.4,1.49.78,2.24,1.16L620.47,439C620.09,438.26,619.7,437.52,619.31,436.77Z"/><path class="cls-1" d="M617.6,433.66l-183.94,184,2.19,1.21,183-183C618.42,435.12,618,434.39,617.6,433.66Z"/><path class="cls-1" d="M622.51,443.2,443.2,622.51l2.35,1.06,178-178C623.22,444.77,622.87,444,622.51,443.2Z"/><path class="cls-1" d="M614.44,571.66l-42.78,42.78a135.93,135.93,0,0,0,11.45-8.05l23.28-23.28A132.76,132.76,0,0,0,614.44,571.66Z"/><path class="cls-1" d="M630.23,464.37,464.37,630.23c.9.25,1.8.48,2.7.71L630.93,467.07C630.71,466.17,630.48,465.27,630.23,464.37Z"/><path class="cls-1" d="M465,369.6,369.6,465c-.4,1.5-.77,3-1.12,4.52l101-101C468,368.83,466.47,369.2,465,369.6Z"/><path class="cls-1" d="M458.12,371.63l-86.49,86.5c-.53,1.61-1,3.24-1.48,4.87L463,370.15C461.37,370.62,459.74,371.1,458.12,371.63Z"/><path class="cls-1" d="M629.15,460.64,460.64,629.15c.87.27,1.75.52,2.63.77L629.92,463.27C629.67,462.39,629.42,461.51,629.15,460.64Z"/><path class="cls-1" d="M471.32,368.07,368.06,471.32c-.3,1.41-.58,2.82-.84,4.24L475.56,367.23C474.14,367.49,472.73,367.76,471.32,368.07Z"/><path class="cls-1" d="M615.83,430.62,430.62,615.83c.71.43,1.42.85,2.14,1.26L617.09,432.76C616.68,432.05,616.26,431.33,615.83,430.62Z"/><path class="cls-1" d="M595.43,595.48l0,0,0,0Z"/><path class="cls-1" d="M626.73,453.43,453.42,626.74l2.51.89,171.7-171.7C627.34,455.09,627,454.26,626.73,453.43Z"/><path class="cls-1" d="M551.07,375,375,551.07c.33.8.67,1.6,1,2.39L553.46,376C552.66,375.66,551.87,375.32,551.07,375Z"/><path class="cls-1" d="M628,457,457,628l2.57.83L628.82,459.56C628.55,458.7,628.27,457.84,628,457Z"/><path class="cls-1" d="M620.64,560.64l-60,60c2.51-1.26,5-2.6,7.44-4l48.52-48.52Q618.74,564.42,620.64,560.64Z"/><path d="M629.92,463.27,463.27,629.92l1.1.31L630.23,464.37C630.13,464,630,463.64,629.92,463.27Z"/><path d="M631.85,471,471,631.86l1.18.24,160-160C632,471.75,631.94,471.36,631.85,471Z"/><path d="M463,370.15,370.15,463c-.19.66-.37,1.31-.55,2L465,369.6Z"/><path d="M627.63,455.93l-171.7,171.7L457,628,628,457C627.87,456.64,627.75,456.28,627.63,455.93Z"/><path d="M630.93,467.07,467.07,630.94l1.13.28,163-163C631.12,467.83,631,467.45,630.93,467.07Z"/><path d="M626.36,452.39l-174,174,1,.38L626.73,453.43C626.61,453.08,626.49,452.73,626.36,452.39Z"/><path d="M628.82,459.56,459.56,628.82l1.08.33L629.15,460.64Z"/><path d="M456,372.35,372.34,456c-.24.7-.48,1.41-.71,2.13l86.49-86.5Z"/><path d="M448.24,375.29l-73,72.95c-.32.79-.64,1.58-.95,2.37l76.27-76.28C449.81,374.64,449,375,448.24,375.29Z"/><path d="M628.36,541.87l-86.49,86.5,2.13-.72L627.65,544C627.89,543.29,628.13,542.59,628.36,541.87Z"/><path d="M625.66,549.39l-76.27,76.28,2.37-1,73-73C625,551,625.35,550.18,625.66,549.39Z"/><path d="M630.39,535,535,630.39l2-.54L629.84,537C630,536.34,630.22,535.69,630.39,535Z"/><path d="M428.33,385.56l-42.77,42.78c-.75,1.18-1.47,2.37-2.17,3.58l48.52-48.53C430.71,384.1,429.52,384.82,428.33,385.56Z"/><path d="M631.93,528.68,528.68,631.93l1.83-.42,101-101C631.65,529.9,631.8,529.29,631.93,528.68Z"/><path d="M632.66,475,475,632.67l1.2.21L632.88,476.17C632.81,475.77,632.74,475.37,632.66,475Z"/><path d="M633.08,522.71,522.71,633.08c.57-.09,1.15-.2,1.72-.31L632.77,524.44C632.87,523.86,633,523.29,633.08,522.71Z"/><path d="M606.39,583.11l-23.28,23.28a137,137,0,0,0,12.32-10.91l.05-.05A137,137,0,0,0,606.39,583.11Z"/><path d="M616.6,568.08,568.08,616.6c1.2-.7,2.4-1.42,3.58-2.16l42.78-42.78C615.18,570.48,615.9,569.28,616.6,568.08Z"/><path d="M404.54,404.54a135.9,135.9,0,0,0-10.93,12.34l23.27-23.27A135.9,135.9,0,0,0,404.54,404.54Z"/><path d="M622,557.88,557.88,622l2.76-1.35,60-60Q621.33,559.28,622,557.88Z"/><path d="M439.35,379.36l-60,60q-.69,1.36-1.35,2.76L442.12,378C441.19,378.45,440.27,378.89,439.35,379.36Z"/><path d="M634.43,487.65,487.65,634.43l1.31.11L634.54,489C634.5,488.52,634.47,488.09,634.43,487.65Z"/><path d="M634,483.31,483.3,634l1.27.15L634.11,484.57Z"/><path d="M633.37,479.09,479.08,633.37l1.23.19L633.56,480.31C633.5,479.9,633.43,479.49,633.37,479.09Z"/><path d="M635,496.76,496.75,635l1.4,0L635,498.15C635,497.69,635,497.22,635,496.76Z"/><path d="M634.76,492.14,492.14,634.76l1.33.08L634.84,493.47C634.82,493,634.79,492.58,634.76,492.14Z"/><path d="M635,501.55,501.55,635l1.43,0L635,503C635,502.51,635,502,635,501.55Z"/><path d="M634.48,511.68,511.67,634.49l1.55-.14L634.35,513.23C634.4,512.71,634.44,512.19,634.48,511.68Z"/><path d="M633.91,517.06,517.06,633.92l1.63-.22,115-115Z"/><path d="M634.84,506.51,506.5,634.84l1.51-.09L634.75,508C634.78,507.51,634.82,507,634.84,506.51Z"/><path d="M475.56,367.23,367.22,475.56c-.1.58-.21,1.15-.31,1.73L477.29,366.91Z"/><path d="M523.82,367.12,367.11,523.83c.07.4.15.8.22,1.19L525,367.33Z"/><path d="M575.26,387.91,387.91,575.27l.57.84L576.11,388.48Z"/><path d="M578.11,389.88,389.88,578.11c.19.28.39.55.59.83L578.93,390.47Z"/><path d="M519.69,366.44,366.44,519.69c.05.41.12.81.19,1.22L520.91,366.63Z"/><path d="M586.27,396.17,396.16,586.27c.22.26.43.52.65.77L587,396.81Z"/><path d="M527.86,367.9l-160,160c.08.39.15.78.24,1.17L529,368.14Z"/><path d="M511,365.46,365.46,511c0,.43.06.87.1,1.3L512.34,365.57Z"/><path d="M583.61,394,394,583.61l.63.79L584.4,394.63Z"/><path d="M515.42,365.89,365.88,515.43l.15,1.26L516.69,366Z"/><path d="M506.52,365.16,365.15,506.53c0,.44.06.88.08,1.33L507.86,365.24Z"/><path d="M580.89,391.91l-189,189,.61.81L581.7,392.52Z"/><path d="M569.38,384.16,384.16,569.38l.54.88L570.26,384.7Z"/><path d="M572.35,386,386,572.36l.55.86L573.21,386.56Z"/><path d="M625,448.93,448.93,625l1,.4L625.4,449.94C625.27,449.6,625.14,449.27,625,448.93Z"/><path d="M556.79,377.49l-179.3,179.3c.14.33.3.64.45,1L557.75,378Z"/><path d="M546.57,373.26,373.26,546.57c.13.35.25.7.38,1l174-174Z"/><path d="M550.05,374.59,374.59,550.06c.14.33.27.67.4,1L551.07,375Z"/><path d="M553.46,376,376,553.46l.43,1,178-178Z"/><path d="M560,379.05l-181,181c.15.31.32.62.48.93L561,379.53Z"/><path d="M535.62,369.76,369.76,535.62c.1.37.21.74.31,1.11L536.72,370.08Z"/><path d="M566.33,382.39l-183.94,184,.51.9L567.23,382.91Z"/><path d="M563.22,380.69,380.68,563.23l.5.91,183-183Z"/><path d="M539.36,370.85,370.84,539.36c.11.36.22.72.34,1.08L540.44,371.18Z"/><path d="M531.79,368.78l-163,163c.09.38.19.76.28,1.14L532.92,369.06Z"/><path d="M543,372,372,543c.12.35.23.7.36,1.06l171.69-171.7Z"/><path d="M617.09,432.76,432.76,617.09l.9.52L617.6,433.66Z"/><path d="M613.44,426.78,426.78,613.44l.86.55L614,427.64Z"/><path d="M605.36,415.6,415.59,605.36l.79.63L606,416.38Z"/><path d="M611.51,423.89,423.89,611.52l.84.57L612.09,424.73Z"/><path d="M607.48,418.3,418.3,607.48l.8.61,189-189Z"/><path d="M609.53,421.06,421.06,609.53l.82.59L610.12,421.89Z"/><path d="M615.3,429.74,429.74,615.3c.29.18.58.36.88.53L615.83,430.62C615.66,430.32,615.48,430,615.3,429.74Z"/><path d="M622.05,442.25,442.24,622.05l1,.46L622.51,443.2C622.36,442.88,622.2,442.57,622.05,442.25Z"/><path d="M623.56,445.55l-178,178,1,.43L624,446.53C623.85,446.21,623.71,445.88,623.56,445.55Z"/><path d="M469.49,368.48l-101,101-.42,1.83L471.32,368.07Z"/><path d="M620.47,439,439,620.47l.94.48,181-181C620.79,439.64,620.63,439.33,620.47,439Z"/><path d="M618.81,435.85l-183,183,.92.49L619.31,436.77C619.15,436.46,619,436.16,618.81,435.85Z"/><path d="M603.19,413,413,603.19l.77.64,190.11-190.1Z"/><path d="M492,365.25,365.24,492l-.09,1.5L493.49,365.16Z"/><path d="M591.4,400.66,400.66,591.41l.68.73,190.8-190.8Z"/><path d="M497,365,365,497c0,.47,0,1,0,1.43L498.44,365Z"/><path d="M588.87,398.38,398.38,588.87l.66.75L589.62,399.05Z"/><path d="M593.88,403,403,593.88l.7.72L594.59,403.7Z"/><path d="M596.3,405.4,405.4,596.3c.24.23.48.46.71.7L597,406.12Z"/><path d="M481.3,366.3l-115,115c-.08.54-.15,1.08-.22,1.62L482.93,366.08Z"/><path d="M486.77,365.65,365.65,486.77c-.06.52-.1,1-.14,1.55L488.32,365.51Z"/><path d="M601,410.38,410.37,601l.76.66L601.61,411.13Z"/><path d="M598.65,407.86,407.86,598.66l.73.68L599.33,408.59Z"/><path d="M501.84,365,365,501.84c0,.47,0,.94,0,1.4L503.24,365Z"/></g></svg>