<svg xmlns="http://www.w3.org/2000/svg" viewBox="0 0 1000 1000"><defs><style>.cls-1{fill:#ffbc58;}.cls-2{fill:#ff6442;}.cls-3{fill:#216f9b;}.cls-4{opacity:0.55;}</style></defs><g id="레이어_4" data-name="레이어 4"><rect class="cls-1" x="200" y="495" width="40" height="10"/><rect class="cls-2" x="240" y="495" width="40" height="10"/><rect class="cls-1" x="280" y="495" width="40" height="10"/><rect class="cls-3" x="320" y="495" width="40" height="10"/><rect class="cls-1" x="360" y="495" width="40" height="10"/><rect class="cls-2" x="400" y="495" width="40" height="10"/><rect class="cls-1" x="440" y="495" width="40" height="10"/><rect class="cls-3" x="480" y="495" width="40" height="10"/><rect class="cls-1" x="520" y="495" width="40" height="10"/><rect class="cls-2" x="560" y="495" width="40" height="10"/><rect class="cls-1" x="600" y="495" width="40" height="10"/><rect class="cls-3" x="640" y="495" width="40" height="10"/><rect class="cls-1" x="680" y="495" width="40" height="10"/><rect class="cls-2" x="720" y="495" width="40" height="10"/><rect class="cls-1" x="760" y="495" width="40" height="10"/></g></svg>