<svg xmlns="http://www.w3.org/2000/svg" viewBox="0 0 1000 1000"><defs><style>.cls-1{fill:#ffbc58;}.cls-2{fill:#ff6442;}.cls-3{fill:#216f9b;}.cls-4{opacity:0.55;}</style></defs><g id="레이어_4" data-name="레이어 4"><rect class="cls-1" x="425" y="480" width="10" height="40"/><rect class="cls-2" x="435" y="480" width="10" height="40"/><rect class="cls-1" x="445" y="480" width="10" height="40"/><rect class="cls-3" x="455" y="480" width="10" height="40"/><rect class="cls-1" x="465" y="480" width="10" height="40"/><rect class="cls-2" x="475" y="480" width="10" height="40"/><rect class="cls-1" x="485" y="480" width="10" height="40"/><rect class="cls-3" x="495" y="480" width="10" height="40"/><rect class="cls-1" x="505" y="480" width="10" height="40"/><rect class="cls-2" x="515" y="480" width="10" height="40"/><rect class="cls-1" x="525" y="480" width="10" height="40"/><rect class="cls-3" x="535" y="480" width="10" height="40"/><rect class="cls-1" x="545" y="480" width="10" height="40"/><rect class="cls-2" x="555" y="480" width="10" height="40"/><rect class="cls-1" x="565" y="480" width="10" height="40"/></g></svg>