<svg xmlns="http://www.w3.org/2000/svg" viewBox="0 0 1000 1000"><defs><style>.cls-1{fill:#fff;}.cls-2{fill:#ff6442;}.cls-3{fill:#216f9b;}.cls-4{fill:#ffbc58;}.cls-5{opacity:0.55;}</style></defs><g id="레이어_5" data-name="레이어 5"><rect class="cls-1" width="1000" height="1000"/><rect x="32.04" y="32.04" width="935.91" height="935.91"/><rect class="cls-1" x="64.09" y="64.09" width="871.82" height="871.82"/><rect x="96.13" y="96.13" width="807.73" height="807.73"/><rect class="cls-1" x="128.18" y="128.18" width="743.65" height="743.65"/><rect x="160.22" y="160.22" width="679.56" height="679.56"/><rect class="cls-1" x="192.27" y="192.27" width="615.47" height="615.47"/><rect x="224.31" y="224.31" width="551.38" height="551.38"/><rect class="cls-2" x="288.84" y="256.35" width="32.49" height="487.29"/><rect class="cls-3" x="353.81" y="256.35" width="32.49" height="487.29"/><rect class="cls-2" x="418.78" y="256.35" width="32.49" height="487.29"/><rect class="cls-3" x="483.76" y="256.35" width="32.49" height="487.29"/><rect class="cls-2" x="548.73" y="256.35" width="32.49" height="487.29"/><rect class="cls-3" x="613.7" y="256.35" width="32.49" height="487.29"/><rect class="cls-2" x="678.67" y="256.35" width="32.49" height="487.29"/><rect class="cls-4" x="256.35" y="256.35" width="32.49" height="487.29"/><rect class="cls-4" x="321.33" y="256.35" width="32.49" height="487.29"/><rect class="cls-4" x="386.3" y="256.35" width="32.49" height="487.29"/><rect class="cls-4" x="451.27" y="256.35" width="32.49" height="487.29"/><rect class="cls-4" x="516.24" y="256.35" width="32.49" height="487.29"/><rect class="cls-4" x="581.22" y="256.35" width="32.49" height="487.29"/><rect class="cls-4" x="646.19" y="256.35" width="32.49" height="487.29"/><rect class="cls-4" x="711.16" y="256.35" width="32.49" height="487.29"/></g></svg>