<?xml version="1.0" encoding="UTF-8"?><svg xmlns="http://www.w3.org/2000/svg" viewBox="0 0 1000 1000"><defs><style>.i{opacity:.55;}</style></defs><g id="a"/><g id="b"/><g id="c"/><g id="d"/><g id="e"/><g id="f" class="i"/><g id="g"><g><path d="M102.27,533.11l11.25-16.52c10.99,6.81,23.25,10.58,36.01,10.58,9.82,0,14.16-3.26,14.16-7.65,0-4.97-4.32-6.79-21.84-10.48-24.27-5.19-33.92-14.1-33.92-27.87,0-16.63,15.53-27.94,41.02-27.94,15.9,0,29.35,6.25,38.63,12.19l-11.86,15.89c-9.01-5.44-19.34-8.52-29.19-8.52-8.26,0-12.36,2.95-12.36,7.14,0,4.96,5.47,6.12,20.61,9.5,27.54,6.17,35.2,14.01,35.2,28.54,0,16.17-15.41,28.81-44.04,28.81-15.92,0-32.38-6.17-43.65-13.67Z"/><path d="M192.56,499.95c0-29.2,22.53-46.72,46.43-46.72,27.52,0,42.01,18.58,42.01,42.83,0,4.85-.75,9.64-1.11,11.84h-67.7v-17.74h49.81l-4.17,5.04c0-14.32-6.23-21.85-17.96-21.85-13.07,0-21.65,8.86-21.65,26.6s10.08,26.65,27.43,26.65c8.1,0,15.07-2.2,22.99-6.2l8.77,15.94c-10.19,6.54-23.42,10.43-35.38,10.43-27.82,0-49.47-17.16-49.47-46.83Z"/><path d="M278.21,527.43l15.25-16.44c6.7,8.35,14.63,12.87,22.37,12.87,11.93,0,18.06-5.21,18.06-21.26v-24.98h-45.79v-22.24h72.37v49.39c0,22.99-11.33,42.01-43.76,42.01-13.01,0-28.28-5.07-38.51-19.35Z"/><path d="M366.68,523.82h26.53v-47.69h-26.53v-20.75h79.58v20.75h-26.58v47.69h26.58v20.8h-79.58v-20.8Z"/><path d="M452.79,455.38h24.46l23.7,37.66c3.08,5.13,7.24,13.39,9.97,18.7h.6c-.98-10.94-2.21-22.62-2.21-31.57v-24.79h24.67v89.24h-24.47l-23.7-37.66c-3.07-5.01-7.28-13.13-9.97-18.7h-.72c1.11,11.07,2.35,22.62,2.35,31.58v24.78h-24.67v-89.24Z"/><path d="M628.91,455.38h26.48v35.87h.72l32.8-35.87h28.9l-62.42,66.79v22.45h-26.48v-89.24Zm37.14,48.8l15.22-16.46,39.4,56.9h-28.75l-25.86-40.44Z"/><path d="M724.42,523.82h26.53v-47.69h-26.53v-20.75h79.58v20.75h-26.58v47.69h26.58v20.8h-79.58v-20.8Z"/><path d="M810.5,455.38h27.83l11.49,41.54,3.93,16.21h.72l3.89-16.21,11.53-41.54h27.83v89.24h-22.44v-8.3c0-13.2,2.32-41.79,3.56-54.45h-.54l-9,31.46-9.12,28.24h-12.87l-9.28-28.24-8.4-31.46h-.61c1.34,12.66,3.55,41.25,3.55,54.45v8.3h-22.08v-89.24Z"/></g></g><g id="h"/></svg>