<svg id="레이어_2" data-name="레이어 2" xmlns="http://www.w3.org/2000/svg" viewBox="0 0 1000 1000"><defs><style>.cls-1,.cls-2,.cls-3,.cls-4{fill:none;stroke-miterlimit:10;}.cls-1{stroke:#000;stroke-width:18.72px;}.cls-2,.cls-3,.cls-4{stroke:#72ff4a;stroke-linecap:round;}.cls-2{stroke-width:25.89px;}.cls-3{stroke-width:21.06px;}.cls-4{stroke-width:16.06px;}.cls-5{fill:#72ff4a;}.cls-6{isolation:isolate;}.cls-7{opacity:0.55;}</style></defs><path d="M780.74,607.68C780.74,452.64,655.05,327,500,327S219.26,452.64,219.26,607.68"/><ellipse cx="500" cy="607.68" rx="280.74" ry="187.16"/><path d="M611.84,347.26l-9.17-110.64h0c-3.84-48.5-48.34-86.77-102.67-86.77s-98.83,38.27-102.67,86.77h0l-9.17,110.64-.46,9.27c0,56.38,50.28,102.08,112.3,102.08s112.3-45.7,112.3-102.08Z"/><path class="cls-1" d="M586.51,224.44V342.35c63.56,0,103.13-20.86,85.88-38.12-14.72-14.72-66.79-24.45-81.8-82"/><line class="cls-2" x1="460.65" y1="343.02" x2="458.75" y2="407.86"/><line class="cls-3" x1="428.97" y1="322.13" x2="425.3" y2="390.66"/><line class="cls-4" x1="405.52" y1="289.85" x2="400.29" y2="361.34"/><path class="cls-5" d="M461.88,195a15.18,15.18,0,0,1,7.53,2.43c4.53,3.13,4.23,8-.68,10.93L441,224.81a16.87,16.87,0,0,1-9.55,2,15.35,15.35,0,0,1-7.53-2.43c-4.53-3.14-4.21-8,.69-10.95L452.34,197A16.77,16.77,0,0,1,461.88,195Z"/><g class="cls-6"><path class="cls-5" d="M482.51,211.53a18.42,18.42,0,0,1,2.75.4c6.28,1.44,9.54,5.87,7.28,9.9l-15,26.64c-1.93,3.44-7.27,5.47-12.71,5.09a18.55,18.55,0,0,1-2.76-.4c-6.28-1.44-9.54-5.87-7.28-9.89l15-26.64C471.73,213.18,477.07,211.15,482.51,211.53Z"/><path class="cls-5" d="M515.39,213.83c5.43.38,10,3.1,10.64,6.72l5.47,28.28c.83,4.24-3.88,8.11-10.5,8.65a19.38,19.38,0,0,1-2.85,0c-5.43-.38-9.93-3.1-10.63-6.72l-5.47-28.27c-.83-4.24,3.88-8.12,10.5-8.66A19.24,19.24,0,0,1,515.39,213.83Z"/></g><path class="cls-5" d="M544.92,179.51a18.23,18.23,0,0,1,3.66.64L572.22,187c6.08,1.76,8.76,6.34,6,10.24-2.22,3.13-7.29,4.86-12.35,4.51a18.1,18.1,0,0,1-3.66-.64l-23.63-6.84c-6.09-1.76-8.77-6.34-6-10.23C534.8,180.89,539.86,179.16,544.92,179.51Z"/><path class="cls-5" d="M535.15,159.62c4,.28,7.69,1.83,9.56,4.32,2.89,3.84.37,8.47-5.65,10.34l-10.88,3.37a18.13,18.13,0,0,1-6.58.74c-4-.28-7.68-1.83-9.56-4.32-2.89-3.85-.36-8.47,5.65-10.34l10.89-3.38A18.1,18.1,0,0,1,535.15,159.62Z"/><path class="cls-5" d="M482,155.9a16.25,16.25,0,0,1,6.16,1.63l9.46,4.79c5.22,2.66,6.09,7.52,1.92,10.88-2.68,2.16-6.81,3.17-10.81,2.89a16.16,16.16,0,0,1-6.17-1.63l-9.45-4.79c-5.22-2.65-6.09-7.52-1.93-10.87C473.85,156.63,478,155.62,482,155.9Z"/><path class="cls-5" d="M465.57,174c5.06.36,9.4,2.75,10.49,6.11,1.35,4.19-2.87,8.29-9.4,9.16l-25.44,3.41a18.5,18.5,0,0,1-3.78.12c-5.06-.35-9.41-2.75-10.5-6.11-1.34-4.18,2.86-8.29,9.4-9.16l25.44-3.41A19.35,19.35,0,0,1,465.57,174Z"/><path class="cls-5" d="M541.23,200.57a14.24,14.24,0,0,1,8.62,3.29l21.37,19.86c3.77,3.51,2.39,8.33-3.12,10.77a17.61,17.61,0,0,1-8.19,1.33,14.28,14.28,0,0,1-8.62-3.3l-21.36-19.86c-3.78-3.51-2.39-8.33,3.11-10.76A17.36,17.36,0,0,1,541.23,200.57Z"/></svg>