<svg xmlns="http://www.w3.org/2000/svg" viewBox="0 0 1000 1000"><defs><style>.cls-1{opacity:0.55;}.cls-2{fill:#ffbc58;}.cls-3{fill:#ff6442;}.cls-4{fill:#216f9b;}</style></defs><g id="레이어_7" data-name="레이어 7"><path d="M115.66,510.42h78.7v19h-78.7Z"/><path d="M206,529.45H181.84l-17.72-48.63c-3.35-9.63-6.34-19.34-9.39-29.11H154c-3,9.77-5.82,19.48-9.29,29.11l-17.72,48.63H104l36.93-96h27.31Z"/><path d="M231,433.48h24v76.94h54.74v19H231Z"/><path d="M329,517l10.38-15.18a71.22,71.22,0,0,0,39.81,12c12.67,0,18.55-4.71,18.55-10.69s-4.33-9.22-25.85-13.7c-25.72-5.42-36.87-14.59-36.87-29.26,0-16.95,15.55-29,42.53-29,16.17,0,30.69,6.35,40.48,12.78l-10.94,14.62A59.81,59.81,0,0,0,375.43,449c-11.62,0-16.59,4.43-16.59,10,0,6.44,6.79,8.55,24.36,12.38,30.42,6.73,38.46,15,38.46,30.28,0,16.71-16.06,30.11-45.61,30.11C358.32,531.79,341,525.05,329,517Z"/><path d="M445.62,503.49c0-21.51,18.66-32.28,65.57-35.48-.84-10.24-7.25-17.66-22.25-17.66-10.45,0-20.79,4.45-30.87,9.91l-8.79-15.82c12-7.11,27.66-13.29,44.13-13.29,26.72,0,41.75,14.61,41.75,42v56.34H515.5l-1.8-11.64H513c-10,7.66-22.66,14-35.39,14C458.75,531.79,445.62,520,445.62,503.49ZM511.19,502V482.84c-33,2.07-42.42,8.93-42.42,18.78,0,7.92,7,11.42,16.12,11.42C494.3,513,502.82,508.67,511.19,502Z"/><path d="M572.31,433.48h22.31l29.83,45.66c3.55,5.67,8.27,14.4,11.66,20.27h.69c-.95-12-2.09-24.45-2.09-34.33v-31.6H657.1v96H634.79L605,483.8c-3.55-5.59-8.38-14.23-11.66-20.27h-.78c1,12.1,2.17,24.45,2.17,34.32v31.6H572.31Z"/><path d="M685.8,517l10.38-15.18a71.28,71.28,0,0,0,39.82,12c12.66,0,18.54-4.71,18.54-10.69s-4.32-9.22-25.85-13.7C703,484,691.82,474.81,691.82,460.14c0-16.95,15.56-29,42.53-29,16.17,0,30.68,6.35,40.48,12.78l-10.94,14.62A59.81,59.81,0,0,0,732.2,449c-11.62,0-16.59,4.43-16.59,10,0,6.44,6.79,8.55,24.36,12.38,30.42,6.73,38.47,15,38.47,30.28,0,16.71-16.06,30.11-45.61,30.11C715.1,531.79,697.73,525.05,685.8,517Z"/><path d="M801.75,481.36c0-31.32,23.88-50.21,49.57-50.21,28.86,0,44.68,19.22,44.68,45.67a76.36,76.36,0,0,1-1,11.66H819V471.81h60.25l-4.35,5.1c0-18.14-8.41-27.41-22.87-27.41-15.45,0-27,11-27,31.86,0,21.76,12.84,32,32.5,32,9.73,0,17.81-2.81,26.4-7.57l8.12,14.72a70.65,70.65,0,0,1-37.7,11.31C824.89,531.79,801.75,513.29,801.75,481.36Z"/><rect class="cls-2" x="95.36" y="555.36" width="53.95" height="13.49"/><rect class="cls-3" x="149.31" y="555.36" width="53.95" height="13.49"/><rect class="cls-2" x="203.27" y="555.36" width="53.95" height="13.49"/><rect class="cls-4" x="257.22" y="555.36" width="53.95" height="13.49"/><rect class="cls-2" x="311.17" y="555.36" width="53.95" height="13.49"/><rect class="cls-3" x="365.12" y="555.36" width="53.95" height="13.49"/><rect class="cls-2" x="419.07" y="555.36" width="53.95" height="13.49"/><rect class="cls-4" x="473.02" y="555.36" width="53.95" height="13.49"/><rect class="cls-2" x="526.98" y="555.36" width="53.95" height="13.49"/><rect class="cls-3" x="580.93" y="555.36" width="53.95" height="13.49"/><rect class="cls-2" x="634.88" y="555.36" width="53.95" height="13.49"/><rect class="cls-4" x="688.83" y="555.36" width="53.95" height="13.49"/><rect class="cls-2" x="742.78" y="555.36" width="53.95" height="13.49"/><rect class="cls-3" x="796.73" y="555.36" width="53.95" height="13.49"/><rect class="cls-2" x="850.69" y="555.36" width="53.95" height="13.49"/></g></svg>