<svg xmlns="http://www.w3.org/2000/svg" viewBox="0 0 1000 1000"><defs><style>.cls-1{fill:#ffbc58;}.cls-2{fill:#ff6442;}.cls-3{fill:#216f9b;}.cls-4{fill:none;stroke:#ff6442;stroke-miterlimit:10;stroke-width:24.48px;}.cls-5{isolation:isolate;}.cls-6{opacity:0.55;}</style></defs><g id="레이어_4" data-name="레이어 4"><rect class="cls-1" x="216.73" width="783.27" height="783.27"/><path class="cls-1" d="M668.52,825.52c106.54-106.54,156-363.25,12.6-506.64s-400.41-100.71-510.18,9.06"/><path class="cls-2" d="M729.25,744.77c-11.56,11.73-23.61,22.8-38.28,30.93q-4.83,2.68-9.85,4.93a133.52,133.52,0,0,1-24.23,33.26c-18.7,18.7-42.59,31.4-71,37.76a204.06,204.06,0,0,1-45.63,4.64,269.6,269.6,0,0,1-50.83-5.43,342.78,342.78,0,0,1-54.13-15.73,415.11,415.11,0,0,1-55.46-26,473.57,473.57,0,0,1-54.83-36A518.53,518.53,0,0,1,226.9,675a473.57,473.57,0,0,1-36-54.83,415.11,415.11,0,0,1-26-55.46,343.85,343.85,0,0,1-15.73-54.13,268.73,268.73,0,0,1-5.42-50.82,203.36,203.36,0,0,1,4.63-45.63c6.36-28.44,19.07-52.33,37.76-71a133.42,133.42,0,0,1,31-23.05c4.58-11.15,9.61-22.08,16.47-32.59a136.55,136.55,0,0,1,10.3-14.18c-31.5,8-59.49,23.06-82,45.59C66.29,414.47,105,608.2,248.42,751.58s337.11,182.13,432.7,86.54C706.32,812.92,722.18,780.89,729.25,744.77Z"/><path class="cls-3" d="M774.7,615.94c-.16.32-.34.64-.51,1-7.5,13.56-15.58,26-23.22,39.37A34.08,34.08,0,0,1,748.8,661c-2.45,3.61-4.61,6.93-6.92,10.68-.58,1.15-.72,2.45-1.59,3.31-2,2.78-4.08,5.54-6.2,8.2a163.49,163.49,0,0,1-4.61,15.95,136.45,136.45,0,0,1-86.56,86.57,166.53,166.53,0,0,1-17.72,5,198.75,198.75,0,0,1-45.82,4.6,257,257,0,0,1-47.56-5.06,316.13,316.13,0,0,1-33.59-8.65q-8.55-2.7-17.11-5.91a389.14,389.14,0,0,1-52-24.08q-4.38-2.42-8.74-5a446.62,446.62,0,0,1-42.74-28.46A485.89,485.89,0,0,1,285.34,627a442.09,442.09,0,0,1-35-52.4A393.29,393.29,0,0,1,226.94,526c-.61-1.53-1.2-3.06-1.79-4.6a329.46,329.46,0,0,1-14.38-48c-.29-1.33-.57-2.65-.83-4a260.69,260.69,0,0,1-5.3-48.82,199.36,199.36,0,0,1,4.6-45.82,167.2,167.2,0,0,1,5-17.72,136.47,136.47,0,0,1,86.56-86.56,166.72,166.72,0,0,1,17.07-4.87c24.56-15.26,49.46-24.64,74.37-39l.8-.44c-67.52-7.51-129.15,8.81-171.75,51.41-94.79,94.79-59.45,283.81,78.93,422.19s327.41,173.72,422.19,78.93C763.13,738,779.84,679.92,774.7,615.94Z"/><path class="cls-2" d="M645.35,354.65a417.76,417.76,0,0,1,37.9,43.49A385.75,385.75,0,0,1,713,443.75q4.59,8.29,8.69,16.71c4.74,9.75,9,19.59,12.64,29.42,3.52,9.43,6.53,18.88,9,28.26q2.22,8.4,3.86,16.71A232.45,232.45,0,0,1,751.69,577a183.06,183.06,0,0,1-4.29,43.29A155.91,155.91,0,0,1,742.62,637a130.14,130.14,0,0,1-81.83,81.84,156.76,156.76,0,0,1-16.73,4.78,183,183,0,0,1-43.29,4.29,227.81,227.81,0,0,1-41.19-4.37,277.07,277.07,0,0,1-29.1-7.38q-7.41-2.31-14.84-5A341.29,341.29,0,0,1,470.5,690.6c-2.53-1.38-5.07-2.8-7.59-4.25A389.41,389.41,0,0,1,425.74,662a415.82,415.82,0,0,1-42.87-36.46,421.06,421.06,0,0,1-37.62-41.86A382.24,382.24,0,0,1,313.46,537a343.18,343.18,0,0,1-21.19-43.41c-.55-1.37-1.09-2.75-1.62-4.12a293.9,293.9,0,0,1-13-43c-.26-1.19-.51-2.38-.75-3.56a235.18,235.18,0,0,1-4.85-43.74,183.06,183.06,0,0,1,4.29-43.29,155.91,155.91,0,0,1,4.78-16.72A130.12,130.12,0,0,1,363,257.38a155.91,155.91,0,0,1,16.72-4.78A183.11,183.11,0,0,1,423,248.31a232.66,232.66,0,0,1,42.18,4.53q8.28,1.64,16.69,3.86c9.38,2.48,18.84,5.49,28.28,9,9.81,3.67,19.65,7.89,29.39,12.64q8.43,4.09,16.73,8.69a385.75,385.75,0,0,1,45.61,29.71,418.94,418.94,0,0,1,43.49,37.9m26.34-26.34C547,203.63,374.37,174.1,286.11,262.36s-58.73,260.89,66,385.58,297.31,154.21,385.57,65.95S796.37,453,671.69,328.31Z"/><path class="cls-3" d="M664.74,335.26a340.52,340.52,0,0,1,31.49,36.21,316.68,316.68,0,0,1,24.6,38q3.79,6.92,7.17,13.93c3.91,8.12,7.39,16.32,10.41,24.51,2.9,7.85,5.38,15.72,7.42,23.54q1.81,7,3.18,13.91a198.91,198.91,0,0,1,3.79,35.08A161.92,161.92,0,0,1,748.94,560a141.38,141.38,0,0,1-4.4,15.26A120,120,0,0,1,669.79,650a139.63,139.63,0,0,1-15.25,4.41A162,162,0,0,1,615,658.24a194.52,194.52,0,0,1-33.62-3.55,232.55,232.55,0,0,1-23.79-5.9q-6.08-1.85-12.14-4a282,282,0,0,1-37-16.44q-3.14-1.67-6.24-3.41a318.82,318.82,0,0,1-30.53-19.55A340.79,340.79,0,0,1,436.41,576a346,346,0,0,1-31.07-33.81,313.4,313.4,0,0,1-27.67-39.53,286,286,0,0,1-18.37-37c-.48-1.17-.94-2.34-1.4-3.51a248.42,248.42,0,0,1-11.23-36.72c-.22-1-.44-2-.65-3.05A204.24,204.24,0,0,1,341.76,385a162,162,0,0,1,3.86-39.52A139.63,139.63,0,0,1,350,330.21a120.07,120.07,0,0,1,74.74-74.75,141.38,141.38,0,0,1,15.26-4.4,161.92,161.92,0,0,1,39.51-3.86A199.85,199.85,0,0,1,514.62,251q6.92,1.37,13.9,3.18c7.83,2,15.7,4.52,23.55,7.42,8.19,3,16.39,6.5,24.5,10.4q7,3.39,13.94,7.18a317.91,317.91,0,0,1,38,24.6,340.52,340.52,0,0,1,36.21,31.49m25.94-25.93C583.26,201.91,432,179,352.8,258.23S296.48,488.7,403.89,596.11,662.57,726.4,741.77,647.2s56.32-230.46-51.09-337.87Z"/><path class="cls-2" d="M677.44,322.56a259.14,259.14,0,0,1,24.43,28.18,243.16,243.16,0,0,1,19,29.64q2.91,5.39,5.51,10.86c3,6.31,5.66,12.69,8,19.09,2.2,6.1,4.1,12.23,5.66,18.33q1.39,5.41,2.44,10.81a162.36,162.36,0,0,1,3,27.27,137.05,137.05,0,0,1-3.32,34.65,120.23,120.23,0,0,1-3.91,13.36,106.61,106.61,0,0,1-65.6,65.6,120.23,120.23,0,0,1-13.36,3.91,137,137,0,0,1-34.65,3.32,155.82,155.82,0,0,1-25.42-2.66,182.91,182.91,0,0,1-18-4.32q-4.6-1.35-9.2-2.94a217.63,217.63,0,0,1-28.11-12c-1.58-.82-3.17-1.65-4.74-2.51a240.39,240.39,0,0,1-23.3-14.39,257.71,257.71,0,0,1-27-21.74,263.54,263.54,0,0,1-23.9-25.14A239.51,239.51,0,0,1,442,470.3a222.45,222.45,0,0,1-15.11-29.75c-.39-.94-.78-1.89-1.15-2.84a196.8,196.8,0,0,1-9.2-29.62c-.19-.82-.36-1.64-.53-2.46a166.74,166.74,0,0,1-3.57-30.2,137.05,137.05,0,0,1,3.33-34.65,120.19,120.19,0,0,1,3.9-13.36,106.61,106.61,0,0,1,65.6-65.6,120.23,120.23,0,0,1,13.36-3.91,137.05,137.05,0,0,1,34.65-3.32,163.29,163.29,0,0,1,27.27,3q5.38,1.05,10.81,2.44c6.1,1.56,12.23,3.46,18.33,5.67,6.4,2.31,12.78,5,19.09,8,3.65,1.73,7.28,3.57,10.86,5.52a241.12,241.12,0,0,1,29.64,19,260.23,260.23,0,0,1,28.18,24.43m24.68-24.68c-87.62-87.63-213.82-103.5-281.86-35.45s-52.17,194.24,35.45,281.86,213.82,103.5,281.87,35.45,52.17-194.24-35.46-281.86Z"/><path class="cls-3" d="M693,307A184.11,184.11,0,0,1,711,327.78a173.84,173.84,0,0,1,13.83,21.94q2.1,4,4,8c2.15,4.65,4.07,9.37,5.74,14.12,1.58,4.49,2.94,9,4.07,13.54.66,2.66,1.25,5.32,1.75,8a128.35,128.35,0,0,1,2.22,20.09,114,114,0,0,1-2.83,30.12,102.6,102.6,0,0,1-3.43,11.6,94.05,94.05,0,0,1-57.08,57.08,103.42,103.42,0,0,1-11.61,3.44,114,114,0,0,1-30.12,2.83,124.69,124.69,0,0,1-17.89-1.85c-4.22-.75-8.48-1.71-12.72-2.87-2.17-.6-4.35-1.25-6.51-2a157.37,157.37,0,0,1-20-8c-1.13-.54-2.26-1.1-3.38-1.67a171.83,171.83,0,0,1-16.67-9.68,181.84,181.84,0,0,1-19.44-14.76,187.34,187.34,0,0,1-17.32-17.19,174.62,174.62,0,0,1-18.46-24.2A163.94,163.94,0,0,1,493,413.29l-.92-2.21a151.53,151.53,0,0,1-7.33-23.1c-.14-.64-.29-1.28-.42-1.92a132.87,132.87,0,0,1-2.93-23.57,114,114,0,0,1,2.83-30.12,103.42,103.42,0,0,1,3.44-11.61,94.05,94.05,0,0,1,57.08-57.08,102.6,102.6,0,0,1,11.6-3.43,114.05,114.05,0,0,1,30.12-2.83,129.81,129.81,0,0,1,20.1,2.22c2.65.5,5.31,1.09,8,1.75,4.52,1.13,9,2.49,13.54,4.07,4.75,1.67,9.47,3.59,14.12,5.74q4.07,1.89,8,4A173,173,0,0,1,672.22,289,183.24,183.24,0,0,1,693,307m23.45-23.45c-69.39-69.4-172.43-78.88-230.13-21.18s-48.22,160.74,21.17,230.14S680,571.35,737.67,513.64s48.22-160.73-21.18-230.13Z"/><path class="cls-1" d="M776.21,395.07c6.34-23.94,24.52-39.81,45.14-52.36a67.64,67.64,0,0,0,8.8-6.78c2-1.73,4.62-2.88,7.07-4.18,5.62-3.32,10.38-7.5,15.86-11.25a187.62,187.62,0,0,0,20.24-16.4c-2.75-1.38-4.89-3.52-5.38-6.82-.72-3.61-1-7.07-1.88-10.53,0-.87.15-1.59.15-2.45-.87-3.75-1.88-7.07-.43-10.53,3.31-7.65,8.79-14.86,6.05-23.66-3.75-11.25-8.07-21.63-14.56-31.87-.44-1-.44-2.16-1-3-1.3-2.74-2.89-5.19-4.33-7.79-.72-1.3-2.16-2.16-3-3.32-7.93-12-18-20.91-28.41-30.14-.72-.72-2-.87-3.18-1.44a110.64,110.64,0,0,0-32.88-13.85c-12.26-2.74-22.93-7.07-35-7.64a263.88,263.88,0,0,0-35.34.14c-.43.14-.86.58-1.29.72-18.18,2-34.76,7.93-48.47,19.33a170.08,170.08,0,0,0-24.95,24.95c-13.12,16.59-29.85,29.86-49.47,37.65-.72.14-1.44-.29-2.16-.15-3-.14-6.21.15-8.8-1a55.3,55.3,0,0,1-10.1-6.79l-9.9,8.38-9,8.15c-52.14,52.13-47.91,140.89,9.45,198.25s146.11,61.58,198.24,9.44l8.15-9,4.78-5.64a135.06,135.06,0,0,1,5.82-37.94C776.5,396.8,776.06,395.79,776.21,395.07Z"/><path class="cls-2" d="M724.93,275.07a123.83,123.83,0,0,1,25.86,37.51A117,117,0,0,1,757.67,333a111.92,111.92,0,0,1,2.9,20.61,99.72,99.72,0,0,1-5.85,39.07,89.68,89.68,0,0,1-53.53,53.53,99.72,99.72,0,0,1-39.07,5.85,111.92,111.92,0,0,1-20.61-2.9,117,117,0,0,1-20.41-6.88,126,126,0,0,1-63.37-63.37,117,117,0,0,1-6.88-20.41A111.05,111.05,0,0,1,548,337.88a99.71,99.71,0,0,1,5.84-39.07,89.68,89.68,0,0,1,53.53-53.53,99.9,99.9,0,0,1,39.07-5.85,111.92,111.92,0,0,1,20.61,2.9,117,117,0,0,1,20.41,6.88,123.71,123.71,0,0,1,37.51,25.86m24.24-24.23c-57.36-57.36-146.34-61.36-198.76-9s-48.41,141.4,9,198.76S705.69,502,758.11,449.59s48.41-141.4-8.94-198.75Z"/><path class="cls-4" d="M756,422c55.3,51.61,105.52,65.6,105.52,35.34,0-27.23-39.15-84.38.16-151.44"/><path class="cls-4" d="M855.92,304.09,779.8,380.21"/><path class="cls-3" d="M763.75,236.25a119.26,119.26,0,0,1,24.92,36.13A112.58,112.58,0,0,1,795.3,292a107,107,0,0,1,2.8,19.84,96,96,0,0,1-5.61,37.61A86.25,86.25,0,0,1,741,401a96,96,0,0,1-37.61,5.61,107,107,0,0,1-19.84-2.8,112.86,112.86,0,0,1-19.66-6.63,121.51,121.51,0,0,1-61-61.05,113.71,113.71,0,0,1-6.63-19.66,107,107,0,0,1-2.8-19.84A96,96,0,0,1,599,259a86.25,86.25,0,0,1,51.51-51.51,96,96,0,0,1,37.61-5.61A106.9,106.9,0,0,1,708,204.7a112.58,112.58,0,0,1,19.66,6.63,119.26,119.26,0,0,1,36.13,24.92m23.32-23.32c-55.25-55.25-140.92-59.15-191.36-8.71s-46.54,136.11,8.71,191.36,140.93,59.15,191.36,8.71,46.54-136.11-8.71-191.36Z"/><path class="cls-2" d="M800.1,199.9a114.78,114.78,0,0,1,24,34.75,107.85,107.85,0,0,1,6.39,18.9,103.06,103.06,0,0,1,2.7,19.08,92,92,0,0,1-5.37,36.15,82.82,82.82,0,0,1-49.49,49.49,92.19,92.19,0,0,1-36.15,5.37,103.06,103.06,0,0,1-19.08-2.7,109.53,109.53,0,0,1-18.9-6.39,116.9,116.9,0,0,1-58.72-58.72,109.53,109.53,0,0,1-6.39-18.9,103.06,103.06,0,0,1-2.7-19.08,92.19,92.19,0,0,1,5.37-36.15,82.82,82.82,0,0,1,49.49-49.49,92,92,0,0,1,36.15-5.37,103.06,103.06,0,0,1,19.08,2.7,107.85,107.85,0,0,1,18.9,6.39,114.78,114.78,0,0,1,34.75,24m22.4-22.4c-53.14-53.15-135.5-56.94-184-8.49S593.88,299.84,647,353s135.51,56.94,184,8.48,44.66-130.82-8.49-184Z"/><ellipse class="cls-1" cx="757.15" cy="242.85" rx="124.07" ry="137.1" transform="translate(50.05 606.52) rotate(-45)"/><g class="cls-5"><path class="cls-2" d="M859,224.08a22.58,22.58,0,0,1,2.79,4l15.54,28.18c4,7.25,2.24,14-3.91,15-5,.84-11.25-2.24-15.6-7.25a22.87,22.87,0,0,1-2.79-4l-15.54-28.19c-4-7.24-2.24-14,3.92-15C848.36,216,854.65,219.07,859,224.08Z"/><path class="cls-3" d="M836.12,240.14c2.89,3.33,4.79,7.33,4.93,11l1.39,38.12c.24,6.75-5.51,9.92-12.84,7.08a22.86,22.86,0,0,1-8.8-6.35c-2.9-3.32-4.8-7.32-4.93-11l-1.39-38.12c-.25-6.75,5.5-9.92,12.84-7.08A22.88,22.88,0,0,1,836.12,240.14Z"/></g><path class="cls-2" d="M800,228.52c4.67,5.37,6.33,12,3.63,16L782.5,275.78c-3.16,4.68-11.1,3.91-17.72-1.72a25.17,25.17,0,0,1-2.65-2.61c-4.67-5.38-6.32-12.06-3.62-16.06l21.09-31.21c3.16-4.68,11.09-3.91,17.72,1.72A24.21,24.21,0,0,1,800,228.52Z"/><path class="cls-3" d="M771.68,196a23.37,23.37,0,0,1,2.17,2.93c4.48,7.13,3.4,14.24-2.42,15.88L733,225.58c-5,1.4-11.79-1.66-16.47-7a24,24,0,0,1-2.17-2.92c-4.48-7.14-3.4-14.24,2.41-15.88l38.47-10.81C760.18,187.54,767,190.59,771.68,196Z"/><path class="cls-3" d="M868.37,196.66c3.43,4,5.41,8.79,4.84,12.83-.88,6.23-7.5,8.17-14.79,4.34l-13.18-6.94a23.73,23.73,0,0,1-6.76-5.41c-3.44-3.95-5.41-8.8-4.85-12.83.88-6.23,7.5-8.18,14.79-4.34l13.18,6.94A23.6,23.6,0,0,1,868.37,196.66Z"/><path class="cls-2" d="M767.87,161.63a19.89,19.89,0,0,1,4.72,9.21c1.29,7.09-3.52,11.33-10.75,9.48L721,169.89a22,22,0,0,1-10.7-7,19.84,19.84,0,0,1-4.72-9.21c-1.29-7.08,3.52-11.33,10.75-9.48l40.82,10.44A22,22,0,0,1,767.87,161.63Z"/><path class="cls-2" d="M822.63,144a21.27,21.27,0,0,1,4.2,7.21l4.3,13.17c2.38,7.28-1.32,12.59-8.27,11.84-4.49-.48-9.24-3.37-12.67-7.33a21.1,21.1,0,0,1-4.21-7.2l-4.3-13.17C799.3,141.27,803,136,810,136.71,814.44,137.19,819.19,140.09,822.63,144Z"/><path class="cls-3" d="M790.75,145.57c4.35,5,6.16,11.23,4,15.35-2.62,5.11-10.31,5-17.16-.22L751,140.33a24.45,24.45,0,0,1-3.62-3.4c-4.35-5-6.16-11.24-4.05-15.35,2.62-5.12,10.31-5,17.16.22l26.68,20.37A24.88,24.88,0,0,1,790.75,145.57Z"/></g></svg>