<svg xmlns="http://www.w3.org/2000/svg" viewBox="0 0 1000 1000"><defs><style>.cls-1{opacity:0.55;}.cls-2{fill:none;stroke:#000;stroke-miterlimit:10;stroke-width:0.18px;}.cls-3{fill-rule:evenodd;}</style></defs><g id="레이어_7" data-name="레이어 7"><path d="M384.71,486.58A13.42,13.42,0,1,1,371.28,500a13.43,13.43,0,0,1,13.43-13.42m0-13.42A26.84,26.84,0,1,0,411.55,500a26.84,26.84,0,0,0-26.84-26.84Z"/><path d="M384.71,459.73a40.27,40.27,0,1,1-28.48,11.8,40,40,0,0,1,28.48-11.8m0-13.42A53.69,53.69,0,1,0,438.39,500a53.69,53.69,0,0,0-53.68-53.69Z"/><path d="M258.35,446.42l-50.22,50.22a53.69,53.69,0,0,1,50.22-50.22Z"/><path d="M289,453.74l-73.53,73.54a53.54,53.54,0,0,1-5.61-13.38l65.77-65.76A53.07,53.07,0,0,1,289,453.74Z"/><path d="M308,472.72l-73.53,73.54a53.91,53.91,0,0,1-10.69-8.3L299.68,462A54.09,54.09,0,0,1,308,472.72Z"/><path d="M315.3,503.36l-50.22,50.22a54.16,54.16,0,0,1-17.27-1.71l65.77-65.77A54.1,54.1,0,0,1,315.3,503.36Z"/><path d="M189.19,481.85l-12.61,4.59A40.3,40.3,0,0,1,179,500.21h13.42A53.69,53.69,0,0,0,189.19,481.85Z"/><path d="M189.19,518.58a53.79,53.79,0,0,1-9.34,16.14l-10.28-8.62a39.79,39.79,0,0,0,7-12.11Z"/><path d="M131.73,539.88l-2.33,13.21a53,53,0,0,1-17.52-6.38l6.7-11.61A39.88,39.88,0,0,0,131.73,539.88Z"/><path d="M107.88,526.1,97.6,534.72a53.58,53.58,0,0,1-9.34-16.14L100.87,514A39.79,39.79,0,0,0,107.88,526.1Z"/><path d="M100.87,486.44a40.06,40.06,0,0,0-2.41,13.77H85a53.46,53.46,0,0,1,3.22-18.36Z"/><path d="M118.58,465.33a40.33,40.33,0,0,0-8.33,6.41c-.83.84-1.62,1.7-2.38,2.59L97.6,465.71a53.9,53.9,0,0,1,14.28-12Z"/><path d="M179.85,465.71l-10.28,8.62c-.75-.89-1.54-1.75-2.38-2.59a40.33,40.33,0,0,0-8.33-6.41l6.71-11.62A54.06,54.06,0,0,1,179.85,465.71Z"/><path class="cls-2" d="M165.57,546.71a53.2,53.2,0,0,1-17.52,6.38l-2.33-13.21a39.75,39.75,0,0,0,13.14-4.78Z"/><path class="cls-3" d="M165.57,546.71a53.2,53.2,0,0,1-17.52,6.38l-2.33-13.21a39.75,39.75,0,0,0,13.14-4.78Z"/><path class="cls-2" d="M148.05,447.34l-2.33,13.21a41.08,41.08,0,0,0-14,0l-2.33-13.21a54.08,54.08,0,0,1,18.65,0Z"/><path class="cls-3" d="M148.05,447.34l-2.33,13.21a41.08,41.08,0,0,0-14,0l-2.33-13.21a54.08,54.08,0,0,1,18.65,0Z"/><path d="M475.06,516.32h44.37v10.73H475.06Z"/><path d="M526,527.05H512.37l-10-27.41c-1.89-5.44-3.57-10.91-5.3-16.42h-.44c-1.71,5.51-3.27,11-5.23,16.42l-10,27.41H468.49L489.31,473H504.7Z"/><path d="M540.07,473h13.51v43.37h30.85v10.73H540.07Z"/><path d="M595.34,520l5.85-8.55a40.19,40.19,0,0,0,22.45,6.76c7.14,0,10.45-2.65,10.45-6s-2.43-5.2-14.57-7.72c-14.5-3.05-20.78-8.22-20.78-16.49,0-9.56,8.77-16.35,24-16.35,9.12,0,17.3,3.58,22.82,7.21l-6.17,8.24a33.64,33.64,0,0,0-17.86-5.36c-6.55,0-9.35,2.49-9.35,5.62,0,3.63,3.83,4.82,13.73,7,17.15,3.8,21.69,8.44,21.69,17.08,0,9.42-9.06,17-25.72,17A49.23,49.23,0,0,1,595.34,520Z"/><path d="M661.07,512.41c0-12.12,10.52-18.19,37-20-.48-5.77-4.09-10-12.55-10-5.89,0-11.72,2.51-17.4,5.58l-5-8.91c6.78-4,15.59-7.5,24.88-7.5,15.06,0,23.54,8.24,23.54,23.66v31.76H700.46l-1-6.56h-.38c-5.63,4.31-12.78,7.88-20,7.88C668.47,528.37,661.07,521.73,661.07,512.41Zm37-.85V500.77c-18.62,1.17-23.92,5-23.92,10.59,0,4.46,3.92,6.44,9.09,6.44S693.31,515.34,698,511.56Z"/><path d="M732.49,473h12.58l16.81,25.74c2,3.19,4.66,8.12,6.58,11.42h.38c-.53-6.77-1.17-13.78-1.17-19.35V473h12.62v54.1H767.71L750.9,501.31c-2-3.15-4.73-8-6.58-11.42h-.44c.59,6.82,1.22,13.78,1.22,19.35v17.81H732.49Z"/><path d="M796.47,520l5.85-8.55a40.17,40.17,0,0,0,22.45,6.76c7.14,0,10.45-2.65,10.45-6s-2.44-5.2-14.57-7.72c-14.5-3.05-20.79-8.22-20.79-16.49,0-9.56,8.77-16.35,24-16.35,9.12,0,17.29,3.58,22.82,7.21l-6.17,8.24a33.67,33.67,0,0,0-17.86-5.36c-6.55,0-9.36,2.49-9.36,5.62,0,3.63,3.83,4.82,13.74,7,17.14,3.8,21.68,8.44,21.68,17.08,0,9.42-9.05,17-25.71,17A49.2,49.2,0,0,1,796.47,520Z"/><path d="M861.84,499.94c0-17.66,13.45-28.31,27.94-28.31,16.27,0,25.18,10.84,25.18,25.75a41.67,41.67,0,0,1-.59,6.57h-42.8v-9.39h34l-2.45,2.87c0-10.22-4.74-15.45-12.9-15.45-8.7,0-15.21,6.19-15.21,18,0,12.27,7.24,18,18.33,18,5.48,0,10-1.58,14.88-4.27l4.58,8.3a39.86,39.86,0,0,1-21.26,6.38C874.88,528.37,861.84,517.94,861.84,499.94Z"/></g></svg>