<svg xmlns="http://www.w3.org/2000/svg" viewBox="0 0 1000 1000"><defs><style>.cls-1{opacity:0.55;}</style></defs><g id="레이어_7" data-name="레이어 7"><path d="M115.66,529h78.7v19h-78.7Z"/><path d="M206,548H181.84l-17.72-48.62c-3.35-9.64-6.34-19.35-9.39-29.12H154c-3,9.77-5.82,19.48-9.29,29.12L126.94,548H104l36.93-96h27.31Z"/><path d="M231,452h24V529h54.74v19H231Z"/><path d="M329,535.5l10.38-15.18a71.22,71.22,0,0,0,39.81,12c12.67,0,18.55-4.71,18.55-10.69s-4.33-9.22-25.85-13.7c-25.72-5.42-36.87-14.59-36.87-29.26,0-16.95,15.55-29,42.53-29,16.17,0,30.69,6.35,40.48,12.78l-10.94,14.62a59.81,59.81,0,0,0-31.69-9.51c-11.62,0-16.59,4.43-16.59,10,0,6.44,6.79,8.55,24.36,12.38,30.42,6.73,38.46,15,38.46,30.29,0,16.71-16.06,30.1-45.61,30.1C358.32,550.32,341,543.58,329,535.5Z"/><path d="M445.62,522c0-21.51,18.66-32.28,65.57-35.48-.84-10.24-7.25-17.66-22.25-17.66-10.45,0-20.79,4.45-30.87,9.91L449.28,463c12-7.11,27.66-13.29,44.13-13.29,26.72,0,41.75,14.61,41.75,42V548H515.5l-1.8-11.64H513c-10,7.66-22.66,14-35.39,14C458.75,550.32,445.62,538.54,445.62,522Zm65.57-1.51V501.37c-33,2.07-42.42,8.93-42.42,18.78,0,7.92,7,11.43,16.12,11.43C494.3,531.58,502.82,527.2,511.19,520.51Z"/><path d="M572.31,452h22.31l29.83,45.65c3.55,5.67,8.27,14.4,11.66,20.27h.69c-.95-12-2.09-24.45-2.09-34.33V452H657.1v96H634.79L605,502.33c-3.55-5.59-8.38-14.23-11.66-20.27h-.78c1,12.1,2.17,24.45,2.17,34.32V548H572.31Z"/><path d="M685.8,535.5l10.38-15.18a71.28,71.28,0,0,0,39.82,12c12.66,0,18.54-4.71,18.54-10.69s-4.32-9.22-25.85-13.7c-25.72-5.42-36.87-14.59-36.87-29.26,0-16.95,15.56-29,42.53-29,16.17,0,30.68,6.35,40.48,12.78l-10.94,14.62a59.81,59.81,0,0,0-31.69-9.51c-11.62,0-16.59,4.43-16.59,10,0,6.44,6.79,8.55,24.36,12.38,30.42,6.73,38.47,15,38.47,30.29,0,16.71-16.06,30.1-45.61,30.1C715.1,550.32,697.73,543.58,685.8,535.5Z"/><path d="M801.75,499.89c0-31.32,23.88-50.21,49.57-50.21,28.86,0,44.68,19.22,44.68,45.67A76.65,76.65,0,0,1,895,507H819V490.34h60.25l-4.35,5.1c0-18.13-8.41-27.41-22.87-27.41-15.45,0-27,11-27,31.86,0,21.76,12.84,32,32.5,32,9.73,0,17.81-2.81,26.4-7.57L892.1,539a70.65,70.65,0,0,1-37.7,11.31C824.89,550.32,801.75,531.82,801.75,499.89Z"/></g></svg>