<svg xmlns="http://www.w3.org/2000/svg" viewBox="0 0 1000 1000"><defs><style>.cls-1{fill:#fff;}.cls-2{fill:#ffbc58;}.cls-3{fill:#ff6442;}.cls-4{fill:#216f9b;}.cls-5{isolation:isolate;}.cls-6{opacity:0.55;}</style></defs><g id="Δʟsaɴse"><circle class="cls-1" cx="500" cy="500" r="500"/><path class="cls-2" d="M656,586.09q5.09,13,9.24,26.35l10.93-10.94Q666.19,594.48,656,586.09Z"/><path class="cls-2" d="M189.68,215.26l25.59-25.59Q201.94,201.91,189.68,215.26Z"/><path class="cls-2" d="M794.77,199.19l6,6Q797.83,202.17,794.77,199.19Z"/><path class="cls-2" d="M810.34,784.72l-25.65,25.65Q798.07,798.1,810.34,784.72Z"/><path class="cls-2" d="M130.68,353.6,391.27,93a420.29,420.29,0,0,0-176,96.66l-25.59,25.59a420.78,420.78,0,0,0-89.27,151.33Q115.32,359.45,130.68,353.6Z"/><path class="cls-3" d="M391.27,93,130.68,353.6a407.62,407.62,0,0,1,104-24.67L484.5,79.12A420.61,420.61,0,0,0,391.27,93Z"/><path class="cls-2" d="M500,78.84h0q-7.78,0-15.5.28L234.69,328.93a410.32,410.32,0,0,1,79.68-.34L559.9,83.06A425.64,425.64,0,0,0,500,78.84Z"/><path class="cls-4" d="M559.9,83.06,314.37,328.59a409.23,409.23,0,0,1,67.32,12l243-243A420.28,420.28,0,0,0,559.9,83.06Z"/><path class="cls-2" d="M624.7,97.6l-243,243a404.37,404.37,0,0,1,44,14.46l3.13-2.84,123-104.18h0q4-3.4,8.2-6.42L681.7,119.94A418.2,418.2,0,0,0,624.7,97.6Z"/><path class="cls-3" d="M681.7,119.94,560,241.65c29-20.85,65.49-28,101.23-21.89l71.1-71.1A419.61,419.61,0,0,0,681.7,119.94Z"/><path class="cls-2" d="M732.33,148.66l-71.1,71.1A155.48,155.48,0,0,1,718.36,242l59-59A423.51,423.51,0,0,0,732.33,148.66Z"/><path class="cls-4" d="M718.36,242a165.06,165.06,0,0,1,41.51,37.83L817,222.68q-7.85-9-16.18-17.45l-6-6q-8.49-8.33-17.45-16.18Z"/><path class="cls-2" d="M817,222.68,759.87,279.8a158.26,158.26,0,0,1,27,52.34l64.47-64.47A423.51,423.51,0,0,0,817,222.68Z"/><path class="cls-3" d="M851.34,267.67l-64.47,64.47c7.67,26,8.18,53,1.37,78l91.82-91.81A419.61,419.61,0,0,0,851.34,267.67Z"/><path class="cls-2" d="M880.06,318.3l-91.82,91.81A127,127,0,0,1,775,441.49a121.83,121.83,0,0,0-15.82,65.7c.14,3.57.42,7.07.81,10.51L902.4,375.3A418.2,418.2,0,0,0,880.06,318.3Z"/><path class="cls-2" d="M732,508.28q-.27-6.73,0-13.37l-59.18,69.86c7.71,6.38,15.38,12.14,22.85,17.18l40.68-40.67A191.37,191.37,0,0,1,732,508.28Z"/><path class="cls-4" d="M742.76,603.55c5.78.74,7.72-.39,7.9-.51a7.09,7.09,0,0,0,.51-3.2c0-6.18-3.1-16.51-6.38-27.46-2.77-9.23-5.89-19.66-8.37-31.1L695.74,582a194.19,194.19,0,0,0,22.76,13.34C730.29,601.07,738.2,603,742.76,603.55Z"/><path class="cls-4" d="M701.57,617.16a240.61,240.61,0,0,1-25.38-15.66l-10.93,10.94a408.33,408.33,0,0,1,14.57,64.77l48.88-48.88A136.33,136.33,0,0,1,701.57,617.16Z"/><path class="cls-4" d="M775.6,581.44,916.94,440.1a420.28,420.28,0,0,0-14.54-64.8L760,517.7c1.94,17.22,6.61,32.83,10.82,46.88C772.6,570.55,774.28,576.16,775.6,581.44Z"/><path class="cls-2" d="M921.16,500h0a425.64,425.64,0,0,0-4.22-59.9L775.6,581.44a77.06,77.06,0,0,1,2.74,18.4c0,13.46-6.43,23.84-17.63,28.49A37.59,37.59,0,0,1,746.29,631a62.13,62.13,0,0,1-13.41-1.59c-1.36-.3-2.76-.65-4.17-1l-48.88,48.88A410.2,410.2,0,0,1,683.42,753L920.88,515.5Q921.17,507.78,921.16,500Z"/><path class="cls-3" d="M683.42,753a408.75,408.75,0,0,1-15.64,95L907,608.73a420.61,420.61,0,0,0,13.89-93.23Z"/><path class="cls-2" d="M907,608.73,667.78,847.94a404.16,404.16,0,0,1-15.93,45,421.23,421.23,0,0,0,132.84-82.59l25.65-25.65A420.29,420.29,0,0,0,907,608.73Z"/><path d="M656,586.09c15.49,12.79,30.89,23.32,45.55,31.07,11.39,6,21.92,10.13,31.31,12.21A62.13,62.13,0,0,0,746.29,631a37.59,37.59,0,0,0,14.42-2.63c11.2-4.65,17.63-15,17.63-28.49,0-10.16-3.49-21.79-7.53-35.26-5-16.85-10.77-36-11.63-57.39A121.83,121.83,0,0,1,775,441.49c31.62-53.4,21.35-127-28.73-177.1-55.78-55.77-140.74-62.17-194.47-16.32h0l-123,104.18-3.13,2.84a408.85,408.85,0,0,0-325.26,11.51A420.43,420.43,0,0,0,78.84,500h0C78.84,732.6,267.4,921.16,500,921.16h0A420.05,420.05,0,0,0,651.85,893,409,409,0,0,0,656,586.09Zm76.05-91.18q-.3,6.63,0,13.37c1,24.86,7.52,46.62,12.76,64.1,3.28,11,6.38,21.28,6.38,27.46a7.09,7.09,0,0,1-.51,3.2c-.18.12-2.12,1.25-7.9.51-4.56-.58-12.47-2.48-24.26-8.26-14.18-6.95-29.81-17.44-45.61-30.52Z"/><path class="cls-2" d="M439.07,505.7a18.79,18.79,0,0,1-12.9-32.46l68.51-64.62A18.8,18.8,0,0,1,520.47,436L452,500.58A18.75,18.75,0,0,1,439.07,505.7Z"/><path class="cls-2" d="M422.38,450.2a15.29,15.29,0,0,1-10.22-26.66L486.28,357a15.28,15.28,0,1,1,20.43,22.74l-74.13,66.58A15.19,15.19,0,0,1,422.38,450.2Z"/><path class="cls-2" d="M426.81,390.8a11.66,11.66,0,0,1-7.63-20.49l78.76-68a11.66,11.66,0,1,1,15.24,17.65l-78.76,68A11.61,11.61,0,0,1,426.81,390.8Z"/><g class="cls-5"><path class="cls-2" d="M761.94,341a26.06,26.06,0,0,1,3.09,4.41l17.26,31.3c4.43,8,2.48,15.5-4.35,16.67-5.5.93-12.48-2.49-17.32-8.05a25.66,25.66,0,0,1-3.09-4.41l-17.25-31.29c-4.44-8-2.49-15.51,4.35-16.67C750.12,332,757.11,335.39,761.94,341Z"/><path class="cls-2" d="M736.53,358.78c3.22,3.7,5.32,8.13,5.47,12.23l1.55,42.32c.27,7.49-6.11,11-14.25,7.86a25.36,25.36,0,0,1-9.78-7.05c-3.21-3.69-5.32-8.13-5.47-12.22l-1.54-42.32c-.27-7.49,6.11-11,14.25-7.86A25.48,25.48,0,0,1,736.53,358.78Z"/></g><path class="cls-2" d="M696.4,345.88c5.18,6,7,13.38,4,17.82L677,398.34c-3.51,5.2-12.32,4.34-19.67-1.91a27.8,27.8,0,0,1-2.94-2.9c-5.18-6-7-13.38-4-17.82l23.41-34.64c3.51-5.2,12.32-4.35,19.67,1.9A27.89,27.89,0,0,1,696.4,345.88Z"/><path class="cls-2" d="M665,309.75a27.57,27.57,0,0,1,2.42,3.24c5,7.93,3.77,15.82-2.68,17.63l-42.7,12c-5.52,1.55-13.09-1.84-18.28-7.81a27.69,27.69,0,0,1-2.42-3.25c-5-7.92-3.77-15.81,2.68-17.63l42.7-12C652.23,300.38,659.8,303.78,665,309.75Z"/><path class="cls-2" d="M772.33,310.51c3.82,4.39,6,9.76,5.38,14.24-1,6.92-8.33,9.08-16.42,4.82l-14.63-7.7a26.31,26.31,0,0,1-7.51-6c-3.81-4.39-6-9.76-5.37-14.24,1-6.92,8.32-9.08,16.41-4.82l14.63,7.7A26.31,26.31,0,0,1,772.33,310.51Z"/><path class="cls-2" d="M660.77,271.63A22.16,22.16,0,0,1,666,281.85c1.43,7.87-3.91,12.58-11.93,10.53l-45.32-11.59a24.42,24.42,0,0,1-11.88-7.73,22.16,22.16,0,0,1-5.24-10.22c-1.43-7.87,3.92-12.58,11.94-10.53L648.9,263.9A24.4,24.4,0,0,1,660.77,271.63Z"/><path class="cls-2" d="M721.56,252.1a23.54,23.54,0,0,1,4.66,8L731,274.72c2.64,8.09-1.47,14-9.18,13.15-5-.53-10.26-3.75-14.07-8.14a23.37,23.37,0,0,1-4.67-8l-4.78-14.63c-2.64-8.08,1.47-14,9.18-13.15C712.47,244.5,717.74,247.71,721.56,252.1Z"/><path class="cls-2" d="M686.17,253.79c4.83,5.56,6.84,12.48,4.5,17-2.92,5.68-11.44,5.57-19.06-.24L642,248a27.7,27.7,0,0,1-4-3.77c-4.83-5.56-6.83-12.48-4.49-17,2.91-5.68,11.44-5.57,19,.24L682.16,250A27.14,27.14,0,0,1,686.17,253.79Z"/></g></svg>