<svg xmlns="http://www.w3.org/2000/svg" viewBox="0 0 1000 1000"><defs><style>.cls-1{fill:#ffbc58;}.cls-2{isolation:isolate;}.cls-3{opacity:0.55;}</style></defs><g id="레이어_5" data-name="레이어 5"><rect class="cls-1" x="188.46" y="55.49" width="756.97" height="756.97" rx="378.48"/><path d="M624.88,903.61c143-143,143-375,0-518s-375-143-518,0"/><ellipse cx="365.88" cy="644.61" rx="244.18" ry="366.27" transform="translate(-348.64 447.52) rotate(-45)"/><path d="M709.31,507.54,802.93,397h0c41.2-48.29,35.45-124.64-14.67-174.76s-126.47-55.87-174.76-14.67h0L503,301.18l-9,8.13c-52,52-47.79,140.56,9.43,197.78s145.76,61.43,197.77,9.42Z"/><path d="M788.27,551.66a56.08,56.08,0,0,1-12-1.43c-8.44-1.87-17.9-5.56-28.13-11-21.17-11.2-44.08-28.83-66.24-51l-8.63-8.63L790.63,362.23l4.72,4.72,20.2,11.84c-11.43,19.52-16.57,39.68-15.69,61.64.77,19.27,5.91,36.43,10.45,51.58,3.63,12.1,6.76,22.55,6.76,31.69,0,12.09-5.77,21.42-15.84,25.59A33.64,33.64,0,0,1,788.27,551.66ZM707.9,479.49c19,17.7,38.34,31.76,55.4,40.12,10.6,5.19,17.7,6.9,21.8,7.42,5.2.66,6.94-.35,7.1-.46a6.48,6.48,0,0,0,.45-2.87c0-5.56-2.78-14.85-5.73-24.68-4.71-15.71-10.57-35.27-11.46-57.61a136.05,136.05,0,0,1,2.42-31.9Z"/><path class="cls-1" d="M512.18,439.1a16.89,16.89,0,0,1-11.59-29.18l61.57-58.07a16.89,16.89,0,0,1,23.18,24.58l-61.57,58.06A16.83,16.83,0,0,1,512.18,439.1Z"/><path class="cls-1" d="M497.18,389.22a13.74,13.74,0,0,1-9.18-24l66.62-59.83A13.73,13.73,0,1,1,573,325.86L506.36,385.7A13.7,13.7,0,0,1,497.18,389.22Z"/><path class="cls-1" d="M501.17,335.83a10.48,10.48,0,0,1-6.86-18.41l70.78-61.12a10.48,10.48,0,1,1,13.7,15.86L508,333.29A10.43,10.43,0,0,1,501.17,335.83Z"/><g class="cls-2"><path class="cls-1" d="M802.33,291a22.87,22.87,0,0,1,2.79,4l15.5,28.12c4,7.22,2.24,13.93-3.91,15-4.94.84-11.21-2.24-15.56-7.23a23.37,23.37,0,0,1-2.78-4l-15.5-28.12c-4-7.22-2.24-13.93,3.91-15C791.72,283,798,286,802.33,291Z"/><path class="cls-1" d="M779.51,307.06c2.88,3.32,4.78,7.31,4.91,11l1.39,38c.24,6.73-5.49,9.9-12.81,7.06a22.79,22.79,0,0,1-8.78-6.32c-2.89-3.32-4.78-7.31-4.92-11l-1.38-38c-.25-6.73,5.48-9.9,12.8-7.06A22.9,22.9,0,0,1,779.51,307.06Z"/></g><path class="cls-1" d="M743.44,295.47c4.66,5.35,6.31,12,3.61,16l-21,31.13c-3.15,4.67-11.07,3.91-17.67-1.71a23.27,23.27,0,0,1-2.64-2.61c-4.66-5.36-6.31-12-3.62-16l21-31.14c3.15-4.67,11.07-3.9,17.68,1.72A25.05,25.05,0,0,1,743.44,295.47Z"/><path class="cls-1" d="M715.22,263a23.94,23.94,0,0,1,2.16,2.92c4.47,7.12,3.4,14.21-2.4,15.84L676.6,292.54c-5,1.39-11.76-1.66-16.43-7A22.94,22.94,0,0,1,658,282.6c-4.47-7.12-3.4-14.21,2.4-15.84L698.79,256C703.75,254.58,710.55,257.63,715.22,263Z"/><path class="cls-1" d="M811.67,263.68c3.43,3.95,5.4,8.78,4.84,12.8-.88,6.22-7.49,8.16-14.76,4.33l-13.15-6.92a23.58,23.58,0,0,1-6.74-5.4c-3.43-3.94-5.4-8.77-4.83-12.79.87-6.22,7.48-8.16,14.75-4.33l13.15,6.92A23.58,23.58,0,0,1,811.67,263.68Z"/><path class="cls-1" d="M711.42,228.74a19.9,19.9,0,0,1,4.71,9.19c1.29,7.07-3.52,11.3-10.72,9.46L664.68,237A22,22,0,0,1,654,230a19.9,19.9,0,0,1-4.71-9.19c-1.29-7.06,3.51-11.3,10.72-9.46l40.73,10.42A21.94,21.94,0,0,1,711.42,228.74Z"/><path class="cls-1" d="M766.05,211.19a21.35,21.35,0,0,1,4.19,7.19l4.29,13.14c2.37,7.27-1.32,12.56-8.25,11.82-4.48-.48-9.22-3.37-12.64-7.31a21.22,21.22,0,0,1-4.2-7.19l-4.29-13.14c-2.37-7.27,1.32-12.56,8.25-11.82C757.88,204.36,762.62,207.25,766.05,211.19Z"/><path class="cls-1" d="M734.25,212.72c4.34,5,6.14,11.21,4,15.31-2.62,5.1-10.29,5-17.12-.22l-26.61-20.32A24.82,24.82,0,0,1,691,204.1c-4.34-5-6.14-11.21-4-15.31,2.62-5.11,10.28-5,17.12.22l26.61,20.32A24.28,24.28,0,0,1,734.25,212.72Z"/></g></svg>