<svg xmlns="http://www.w3.org/2000/svg" xmlns:xlink="http://www.w3.org/1999/xlink" viewBox="0 0 1000 1000"><defs><style>.cls-1{fill:none;}.cls-2{fill:#fff;}.cls-3{clip-path:url(#clip-path);}.cls-4{fill:#ffbc58;}.cls-5{fill:#ff6442;}.cls-6{fill:#216f9b;}.cls-7{isolation:isolate;}.cls-8{opacity:0.55;}</style><clipPath id="clip-path"><rect class="cls-1" x="78.84" y="78.84" width="842.33" height="842.33" rx="421.16"/></clipPath></defs><g id="레이어_5" data-name="레이어 5"><circle class="cls-2" cx="500" cy="500" r="500"/><g class="cls-3"><rect x="78.84" y="78.84" width="842.33" height="842.33" rx="421.16"/><path class="cls-4" d="M564.32,446.12C405.15,287,147.09,287-12.08,446.12-118.2,552.24-75.18,767.29,84,926.46s374.23,202.18,480.34,96.07C723.49,863.36,723.49,605.29,564.32,446.12Z"/><path class="cls-4" d="M742,631.08a62.13,62.13,0,0,1-13.41-1.59c-9.39-2.09-19.93-6.19-31.31-12.21-23.56-12.46-49-32.08-73.71-56.74l-9.6-9.61L744.61,420.28l5.26,5.26,22.48,13.18c-12.73,21.71-18.45,44.15-17.47,68.59.86,21.43,6.58,40.54,11.63,57.39,4,13.47,7.53,25.1,7.53,35.26,0,13.46-6.43,23.84-17.64,28.48A37.35,37.35,0,0,1,742,631.08Zm-89.44-80.31c21.11,19.69,42.67,35.34,61.65,44.64,11.79,5.78,19.7,7.68,24.25,8.26,5.79.73,7.73-.39,7.91-.51a7.33,7.33,0,0,0,.5-3.2c0-6.18-3.1-16.52-6.38-27.46-5.24-17.48-11.76-39.24-12.75-64.11a152,152,0,0,1,2.69-35.5Z"/><path class="cls-4" d="M191.33,569.1A26.06,26.06,0,0,0,176,573.16a50.41,50.41,0,0,0-9.32,7.73L147.21,600c-12.14,12-24.5,23.8-35.39,36.93A163,163,0,0,0,96,659.46a7.18,7.18,0,0,0-1.28,4.86,6.56,6.56,0,0,0,7.38,5.63c1.59-.28,3.5-1.06,4.35-2.52.13-.24.26-.47.4-.7a5.75,5.75,0,0,0,2.89-.46,7.56,7.56,0,0,0,3.59-3.62l.12-.21a66.59,66.59,0,0,1,9.83-12.37c5.5-5.42,11.46-10.35,16.93-15.81,6.66-6.65,12.51-14,18.56-21.18,2.95-3.52,6-7,9.21-10.27a75.68,75.68,0,0,1,13.39-10.68l.42-.27.37-.2c.65-.36,1.32-.71,2-1,1.34-.66,2.71-1.27,4.11-1.8a7.82,7.82,0,0,0,6-5.68l2.37-5.07C198.37,574.35,195.42,569.39,191.33,569.1Z"/><path class="cls-4" d="M230.18,482.14a6.71,6.71,0,0,0-8.58-3.58,240.07,240.07,0,0,0-61.69,35.22c-19,15-35.52,32.94-50.82,51.64-8.47,10.36-16.6,21-24.73,31.62-2.08,2.73-1.67,7.18,1.24,9.2A6.67,6.67,0,0,0,94.8,605c12.7-16.61,25.42-33.23,39.41-48.78q5.78-6.42,11.85-12.55a250.55,250.55,0,0,1,28.81-24.75q7.75-5.65,16-10.66,2.05-1.26,4.12-2.46c.28-.16.56-.31.83-.48l.1-.06.11-.06,0,0,2.05-1.14q4.2-2.32,8.49-4.47,9.84-4.92,20.11-8.9A6.64,6.64,0,0,0,230.18,482.14Z"/><path class="cls-4" d="M195.88,505.26l-.1.06c-.44.27-1.24.81.17-.1l0,0Z"/><path class="cls-4" d="M194.53,448.26a6.67,6.67,0,0,0-8.57-3.57C161.46,455.4,139.1,470.58,118.9,488c-21.57,18.63-40.84,39.76-59.31,61.41q-7.77,9.12-15.43,18.34c-5,6-10.27,12-14.33,18.74a7.1,7.1,0,0,0-1.29,4.86,6.68,6.68,0,0,0,2.52,4.35c2.66,1.84,7.31,1.91,9.21-1.24,3.4-5.66,7.65-10.73,11.87-15.79s8.4-10.08,12.63-15.09c8.56-10.14,17.23-20.18,26.21-30q7.47-8.14,15.26-16A375.3,375.3,0,0,1,137,490q8.1-6.45,16.64-12.32,4.22-2.91,8.55-5.63,2.25-1.43,4.53-2.79l2-1.2c.39-.24.79-.47,1.19-.7l.19-.11A227.8,227.8,0,0,1,191,456.84C194.1,455.46,196,451.53,194.53,448.26Z"/><path class="cls-4" d="M275.48,572.37c-1.36-2.94-5.35-5.32-8.57-3.57a278.15,278.15,0,0,0-34.63,22.25,336.61,336.61,0,0,0-30.35,26q-15.33,14.72-29.24,30.8c-9.51,10.93-18.59,22.23-27.42,33.72s-17.45,23.17-26,34.86l-3.17,4.32c-2,2.77-1.71,7.16,1.24,9.21a6.66,6.66,0,0,0,9.2-1.24c9.72-13.25,19.43-26.51,29.46-39.53s20.35-25.78,31.27-38q8.47-9.51,17.45-18.56c15.85-15.76,33-30.27,51.8-42.43,2.64-1.7,5.31-3.37,8-5l2-1.19,1-.6q2.18-1.22,4.36-2.42a7.1,7.1,0,0,0,3.6-3.62A6.72,6.72,0,0,0,275.48,572.37Z"/><path class="cls-4" d="M307,604.51a6.69,6.69,0,0,0-9.2-1.25,593.4,593.4,0,0,0-49.46,40,611.19,611.19,0,0,0-45.87,46q-9.91,11.07-19.27,22.63-2.84,2.52-5.66,5.08a163,163,0,0,0-12.42,12.38,83.68,83.68,0,0,0-9.25,12.77l-.06.07h0l-.88,1.53a2.69,2.69,0,0,0-.26.62c-.93.73-1.87,1.45-2.82,2.15A6.57,6.57,0,0,0,159.82,757a149.31,149.31,0,0,0,30.48-30.34,6.52,6.52,0,0,0,1.31-4c.82-.93,1.64-1.86,2.47-2.78l3.68-3.21L219,698.1l42.3-37,23.78-20.81c2.13-1.86,3.37-5,2.1-7.72a7.15,7.15,0,0,0-2.42-2.89l4.31-3.41q8.25-6.4,16.7-12.54A6.62,6.62,0,0,0,307,604.51Z"/><path class="cls-4" d="M300.82,677.84a6.59,6.59,0,0,0-3.62-3.6,6.35,6.35,0,0,0-4.95,0c-9.42,5.29-17.55,12.11-25.24,19.65-8.09,7.93-16,16.09-23.82,24.26Q220,742.32,197.68,767.33q-12.5,14-24.68,28.29a6.61,6.61,0,0,0,1.24,9.2,6.7,6.7,0,0,0,9.2-1.24q17-19.83,34.45-39.16t35.44-38q9.76-10.17,19.7-20.18c3.77-3.75,7.61-7.43,11.68-10.85,2.08-1.76,4.23-3.45,6.45-5,1.13-.82,2.29-1.6,3.46-2.36l1.69-1.06,1-.59a7.16,7.16,0,0,0,3.54-3.59A6.67,6.67,0,0,0,300.82,677.84Z"/><path class="cls-4" d="M366.82,689.08c-2.19-2.62-6.4-3.62-9.21-1.26-18.57,15.67-35.78,32.9-53.26,49.76l-53.67,51.76-30.26,29.17a7.21,7.21,0,0,0-2.54,4.43,6.56,6.56,0,0,0,5.72,7.32,6.37,6.37,0,0,0,4.78-1.29l53.67-51.76q26.71-25.76,53.43-51.51c9.8-9.39,19.71-18.67,30.08-27.42C368.18,696.07,369.17,691.89,366.82,689.08Z"/><path class="cls-4" d="M373.86,747.6c-1.6-3.47-5.06-4.67-8.57-3.58-6.78,2.12-12.52,6.66-17.62,11.46s-10.23,10-15.19,15.14c-9.42,9.77-18.53,19.84-27.79,29.75-5.06,5.41-10.17,10.78-15.4,16a279.19,279.19,0,0,1-35.38,30.41,6.57,6.57,0,0,0,8,10.46,279.85,279.85,0,0,0,35.78-30.8C309.13,815,320.05,803,331.1,791.11c6.06-6.52,12.17-13,18.46-19.28,3.08-3.08,6.18-6.16,9.5-9a49,49,0,0,1,5.68-4.23l.33-.22.15-.08c.5-.27,1-.53,1.53-.77a27.56,27.56,0,0,1,3.54-1.37,6.57,6.57,0,0,0,3.57-8.57Z"/><path class="cls-4" d="M428.21,758.84a6.72,6.72,0,0,0-9.2,1.24c-14.47,16.89-29,33.76-44.21,49.95q-6.17,6.56-12.52,12.93c-15.72,15.66-32.41,30.43-50.54,43.26q-7.86,5.55-16.05,10.58a6.62,6.62,0,0,0-2.54,4.43,6.71,6.71,0,0,0,1.29,4.78,6.64,6.64,0,0,0,4.42,2.54,7.55,7.55,0,0,0,4.78-1.29,343,343,0,0,0,53.18-40.94,685.53,685.53,0,0,0,47.83-49.65c8.37-9.45,16.59-19,24.8-28.62A6.61,6.61,0,0,0,428.21,758.84Z"/><path class="cls-4" d="M451,811.35c-2.08-2.49-6.54-3.78-9.21-1.25q-19.36,18.35-39,36.45t-39.42,36q-11.24,10.11-22.55,20.15a7,7,0,0,0-2.54,4.42,6.69,6.69,0,0,0,1.29,4.78c2.14,2.56,6.46,3.69,9.21,1.25q19.95-17.7,39.68-35.67t39.22-36.17q11.06-10.32,22-20.72a7.14,7.14,0,0,0,2.54-4.42A6.69,6.69,0,0,0,451,811.35Z"/><path class="cls-4" d="M457.23,874.55c-3.14-2.18-6.72-1.49-9.2,1.24l-32.24,35.34-9.13,10c-2.32,2.55-1.5,7.31,1.24,9.21,3.14,2.18,6.72,1.48,9.2-1.24l32.24-35.34,9.13-10C460.79,881.21,460,876.45,457.23,874.55Z"/><path class="cls-4" d="M450.76,942.26Z"/><path class="cls-4" d="M526.14,883.66a6.56,6.56,0,0,0-7.38-5.64,7.59,7.59,0,0,0-4.34,2.53L480,916.91c-2.53,2.67-5.07,5.33-7.66,7.94a128.65,128.65,0,0,1-16.2,13.94q-2.22,1.58-4.56,3c-.41.25-.84.48-1.24.74l.42-.27-.52.31q-1.11.6-2.25,1.17a58.4,58.4,0,0,1-10.5,4,6.57,6.57,0,0,0-3.59,3.62,6.58,6.58,0,0,0,3.64,8.55,7.83,7.83,0,0,0,4.95,0c12.76-3.47,23.84-11.46,33.4-20.35,5.09-4.73,9.9-9.75,14.68-14.8l16.06-17,18.23-19.26A6.53,6.53,0,0,0,526.14,883.66Z"/><path class="cls-4" d="M760.34,296.13a35.88,35.88,0,0,0-2.79-13.85,15.79,15.79,0,0,0-7.18-7.71,22.63,22.63,0,0,0-.41-5.38,7.58,7.58,0,0,0-.77-2.1c-.32-.2-.64-.41-.94-.64a5.06,5.06,0,0,1-.87-.86,4,4,0,0,1-.66-.81,26,26,0,0,1-3.06-3.14,9,9,0,0,0-1.86-.94,9.35,9.35,0,0,0-3.43-.59,5.65,5.65,0,0,0-1.71-2,7.59,7.59,0,0,0-4.86-1.29c-13,.37-26.87,1-38.51,7.59a7.23,7.23,0,0,0-3.59,3.62,6.67,6.67,0,0,0,0,4.95l.12.25c-1.45.93-2.89,1.87-4.31,2.84-3.76,2.56-7.42,5.26-11,8.05-2.71,2.11-3.54,6.47-1.25,9.21a6.69,6.69,0,0,0,9.21,1.25c2.68-2.08,5.4-4.12,8.17-6.08-.06.23-.11.45-.16.68a28.34,28.34,0,0,0-.48,5.89c0,2.62-.13,5.26.92,7.74a10.31,10.31,0,0,0,6.63,5.92,25.39,25.39,0,0,0,7.92.67,38.09,38.09,0,0,0,9.9-1.74,28.87,28.87,0,0,0-3.2,11.87c-.1,2.83,1.18,5.88,4.07,6.9a6.88,6.88,0,0,0,7.67-2.11q3.9-4.38,7.39-9.08-1.56,3.08-3.24,6.09-2.25,3.87-4.71,7.63a6.62,6.62,0,0,0,.62,8.58,6.44,6.44,0,0,0,8.58.63,54.38,54.38,0,0,1,10-7.81l.68-.4.08-.05.66-.34c1-.51,2-1,3-1.45a34.92,34.92,0,0,0,6.18-3.23,13.94,13.94,0,0,0,5.06-6.86,36.27,36.27,0,0,0,1.36-7.24A107.75,107.75,0,0,0,760.34,296.13Z"/><path class="cls-4" d="M84.13,926.53A407,407,0,0,1-25.42,789c-45.44-91.74-53.32-210,8-296.69,13.43-19.45,30.55-36.18,48-52a455.59,455.59,0,0,1,36-28.81c104.05-76.2,241.64-89.87,361.08-44.5l-23.33,5c5.9-5.13,12.84-10.78,18.72-15.68,37-30.65,75.12-61.66,112.72-91.56l19-15,1.32-1a14.51,14.51,0,0,1,19.57,1.5h0l-20.8-.53c56.5-45.41,144.86-43.35,191.4,14.76a131.74,131.74,0,0,0-43.09-23,128.56,128.56,0,0,0-91.25,6,130.25,130.25,0,0,0-36.85,25.44c-5.94,5.86-15.17,5.24-20.8-.54l20.89.46c-8.71,8.56-25.77,25.39-34.5,33.85-31.47,30.68-63.93,61.63-96,91.76-2.92,2.75-5.95,5.54-8.6,8.17A21.84,21.84,0,0,1,414.4,412l-1.64-.5C297.27,375.8,176.93,392.44,80.9,467.29a431.74,431.74,0,0,0-36.22,30.93C11.21,529-9.45,572-16.7,616.75-34.49,727.67,14.83,841,84.13,926.53Z"/><path class="cls-5" d="M84.13,926.53C-44.95,823.79-76.45,624.41,41.6,500.76c5.27-5.39,11.75-12,17.27-17.13,6.52-6.26,13.87-12.82,20.78-18.62,94.15-79.82,202.6-105,322.43-75.84,7.61,1.91,15.94,4.06,23.46,6.27l-22.76,5.68c3.49-3.11,6.84-5.95,10.25-8.89,51.35-44.05,103.61-87.77,156.3-130.19a14.25,14.25,0,0,1,19.34,1.41l-20.61-.4A168.35,168.35,0,0,1,611.59,238c44.73-18.16,103.35-13.32,134.68,26.4a98,98,0,0,0-40.78-19c-28.7-6-58.54.7-83.65,14.71a153.2,153.2,0,0,0-33.6,25.66c-5.84,5.89-15,5.31-20.61-.4l20.74.28q-18.76,19.23-37.71,38.28c-36.24,36.64-77.52,76.74-114.82,112.77a23.48,23.48,0,0,1-22.76,5.68c-39-9.14-77.66-13.83-116.78-11.5-72.77,4.26-137.64,35.66-192.91,82.7-6.24,5.22-12.85,11.07-18.8,16.65-2.26,2.16-6.79,6.21-8.94,8.56C-13.45,626-11.49,767.59,47.57,871.87c10.49,19.24,23.12,37.35,36.56,54.66Z"/><path class="cls-4" d="M84.13,926.53C-28.51,837.48-28,664.81,59.83,557.75a388.91,388.91,0,0,1,30.48-33.42c35-34.51,74.76-65.24,119.74-85.9,52.06-24.36,110-32.48,166.92-26.62a504,504,0,0,1,50.34,7.69l-21.46,6.38c6.52-5.86,15-13.29,21.62-19.07,35.27-30.91,73.24-63.45,109.25-93.55q22.81-19,45.86-37.86a14,14,0,0,1,19.09,1.32l-20.41-.25a214.39,214.39,0,0,1,18.8-13.39c37.35-23.38,89.88-37.69,129.94-13.36a65.53,65.53,0,0,1,16.27,14.67c-22.67-17.65-52.54-17.62-78.38-9-19.1,6.3-36.65,16.76-51.93,29.69a189.2,189.2,0,0,0-14.56,13.59c-5.78,5.93-14.77,5.39-20.42-.25l20.55.12c-25.43,26.91-53.93,56.17-80,82.65s-55,54.95-81.49,81a23.82,23.82,0,0,1-20.11,6.58c-31-4.74-61.95-7.28-91.85-5.13a275.59,275.59,0,0,0-103,27.65c-44.94,22.12-84.78,54.41-120.16,89.72C13.77,676.31,1.42,821.6,84.13,926.53Z"/><path class="cls-6" d="M84.13,926.53c-36.89-28.34-56.79-74-60.73-119.7C16.31,726.2,50.76,646.27,102.78,586c8.67-10,18.4-20.14,27.8-29.4,33.43-32.88,69.14-62.08,111.85-83.73,42.89-22.06,91.67-32.3,139.77-31.57,15.47.12,30.82,1.07,46.1,2.44l-19.37,7q91-82.38,185.4-160.66l1.58-1.3A13.7,13.7,0,0,1,614.63,290l-20.17-.09c21.86-17.56,46.66-31.89,73.75-39.52,25.78-7.11,59.71-8.81,78.06,14L744.21,263l-1-.7a46.83,46.83,0,0,0-16.84-6.37c-11.67-1.91-23.59,0-34.79,3.46-18,5.7-34.4,15.55-49.31,27a235.29,235.29,0,0,0-27.72,25.32A13.66,13.66,0,0,1,596,312.89l-1.64-1.34,20.3,0C559.49,371.38,502,430.32,444.14,487.66a24.4,24.4,0,0,1-19.36,7c-7.13-.31-14.25-.6-21.26-.68-25.61-.54-51.2.82-76,6-72.61,15.27-132.68,64.34-185.2,115C103.41,654,72.64,702,57.74,755.15c-16.59,59-12,121.55,26.39,171.38Z"/><path class="cls-4" d="M84.13,926.53c-47.06-36.91-43.37-107.4-27.9-159.38,20.41-68.53,63.36-128.32,114-177.78,6.74-6.83,15.75-15.13,22.73-21.84,42.14-38.65,91.22-73.72,146.69-91.24,3.59-1,12.63-3.62,16.1-4.6,3.43-.81,12.69-2.9,16.25-3.7,6.09-1,15.56-2.85,21.64-3.54,9.75-1.36,22.24-2.58,32-3.21l10.51-.67-16,7.17c15.3-14.1,30.6-28.05,46.06-41.94q69.51-62.57,141.38-122.39l1.65-1.37a13.45,13.45,0,0,1,18.33,1.15l-19.88.13c5-4,10.05-8,15.3-11.72,15.68-11.21,32.34-21,50.22-28.39,12-4.84,24.46-8.68,37.41-9.85,12.51-1.15,27.45.47,35.67,11-18.73-13.49-48.59,2.83-65.35,13.7-19.74,13-37.34,29.1-53.24,46.47-5.66,6-14.13,5.53-19.88.12l20-.22C572.18,386.24,514.7,446.19,456,505a24.62,24.62,0,0,1-16,7.17c-9,.89-20.18,2.15-29.1,3.35-5.35.89-13.49,2-18.72,3.15a284.4,284.4,0,0,0-94.86,36.46l-16.09,10.13c-5.24,3.69-10.53,7.3-15.8,11-6.46,4.83-12.92,9.74-19.37,14.62-5.49,4.49-13.46,11-19,15.49-11.61,10-25.76,22.42-37,33C138.09,687.2,92.86,745.85,72,814.18c-10.9,37-12.49,80.29,12.1,112.35Z"/><path class="cls-5" d="M84.13,926.53c-7.82-5.76-13.21-15-15.83-24.51-4.56-16.18-3.41-33.39-.56-49.74C82.55,777.67,132.68,705.83,183,650.18c42-45.1,87-89,139.27-122.24a356.15,356.15,0,0,1,54-28.38c21.3-8.92,44.42-15.75,66.52-21.24l-11.44,6.52q69.3-64.93,141.1-127.06,24.85-21.4,50.09-42.42a13.18,13.18,0,0,1,17.81.94l-19.47.44c18.27-15,37.6-28.72,58.39-40a187.38,187.38,0,0,1,32.64-14.22c10.29-3,26.82-7.1,34.36,1.88a12.74,12.74,0,0,0-7.87-2.18c-8.28.39-15.78,4.5-22.89,8.53a206.18,206.18,0,0,0-27,19.68c-17.11,14.36-32.85,30.4-47.68,47.07a13.18,13.18,0,0,1-17.66,1.79l-1.81-1.36,19.54-.5q-20.94,23.82-42.26,47.24c-42.38,46.59-86.48,92.8-130.75,137.62a24.82,24.82,0,0,1-11.43,6.53c-5.15,1.54-12.5,3.67-17.52,5.31a367.19,367.19,0,0,0-65,26.51c-2.23,1.09-5.47,3-7.64,4.25l-7.62,4.31-7.49,4.67c-2,1.26-5.51,3.36-7.47,4.74-4.22,2.9-10.64,7-14.75,10-24.33,17.34-48.73,37.43-71.06,57.25-59.6,52.33-117.19,109.37-157.17,178.47-15.24,27.56-37.44,73.34-16.6,102.17Z"/><path class="cls-4" d="M84.13,926.53c-5-3.95-5.51-11.4-5.11-17.38a87.06,87.06,0,0,1,3.69-18.24c7.29-23.4,18.92-45,31.3-65.92,18.56-31.1,40-60.5,62.61-88.68,26.16-32.61,55.15-63.74,84.39-93.63,34-34.48,69.78-67.89,108.81-96.73,11.1-8,23.12-16.24,34.75-23.42,14.17-8.73,29.33-17.18,43.8-24.84l-5.75,4.3q23.26-22.17,46.82-44c47.76-44.26,96.37-87.47,146.38-129.3a12.82,12.82,0,0,1,16.79.28l-18.54,1.18c25.47-21,51.94-41.08,80.94-57A150.48,150.48,0,0,1,730.08,266c4.58-1.62,9.49-3.78,14.43-2.78a3.53,3.53,0,0,1,1.76,1.16c-3.58-2.26-10.92,3.61-13.92,5.72-12.7,9.77-24,21.32-35.19,32.78s-22,23.42-32.65,35.45L654,350.44a12.87,12.87,0,0,1-16.61,2.4l-1.93-1.22L654,350.4q-42,48.86-85.73,96T479.7,539.53a23.89,23.89,0,0,1-5.76,4.31c-81.52,44.37-148.88,108.49-217,170.89C228.16,741.24,62.83,895.82,84.13,926.53Z"/><path class="cls-4" d="M84.13,926.53c85.56,69.3,198.87,118.62,309.78,100.83,44.76-7.25,87.75-27.91,118.53-61.38a431.74,431.74,0,0,0,30.93-36.22c74.85-96,91.49-216.39,55.78-331.86l-.48-1.61a21.9,21.9,0,0,1,5.44-21.72c2.63-2.64,5.42-5.67,8.17-8.59,30.13-32.05,61.07-64.51,91.76-96,8.26-8.46,25.48-26.05,33.84-34.5l.47,20.89a14.64,14.64,0,0,1-.54-20.81,130.06,130.06,0,0,0,25.44-36.84,128.56,128.56,0,0,0,6-91.25,131.74,131.74,0,0,0-23-43.09c58.09,46.54,60.18,134.89,14.76,191.4L760.49,435h0a14.68,14.68,0,0,1,.47,20.9l-15,19C716,512.48,685,550.58,654.37,587.58c-4.93,5.86-10.67,13-15.68,18.72l5-23.33C689,702.42,675.35,840,599.15,944a447.65,447.65,0,0,1-28.82,36c-15.78,17.5-32.51,34.61-52,48.05-86.68,61.27-204.94,53.39-296.69,7.95A407,407,0,0,1,84.13,926.53Z"/><path class="cls-5" d="M84.13,926.53c17.3,13.44,35.42,26.07,54.66,36.56,104.31,59,245.84,61,333.07-28.08,2.45-2.26,6.2-6.45,8.56-8.94,5.6-6,11.43-12.57,16.65-18.8,47-55.28,78.44-120.14,82.69-192.91,2.34-39.12-2.35-77.78-11.49-116.78A23.78,23.78,0,0,1,574,574.82C610,537.55,650,496.3,686.72,460q19-18.94,38.28-37.72l.29,20.76a14.43,14.43,0,0,1-.41-20.62,153.2,153.2,0,0,0,25.66-33.6c21.77-38,24.43-88.79-4.27-124.43,39.71,31.36,44.56,89.93,26.4,134.68a168.64,168.64,0,0,1-25.06,43.53L747.2,422h0a14.2,14.2,0,0,1,1.45,19.31c-42.42,52.7-86.16,105-130.22,156.34-2.94,3.41-5.78,6.76-8.89,10.24l5.68-22.75c2.21,7.51,4.37,15.83,6.27,23.46,29.15,119.86,4,228.3-75.84,322.43-5.78,6.91-12.38,14.26-18.62,20.78-5.15,5.48-11.74,12-17.13,17.27-123.71,118-323,86.57-425.77-42.53Z"/><path class="cls-4" d="M84.13,926.53c104.93,82.71,250.22,70.36,345.51-20.78,35.31-35.38,67.6-75.22,89.72-120.16a275.59,275.59,0,0,0,27.65-103c2.15-29.87-.39-60.71-5.11-91.72a24,24,0,0,1,6.56-20.24c26-26.51,54.59-55.47,81-81.49s55.7-54.58,82.65-80c0,0,.14,20.56.13,20.56a14.22,14.22,0,0,1-.26-20.43,189.2,189.2,0,0,0,13.59-14.56c12.93-15.29,23.39-32.82,29.69-51.93,8.66-25.83,8.7-55.72-9-78.38a65.53,65.53,0,0,1,14.67,16.27c20.4,33.2,13.4,76-2.35,109.73a194.05,194.05,0,0,1-24.4,39s-.27-20.43-.26-20.42a14,14,0,0,1,1.36,19.07q-18.82,23.06-37.89,45.89c-30.13,36.05-62.62,73.95-93.55,109.25-5.83,6.61-13.26,15.18-19.07,21.62l6.38-21.46a504,504,0,0,1,7.69,50.34c5.86,56.87-2.26,114.87-26.62,166.92-20.66,45-51.39,84.78-85.9,119.74a390.67,390.67,0,0,1-33.42,30.49c-107,87.8-279.81,88.32-368.78-24.31Z"/><path class="cls-6" d="M84.13,926.53c49.82,38.4,112.38,43,171.38,26.39,53.19-14.9,101.2-45.67,140.1-84.54,50.71-52.52,99.78-112.59,115.05-185.2,5.22-24.84,6.58-50.43,6-76-.08-7-.37-14.13-.68-21.26a24.62,24.62,0,0,1,7-19.36C580.34,508.64,639.27,451.18,699.15,396l0,20.32-1.31-1.6A13.71,13.71,0,0,1,699,396.12a236.16,236.16,0,0,0,25.32-27.72c11.41-14.91,21.26-31.34,26.95-49.31,3.51-11.2,5.38-23.13,3.47-34.79a47.09,47.09,0,0,0-6.37-16.84l-.7-1-1.43-2.06c22.83,18.36,21.1,52.3,14,78.06-7.63,27.09-22,51.89-39.53,73.75,0,0-.1-20.2-.1-20.19,6.07,5.69,5.66,14.58,0,20.32Q642.53,511,560,601.73l7-19.37c1.37,15.28,2.32,30.63,2.44,46.09.73,48.11-9.51,96.9-31.57,139.78-21.65,42.71-50.85,78.42-83.73,111.85-9.26,9.4-19.42,19.15-29.4,27.8-60.31,52-140.26,86.47-220.88,79.38-45.71-3.94-91.37-23.85-119.7-60.73Z"/><path class="cls-4" d="M84.13,926.53c32.08,24.59,75.35,23,112.35,12.1,68.33-20.83,127-66.06,174.92-118.06,10.6-11.3,22.94-25.37,33-37,4.51-5.55,11-13.49,15.49-19,4.87-6.46,9.79-12.91,14.62-19.37,3.64-5.28,7.26-10.57,11-15.8l10.13-16.09a288.22,288.22,0,0,0,34.62-85.66c.6-3,2.17-10.89,2.76-13.81s1.73-11,2.22-14.11c1.21-8.91,2.48-20.15,3.36-29.1a24.76,24.76,0,0,1,7.17-16q44-43.93,89.09-87t91.44-84.77l-.19,20-1.34-1.69A13.46,13.46,0,0,1,686.1,383a312.9,312.9,0,0,0,36.19-38.82,197.2,197.2,0,0,0,19.22-29.67c5.23-10.38,9.75-21.57,9.84-33.31a27.48,27.48,0,0,0-5.08-16.79c10.56,8.23,12.17,23.17,11,35.66-1.17,13-5,25.44-9.85,37.42-7.35,17.88-17.18,34.54-28.39,50.22-3.71,5.25-7.69,10.29-11.72,15.3l.09-19.92c6,5.73,5.45,14.33-.18,20-53.09,64-108,126.28-164.33,187.44l7.17-16c-.21,3.63-.8,12.29-1,15.77-.31,3.28-1.14,12.57-1.47,16-.45,3.66-1.62,12.65-2.09,16.16s-2.21,12.74-2.83,16.26c-.81,3.6-2.88,12.78-3.7,16.25-2.35,8.32-5.19,18.61-8.28,26.66-4.76,13.86-11.3,27.59-18,40.66-20.44,38.26-47.51,72.2-76.85,103.09C373.71,892.35,294.25,951,201.4,963.29,160,968.61,111,961.67,84.13,926.53Z"/><path class="cls-5" d="M84.13,926.53C113,947.42,159,925.05,186.3,909.93c69.1-40,126.14-97.57,178.47-157.17C384.59,730.44,404.68,706,422,681.7c3-4.11,7.1-10.48,10-14.75,1.4-2,3.43-5.38,4.74-7.47l4.67-7.49,4.31-7.62c1.24-2.2,3.16-5.41,4.25-7.64a366.4,366.4,0,0,0,26.5-65c1.63-5,3.81-12.42,5.32-17.52a25.32,25.32,0,0,1,6.53-11.43C533.21,498.51,579.4,454.42,626,412q23.44-21.31,47.25-42.26l-.43,19.62-1.34-1.76a13.22,13.22,0,0,1,1.7-17.79c16.67-14.83,32.71-30.57,47.07-47.68a206.85,206.85,0,0,0,19.68-27c4-7.13,8.14-14.61,8.53-22.89a12.74,12.74,0,0,0-2.18-7.87c4.84,3.77,5.69,10.86,5.36,16.67a76.06,76.06,0,0,1-3.48,17.69,187,187,0,0,1-14.23,32.64c-11.28,20.79-25,40.12-40,58.39l.37-19.55a13.15,13.15,0,0,1,1,17.86q-21,25.26-42.45,50.12-62,71.91-127.07,141.09l6.53-11.43C526.85,590,520,613.09,511.1,634.39a355.67,355.67,0,0,1-28.38,54c-33.28,52.25-77.14,97.22-122.24,139.27C304.78,878,233,928.09,158.38,942.92c-24.74,4.29-57.31,5.33-74.25-16.39Z"/><path class="cls-4" d="M84.13,926.53c30.77,21.36,186-144.75,211.8-172.82,62.65-68.34,126.94-136,171.39-217.85a24,24,0,0,1,3.81-4.9q23-22.44,46.23-44.61C564,442,611.42,398.66,660.26,356.65l-1,18.9L658,373.66a12.91,12.91,0,0,1,2.2-17l12.1-10.53c12-10.65,23.89-21.49,35.45-32.65s23-22.49,32.78-35.19c2.34-3.19,4.71-6.41,5.94-10.17a4.37,4.37,0,0,0-.22-3.75c5.42,4.9-5.91,25.65-8.76,31.26C727,315,714.32,333.18,701.06,350.77c-6.69,8.72-13.47,17.39-20.54,25.82l.93-18.87a12.87,12.87,0,0,1,.53,17.12l-1.49,1.78C632.23,434.21,582.16,490,530.75,544.7c-7.32,7.83-14.7,15.57-22.09,23.34l4.31-5.75c-15.57,29.63-33.34,59.27-53.84,85.94-27.45,36.21-58.89,69.55-91.15,101.42-29.89,29.24-61,58.23-93.63,84.39-28.18,22.65-57.58,44.05-88.68,62.61-20.95,12.38-42.51,24-65.93,31.3-10.51,3-28.33,7.49-35.61-1.42Z"/><path class="cls-6" d="M746.27,264.39c1,1,11.94,10.75-260.34,283C360.73,709.8,101.81,944.2,84.13,926.53s216.73-276.6,379.11-401.81C735.55,252.41,746.27,264.39,746.27,264.39Z"/><path d="M439.07,505.7a18.79,18.79,0,0,1-12.9-32.46l68.51-64.62A18.8,18.8,0,0,1,520.47,436L452,500.58A18.71,18.71,0,0,1,439.07,505.7Z"/><path d="M422.38,450.2a15.29,15.29,0,0,1-10.22-26.66L486.28,357a15.28,15.28,0,1,1,20.43,22.74l-74.13,66.58A15.19,15.19,0,0,1,422.38,450.2Z"/><path d="M426.81,390.8a11.66,11.66,0,0,1-7.63-20.49l78.76-68a11.66,11.66,0,1,1,15.24,17.65l-78.76,68A11.61,11.61,0,0,1,426.81,390.8Z"/><g class="cls-7"><path d="M761.94,341a26.06,26.06,0,0,1,3.09,4.41l17.26,31.3c4.43,8,2.48,15.5-4.35,16.67-5.5.93-12.48-2.49-17.32-8.05a25.66,25.66,0,0,1-3.09-4.41l-17.25-31.29c-4.44-8-2.49-15.51,4.35-16.67C750.12,332,757.11,335.39,761.94,341Z"/><path d="M736.53,358.78c3.22,3.7,5.32,8.13,5.47,12.23l1.55,42.32c.27,7.49-6.11,11-14.25,7.86a25.36,25.36,0,0,1-9.78-7.05c-3.21-3.69-5.32-8.13-5.47-12.22l-1.54-42.32c-.27-7.49,6.11-11,14.25-7.86A25.48,25.48,0,0,1,736.53,358.78Z"/></g><path d="M696.4,345.88c5.18,6,7,13.38,4,17.82L677,398.34c-3.51,5.2-12.32,4.34-19.67-1.91a27.8,27.8,0,0,1-2.94-2.9c-5.18-6-7-13.38-4-17.82l23.41-34.64c3.51-5.2,12.32-4.35,19.67,1.9A27.89,27.89,0,0,1,696.4,345.88Z"/><path d="M665,309.75a27.57,27.57,0,0,1,2.42,3.24c5,7.93,3.77,15.82-2.68,17.63l-42.7,12c-5.52,1.55-13.09-1.84-18.28-7.81a27.69,27.69,0,0,1-2.42-3.25c-5-7.92-3.77-15.81,2.68-17.63l42.7-12C652.23,300.38,659.8,303.78,665,309.75Z"/><path d="M772.33,310.51c3.82,4.39,6,9.76,5.38,14.24-1,6.92-8.33,9.08-16.42,4.82l-14.63-7.7a26.31,26.31,0,0,1-7.51-6c-3.81-4.39-6-9.76-5.37-14.24,1-6.92,8.32-9.08,16.41-4.82l14.63,7.7A26.31,26.31,0,0,1,772.33,310.51Z"/><path d="M660.77,271.63A22.16,22.16,0,0,1,666,281.85c1.43,7.87-3.91,12.58-11.93,10.53l-45.32-11.59a24.42,24.42,0,0,1-11.88-7.73,22.16,22.16,0,0,1-5.24-10.22c-1.43-7.87,3.92-12.58,11.94-10.53L648.9,263.9A24.4,24.4,0,0,1,660.77,271.63Z"/><path d="M721.56,252.1a23.54,23.54,0,0,1,4.66,8L731,274.72c2.64,8.09-1.47,14-9.18,13.15-5-.53-10.26-3.75-14.07-8.14a23.37,23.37,0,0,1-4.67-8l-4.78-14.63c-2.64-8.08,1.47-14,9.18-13.15C712.47,244.5,717.74,247.71,721.56,252.1Z"/><path d="M686.17,253.79c4.83,5.56,6.84,12.48,4.5,17-2.92,5.68-11.44,5.57-19.06-.24L642,248a27.7,27.7,0,0,1-4-3.77c-4.83-5.56-6.83-12.48-4.49-17,2.91-5.68,11.44-5.57,19,.24L682.16,250A27.14,27.14,0,0,1,686.17,253.79Z"/></g></g></svg>