<svg xmlns="http://www.w3.org/2000/svg" viewBox="0 0 1000 1000"><defs><style>.cls-1{opacity:0.55;}.cls-2{fill:#ffbc58;}.cls-3{fill:#ff6442;}.cls-4{fill:#216f9b;}</style></defs><g id="레이어_7" data-name="레이어 7"><rect class="cls-2" x="682.37" y="467.22" width="16.39" height="65.55"/><rect class="cls-3" x="698.76" y="467.22" width="16.39" height="65.55"/><rect class="cls-2" x="715.14" y="467.22" width="16.39" height="65.55"/><rect class="cls-4" x="731.53" y="467.22" width="16.39" height="65.55"/><rect class="cls-2" x="747.92" y="467.22" width="16.39" height="65.55"/><rect class="cls-3" x="764.31" y="467.22" width="16.39" height="65.55"/><rect class="cls-2" x="780.7" y="467.22" width="16.39" height="65.55"/><rect class="cls-4" x="797.09" y="467.22" width="16.39" height="65.55"/><rect class="cls-2" x="813.47" y="467.22" width="16.39" height="65.55"/><rect class="cls-3" x="829.86" y="467.22" width="16.39" height="65.55"/><rect class="cls-2" x="846.25" y="467.22" width="16.39" height="65.55"/><rect class="cls-4" x="862.64" y="467.22" width="16.39" height="65.55"/><rect class="cls-2" x="879.03" y="467.22" width="16.39" height="65.55"/><rect class="cls-3" x="895.41" y="467.22" width="16.39" height="65.55"/><rect class="cls-2" x="911.8" y="467.22" width="16.39" height="65.55"/><path d="M121.65,519.82h53.88v13H121.65Z"/><path d="M183.51,532.85H167l-12.13-33.29c-2.3-6.6-4.34-13.25-6.43-19.94h-.54c-2.08,6.69-4,13.34-6.35,19.94l-12.14,33.29h-15.7L139,467.15h18.7Z"/><path d="M200.6,467.15H217v52.67h37.48v13H200.6Z"/><path d="M267.74,524.31l7.1-10.4a48.84,48.84,0,0,0,27.27,8.22c8.67,0,12.69-3.23,12.69-7.32s-3-6.32-17.7-9.38c-17.61-3.71-25.24-10-25.24-20,0-11.61,10.65-19.85,29.12-19.85,11.07,0,21,4.34,27.72,8.75l-7.5,10a40.89,40.89,0,0,0-21.69-6.51c-8,0-11.36,3-11.36,6.83,0,4.41,4.65,5.85,16.68,8.47,20.82,4.62,26.33,10.25,26.33,20.74,0,11.44-11,20.61-31.23,20.61C287.8,534.45,275.91,529.84,267.74,524.31Z"/><path d="M347.57,515.08c0-14.73,12.77-22.11,44.89-24.3-.58-7-5-12.09-15.24-12.09-7.15,0-14.23,3.05-21.13,6.78l-6-10.82c8.23-4.87,18.94-9.1,30.22-9.1,18.29,0,28.58,10,28.58,28.72v38.58H395.41l-1.23-8h-.47c-6.83,5.24-15.51,9.57-24.22,9.57C356.56,534.45,347.57,526.39,347.57,515.08Zm44.89-1v-13.1c-22.61,1.42-29,6.11-29,12.86,0,5.42,4.76,7.82,11,7.82C380.89,521.62,386.73,518.63,392.46,514Z"/><path d="M434.31,467.15h15.28L470,498.4c2.43,3.89,5.66,9.87,8,13.88h.47c-.65-8.23-1.42-16.74-1.42-23.5V467.15h15.32v65.7H477.09L456.67,501.6c-2.44-3.83-5.75-9.75-8-13.88h-.53c.7,8.28,1.48,16.74,1.48,23.5v21.63H434.31Z"/><path d="M512,524.31l7.11-10.4a48.81,48.81,0,0,0,27.26,8.22c8.67,0,12.7-3.23,12.7-7.32s-3-6.32-17.7-9.38c-17.61-3.71-25.24-10-25.24-20,0-11.61,10.65-19.85,29.11-19.85,11.08,0,21,4.34,27.72,8.75l-7.49,10a40.9,40.9,0,0,0-21.7-6.51c-7.95,0-11.35,3-11.35,6.83,0,4.41,4.64,5.85,16.67,8.47,20.83,4.62,26.34,10.25,26.34,20.74,0,11.44-11,20.61-31.23,20.61C532.07,534.45,520.18,529.84,512,524.31Z"/><path d="M591.4,499.92c0-21.44,16.35-34.37,33.94-34.37,19.76,0,30.59,13.16,30.59,31.26a53.39,53.39,0,0,1-.71,8h-52V493.39h41.26l-3,3.49c0-12.42-5.76-18.77-15.66-18.77-10.58,0-18.48,7.52-18.48,21.81,0,14.91,8.8,21.89,22.26,21.89,6.66,0,12.19-1.92,18.07-5.18l5.56,10.08a48.34,48.34,0,0,1-25.81,7.74C607.24,534.45,591.4,521.79,591.4,499.92Z"/></g></svg>