<svg xmlns="http://www.w3.org/2000/svg" viewBox="0 0 1000 1000"><defs><style>.cls-1{opacity:0.55;}</style></defs><g id="레이어_7" data-name="레이어 7"><path d="M229.84,452.09h6V542.3h65.75v5.61H229.84Z"/><path d="M190.57,547.91h-6.41L156.1,485.77c-4.42-9.63-8.63-18.85-12.43-27.27h-.81c-3.8,8.42-7.62,17.64-12,27.27l-28.08,62.14h-6l43.71-95.82h6Z"/><path d="M100.94,542.3h85.45v5.61H100.94Z"/><path d="M328.76,535.08l3.59-4.81c10.43,8.42,23.07,14.44,44.12,14.44,20.84,0,31.67-9.63,31.67-20.45,0-9.22-3.21-16.84-35.28-23.26-24.07-4.81-38.49-12.43-38.49-26.46,0-13.23,11-24.86,36.48-24.86,12.23,0,27.07,4.81,36.08,11.63l-3.61,4.81a53.32,53.32,0,0,0-32.87-10.83c-22.66,0-29.67,9.23-29.67,18.85,0,10.82,10.43,16.44,32.88,21.05,33.68,7,40.9,14.63,40.9,28.67s-14,26.46-38.5,26.46A80.93,80.93,0,0,1,328.76,535.08Z"/><path d="M449.5,524.46c0-21.45,22.05-31.48,75-36.29,0-16.84-6.41-32.88-29.67-32.88-15.23,0-29.87,8-37.28,13.63l-3.22-4.81c6.82-5.21,23.66-14.43,40.9-14.43,25.46,0,35.29,16.84,35.29,36.09v62.14h-5.22l-.8-14.83h-.4c-11.23,9-26.46,17.24-40.89,17.24C466.35,550.32,449.5,542.7,449.5,524.46Zm75,1.8V493.38c-51.72,4.82-68.56,14.44-68.56,30.88,0,14.83,14,20.45,27.66,20.45C496.41,544.71,510,538.49,524.48,526.26Z"/><path d="M579.36,452.09h6.41l46.91,65.75c4.42,6.22,10,14.44,15.23,20.85h.81c-.4-12.83-.81-25.06-.81-35.68V452.09h6v95.82h-6.42l-46.91-65.75c-4.41-6.22-10.43-14.44-15.24-20.85h-.8c.4,12.83.8,25.06.8,35.68v50.92h-6Z"/><path d="M694.5,535.08l3.61-4.81c10.41,8.42,23,14.44,44.1,14.44,20.84,0,31.67-9.63,31.67-20.45,0-9.22-3.21-16.84-35.28-23.26-24.07-4.81-38.49-12.43-38.49-26.46,0-13.23,11-24.86,36.49-24.86,12.22,0,27.06,4.81,36.07,11.63l-3.61,4.81a53.32,53.32,0,0,0-32.87-10.83c-22.66,0-29.67,9.23-29.67,18.85,0,10.82,10.43,16.44,32.88,21.05,33.68,7,40.9,14.63,40.9,28.67s-14,26.46-38.5,26.46A80.93,80.93,0,0,1,694.5,535.08Z"/><path d="M813,500.2c0-31.28,22.85-50.52,47.71-50.52,25.66,0,42.5,16.44,42.5,44.11a36.77,36.77,0,0,1-.4,6.41H815v-5.61h86.2l-3.6,3.2c0-28.87-15.24-42.5-36.89-42.5-20.85,0-41.3,16.44-41.3,44.51,0,28.87,20.45,44.91,43.7,44.91a55.49,55.49,0,0,0,33.28-10.83l2.81,5.21c-8.42,5.41-18.65,11.23-36.09,11.23C835.89,550.32,813,531.47,813,500.2Z"/></g></svg>