<?xml version="1.0" encoding="UTF-8"?>
<svg id="_레이어_1" data-name="레이어 1" xmlns="http://www.w3.org/2000/svg" viewBox="0 0 1280 256">
  <defs>
    <style>
      .cls-1 {
        fill: none;
        stroke: #000;
        stroke-miterlimit: 10;
      }
    </style>
  </defs>
  <circle class="cls-1" cx="130.52" cy="128" r="112.9"/>
  <g>
    <line class="cls-1" x1="243.42" y1="128" x2="1233.05" y2="128"/>
    <polygon points="1231.59 132.99 1240.23 128 1231.59 123.01 1231.59 132.99"/>
  </g>
  <path class="cls-1" d="M175.02,155.5c0,28.26-16.24,44.5-44.5,44.5s-44.5-16.24-44.5-44.5v-55c0-28.26,16.24-44.5,44.5-44.5s44.5,16.24,44.5,44.5v55Z"/>
  <path class="cls-1" d="M140.57,88.34c0,10.34-3.67,16.28-10.06,16.28s-10.06-5.94-10.06-16.28,3.67-16.28,10.06-16.28,10.06,5.94,10.06,16.28Z"/>
  <line class="cls-1" x1="130.52" y1="72.06" x2="130.52" y2="56"/>
</svg>