<svg xmlns="http://www.w3.org/2000/svg" viewBox="0 0 272.26 421.61"><defs><style>.cls-1{fill:none;stroke:#216f9b;stroke-linejoin:round;stroke-width:2px;}.cls-2{fill:#216f9b;}</style></defs><g id="silitim"><polygon class="cls-1" points="219.94 420.61 1.93 410.18 1 14.22 219 20.31 219.94 420.61"/><path class="cls-2" d="M108.17,39.59h.19a4.31,4.31,0,0,1,4,4.31,3.79,3.79,0,0,1-3.75,3.91h-.19a4.31,4.31,0,0,1-4-4.31,3.8,3.8,0,0,1,3.76-3.91m0-2a5.66,5.66,0,0,0-4,1.67,6,6,0,0,0-1.72,4.25,6.33,6.33,0,0,0,5.87,6.3h.29a5.66,5.66,0,0,0,4-1.67,6,6,0,0,0,1.72-4.25,6.33,6.33,0,0,0-5.86-6.3Z"/><path class="cls-2" d="M108.24,72.45h.19a4.3,4.3,0,0,1,4,4.3,3.8,3.8,0,0,1-3.75,3.92h-.2a4.31,4.31,0,0,1-4-4.31,3.8,3.8,0,0,1,3.75-3.92m0-2a5.7,5.7,0,0,0-4,1.67,6,6,0,0,0-1.72,4.26,6.32,6.32,0,0,0,5.86,6.29h.3a5.66,5.66,0,0,0,4-1.67,6,6,0,0,0,1.72-4.25,6.33,6.33,0,0,0-5.87-6.3Z"/><path class="cls-2" d="M108.32,105.32h.19a4.28,4.28,0,0,1,4,4.3,3.79,3.79,0,0,1-3.75,3.92h-.19a4.29,4.29,0,0,1-4-4.3,3.8,3.8,0,0,1,3.75-3.92m0-2a5.62,5.62,0,0,0-4,1.67,5.9,5.9,0,0,0-1.72,4.25,6.32,6.32,0,0,0,5.86,6.3h.29a5.67,5.67,0,0,0,4-1.67,5.9,5.9,0,0,0,1.72-4.25,6.31,6.31,0,0,0-5.86-6.3Z"/><path class="cls-2" d="M108.4,138.19h.19a4.3,4.3,0,0,1,4,4.31,3.79,3.79,0,0,1-3.75,3.91h-.19a4.3,4.3,0,0,1-4-4.3,3.8,3.8,0,0,1,3.76-3.92m0-2a5.62,5.62,0,0,0-4,1.67,5.94,5.94,0,0,0-1.73,4.25,6.33,6.33,0,0,0,5.87,6.3h.29a5.64,5.64,0,0,0,4-1.67,5.91,5.91,0,0,0,1.72-4.25,6.32,6.32,0,0,0-5.86-6.29Z"/><path class="cls-2" d="M108.47,171.06h.2a4.3,4.3,0,0,1,4,4.3,3.8,3.8,0,0,1-3.75,3.92h-.2a4.31,4.31,0,0,1-4-4.31,3.8,3.8,0,0,1,3.75-3.91m0-2a5.66,5.66,0,0,0-4,1.67,6,6,0,0,0-1.72,4.25,6.32,6.32,0,0,0,5.87,6.29h.29a5.66,5.66,0,0,0,4-1.67,6,6,0,0,0,1.72-4.25,6.33,6.33,0,0,0-5.87-6.3Z"/><path class="cls-2" d="M108.55,203.92h.19a4.3,4.3,0,0,1,4,4.3,3.81,3.81,0,0,1-3.76,3.92h-.19a4.28,4.28,0,0,1-4-4.3,3.8,3.8,0,0,1,3.75-3.92m0-2a5.68,5.68,0,0,0-4,1.67,6,6,0,0,0-1.72,4.25,6.32,6.32,0,0,0,5.86,6.3H109a5.62,5.62,0,0,0,4-1.67,6,6,0,0,0,1.73-4.25,6.33,6.33,0,0,0-5.87-6.3Z"/><polyline class="cls-1" points="271.25 5.11 219 20.31 1 14.2 110.46 1 271.25 5.11 269.99 340.26 219.94 420.61"/></g></svg>