<svg id="레이어_1" data-name="레이어 1" xmlns="http://www.w3.org/2000/svg" viewBox="0 0 1997.49 341.16"><defs><style>.cls-1{isolation:isolate;}.cls-2{fill:#d01;}.cls-3{fill:#fff;}</style></defs><g class="cls-1"><polygon class="cls-2" points="1060.66 254.75 1062.87 335.36 942.78 335.36 946.27 254.75 1060.66 254.75"/><polygon class="cls-2" points="1341.71 254.75 1242.22 335.36 1192.77 335.36 1073.87 254.75 1341.71 254.75"/><polygon class="cls-2" points="1489.83 254.75 1513.41 335.36 1372.12 335.36 1355.24 254.75 1489.83 254.75"/><path class="cls-2" d="M1918,254.75a150.32,150.32,0,0,1,15.62,5.19,110.22,110.22,0,0,1,15.23,7.39,77.06,77.06,0,0,1,13.54,10,56.64,56.64,0,0,1,10.5,13c5,8.6,5.73,15.72,2.89,21.56s-9.38,10.44-18.92,13.92-22.15,5.86-37.08,7.37-32.24,2.14-51.17,2.14H1529.51l-24.34-80.61Zm-121.11,36.71a86.79,86.79,0,0,0,11.8-.67,25.62,25.62,0,0,0,8.06-2.23,6.83,6.83,0,0,0,3.76-4.12c.47-1.72.15-3.8-1.08-6.3a18.76,18.76,0,0,0-4.75-6.08,26.56,26.56,0,0,0-7.83-4.44,53,53,0,0,0-11.35-2.72,112.87,112.87,0,0,0-15.33-.93H1642.93l10.58,27.49h143.37"/><path class="cls-2" d="M932.35,254.75c-2.8,17.42-11.25,31.59-24,43-12.88,11.6-30,20.3-50,26.74-20.1,6.49-42.9,10.66-66.88,13.2a707.36,707.36,0,0,1-73.86,3.45c-23,0-46.39-.78-68.66-2.85s-43.29-5.4-61.76-10.49S553.15,316,541.47,307.08s-19.09-19.7-21.27-33c-8.18,12.65-19.73,22.84-33.76,31s-30.8,14.35-49,18.85-38,7.39-58.29,9.13-41.19,2.33-61.66,2.33H33.78l46.61-80.61H214.6L201,282.2H301.37c10.76,0,21-.34,30.46-1.2a155.47,155.47,0,0,0,25.94-4.32,71.3,71.3,0,0,0,20.15-8.44A38.63,38.63,0,0,0,391,254.75H664.13a32.39,32.39,0,0,0,10.09,9.51,59.57,59.57,0,0,0,15.13,6.43,117.34,117.34,0,0,0,19.55,3.62,217.18,217.18,0,0,0,23.3,1.14A232.08,232.08,0,0,0,756,274.31a146.09,146.09,0,0,0,21.1-3.62,89.05,89.05,0,0,0,17.73-6.43,55.34,55.34,0,0,0,13.74-9.51Z"/></g><g class="cls-1"><path class="cls-2" d="M650.15,161.47l-13.72,62.05c-.42,1.89-.74,3.71-1,5.48a49.84,49.84,0,0,0-.43,5.16,42.8,42.8,0,0,0,.12,4.84,35.9,35.9,0,0,0,.64,4.52H351.68c1.37-6,.49-10.91-2.3-14.82s-7.47-6.84-13.72-9-14.06-3.64-23.13-4.55-19.39-1.26-30.67-1.26H178.73L164,243.52H21.29l47.57-82.05h273.6a449.6,449.6,0,0,1,53.4,3A257.13,257.13,0,0,1,442.2,174c13.86,4.39,25.84,10,35.19,17.12s16.2,15.74,19.54,26l17-55.64Z"/><path class="cls-2" d="M931.69,161.47l-3.9,82.05H802.2a48.77,48.77,0,0,0,2.25-4.52q1-2.34,1.8-4.84t1.36-5.16c.38-1.77.68-3.59.9-5.48l7.38-62.05Z"/><polygon class="cls-2" points="1495.51 161.47 1520.15 243.52 1377.03 243.52 942.1 243.52 945.31 161.47 1133.38 161.47 1232.55 227.26 1314.25 161.47 1495.51 161.47"/><path class="cls-2" d="M1813.76,161.47c17.78,0,35.31.42,51.9,1.6a331.47,331.47,0,0,1,46.48,6.24c14.19,3.11,26.86,7.37,37.31,13.16s18.87,13.24,24.32,22.65c3.22,5.56,4.61,10.44,4.61,14.71a18.27,18.27,0,0,1-3.65,11.08,29.13,29.13,0,0,1-9.1,7.77,54.72,54.72,0,0,1-11.61,4.84H1536.46L1511,161.47ZM1814,231a84.2,84.2,0,0,0,11.3-.66,28.14,28.14,0,0,0,8.31-2.23,7.71,7.71,0,0,0,4.23-4.15c.61-1.75.37-3.87-.89-6.43a17.79,17.79,0,0,0-5.08-6.19,27.11,27.11,0,0,0-8-4.2,53.73,53.73,0,0,0-10.79-2.39,107.26,107.26,0,0,0-13.52-.76H1663.62l10.64,27H1814"/></g><path class="cls-3" d="M930.46,95c-2.65,17.79-11.1,32.26-24,43.94-13,11.85-30.47,20.74-50.78,27.33-20.48,6.64-43.75,10.9-68.23,13.5A724.49,724.49,0,0,1,712,183.33c-23.54,0-47.44-.8-70.23-2.92s-44.3-5.52-63.22-10.72-34.94-12.09-46.94-21.2S512,128.35,509.67,114.74c-8.28,12.93-20,23.34-34.3,31.67-14.43,8.42-31.39,14.68-49.93,19.28s-38.8,7.56-59.55,9.33-42.1,2.39-63,2.39H12.77L60.36,95H197.42l-13.82,28H286.14c11,0,21.44-.35,31.11-1.23a159.14,159.14,0,0,0,26.49-4.41,72.17,72.17,0,0,0,20.54-8.62A39.31,39.31,0,0,0,377.61,95H656.53a33.71,33.71,0,0,0,10.38,9.71,61.16,61.16,0,0,0,15.51,6.56,120.42,120.42,0,0,0,20,3.71,224.11,224.11,0,0,0,23.82,1.16A238.62,238.62,0,0,0,750.57,115a148.15,148.15,0,0,0,21.52-3.71,89.4,89.4,0,0,0,18-6.56A55.93,55.93,0,0,0,804.07,95Z"/><path class="cls-3" d="M1929.7,95c-2.64,5.48-7.39,10.16-13.66,14.1a90.11,90.11,0,0,1-22.91,9.68,183.16,183.16,0,0,1-28.56,5.54,259.75,259.75,0,0,1-30.49,1.76h-168.9l20.85,51.3H1542L1515.48,95Z"/><polygon class="cls-3" points="1499.82 95.03 1525.53 177.41 1381.08 177.41 1362.37 95.03 1499.82 95.03"/><polygon class="cls-3" points="1348.54 95.03 1248.27 177.41 1197.71 177.41 1075 95.03 1348.54 95.03"/><polygon class="cls-3" points="1061.51 95.03 1064.89 177.41 942.12 177.41 944.68 95.03 1061.51 95.03"/><path class="cls-3" d="M1824.83,0A376,376,0,0,1,1870,2.73a289,289,0,0,1,47.33,9.59c15.41,4.61,30,10.74,42.59,18.79s23.37,18.26,30.74,30.8a59.68,59.68,0,0,1,3.07,5.89,49.38,49.38,0,0,1,2.15,5.62,38.25,38.25,0,0,1,1.24,5.34,31.54,31.54,0,0,1,.39,5h-449L1521.57,0Zm7,76.64A82.25,82.25,0,0,0,1843.1,76a29.77,29.77,0,0,0,8.63-2.36,8.25,8.25,0,0,0,4.51-4.45c.66-1.88.41-4.17-1-7a19,19,0,0,0-6-6.84,30.81,30.81,0,0,0-8.83-4.26,59.44,59.44,0,0,0-10.75-2.19,102.83,102.83,0,0,0-11.74-.62h-138l11.53,28.36h140.39"/><g class="cls-1"><path class="cls-3" d="M642.71,0l-14,63.37q-.64,2.88-1,5.6c-.23,1.81-.38,3.57-.43,5.27a42.5,42.5,0,0,0,.11,5,35.45,35.45,0,0,0,.65,4.62H337.65c1.43-6.18.55-11.16-2.29-15.15s-7.59-7-14-9.24-14.34-3.73-23.61-4.65-19.8-1.29-31.32-1.29H161.1L145.86,83.81H0L49.28,0H328.59a459.07,459.07,0,0,1,54.5,3,263.15,263.15,0,0,1,47.29,9.73c14.14,4.49,26.36,10.26,35.88,17.48s16.52,16.08,19.91,26.56L503.63,0Z"/><polygon class="cls-3" points="1505.73 0 1531.81 83.81 1385.53 83.81 941.05 83.81 944.03 0 1136.03 0 1237.75 67.18 1320.69 0 1505.73 0"/></g><path class="cls-3" d="M930.13,0l-3.71,83.81H798.07a49.62,49.62,0,0,0,2.29-4.62,52,52,0,0,0,1.84-5q.79-2.55,1.38-5.27t.91-5.6L811.91,0Z"/></svg>