<svg id="레이어_1" data-name="레이어 1" xmlns="http://www.w3.org/2000/svg" viewBox="0 0 1996.7 183.33"><defs><style>.cls-1{isolation:isolate;}.cls-2{fill:#d01;}</style></defs><g class="cls-1"><polygon class="cls-2" points="1060.41 95.17 1062.66 177.41 940.14 177.41 943.7 95.17 1060.41 95.17"/><polygon class="cls-2" points="1347.14 95.17 1245.64 177.41 1195.19 177.41 1073.88 95.17 1347.14 95.17"/><polygon class="cls-2" points="1498.26 95.17 1522.32 177.41 1378.17 177.41 1360.95 95.17 1498.26 95.17"/><path class="cls-2" d="M1935.08,95.17a151.69,151.69,0,0,1,15.94,5.29,113.57,113.57,0,0,1,15.54,7.54,79.64,79.64,0,0,1,13.81,10.2,58,58,0,0,1,10.71,13.31c5.07,8.77,5.85,16,3,22s-9.58,10.66-19.3,14.2-22.6,6-37.83,7.53-32.89,2.18-52.21,2.18h-346L1513.9,95.17Zm-123.56,37.45a90.21,90.21,0,0,0,12-.68,26.12,26.12,0,0,0,8.22-2.28,7,7,0,0,0,3.84-4.2c.48-1.75.15-3.88-1.1-6.42a18.94,18.94,0,0,0-4.85-6.21,27.16,27.16,0,0,0-8-4.53,54.09,54.09,0,0,0-11.58-2.78,115.5,115.5,0,0,0-15.64-1h-140l10.8,28.05h146.27"/><path class="cls-2" d="M929.5,95.17c-2.86,17.77-11.48,32.23-24.44,43.89-13.15,11.83-30.66,20.7-51,27.28s-43.77,10.87-68.23,13.46a719.52,719.52,0,0,1-75.36,3.53c-23.49,0-47.32-.8-70.05-2.91s-44.16-5.51-63-10.7-34.78-12.07-46.7-21.16-19.47-20.11-21.69-33.7c-8.35,12.91-20.14,23.3-34.45,31.62s-31.42,14.65-49.95,19.24-38.76,7.54-59.47,9.31-42,2.38-62.9,2.38H12.74L60.3,95.17H197.22l-13.87,28h102.4c11,0,21.4-.35,31.07-1.23a158.07,158.07,0,0,0,26.47-4.4,72.35,72.35,0,0,0,20.55-8.61,39.52,39.52,0,0,0,13.38-13.76H655.85a33.11,33.11,0,0,0,10.29,9.7,60.47,60.47,0,0,0,15.44,6.56,120.59,120.59,0,0,0,19.94,3.7,223.45,223.45,0,0,0,23.78,1.15,238.58,238.58,0,0,0,24.3-1.15,149.79,149.79,0,0,0,21.52-3.7,90.11,90.11,0,0,0,18.09-6.56,56.55,56.55,0,0,0,14-9.7Z"/></g><g class="cls-1"><path class="cls-2" d="M641.59,0l-14,63.31q-.63,2.88-1,5.59c-.23,1.81-.38,3.56-.43,5.26a44.59,44.59,0,0,0,.12,4.94,39.36,39.36,0,0,0,.65,4.61H337.08c1.4-6.16.5-11.13-2.36-15.12s-7.61-7-14-9.22-14.34-3.72-23.59-4.64-19.79-1.29-31.3-1.29H160.63l-15,30.27H0L48.54,0H327.67a458.85,458.85,0,0,1,54.48,3,263,263,0,0,1,47.28,9.73c14.14,4.48,26.36,10.25,35.9,17.47s16.53,16.06,19.94,26.53L502.6,0Z"/><path class="cls-2" d="M928.82,0l-4,83.71H796.71A48.22,48.22,0,0,0,799,79.1a51.83,51.83,0,0,0,1.85-4.94c.53-1.7,1-3.45,1.38-5.26s.69-3.67.92-5.59L810.68,0Z"/><polygon class="cls-2" points="1504.05 0 1529.19 83.71 1383.17 83.71 939.45 83.71 942.72 0 1134.59 0 1235.77 67.12 1319.12 0 1504.05 0"/><path class="cls-2" d="M1828.74,0c18.14,0,36,.42,53,1.63A336.65,336.65,0,0,1,1929.11,8c14.48,3.17,27.4,7.52,38.07,13.43s19.25,13.51,24.81,23.1c3.29,5.67,4.7,10.65,4.71,15A18.74,18.74,0,0,1,1993,70.85a29.7,29.7,0,0,1-9.29,7.92,55.14,55.14,0,0,1-11.84,4.94h-426L1519.88,0Zm.2,71a85.6,85.6,0,0,0,11.53-.68A28.82,28.82,0,0,0,1849,68a7.83,7.83,0,0,0,4.32-4.24c.62-1.78.38-3.94-.91-6.56a18.27,18.27,0,0,0-5.18-6.31,27.47,27.47,0,0,0-8.14-4.28,54.39,54.39,0,0,0-11-2.44,109.45,109.45,0,0,0-13.8-.78H1675.57L1686.42,71h142.52"/></g></svg>