<svg id="레이어_1" data-name="레이어 1" xmlns="http://www.w3.org/2000/svg" viewBox="0 0 1997.49 183.33"><defs><style>.cls-1{fill:#fff;}.cls-2{isolation:isolate;}</style></defs><path class="cls-1" d="M930.46,95c-2.65,17.79-11.1,32.26-24,43.94-13,11.85-30.47,20.74-50.78,27.33-20.48,6.64-43.75,10.9-68.23,13.5A724.49,724.49,0,0,1,712,183.33c-23.54,0-47.44-.8-70.23-2.92s-44.3-5.52-63.22-10.72-34.94-12.09-46.94-21.2S512,128.35,509.67,114.74c-8.28,12.93-20,23.34-34.3,31.67-14.43,8.42-31.39,14.68-49.93,19.28s-38.8,7.56-59.55,9.33-42.1,2.39-63,2.39H12.77L60.36,95H197.42l-13.82,28H286.14c11,0,21.44-.35,31.11-1.23a159.14,159.14,0,0,0,26.49-4.41,72.17,72.17,0,0,0,20.54-8.62A39.31,39.31,0,0,0,377.61,95H656.53a33.71,33.71,0,0,0,10.38,9.71,61.16,61.16,0,0,0,15.51,6.56,120.42,120.42,0,0,0,20,3.71,224.11,224.11,0,0,0,23.82,1.16A238.62,238.62,0,0,0,750.57,115a148.15,148.15,0,0,0,21.52-3.71,89.4,89.4,0,0,0,18-6.56A55.93,55.93,0,0,0,804.07,95Z"/><path class="cls-1" d="M1929.7,95c-2.64,5.48-7.39,10.16-13.66,14.1a90.11,90.11,0,0,1-22.91,9.68,183.16,183.16,0,0,1-28.56,5.54,259.75,259.75,0,0,1-30.49,1.76h-168.9l20.85,51.3H1542L1515.48,95Z"/><polygon class="cls-1" points="1499.82 95.03 1525.53 177.41 1381.08 177.41 1362.37 95.03 1499.82 95.03"/><polygon class="cls-1" points="1348.54 95.03 1248.27 177.41 1197.71 177.41 1075 95.03 1348.54 95.03"/><polygon class="cls-1" points="1061.51 95.03 1064.89 177.41 942.12 177.41 944.68 95.03 1061.51 95.03"/><path class="cls-1" d="M1824.83,0A376,376,0,0,1,1870,2.73a289,289,0,0,1,47.33,9.59c15.41,4.61,30,10.74,42.59,18.79s23.37,18.26,30.74,30.8a59.68,59.68,0,0,1,3.07,5.89,49.38,49.38,0,0,1,2.15,5.62,38.25,38.25,0,0,1,1.24,5.34,31.54,31.54,0,0,1,.39,5h-449L1521.57,0Zm7,76.64A82.25,82.25,0,0,0,1843.1,76a29.77,29.77,0,0,0,8.63-2.36,8.25,8.25,0,0,0,4.51-4.45c.66-1.88.41-4.17-1-7a19,19,0,0,0-6-6.84,30.81,30.81,0,0,0-8.83-4.26,59.44,59.44,0,0,0-10.75-2.19,102.83,102.83,0,0,0-11.74-.62h-138l11.53,28.36h140.39"/><g class="cls-2"><path class="cls-1" d="M642.71,0l-14,63.37q-.64,2.88-1,5.6c-.23,1.81-.38,3.57-.43,5.27a42.5,42.5,0,0,0,.11,5,35.45,35.45,0,0,0,.65,4.62H337.65c1.43-6.18.55-11.16-2.29-15.15s-7.59-7-14-9.24-14.34-3.73-23.61-4.65-19.8-1.29-31.32-1.29H161.1L145.86,83.81H0L49.28,0H328.59a459.07,459.07,0,0,1,54.5,3,263.15,263.15,0,0,1,47.29,9.73c14.14,4.49,26.36,10.26,35.88,17.48s16.52,16.08,19.91,26.56L503.63,0Z"/><polygon class="cls-1" points="1505.73 0 1531.81 83.81 1385.53 83.81 941.05 83.81 944.03 0 1136.03 0 1237.75 67.18 1320.69 0 1505.73 0"/></g><path class="cls-1" d="M930.13,0l-3.71,83.81H798.07a49.62,49.62,0,0,0,2.29-4.62,52,52,0,0,0,1.84-5q.79-2.55,1.38-5.27t.91-5.6L811.91,0Z"/></svg>