<svg id="레이어_1" data-name="레이어 1" xmlns="http://www.w3.org/2000/svg" xmlns:xlink="http://www.w3.org/1999/xlink" viewBox="0 0 2500.77 314.59"><defs><style>.cls-1{fill:none;}.cls-2{isolation:isolate;}.cls-3{clip-path:url(#clip-path);}.cls-4{fill:#d01;}.cls-5{clip-path:url(#clip-path-2);}.cls-6{fill:#fcfcfc;}</style><clipPath id="clip-path"><polygon class="cls-1" points="0 314.58 109.57 162.03 2390.77 162.03 2500.34 314.58 0 314.58"/></clipPath><clipPath id="clip-path-2"><polyline class="cls-1" points="14.33 142.02 116.98 0 2398.12 0 2500.77 142.02"/></clipPath></defs><g class="cls-2"><g class="cls-3"><path class="cls-4" d="M784.18,162h-197a121.84,121.84,0,0,1-27.62,19,175.78,175.78,0,0,1-34.33,12.89,267,267,0,0,1-39.76,7.28,400.62,400.62,0,0,1-43.87,2.27,336,336,0,0,1-41.39-2.27c-12.32-1.55-23.07-3.94-32-7.28s-15.91-7.58-20.85-12.89a30,30,0,0,1-8.19-19H109.57C90,191.48,85.28,215.86,92.21,235.84c7.11,20.48,26.37,36.09,54,47.8,28,11.87,64.31,19.61,104.83,24.38,40.74,4.8,85.46,6.57,130,6.57,43,0,87.2-1.65,130.3-6.3,42.88-4.62,84.35-12.19,121.89-24,37-11.6,69.9-27.17,96.13-47.75C755,216.5,774,191.89,784.18,162"/><polyline class="cls-4" points="993.42 162.03 806.34 162.03 766.51 304.54 970.38 304.54 993.42 162.03"/><polyline class="cls-4" points="1695.26 162.03 1475.17 162.03 1495.36 304.54 1735.2 304.54 1695.26 162.03"/><polyline class="cls-4" points="1464.09 162.03 1003.91 162.03 1190.9 304.54 1274.84 304.54 1464.09 162.03"/><path class="cls-4" d="M2390.77,162H1720.33l42.2,142.51H2001.7l-36.91-85h274.94a415,415,0,0,0,52.75-3.28c17.16-2.23,33.48-5.63,47.75-10.34s26.3-10.63,35.14-18,14.26-15.89,15.4-25.93"/></g></g><g class="cls-2"><g class="cls-5"><path class="cls-6" d="M335.68,0H117L19.71,134.58c-.46.63-.9,1.26-1.35,1.88l-1.31,1.86-1.28,1.86L14.52,142H263.21a50.34,50.34,0,0,1,.81-9.18,70.2,70.2,0,0,1,2.57-10A102.4,102.4,0,0,1,270.94,112q2.63-5.62,6.17-11.7L335.68,0"/><path class="cls-6" d="M787.65,0H601.76L560.09,100.25a128.35,128.35,0,0,1-5.55,11.7A125.4,125.4,0,0,1,548,122.81a122.67,122.67,0,0,1-7.59,10q-4,4.8-8.54,9.18H745.19c.21-.61.42-1.23.62-1.84s.41-1.24.61-1.86.39-1.24.58-1.86.39-1.25.57-1.88L787.65,0"/><polyline class="cls-6" points="1692.81 0 1401.82 0 1256.57 106.44 1111.44 0 809.52 0 769.19 142.02 1731.98 142.02 1692.81 0"/><path class="cls-6" d="M1988.19,121.85,1968.47,76h221a165.06,165.06,0,0,1,18.87,1,97.52,97.52,0,0,1,17.5,3.51,54.19,54.19,0,0,1,14.73,6.84,34.72,34.72,0,0,1,10.56,11c2.67,4.5,3.42,8.22,2.62,11.27s-3.14,5.44-6.65,7.25a44,44,0,0,1-13.61,3.85,128.94,128.94,0,0,1-18.17,1.12H1988.19M2194.61,0H1717.73l41.41,142H2485.3a47.15,47.15,0,0,0-.63-10,60.16,60.16,0,0,0-2.88-10.7,82.81,82.81,0,0,0-5.23-11.38,117.52,117.52,0,0,0-7.69-12c-14.59-20.2-33.81-36.35-55.69-49.24-21.54-12.7-45.83-22.32-71-29.52A490.5,490.5,0,0,0,2266,4.22,609.86,609.86,0,0,0,2194.61,0"/></g></g></svg>