<svg id="레이어_1" data-name="레이어 1" xmlns="http://www.w3.org/2000/svg" viewBox="0 0 494.59 494.59"><defs><style>.cls-1{fill:#f32;}.cls-2{fill:#af0f08;}.cls-3{fill:#d31616;}.cls-4{fill:#ff756e;}</style></defs><path class="cls-1" d="M300.68,457.71c45.3,0,84.44-15.21,113.21-44,70.89-70.89,53.89-203.22-37.87-295-52-52-118.28-81.85-181.79-81.85-45.29,0-84.44,15.2-113.21,44-70.89,70.88-53.9,203.22,37.88,295,52,52,118.28,81.86,181.77,81.86Z"/><path class="cls-2" d="M194.23,48.79c-40.34,0-77.49,13.2-104.78,40.49C23.1,155.63,40.06,280.16,127.33,367.42c51.36,51.37,115.63,78.37,173.35,78.37,40.34,0,77.49-13.2,104.79-40.49,66.34-66.35,49.38-190.87-37.88-278.14C316.22,75.8,252,48.79,194.23,48.79m0-23.83c66.64,0,136,31.11,190.21,85.35,96.42,96.42,113.41,236.31,37.88,311.84-31.06,31.06-73.12,47.48-121.64,47.48-66.64,0-136-31.11-190.21-85.35C64.61,338.41,35,281.39,27.17,223.72,19,163.64,35.12,109.91,72.6,72.43,103.65,41.37,145.71,25,194.23,25Z"/><path class="cls-2" d="M262,380.8c16.73,0,30.67-5.11,40.33-14.77,13.53-13.53,18-35,12.52-60.61C309,278,292.64,249.77,268.81,225.94c-30.23-30.25-67.53-48.3-99.75-48.3-16.73,0-30.68,5.11-40.34,14.77-28.88,28.88-13.53,93,33.53,140.09,30.24,30.24,67.53,48.3,99.75,48.3Z"/><path class="cls-3" d="M169.06,189.56c-9.41,0-22.59,1.95-31.91,11.27-14.27,14.27-11.94,37.27-9.29,49.7,5.31,24.84,20.91,51.64,42.82,73.54,27.63,27.64,62.63,44.81,91.32,44.81,9.42,0,22.59-2,31.91-11.28,23.9-23.89,8.23-81.48-33.52-123.24-27.64-27.64-62.63-44.8-91.33-44.8m0-23.84c33.94,0,74.65,18.26,108.18,51.79,52.6,52.6,67.61,122.86,33.53,157-12.35,12.35-29.47,18.26-48.77,18.26-33.94,0-74.65-18.26-108.18-51.79-52.6-52.6-67.61-122.87-33.53-157,12.36-12.35,29.47-18.26,48.77-18.26Z"/><path class="cls-4" d="M372.14,183.19a11.92,11.92,0,0,0,9.71-18.82,268.92,268.92,0,0,0-29-34.35c-50.16-50.16-116.58-77-173.43-69.9a11.92,11.92,0,0,0,2.93,23.65c49.7-6.12,108.56,18,153.65,63.11a244.69,244.69,0,0,1,26.45,31.29A11.91,11.91,0,0,0,372.14,183.19Z"/></svg>