<svg id="레이어_1" data-name="레이어 1" xmlns="http://www.w3.org/2000/svg" viewBox="0 0 1730.6 494.59"><defs><style>.cls-1,.cls-13{fill:#f32;}.cls-2{fill:#af0f08;}.cls-3{fill:#d31616;}.cls-4{fill:#ff756e;}.cls-5{fill:#ffce00;}.cls-6{fill:#f7a25c;}.cls-7{fill:#db8d58;}.cls-8{fill:#f72300;}.cls-9{fill:#701d0f;}.cls-10{fill:#61d118;}.cls-11{fill:#ffc200;}.cls-12{fill:#ffd9ab;}.cls-13{stroke:#af0f08;stroke-linecap:round;stroke-linejoin:round;stroke-width:20px;}</style></defs><circle class="cls-1" cx="1483.31" cy="247.29" r="235.38"/><path class="cls-2" d="M1483.31,23.84c123.41,0,223.45,100,223.45,223.45s-100,223.46-223.45,223.46S1259.85,370.7,1259.85,247.29s100-223.45,223.46-223.45m0-23.84C1347,0,1236,110.93,1236,247.29s110.94,247.3,247.3,247.3,247.29-110.94,247.29-247.3S1619.66,0,1483.31,0Z"/><circle class="cls-2" cx="1483.31" cy="248.49" r="110.52"/><path class="cls-3" d="M1483.31,149.88a98.61,98.61,0,1,1-98.61,98.61,98.72,98.72,0,0,1,98.61-98.61m0-23.83a122.44,122.44,0,1,0,122.44,122.44,122.44,122.44,0,0,0-122.44-122.44Z"/><path class="cls-4" d="M1485.31,413.33a156.92,156.92,0,0,1-38.34-4.76,11.92,11.92,0,1,1,5.82-23.11,133.12,133.12,0,0,0,32.52,4c51.27,0,98.79-29.77,124-77.69a11.92,11.92,0,0,1,21.1,11.11C1601.06,378.68,1545.46,413.33,1485.31,413.33Z"/><path class="cls-4" d="M1307.4,174.78a11.93,11.93,0,0,1-10.58-17.4C1334.27,85,1405.2,40,1482,40a197.19,197.19,0,0,1,48.9,6.18,11.92,11.92,0,0,1-5.91,23.09,173.21,173.21,0,0,0-43-5.44c-67.8,0-130.62,40.06-164,104.55A11.92,11.92,0,0,1,1307.4,174.78Z"/><polygon class="cls-5" points="453.26 194.44 917.85 328.15 890.73 350.32 853.94 130.39 846.22 84.27 893.62 98.02 1191.01 184.29 1163.21 266.75 874.29 155.35 913.98 122.97 931.82 345.25 934.52 378.84 904.71 367.41 453.26 194.44"/><path class="cls-5" d="M1353.82,285.1c-93.55,2.82-214.47,20.68-297.22,54.88l97.32-122.28-3.43-156.2C1195.64,138.82,1281.06,226.24,1353.82,285.1Z"/><path class="cls-6" d="M53.19,347.78H611a22.3,22.3,0,0,1,22.3,22.3v0a82,82,0,0,1-82,82H112.85a82,82,0,0,1-82-82v0a22.3,22.3,0,0,1,22.3-22.3Z"/><path class="cls-7" d="M551.33,461.38H112.85a91.4,91.4,0,0,1-91.3-91.3A31.69,31.69,0,0,1,53.2,338.44H611a31.69,31.69,0,0,1,31.65,31.64A91.4,91.4,0,0,1,551.33,461.38ZM53.2,357.13a13,13,0,0,0-13,12.95,72.7,72.7,0,0,0,72.62,72.62H551.33A72.7,72.7,0,0,0,624,370.08a13,13,0,0,0-13-12.95Z"/><rect class="cls-8" x="46.34" y="314.47" width="567.64" height="27.03" rx="13.52"/><rect class="cls-9" x="61.78" y="237.23" width="544.47" height="81.09" rx="40.55"/><path class="cls-10" d="M637.15,252.68c-15.79,6-123.16-11.16-77.23,7.72-58.11-17.13-41-7.72,10,30.77-76.46-38.49-130.22-80.29-91.1-30.77C412.12,210.88,438.3,252.68,464,298c-54.82-45.29-69.68-45.29-68.85-9.72-30.84-35.57-70-50.08-78.53-27.85-21.75-22.23-12.93-7.72-20.44,10.87-36.13-32.83-78.54-42.9-82,3C160.06,228,91.81,201.58,146.74,260.4c-55.93-39.17-43.1-7.72-86.76,11.82,51.64-37.35-53.65-2.38-19.08-29.55,6.59-9,21.61-28.24,28.61-28.6C101.33,223.12,644.4,184.73,637.15,252.68Z"/><path class="cls-11" d="M660.32,203.37H0v17.95c14.32-.56,51.38-.06,88.81,23.64a154.18,154.18,0,0,1,51.11,53.59c13.49-16.41,43.21-47.79,91.77-65.18a207.5,207.5,0,0,1,68.38-12.05H660.32Z"/><path class="cls-6" d="M173.22,42.54H491A142.32,142.32,0,0,1,633.29,184.87v0A12.14,12.14,0,0,1,621.15,197H43a12.14,12.14,0,0,1-12.14-12.14v0A142.32,142.32,0,0,1,173.22,42.54Z"/><path class="cls-7" d="M621.15,206.34H43a21.5,21.5,0,0,1-21.48-21.48c0-83.62,68-151.66,151.67-151.66H491c83.63,0,151.67,68,151.67,151.66A21.5,21.5,0,0,1,621.15,206.34ZM173.22,51.88c-73.33,0-133,59.66-133,133a2.8,2.8,0,0,0,2.8,2.8H621.15a2.8,2.8,0,0,0,2.8-2.8c0-73.32-59.66-133-133-133Z"/><circle class="cls-12" cx="201.05" cy="84.58" r="9.34"/><circle class="cls-12" cx="275.78" cy="70.56" r="9.34"/><circle class="cls-12" cx="341.16" cy="70.56" r="9.34"/><circle class="cls-12" cx="317.81" cy="107.93" r="9.34"/><circle class="cls-12" cx="392.54" cy="89.25" r="9.34"/><circle class="cls-12" cx="439.25" cy="75.24" r="9.34"/><circle class="cls-12" cx="462.6" cy="107.93" r="9.34"/><circle class="cls-12" cx="518.65" cy="84.58" r="9.34"/><circle class="cls-12" cx="247.75" cy="117.27" r="9.34"/><circle class="cls-12" cx="145" cy="75.24" r="9.34"/><circle class="cls-12" cx="112.31" cy="117.27" r="9.34"/><rect class="cls-1" x="1293.53" y="252.84" width="59.78" height="59.78" transform="translate(144.36 -381.49) rotate(17.34)"/><path class="cls-13" d="M1289.3,305.43c.57-10.73,3.3-31.09,17.38-50.21a86.53,86.53,0,0,1,13.58-14.56"/></svg>