<svg xmlns="http://www.w3.org/2000/svg" viewBox="0 0 271.6 176.65"><defs><style>.cls-1{isolation:isolate;}.cls-2{fill:#f32;}.cls-3,.cls-7{fill:#af0f08;}.cls-4{fill:none;stroke:#ff756e;stroke-linecap:round;stroke-miterlimit:10;stroke-width:4px;}.cls-5{fill:#4f0200;mix-blend-mode:multiply;opacity:0.62;}.cls-6{fill:#6d0000;}.cls-7{stroke:#d31616;stroke-linejoin:round;stroke-width:3px;}</style></defs><g class="cls-1"><g id="레이어_1" data-name="레이어 1"><circle class="cls-2" cx="230.1" cy="135.15" r="39.5"/><path class="cls-3" d="M230.1,97.65a37.5,37.5,0,1,1-37.5,37.5,37.5,37.5,0,0,1,37.5-37.5m0-4a41.5,41.5,0,1,0,41.5,41.5,41.54,41.54,0,0,0-41.5-41.5Z"/><path class="cls-4" d="M253,146.91A25.71,25.71,0,0,1,230.43,161a24.35,24.35,0,0,1-5.94-.74"/><path class="cls-4" d="M200.58,121c5.94-11.48,17.16-18.62,29.29-18.62a31.45,31.45,0,0,1,7.71,1"/><circle class="cls-2" cx="135.8" cy="135.15" r="39.5"/><path class="cls-3" d="M135.8,97.65a37.5,37.5,0,1,1-37.5,37.5,37.5,37.5,0,0,1,37.5-37.5m0-4a41.5,41.5,0,1,0,41.5,41.5,41.55,41.55,0,0,0-41.5-41.5Z"/><circle class="cls-2" cx="135.8" cy="41.5" r="39.5"/><path class="cls-3" d="M135.8,4A37.5,37.5,0,1,1,98.3,41.5,37.5,37.5,0,0,1,135.8,4m0-4a41.5,41.5,0,1,0,41.5,41.5A41.55,41.55,0,0,0,135.8,0Z"/><circle class="cls-5" cx="135.8" cy="41.5" r="41.5" transform="translate(-4.89 22.29) rotate(-9.22)"/><circle class="cls-5" cx="135.8" cy="135.15" r="41.5" transform="translate(-19.9 23.5) rotate(-9.22)"/><circle class="cls-2" cx="41.5" cy="135.15" r="39.5"/><path class="cls-3" d="M41.5,97.65A37.5,37.5,0,1,1,4,135.15a37.5,37.5,0,0,1,37.5-37.5m0-4A41.5,41.5,0,1,0,83,135.15a41.55,41.55,0,0,0-41.5-41.5Z"/><path class="cls-4" d="M64.42,146.91A25.71,25.71,0,0,1,41.84,161a24.37,24.37,0,0,1-6-.74"/><path class="cls-4" d="M12,121c5.94-11.48,17.16-18.62,29.29-18.62a31.33,31.33,0,0,1,7.71,1"/><polygon class="cls-6" points="135.8 25.89 121.63 50.43 149.97 50.43 135.8 25.89"/><polygon class="cls-6" points="135.8 150.54 149.97 126.01 121.63 126.01 135.8 150.54"/><polygon class="cls-7" points="25.62 134.19 50.15 148.35 50.15 120.02 25.62 134.19"/><polygon class="cls-7" points="246.51 134.19 221.97 120.02 221.97 148.35 246.51 134.19"/></g></g></svg>