<svg xmlns="http://www.w3.org/2000/svg" viewBox="0 0 580 900"><defs><style>.cls-1{isolation:isolate;}.cls-2{fill:#aebaff;}.cls-18,.cls-3{mix-blend-mode:overlay;}.cls-18,.cls-19,.cls-20,.cls-4,.cls-5{fill:none;}.cls-4,.cls-5{stroke:#6767ce;stroke-width:8px;}.cls-15,.cls-20,.cls-4,.cls-5,.cls-6{stroke-miterlimit:10;}.cls-5{stroke-dasharray:23.68 23.68;}.cls-6{fill:#f7a25c;stroke:#db8d58;}.cls-15,.cls-17,.cls-6{stroke-width:4px;}.cls-7{fill:#f72300;}.cls-8{fill:#701d0f;}.cls-9{fill:#61d118;}.cls-10{fill:#ffc200;}.cls-11{fill:#ffd9ab;}.cls-12{fill:#8c2323;}.cls-13{fill:#fff;}.cls-14{fill:#ef3f0f;}.cls-15{fill:#ff7e71;stroke:#e25454;}.cls-16{opacity:0.33;}.cls-17{fill:#753734;stroke:#4c2020;}.cls-17,.cls-18,.cls-19{stroke-linecap:round;stroke-linejoin:round;}.cls-18,.cls-20{stroke:#fff;}.cls-18,.cls-19{stroke-width:2px;}.cls-18{opacity:0.35;}.cls-19{stroke:#3f0000;mix-blend-mode:multiply;opacity:0.43;}.cls-20{stroke-width:6px;}</style></defs><g class="cls-1"><g id="레이어_1" data-name="레이어 1"><rect class="cls-2" width="580" height="900" rx="32"/><g class="cls-3"><line class="cls-4" x1="431.16" y1="900" x2="431.16" y2="888"/><line class="cls-5" x1="431.16" y1="864.32" x2="431.16" y2="23.84"/><line class="cls-4" x1="431.16" y1="12" x2="431.16"/><line class="cls-4" x1="289.7" y1="900" x2="289.7" y2="888"/><line class="cls-5" x1="289.7" y1="864.32" x2="289.7" y2="23.84"/><line class="cls-4" x1="289.7" y1="12" x2="289.7"/><line class="cls-4" x1="148.23" y1="900" x2="148.23" y2="888"/><line class="cls-5" x1="148.23" y1="864.32" x2="148.23" y2="23.84"/><line class="cls-4" x1="148.23" y1="12" x2="148.23"/></g><path class="cls-6" d="M384.18,379.3H503.61a4.78,4.78,0,0,1,4.78,4.78v0a17.55,17.55,0,0,1-17.55,17.55H397a17.55,17.55,0,0,1-17.55-17.55v0a4.78,4.78,0,0,1,4.78-4.78Z" transform="translate(-80.82 118.1) rotate(-13.9)"/><rect class="cls-7" x="379.03" y="372.71" width="121.54" height="5.79" rx="2.89" transform="translate(-77.37 116.68) rotate(-13.9)"/><rect class="cls-8" x="379.73" y="356.3" width="116.58" height="17.36" rx="8.68" transform="translate(-74.87 115.94) rotate(-13.9)"/><path class="cls-9" d="M499.72,344.16c-3,2.06-26.17,4-15.65,5.58-13-.57-8.92.51,3.66,5.88-17.87-4.06-31.19-10-20.51-1.7-16.41-6.87-8.82.48-1.15,8.56-13.72-6.59-16.81-5.82-14.81,1.53-8.24-5.81-17.12-6.81-17.75-1.75-5.67-3.5-3.09-.94-3.69,3.31-9.2-5-18.53-4.88-16.89,4.85-13.63-6.84-29.17-8.82-14.73.58-13.64-5.26-9.36.61-17.43,6.92,8.81-10.42-11.27,2.27-5.48-5.16.9-2.21,3-7,4.47-7.42C386.84,365.59,497.73,329.67,499.72,344.16Z"/><path class="cls-10" d="M502,332.73l-137.23,34,.92,3.73a33.27,33.27,0,0,1,19.67.34,32.87,32.87,0,0,1,13.38,8.51A45.45,45.45,0,0,1,414.46,361a44.49,44.49,0,0,1,13.59-6l74.88-18.54Z"/><path class="cls-6" d="M395.47,315.7h68A30.47,30.47,0,0,1,494,346.17v0a2.6,2.6,0,0,1-2.6,2.6H367.59a2.6,2.6,0,0,1-2.6-2.6v0a30.47,30.47,0,0,1,30.47-30.47Z" transform="translate(-67.25 112.93) rotate(-13.9)"/><circle class="cls-11" cx="400.44" cy="331.66" r="2"/><circle class="cls-11" cx="415.25" cy="324.91" r="2"/><circle class="cls-11" cx="428.84" cy="321.54" r="2"/><circle class="cls-11" cx="425.91" cy="330.51" r="2"/><circle class="cls-11" cx="440.48" cy="322.78" r="2"/><circle class="cls-11" cx="449.46" cy="317.47" r="2"/><circle class="cls-11" cx="456" cy="323.06" r="2"/><circle class="cls-11" cx="466.45" cy="315.32" r="2"/><circle class="cls-11" cx="411.83" cy="336.06" r="2"/><circle class="cls-11" cx="388.31" cy="332.61" r="2"/><circle class="cls-11" cx="383.68" cy="343.02" r="2"/><path class="cls-12" d="M338.32,650.36v34.35A62.29,62.29,0,0,1,276,747H241.68V650.36l13.81,4.53a110.78,110.78,0,0,0,69,0Z"/><rect class="cls-13" x="287.76" y="668.71" width="59.93" height="19.01" transform="translate(995.94 360.5) rotate(90)"/><path class="cls-14" d="M257.31,685.21h12.1a38,38,0,0,1,38,38v0a0,0,0,0,1,0,0H237.72a0,0,0,0,1,0,0V704.8a19.59,19.59,0,0,1,19.59-19.59Z" transform="translate(976.8 431.65) rotate(90)"/><rect class="cls-13" x="229.97" y="668.67" width="59.85" height="19.01" transform="translate(938.08 418.28) rotate(90)"/><path class="cls-15" d="M278.38,762.05a51.8,51.8,0,0,1-51.75-51.75V650.36a15,15,0,0,1,30.1,0V710.3A21.67,21.67,0,0,0,278.38,732a44.94,44.94,0,0,0,44.89-44.89v-36.7a15,15,0,0,1,30.1,0v36.7A75.07,75.07,0,0,1,278.38,762.05Z"/><g class="cls-16"><path class="cls-12" d="M196.55,650.36v34.35A62.29,62.29,0,0,1,134.26,747H99.91V650.36l13.82,4.53a110.75,110.75,0,0,0,69,0Z"/><rect class="cls-13" x="145.99" y="668.71" width="59.93" height="19.01" transform="translate(854.18 502.26) rotate(90)"/><path class="cls-14" d="M115.54,685.21h12.1a38,38,0,0,1,38,38v0a0,0,0,0,1,0,0H96a0,0,0,0,1,0,0V704.8A19.59,19.59,0,0,1,115.54,685.21Z" transform="translate(835.03 573.42) rotate(90)"/><rect class="cls-13" x="88.21" y="668.67" width="59.85" height="19.01" transform="translate(796.31 560.05) rotate(90)"/><path class="cls-15" d="M136.61,762.05A51.81,51.81,0,0,1,84.86,710.3V650.36a15,15,0,0,1,30.1,0V710.3A21.67,21.67,0,0,0,136.61,732a44.94,44.94,0,0,0,44.89-44.89v-36.7a15,15,0,1,1,30.1,0v36.7A75.07,75.07,0,0,1,136.61,762.05Z"/></g><g class="cls-16"><path class="cls-12" d="M479.48,650.36v34.35A62.29,62.29,0,0,1,417.19,747H382.85V650.36l13.81,4.53a110.75,110.75,0,0,0,69,0Z"/><rect class="cls-13" x="428.92" y="668.71" width="59.93" height="19.01" transform="translate(1137.11 219.33) rotate(90)"/><path class="cls-14" d="M398.47,685.21h12.1a38,38,0,0,1,38,38v0a0,0,0,0,1,0,0H378.88a0,0,0,0,1,0,0V704.8A19.59,19.59,0,0,1,398.47,685.21Z" transform="translate(1117.96 290.49) rotate(90)"/><rect class="cls-13" x="371.14" y="668.67" width="59.85" height="19.01" transform="translate(1079.24 277.11) rotate(90)"/><path class="cls-15" d="M419.54,762.05a51.81,51.81,0,0,1-51.75-51.75V650.36a15.06,15.06,0,0,1,30.11,0V710.3A21.67,21.67,0,0,0,419.54,732a44.94,44.94,0,0,0,44.89-44.89v-36.7a15,15,0,1,1,30.1,0v36.7A75.07,75.07,0,0,1,419.54,762.05Z"/></g><polygon class="cls-17" points="167.01 210.23 99.37 194.04 122.22 98.55 125.96 93.33 132.3 100.96 138.96 97.86 145.47 102.86 151.15 97 158.04 97.06 157.33 87.64 163.43 82.75 159.31 75.5 197.1 84.54 167.01 210.23"/><polyline class="cls-18" points="160.01 107.59 165 86.74 185.85 91.73"/><polyline class="cls-18" points="124.36 129.42 129.35 108.57 150.2 113.56"/><polyline class="cls-18" points="153.14 136.31 158.13 115.46 178.98 120.45"/><polyline class="cls-18" points="117.49 158.13 122.48 137.28 143.33 142.27"/><polyline class="cls-18" points="146.26 165.02 151.25 144.17 172.1 149.16"/><polyline class="cls-18" points="110.61 186.85 115.61 166 136.45 170.99"/><polyline class="cls-18" points="139.39 193.74 144.38 172.89 165.23 177.88"/><polyline class="cls-19" points="185.85 91.73 180.86 112.58 160.01 107.59"/><polyline class="cls-19" points="150.2 113.56 145.21 134.41 124.36 129.42"/><polyline class="cls-19" points="178.98 120.45 173.99 141.3 153.14 136.31"/><polyline class="cls-19" points="143.33 142.27 138.34 163.12 117.49 158.13"/><polyline class="cls-19" points="172.1 149.16 167.11 170.01 146.26 165.02"/><polyline class="cls-19" points="136.45 170.99 131.46 191.84 110.61 186.85"/><polyline class="cls-19" points="165.23 177.88 160.24 198.73 139.39 193.74"/><circle class="cls-20" cx="148.23" cy="579.02" r="23.97"/><path class="cls-13" d="M152.32,591.8h-4.88V573.41a17,17,0,0,1-6.31,3.7v-4.43a14.26,14.26,0,0,0,4.15-2.37,9,9,0,0,0,3.07-4.08h4Z"/><circle class="cls-20" cx="289.7" cy="579.02" r="23.97"/><path class="cls-13" d="M297.69,587.27v4.53h-16a12.22,12.22,0,0,1,1.56-4.87,31.58,31.58,0,0,1,5.12-6.11,32.75,32.75,0,0,0,3.78-4.17,5.57,5.57,0,0,0,.94-3,3.51,3.51,0,0,0-.82-2.51,3.3,3.3,0,0,0-4.53,0,4.9,4.9,0,0,0-1,3.06l-4.55-.49c.27-2.69,1.12-4.61,2.55-5.78a8.18,8.18,0,0,1,5.36-1.76,7.45,7.45,0,0,1,5.53,2,6.91,6.91,0,0,1,2,5.06,9.15,9.15,0,0,1-.58,3.27,13.33,13.33,0,0,1-1.82,3.26,30.21,30.21,0,0,1-3,3.25c-1.44,1.41-2.35,2.35-2.73,2.81a8.46,8.46,0,0,0-.93,1.36Z"/><circle class="cls-20" cx="431.16" cy="579.02" r="23.97"/><path class="cls-13" d="M423.17,584.73l4.47-.56a4.41,4.41,0,0,0,1.15,2.71,3.16,3.16,0,0,0,4.66-.18,4.52,4.52,0,0,0,1-3.05,4.22,4.22,0,0,0-.93-2.87,3,3,0,0,0-2.29-1,7.63,7.63,0,0,0-2.11.35l.51-3.91a3.93,3.93,0,0,0,2.85-.84,3.08,3.08,0,0,0,1-2.39,2.74,2.74,0,0,0-.73-2,2.54,2.54,0,0,0-1.92-.75,2.7,2.7,0,0,0-2,.85,4.08,4.08,0,0,0-1,2.49l-4.25-.75a10.21,10.21,0,0,1,1.34-3.63,6.07,6.07,0,0,1,2.49-2.13,8.08,8.08,0,0,1,3.59-.78,7,7,0,0,1,5.44,2.26,6,6,0,0,1,1.69,4.16q0,3.3-3.46,5.27a5.54,5.54,0,0,1,3.31,2.06,6.18,6.18,0,0,1,1.23,3.88,7.68,7.68,0,0,1-2.31,5.62,7.93,7.93,0,0,1-13.67-4.75Z"/></g></g></svg>