<svg id="레이어_1" data-name="레이어 1" xmlns="http://www.w3.org/2000/svg" viewBox="0 0 600 920"><defs><style>.cls-1{fill:#750300;}.cls-2{fill:none;}.cls-3{fill:#ffc69f;}.cls-4{fill:#bc1313;}.cls-5{fill:#ea3636;}</style></defs><rect class="cls-1" x="109.43" y="-194.99" width="381.14" height="1136.85"/><rect class="cls-2" x="109.43" y="-194.99" width="381.14" height="1136.85"/><rect width="118.22" height="920"/><rect x="481.11" width="118.62" height="920"/><rect class="cls-2" width="600" height="920"/><path class="cls-3" d="M121.43,0H77.17V920h44.26ZM522.14,0H477.89V920h44.25Z"/><path class="cls-4" d="M89.88,805.06c5.5-47.4,5.6-86.67.34-131.28-3.84-32.5-3.43-63.89,1.32-104.95a445.3,445.3,0,0,0,3.07-51.94A514.14,514.14,0,0,0,91,457.35c-4.14-35.68-2.08-70.44.1-107.27,2.21-37.39,4.49-76.06-.21-116-4.75-40.5-2.86-75.22,2-121.49,3.78-35.9.91-79.81-2.37-112.63H62.59c3.35,33.26,6.33,74.83,2.85,107.8-5.21,49.51-7.2,86.93-1.93,131.7,4.21,35.87,2.15,70.83,0,107.85C61.28,384.53,59,423,63.59,462.66c4.25,36.73,4.43,67.83.61,100.86-5.14,44.22-5.54,79.89-1.32,115.65,4.81,40.87,4.71,76.93-.34,120.58-4.5,38.77-3.42,83.82.05,120.25H90.47C87.05,884.49,85.76,840.67,89.88,805.06Zm446.91-5.31c-5.07-43.65-5.17-79.71-.35-120.56,4.22-35.79,3.81-71.45-1.31-115.67-3.84-33-3.66-64.13.59-100.86,4.6-39.67,2.33-78.13.13-115.31-2.19-37-4.26-72,0-107.85,5.25-44.77,3.27-82.19-2-131.7-3.46-33-.49-74.54,2.87-107.8H508.85c-3.28,32.82-6.16,76.73-2.38,112.63,4.87,46.27,6.76,81,2,121.49-4.69,39.9-2.41,78.57-.2,116,2.17,36.83,4.23,71.59.1,107.27-4.67,40.4-4.86,74.79-.6,111.48,4.77,41.06,5.16,72.45,1.33,104.95-5.27,44.61-5.16,83.87.33,131.28,4.12,35.61,2.83,79.43-.58,114.94h27.89C540.21,883.57,541.28,838.53,536.79,799.75Z"/><path class="cls-5" d="M132.54,868.62c.09-16-2.21-31.39-4.45-46.3-1.12-7.43-2.28-15.11-3.07-22.56-2.27-21.27.4-41.62,3.22-63.17,2.29-17.46,4.64-35.51,4.25-54.36-.35-16.49-2.3-32-4.17-47-2.85-22.8-5.54-44.35-2.68-67.83,4.62-38,7.73-70.24,2.19-109.11-5.07-35.6-2-63.87,2-99.66.34-3.12.68-6.28,1-9.5,2.59-24-.39-46.51-3.26-68.27-2.25-17-4.38-33.08-4-49.79.31-15.17,2.14-30.21,3.9-44.76,2-16.4,4-33.17,4-50.67A193.49,193.49,0,0,0,129.84,110c-.6-4.55-1.25-9.11-1.88-13.53-2.57-17.9-5-34.79-4.18-52.22.52-11.4,2-32.63,3.6-44.28h-15c-1.48,10.84-2.81,31.92-3.33,43.13-.92,19.77,1.78,38.63,4.41,56.86.62,4.34,1.26,8.85,1.84,13.25,3.17,23.94.45,46.35-2.44,70.07-1.83,15.17-3.73,30.83-4.07,47.24-.37,18.57,2,36.34,4.25,53.51,2.81,21.26,5.46,41.35,3.2,62.41-.36,3.2-.7,6.35-1,9.45-4,36-7.37,67.15-1.88,105.81,5.12,36,2.3,65.25-2.26,102.68-3.22,26.49-.21,50.58,2.7,73.86,1.8,14.39,3.65,29.26,4,44.49.36,17-1.78,33.33-4,50.64-2.89,22-5.86,44.79-3.29,69,.85,8,2,15.9,3.2,23.59,2.2,14.63,4.31,28.46,4.18,42.48-.09,13.68-3.35,37.32-5.41,51.55h15C129.29,906.46,132.45,882.6,132.54,868.62Zm349-.17c-.1-14,2-27.85,4.18-42.48,1.16-7.68,2.35-15.62,3.2-23.59,2.58-24.19-.41-47-3.29-69-2.26-17.31-4.4-33.67-4-50.64.32-15.23,2.18-30.1,4-44.49,2.9-23.3,5.92-47.37,2.69-73.86-4.54-37.43-7.37-66.69-2.26-102.68,5.51-38.67,2.09-69.79-1.87-105.82-.34-3.1-.69-6.24-1-9.44-2.28-21.06.39-41.15,3.2-62.41,2.27-17.17,4.61-34.92,4.24-53.51-.34-16.41-2.24-32.07-4.08-47.24-2.87-23.72-5.59-46.13-2.44-70.06.58-4.41,1.23-8.9,1.85-13.25,2.62-18.23,5.32-37.1,4.41-56.87-.52-11.21-1.85-32.29-3.35-43.13h-15c1.64,11.65,3.07,32.88,3.61,44.28.8,17.43-1.63,34.34-4.19,52.23-.63,4.41-1.29,9-1.89,13.52-3.56,27-.52,52,2.41,76.26,1.77,14.55,3.59,29.59,3.9,44.76.34,16.71-1.78,32.77-4,49.79-2.88,21.76-5.85,44.27-3.26,68.27q.52,4.81,1,9.49c3.93,35.79,7,64.07,2,99.67-5.53,38.89-2.43,71.07,2.2,109.11,2.84,23.48.15,45-2.7,67.83-1.87,15-3.8,30.53-4.15,47-.41,18.84,2,36.9,4.24,54.36,2.82,21.55,5.48,41.9,3.21,63.17-.79,7.45-1.94,15.13-3.06,22.56-2.24,14.92-4.51,30.33-4.45,46.3.09,14,3.25,37.84,5.16,51.38h15C484.86,905.77,481.62,882.13,481.53,868.45Z"/></svg>