<svg xmlns="http://www.w3.org/2000/svg" viewBox="0 0 858.78 649.71"><defs><style>.cls-1{fill:#313339;}</style></defs><g id="레이어_5" data-name="레이어 5"><polygon class="cls-1" points="360.76 493.84 360.75 449.03 383.63 436.23 383.63 493.84 360.76 493.84"/><polygon class="cls-1" points="475.16 487.35 475.16 410.62 498.04 397.82 498.04 487.35 475.16 487.35"/><polygon class="cls-1" points="498.04 468.24 417.96 513.05 417.96 519.49 440.84 525.85 498.04 493.84 498.04 468.24"/><polygon class="cls-1" points="417.96 525.85 360.76 493.84 360.76 468.24 440.84 513.05 440.84 519.4 417.96 525.85"/><polygon class="cls-1" points="498.04 577.06 383.64 577.06 360.76 589.87 360.76 602.67 498.04 602.67 498.04 577.06"/><polygon class="cls-1" points="417.96 602.67 417.96 519.45 440.84 519.45 440.84 577.06 452.28 577.06 452.28 602.67 417.96 602.67"/><polygon class="cls-1" points="403.46 370.54 359.03 381.41 339.85 399.28 342.89 411.72 387.32 400.85 406.51 382.97 403.46 370.54"/><polygon class="cls-1" points="352.01 449.03 339.83 399.29 359.02 381.41 371.19 431.16 352.01 449.03"/><polygon class="cls-1" points="444.24 405.93 475.03 390.77 489.89 369.17 459.11 384.34 444.24 405.93"/><polygon class="cls-1" points="483.7 341 467.97 371.5 446.11 385.97 461.83 355.46 483.7 341"/><polygon class="cls-1" points="441.3 373.42 437.84 407.56 422.8 429.03 426.26 394.89 441.3 373.42"/><polygon class="cls-1" points="96.75 104.64 96.75 114.89 96.75 125.13 174.54 125.13 188.26 117.42 188.26 104.64 96.75 104.64"/><polygon class="cls-1" points="188.26 277.51 188.26 130.27 211.14 117.47 211.14 251.9 222.58 251.9 222.58 277.51 188.26 277.51"/><polygon class="cls-1" points="73.87 277.51 73.87 91.86 96.75 91.86 96.75 251.9 188.26 251.9 188.26 277.51 73.87 277.51"/><polygon class="cls-1" points="131.07 47.05 73.87 79.06 73.87 91.86 96.75 91.86 153.94 59.85 153.94 47.05 131.07 47.05"/><polygon class="cls-1" points="188.26 91.86 131.07 59.85 131.07 47.05 153.94 47.05 211.14 79.06 211.14 104.67 188.26 117.46 188.26 91.86"/><polygon class="cls-1" points="131.07 34.24 153.94 21.44 153.94 59.85 131.07 59.85 131.07 34.24"/><polygon class="cls-1" points="360.76 162.19 360.76 59.85 383.64 47.05 383.64 162.19 360.76 162.19"/><polygon class="cls-1" points="475.16 162.19 475.16 85.46 498.04 72.66 498.04 162.19 475.16 162.19"/><polygon class="cls-1" points="498.04 143.07 417.96 187.89 417.96 194.33 440.84 200.69 498.04 168.68 498.04 143.07"/><polygon class="cls-1" points="417.96 200.69 360.76 168.68 360.76 143.07 440.84 187.89 440.84 194.24 417.96 200.69"/><polygon class="cls-1" points="498.04 251.9 383.64 251.9 360.76 264.7 360.76 277.51 498.04 277.51 498.04 251.9"/><polygon class="cls-1" points="383.64 47.05 360.76 59.85 360.76 72.66 475.16 72.66 498.04 59.85 498.04 47.05 383.64 47.05"/><polygon class="cls-1" points="417.96 277.51 417.96 194.29 440.84 194.29 440.84 251.9 452.28 251.9 452.28 277.51 417.96 277.51"/><rect class="cls-1" x="670.52" y="251.9" width="91.52" height="25.61"/><rect class="cls-1" x="762.04" y="226.3" width="34.3" height="25.61"/><polygon class="cls-1" points="647.64 251.9 647.64 85.46 670.52 72.66 670.52 264.7 647.64 251.9"/><polygon class="cls-1" points="762.04 264.7 762.04 123.87 784.91 111.07 784.91 251.9 762.04 264.7"/><polygon class="cls-1" points="762.04 111.07 762.04 72.66 784.91 85.46 784.91 98.26 762.04 111.07"/><polygon class="cls-1" points="704.84 53.45 670.52 34.25 693.4 34.25 727.72 53.45 704.84 53.45"/><polyline class="cls-1" points="762.04 72.66 762.04 59.85 739.16 47.05 693.4 47.05 670.52 59.85 670.52 72.66 739.16 72.66"/><polygon class="cls-1" points="739.16 500.24 693.42 525.84 739.16 525.84 784.9 500.24 739.16 500.24"/><polygon class="cls-1" points="739.16 538.64 693.42 564.24 739.16 564.24 784.9 538.64 739.16 538.64"/><polygon class="cls-1" points="670.54 538.65 670.54 564.25 670.54 564.25 716.29 538.65 670.54 538.65"/><polygon class="cls-1" points="701.86 476.48 665.23 462.2 687.88 459.05 724.51 473.33 701.86 476.48"/><polygon class="cls-1" points="761.14 487.61 759.37 474.93 734.95 465.41 689.65 471.72 668.76 487.56 670.53 500.23 738.49 490.76 761.14 487.61"/><rect class="cls-1" x="670.52" y="577.06" width="91.49" height="25.6"/><rect class="cls-1" x="762.04" y="551.45" width="34.32" height="25.6"/><polygon class="cls-1" points="647.64 551.45 647.64 513.04 670.52 500.23 670.47 564.25 647.64 551.45"/><polygon class="cls-1" points="647.64 577.06 647.64 564.25 670.52 564.25 670.52 589.86 647.64 577.06"/><polygon class="cls-1" points="762 589.86 762.04 538.64 784.92 525.84 784.88 577.06 762 589.86"/><polygon class="cls-1" points="761.96 500.23 762.04 487.43 784.9 500.23 784.9 500.23 761.96 500.23"/><polygon class="cls-1" points="619.04 449.02 619.04 423.41 813.51 423.41 813.51 449.02 756.32 449.02 756.32 436.22 733.44 449.02 619.04 449.02"/><polygon class="cls-1" points="619.04 417.01 641.92 417.01 641.92 397.81 647.64 385 664.8 378.6 687.68 385 687.68 365.8 664.8 359.4 630.48 372.2 619.04 397.81 619.04 417.01"/><polygon class="cls-1" points="699.12 365.8 687.68 365.8 687.68 385 710.56 385 744.88 365.8 744.88 340.19 699.12 365.8"/><polygon class="cls-1" points="790.63 417.01 790.63 359.4 813.51 372.2 813.51 417.01 790.63 417.01"/><polygon class="cls-1" points="722 372.2 722 320.99 744.88 320.99 744.88 359.4 722 372.2"/><polygon class="cls-1" points="779.2 378.6 779.2 320.99 802.08 320.99 802.08 391.4 779.2 378.6"/><polygon class="cls-1" points="96.75 429.8 96.75 440.05 96.75 450.29 176.06 450.29 188.26 442.59 188.26 429.8 96.75 429.8"/><polygon class="cls-1" points="188.26 602.67 188.26 455.43 211.14 442.63 211.14 577.06 222.58 577.06 222.58 602.67 188.26 602.67"/><polygon class="cls-1" points="73.87 602.67 73.87 481.04 96.75 468.24 96.75 577.06 188.26 577.06 188.26 602.67 73.87 602.67"/><polygon class="cls-1" points="131.07 372.21 73.87 404.22 73.87 429.83 96.75 417.02 153.94 385.01 153.94 372.21 131.07 372.21"/><polygon class="cls-1" points="188.26 417.02 131.07 385.01 131.07 372.21 153.94 372.21 211.14 404.22 211.14 429.84 188.26 442.62 188.26 417.02"/><polygon class="cls-1" points="131.07 359.41 153.94 346.6 153.94 385.01 131.07 385.01 131.07 359.41"/><polygon class="cls-1" points="28.11 628.28 28.11 468.24 5.23 481.04 5.23 641.08 28.11 628.28"/><polygon class="cls-1" points="96.75 429.8 28.11 468.24 28.11 493.84 108.19 449.03 96.75 436.23 96.75 429.8"/><polygon class="cls-1" points="73.87 577.06 16.67 609.07 16.67 634.68 85.31 596.27 85.31 577.06 73.87 577.06"/></g></svg>