<svg xmlns="http://www.w3.org/2000/svg" viewBox="0 0 762 344"><defs><style>.cls-1{fill:#ff008f;}.cls-2{fill:#1ace00;}.cls-3{fill:#7171f6;}</style></defs><g id="레이어_5" data-name="레이어 5"><polygon class="cls-1" points="426.77 95.18 426.77 165.6 381.01 191.21 335.23 165.59 335.24 120.79 312.36 133.59 312.37 178.4 369.57 210.41 369.57 261.62 335.25 261.62 312.37 274.43 312.37 287.23 369.57 287.23 403.89 287.23 449.64 287.23 449.64 261.62 403.89 261.62 392.45 261.62 392.45 210.41 449.64 178.4 449.64 171.91 449.64 152.79 449.64 82.38 426.77 95.18"/><polygon class="cls-1" points="316.71 90.84 338.93 85.41 358.11 67.53 355.07 55.09 310.64 65.97 310.63 65.98 310.62 65.97 291.44 83.84 303.62 133.59 322.8 115.72 316.71 90.84"/><polygon class="cls-1" points="441.5 53.73 410.72 68.9 395.85 90.49 426.64 75.33 441.5 53.73"/><polygon class="cls-1" points="435.31 25.55 413.44 40.02 397.72 70.53 419.58 56.06 435.31 25.55"/><polygon class="cls-1" points="392.91 57.98 377.87 79.45 374.41 113.59 389.45 92.12 392.91 57.98"/><polygon class="cls-2" points="686.51 184.79 640.77 210.4 595.02 210.4 640.77 184.79 663.57 184.79 663.64 171.99 686.51 184.79"/><polygon class="cls-2" points="617.89 223.21 572.15 248.81 572.08 248.72 572.08 248.81 549.25 236 549.25 197.59 572.13 184.79 572.1 223.21 617.89 223.21"/><polygon class="cls-2" points="636.56 149.97 613.91 153.13 589.49 143.6 566.84 146.76 591.25 156.28 570.37 172.12 572.13 184.79 640.09 175.32 662.75 172.17 660.98 159.49 636.56 149.97"/><polygon class="cls-2" points="572.13 261.62 572.13 248.81 549.25 248.81 549.25 261.62 572.13 274.42 572.13 287.22 663.61 287.22 663.61 274.42 663.61 261.62 572.13 261.62"/><polygon class="cls-2" points="686.53 210.4 663.65 223.2 640.77 223.2 595.02 248.8 640.77 248.8 663.64 236 663.61 274.42 686.49 261.62 686.49 261.61 697.97 261.61 697.97 236.01 686.51 236.01 686.53 210.4"/><polygon class="cls-2" points="520.65 133.58 635.05 133.58 657.92 120.78 657.92 133.58 715.12 133.58 715.12 107.97 520.65 107.97 520.65 133.58"/><polygon class="cls-2" points="543.53 82.37 549.25 69.56 566.41 63.16 589.29 69.56 612.17 69.56 646.49 50.36 646.49 43.96 646.49 24.75 646.49 5.55 623.61 5.55 623.61 37.55 600.73 50.36 589.29 50.36 566.41 43.96 532.09 56.76 520.65 82.37 520.65 101.57 543.53 101.57 543.53 82.37"/><polygon class="cls-2" points="703.68 50.36 703.68 5.55 680.8 5.55 680.8 63.16 692.24 69.56 692.24 101.57 715.12 101.57 715.12 56.76 703.68 50.36"/><polygon class="cls-3" points="212.75 261.62 212.75 127.19 189.87 139.99 189.87 261.62 98.36 261.62 98.36 152.79 75.48 165.6 75.48 261.62 29.72 287.23 29.72 178.4 107.55 134.85 177.67 134.85 189.87 127.14 189.87 127.18 212.75 114.4 212.75 88.78 155.55 56.77 155.55 31.16 132.67 43.97 132.67 56.77 75.48 88.78 75.48 114.39 98.36 101.58 144.11 75.97 189.87 101.58 189.87 114.36 98.36 114.36 98.36 114.36 29.72 152.79 6.84 165.6 6.84 325.64 18.28 319.24 18.28 319.24 75.48 287.23 75.48 287.23 189.87 287.23 224.19 287.23 224.19 261.62 212.75 261.62"/><path d="M132.86,43.86l-.19.11h0v12.8h0l-.18.1h0l-.22.12h0l-.13.07h0l-.14.08h0l-.07,0h0l-.08.05h0l0,0h0l0,0h0l0,0h0l0,0h-.06l0,0h0l-.08,0h-.06l0,0,0,0h0l0,0h0l-.07,0h-.15l0,0H131l-.14.09h0l0,0h0l-.06,0h0l-2.44,1.37,2.44,4.36,4.35-2.43,2.55-1.43V44h-4.75l-.06-.11ZM121.35,63.11,111.2,68.79l-.06,0h0l-.08,0h0l-.09,0h0l-5.32,3,2.44,4.36,15.71-8.79-2.44-4.36ZM98.66,75.8,83,84.59,85.39,89l15.71-8.79L98.66,75.8ZM76,88.5l-.49.28h0v17.43h5V88.78H76.13L76,88.5Zm4.51,25.71h-5v18h5v-18Zm0,26h-5v18h5v-18Zm0,26h-5v18h5v-18Zm0,26h-5v18h5v-18Zm0,26h-5v18h5v-18Zm0,26h-5v18h5v-18Zm0,26h-5v17h5v-17Zm22,12h-18v5h18v-5Zm26,0h-18v5h18v-5Zm26,0h-18v5h18v-5Zm26,0h-18v5h18v-5Zm26,0h-18v5h18v-5ZM224.19,279h-5v3.27h-4.73v5h9.73V279Zm0-17.34h-8.66v5h3.66V271h5v-9.34ZM212.75,238.4h-5v18h5v-18Zm0-26h-5v18h5v-18Zm0-26h-5v18h5v-18Zm0-26h-5v18h5v-18Zm-.69-32.83-15.7,8.79,2.44,4.37,8.95-5V152.4h5v-18H210.1l2.65-1.48V128.8l-.69-1.23Zm-17.19,13h-5v18h5v-18Zm0,26h-5v18h5v-18Zm0,26h-5v18h5v-18Zm0,26h-5v18h5v-18Zm0,26h-5v17.06h-.94v5h5.94V244.56Zm-13.94,17.06h-18v5h18v-5Zm-26,0h-18v5h18v-5Zm-26,0h-18v5h18v-5ZM98.36,248.2h-5v18.42h9.57v-5H98.36V248.2Zm0-26h-5v18h5v-18Zm0-26h-5v18h5v-18Zm0-26h-5v18h5v-18Zm0-26h-5v18h5v-18ZM115,129.85H93.36v6.35h5v-1.35H115v-5Zm26,0H123v5h18v-5Zm26,0H149v5h18v-5ZM210.31,110l1.95,3.49h0L210.31,110l-14.94,8.35,2.43,4.37,13.62-7.61h0l.44-.24h0l0,0h0l0,0h0l.15-.08h.05l.07,0h0l0,0h0l.1-.06h.11l0,0h0l.11-.07h.05v-.88h-.49L210.31,110Zm1.34-21.87-.34.62h-3.56v16.74h5V88.78h0l-1.1-.62ZM189,75.47l-2.44,4.36,15.71,8.79,2.44-4.36-3.83-2.15h-.06l0,0h0l0,0L189,75.47Zm-22.69-12.7-2.44,4.36,15.71,8.79L182,71.56l-12.15-6.8h-.05l0,0-.07,0h0l-.07,0h0l-3.33-1.86ZM155.55,43.05h-5V59.7l2.56,1.43,3.74,2.1,2.44-4.37-3.52-2h-.05l0,0h0l0,0h0l-.05,0h0l0,0h0V43.05Zm0-11.89-5,2.8h0l-10.7,6,2.44,4.37,13.26-7.43V31.16ZM97.07,96.57l-1.16.65-2.55,1.43v15.71h5V101.58h0l0,0h0l.11-.06h.06l0,0h0l0,0h.1l0,0h0l.7-.4-2.44-4.36Zm22.69-12.7-15.71,8.79L106.49,97l10.22-5.72h0l.17-.09h0l0,0H117l5.19-2.9-2.44-4.37Zm24.35-13.63-2.44,1.37L126.74,80l2.44,4.36L144.11,76h0l.78.44,2.44-4.36-.77-.44-2.45-1.37ZM154.31,76l-2.44,4.37,15.71,8.79L170,84.74,154.31,76ZM177,88.65,174.56,93l15.31,8.57h0V102h5V98.65l-2.56-1.43L177,88.65ZM194.87,110h-5v4.32H176.2v5h17.32l-6.1,3.43-13.72,7.7,1.3,2.33h0l-1.3-2.33,1.3,2.33v2h1.24l.06,0h0l.18-.1h0l.1-.06h0l.13-.07h0l.14-.08h0l.1,0h0l0,0,0,0h0l.1-.05h0l0,0h0l.17-.09h0l.42-.23h0l.34-.18h0l.11-.07h0l.47-.26h.08l0,0h0l.06,0H179l.29-.17.05,0h0l0,0h0l0,0h0l.05,0h0l.3-.17h0l0,0h0l0,0,.08,0h0l.44-.25h0l0,0h0l.43-.25h0l.1-.05h0l.59-.33h0l0,0,.22-.12h0l.87-.49h0l.07-.05h0l.06,0h.07l.09-.05h0l.18-.1h0l.34-.19h0l0,0h0l.19-.1H184l.16-.08h0l.12-.07h0l.1-.06h0l.05,0,.05,0h0l.07-.05h0l.16-.09h0l.12-.07,0,0,0,0h0l.1,0h0l.11-.06h0l.12-.07h0l.17-.1h0l.17-.1h0l.13-.08h0l.72-.41h0l0,0h0l0,0h.07l.05,0h.09l.07,0h0l.65-.36h0l0,0h.13l0,0h.05l.16-.08h.07l.1,0h0l.05,0h0l.29-.17h.08l.12-.07h.07l0,0h0l.07,0h0l.31-.17h0l.07,0h0l.17-.09h0l.19-.11h0l.15-.08v0h0l0,0h0l4.94-2.77v-5h0V110Zm-26.67,4.32h-18v5h18v-5Zm-26,0h-18v5h18v-5Zm-26,0H98.36v5H116.2v-5Z"/><path d="M423.64,56.77h-18v5h18v-5Zm-26,0h-18v5h18v-5Zm-26,0h-18v5h18v-5Zm-26,0H335.25l-.07,0h0l-.08,0h0l0,0H335l0,0h-.12l-6.22,3.47,2.44,4.37,5.5-3.08h9.09v-5Zm-24,7.62L313.38,69h0l-.09,0h0l-.08,0h-.08l0,0h-.34l0,0h0l-.08,0h0l-.12.07h0l-.1,0h0V77h5V72.51l6.7-3.76-2.44-4.36ZM317.37,85h-5v18h5V85Zm0,26h-5v18h5V111Zm0,26h-5v18h5V137Zm0,26h-5V178.4h0l2.23,1.25.7-1.25h2.07V163ZM324,179.2l-2.44,4.36,14.22,8,.05,0H336l.08,0h0l1.15.64,2.44-4.36L324,179.2Zm22.69,12.69-2.45,4.37,9.23,5.16h0l0,0h0l0,0h0l0,0h0l.07,0,0,0h.05l6.15,3.44,2.44-4.37-15.7-8.79Zm22.68,12.7L367,209l2.61,1.46v15h5V207.48L372,206.05l-2.61-1.46Zm5.17,28.83h-5v18h5v-18Zm0,26h-5v2.2h-15.8v5h20.8v-7.2Zm-28.8,2.2H335.25l-6.53,3.66,2.44,4.36,5.39-3h9.22v-5Zm-24,7.56-9.33,5.22h0v7.26h5v-4.33l6.81-3.81-2.44-4.37Zm11.09,13.05h-18v5h18v-5Zm26,0h-18v5h18v-5Zm26,0h-18v5h18v-5Zm26,0h-18v5h18v-5Zm26,0h-18v5h18v-5ZM449.64,274h-5v13.19h5V274Zm0-12.42H436.06v5h13.58v-5Zm-21.58,0h-18v5h18v-5Zm-35.61-8.38h-5v13.38h14.61v-5h-9.61v-8.38Zm0-26h-5v18h5v-18ZM398,201.57l-8,4.48-2.56,1.43v11.76h5v-8.83h0l8-4.48L398,201.57Zm22.69-12.7L405,197.66l2.44,4.36,1.76-1h0l0,0h0l0,0h0l0,0h0l0,0h0l0,0h0l0,0h0l.05,0h0l.1-.05h0l.13-.08h0l13.25-7.42-2.44-4.36Zm22.69-12.7L427.68,185l2.44,4.37,15.71-8.79-2.44-4.37Zm6.25-19.4h-5v18h5v-18Zm0-26h-5v18h5v-18Zm0-26h-5v18h5v-18Zm0-22.39-5,2.8V96.77h5V82.38ZM439.52,88l-9.42,5.28h0l-.17.09h0l-.37.21h0l-.2.12h-.05l-.13.08h-.06l-.05,0h0L429,94l0,0h0l-.09.05h0l-.09,0h0l-.08,0h-.05l-.06,0h-.11l0,0h0l-.05,0h0l-.06,0h0l-.1.06h0l0,0,0,0h0l0,0-.05,0h-.1l0,0h0l0,0h0l-.09.06h0l-.07,0h0l-.06,0h-.12l-.06,0h0l0,0h0l0,0h-.06l0,0h0l-.08,0h-.14v3.38h1.89l.55,1,1.75-1h.81v-.45L442,92.41,439.52,88Zm-7.75,18.52h-5v18h5v-18Zm0,26h-5v18h5v-18Zm0,26h-5v7h0L417.2,171l2.44,4.37,9.57-5.36,2.56-1.43v-10Zm-21.56,16.3-15.7,8.79L397,188l15.71-8.79-2.45-4.36Zm-38.39,11.2-2.44,4.37,9.19,5.14,2.44,1.36,2.44-1.36,6.52-3.65-2.44-4.36-4.92,2.75h0l-.11.06h0l0,0h0l-.06,0h-.06l-.05,0h0l-.05,0h-.14l-.06,0h0l0,0h-.06l-.08,0h0l-.09.05h0l-.09.05h0l-.32.18h0l-.28.16-.11-.06h0l0,0h0l-.05,0h0l0,0h-.1l-8.82-4.94Zm-22.69-12.69-2.44,4.36,15.7,8.79,2.45-4.36-4.62-2.59h0l0,0h0l0,0h-.08l0,0h0l0,0h0l-10.81-6ZM335.25,155.5h-5v13l2.56,1.43,6.9,3.86,2.44-4.36-6.7-3.75h0l-.06,0h-.13V155.5Zm0-26h-5v18h5v-18Zm0-26h-5v18h5v-18Zm4.87-26.12h-9.87V95.5h5V82.38h4.87v-5Zm26,0h-18v5h18v-5Zm26,0h-18v5h18v-5Zm26,0h-18v5h18v-5Zm21.35-7.84L424.32,78l1.8,3.22h0L424.32,78l1.8,3.22v1.15h.65l.17-.1h0l15-8.38-2.44-4.36Zm10.17-12.77h-18v5h13v7.8h4l.23.42.74-.41h0V56.77Z"/><path d="M549.44,95.07l-.17.1h0V113h5V95.18H549.5l-.06-.11ZM554.25,121h-5v18h5V121Zm0,26h-5v18h5V147Zm0,26h-5v18h5V173Zm0,26h-5v18h5V199Zm0,26h-5v18h5V225Zm0,26h-5v10.66h0l6.4,3.59,2.45-4.37-3.85-2.15V251Zm38.2,31.27h-18v5h18v-5Zm26,0h-18v5h18v-5Zm26,0h-18v5h18v-5Zm19.19-1.8h-5v1.8h-6.19v5h11.19v-6.8ZM698,253.27h-5v3.35h-4.64v5H698v-8.35ZM698,236H689.2v5H693v4.25h5V236Zm-11.43-23.33h-5v18h5v-18Zm0-26h-5v18h5v-18Zm0-26h-5v18h5v-18Zm0-26h-5v18h5v-18Zm0-13.9L676,126.69l2.44,4.37,7.8-4.37h.31v-5.9ZM669,130.6h0l0,0h-.06l-.07,0h-.22l-.05,0h0l-.09,0h0l0,0h0l-.05,0h0l0,0h-.08l0,0-.06,0h0l-.25.14h-.06l-.13.07,0,0h0l0,0-.06,0-.12.06h0l0,0,0,0h0l0,0h0l0,0h0l-.06,0H667l-.11.06h0l-.12.07h0l0,0h0l0,0h0l-.15.08h0l0,0,0,0h0l-.07,0h0l-.16.08,0,0-.06,0h-.08l0,0h0l0,0h0l-.13.08h0l-.15.08h0l0,0h0l0,0h0l-.07,0h0l-.08,0h0l-.34.19h0l0,0h-.06l0,0h0l0,0-.08,0h0l-.11.06h0l-.26.15h0l-.05,0h0l-.27.15h0l-.22.13h0v11.88h5v-8.95l2.79-1.56L669,130.6Zm-.35,22.87h-5v18h5v-18Zm0,26h-5v18h5v-18Zm0,26h-5v18h5v-18Zm0,26h-5v18h5v-18Zm0,26h-5v4.15H649.8v5h17.55l-4.4,2.47,2.44,4.36,3.73-2.09h0l0,0,.07,0h0l0,0h.05l11.74-6.57-2.44-4.36-10,5.6v-8.43Zm-26.84,4.15h-18v5h18v-5Zm-26,0h-18v5h18v-5Zm-43.67-.33h-5v4.61l-2-1.15-2.44,4.36,9,5h0l0,0h0l0,0h0l0,0h.11l0,0h0l.13.07h0l.11.06v7.12h5V271.49l-2.56-1.43-6.15-3.44H589.8v-5H572.13v-.33Zm0-26h-5v18h5v-18Zm0-26h-5v18h5v-18Zm0-26h-5v18h5v-18Zm0-26h-5v18h5v-18Zm0-26h-5v18h5v-18Zm0-26h-5v18h5v-18Zm0-22.91-5,2.8h0l-10.71,6,2.44,4.36,8.27-4.63v6.39h5V82.38Z"/><path d="M592.47,58.19,576.77,67l2.44,4.36,15.71-8.79-2.45-4.36ZM577.13,72.26h-5V82.38H580v-5h-2.88V72.26ZM606,77.38H588v5h18v-5Zm26,0H614v5h18v-5Zm8.76,0H640v5h18v-5Zm27.11,7.37h-4.24v18h5V90.9l12.88,7.21L684,93.75l-16.08-9Zm.76,26h-5v4.31h0v5.73h0l7-3.89-2-3.47v-2.68Zm17.88-10.51h-5v4.81l-6.39,3.58,2.44,4.36,8.24-4.61H686l0,0h0l0,0h.12l0,0h0l0,0h0l.07,0h0l.22-.13h0v-7.74ZM656.74,65.71l-2.44,4.36,4.34,2.44v7.15h5V69.57h0l-6.9-3.86Zm-23.67-8.94v5h6.39l7.85,4.4,2.45-4.37-.14-.07h0L648,60.82h-.06l0,0h0l0,0h0l-.1,0h0l-.07,0h0l-.19-.11h0l0,0h-.06l0,0h0l-.07,0h-.12l-.49-.28h0l0,0h0l-.13-.08h0l0,0h0l0,0h0l0,0h0l-.05,0h0l-.07,0h0l0,0h0l0,0h-.06l-.07,0h-.05l0,0h0l0,0h0l0,0h-.07l-.1,0h0l-.09,0h0l-.23-.12h0l0,0h-.07l0,0h-.15l0,0h0l0,0h0l0,0h0l0,0h0l0,0h-.11l0,0h0l0,0h0l0,0h0l0,0h0l-.1,0h0l-.1-.05h0l-.1,0h0l0,0h0l-.05,0h0l-.1-.05h0l-.1,0h0l-.08-.05,0,0h0l0,0h0l-.09-.06h0l-.19-.1h0l-.37-.21h0l0,0h0l-.31-.17h0l-.17-.09h0l-.16-.09h0l-.3-.17h0l-.27-.15h0l-.44-.25h0l-.38-.22h-7.7Zm-24.63-5.28L606,55.85l9.45,5.28,1.13.64h8.49v-5h-7.19l0,0h-.08l-9.33-5.22ZM595,44H575.7l-.85,1.52L581.06,49h0l9.5,5.31L593,49.92l-1.7-1h2.4l5.32,3,2.44-4.36L595,44h0Z"/></g></svg>