<?xml version="1.0" encoding="utf-8"?>
<!-- Generator: Adobe Illustrator 26.0.1, SVG Export Plug-In . SVG Version: 6.00 Build 0)  -->
<svg version="1.1" id="레이어_1" xmlns="http://www.w3.org/2000/svg" xmlns:xlink="http://www.w3.org/1999/xlink" x="0px"
	 y="0px" viewBox="0 0 762 344" style="enable-background:new 0 0 762 344;" xml:space="preserve">
<style type="text/css">
	.st0{fill:#FF008F;}
	.st1{fill:#1ACE00;}
	.st2{fill:#7171F6;}
</style>
<g id="레이어_5">
	<polygon class="st0" points="426.8,95.2 426.8,165.6 381,191.2 335.2,165.6 335.2,120.8 312.4,133.6 312.4,178.4 369.6,210.4 
		369.6,261.6 335.2,261.6 312.4,274.4 312.4,287.2 369.6,287.2 403.9,287.2 449.6,287.2 449.6,261.6 403.9,261.6 392.5,261.6 
		392.5,210.4 449.6,178.4 449.6,171.9 449.6,152.8 449.6,82.4 	"/>
	<polygon class="st0" points="316.7,90.8 338.9,85.4 358.1,67.5 355.1,55.1 310.6,66 310.6,66 310.6,66 291.4,83.8 303.6,133.6 
		322.8,115.7 	"/>
	<polygon class="st0" points="441.5,53.7 410.7,68.9 395.9,90.5 426.6,75.3 	"/>
	<polygon class="st0" points="435.3,25.5 413.4,40 397.7,70.5 419.6,56.1 	"/>
	<polygon class="st0" points="392.9,58 377.9,79.4 374.4,113.6 389.5,92.1 	"/>
	<polygon class="st1" points="646.5,184.8 600.8,210.4 555,210.4 600.8,184.8 623.6,184.8 623.6,172 	"/>
	<polygon class="st1" points="577.9,223.2 532.2,248.8 532.1,248.7 532.1,248.8 509.2,236 509.2,197.6 532.1,184.8 532.1,223.2 	"/>
	<polygon class="st1" points="596.6,150 573.9,153.1 549.5,143.6 526.8,146.8 551.2,156.3 530.4,172.1 532.1,184.8 600.1,175.3 
		622.8,172.2 621,159.5 	"/>
	<polygon class="st1" points="532.1,261.6 532.1,248.8 509.2,248.8 509.2,261.6 532.1,274.4 532.1,287.2 623.6,287.2 623.6,274.4 
		623.6,261.6 	"/>
	<polygon class="st1" points="646.5,210.4 623.7,223.2 600.8,223.2 555,248.8 600.8,248.8 623.6,236 623.6,274.4 646.5,261.6 
		646.5,261.6 658,261.6 658,236 646.5,236 	"/>
	<polygon class="st1" points="480.7,133.6 595,133.6 617.9,120.8 617.9,133.6 675.1,133.6 675.1,108 480.7,108 	"/>
	<polygon class="st1" points="503.5,82.4 509.2,69.6 526.4,63.2 549.3,69.6 572.2,69.6 606.5,50.4 606.5,44 606.5,24.8 606.5,5.6 
		583.6,5.6 583.6,37.5 560.7,50.4 549.3,50.4 526.4,44 492.1,56.8 480.7,82.4 480.7,101.6 503.5,101.6 	"/>
	<polygon class="st1" points="663.7,50.4 663.7,5.6 640.8,5.6 640.8,63.2 652.2,69.6 652.2,101.6 675.1,101.6 675.1,56.8 	"/>
	<polygon class="st2" points="252.8,261.6 252.8,127.2 229.9,140 229.9,261.6 138.4,261.6 138.4,152.8 115.5,165.6 115.5,261.6 
		69.7,287.2 69.7,178.4 147.6,134.9 217.7,134.9 229.9,127.1 229.9,127.2 252.8,114.4 252.8,88.8 195.6,56.8 195.6,31.2 172.7,44 
		172.7,56.8 115.5,88.8 115.5,114.4 138.4,101.6 184.1,76 229.9,101.6 229.9,114.4 138.4,114.4 138.4,114.4 69.7,152.8 46.8,165.6 
		46.8,325.6 58.3,319.2 58.3,319.2 115.5,287.2 115.5,287.2 229.9,287.2 264.2,287.2 264.2,261.6 	"/>
	<path d="M172.9,43.9l-0.2,0.1l0,0v12.8l0,0l-0.2,0.1l0,0l-0.2,0.1l0,0l-0.1,0.1l0,0l-0.1,0.1l0,0h-0.1l0,0l-0.1,0l0,0l0,0l0,0l0,0
		l0,0l0,0l0,0l0,0h-0.1l0,0l0,0h-0.1h-0.1l0,0l0,0l0,0l0,0l0,0h-0.1h-0.1l0,0H171l-0.1,0.1l0,0l0,0l0,0h-0.1l0,0l-2.4,1.4l2.4,4.4
		l4.4-2.4l2.6-1.4V44H173L172.9,43.9L172.9,43.9z M161.4,63.1l-10.2,5.7h-0.1l0,0h-0.1l0,0H151l0,0l-5.3,3l2.4,4.4l15.7-8.8
		l-2.4-4.4L161.4,63.1z M138.7,75.8L123,84.6l2.4,4.4l15.7-8.8L138.7,75.8z M116,88.5l-0.5,0.3l0,0v17.4h5V88.8h-4.4L116,88.5z
		 M120.5,114.2h-5v18h5C120.5,132.2,120.5,114.2,120.5,114.2z M120.5,140.2h-5v18h5V140.2z M120.5,166.2h-5v18h5V166.2z
		 M120.5,192.2h-5v18h5V192.2z M120.5,218.2h-5v18h5V218.2z M120.5,244.2h-5v18h5V244.2z M120.5,270.2h-5v17h5V270.2z M142.5,282.2
		h-18v5h18V282.2z M168.5,282.2h-18v5h18V282.2z M194.5,282.2h-18v5h18V282.2z M220.5,282.2h-18v5h18V282.2z M246.5,282.2h-18v5h18
		V282.2z M264.2,279h-5v3.3h-4.7v5h9.7V279z M264.2,261.7h-8.7v5h3.7v4.3h5V261.7z M252.8,238.4h-5v18h5V238.4z M252.8,212.4h-5v18
		h5V212.4z M252.8,186.4h-5v18h5V186.4z M252.8,160.4h-5v18h5V160.4z M252.1,127.6l-15.7,8.8l2.4,4.4l8.9-5v16.7h5v-18h-2.6l2.6-1.5
		v-4.1C252.8,128.8,252.1,127.6,252.1,127.6z M234.9,140.6h-5v18h5V140.6z M234.9,166.6h-5v18h5V166.6z M234.9,192.6h-5v18h5V192.6z
		 M234.9,218.6h-5v18h5V218.6z M234.9,244.6h-5v17.1h-0.9v5h5.9V244.6L234.9,244.6z M220.9,261.6h-18v5h18V261.6z M194.9,261.6h-18
		v5h18V261.6z M168.9,261.6h-18v5h18V261.6z M138.4,248.2h-5v18.4h9.6v-5h-4.6V248.2z M138.4,222.2h-5v18h5V222.2z M138.4,196.2h-5
		v18h5V196.2z M138.4,170.2h-5v18h5V170.2z M138.4,144.2h-5v18h5V144.2z M155,129.9h-21.6v6.4h5v-1.4H155V129.9z M181,129.9h-18v5
		h18V129.9z M207,129.9h-18v5h18V129.9z M250.3,110l1.9,3.5l0,0L250.3,110l-14.9,8.3l2.4,4.4l13.6-7.6l0,0l0.4-0.2l0,0l0,0l0,0l0,0
		l0,0l0.1-0.1h0.1h0.1l0,0l0,0l0,0l0.1-0.1h0.1l0,0l0,0l0.1-0.1h0.1v-0.9H252L250.3,110z M251.6,88.1l-0.3,0.6h-3.6v16.7h5V88.8l0,0
		L251.6,88.1L251.6,88.1z M229,75.5l-2.4,4.4l15.7,8.8l2.4-4.4l-3.8-2.2h-0.1l0,0l0,0l0,0L229,75.5z M206.3,62.8l-2.4,4.4l15.7,8.8
		l2.4-4.4l-12.1-6.8h-0.1l0,0h-0.1l0,0h-0.1l0,0l-3.3-1.9L206.3,62.8z M195.6,43h-5v16.7l2.6,1.4l3.7,2.1l2.4-4.4l-3.5-2h-0.1l0,0
		l0,0l0,0l0,0h-0.1l0,0l0,0l0,0V43H195.6z M195.6,31.2l-5,2.8l0,0l-10.7,6l2.4,4.4l13.3-7.4V31.2z M137.1,96.6l-1.2,0.7l-2.6,1.4
		v15.7h5v-12.8l0,0l0,0l0,0l0.1-0.1h0.1l0,0l0,0l0,0h0.1l0,0l0,0l0.7-0.4l-2.4-4.4L137.1,96.6z M159.8,83.9l-15.7,8.8l2.4,4.3
		l10.2-5.7l0,0l0.2-0.1l0,0l0,0h0.1l5.2-2.9L159.8,83.9L159.8,83.9z M184.1,70.2l-2.4,1.4L166.7,80l2.4,4.4l14.9-8.4l0,0l0.8,0.4
		l2.4-4.4l-0.8-0.4L184.1,70.2L184.1,70.2z M194.3,76l-2.4,4.4l15.7,8.8l2.4-4.4L194.3,76z M217,88.7l-2.4,4.3l15.3,8.6l0,0v0.4h5
		v-3.3l-2.6-1.4L217,88.7z M234.9,110h-5v4.3h-13.7v5h17.3l-6.1,3.4l-13.7,7.7l1.3,2.3l0,0l-1.3-2.3l1.3,2.3v2h1.2h0.1l0,0l0.2-0.1
		l0,0l0.1-0.1l0,0l0.1-0.1l0,0l0.1-0.1l0,0h0.1l0,0l0,0l0,0l0,0l0.1-0.1l0,0l0,0l0,0l0.2-0.1l0,0l0.4-0.2l0,0l0.3-0.2l0,0l0.1-0.1
		l0,0l0.5-0.3h0.1l0,0l0,0h0.1h0.3l0.3-0.2h0.1l0,0l0,0l0,0l0,0l0,0h0.1l0,0l0.3-0.2l0,0l0,0l0,0l0,0h0.1l0,0l0.4-0.2l0,0l0,0l0,0
		l0.4-0.2l0,0l0.1-0.1l0,0l0.6-0.3l0,0l0,0l0.2-0.1l0,0l0.9-0.5l0,0l0.1-0.1l0,0h0.1h0.1l0.1-0.1l0,0l0.2-0.1l0,0l0.3-0.2l0,0l0,0
		l0,0l0.2-0.1h0.6l0.2-0.1l0,0l0.1-0.1l0,0l0.1-0.1l0,0h0.1h0.1l0,0l0.1-0.1l0,0l0.2-0.1l0,0l0.1-0.1l0,0l0,0l0,0h0.1l0,0l0.1-0.1
		l0,0l0.1-0.1l0,0l0.2-0.1l0,0l0.2-0.1l0,0l0.1-0.1l0,0l0.7-0.4l0,0l0,0l0,0l0,0h0.1h0.1h0.1h0.1l0,0l0.6-0.4l0,0l0,0h0.1l0,0h0.1
		l0.2-0.1h0.1h0.1l0,0h0.1l0,0l0.3-0.2h0.1l0.1-0.1h0.1l0,0l0,0h0.1l0,0l0.3-0.2l0,0h0.1l0,0l0.2-0.1l0,0l0.2-0.1l0,0l0.1-0.1l0,0
		l0,0l0,0l0,0l4.9-2.8v-5l0,0V110H234.9z M208.2,114.3h-18v5h18V114.3z M182.2,114.3h-18v5h18V114.3z M156.2,114.3h-17.8v5h17.8
		V114.3z"/>
	<path d="M423.6,56.8h-18v5h18V56.8z M397.6,56.8h-18v5h18V56.8z M371.6,56.8h-18v5h18V56.8z M345.6,56.8h-10.4h-0.1l0,0h-0.1l0,0
		l0,0H335l0,0h-0.1l-6.2,3.5l2.4,4.4l5.5-3.1h9.1v-5L345.6,56.8z M321.6,64.4l-8.3,4.6l0,0h-0.1l0,0h-0.1h-0.1l0,0h-0.3l0,0l0,0
		h-0.1l0,0l-0.1,0.1l0,0h-0.1l0,0V77h5v-4.5l6.7-3.8l-2.4-4.4H321.6z M317.4,85h-5v18h5V85z M317.4,111h-5v18h5V111z M317.4,137h-5
		v18h5V137z M317.4,163h-5v15.4l0,0l2.2,1.2l0.7-1.2h2.1L317.4,163L317.4,163z M324,179.2l-2.4,4.4l14.2,8h0h0.2h0.1l0,0l1.1,0.6
		l2.4-4.4L324,179.2z M346.7,191.9l-2.5,4.4l9.2,5.2l0,0l0,0l0,0l0,0l0,0l0,0l0,0h0.1l0,0h0l6.1,3.4l2.4-4.4l-15.7-8.8L346.7,191.9z
		 M369.4,204.6L367,209l2.6,1.5v15h5v-18l-2.6-1.4L369.4,204.6L369.4,204.6z M374.5,233.4h-5v18h5V233.4z M374.5,259.4h-5v2.2h-15.8
		v5h20.8V259.4z M345.7,261.6h-10.5l-6.5,3.7l2.4,4.4l5.4-3h9.2L345.7,261.6L345.7,261.6z M321.7,269.2l-9.3,5.2l0,0v7.3h5v-4.3
		l6.8-3.8L321.7,269.2L321.7,269.2z M332.8,282.2h-18v5h18V282.2z M358.8,282.2h-18v5h18V282.2z M384.8,282.2h-18v5h18V282.2z
		 M410.8,282.2h-18v5h18V282.2z M436.8,282.2h-18v5h18V282.2z M449.6,274h-5v13.2h5V274z M449.6,261.6h-13.6v5h13.6L449.6,261.6
		L449.6,261.6z M428.1,261.6h-18v5h18V261.6z M392.5,253.2h-5v13.4h14.6v-5h-9.6V253.2z M392.5,227.2h-5v18h5V227.2z M398,201.6
		l-8,4.5l-2.6,1.4v11.8h5v-8.8l0,0l8-4.5L398,201.6z M420.7,188.9l-15.7,8.8l2.4,4.4l1.8-1l0,0l0,0l0,0l0,0l0,0l0,0l0,0l0,0l0,0l0,0
		l0,0l0,0l0,0h0l0,0l0.1-0.1l0,0l0.1-0.1l0,0l13.2-7.4l-2.4-4.4L420.7,188.9z M443.4,176.2l-15.7,8.8l2.4,4.4l15.7-8.8L443.4,176.2
		L443.4,176.2z M449.6,156.8h-5v18h5V156.8z M449.6,130.8h-5v18h5V130.8z M449.6,104.8h-5v18h5V104.8z M449.6,82.4l-5,2.8v11.6h5
		V82.4L449.6,82.4z M439.5,88l-9.4,5.3l0,0l-0.2,0.1l0,0l-0.4,0.2l0,0l-0.2,0.1h0l-0.1,0.1h-0.1h0l0,0L429,94l0,0l0,0l-0.1,0.1l0,0
		h-0.1l0,0h-0.1h0h-0.1h-0.1l0,0l0,0h0l0,0h-0.1l0,0l-0.1,0.1l0,0l0,0l0,0l0,0l0,0h0h-0.1l0,0l0,0l0,0l0,0l-0.1,0.1l0,0H428l0,0
		h-0.1h-0.1h-0.1l0,0l0,0l0,0l0,0h-0.1l0,0l0,0h-0.1h-0.1v3.4h1.9l0.5,1l1.8-1h0.8v-0.4l9.5-4.7L439.5,88z M431.8,106.5h-5v18h5
		V106.5z M431.8,132.5h-5v18h5V132.5z M431.8,158.5h-5v7l0,0l-9.6,5.5l2.4,4.4l9.6-5.4l2.6-1.4L431.8,158.5L431.8,158.5z
		 M410.2,174.8l-15.7,8.8l2.5,4.4l15.7-8.8L410.2,174.8L410.2,174.8z M371.8,186l-2.4,4.4l9.2,5.1l2.4,1.4l2.4-1.4l6.5-3.6l-2.4-4.4
		l-4.9,2.8l0,0l-0.1,0.1l0,0l0,0l0,0h-0.1h-0.1h0l0,0h0h-0.1h-0.1l0,0l0,0H382h-0.1l0,0l-0.1,0.1l0,0l-0.1,0.1l0,0l-0.3,0.2l0,0
		l-0.3,0.2l-0.1-0.1l0,0l0,0l0,0h0l0,0l0,0h-0.1l-8.8-4.9L371.8,186z M349.1,173.3l-2.4,4.4l15.7,8.8l2.5-4.4l-4.6-2.6l0,0l0,0l0,0
		l0,0h-0.1l0,0l0,0l0,0l0,0l-10.8-6L349.1,173.3z M335.2,155.5h-5v13l2.6,1.4l6.9,3.9l2.4-4.4l-6.7-3.8l0,0h-0.1h-0.1L335.2,155.5
		L335.2,155.5z M335.2,129.5h-5v18h5V129.5z M335.2,103.5h-5v18h5V103.5z M340.1,77.4h-9.9v18.1h5V82.4h4.9V77.4z M366.1,77.4h-18v5
		h18V77.4z M392.1,77.4h-18v5h18V77.4z M418.1,77.4h-18v5h18V77.4z M439.5,69.5L424.3,78l1.8,3.2l0,0l-1.8-3.2l1.8,3.2v1.2h0.6
		l0.2-0.1l0,0l15-8.4L439.5,69.5L439.5,69.5z M449.6,56.8h-18v5h13v7.8h4l0.2,0.4l0.7-0.4l0,0L449.6,56.8L449.6,56.8z"/>
	<path d="M509.4,95.1l-0.2,0.1l0,0V113h5V95.2h-4.8L509.4,95.1z M514.2,121h-5v18h5V121z M514.2,147h-5v18h5V147z M514.2,173h-5v18
		h5V173z M514.2,199h-5v18h5V199z M514.2,225h-5v18h5V225z M514.2,251h-5v10.7l0,0l6.4,3.6l2.5-4.4l-3.8-2.1L514.2,251L514.2,251z
		 M552.5,282.3h-18v5h18V282.3z M578.5,282.3h-18v5h18V282.3z M604.5,282.3h-18v5h18V282.3z M623.6,280.5h-5v1.8h-6.2v5h11.2V280.5z
		 M658,253.3h-5v3.3h-4.6v5h9.6V253.3L658,253.3z M658,236h-8.8v5h3.8v4.2h5V236z M646.6,212.7h-5v18h5V212.7z M646.6,186.7h-5v18h5
		V186.7z M646.6,160.7h-5v18h5V160.7z M646.6,134.7h-5v18h5V134.7z M646.6,120.8l-10.6,5.9l2.4,4.4l7.8-4.4h0.3L646.6,120.8
		L646.6,120.8z M629,130.6L629,130.6L629,130.6L629,130.6h-0.1h-0.2h0l0,0h-0.1l0,0l0,0l0,0h0l0,0l0,0h-0.1l0,0h-0.1l0,0l-0.2,0.1
		H628l-0.1,0.1l0,0l0,0l0,0h-0.1l-0.1,0.1l0,0l0,0l0,0l0,0l0,0l0,0l0,0l0,0h-0.1H627l-0.1,0.1l0,0l-0.1,0.1l0,0l0,0l0,0l0,0l0,0
		l-0.2,0.1l0,0l0,0l0,0l0,0h-0.1l0,0l-0.2,0.1l0,0h-0.1h-0.1l0,0l0,0l0,0l0,0l-0.1,0.1l0,0l-0.2,0.1l0,0l0,0l0,0l0,0l0,0h-0.1l0,0
		h-0.1l0,0l-0.3,0.2l0,0l0,0h-0.1l0,0l0,0l0,0h-0.1l0,0l-0.1,0.1l0,0l-0.3,0.1l0,0h0l0,0l-0.3,0.1l0,0l-0.2,0.1l0,0v11.9h5v-8.9
		l2.8-1.6L629,130.6z M628.7,153.5h-5v18h5V153.5z M628.7,179.5h-5v18h5V179.5z M628.7,205.5h-5v18h5V205.5z M628.7,231.5h-5v18h5
		V231.5z M628.7,257.5h-5v4.1h-13.9v5h17.5l-4.4,2.5l2.4,4.4l3.7-2.1l0,0l0,0h0.1l0,0l0,0h0l11.7-6.6l-2.4-4.4l-10,5.6v-8.4
		L628.7,257.5z M601.8,261.6h-18v5h18V261.6z M575.8,261.6h-18v5h18V261.6z M532.1,261.3h-5v4.6l-2-1.1l-2.4,4.4l9,5l0,0l0,0l0,0
		l0,0l0,0l0,0h0.1l0,0l0,0l0.1,0.1l0,0l0.1,0.1v7.1h5v-9.9l-2.6-1.4l-6.2-3.4h21.5v-5h-17.7L532.1,261.3L532.1,261.3z M532.1,235.3
		h-5v18h5V235.3z M532.1,209.3h-5v18h5V209.3z M532.1,183.3h-5v18h5V183.3z M532.1,157.3h-5v18h5V157.3z M532.1,131.3h-5v18h5V131.3
		z M532.1,105.3h-5v18h5V105.3z M532.1,82.4l-5,2.8l0,0l-10.7,6l2.4,4.4l8.3-4.6v6.4h5C532.1,97.3,532.1,82.4,532.1,82.4z"/>
	<path d="M552.5,58.2L536.8,67l2.4,4.4l15.7-8.8L552.5,58.2L552.5,58.2z M537.1,72.3h-5v10.1h7.9v-5h-2.9L537.1,72.3L537.1,72.3z
		 M566,77.4h-18v5h18V77.4z M592,77.4h-18v5h18V77.4z M600.8,77.4H600v5h18v-5H600.8z M627.9,84.8h-4.2v18h5V90.9l12.9,7.2l2.5-4.4
		L627.9,84.8L627.9,84.8z M628.6,110.8h-5v4.3l0,0v5.7l0,0l7-3.9l-2-3.5V110.8z M646.5,100.2h-5v4.8l-6.4,3.6l2.4,4.4l8.2-4.6h0.2
		l0,0l0,0l0,0h0.1l0,0l0,0l0,0l0,0h0.1l0,0l0.2-0.1l0,0v-7.7L646.5,100.2z M616.7,65.7l-2.4,4.4l4.3,2.4v7.2h5V69.6l0,0L616.7,65.7z
		 M593.1,56.8v5h6.4l7.8,4.4l2.5-4.4l-0.1-0.1l0,0l-1.6-0.9h-0.1l0,0l0,0l0,0l0,0h-0.1l0,0h-0.1l0,0l-0.2-0.1l0,0l0,0h-0.1l0,0l0,0
		h-0.1h-0.1l-0.5-0.3l0,0l0,0l0,0l-0.1-0.1l0,0l0,0l0,0l0,0l0,0l0,0l0,0h0l0,0h-0.1l0,0l0,0l0,0l0,0h-0.1h-0.1h0l0,0l0,0l0,0l0,0
		l0,0h-0.1h-0.1l0,0h-0.1l0,0l-0.2-0.1l0,0l0,0h-0.1l0,0h-0.2l0,0l0,0l0,0l0,0l0,0l0,0l0,0l0,0l0,0h-0.1l0,0l0,0l0,0l0,0l0,0l0,0
		l0,0l0,0h-0.1l0,0l-0.1,0l0,0h-0.1l0,0l0,0l0,0h0l0,0l-0.1,0l0,0H605l0,0l-0.1,0l0,0l0,0l0,0l0,0l-0.1-0.1l0,0l-0.2-0.1l0,0
		l-0.4-0.2l0,0l0,0l0,0l-0.3-0.2l0,0l-0.2-0.1l0,0l-0.2-0.1l0,0l-0.3-0.2l0,0l-0.3-0.2l0,0l-0.4-0.2l0,0l-0.4-0.2h-7.7L593.1,56.8z
		 M568.4,51.5l-2.4,4.4l9.5,5.3l1.1,0.6h8.5v-5h-7.2l0,0h-0.1L568.4,51.5L568.4,51.5z M555,44h-19.3l-0.8,1.5l6.2,3.5l0,0l9.5,5.3
		l2.4-4.4l-1.7-1h2.4l5.3,3l2.4-4.4L555,44L555,44z"/>
</g>
</svg>
