<svg xmlns="http://www.w3.org/2000/svg" viewBox="0 0 777.89 486.52"><defs><style>.cls-1{fill:#6666f6;}.cls-2{fill:#b0b0ff;}</style></defs><g id="로고_분석" data-name="로고 분석"><polygon class="cls-1" points="526.83 291.57 566.87 291.57 601.19 272.36 615.49 240.35 615.49 214.75 615.49 183.27 592.61 196.08 592.61 214.75 592.61 240.35 585.94 255.29 566.87 265.96 526.83 265.96 507.77 255.29 501.09 240.35 501.09 214.75 501.09 189.14 478.21 201.94 478.21 214.75 478.21 227.55 478.21 240.35 492.51 272.36 526.83 291.57"/><polygon class="cls-1" points="523.97 137.93 546.85 125.13 546.85 61.11 523.97 73.91 523.97 112.32 501.09 125.13 501.09 189.14 523.97 176.34 523.97 137.93"/><polygon class="cls-1" points="581.17 189.14 604.05 176.34 604.05 150.73 581.17 137.93 581.17 118.72 558.29 105.92 558.29 150.73 581.17 163.53 581.17 189.14"/><polygon class="cls-1" points="537.32 158.2 537.32 197.68 556.38 208.35 556.38 251.02 575.45 240.35 575.45 199.81 556.38 189.14 556.38 168.87 537.32 158.2"/><polygon class="cls-1" points="518.25 240.35 537.32 251.02 537.32 214.75 518.25 225.42 518.25 240.35"/><polygon class="cls-1" points="415.55 317.76 415.55 317.76 428.36 317.76 447.56 352.08 460.36 352.08 460.36 352.08 511.58 352.08 517.98 340.64 562.79 340.64 569.19 352.08 601.2 352.08 620.4 352.08 633.21 340.64 633.21 329.2 626.81 317.76 639.61 294.88 639.61 272 621.78 240.14 610.34 265.45 614 272 614 294.88 601.2 317.76 607.6 329.2 601.2 329.2 575.59 329.2 569.19 317.76 511.58 317.76 505.18 329.2 460.36 329.2 441.16 294.88 431.56 294.88 428.36 294.88 415.55 294.88 415.55 272 441.16 272 441.16 272 460.36 237.69 473.06 237.69 473.06 214.81 447.56 214.81 428.36 249.13 438.42 267.12 428.36 249.13 402.75 249.13 402.75 249.13 389.94 249.13 389.94 249.13 389.94 272 389.94 294.88 402.75 317.76 415.55 317.76"/><polygon class="cls-1" points="161.97 280.5 166.15 292.6 231.02 270.17 252.64 262.69 265.19 298.99 282.63 279.41 278.45 267.31 252.64 262.69 248.46 250.59 222.65 245.97 201.03 253.44 175.22 248.82 153.6 256.3 179.4 260.92 161.97 280.5"/><polygon class="cls-1" points="309.98 358.49 286.82 291.51 269.38 311.09 285.77 358.49 188.94 358.49 166.15 292.6 148.71 312.18 164.73 358.49 11.44 358.49 11.44 384.1 755.01 384.1 755.01 358.49 309.98 358.49"/><path class="cls-2" d="M752.89,25V356.64L565.46,461.52H25V129.89L212.43,25H752.89m25-25h-572L0,115.23V486.52H572L777.89,371.29V0Z"/></g></svg>