<svg xmlns="http://www.w3.org/2000/svg" viewBox="0 0 777.89 486.52"><defs><style>.cls-1{fill:#6666f6;}.cls-2{fill:#b0b0ff;}</style></defs><g id="로고_분석" data-name="로고 분석"><polygon class="cls-1" points="259.96 343.37 253.43 339.72 253.43 314.13 259.96 310.47 259.96 288.54 246.89 295.85 246.89 306.82 240.36 310.47 240.36 343.37 246.89 347.03 246.89 350.68 246.89 365.31 240.36 361.65 227.3 368.96 214.23 368.96 201.17 361.65 194.63 365.31 194.63 361.65 194.63 347.03 201.17 343.37 201.17 310.47 194.63 306.82 194.63 281.23 214.23 270.26 214.23 264.78 214.23 262.95 214.23 255.64 227.3 255.64 227.3 270.26 227.3 270.26 246.89 281.23 246.89 288.54 259.96 281.23 259.96 273.92 240.36 262.95 230.09 268.7 240.36 262.95 240.36 248.33 240.36 248.33 240.36 241.02 240.36 241.02 227.3 241.02 214.23 241.02 201.17 248.33 201.17 255.64 201.17 255.64 201.17 262.95 181.57 273.92 181.57 281.23 181.57 281.23 181.57 310.47 188.1 314.13 188.1 339.72 181.57 343.37 181.57 361.65 181.57 372.62 188.1 379.93 194.63 379.93 201.17 376.27 214.23 383.58 227.3 383.58 240.36 376.27 246.89 379.93 253.43 379.93 259.96 372.62 259.96 365.31 266.49 365.31 266.49 350.68 259.96 350.68 259.96 343.37"/><polygon class="cls-1" points="443.57 343.37 437.04 339.72 437.04 314.13 443.57 310.47 443.57 288.54 430.5 295.85 430.5 306.82 423.97 310.47 423.97 343.37 430.5 347.03 430.5 350.68 430.5 365.31 423.97 361.65 410.91 368.96 397.84 368.96 384.78 361.65 378.25 365.31 378.25 361.65 378.25 347.03 384.78 343.37 384.78 310.47 378.25 306.82 378.25 281.23 397.84 270.26 397.84 264.78 397.84 262.95 397.84 255.64 410.91 255.64 410.91 270.26 410.91 270.26 430.5 281.23 430.5 288.54 443.57 281.23 443.57 273.92 423.97 262.95 413.7 268.7 423.97 262.95 423.97 248.33 423.97 248.33 423.97 241.02 423.97 241.02 410.91 241.02 397.84 241.02 384.78 248.33 384.78 255.64 384.78 255.64 384.78 262.95 365.18 273.92 365.18 281.23 365.18 281.23 365.18 310.47 371.71 314.13 371.71 339.72 365.18 343.37 365.18 361.65 365.18 372.62 371.71 379.93 378.25 379.93 384.78 376.27 397.84 383.58 410.91 383.58 423.97 376.27 430.5 379.93 437.04 379.93 443.57 372.62 443.57 365.31 450.1 365.31 450.1 350.68 443.57 350.68 443.57 343.37"/><polygon class="cls-1" points="535.38 343.37 528.84 339.72 528.84 314.13 535.38 310.47 535.38 288.54 522.31 295.85 522.31 306.82 515.78 310.47 515.78 343.37 522.31 347.03 522.31 350.68 522.31 365.31 515.78 361.65 502.71 368.96 489.65 368.96 476.58 361.65 470.05 365.31 470.05 361.65 470.05 347.03 476.58 343.37 476.58 310.47 470.05 306.82 470.05 281.23 489.65 270.26 489.65 264.78 489.65 262.95 489.65 255.64 502.71 255.64 502.71 270.26 502.71 270.26 522.31 281.23 522.31 288.54 535.38 281.23 535.38 273.92 515.78 262.95 505.35 268.79 515.78 262.95 515.78 248.33 515.78 248.33 515.78 241.02 515.78 241.02 502.71 241.02 489.65 241.02 476.58 248.33 476.58 255.64 476.58 255.64 476.58 262.95 456.99 273.92 456.99 281.23 456.99 281.23 456.99 310.47 463.52 314.13 463.52 339.72 456.99 343.37 456.99 361.65 456.99 372.62 463.52 379.93 470.05 379.93 476.58 376.27 489.65 383.58 502.71 383.58 515.78 376.27 522.31 379.93 528.84 379.93 535.38 372.62 535.38 365.31 541.91 365.31 541.91 350.68 535.38 350.68 535.38 343.37"/><polygon class="cls-1" points="633.71 350.68 627.18 350.68 627.18 343.37 620.65 339.72 620.65 314.13 627.18 310.47 627.18 288.54 614.12 295.85 614.12 306.82 607.59 310.47 607.59 343.37 614.12 347.03 614.12 350.68 614.12 365.31 607.59 361.65 594.52 368.96 581.46 368.96 568.39 361.65 561.86 365.31 561.86 361.65 561.86 347.03 568.39 343.37 568.39 310.47 561.86 306.82 561.86 281.23 581.46 270.26 581.46 264.78 581.46 262.95 581.46 255.64 594.52 255.64 594.52 270.26 594.52 270.26 614.12 281.23 614.12 288.54 627.18 281.23 627.18 273.92 607.59 262.95 597.31 268.7 607.58 262.95 607.58 248.33 607.59 248.33 607.59 241.02 607.58 241.02 594.52 241.02 581.46 241.02 568.39 248.33 568.39 255.64 568.39 255.64 568.39 262.95 548.79 273.92 548.79 281.23 548.79 281.23 548.79 310.47 555.33 314.13 555.33 339.72 548.79 343.37 548.79 361.65 548.79 372.62 555.33 379.93 561.86 379.93 568.39 376.27 581.46 383.58 594.52 383.58 607.59 376.27 614.12 379.93 620.65 379.93 627.18 372.62 627.18 365.31 633.71 365.31 633.71 350.68"/><polyline class="cls-1" points="240.27 262.95 240.27 248.33 240.27 248.33 240.27 241.02 240.27 241.02 227.21 241.02 214.14 241.02 201.08 248.33 201.08 255.64 201.08 255.64 201.08 262.95 181.48 273.92 181.48 298.04 194.54 298.04 194.54 281.23 214.14 270.26 214.14 264.78 214.14 262.95 214.14 255.64 227.21 255.64 227.21 270.26 227.21 270.26 246.8 281.23 246.8 288.54 259.87 281.23 259.87 273.92 240.27 262.95"/><polygon class="cls-1" points="253.34 326.31 253.34 314.13 259.87 310.47 259.87 288.54 246.8 295.85 246.8 306.82 240.27 310.47 240.27 333.63 253.34 326.31"/><polyline class="cls-1" points="423.7 262.95 423.7 248.33 423.7 248.33 423.7 241.02 423.7 241.02 410.63 241.02 397.57 241.02 384.51 248.33 384.51 255.64 384.51 255.64 384.51 262.95 364.91 273.92 364.91 298.04 377.97 298.04 377.97 281.23 397.57 270.26 397.57 264.78 397.57 262.95 397.57 255.64 410.63 255.64 410.63 270.26 410.63 270.26 430.23 281.23 430.23 288.54 443.3 281.23 443.3 273.92 423.7 262.95"/><polygon class="cls-1" points="436.76 326.31 436.76 314.13 443.3 310.47 443.3 288.54 430.23 295.85 430.23 306.82 423.7 310.47 423.7 333.63 436.76 326.31"/><polyline class="cls-1" points="515.41 262.95 515.41 248.33 515.41 248.33 515.41 241.02 515.41 241.02 502.35 241.02 489.29 241.02 476.22 248.33 476.22 255.64 476.22 255.64 476.22 262.95 456.62 273.92 456.62 298.04 469.69 298.04 469.69 281.23 489.29 270.26 489.29 264.78 489.29 262.95 489.29 255.64 502.35 255.64 502.35 270.26 502.35 270.26 521.95 281.23 521.95 288.54 535.01 281.23 535.01 273.92 515.41 262.95"/><polygon class="cls-1" points="528.48 326.31 528.48 314.13 535.01 310.47 535.01 288.54 521.95 295.85 521.95 306.82 515.41 310.47 515.41 333.63 528.48 326.31"/><polyline class="cls-1" points="270.93 194.52 270.93 179.9 270.93 179.9 270.93 172.58 270.93 172.58 257.87 172.58 244.8 172.58 231.74 179.9 231.74 187.21 231.74 187.21 231.74 194.52 212.14 205.48 212.14 229.61 225.21 229.61 225.21 212.79 244.8 201.83 244.8 196.34 244.8 194.52 244.8 187.21 257.87 187.21 257.87 201.83 257.87 201.83 277.46 212.79 277.46 220.11 290.53 212.79 290.53 205.48 270.93 194.52"/><polygon class="cls-1" points="284 257.88 284 245.69 290.53 242.04 290.53 220.11 277.46 227.42 277.46 238.38 270.93 242.04 270.93 265.19 284 257.88"/><polyline class="cls-1" points="454.36 194.52 454.36 179.9 454.36 179.9 454.36 172.58 454.36 172.58 441.3 172.58 428.23 172.58 415.17 179.9 415.17 187.21 415.17 187.21 415.17 194.52 395.57 205.48 395.57 229.61 408.64 229.61 408.64 212.79 428.23 201.83 428.23 196.34 428.23 194.52 428.23 187.21 441.3 187.21 441.3 201.83 441.3 201.83 460.89 212.79 460.89 220.11 473.96 212.79 473.96 205.48 454.36 194.52"/><polygon class="cls-1" points="467.43 257.88 467.43 245.69 473.96 242.04 473.96 220.11 460.89 227.42 460.89 238.38 454.36 242.04 454.36 265.19 467.43 257.88"/><polyline class="cls-1" points="546.08 194.52 546.08 179.9 546.08 179.9 546.08 172.58 546.08 172.58 533.01 172.58 519.95 172.58 506.88 179.9 506.88 187.21 506.88 187.21 506.88 194.52 487.29 205.48 487.29 229.61 500.35 229.61 500.35 212.79 519.95 201.83 519.95 196.34 519.95 194.52 519.95 187.21 533.01 187.21 533.01 201.83 533.01 201.83 552.61 212.79 552.61 220.11 565.67 212.79 565.67 205.48 546.08 194.52"/><polygon class="cls-1" points="559.14 257.88 559.14 245.69 565.67 242.04 565.67 220.11 552.61 227.42 552.61 238.38 546.08 242.04 546.08 265.19 559.14 257.88"/><polygon class="cls-1" points="625.18 201.82 625.18 187.21 612.12 187.21 612.12 201.82 592.52 212.79 592.52 229.61 579.46 229.61 579.46 205.49 599.06 194.52 599.06 179.89 612.12 172.58 638.24 172.58 638.24 194.52 657.84 205.49 657.84 212.79 644.78 220.1 644.78 212.79 625.18 201.82"/><polygon class="cls-1" points="638.24 293.21 644.78 296.88 644.78 278.6 638.24 274.94 638.24 242.04 644.78 238.38 644.78 227.42 657.84 220.1 657.84 242.04 651.31 245.7 651.31 271.28 657.84 274.94 657.84 282.25 664.38 282.25 664.38 296.88 657.84 296.88 657.84 304.18 651.31 311.49 644.78 311.49 638.24 307.84 638.24 293.21"/><polyline class="cls-1" points="301.6 126.08 301.6 111.46 301.6 111.46 301.6 104.15 301.6 104.15 288.53 104.15 275.47 104.15 262.4 111.46 262.4 118.77 262.4 118.77 262.4 126.08 242.8 137.05 242.8 161.18 255.87 161.18 255.87 144.36 275.46 133.4 275.46 127.91 275.46 126.08 275.46 118.77 288.53 118.77 288.53 133.4 288.53 133.4 308.13 144.36 308.13 151.67 321.19 144.36 321.19 137.05 301.6 126.08"/><polygon class="cls-1" points="314.66 189.45 314.66 177.26 321.19 173.61 321.19 151.67 308.13 158.99 308.13 169.95 301.6 173.61 301.6 196.76 314.66 189.45"/><polygon class="cls-1" points="351.76 343.37 345.23 339.72 345.23 314.13 351.76 310.47 351.76 288.54 338.7 295.85 338.7 306.82 332.17 310.47 332.17 343.37 338.7 347.03 338.7 350.68 338.7 365.31 332.17 361.65 319.1 368.96 306.04 368.96 292.97 361.65 286.44 365.31 286.44 361.65 286.44 347.03 292.97 343.37 292.97 310.47 286.44 306.82 286.44 281.23 306.04 270.26 306.04 264.78 306.04 262.95 306.04 255.64 319.1 255.64 319.1 270.26 319.1 270.26 338.7 281.23 338.7 288.54 351.76 281.23 351.76 273.92 332.17 262.95 321.89 268.7 332.17 262.95 332.17 248.33 332.17 248.33 332.17 241.02 332.17 241.02 319.1 241.02 306.04 241.02 292.97 248.33 292.97 255.64 292.97 255.64 292.97 262.95 273.38 273.92 273.38 281.23 273.38 281.23 273.38 310.47 279.91 314.13 279.91 339.72 273.38 343.37 273.38 361.65 273.38 372.62 279.91 379.93 286.44 379.93 292.97 376.27 306.04 383.58 319.1 383.58 332.17 376.27 338.7 379.93 345.23 379.93 351.76 372.62 351.76 365.31 358.3 365.31 358.3 350.68 351.76 350.68 351.76 343.37"/><polyline class="cls-1" points="331.99 262.95 331.99 248.33 331.99 248.33 331.99 241.02 331.99 241.02 318.92 241.02 305.86 241.02 292.79 248.33 292.79 255.64 292.79 255.64 292.79 262.95 273.19 273.92 273.19 298.04 286.26 298.04 286.26 281.23 305.86 270.26 305.86 264.78 305.86 262.95 305.86 255.64 318.92 255.64 318.92 270.26 318.92 270.26 338.52 281.23 338.52 288.54 351.58 281.23 351.58 273.92 331.99 262.95"/><polygon class="cls-1" points="345.05 326.31 345.05 314.13 351.58 310.47 351.58 288.54 338.52 295.85 338.52 306.82 331.99 310.47 331.99 333.63 345.05 326.31"/><polyline class="cls-1" points="362.65 194.52 362.65 179.9 362.65 179.9 362.65 172.58 362.65 172.58 349.58 172.58 336.52 172.58 323.45 179.9 323.45 187.21 323.45 187.21 323.45 194.52 303.86 205.48 303.86 229.61 316.92 229.61 316.92 212.79 336.52 201.83 336.52 196.34 336.52 194.52 336.52 187.21 349.58 187.21 349.58 201.83 349.58 201.83 369.18 212.79 369.18 220.11 382.25 212.79 382.25 205.48 362.65 194.52"/><polygon class="cls-1" points="375.71 257.88 375.71 245.69 382.25 242.04 382.25 220.11 369.18 227.42 369.18 238.38 362.65 242.04 362.65 265.19 375.71 257.88"/><polyline class="cls-1" points="393.31 126.08 393.31 111.46 393.31 111.46 393.31 104.15 393.31 104.15 380.25 104.15 367.18 104.15 354.12 111.46 354.12 118.77 354.12 118.77 354.12 126.08 334.52 137.05 334.52 161.18 347.58 161.18 347.58 144.36 367.18 133.4 367.18 127.91 367.18 126.08 367.18 118.77 380.25 118.77 380.25 133.4 380.25 133.4 399.84 144.36 399.84 151.67 412.91 144.36 412.91 137.05 393.31 126.08"/><polygon class="cls-1" points="406.38 189.45 406.38 177.26 412.91 173.61 412.91 151.67 399.84 158.99 399.84 169.95 393.31 173.61 393.31 196.76 406.38 189.45"/><polygon class="cls-1" points="168.38 343.37 161.85 339.72 161.85 314.13 168.38 310.47 168.38 288.54 155.32 295.85 155.32 306.82 148.78 310.47 148.78 343.37 155.32 347.03 155.32 350.68 155.32 365.31 148.78 361.65 135.72 368.96 122.65 368.96 109.59 361.65 103.06 365.31 103.06 361.65 103.06 347.03 109.59 343.37 109.59 310.47 103.06 306.82 103.06 281.23 122.65 270.26 122.65 264.78 122.65 262.95 122.65 255.64 135.72 255.64 135.72 270.26 135.72 270.26 155.32 281.23 155.32 288.54 168.38 281.23 168.38 273.92 148.78 262.95 138.51 268.7 148.78 262.95 148.78 248.33 148.78 248.33 148.78 241.02 148.78 241.02 135.72 241.02 122.65 241.02 109.59 248.33 109.59 255.64 109.59 255.64 109.59 262.95 89.99 273.92 89.99 281.23 89.99 281.23 89.99 310.47 96.53 314.13 96.53 339.72 89.99 343.37 89.99 361.65 89.99 372.62 96.53 379.93 103.06 379.93 109.59 376.27 122.65 383.58 135.72 383.58 148.78 376.27 155.32 379.93 161.85 379.93 168.38 372.62 168.38 365.31 174.91 365.31 174.91 350.68 168.38 350.68 168.38 343.37"/><polyline class="cls-1" points="148.6 262.95 148.6 248.33 148.6 248.33 148.6 241.02 148.6 241.02 135.54 241.02 122.47 241.02 109.41 248.33 109.41 255.64 109.41 255.64 109.41 262.95 89.81 273.92 89.81 298.04 102.88 298.04 102.88 281.23 122.47 270.26 122.47 264.78 122.47 262.95 122.47 255.64 135.54 255.64 135.54 270.26 135.54 270.26 155.13 281.23 155.13 288.54 168.2 281.23 168.2 273.92 148.6 262.95"/><polygon class="cls-1" points="161.67 326.31 161.67 314.13 168.2 310.47 168.2 288.54 155.13 295.85 155.13 306.82 148.6 310.47 148.6 333.63 161.67 326.31"/><polyline class="cls-1" points="179.26 194.52 179.26 179.9 179.26 179.9 179.26 172.58 179.26 172.58 166.2 172.58 153.13 172.58 140.07 179.9 140.07 187.21 140.07 187.21 140.07 194.52 120.47 205.48 120.47 229.61 133.54 229.61 133.54 212.79 153.13 201.83 153.13 196.34 153.13 194.52 153.13 187.21 166.2 187.21 166.2 201.83 166.2 201.83 185.8 212.79 185.8 220.11 198.86 212.79 198.86 205.48 179.26 194.52"/><polygon class="cls-1" points="192.33 257.88 192.33 245.69 198.86 242.04 198.86 220.11 185.8 227.42 185.8 238.38 179.26 242.04 179.26 265.19 192.33 257.88"/><polyline class="cls-1" points="209.93 126.08 209.93 111.46 209.93 111.46 209.93 104.15 209.93 104.15 196.86 104.15 183.8 104.15 170.73 111.46 170.73 118.77 170.73 118.77 170.73 126.08 151.14 137.05 151.14 161.18 164.2 161.18 164.2 144.36 183.8 133.4 183.8 127.91 183.8 126.08 183.8 118.77 196.86 118.77 196.86 133.4 196.86 133.4 216.46 144.36 216.46 151.67 229.52 144.36 229.52 137.05 209.93 126.08"/><polygon class="cls-1" points="222.99 189.45 222.99 177.26 229.52 173.61 229.52 151.67 216.46 158.99 216.46 169.95 209.93 173.61 209.93 196.76 222.99 189.45"/><polyline class="cls-1" points="485.02 126.08 485.02 111.46 485.02 111.46 485.02 104.15 485.02 104.15 471.96 104.15 458.9 104.15 445.83 111.46 445.83 118.77 445.83 118.77 445.83 126.08 426.23 137.05 426.23 161.18 439.3 161.18 439.3 144.36 458.89 133.4 458.89 127.91 458.89 126.08 458.89 118.77 471.96 118.77 471.96 133.4 471.96 133.4 491.56 144.36 491.56 151.67 504.62 144.36 504.62 137.05 485.02 126.08"/><polygon class="cls-1" points="498.09 189.45 498.09 177.26 504.62 173.61 504.62 151.67 491.56 158.99 491.56 169.95 485.02 173.61 485.02 196.76 498.09 189.45"/><polyline class="cls-1" points="576.74 126.08 576.74 111.46 576.74 111.46 576.74 104.15 576.74 104.15 563.67 104.15 550.61 104.15 537.55 111.46 537.55 118.77 537.55 118.77 537.55 126.08 517.95 137.05 517.95 161.18 531.01 161.18 531.01 144.36 550.61 133.4 550.61 127.91 550.61 126.08 550.61 118.77 563.67 118.77 563.67 133.4 563.67 133.4 583.27 144.36 583.27 151.67 596.34 144.36 596.34 137.05 576.74 126.08"/><polygon class="cls-1" points="589.8 189.45 589.8 177.26 596.34 173.61 596.34 151.67 583.27 158.99 583.27 169.95 576.74 173.61 576.74 196.76 589.8 189.45"/><polygon class="cls-1" points="668.91 239.41 675.44 243.06 681.97 243.06 688.51 235.75 688.51 228.44 695.04 228.44 695.04 213.82 688.51 213.82 688.51 206.51 681.97 202.85 681.97 177.26 688.51 173.61 688.51 151.67 675.44 158.99 675.44 169.95 668.91 173.61 668.91 206.51 675.44 210.16 675.44 213.82 675.44 228.44 668.91 224.78 668.91 239.41"/><polygon class="cls-1" points="623.18 161.18 623.18 144.36 642.78 133.4 642.78 127.91 642.78 126.08 642.78 118.77 655.85 118.77 655.85 133.4 655.85 133.4 675.44 144.36 675.44 151.67 688.51 144.36 688.51 137.05 668.91 126.08 658.64 131.83 668.91 126.08 668.91 111.46 668.91 111.46 668.91 104.15 668.91 104.15 655.85 104.15 642.78 104.15 629.72 111.46 629.72 118.77 629.72 118.77 629.72 126.08 610.12 137.05 610.12 161.18 623.18 161.18"/><path class="cls-2" d="M752.89,25V356.64L565.46,461.52H25V129.89L212.43,25H752.89m25-25h-572L0,115.23V486.52H572L777.89,371.29V0Z"/></g></svg>