<svg xmlns="http://www.w3.org/2000/svg" viewBox="0 0 777.89 486.52"><defs><style>.cls-1,.cls-2{fill:#616369;}.cls-2{stroke:#616369;stroke-linecap:round;stroke-linejoin:round;stroke-width:2px;}.cls-3{fill:#d1d3d9;}</style></defs><g id="로고_분석" data-name="로고 분석"><path class="cls-1" d="M239.39,76.54,208.71,129.7l-34.91-.47L167,141h0L155,161.71,192,183l14,.18h0l27.92.38h0l5.28,3L246,174.83l-5.28-3,37.51-65-14-.18L243.13,94.45l3.41-5.91,21.1,12.19,14,.19L285,95,253.36,76.73Zm10.37,34.86,11.63.16-34.66,60h0l-27.93-.38L172.42,156l8.52-14.76,34.91.47,3.41-5.91,8-13.78,12.31,7.11,11.63.15,2.85-4.92L232.9,112.17l4.55-7.88Z"/><polygon class="cls-1" points="578.44 195.6 541.5 174.27 541.5 174.27 536.22 171.22 549.86 147.6 570.81 147.88 577.63 136.07 556.68 135.79 542.72 135.6 518.85 176.94 534.68 186.08 534.68 186.08 571.62 207.41 578.44 195.6"/><polygon class="cls-1" points="632.99 101.1 590.78 76.73 576.81 76.54 573.4 82.45 573.4 82.45 566.59 94.26 580.55 94.45 583.96 88.54 623.33 111.28 622.33 118.81 608.8 118.63 603.68 127.49 595.16 142.26 602.3 154.26 598.89 160.16 612.86 160.35 616.27 154.44 609.12 142.44 609.12 142.44 617.65 127.68 621.14 127.73 638.59 127.96 640.13 113.1 632.99 101.1"/><polygon class="cls-1" points="595.49 166.07 571.62 207.41 587.45 216.55 594.27 204.74 588.99 201.69 609.45 166.25 595.49 166.07"/><polygon class="cls-1" points="601.82 118.54 587.85 118.35 570.81 147.88 584.77 148.07 601.82 118.54"/><polygon class="cls-1" points="582.41 103.4 558.22 120.93 568.78 127.03 592.97 109.49 582.41 103.4"/><polygon class="cls-1" points="411.26 201.32 405.98 198.27 441.79 136.26 427.82 136.07 388.61 203.99 404.44 213.13 411.26 201.32"/><polygon class="cls-1" points="440.98 76.73 427.01 76.54 423.6 82.45 423.6 82.45 423.6 82.45 388.69 81.98 385.29 87.89 335.84 173.52 388.61 203.99 395.43 192.18 353.22 167.81 395.84 93.98 423.76 94.36 438.05 118.35 434.65 124.25 392.43 99.88 389.71 104.6 386.98 109.33 422.86 130.04 431.24 130.15 431.24 130.16 445.19 130.36 452.02 118.54 434.16 88.54 440.98 76.73"/><rect class="cls-1" x="198.64" y="177.41" width="14.55" height="111.94"/><polygon class="cls-1" points="205.91 294.48 228.79 281.67 228.79 266.31 205.91 279.11 183.03 266.31 183.03 281.67 205.91 294.48"/><rect class="cls-1" x="381.34" y="197.44" width="14.55" height="91.92"/><polygon class="cls-1" points="388.61 294.48 411.49 281.67 411.49 266.31 388.61 279.11 365.73 266.31 365.73 281.67 388.61 294.48"/><rect class="cls-1" x="564.04" y="199.8" width="14.55" height="89.56"/><polygon class="cls-1" points="571.31 294.48 594.19 281.67 594.19 266.31 571.31 279.11 548.43 266.31 548.43 281.67 571.31 294.48"/><rect class="cls-2" x="125.83" y="256.07" width="11.44" height="153.64"/><rect class="cls-2" x="274.55" y="256.07" width="11.44" height="115.23"/><rect class="cls-2" x="125.83" y="396.9" width="91.52" height="12.8"/><polygon class="cls-2" points="217.35 409.7 217.35 396.9 274.55 364.89 285.99 371.3 217.35 409.7"/><rect class="cls-2" x="308.87" y="256.07" width="11.44" height="153.64"/><rect class="cls-2" x="457.58" y="256.07" width="11.44" height="115.23"/><rect class="cls-2" x="308.87" y="396.9" width="91.52" height="12.8"/><polygon class="cls-2" points="400.38 409.7 400.38 396.9 457.58 364.89 469.02 371.3 400.38 409.7"/><rect class="cls-2" x="491.9" y="256.07" width="11.44" height="153.64"/><rect class="cls-2" x="640.61" y="256.07" width="11.44" height="115.23"/><rect class="cls-2" x="491.9" y="396.9" width="91.52" height="12.8"/><polygon class="cls-2" points="583.41 409.7 583.41 396.9 640.61 364.89 652.05 371.3 583.41 409.7"/><path class="cls-3" d="M752.89,25V356.64L565.46,461.52H25V129.89L212.43,25H752.89m25-25h-572L0,115.23V486.52H572L777.89,371.29V0Z"/></g></svg>