<svg xmlns="http://www.w3.org/2000/svg" viewBox="0 0 1318.7 1192.41"><defs><style>.cls-1{fill:#ff008c;}.cls-2{fill:#7171f6;}.cls-3{fill:#1acb00;}</style></defs><g id="silitim"><polygon class="cls-1" points="505.12 707.13 582.63 762.61 803.44 762.61 852.12 512.94 505.12 707.13"/><polygon class="cls-1" points="813.36 485.2 735.85 429.72 515.04 429.72 466.36 679.39 813.36 485.2"/><polygon points="701.29 544.68 509.99 455.61 515.06 429.72 712.1 521.47 709.4 527.27 703.99 538.88 701.29 544.68"/><polygon points="684.13 473.14 668.79 451.87 695 464.07 710.34 485.34 684.13 473.14"/><polygon points="684.13 473.14 710.34 485.34 709.9 513.38 683.69 501.18 684.13 473.14"/><polygon points="590.6 698.5 590.6 596.16 613.48 583.36 613.48 698.5 590.6 698.5"/><polygon points="705 698.5 705 621.77 727.88 608.97 727.88 698.5 705 698.5"/><polygon points="727.88 679.39 647.8 724.2 647.8 730.64 670.68 737 727.88 704.99 727.88 679.39"/><polygon points="647.8 737 590.6 704.99 590.6 679.39 670.68 724.2 670.68 730.56 647.8 737"/><polygon points="613.48 583.36 590.6 596.16 590.6 608.97 705 608.97 727.88 596.16 727.88 583.36 613.48 583.36"/><rect x="647.8" y="730.6" width="22.88" height="32.01"/><rect x="659.92" y="535.41" width="25.61" height="34.32" transform="translate(-112.16 929.18) rotate(-65.03)"/><polygon class="cls-1" points="505.12 277.4 582.63 332.88 803.44 332.88 852.12 83.22 505.12 277.4"/><polygon class="cls-1" points="813.36 55.48 735.85 0 515.04 0 466.36 249.66 813.36 55.48"/><polygon points="713.58 236.86 679.26 256.06 679.26 281.67 713.58 262.47 713.58 236.86"/><polygon points="690.7 262.47 713.58 262.47 727.88 230.46 705 230.46 690.7 262.47"/><rect x="639.22" y="256.07" width="40.04" height="25.61"/><polygon points="604.9 236.86 639.22 256.06 639.22 281.67 604.9 262.47 604.9 236.86"/><polygon points="627.78 262.47 604.9 262.47 590.6 230.46 613.48 230.46 627.78 262.47"/><rect x="590.6" y="204.85" width="22.88" height="25.61" transform="translate(1204.08 435.31) rotate(180)"/><rect x="705" y="204.85" width="22.88" height="25.61" transform="translate(1432.87 435.31) rotate(180)"/><polygon points="590.6 217.66 590.6 192.05 613.48 179.25 613.48 230.46 590.6 217.66"/><polygon points="613.48 179.25 613.48 115.23 636.36 102.43 636.36 166.44 613.48 179.25"/><polygon points="636.36 128.03 636.36 64.02 659.24 51.21 659.24 115.23 636.36 128.03"/><polygon points="716.44 166.44 716.44 140.84 693.56 128.03 693.56 179.25 716.44 166.44"/><polygon points="727.88 230.46 727.88 173.38 705 186.18 705 243.26 727.88 230.46"/><polygon points="693.56 153.64 693.56 108.83 670.68 96.03 670.68 140.84 693.56 153.64"/><polygon points="668.77 198.45 668.77 158.97 649.71 148.31 649.71 187.78 668.77 198.45"/><polygon points="687.84 230.46 687.84 189.91 668.77 179.25 668.77 241.13 687.84 230.46"/><polygon points="630.64 230.46 630.64 215.52 649.71 204.85 649.71 241.13 630.64 230.46"/><polygon class="cls-2" points="418.2 0 197.39 0 48.68 83.22 0 332.88 220.81 332.88 369.53 249.66 418.2 0"/><polygon points="197.66 102.43 174.78 115.23 186.22 115.23 220.54 115.23 231.98 108.83 243.42 102.43 231.98 96.02 220.54 102.43 197.66 102.43"/><polygon points="243.42 51.21 220.54 64.02 220.54 76.82 254.86 76.82 254.86 102.43 277.74 89.62 277.74 64.02 277.74 51.21 243.42 51.21"/><polygon points="163.34 51.21 140.47 64.02 140.47 76.82 197.66 76.82 197.66 64.02 197.66 51.21 163.34 51.21"/><polygon points="186.22 256.06 186.22 268.87 186.22 281.67 254.86 281.67 254.86 268.87 254.86 256.06 186.22 256.06"/><polygon points="254.86 281.67 254.86 115.23 277.74 102.43 277.74 256.06 289.18 256.06 289.18 281.67 254.86 281.67"/><polyline points="140.47 243.26 140.47 64.02 163.34 51.21 163.34 243.26"/><polygon points="174.78 115.23 174.78 64.02 197.79 51.21 197.79 102.43 174.78 115.23"/><polygon points="220.61 115.23 220.54 64.02 243.42 51.21 243.42 102.43 220.61 115.23"/><polygon points="163.34 243.26 209.1 268.87 186.22 281.67 140.47 256.06 140.47 243.26 163.34 243.26"/><polygon class="cls-2" points="418.2 429.72 197.39 429.72 48.68 512.94 0 762.61 220.81 762.61 369.53 679.39 418.2 429.72"/><polygon points="140.47 711.39 140.47 621.77 163.34 608.97 163.34 685.79 174.78 685.79 174.78 711.39 140.47 711.39"/><polygon points="197.66 615.37 197.66 589.76 163.34 608.97 163.34 634.58 197.66 615.37"/><polygon points="231.98 583.36 254.86 570.56 277.74 583.36 277.74 596.16 254.86 608.97 254.86 596.16 231.98 583.36"/><polygon points="254.86 685.79 163.34 685.79 140.47 698.59 140.47 711.39 254.86 711.39 254.86 685.79"/><polygon points="163.34 480.94 140.47 493.74 140.47 506.54 254.86 506.54 277.74 493.74 277.74 493.74 254.86 480.94 163.34 480.94"/><polygon points="254.86 711.39 254.86 621.77 277.74 608.97 277.74 685.79 289.18 685.79 289.18 711.39 254.86 711.39"/><polygon points="197.66 615.37 197.66 551.35 220.54 538.55 220.54 602.57 197.66 615.37"/><polygon points="231.98 583.36 231.98 551.35 254.86 538.55 254.86 583.36 231.98 583.36"/><polygon points="140.47 532.15 140.47 493.74 163.34 480.94 163.34 519.35 140.47 532.15"/><polygon points="243.42 493.74 277.74 493.74 289.18 519.35 260.58 535.35 243.42 493.74"/><polygon points="151.9 583.36 174.78 583.36 197.66 532.15 174.78 532.15 151.9 583.36"/><polygon points="260.58 535.35 231.98 551.35 231.98 532.15 254.86 519.35 260.58 535.35"/><polyline class="cls-3" points="900.5 762.65 988.83 762.65 911.32 707.17 900.5 762.65"/><polygon class="cls-3" points="1318.7 429.76 965.4 429.76 916.73 679.43 1032.73 762.65 1253.8 762.65 1318.7 429.76"/><polygon points="1098.16 602.61 1121.04 602.61 1137.06 638.46 1118.75 648.7 1098.16 602.61"/><polygon points="1124.47 661.5 1142.78 651.26 1155.36 679.43 1132.48 679.43 1124.47 661.5"/><polygon points="1121.04 602.61 1098.16 602.61 1063.84 679.43 1086.72 679.43 1121.04 602.61"/><rect x="1098.16" y="711.43" width="22.88" height="25.61"/><polygon points="1075.28 698.63 1098.16 711.43 1098.16 737.04 1075.28 724.24 1075.28 698.63"/><polygon points="1098.16 724.24 1075.28 724.24 1063.84 698.63 1086.72 698.63 1098.16 724.24"/><polygon points="1143.92 698.63 1121.04 711.43 1121.04 737.04 1143.92 724.24 1143.92 698.63"/><polygon points="1121.04 724.24 1143.92 724.24 1155.36 698.63 1132.48 698.63 1121.04 724.24"/><rect x="1063.84" y="679.43" width="22.88" height="19.2"/><rect x="1132.48" y="679.43" width="22.88" height="19.2"/><polygon points="1098.16 444.78 1098.16 455.45 1098.16 466.12 1136.29 466.12 1155.36 455.45 1155.36 444.78 1098.16 444.78"/><polygon points="1098.16 481.06 1098.16 491.73 1098.16 502.39 1136.29 502.39 1155.36 491.73 1155.36 481.06 1098.16 481.06"/><polygon points="1052.4 583.4 1029.53 596.25 1029.53 609.01 1109.6 609.05 1132.48 596.25 1132.48 583.4 1052.4 583.4"/><polygon points="1155.36 570.6 1155.36 429.72 1178.24 429.72 1178.24 544.99 1189.68 544.99 1189.68 570.6 1155.36 570.6"/><polyline points="1086.72 506.58 1086.72 429.76 1109.6 429.76 1109.6 506.58"/><polyline points="1029.53 609.01 1029.53 545.03 1052.4 532.23 1052.4 609.02"/><polygon points="1086.72 506.58 1029.53 538.59 1029.53 564.2 1109.6 519.39 1109.6 506.58 1086.72 506.58"/><polygon points="1155.41 557.79 1109.6 583.4 1109.6 609.05 1178.29 570.59 1178.29 557.79 1155.41 557.79"/><polygon class="cls-1" points="505.12 1136.89 582.63 1192.37 803.44 1192.37 852.12 942.71 505.12 1136.89"/><polygon class="cls-1" points="813.36 914.97 735.85 859.49 515.04 859.49 466.36 1109.15 813.36 914.97"/><polygon class="cls-2" points="418.2 859.49 197.39 859.49 48.68 942.71 0 1192.37 220.81 1192.37 369.53 1109.15 418.2 859.49"/><polyline class="cls-3" points="900.5 1192.41 988.83 1192.41 911.32 1136.93 900.5 1192.41"/><polygon class="cls-3" points="1318.7 859.52 965.4 859.52 916.73 1109.19 1032.73 1192.41 1253.8 1192.41 1318.7 859.52"/><polyline class="cls-3" points="900.5 332.88 988.83 332.88 911.32 277.4 900.5 332.88"/><polygon class="cls-3" points="1318.7 0 965.4 0 916.73 249.66 1032.73 332.88 1253.8 332.88 1318.7 0"/><polygon points="1121.04 179.25 1075.3 204.85 1121.04 204.85 1166.79 179.25 1121.04 179.25"/><polygon points="1121.04 217.66 1075.3 243.25 1121.04 243.25 1166.79 217.66 1121.04 217.66"/><polygon points="1052.43 217.66 1052.43 243.26 1052.43 243.26 1098.17 217.66 1052.43 217.66"/><polygon points="1083.74 155.5 1047.11 141.22 1069.76 138.06 1106.39 152.34 1083.74 155.5"/><polygon points="1143.02 166.62 1141.26 153.94 1116.84 144.43 1071.53 150.74 1050.64 166.57 1052.41 179.25 1120.37 169.78 1143.02 166.62"/><rect x="1052.4" y="256.07" width="91.49" height="25.6"/><rect x="1143.92" y="230.46" width="34.32" height="25.6"/><polygon points="1029.53 230.46 1029.53 192.05 1052.41 179.25 1052.36 243.26 1029.53 230.46"/><polygon points="1029.53 256.07 1029.53 243.26 1052.4 243.26 1052.4 268.87 1029.53 256.07"/><polygon points="1143.89 268.87 1143.92 217.66 1166.8 204.85 1166.76 256.07 1143.89 268.87"/><polygon points="1143.85 179.25 1143.92 166.44 1166.79 179.25 1166.79 179.25 1143.85 179.25"/><polygon points="1000.93 128.03 1000.93 102.43 1195.4 102.43 1195.4 128.03 1138.2 128.03 1138.2 115.23 1115.32 128.03 1000.93 128.03"/><polygon points="1000.93 96.03 1023.8 96.03 1023.8 76.82 1029.53 64.02 1046.68 57.62 1069.56 64.02 1069.56 44.81 1046.68 38.41 1012.37 51.21 1000.93 76.82 1000.93 96.03"/><polygon points="1081 44.81 1069.56 44.81 1069.56 64.02 1092.44 64.02 1126.76 44.81 1126.76 19.2 1081 44.81"/><polygon points="1172.52 96.03 1172.52 38.41 1195.4 51.21 1195.4 96.03 1172.52 96.03"/><polygon points="1103.88 51.21 1103.88 0 1126.76 0 1126.76 38.41 1103.88 51.21"/><polygon points="1161.08 57.62 1161.08 0 1183.96 0 1183.96 70.42 1161.08 57.62"/><path d="M89.43,1038.82l-1.26,6.47-31.39,2.27,1.27-6.52,5.33-.34L68,1011.44h7.77L71,1040.13l3.1-.23,5.82-28.46h7.76l-5.94,28Zm-23-37.07H94.14l-1.28,6.58H65.2ZM107,999.48H99.57l-2.81,14.46H90.18l-1.25,6.46h6.58l-1.12,5.73H87.82l-1.26,6.46h6.58l-3.7,19h7.43Zm-6.21,53h7.43l10.29-53h-7.43Z"/><path d="M128.93,1047.5l16.64-39H123.75L125,1002h31.12l-18.93,45.47Zm35.7-48h7.54l-10.3,53h-7.53Z"/><path d="M214.38,1037.69l.5-2.61H178l1.19-6.12h18.19l.63-3.23H175.43l1.24-6.41H230l-1.25,6.41H206l-.62,3.23h18.25l-2.84,14.63H183.92l-.51,2.66h38l-1.21,6.24H174.59l2.88-14.8Zm-32.54-21,3.36-17.29h43.94l-3.36,17.29Zm8.78-6.35h28.85l.9-4.59H191.51Z"/><path d="M278.65,1031l-2.35,12.08h22.79l-1.27,6.52H244.53l1.27-6.52h22.68l2.34-12.08Zm-4.1-17.12H290l8.24,19.45h-8.56l-5.54-12.93h-14.8l-10.39,12.93h-8.45l26.59-33.23h8.56Z"/><path d="M320.66,1020.91h7.77l.82,27h-7.59l-1.19-20.47h-2.72l-9.19,20.47h-7.77l17.74-39.35H309l1.26-6.52h26.31l-1.27,6.52h-9.07Zm31.13,31.52h-7.43l5.29-27.21H343.3l-5.13,26.36h-7.42l10.13-52.1h7.42l-3.68,18.94H351l3.68-18.94h7.43Z"/><path d="M1020,1001.66l-9,46.15H987.92l9-46.15h7.31l-3.24,16.67h8.5l3.24-16.67Zm-15,39.69,3.22-16.56H999.7l-3.22,16.56Zm31.66,11.85h-7.43l5.29-27.22h-6.3l-5.12,26.37h-7.43l10.13-52.1h7.42l-3.68,18.93h6.3l3.68-18.93h7.43Z"/><path d="M1086,1039l.48-2.43h-36.91l1.15-5.9h18.08l.55-2.83h-22.45l1.18-6.07h53.29l-1.17,6.07H1077.6l-.55,2.83h18.14l-2.72,14h-36.91l-.49,2.55h38l-1.17,6H1046.3l2.77-14.23Zm-24.37-19h-10l20-11.56h-17l1.18-6.07h18.59l.74-3.8h8.05l-.74,3.8h18.71l-1.18,6.07h-17.63l-3.24,1.81h7.82l11.94,9.75h-10.6l-5.84-4.36h-13Z"/><path d="M1158.64,1000.81l-5.34,27.44h-30.44l5.33-27.44h7.49l-1.41,7.26h15.47l1.41-7.26Zm-24.87,52.1h19.11c7.93,0,12.54-3.57,13.87-10.43s-1.88-10.43-9.82-10.43h-19.1c-7.94,0-12.55,3.57-13.88,10.43S1125.84,1052.91,1133.77,1052.91Zm13.31-31.12,1.41-7.26H1133l-1.41,7.26Zm-10.51,16.72h19.11c2.94,0,4.13,1.19,3.59,4s-2.19,4-5.14,4H1135c-3,0-4.14-1.19-3.6-4S1133.62,1038.51,1136.57,1038.51Zm29.72-38.26h7.54l-2.07,10.65H1179l-1.27,6.58h-7.26l-2.5,12.87h-7.55Z"/><path d="M1215.36,1000.53l-1.94,10h9l2-10.26H1232l-5.45,28.06H1219l2.14-11h-9l-1.94,10h-30.33l5.2-26.76h7.48l-1.35,7h15.42l1.35-7Zm-22.89,30-.94,4.82h26.14l.93-4.82h7.54l-4.34,22.34h-41.16l4.34-22.34Zm11.5-9.58,1.35-7H1189.9l-1.36,7Zm11.55,25.45.9-4.64h-26.14l-.9,4.64Z"/><path d="M539.46,1032h53.29l-1.26,6.51H568.58l-2.91,15h-7.6l2.91-15H538.19Zm30.26-18.88h10.6l11.1,14.62h-9.18l-7.1-8.1H561.71l-9.8,8.1h-8.79l23.57-19.78h-18l1.27-6.52h44.21l-1.26,6.52H576Z"/><path d="M634,1039.79l-1.27,6.52-39.45,2.27,1.27-6.52Zm1.52-25.06-.83,4.31c-1.55,7.94-8.13,13.83-19.81,13.83s-16-5.89-14.49-13.83l.84-4.31c1.54-7.94,8.18-13.83,19.86-13.83S637.08,1006.79,635.53,1014.73Zm-8.19,3.69.59-3.07c.94-4.81-1.57-8-8.08-8s-10.32,3.18-11.25,8l-.6,3.07c-.93,4.81,1.62,8,8.14,8S626.4,1023.23,627.34,1018.42Zm17.36-18.49h7.55l-10.3,53h-7.54Z"/><path d="M671.64,1020.17h11.28l2.8,28.18h-8.05l-2.48-21.66h-6.91L657,1048.35h-8.11l24.33-47h8.16ZM698,999.93h7.55l-3.78,19.45h8.67l-1.28,6.58h-8.67l-5.24,26.92h-7.54Z"/><path d="M716.2,1002.83h13.72l.86-4.43h8.05l-.86,4.43h13.72l-1.24,6.4H715Zm16.29,27.32h-7.71c-7.6,0-11.67-3-10.41-9.41s6.47-9.41,14.07-9.41h7.71c7.6,0,11.67,2.95,10.42,9.41S740.09,1030.15,732.49,1030.15Zm-5.07,3.06h19.67c7.94,0,10.93,3.29,9.68,9.7s-5.51,9.69-13.45,9.69H723.65c-7.94,0-10.92-3.29-9.68-9.69S719.48,1033.21,727.42,1033.21Zm7.8-15.64h-8.28c-2.89,0-4.65.9-5.09,3.17s1,3.18,3.86,3.18H734c2.89,0,4.65-.91,5.1-3.18S738.11,1017.57,735.22,1017.57ZM724.9,1046.2h19.66c3,0,4.28-1,4.73-3.29s-.5-3.29-3.45-3.29H726.17c-2.95,0-4.26,1-4.72,3.29S722,1046.2,724.9,1046.2Zm31.55-46.27H764l-2.57,13.21h7l-1.28,6.58h-7l-2.28,11.74h-7.54Z"/></g></svg>