<svg xmlns="http://www.w3.org/2000/svg" viewBox="0 0 762 344"><defs><style>.cls-1{fill:#f40085;}.cls-2{fill:#5f5df4;}.cls-3{fill:none;stroke:#4bcb00;stroke-miterlimit:10;stroke-width:1.55px;}.cls-4{fill:#4bcb00;}.cls-5{fill:#313339;}</style></defs><g id="레이어_5" data-name="레이어 5"><path class="cls-1" d="M269.88,121.65a29.57,29.57,0,1,1-29.57-29.57,29.57,29.57,0,0,1,29.57,29.57"/><path class="cls-2" d="M375.56,243.66a28.92,28.92,0,1,1-28.92-28.92,28.91,28.91,0,0,1,28.92,28.92"/><line class="cls-3" x1="256.85" y1="218.53" x2="447.64" y2="110.74"/><polygon class="cls-4" points="452.86 108.36 442.32 110.51 445.56 116.25 452.86 108.36"/><path class="cls-5" d="M58.4,183.35H82.23L87.08,158H63.24l5.59-28.87L33.49,148.93,31.77,158H17.24L12.4,183.35H26.74l-6,31.29A63.36,63.36,0,0,0,19.66,226q0,13.78,8.1,21.51t25.05,7.73a55.1,55.1,0,0,0,15.08-1.86,59.37,59.37,0,0,0,11.74-4.66l-8-23.09a18,18,0,0,1-10.06,2.79q-9.5,0-9.49-9.5a28.89,28.89,0,0,1,.55-5.21Z"/><path class="cls-5" d="M150.94,221.07a21.12,21.12,0,0,1-16.76,7.54q-8,0-12.85-5t-4.84-14.34q0-11.18,6.52-18.71A21,21,0,0,1,139.59,183q8,0,12.94,5.12t4.93,14.25q0,11.18-6.52,18.72m46.15-65.79-35.53,19.88a23.4,23.4,0,0,0-9.87-14.71q-7.83-5.4-19.18-5.4a42.78,42.78,0,0,0-25,7.63,52.54,52.54,0,0,0-17.32,20.77,66.65,66.65,0,0,0-6.33,29.33q0,14,4.75,23.74a35.12,35.12,0,0,0,12.94,14.9A34.13,34.13,0,0,0,120,256.54a36,36,0,0,0,19.37-5.21,33.52,33.52,0,0,0,12.66-14l-3.16,16.2h39.29l5-25.32H183.16Z"/><polygon class="cls-5" points="281.2 211.88 246.34 211.88 315.75 158.03 274.43 158.03 242.23 183.01 257.26 106.44 221.84 126.27 197.02 253.56 228.38 253.56 234.81 220.83 246.34 211.88 268.44 253.56 297.49 253.56 302.33 228.24 291.16 228.24 281.2 211.88"/><polygon class="cls-5" points="320.01 183.35 306.31 253.56 348.13 253.56 352.97 228.24 342.91 228.24 355.44 163.53 320.01 183.35"/><path class="cls-5" d="M406.43,183.35h23.83L435.11,158H411.27l5.58-28.87-35.33,19.77L379.8,158H365.27l-4.84,25.32h14.34l-6,31.29A63.36,63.36,0,0,0,367.69,226q0,13.78,8.1,21.51t25,7.73a55.1,55.1,0,0,0,15.08-1.86,59.37,59.37,0,0,0,11.74-4.66l-8-23.09a18,18,0,0,1-10.06,2.79q-9.49,0-9.5-9.5a29,29,0,0,1,.56-5.21Z"/><path class="cls-1" d="M624,150.55A17.58,17.58,0,1,1,606.39,133,17.57,17.57,0,0,1,624,150.55"/><path class="cls-1" d="M583.63,82a18.59,18.59,0,1,1-18.58-18.58A18.58,18.58,0,0,1,583.63,82"/><path class="cls-2" d="M632.83,242.19a22.36,22.36,0,1,1-22.35-22.36,22.35,22.35,0,0,1,22.35,22.36"/><polygon class="cls-5" points="613.61 235.45 613.61 140.34 597.42 149.4 597.42 253.57 621.7 253.57 621.7 235.45 613.61 235.45"/><polygon class="cls-5" points="532.67 145.76 587.71 145.76 597.42 140.31 597.42 140.33 613.61 131.29 613.61 113.16 573.14 90.52 573.14 90.52 573.14 72.4 556.95 81.46 556.95 90.52 516.49 113.16 516.49 122.22 532.67 122.22 565.05 104.11 597.42 122.22 597.42 131.26 532.67 131.26 532.67 122.22 516.49 122.22 516.49 253.57 597.42 253.57 597.42 235.45 532.67 235.45 532.67 145.76"/><line class="cls-3" x1="500.85" y1="141.32" x2="625.57" y2="70.5"/><polygon class="cls-4" points="633.59 70.46 621.09 73.02 624.93 79.83 633.59 70.46"/><path class="cls-1" d="M749.29,188.29a16.67,16.67,0,1,1-16.67-16.68,16.67,16.67,0,0,1,16.67,16.68"/><path class="cls-2" d="M761.14,242.19a22.36,22.36,0,1,1-22.35-22.36,22.35,22.35,0,0,1,22.35,22.36"/><polygon class="cls-5" points="740.71 181.1 724.53 190.16 724.53 235.45 667.87 235.45 667.87 235.45 659.78 235.45 659.78 199.22 684.06 185.63 700.25 176.57 700.25 131.28 684.06 140.34 684.06 167.51 659.78 181.1 659.78 181.1 643.59 190.16 643.59 244.51 643.59 244.51 643.59 253.57 724.53 253.57 724.53 253.57 748.81 253.57 748.81 235.45 740.71 235.45 740.71 181.1"/><polygon class="cls-5" points="643.59 126.75 659.78 117.69 659.78 108.64 720.17 108.64 724.02 117.98 708.34 126.75 708.34 140.34 708.34 140.34 708.34 162.99 724.53 172.04 724.53 181.1 740.71 172.04 740.71 162.99 724.53 153.93 724.53 131.28 728.57 129.02 728.57 129.02 748.81 117.69 740.71 99.58 740.71 99.58 740.71 99.58 724.53 90.52 659.78 90.52 659.78 90.52 658 91.52 643.59 99.58 643.59 108.64 643.59 108.64 643.59 126.75"/><polygon class="cls-5" points="667.87 162.99 684.06 126.75 667.87 126.75 651.68 162.99 667.87 162.99"/><line class="cls-3" x1="629.88" y1="170.81" x2="754.59" y2="99.99"/><polygon class="cls-4" points="750.27 98.84 753.81 105.11 761.79 96.48 750.27 98.84"/><line class="cls-3" x1="629.88" y1="197.13" x2="754.59" y2="126.31"/><polygon class="cls-4" points="750.23 125.09 753.84 131.5 762 122.68 750.23 125.09"/></g></svg>