<svg xmlns="http://www.w3.org/2000/svg" viewBox="0 0 1451.58 405"><defs><style>.cls-1{fill:#f40085;}.cls-2{fill:#5f5df4;}.cls-3{fill:none;stroke:#4bcb00;stroke-miterlimit:10;stroke-width:3px;}.cls-4{fill:#4bcb00;}.cls-5{fill:#313339;}</style></defs><g id="레이어_5" data-name="레이어 5"><path class="cls-1" d="M498.61,112.74a57.26,57.26,0,1,1-57.26-57.25,57.26,57.26,0,0,1,57.26,57.25"/><path class="cls-2" d="M703.24,349a56,56,0,1,1-56-56,56,56,0,0,1,56,56"/><line class="cls-3" x1="473.37" y1="300.35" x2="842.82" y2="91.61"/><polygon class="cls-4" points="852.94 87 832.53 91.18 838.8 102.3 852.94 87"/><path class="cls-5" d="M89.07,232.23h46.17l9.37-49H98.45l10.82-55.9L40.84,165.58,37.5,183.19H9.38L0,232.23H27.77L16.23,292.82a123.85,123.85,0,0,0-2.17,22q0,26.69,15.69,41.65t48.51,15a106.8,106.8,0,0,0,29.2-3.6,114.47,114.47,0,0,0,22.73-9l-15.51-44.72a34.82,34.82,0,0,1-19.48,5.42q-18.39,0-18.39-18.4A54.93,54.93,0,0,1,77.9,291Z"/><path class="cls-5" d="M268.29,305.26q-12.63,14.61-32.46,14.61-15.5,0-24.88-9.74t-9.37-27.77q0-21.63,12.62-36.24t32.1-14.61q15.49,0,25.06,9.92T280.91,269q0,21.63-12.62,36.24m89.36-127.39-68.8,38.5a45.29,45.29,0,0,0-19.12-28.49q-15.15-10.45-37.14-10.46-27,0-48.33,14.79t-33.53,40.21q-12.27,25.41-12.26,56.79,0,27.06,9.19,46T172.73,364a65.94,65.94,0,0,0,35.7,9.92q21.27,0,37.5-10.1a64.88,64.88,0,0,0,24.53-27l-6.13,31.37h76.09l9.73-49H330.68Z"/><polygon class="cls-5" points="520.53 287.47 453.03 287.47 587.43 183.19 507.41 183.19 445.07 231.56 474.17 83.3 405.57 121.69 357.51 368.19 418.25 368.19 430.69 304.8 453.03 287.47 495.81 368.19 552.07 368.19 561.44 319.15 539.81 319.15 520.53 287.47"/><polygon class="cls-5" points="595.67 232.23 569.16 368.19 650.13 368.19 659.5 319.15 640.03 319.15 664.29 193.84 595.67 232.23"/><path class="cls-5" d="M763,232.23h46.16l9.38-49H772.4l10.82-55.9-68.43,38.29-3.34,17.61H683.33l-9.38,49h27.77l-11.54,60.59a123.85,123.85,0,0,0-2.17,22q0,26.69,15.69,41.65t48.51,15a106.8,106.8,0,0,0,29.2-3.6,114.47,114.47,0,0,0,22.73-9l-15.51-44.72a34.82,34.82,0,0,1-19.48,5.42q-18.39,0-18.39-18.4A55.72,55.72,0,0,1,751.84,291Z"/><path class="cls-1" d="M1184.28,168.7a34,34,0,1,1-34-34,34,34,0,0,1,34,34"/><path class="cls-1" d="M1106.18,36a36,36,0,1,1-36-36,36,36,0,0,1,36,36"/><path class="cls-2" d="M1201.45,346.16a43.29,43.29,0,1,1-43.29-43.29,43.29,43.29,0,0,1,43.29,43.29"/><polygon class="cls-5" points="1007.5 131.36 1007.5 145.4 1007.5 159.43 1114.07 159.43 1132.88 148.88 1132.88 131.36 1007.5 131.36"/><polygon class="cls-5" points="1132.88 368.2 1132.88 166.48 1164.23 148.94 1164.23 333.12 1179.9 333.12 1179.9 368.2 1132.88 368.2"/><polygon class="cls-5" points="976.15 368.2 976.15 113.85 1007.5 113.85 1007.5 333.12 1132.88 333.12 1132.88 368.2 976.15 368.2"/><polygon class="cls-5" points="1054.52 52.46 976.15 96.31 976.15 113.85 1007.5 113.85 1085.86 70 1085.86 52.46 1054.52 52.46"/><polygon class="cls-5" points="1132.88 113.85 1054.52 70 1054.52 52.46 1085.86 52.46 1164.23 96.31 1164.23 131.41 1132.88 148.92 1132.88 113.85"/><polygon class="cls-5" points="1054.52 34.91 1085.86 17.37 1085.86 70 1054.52 70 1054.52 34.91"/><line class="cls-3" x1="945.88" y1="150.84" x2="1187.38" y2="13.7"/><polygon class="cls-4" points="1202.91 6 1178.72 10.95 1186.15 24.13 1202.91 6"/><path class="cls-1" d="M1427,241.78a32.28,32.28,0,1,1-32.28-32.28A32.29,32.29,0,0,1,1427,241.78"/><path class="cls-2" d="M1449.92,346.16a43.29,43.29,0,1,1-43.29-43.29,43.29,43.29,0,0,1,43.29,43.29"/><polygon class="cls-5" points="1222.29 368.2 1222.29 245.41 1253.63 227.87 1253.63 333.12 1269.31 333.12 1269.31 368.2 1222.29 368.2"/><polygon class="cls-5" points="1300.65 236.64 1300.65 201.56 1253.63 227.87 1253.63 262.95 1300.65 236.64"/><polygon class="cls-5" points="1347.67 192.79 1379.02 175.25 1410.36 192.79 1410.36 210.33 1379.02 227.87 1379.02 210.33 1347.67 192.79"/><polygon class="cls-5" points="1379.02 333.12 1253.63 333.12 1222.29 350.66 1222.29 368.2 1379.02 368.2 1379.02 333.12"/><polygon class="cls-5" points="1253.63 52.46 1222.29 70 1222.29 87.54 1379.02 87.54 1410.36 70 1379.02 52.46 1253.63 52.46"/><polygon class="cls-5" points="1379.02 368.2 1379.02 245.41 1410.36 227.87 1410.36 333.12 1426.04 333.12 1426.04 368.2 1379.02 368.2"/><polygon class="cls-5" points="1300.65 236.64 1300.65 148.94 1332 131.39 1332 219.1 1300.65 236.64"/><polygon class="cls-5" points="1347.67 192.79 1347.67 148.94 1379.02 131.39 1379.02 192.79 1347.67 192.79"/><polygon class="cls-5" points="1222.29 122.62 1222.29 70 1253.63 52.46 1253.63 105.08 1222.29 122.62"/><polygon class="cls-5" points="1363.34 70 1410.36 70 1426.04 105.08 1386.85 127.01 1363.34 70"/><polygon class="cls-5" points="1237.96 192.79 1269.31 192.79 1300.65 122.62 1269.31 122.62 1237.96 192.79"/><polygon class="cls-5" points="1386.85 127.01 1347.67 148.94 1347.67 122.62 1379.02 105.08 1386.85 127.01"/><line class="cls-3" x1="1195.73" y1="207.94" x2="1437.24" y2="70.8"/><polygon class="cls-4" points="1428.86 68.57 1435.71 80.72 1451.17 64 1428.86 68.57"/><line class="cls-3" x1="1195.73" y1="258.91" x2="1437.24" y2="121.77"/><polygon class="cls-4" points="1428.79 119.41 1435.79 131.82 1451.58 114.74 1428.79 119.41"/></g></svg>