<?xml version="1.0" encoding="utf-8"?>
<!-- Generator: Adobe Illustrator 26.0.2, SVG Export Plug-In . SVG Version: 6.00 Build 0)  -->
<svg version="1.1" id="레이어_1" xmlns="http://www.w3.org/2000/svg" xmlns:xlink="http://www.w3.org/1999/xlink" x="0px"
	 y="0px" viewBox="0 0 762 344" style="enable-background:new 0 0 762 344;" xml:space="preserve">
<style type="text/css">
	.st0{fill:#F40085;}
	.st1{fill:#5F5DF4;}
	.st2{fill:none;stroke:#4BCB00;stroke-width:1.55;stroke-miterlimit:10;}
	.st3{fill:#4BCB00;}
	.st4{fill:#313339;}
</style>
<g id="레이어_5">
	<path class="st0" d="M269.9,121.7c0,16.3-13.2,29.6-29.6,29.6s-29.6-13.2-29.6-29.6s13.2-29.6,29.6-29.6
		C256.6,92.1,269.9,105.3,269.9,121.7L269.9,121.7"/>
	<path class="st1" d="M375.6,243.7c0,16-12.9,28.9-28.9,28.9c-16,0-28.9-12.9-28.9-28.9s12.9-28.9,28.9-28.9
		C362.6,214.7,375.6,227.7,375.6,243.7C375.6,243.6,375.6,243.7,375.6,243.7"/>
	<line class="st2" x1="256.9" y1="218.5" x2="447.6" y2="110.7"/>
	<polygon class="st3" points="452.9,108.4 442.3,110.5 445.6,116.2 	"/>
	<path class="st4" d="M58.4,183.4h23.8l4.8-25.4H63.2l5.6-28.9l-35.3,19.8l-1.7,9.1H17.2l-4.8,25.4h14.3l-6,31.3
		c-0.7,3.7-1.1,7.5-1.1,11.4c0,9.2,2.7,16.4,8.1,21.5c5.4,5.2,13.7,7.7,25,7.7c5.1,0.1,10.2-0.5,15.1-1.9c4.1-1.1,8-2.7,11.7-4.7
		l-8-23.1c-3,1.9-6.5,2.9-10.1,2.8c-6.3,0-9.5-3.2-9.5-9.5c0-1.7,0.2-3.5,0.5-5.2L58.4,183.4z"/>
	<path class="st4" d="M150.9,221.1c-4.1,4.9-10.3,7.7-16.8,7.5c-5.3,0-9.6-1.7-12.8-5c-3.2-3.3-4.8-8.1-4.8-14.3
		c0-7.5,2.2-13.7,6.5-18.7c4.1-4.9,10.2-7.7,16.6-7.6c5.3,0,9.6,1.7,12.9,5.1s4.9,8.2,4.9,14.2C157.5,209.8,155.3,216.1,150.9,221.1
		 M197.1,155.3l-35.5,19.9c-1.2-6-4.8-11.3-9.9-14.7c-5.2-3.6-11.6-5.4-19.2-5.4c-8.9-0.1-17.7,2.5-25,7.6
		c-7.5,5.3-13.5,12.5-17.3,20.8c-4.3,9.2-6.5,19.2-6.3,29.3c0,9.3,1.6,17.2,4.8,23.7c2.8,6.1,7.3,11.3,12.9,14.9
		c5.5,3.4,11.9,5.2,18.4,5.1c6.8,0.1,13.5-1.7,19.4-5.2c5.5-3.4,9.9-8.2,12.7-14l-3.2,16.2h39.3l5-25.3h-10L197.1,155.3z"/>
	<polygon class="st4" points="281.2,211.9 246.3,211.9 315.8,158 274.4,158 242.2,183 257.3,106.4 221.8,126.3 197,253.6 
		228.4,253.6 234.8,220.8 246.3,211.9 268.4,253.6 297.5,253.6 302.3,228.2 291.2,228.2 	"/>
	<polygon class="st4" points="320,183.4 306.3,253.6 348.1,253.6 353,228.2 342.9,228.2 355.4,163.5 	"/>
	<path class="st4" d="M406.4,183.4h23.8l4.9-25.4h-23.8l5.6-28.9l-35.3,19.8l-1.7,9.1h-14.5l-4.8,25.3h14.3l-6,31.3
		c-0.7,3.8-1.1,7.6-1.1,11.4c0,9.2,2.7,16.4,8.1,21.5c5.4,5.2,13.7,7.7,25,7.7c5.1,0.1,10.2-0.5,15.1-1.9c4.1-1.1,8-2.7,11.7-4.7
		l-8-23.1c-3,1.9-6.5,2.9-10.1,2.8c-6.3,0-9.5-3.2-9.5-9.5c0-1.8,0.2-3.5,0.6-5.2L406.4,183.4z"/>
	<path class="st0" d="M624,150.6c0,9.7-7.8,17.6-17.5,17.6c-9.7,0-17.6-7.8-17.6-17.6c0-9.7,7.8-17.6,17.5-17.6
		C616.1,133,624,140.8,624,150.6C624,150.5,624,150.5,624,150.6"/>
	<path class="st0" d="M583.6,82c0,10.3-8.3,18.6-18.6,18.6c-10.3,0-18.6-8.3-18.6-18.6s8.3-18.6,18.6-18.6c0,0,0,0,0,0
		C575.3,63.4,583.6,71.7,583.6,82C583.6,82,583.6,82,583.6,82"/>
	<path class="st1" d="M632.8,242.2c0,12.3-10,22.4-22.4,22.4c-12.3,0-22.4-10-22.4-22.4c0-12.3,10-22.4,22.4-22.4c0,0,0,0,0,0
		C622.8,219.8,632.8,229.8,632.8,242.2C632.8,242.2,632.8,242.2,632.8,242.2"/>
	<polygon class="st4" points="613.6,235.4 613.6,140.3 597.4,149.4 597.4,253.6 621.7,253.6 621.7,235.4 	"/>
	<polygon class="st4" points="532.7,145.8 587.7,145.8 597.4,140.3 597.4,140.3 613.6,131.3 613.6,113.2 573.1,90.5 573.1,90.5 
		573.1,72.4 557,81.5 557,90.5 516.5,113.2 516.5,122.2 532.7,122.2 565,104.1 597.4,122.2 597.4,131.3 532.7,131.3 532.7,122.2 
		516.5,122.2 516.5,253.6 597.4,253.6 597.4,235.4 532.7,235.4 	"/>
	<line class="st2" x1="500.9" y1="141.3" x2="625.6" y2="70.5"/>
	<polygon class="st3" points="633.6,66 621.1,68.5 624.9,75.3 	"/>
	<path class="st0" d="M749.3,188.3c0,9.2-7.5,16.7-16.7,16.7c-9.2,0-16.7-7.5-16.7-16.7c0-9.2,7.5-16.7,16.7-16.7
		C741.8,171.6,749.3,179.1,749.3,188.3C749.3,188.3,749.3,188.3,749.3,188.3"/>
	<path class="st1" d="M761.1,242.2c0,12.3-10,22.4-22.4,22.4c-12.3,0-22.4-10-22.4-22.4c0-12.3,10-22.4,22.4-22.4c0,0,0,0,0,0
		C751.1,219.8,761.1,229.8,761.1,242.2C761.1,242.2,761.1,242.2,761.1,242.2"/>
	<polygon class="st4" points="740.7,181.1 724.5,190.2 724.5,235.4 667.9,235.4 667.9,235.4 659.8,235.4 659.8,199.2 684.1,185.6 
		700.2,176.6 700.2,131.3 684.1,140.3 684.1,167.5 659.8,181.1 659.8,181.1 643.6,190.2 643.6,244.5 643.6,244.5 643.6,253.6 
		724.5,253.6 724.5,253.6 748.8,253.6 748.8,235.4 740.7,235.4 	"/>
	<polygon class="st4" points="643.6,126.8 659.8,117.7 659.8,108.6 720.2,108.6 724,118 708.3,126.8 708.3,140.3 708.3,140.3 
		708.3,163 724.5,172 724.5,181.1 740.7,172 740.7,163 724.5,153.9 724.5,131.3 728.6,129 728.6,129 748.8,117.7 740.7,99.6 
		740.7,99.6 740.7,99.6 724.5,90.5 659.8,90.5 659.8,90.5 658,91.5 643.6,99.6 643.6,108.6 643.6,108.6 	"/>
	<polygon class="st4" points="667.9,163 684.1,126.8 667.9,126.8 651.7,163 	"/>
	<line class="st2" x1="629.9" y1="170.8" x2="754.6" y2="100"/>
	<polygon class="st3" points="750.3,98.8 753.8,105.1 761.8,96.5 	"/>
	<line class="st2" x1="629.9" y1="197.1" x2="754.6" y2="126.3"/>
	<polygon class="st3" points="750.2,125.1 753.8,131.5 762,122.7 	"/>
</g>
</svg>
