<?xml version="1.0" encoding="utf-8"?>
<!-- Generator: Adobe Illustrator 26.0.1, SVG Export Plug-In . SVG Version: 6.00 Build 0)  -->
<svg version="1.1" id="레이어_1" xmlns="http://www.w3.org/2000/svg" xmlns:xlink="http://www.w3.org/1999/xlink" x="0px"
	 y="0px" viewBox="0 0 762 344" style="enable-background:new 0 0 762 344;" xml:space="preserve">
<style type="text/css">
	.st0{fill:none;stroke:#7171F6;stroke-width:3;stroke-miterlimit:10;}
	.st1{fill:none;stroke:#FF008F;stroke-width:3;stroke-miterlimit:10;}
	.st2{fill:none;stroke:#1ACE00;stroke-width:3;stroke-miterlimit:10;}
</style>
<g id="레이어_5">
	<g>
		<polygon points="589.3,134.3 566.4,134.3 566.4,157.2 566.4,202.9 577.9,202.9 589.3,202.9 		"/>
		<polygon points="612.2,180.1 612.2,157.2 589.3,157.2 543.6,157.2 543.6,168.6 543.6,180.1 		"/>
		<polyline points="623.6,232.6 623.6,143 646.5,130.2 646.5,232.6 		"/>
		<polyline points="509.2,232.6 509.2,117.4 532.1,104.6 532.1,232.6 		"/>
		<polygon points="632.2,239 597.9,258.2 597.9,283.8 632.2,264.6 		"/>
		<polygon points="609.3,264.6 632.2,264.6 646.5,232.6 623.6,232.6 		"/>
		<rect x="557.9" y="258.2" width="40" height="25.6"/>
		<rect x="623.6" y="207" width="34.3" height="25.6"/>
		<polygon points="523.5,239 557.9,258.2 557.9,283.8 523.5,264.6 		"/>
		<polygon points="546.4,264.6 523.5,264.6 509.2,232.6 532.1,232.6 		"/>
		<rect x="509.2" y="207" width="22.9" height="25.6"/>
		<polygon points="632.2,98.2 597.9,79 597.9,53.4 632.2,72.6 		"/>
		<polygon points="609.3,72.6 632.2,72.6 646.5,104.6 646.5,117.4 623.6,130.2 623.6,104.6 		"/>
		<rect x="557.9" y="53.4" width="40" height="25.6"/>
		<polygon points="523.5,98.2 557.9,79 557.9,53.4 523.5,72.6 		"/>
		<polygon points="546.4,72.6 523.5,72.6 509.2,104.6 532.1,104.6 		"/>
		<rect x="509.2" y="104.6" width="22.9" height="25.6"/>
		<rect x="346.7" y="168.6" width="22.9" height="115.2"/>
		<polygon points="392.4,283.8 392.4,181.4 415.3,168.6 415.3,283.8 		"/>
		<polygon points="426.8,155.8 426.8,123.8 449.6,111 449.6,155.8 		"/>
		<polygon points="426.8,258.2 369.6,258.2 346.7,271 346.7,283.8 426.8,283.8 		"/>
		<polygon points="426.8,143 392.4,162.2 392.4,187.8 449.6,155.8 449.6,143 		"/>
		<polygon points="346.7,53.4 312.4,72.6 312.4,98.2 369.6,66.2 369.6,53.4 		"/>
		<polygon points="415.3,53.4 449.6,72.6 449.6,91.8 426.8,104.6 426.8,85.4 392.4,66.2 392.4,53.4 		"/>
		<polygon points="335.2,143 369.6,162.2 369.6,187.8 312.4,155.8 312.4,143 		"/>
		<polygon points="369.6,130.2 392.4,130.2 403.9,123.8 403.9,117.4 381,117.4 358.1,117.4 358.1,123.8 		"/>
		<polyline points="312.4,155.8 312.4,85.4 335.2,72.6 335.2,155.8 		"/>
		<rect x="358.1" y="53.4" width="22.9" height="64"/>
		<polygon points="392.4,130.2 392.4,66.2 403.9,53.4 403.9,123.8 		"/>
		<polygon points="138.4,155.8 115.5,168.6 115.5,181.4 161.2,181.4 161.2,168.6 161.2,155.8 		"/>
		<polygon points="207,155.8 207,168.6 207,181.4 229.9,181.4 252.8,168.6 252.8,155.8 		"/>
		<polygon points="138.4,258.2 115.5,271 115.5,283.8 252.8,283.8 252.8,271 252.8,258.2 		"/>
		<polygon points="229.9,283.8 229.9,200.6 252.8,187.8 252.8,258.2 264.2,258.2 264.2,283.8 		"/>
		<polygon points="115.5,283.8 115.5,168.6 138.4,155.8 138.4,283.8 		"/>
		<rect x="174.4" y="53.4" width="19.4" height="166.4"/>
		<polygon points="174.9,53.4 193.8,53.4 228.1,130.2 209.2,130.2 		"/>
		<polygon points="140.1,130.2 159,130.2 193.3,53.4 174.4,53.4 		"/>
	</g>
	<rect x="115.5" y="258.2" class="st0" width="22.9" height="25.6"/>
	<rect x="138.4" y="258.2" class="st0" width="22.9" height="25.6"/>
	<rect x="161.2" y="258.2" class="st0" width="22.9" height="25.6"/>
	<rect x="184.1" y="258.2" class="st0" width="22.9" height="25.6"/>
	<rect x="207" y="258.2" class="st0" width="22.9" height="25.6"/>
	<rect x="115.5" y="232.6" class="st0" width="22.9" height="25.6"/>
	<rect x="115.5" y="207" class="st0" width="22.9" height="25.6"/>
	<rect x="115.5" y="181.4" class="st0" width="22.9" height="25.6"/>
	<rect x="115.5" y="155.8" class="st0" width="22.9" height="25.6"/>
	<rect x="115.5" y="130.2" class="st0" width="22.9" height="25.6"/>
	<rect x="115.5" y="104.6" class="st0" width="22.9" height="25.6"/>
	<rect x="115.5" y="79" class="st0" width="22.9" height="25.6"/>
	<rect x="115.5" y="53.4" class="st0" width="22.9" height="25.6"/>
	<rect x="229.9" y="258.2" class="st0" width="22.9" height="25.6"/>
	<rect x="229.9" y="232.6" class="st0" width="22.9" height="25.6"/>
	<rect x="229.9" y="207" class="st0" width="22.9" height="25.6"/>
	<rect x="229.9" y="181.4" class="st0" width="22.9" height="25.6"/>
	<rect x="229.9" y="155.8" class="st0" width="22.9" height="25.6"/>
	<rect x="229.9" y="130.2" class="st0" width="22.9" height="25.6"/>
	<rect x="229.9" y="104.6" class="st0" width="22.9" height="25.6"/>
	<rect x="229.9" y="79" class="st0" width="22.9" height="25.6"/>
	<rect x="229.9" y="53.4" class="st0" width="22.9" height="25.6"/>
	<rect x="138.4" y="53.4" class="st0" width="22.9" height="25.6"/>
	<rect x="161.2" y="53.4" class="st0" width="22.9" height="25.6"/>
	<rect x="184.1" y="53.4" class="st0" width="22.9" height="25.6"/>
	<rect x="207" y="53.4" class="st0" width="22.9" height="25.6"/>
	<rect x="312.4" y="258.2" class="st1" width="22.9" height="25.6"/>
	<rect x="335.2" y="258.2" class="st1" width="22.9" height="25.6"/>
	<rect x="358.1" y="258.2" class="st1" width="22.9" height="25.6"/>
	<rect x="381" y="258.2" class="st1" width="22.9" height="25.6"/>
	<rect x="403.9" y="258.2" class="st1" width="22.9" height="25.6"/>
	<rect x="312.4" y="232.6" class="st1" width="22.9" height="25.6"/>
	<rect x="312.4" y="207" class="st1" width="22.9" height="25.6"/>
	<rect x="312.4" y="181.4" class="st1" width="22.9" height="25.6"/>
	<rect x="312.4" y="155.8" class="st1" width="22.9" height="25.6"/>
	<rect x="312.4" y="130.2" class="st1" width="22.9" height="25.6"/>
	<rect x="312.4" y="104.6" class="st1" width="22.9" height="25.6"/>
	<rect x="312.4" y="79" class="st1" width="22.9" height="25.6"/>
	<rect x="312.4" y="53.4" class="st1" width="22.9" height="25.6"/>
	<rect x="426.8" y="258.2" class="st1" width="22.9" height="25.6"/>
	<rect x="426.8" y="232.6" class="st1" width="22.9" height="25.6"/>
	<rect x="426.8" y="207" class="st1" width="22.9" height="25.6"/>
	<rect x="426.8" y="181.4" class="st1" width="22.9" height="25.6"/>
	<rect x="426.8" y="155.8" class="st1" width="22.9" height="25.6"/>
	<rect x="426.8" y="130.2" class="st1" width="22.9" height="25.6"/>
	<rect x="426.8" y="104.6" class="st1" width="22.9" height="25.6"/>
	<rect x="426.8" y="79" class="st1" width="22.9" height="25.6"/>
	<rect x="426.8" y="53.4" class="st1" width="22.9" height="25.6"/>
	<rect x="335.2" y="53.4" class="st1" width="22.9" height="25.6"/>
	<rect x="358.1" y="53.4" class="st1" width="22.9" height="25.6"/>
	<rect x="381" y="53.4" class="st1" width="22.9" height="25.6"/>
	<rect x="403.9" y="53.4" class="st1" width="22.9" height="25.6"/>
	<rect x="509.2" y="258.2" class="st2" width="22.9" height="25.6"/>
	<rect x="532.1" y="258.2" class="st2" width="22.9" height="25.6"/>
	<rect x="555" y="258.2" class="st2" width="22.9" height="25.6"/>
	<rect x="577.9" y="258.2" class="st2" width="22.9" height="25.6"/>
	<rect x="600.8" y="258.2" class="st2" width="22.9" height="25.6"/>
	<rect x="509.2" y="232.6" class="st2" width="22.9" height="25.6"/>
	<rect x="509.2" y="207" class="st2" width="22.9" height="25.6"/>
	<rect x="509.2" y="181.4" class="st2" width="22.9" height="25.6"/>
	<rect x="509.2" y="155.8" class="st2" width="22.9" height="25.6"/>
	<rect x="509.2" y="130.2" class="st2" width="22.9" height="25.6"/>
	<rect x="509.2" y="104.6" class="st2" width="22.9" height="25.6"/>
	<rect x="509.2" y="79" class="st2" width="22.9" height="25.6"/>
	<rect x="509.2" y="53.4" class="st2" width="22.9" height="25.6"/>
	<rect x="623.6" y="258.2" class="st2" width="22.9" height="25.6"/>
	<rect x="623.6" y="232.6" class="st2" width="22.9" height="25.6"/>
	<rect x="623.6" y="207" class="st2" width="22.9" height="25.6"/>
	<rect x="623.6" y="181.4" class="st2" width="22.9" height="25.6"/>
	<rect x="623.6" y="155.8" class="st2" width="22.9" height="25.6"/>
	<rect x="623.6" y="130.2" class="st2" width="22.9" height="25.6"/>
	<rect x="623.6" y="104.6" class="st2" width="22.9" height="25.6"/>
	<rect x="623.6" y="79" class="st2" width="22.9" height="25.6"/>
	<rect x="623.6" y="53.4" class="st2" width="22.9" height="25.6"/>
	<rect x="532.1" y="53.4" class="st2" width="22.9" height="25.6"/>
	<rect x="555" y="53.4" class="st2" width="22.9" height="25.6"/>
	<rect x="577.9" y="53.4" class="st2" width="22.9" height="25.6"/>
	<rect x="600.8" y="53.4" class="st2" width="22.9" height="25.6"/>
</g>
</svg>
