<svg xmlns="http://www.w3.org/2000/svg" viewBox="0 0 762 344"><defs><style>.cls-1,.cls-2,.cls-3{fill:none;stroke-miterlimit:10;}.cls-1{stroke:#7171f6;}.cls-2{stroke:#ff008f;}.cls-3{stroke:#1ace00;}</style></defs><g id="레이어_5" data-name="레이어 5"><polygon points="629.32 134.29 606.44 134.29 606.44 157.17 606.44 202.93 617.88 202.93 629.32 202.93 629.32 134.29"/><polygon points="652.2 180.05 652.2 157.17 629.32 157.17 583.56 157.17 583.56 168.61 583.56 180.05 652.2 180.05"/><polyline points="663.64 232.62 663.64 143 686.52 130.2 686.52 232.62"/><polyline points="549.24 232.62 549.24 117.39 572.12 104.59 572.12 232.62"/><polygon points="672.22 239.03 637.9 258.23 637.9 283.84 672.22 264.63 672.22 239.03"/><polygon points="649.34 264.63 672.22 264.63 686.52 232.62 663.64 232.62 649.34 264.63"/><rect x="597.86" y="258.23" width="40.04" height="25.61"/><rect x="663.64" y="207.02" width="34.32" height="25.61"/><polygon points="563.54 239.03 597.86 258.23 597.86 283.84 563.54 264.63 563.54 239.03"/><polygon points="586.42 264.63 563.54 264.63 549.24 232.62 572.12 232.62 586.42 264.63"/><rect x="549.24" y="207.02" width="22.88" height="25.61" transform="translate(1121.36 439.64) rotate(180)"/><polygon points="672.22 98.19 637.9 78.98 637.9 53.38 672.22 72.58 672.22 98.19"/><polygon points="649.34 72.58 672.22 72.58 686.52 104.59 686.52 117.39 663.64 130.2 663.64 104.59 649.34 72.58"/><rect x="597.86" y="53.38" width="40.04" height="25.61"/><polygon points="563.54 98.19 597.86 78.98 597.86 53.38 563.54 72.58 563.54 98.19"/><polygon points="586.42 72.58 563.54 72.58 549.24 104.59 572.12 104.59 586.42 72.58"/><rect x="549.24" y="104.59" width="22.88" height="25.61" transform="translate(1121.36 234.79) rotate(180)"/><rect x="346.68" y="168.61" width="22.88" height="115.23"/><polygon points="392.44 283.84 392.44 181.41 415.32 168.61 415.32 283.84 392.44 283.84"/><polygon points="426.76 155.8 426.76 123.8 449.64 110.99 449.64 155.8 426.76 155.8"/><polygon points="426.76 258.23 369.56 258.23 346.68 271.03 346.68 283.84 426.76 283.84 426.76 258.23"/><polygon points="426.76 143 392.44 162.21 392.44 187.81 449.64 155.8 449.64 143 426.76 143"/><polygon points="346.68 53.38 312.36 72.58 312.36 98.19 369.56 66.18 369.56 53.38 346.68 53.38"/><polygon points="415.32 53.38 449.64 72.58 449.64 91.79 426.76 104.59 426.76 85.39 392.44 66.18 392.44 53.38 415.32 53.38"/><polygon points="335.24 143 369.56 162.21 369.56 187.81 312.36 155.8 312.36 143 335.24 143"/><polygon points="369.56 130.2 392.44 130.2 403.88 123.8 403.88 117.39 381 117.39 358.12 117.39 358.12 123.8 369.56 130.2"/><polyline points="312.36 155.8 312.36 85.39 335.24 72.58 335.24 155.8"/><rect x="358.12" y="53.38" width="22.88" height="64.02"/><polygon points="392.44 130.2 392.44 66.18 403.88 53.38 403.88 123.8 392.44 130.2"/><polygon points="98.36 155.8 75.48 168.61 75.48 181.41 121.23 181.41 121.23 168.61 121.23 155.8 98.36 155.8"/><polygon points="166.99 155.8 166.99 168.61 166.99 181.41 189.87 181.41 212.75 168.61 212.75 155.8 166.99 155.8"/><polygon points="98.36 258.23 75.48 271.03 75.48 283.84 212.75 283.84 212.75 271.03 212.75 258.23 98.36 258.23"/><polygon points="189.87 283.84 189.87 200.62 212.75 187.81 212.75 258.23 224.19 258.23 224.19 283.84 189.87 283.84"/><polygon points="75.48 283.84 75.48 168.61 98.36 155.8 98.36 283.84 75.48 283.84"/><rect x="134.41" y="53.38" width="19.4" height="166.44"/><polygon points="134.94 53.38 153.81 53.38 188.13 130.2 169.25 130.2 134.94 53.38"/><polygon points="100.09 130.2 118.97 130.2 153.29 53.38 134.41 53.38 100.09 130.2"/><rect class="cls-1" x="75.48" y="258.23" width="22.88" height="25.61"/><rect class="cls-1" x="98.36" y="258.23" width="22.88" height="25.61"/><rect class="cls-1" x="121.23" y="258.23" width="22.88" height="25.61"/><rect class="cls-1" x="144.11" y="258.23" width="22.88" height="25.61"/><rect class="cls-1" x="166.99" y="258.23" width="22.88" height="25.61"/><rect class="cls-1" x="75.48" y="232.62" width="22.88" height="25.61"/><rect class="cls-1" x="75.48" y="207.02" width="22.88" height="25.61"/><rect class="cls-1" x="75.48" y="181.41" width="22.88" height="25.61"/><rect class="cls-1" x="75.48" y="155.8" width="22.88" height="25.61"/><rect class="cls-1" x="75.48" y="130.2" width="22.88" height="25.61"/><rect class="cls-1" x="75.48" y="104.59" width="22.88" height="25.61"/><rect class="cls-1" x="75.48" y="78.98" width="22.88" height="25.61"/><rect class="cls-1" x="75.48" y="53.38" width="22.88" height="25.61"/><rect class="cls-1" x="189.87" y="258.23" width="22.88" height="25.61"/><rect class="cls-1" x="189.87" y="232.62" width="22.88" height="25.61"/><rect class="cls-1" x="189.87" y="207.02" width="22.88" height="25.61"/><rect class="cls-1" x="189.87" y="181.41" width="22.88" height="25.61"/><rect class="cls-1" x="189.87" y="155.8" width="22.88" height="25.61"/><rect class="cls-1" x="189.87" y="130.2" width="22.88" height="25.61"/><rect class="cls-1" x="189.87" y="104.59" width="22.88" height="25.61"/><rect class="cls-1" x="189.87" y="78.98" width="22.88" height="25.61"/><rect class="cls-1" x="189.87" y="53.38" width="22.88" height="25.61"/><rect class="cls-1" x="98.36" y="53.38" width="22.88" height="25.61"/><rect class="cls-1" x="121.23" y="53.38" width="22.88" height="25.61"/><rect class="cls-1" x="144.11" y="53.38" width="22.88" height="25.61"/><rect class="cls-1" x="166.99" y="53.38" width="22.88" height="25.61"/><rect class="cls-2" x="312.36" y="258.23" width="22.88" height="25.61"/><rect class="cls-2" x="335.24" y="258.23" width="22.88" height="25.61"/><rect class="cls-2" x="358.12" y="258.23" width="22.88" height="25.61"/><rect class="cls-2" x="381" y="258.23" width="22.88" height="25.61"/><rect class="cls-2" x="403.88" y="258.23" width="22.88" height="25.61"/><rect class="cls-2" x="312.36" y="232.62" width="22.88" height="25.61"/><rect class="cls-2" x="312.36" y="207.02" width="22.88" height="25.61"/><rect class="cls-2" x="312.36" y="181.41" width="22.88" height="25.61"/><rect class="cls-2" x="312.36" y="155.8" width="22.88" height="25.61"/><rect class="cls-2" x="312.36" y="130.2" width="22.88" height="25.61"/><rect class="cls-2" x="312.36" y="104.59" width="22.88" height="25.61"/><rect class="cls-2" x="312.36" y="78.98" width="22.88" height="25.61"/><rect class="cls-2" x="312.36" y="53.38" width="22.88" height="25.61"/><rect class="cls-2" x="426.76" y="258.23" width="22.88" height="25.61"/><rect class="cls-2" x="426.76" y="232.62" width="22.88" height="25.61"/><rect class="cls-2" x="426.76" y="207.02" width="22.88" height="25.61"/><rect class="cls-2" x="426.76" y="181.41" width="22.88" height="25.61"/><rect class="cls-2" x="426.76" y="155.8" width="22.88" height="25.61"/><rect class="cls-2" x="426.76" y="130.2" width="22.88" height="25.61"/><rect class="cls-2" x="426.76" y="104.59" width="22.88" height="25.61"/><rect class="cls-2" x="426.76" y="78.98" width="22.88" height="25.61"/><rect class="cls-2" x="426.76" y="53.38" width="22.88" height="25.61"/><rect class="cls-2" x="335.24" y="53.38" width="22.88" height="25.61"/><rect class="cls-2" x="358.12" y="53.38" width="22.88" height="25.61"/><rect class="cls-2" x="381" y="53.38" width="22.88" height="25.61"/><rect class="cls-2" x="403.88" y="53.38" width="22.88" height="25.61"/><rect class="cls-3" x="549.24" y="258.23" width="22.88" height="25.61"/><rect class="cls-3" x="572.12" y="258.23" width="22.88" height="25.61"/><rect class="cls-3" x="595" y="258.23" width="22.88" height="25.61"/><rect class="cls-3" x="617.88" y="258.23" width="22.88" height="25.61"/><rect class="cls-3" x="640.76" y="258.23" width="22.88" height="25.61"/><rect class="cls-3" x="549.24" y="232.62" width="22.88" height="25.61"/><rect class="cls-3" x="549.24" y="207.02" width="22.88" height="25.61"/><rect class="cls-3" x="549.24" y="181.41" width="22.88" height="25.61"/><rect class="cls-3" x="549.24" y="155.8" width="22.88" height="25.61"/><rect class="cls-3" x="549.24" y="130.2" width="22.88" height="25.61"/><rect class="cls-3" x="549.24" y="104.59" width="22.88" height="25.61"/><rect class="cls-3" x="549.24" y="78.98" width="22.88" height="25.61"/><rect class="cls-3" x="549.24" y="53.38" width="22.88" height="25.61"/><rect class="cls-3" x="663.64" y="258.23" width="22.88" height="25.61"/><rect class="cls-3" x="663.64" y="232.62" width="22.88" height="25.61"/><rect class="cls-3" x="663.64" y="207.02" width="22.88" height="25.61"/><rect class="cls-3" x="663.64" y="181.41" width="22.88" height="25.61"/><rect class="cls-3" x="663.64" y="155.8" width="22.88" height="25.61"/><rect class="cls-3" x="663.64" y="130.2" width="22.88" height="25.61"/><rect class="cls-3" x="663.64" y="104.59" width="22.88" height="25.61"/><rect class="cls-3" x="663.64" y="78.98" width="22.88" height="25.61"/><rect class="cls-3" x="663.64" y="53.38" width="22.88" height="25.61"/><rect class="cls-3" x="572.12" y="53.38" width="22.88" height="25.61"/><rect class="cls-3" x="595" y="53.38" width="22.88" height="25.61"/><rect class="cls-3" x="617.88" y="53.38" width="22.88" height="25.61"/><rect class="cls-3" x="640.76" y="53.38" width="22.88" height="25.61"/></g></svg>