<?xml version="1.0" encoding="UTF-8"?>
<svg id="a" xmlns="http://www.w3.org/2000/svg" version="1.1" viewBox="0 0 150 40">
  <!-- Generator: Adobe Illustrator 29.1.0, SVG Export Plug-In . SVG Version: 2.1.0 Build 142)  -->
  <defs>
    <style>
      .st0 {
        fill: #ffbc58;
      }

      .st1 {
        fill: #216f9b;
      }

      .st2 {
        fill: #ff6442;
      }
    </style>
  </defs>
  <rect class="st0" x="-15" y="15" width="40" height="10" transform="translate(25 15) rotate(90)"/>
  <rect class="st2" x="-5" y="15" width="40" height="10" transform="translate(35 5) rotate(90)"/>
  <rect class="st0" x="5" y="15" width="40" height="10" transform="translate(45 -5) rotate(90)"/>
  <rect class="st1" x="15" y="15" width="40" height="10" transform="translate(55 -15) rotate(90)"/>
  <rect class="st0" x="25" y="15" width="40" height="10" transform="translate(65 -25) rotate(90)"/>
  <rect class="st2" x="35" y="15" width="40" height="10" transform="translate(75 -35) rotate(90)"/>
  <rect class="st0" x="45" y="15" width="40" height="10" transform="translate(85 -45) rotate(90)"/>
  <rect class="st1" x="55" y="15" width="40" height="10" transform="translate(95 -55) rotate(90)"/>
  <rect class="st0" x="65" y="15" width="40" height="10" transform="translate(105 -65) rotate(90)"/>
  <rect class="st2" x="75" y="15" width="40" height="10" transform="translate(115 -75) rotate(90)"/>
  <rect class="st0" x="85" y="15" width="40" height="10" transform="translate(125 -85) rotate(90)"/>
  <rect class="st1" x="95" y="15" width="40" height="10" transform="translate(135 -95) rotate(90)"/>
  <rect class="st0" x="105" y="15" width="40" height="10" transform="translate(145 -105) rotate(90)"/>
  <rect class="st2" x="115" y="15" width="40" height="10" transform="translate(155 -115) rotate(90)"/>
  <rect class="st0" x="125" y="15" width="40" height="10" transform="translate(165 -125) rotate(90)"/>
</svg>