<?xml version="1.0" encoding="UTF-8"?><svg id="a" xmlns="http://www.w3.org/2000/svg" viewBox="0 0 40 150"><defs><style>.b{fill:#ffbc58;}.c{fill:#ff6442;}.d{fill:#216f9b;}</style></defs><rect class="b" x="15" y="125" width="10" height="40" transform="translate(-125 165) rotate(-90)"/><rect class="c" x="15" y="115" width="10" height="40" transform="translate(-115 155) rotate(-90)"/><rect class="b" x="15" y="105" width="10" height="40" transform="translate(-105 145) rotate(-90)"/><rect class="d" x="15" y="95" width="10" height="40" transform="translate(-95 135) rotate(-90)"/><rect class="b" x="15" y="85" width="10" height="40" transform="translate(-85 125) rotate(-90)"/><rect class="c" x="15" y="75" width="10" height="40" transform="translate(-75 115) rotate(-90)"/><rect class="b" x="15" y="65" width="10" height="40" transform="translate(-65 105) rotate(-90)"/><rect class="d" x="15" y="55" width="10" height="40" transform="translate(-55 95) rotate(-90)"/><rect class="b" x="15" y="45" width="10" height="40" transform="translate(-45 85) rotate(-90)"/><rect class="c" x="15" y="35" width="10" height="40" transform="translate(-35 75) rotate(-90)"/><rect class="b" x="15" y="25" width="10" height="40" transform="translate(-25 65) rotate(-90)"/><rect class="d" x="15" y="15" width="10" height="40" transform="translate(-15 55) rotate(-90)"/><rect class="b" x="15" y="5" width="10" height="40" transform="translate(-5 45) rotate(-90)"/><rect class="c" x="15" y="-5" width="10" height="40" transform="translate(5 35) rotate(-90)"/><rect class="b" x="15" y="-15" width="10" height="40" transform="translate(15 25) rotate(-90)"/></svg>