<svg id="레이어_5" data-name="레이어 5" xmlns="http://www.w3.org/2000/svg" viewBox="0 0 4416.33 4416.33"><defs><style>.cls-1{fill:#fff;}.cls-2{fill:#ffbc58;}.cls-3{fill:#ff6442;}.cls-4{fill:#216f9b;}.cls-5{isolation:isolate;}</style></defs><circle class="cls-1" cx="2208.16" cy="2208.16" r="2208.16"/><path class="cls-2" d="M2897.18,2588.38q22.46,57.6,40.8,116.36l48.31-48.31Q2942.09,2625.44,2897.18,2588.38Z"/><path class="cls-2" d="M3280.26,2665.48c25.55,3.24,34.1-1.73,34.91-2.26.64-1,2.22-5.37,2.22-14.11,0-27.29-13.68-73-28.17-121.29-23.14-77.2-51.94-173.29-56.33-283.11q-1.18-29.72.15-59l-261.32,308.54c69.78,57.76,138.78,104.11,201.42,134.8C3225.21,2654.53,3260.13,2662.93,3280.26,2665.48Z"/><path class="cls-2" d="M837.67,950.67l113-113Q891.78,891.71,837.67,950.67Z"/><path class="cls-2" d="M3510,879.68l26.67,26.67Q3523.44,892.88,3510,879.68Z"/><path class="cls-2" d="M3578.74,3465.57l-113.28,113.28Q3524.5,3524.67,3578.74,3465.57Z"/><path class="cls-2" d="M577.11,1561.63,1728,410.74c-294.14,78.38-559.59,227-777.3,426.91l-113,113A1858.67,1858.67,0,0,0,443.42,1619Q509.32,1587.47,577.11,1561.63Z"/><path class="cls-3" d="M1728,410.74,577.11,1561.63a1800.23,1800.23,0,0,1,459.34-109L2139.71,349.42A1859.24,1859.24,0,0,0,1728,410.74Z"/><path class="cls-2" d="M2208.16,348.16h0q-34.38,0-68.45,1.26L1036.45,1452.68a1811.67,1811.67,0,0,1,351.91-1.51L2472.69,366.84A1876.14,1876.14,0,0,0,2208.16,348.16Z"/><path class="cls-4" d="M2472.69,366.84,1388.36,1451.17a1805,1805,0,0,1,297.29,53.11L2758.88,431.05A1848,1848,0,0,0,2472.69,366.84Z"/><path class="cls-2" d="M2758.88,431.05,1685.65,1504.28a1792.86,1792.86,0,0,1,194.23,63.85l13.83-12.52,543.22-460.08h0q17.61-15,36.2-28.35L3010.63,529.7A1848.11,1848.11,0,0,0,2758.88,431.05Z"/><path class="cls-3" d="M3010.63,529.7l-537.49,537.49c128.24-92.06,289.22-123.72,447.06-96.66l314-314A1858.26,1858.26,0,0,0,3010.63,529.7Z"/><path class="cls-2" d="M3234.2,656.53l-314,314c87.07,14.92,173.18,47.71,252.31,98.08l260.37-260.36A1865.84,1865.84,0,0,0,3234.2,656.53Z"/><path class="cls-4" d="M3295.76,1167.64a724.66,724.66,0,0,0-123.25-99L805.42,3435.71l175.2,175.2L3355.85,1235.67A733.69,733.69,0,0,0,3295.76,1167.64Z"/><path class="cls-4" d="M3172.51,1068.61a724.66,724.66,0,0,1,123.25,99,733.69,733.69,0,0,1,60.09,68l252.23-252.22q-34.64-39.56-71.44-77.1L3510,879.68q-37.53-36.78-77.09-71.43Z"/><path class="cls-2" d="M3608.08,983.45l-252.23,252.22c55.43,71.25,95.26,150,119.24,231.17l284.71-284.72A1868.06,1868.06,0,0,0,3608.08,983.45Z"/><path class="cls-3" d="M3759.8,1182.12l-284.71,284.72c33.88,114.69,36.12,234.23,6,344.34l405.48-405.48A1857,1857,0,0,0,3759.8,1182.12Z"/><path class="cls-2" d="M3886.62,1405.7l-405.48,405.48a562.34,562.34,0,0,1-58.48,138.6c-51.1,91.94-74,187-69.87,290.14.63,15.77,1.87,31.24,3.58,46.43l628.91-628.91A1846.72,1846.72,0,0,0,3886.62,1405.7Z"/><path class="cls-4" d="M3218.21,2774.91l207.1-207.1c-5.82-23.32-13.24-48.08-21.14-74.44-18.6-62-39.24-131-47.8-207l-370.08,370.08c38.06,26.67,75.6,49.86,112.08,69.15C3141.34,2748.29,3181.54,2764.83,3218.21,2774.91Z"/><path class="cls-4" d="M3098.37,2725.58c-36.48-19.29-74-42.48-112.08-69.15L2938,2704.74a1800.84,1800.84,0,0,1,64.38,286l215.85-215.85C3181.54,2764.83,3141.34,2748.29,3098.37,2725.58Z"/><path class="cls-4" d="M3425.31,2567.81l624.18-624.18a1850.6,1850.6,0,0,0-64.21-286.19l-628.91,628.91c8.56,76.05,29.2,145,47.8,207C3412.07,2519.73,3419.49,2544.49,3425.31,2567.81Z"/><path class="cls-2" d="M3236.64,2779.51q31.65,7,59.22,7c23.64,0,44.94-3.88,63.67-11.64,49.48-20.5,77.86-66.34,77.86-125.78,0-25-4.77-52-12.08-81.3l-207.1,207.1C3224.46,2776.62,3230.61,2778.17,3236.64,2779.51Z"/><path class="cls-2" d="M4068.16,2208.16h0a1876.25,1876.25,0,0,0-18.67-264.53l-624.18,624.18c7.31,29.3,12.08,56.3,12.08,81.3,0,59.44-28.38,105.28-77.86,125.78-18.73,7.76-40,11.64-63.67,11.64q-27.54,0-59.22-7c-6-1.34-12.18-2.89-18.43-4.6l-215.85,215.85a1810.81,1810.81,0,0,1,15.84,334.56L4066.91,2276.61Q4068.14,2242.53,4068.16,2208.16Z"/><path class="cls-3" d="M3018.2,3325.32a1804.88,1804.88,0,0,1-69.06,419.46L4005.58,2688.33a1858.66,1858.66,0,0,0,61.33-411.72Z"/><path class="cls-2" d="M4005.58,2688.33,2949.14,3744.78a1793.21,1793.21,0,0,1-70.37,198.82,1860.32,1860.32,0,0,0,586.69-364.75l113.28-113.28C3778.57,3247.88,3927.21,2982.44,4005.58,2688.33Z"/><path d="M2897.18,2588.38c68.41,56.48,136.45,103,201.19,137.2,50.28,26.58,96.8,44.73,138.27,53.93q31.65,7,59.22,7c23.64,0,44.94-3.88,63.67-11.64,49.48-20.5,77.86-66.34,77.86-125.78,0-44.89-15.39-96.26-33.22-155.74-22.31-74.42-47.59-158.78-51.38-253.45-4.12-103.14,18.77-198.2,69.87-290.14,139.63-235.87,94.27-561-126.9-782.14-246.31-246.31-621.52-274.57-858.82-72.1h0l-543.22,460.08-13.83,12.52c-462.52-181.9-985.14-164.94-1436.46,50.85-61.79,185.15-95.26,383.25-95.26,589.18h0c0,1027.25,832.75,1860,1860,1860h0c236.44,0,462.56-44.11,670.61-124.56C3060.81,3512,3067,3023.8,2897.18,2588.38ZM3233,2185.67q-1.34,29.29-.15,59c4.39,109.82,33.19,205.91,56.33,283.11,14.49,48.34,28.17,94,28.17,121.29,0,8.74-1.58,13.1-2.22,14.11-.81.53-9.36,5.5-34.91,2.26-20.13-2.55-55.05-10.95-107.12-36.47-62.64-30.69-131.64-77-201.42-134.8Z"/><path class="cls-2" d="M1939.06,2233.35a83,83,0,0,1-57-143.38l302.56-285.36a83,83,0,0,1,113.9,120.76L1996,2210.73A82.71,82.71,0,0,1,1939.06,2233.35Z"/><path class="cls-2" d="M1865.35,1988.22a67.5,67.5,0,0,1-45.13-117.72l327.36-294a67.5,67.5,0,1,1,90.22,100.43l-327.37,294A67.25,67.25,0,0,1,1865.35,1988.22Z"/><path class="cls-2" d="M1884.92,1725.88a51.5,51.5,0,0,1-33.69-90.47L2199.07,1335a51.5,51.5,0,0,1,67.32,78l-347.84,300.39A51.31,51.31,0,0,1,1884.92,1725.88Z"/><g class="cls-5"><path class="cls-2" d="M3365,1505.74a113.54,113.54,0,0,1,13.68,19.5l76.19,138.19c19.59,35.52,11,68.48-19.2,73.63-24.28,4.13-55.13-11-76.46-35.53a113,113,0,0,1-13.68-19.48l-76.18-138.2c-19.58-35.51-11-68.48,19.21-73.62C3312.79,1466.1,3343.62,1481.2,3365,1505.74Z"/><path class="cls-2" d="M3252.77,1584.5c14.19,16.31,23.5,35.9,24.16,54l6.81,186.88c1.2,33.09-27,48.63-62.93,34.72-16.31-6.31-31.41-17.59-43.16-31.11-14.19-16.31-23.49-35.9-24.15-54l-6.82-186.9c-1.21-33.08,27-48.62,62.94-34.71C3225.92,1559.7,3241,1571,3252.77,1584.5Z"/></g><path class="cls-2" d="M3075.52,1527.5c22.89,26.34,31,59.1,17.76,78.7l-103.39,153c-15.5,22.94-54.4,19.18-86.87-8.42a120.87,120.87,0,0,1-13-12.81c-22.89-26.34-31-59.1-17.76-78.71l103.38-153c15.51-22.94,54.4-19.18,86.88,8.43A120.87,120.87,0,0,1,3075.52,1527.5Z"/><path class="cls-2" d="M2936.83,1368a114.7,114.7,0,0,1,10.65,14.33c22,35,16.67,69.84-11.83,77.86l-188.57,53c-24.38,6.85-57.82-8.14-80.74-34.51a115,115,0,0,1-10.65-14.33c-22-35-16.68-69.84,11.82-77.85l188.58-53C2880.46,1326.59,2913.91,1341.59,2936.83,1368Z"/><path class="cls-2" d="M3410.86,1371.31c16.86,19.39,26.53,43.12,23.75,62.89-4.32,30.56-36.77,40.1-72.5,21.29l-64.62-34a116.22,116.22,0,0,1-33.16-26.51c-16.85-19.38-26.52-43.12-23.74-62.89,4.3-30.57,36.76-40.1,72.49-21.29l64.63,34A116.21,116.21,0,0,1,3410.86,1371.31Z"/><path class="cls-2" d="M2918.19,1199.6c11.75,13.52,20.27,29.42,23.14,45.16,6.31,34.72-17.28,55.54-52.71,46.48l-200.13-51.18c-19.38-5-38.27-17.81-52.46-34.13-11.75-13.52-20.27-29.42-23.14-45.16-6.31-34.72,17.28-55.53,52.71-46.48l200.13,51.18C2885.11,1170.43,2904,1183.28,2918.19,1199.6Z"/><path class="cls-2" d="M3186.63,1113.35c9.19,10.58,16.48,22.72,20.6,35.33l21.09,64.59c11.66,35.7-6.48,61.7-40.53,58-22-2.35-45.3-16.53-62.15-35.92-9.2-10.58-16.49-22.72-20.6-35.33l-21.1-64.58c-11.66-35.71,6.48-61.7,40.53-58.06C3146.5,1079.79,3169.77,1094,3186.63,1113.35Z"/><path class="cls-2" d="M3030.37,1120.84c21.33,24.54,30.18,55.08,19.84,75.25-12.86,25.08-50.53,24.6-84.14-1.07l-130.77-99.88a120.07,120.07,0,0,1-17.72-16.64c-21.34-24.54-30.19-55.09-19.85-75.26,12.86-25.08,50.53-24.6,84.14,1.08l130.76,99.88A120.26,120.26,0,0,1,3030.37,1120.84Z"/></svg>