<svg id="백" xmlns="http://www.w3.org/2000/svg" viewBox="0 0 1706.28 160.48"><defs><style>.cls-1{fill:#f51726;}.cls-2{fill:#830003;}.cls-3{fill:#a7000d;}.cls-4{fill:none;stroke:#f66e6f;stroke-linecap:round;stroke-miterlimit:10;stroke-width:10.96px;}</style></defs><path class="cls-1" d="M95.06,152c-6.28,0-12.07-.19-17.72-.56-5.33-.18-10.84-.36-16.44-.36-6.35,0-13.17.2-18.67.36-6.38.37-12.64.56-19.15.56-11.43,0-17.6-7.84-17.6-15.21s4.19-9.93,6.7-11.37,5.77-3.32,6.34-19.13l2-52.89c.5-12.72-2.37-13.85-5.7-15.16-3.14-1.24-9-3.54-9-12.36,0-9.87,9.5-15.76,18.69-15.76,4.64,0,9.3.17,13.81.33,2.24.08,4.48.16,6.73.22h.14c6.65.36,13.46.72,20.09.72,4.16,0,8.13-.34,12.34-.71h.27c1.36-.06,2.73-.14,4.1-.22,3-.17,6-.34,9-.34,43.07,0,47.72,24.89,47.72,35.59s-4.61,20.91-12,26.95a.39.39,0,0,1-.1.08c8.51,3.67,23.15,14.66,23.15,32.83a44.48,44.48,0,0,1-12.3,31.17C127.77,146.75,113.12,152,95.06,152ZM77,121.52a14.22,14.22,0,0,0,1.93.09c4.5,0,8.66-1.36,8.66-11.24,0-13.74-5.14-15.63-10.68-15.63a5.59,5.59,0,0,0-1.51.15,6.25,6.25,0,0,0-.17,1.3v9C75.2,117.81,76.52,120.85,77,121.52Zm-1.66-81.3a27.27,27.27,0,0,0-.13,3.84c0,.5,0,1,0,1.5V61.68c0,1.32,0,2.87.07,3.92,4.49,0,7.89-1.09,7.89-12.33S78.53,40.2,75.77,40.2Z"/><path class="cls-2" d="M91,15.63c33.61,0,42.24,16,42.24,30.11,0,8.45-3.49,17.44-10.1,22.77-1.65,1.47-3.31,2.57-3.31,5s2,3.12,3.86,4c7.53,2.93,20.56,12.67,20.56,28.09,0,18.36-12.3,41-49.2,41-6.25,0-11.94-.19-17.45-.55-5.51-.19-11-.37-16.71-.37-6.24,0-12.67.18-18.91.37-6.25.36-12.49.55-18.91.55-5.7,0-12.12-3.31-12.12-9.73,0-11.39,11.93.18,13-30.3l2-52.88c1.11-27.73-14.68-15.06-14.68-27.73,0-7,7.52-10.28,13.21-10.28,6.8,0,13.59.36,20.39.55,6.79.36,13.59.73,20.38.73,4.41,0,8.63-.37,12.85-.73,4.23-.19,8.63-.55,12.85-.55M75,71.08c11,0,13.59-7.71,13.59-17.81,0-8.26-2.76-18.55-12.86-18.55-6.79,0-6,5.51-6,10.84V60.43c0,7.16-.37,10.65,5.32,10.65m3.86,56c10.46,0,14.14-7.16,14.14-16.71,0-11.2-3.31-21.11-16.16-21.11-5.7,0-7,2.94-7.16,6.79v9.18c0,21.3,3.48,21.85,9.18,21.85M91,4.67c-3.15,0-6.27.18-9.29.35l-4,.21h-.23l-.23,0c-4.13.36-8,.7-11.91.7-6.48,0-12.91-.35-19.73-.72h-.36C43,5.17,40.76,5.08,38.54,5c-4.56-.16-9.27-.33-14-.33C12.66,4.67.37,12.61.37,25.91.37,38.46,9.42,42,12.83,43.36c.46.18,1.05.42,1.39.58.27.62,1.09,3,.84,9.26l-2,52.9c-.33,9-1.65,12.4-2.21,13.45-.26.49-.26.49-1.39,1.15C6.62,122.32,0,126.13,0,136.82c0,13,11.73,20.68,23.08,20.68,6.59,0,12.93-.18,19.39-.56,5.44-.16,12.17-.35,18.43-.35,5.49,0,10.92.18,16.17.35,5.74.38,11.62.56,18,.56,41.56,0,60.16-26.06,60.16-51.9,0-15.19-9.19-27.33-19.67-34.21a42.2,42.2,0,0,0,8.65-25.65c0-11.45-4.19-21.3-12.11-28.48C122.87,8.91,109.05,4.67,91,4.67ZM80.69,96.18Zm.45,19.53a92.24,92.24,0,0,1-.47-10.48v-3.48c.53,1,1.41,3.48,1.41,8.62,0,3.38-.66,4.94-.94,5.34Z"/><path class="cls-1" d="M241.19,153.68a38.19,38.19,0,0,1-7.67-.92c-.78-.15-1.57-.3-2.42-.44l-.22,0a58.17,58.17,0,0,0-12.65-1.16H155.44c-3.48,0-7.49-.12-11.06-1.5a12.2,12.2,0,0,1-8.19-12.06c0-8.48,5.82-10.9,8.95-12.2,3.43-1.42,5.7-2.36,5.92-11.08.37-13.34.37-24.78.37-35.85,0-6.84-.37-13.53-.73-20-.21-3.73-.42-7.59-.56-11.39-.1-4.47-1.37-4.83-5.58-6-3.82-1.08-10.94-3.1-10.94-12s7.51-19.62,43.3-19.62c32.93,0,44,4.54,44,18,0,8.47-6.18,10.8-9.5,12.06-3.54,1.34-5,1.89-5,7.77V105.6c0,12.86,1.85,14.17,9.76,14.17,15.4,0,17.59-6.56,19.9-13.51,1.6-4.79,4-12,12.42-12,8.12,0,16.86,6.65,16.86,21.27C265.39,130.59,254.55,153.68,241.19,153.68Z"/><path class="cls-2" d="M176.92,14.89c36.72,0,38.56,6.25,38.56,12.49C215.48,38,201,30,201,47.21V105.6c0,13.22,2.21,19.65,15.24,19.65,31.22,0,20.57-25.53,32.32-25.53,8.26,0,11.38,8.82,11.38,15.8,0,14.32-10.28,32.68-18.72,32.68-3.31,0-5.88-.73-9.18-1.29a63.82,63.82,0,0,0-13.78-1.28h-62.8c-5.84,0-13.76-.31-13.76-8.08,0-11.38,14.32-1.84,14.87-23.14.37-13.4.37-25.15.37-36,0-11-.92-21.3-1.29-31.58-.37-15.42-16.53-7.34-16.53-17.81,0-13.4,28.83-14.14,37.83-14.14m0-11a116.83,116.83,0,0,0-24.67,2.3c-21,4.68-24.11,16.29-24.11,22.79a16.38,16.38,0,0,0,6.52,13.53,24.31,24.31,0,0,0,8.41,3.72l1.58.47c0,.11,0,.22,0,.35v.13c.14,3.86.35,7.74.56,11.5.35,6.39.72,13,.72,19.69,0,11,0,22.44-.36,35.69-.1,3.67-.69,5.08-.86,5.43-.34.19-1.11.51-1.69.75-3.37,1.4-12.33,5.12-12.33,17.26a17.8,17.8,0,0,0,11.69,17.17c4.45,1.72,9.06,1.87,13,1.87h62.8a52.47,52.47,0,0,1,11.52,1l.22,0,.23,0c.8.13,1.54.28,2.27.42a43.08,43.08,0,0,0,8.72,1c17.22,0,29.68-26.07,29.68-43.64,0-15.5-9.39-26.75-22.34-26.75a16.29,16.29,0,0,0-13.66,7,32.28,32.28,0,0,0-4,8.71c-1,2.93-1.81,5.45-3.39,7-2.43,2.31-7.49,2.8-11.31,2.8a14.22,14.22,0,0,1-3.54-.34c-.28-.81-.74-3-.74-8.35V47.21a11.56,11.56,0,0,1,.16-2.14l1.31-.51c3.57-1.35,13-4.92,13-17.18,0-8.65-4-14.88-11.86-18.53-7.34-3.4-19-4.91-37.66-4.91Z"/><path class="cls-1" d="M329.52,153.68c-42.38,0-74.33-31.33-74.33-72.87,0-20.21,7.91-38.63,22.28-51.86C291.54,16,310.81,8.86,331.73,8.86c30.3,0,48.47,14.87,58.36,27.35,12.72,16,17.26,34.5,17.26,46.44a67.16,67.16,0,0,1-24.05,51.74C369,146.65,349.36,153.68,329.52,153.68Zm-6.24-106.5c-4.13,0-9.95,4.4-9.95,14.17,0,7.18,2.66,21.37,7.59,33.54,5.27,13,11.75,20.47,17.78,20.47,9.74,0,10.5-10.84,10.5-14.17,0-8-2.49-22.18-7.24-34C338.93,59.74,332.48,47.18,323.28,47.18Z"/><path class="cls-2" d="M331.73,14.34c50.68,0,70.14,44.62,70.14,68.31,0,39.48-34.89,65.55-72.35,65.55-38.74,0-68.85-28.28-68.85-67.39,0-38.93,31-66.47,71.06-66.47m7,106.5c11.21,0,16-9.73,16-19.65,0-16.71-9.92-59.49-31.4-59.49-10.28,0-15.43,10.65-15.43,19.65,0,15.61,11,59.49,30.85,59.49m-7-117.45c-22.3,0-42.89,7.64-58,21.53-15.51,14.28-24,34.13-24,55.89S258,122.56,273,137.05c14.75,14.26,34.84,22.11,56.57,22.11,21.43,0,41.79-7.32,57.34-20.6a72.59,72.59,0,0,0,26-55.91c0-12.86-4.84-32.71-18.44-49.85C383.74,19.38,364.22,3.39,331.73,3.39Zm7,106.49c-2.33,0-7.64-4.54-12.7-17-5-12.23-7.19-25.78-7.19-31.48,0-3.55,1.74-8.69,4.47-8.69,4.24,0,9.45,6.37,13.6,16.63,4.49,11.12,6.84,24.47,6.84,31.9a13.12,13.12,0,0,1-1.78,7.22c-.65.94-1.4,1.47-3.24,1.47Z"/><path class="cls-1" d="M633.65,152c-7.93,0-14.62-.19-20.46-.56l-1.75-.06c-5-.16-9.29-.3-13.78-.3-4.83,0-9.79.16-15.31.36-5.28.37-10.49.56-15.9.56-12.88,0-19.62-8-19.62-15.95,0-9.61,6.36-11.4,9.42-12.26,2.89-.82,5.4-1.52,5.64-13.19l1.47-63.73c.13-6.85-1.4-7.51-4.44-8.81s-9-3.85-9-12.73c0-4.57,2.2-15.21,22.56-15.21h59.85c25.23,0,44.45,7.33,57.14,21.79,10.53,12,16.1,28.7,16.1,48.32C705.6,113.37,686.76,152,633.65,152Zm-15-110.69a25.92,25.92,0,0,0-.26,4.4v68.49c0,3.76.29,6.06.87,6.83.07.09.81.91,5,.91C646,122,646,94.45,646,85.4c0-39.25-13.26-44.28-24.81-44.28A10.75,10.75,0,0,0,618.64,41.34Z"/><path class="cls-2" d="M632.36,15.63c51,0,67.76,31.58,67.76,64.63,0,34.15-20,66.29-66.47,66.29-7.89,0-14.5-.19-20.2-.55-5.69-.19-10.65-.37-15.79-.37s-10.46.18-15.61.37c-5.14.36-10.28.55-15.6.55-6.25,0-14.14-3.12-14.14-10.47,0-13.22,14.5,1.47,15.05-25.34L568.83,47c.37-18.92-13.4-9.74-13.4-21.67,0-8.45,10.65-9.73,17.08-9.73h59.85m-8.07,111.82c23.13,0,27.17-23.69,27.17-42,0-43-16.16-49.76-30.29-49.76-7.72,0-8.27,3.12-8.27,10.1v68.49c0,9.37,1.47,13.22,11.39,13.22M632.36,4.67H572.51a40.86,40.86,0,0,0-15,2.47c-8.28,3.3-13,9.94-13,18.22,0,12.49,8.93,16.32,12.3,17.76l.89.4a14.86,14.86,0,0,1,.22,3.29l-1.47,63.68c-.1,4.7-.69,7-1,7.87-.21.07-.44.13-.64.18-3.32.94-13.41,3.78-13.41,17.54,0,12.21,10.79,21.42,25.1,21.42,5.51,0,10.81-.18,16.19-.56,5.42-.19,10.3-.35,15-.35,4.41,0,8.68.14,13.63.3l1.63.05c5.94.38,12.72.56,20.73.56,24.69,0,45.06-8.32,58.89-24.06,12-13.6,18.54-32.49,18.54-53.18,0-21-6-38.93-17.46-51.94C679.84,12.63,659.23,4.67,632.36,4.67ZM623.9,116.49c0-.59,0-1.33,0-2.26V46.72c4.15.41,7,1.87,9.29,4.64,3.36,4.09,7.36,13.31,7.36,34,0,10-1.3,17.83-3.86,23.21-2.66,5.6-6.24,7.88-12.36,7.88Z"/><path class="cls-1" d="M760.48,153.13c-14.05,0-18.25-9-22.31-17.65L701.5,54.42C696.27,43.1,695.71,43,691.34,42.34c-6.16-.92-10.16-5.86-10.16-12.57,0-9.29,7.64-20.36,44-20.36,27.79,0,35.64,4.72,39.13,8.27a11.78,11.78,0,0,1,3.45,8.94v.21c0,6.62-4.55,9.85-7.28,11.78-.43.3-1,.72-1.41,1,.85,3.45,5.44,13.2,8.27,19.19l2.62,5.6c.42.82.82,1.74,1.24,2.7a29.67,29.67,0,0,0,2.22,4.44c1.47-1.27,3.52-5.7,4.24-7.26.56-1.22,1.09-2.37,1.64-3.35l.41-.83c8-15.83,9.37-20.49,9.58-21.84-.38-.28-1.12-.68-1.63-1C785,35.86,780,33.11,780,26.09,780,9.41,806.49,9.41,815.2,9.41h.73c15.71,0,32.47,1.25,32.47,16.13,0,7.12-5,12.35-12.88,13.33l-1.09.13c-3.18.36-3.74.49-4.28,1-1.36,1.27-3.3,4.91-6,10.38L782.83,134.1l-.69,1.36C778.36,142.92,773.18,153.13,760.48,153.13Z"/><path class="cls-2" d="M815.2,14.89h.73c23.14,0,27,4.23,27,10.65,0,5-3.67,7.35-8.08,7.9-7.89.92-8.63.37-15.61,14.5l-41.31,83.73c-3.85,7.53-7.53,16-17.44,16-10.65,0-13.41-6.06-17.45-14.69L706.49,52.17C701,40.23,699.33,38,692.17,36.93c-3.67-.55-5.51-3.31-5.51-7.16,0-14.14,29.2-14.88,38.56-14.88,38.56,0,37.09,9.18,37.09,11.94,0,7-8.81,7.34-8.81,12.3,0,3.86,7.16,18.18,11.57,27.73,1.65,3.12,3.67,10.28,7.71,10.46h.31c5.86,0,8.91-10,11.07-13.78,2.21-4.41,10.66-20.93,10.66-25.34,0-6.61-9.37-4.77-9.37-12.12,0-11,21.72-11.2,29.75-11.2m0-11c-3.73,0-12.46,0-20.25,1.72a32.85,32.85,0,0,0-12.41,5.16,18.55,18.55,0,0,0-8,15.27c0,8.14,4.82,12.46,8.26,14.7-1.17,2.93-3.45,8-7.9,16.89l-.37.73c-.23.42-.45.84-.66,1.28-.48-1-1-2.09-1.5-3.17-1.89-4-5-10.57-6.71-14.86a22.81,22.81,0,0,0,3.55-3.41,17.71,17.71,0,0,0,4.11-11.42v-.12a17.1,17.1,0,0,0-5-12.87c-4.54-4.61-13.53-9.9-43-9.9A114.77,114.77,0,0,0,700,6.35c-21.11,4.86-24.26,16.76-24.26,23.42,0,9.43,6,16.66,14.84,18,.78.12,1.23.23,1.47.29,1.16,1.43,3.55,6.61,4.51,8.67l36.52,80.76,0,.06,0,.07.09.2c2.31,4.93,4.49,9.58,8.33,13.48,4.85,4.92,11.05,7.32,19,7.32,16.07,0,22.63-12.94,26.55-20.67l.64-1.27,0-.08,0-.07,41.31-83.73c.81-1.64,3.06-6.2,4.36-8.16l1.62-.19,1.07-.12h.1c10.57-1.32,17.67-8.87,17.67-18.77,0-10.16-6-15.18-11-17.6-5.74-2.77-14.05-4-26.93-4h-.73Z"/><path class="cls-1" d="M958.93,153.13a40.68,40.68,0,0,1-5.48-.65l-3.24-.49-1.23-.11c-3.67-.35-8.24-.77-13.55-.77H860c-6.64,0-17.78-1.74-17.78-13.38,0-7.78,5.27-10.19,8.1-11.49,3-1.37,5.16-2.37,5.69-10.35l.55-8.24c1.65-24.56,1.65-24.56,0-54.45-.59-12.91-3.49-13.84-6.31-14.75-3.12-1-8.94-2.88-8.94-12.17,0-9.93,7.33-15,21.77-15,1.37,0,2.7,0,3.94.07,1,0,1.9,0,2.73,0h52.88c17.46,0,23.71-1.91,26.71-2.83a14.35,14.35,0,0,1,4.32-.84C968,7.76,974,28.31,974,39.31c0,11.19-6,18.7-15,18.7-8.76,0-11.8-5-14-8.63-2.57-4.22-5.48-9-23.62-9-6.91,0-10.92.51-11.91,1.51s-1.06,6.66-1,12.53c0,1.63,0,3.38,0,5.28a52.63,52.63,0,0,0,.18,5.33,58.19,58.19,0,0,0,6.09.2c2.06,0,2.37,0,3.23-5.77.76-5.11,2.16-14.61,13.3-14.61,14.67,0,16.86,20.92,16.86,33.39a80.21,80.21,0,0,1-2.2,19c-1.93,7.32-6.2,16-15.58,16-9.66,0-11-8.43-11.7-12.49-.85-5.21-1.1-6.79-6.85-6.79a2.89,2.89,0,0,0-1.29.2c-.76.74-.76,5-.76,6.77v.41c0,6.12,0,16.37,1.69,18.87.74,1.09,4.81,1.18,9.28,1.18h4.67c19.7,0,23.38-7.24,26.94-14.25,2.5-4.91,5.92-11.64,15.11-11.64,9,0,14.29,8.76,14.29,17.23,0,6.77-2.45,16.15-6.4,24.48C971.83,144.48,966.2,153.13,958.93,153.13Z"/><path class="cls-2" d="M953.61,13.24c10.47,0,14.87,18,14.87,26.07,0,6.06-2.38,13.22-9.55,13.22-14.5,0-2.75-17.62-37.64-17.62-20.38,0-18.36,3.67-18.36,24.79,0,10.65.55,11,11.75,11,14,0,3.49-20.38,16.53-20.38,10.65,0,11.38,20.75,11.38,27.91,0,7.53-1.28,29.56-12.3,29.56-11.38,0,0-19.28-18.55-19.28-7.71,0-7.52,7-7.52,12.86,0,24.46,1.52,25.53,16.44,25.53h4.67c37.64,0,27-25.89,42-25.89,5.88,0,8.81,6.61,8.81,11.75,0,12.49-9.91,34.89-17.26,34.89-1.28,0-4.22-.55-8.07-1.1-4-.37-9.19-.92-15.43-.92H860c-12.11,0-12.3-5.51-12.3-7.9,0-10.1,12.49-2,13.77-21.48,2.21-33.42,2.39-30.11.55-63.35-1.28-28.09-15.24-13.59-15.24-26.62,0-8.44,8.75-9.48,16.29-9.48,2.47,0,4.81.11,6.67.11h52.88c24.6,0,28.09-3.67,31-3.67m0-11a19.13,19.13,0,0,0-5.93,1.09c-2.74.84-8.46,2.59-25.1,2.59H869.7c-.73,0-1.64,0-2.6,0-1.22,0-2.61-.07-4.07-.07-4.39,0-10.09.28-15.21,2.43a18.81,18.81,0,0,0-12,18c0,13.29,9.58,16.37,12.74,17.39.28.09.64.2.91.3.36.74,1.31,3.23,1.6,9.43v.11c1.64,29.54,1.64,29.54,0,53.76-.17,2.49-.35,5.22-.55,8.26-.23,3.5-.86,4.74-1,5a14,14,0,0,1-1.5.74c-3.08,1.42-11.29,5.18-11.29,16.47A17.4,17.4,0,0,0,841.25,150c4.1,4.41,10.22,6.55,18.71,6.55h75.47c5.05,0,9.29.39,13,.74l1.1.1,3,.46a43.1,43.1,0,0,0,6.31.72c8.14,0,15.3-6.4,21.29-19,4.34-9.15,6.93-19.18,6.93-26.82,0-11.16-7.39-22.71-19.77-22.71a19.18,19.18,0,0,0-16.08,8.08,86.82,86.82,0,0,0,2.25-19.89,92,92,0,0,0-1.25-15.65,23.06,23.06,0,0,0,6.63.9c12.08,0,20.51-9.94,20.51-24.18A55.37,55.37,0,0,0,975,18.86C968.7,4.44,958.89,2.28,953.61,2.28ZM913.94,46.17c.72-.08,1.7-.17,3-.23a18.48,18.48,0,0,0-1.33,2,21,21,0,0,0-1.82,4.21c0-2.23,0-4.42.1-6Zm1.79,69.68a63.88,63.88,0,0,1-.46-6.42c.25.53.52,1.06.83,1.59a15.61,15.61,0,0,0,4.58,4.93h0c-1,0-3.27,0-4.93-.1Z"/><path class="cls-1" d="M1100.92,153.13c-5.58,0-10-3.17-13.14-5.93L1031,96.28c-3.64-3.38-5.63-4.68-6.71-5.15-.47,1.17-1.23,4-1.23,10.06,0,7,.38,12.19,1.14,15.48.85,3.64,2.26,4.39,4.8,5.75,2.93,1.57,7.83,4.19,7.83,11.82,0,7.06-4.29,18.89-33,18.89-28.58,0-32.84-11.6-32.84-18.52,0-7.87,5-10.86,8-12.65,2.65-1.57,4-2.36,4.52-5.82,1-6.11,1.59-16.14,1.59-26.88,0-12.89,0-26.21-2-39-1.17-7.32-3.89-8.66-7.34-10.35s-8.88-4.36-8.88-12.69c0-17.79,26.76-17.79,35.55-17.79h3c12.74,0,16,1.24,25.31,9.47L1074.19,57l.79.67a49.25,49.25,0,0,0,6,4.56,23.33,23.33,0,0,0,.35-4.55c0-9.6-.84-13.47-1.34-14.91s-1.24-1.83-3.59-3.08c-3.37-1.79-9-4.8-9-13.6,0-16.68,22.36-16.68,29.71-16.68h5.78c7.42,0,30,0,30,17.24,0,9.22-5.78,12-9.24,13.65-2.51,1.21-3.37,1.73-3.95,3.31-2.05,5.67-2.05,17-2.05,23.07v47.56c0,.55,0,1.18,0,1.87.07,8.94.2,25.57-7.24,33.08A13.08,13.08,0,0,1,1100.92,153.13Z"/><path class="cls-2" d="M1102.85,14.88c9.24,0,24.51.7,24.51,11.76,0,10.47-9.73,6.61-12.85,15.06-2.39,6.61-2.39,18-2.39,25v47.56c0,8.26,1.1,33.42-11.2,33.42-3.67,0-6.79-2.2-9.55-4.59L1034.63,92.2c-2.57-2.39-7.34-6.8-11.2-6.8-5.69,0-5.87,11.94-5.87,15.79,0,5.14.18,11.94,1.28,16.71,2.76,11.75,12.49,7.35,12.49,16.34,0,12.31-18.91,13.41-27.54,13.41-8.45,0-27.36-1.1-27.36-13,0-9.73,10.65-5.87,12.48-17.63,1.29-7.89,1.66-19.46,1.66-27.72,0-13.22,0-26.63-2-39.85-2.94-18.36-16.16-11.2-16.16-22.21,0-11.72,20-12.32,30.07-12.32h3c11.38,0,13.4.74,21.67,8.08l43.51,38.19c2.21,1.84,8.08,7.17,11.39,7.17,4.59,0,4.77-7.53,4.77-10.66,0-4.58-.18-12.48-1.65-16.7-2.57-7.72-12.3-5-12.3-14.88,0-10.74,15.66-11.2,24.23-11.2h5.79m0-11h-5.79c-5.69,0-12.34.24-18.41,2-15.14,4.43-16.78,15.57-16.78,20.15,0,12.09,8.36,16.54,11.93,18.44.36.19.8.42,1.14.62a35.88,35.88,0,0,1,.71,5.85l-41.29-36.24c-10.25-9.1-14.85-10.82-28.92-10.82h-3c-6.22,0-14.29.24-21.54,2.11a30.46,30.46,0,0,0-12.28,5.89,19.63,19.63,0,0,0-7.21,15.27c0,11.74,8.37,15.85,11.94,17.61,2.92,1.43,3.62,1.77,4.35,6.29,1.89,12.39,1.89,25.49,1.89,38.16,0,10.45-.57,20.16-1.51,26v.07a4.75,4.75,0,0,1-.21.88,16.51,16.51,0,0,1-1.69,1.08c-3.21,1.91-10.72,6.37-10.72,17.36A20.2,20.2,0,0,0,972,149.69a29.44,29.44,0,0,0,11.71,6.39,80.66,80.66,0,0,0,40.32-.06,29.45,29.45,0,0,0,11.77-6.59,20.62,20.62,0,0,0,6.46-15.19c0-10.91-7.52-14.93-10.72-16.65a11.73,11.73,0,0,1-1.64-1h0a4.24,4.24,0,0,1-.42-1.23c-.65-2.82-1-7.53-1-14l55.55,49.79.07.06.06.06c2.3,2,8.39,7.27,16.73,7.27a18.42,18.42,0,0,0,13.34-5.58c8.35-8.42,8.94-23.5,8.83-37,0-.68,0-1.29,0-1.83V66.67c0-5.17,0-15.76,1.58-20.79.36-.19.89-.45,1.31-.65,3.7-1.77,12.35-5.93,12.35-18.59,0-4.6-1.61-15.83-16.47-20.48-6.32-2-13.48-2.24-19-2.24Z"/><path class="cls-1" d="M1194.66,153.13c-4.42,0-16.18,0-26.27-1.95-9.74-1.87-21.34-6.4-21.34-17.3,0-9.49,7.31-11.84,11.24-13.1,2.56-.82,3.86-1.32,4.39-2.22.92-2.13,1.87-9.61,2.18-17.22l1.47-40.56c.3-7.81-.23-11.44-.64-13a38.71,38.71,0,0,0-4.54,5.76c-4.57,6.55-10.84,15.53-22.21,15.53-10.56,0-16.87-9.51-16.87-18.7,0-17.34,14.7-41.47,29.17-41.47a25.9,25.9,0,0,1,5.48.88l2.31.5a88.91,88.91,0,0,0,14.79,1.19H1219a58.29,58.29,0,0,0,13-1.13l.57-.16a25.43,25.43,0,0,1,8.26-1.28c10.83,0,27.52,16.94,27.52,39.45,0,12.59-7.7,20.72-19.62,20.72-12.27,0-17.55-9.51-21-15.79-1.09-2-3.11-5.6-4.06-5.88h-.23c-.2.29-.86,1.53-.77,5.38v56.89c0,8.56,2.47,9.48,6.55,11,3.87,1.44,10.35,3.85,10.35,13.24,0,17.06-23.14,19.25-43.3,19.25Z"/><path class="cls-2" d="M1240.84,14.34c7.17,0,22,14.14,22,34,0,9.18-4.78,15.24-14.14,15.24-16,0-15.79-21.67-25.16-21.67-7.16,0-6.42,9.92-6.42,11.39v56.37c0,21.85,16.89,11.38,16.89,24.24,0,5.69-3.49,13.77-37.82,13.77h-1.57c-11.11,0-42.14-.33-42.14-13.77,0-9.73,11.39-5.88,15.06-12.86,1.84-3.85,2.57-14.87,2.75-19.46L1171.8,61c.72-18.92-3-19.1-5.54-19.1h-.15c-8.26,0-12.3,21.67-27.17,21.67-7.17,0-11.39-6.61-11.39-13.22,0-15.61,13.22-36,23.69-36,1.28,0,3.3.55,6.79,1.29a94.39,94.39,0,0,0,15.79,1.28H1219a64.06,64.06,0,0,0,14.33-1.28,22,22,0,0,1,7.52-1.29m0-10.95a31,31,0,0,0-9.8,1.49l-.32.09A54,54,0,0,1,1219,6h-45.17A83.46,83.46,0,0,1,1160,4.85l-2.11-.46a30.24,30.24,0,0,0-6.67-1c-8.86,0-17.72,6.07-24.94,17.09-6.17,9.43-9.71,20.31-9.71,29.85,0,13.56,9.82,24.18,22.35,24.18,10.14,0,17-5.68,21.82-11.36l-1.38,38a100.48,100.48,0,0,1-1.41,14l-1.35.44c-4.12,1.32-15,4.84-15,18.32,0,4,1.32,11.6,10.18,17.12,4,2.49,9.1,4.31,15.6,5.56,9.4,1.81,19.53,2.05,27.31,2.05h1.57c17.41,0,29.14-1.92,36.91-6S1245,142,1245,133.88c0-7-3-11.31-5.53-13.66a23.9,23.9,0,0,0-8.39-4.72,18.06,18.06,0,0,1-2.32-1c-.15-.31-.66-1.61-.66-4.9V64.06c4.22,5.36,10.58,10.45,20.63,10.45,15,0,25.09-10.53,25.09-26.2,0-24.19-18.14-44.92-33-44.92Z"/><path class="cls-1" d="M1338.91,153.68c-25.3,0-44.2-6.59-56.18-19.57-10.15-11-15-26.53-13.6-43.72l0-.35V47.41c.21-3.35-1.2-4.64-4.41-7.25s-7.35-6-7.35-12.41v-.22a12.45,12.45,0,0,1,3.6-9.59c5.64-5.82,17.62-8.53,37.69-8.53,21.54,0,41.47,2.2,41.47,18.15,0,9.63-6,11.75-9.14,12.89-2.79,1-4.8,1.72-5.18,10.55V84.67c0,30.33,16.75,30.33,22.25,30.33,7.72,0,13.51-1.9,17.19-5.65,3.35-3.39,5.15-8.59,5.06-14.62V48.68c0-7.74-2.42-8.8-6.41-10.55-3.51-1.55-9.38-4.13-9.38-12.22,0-16.5,24.68-16.5,32.79-16.5h1.51c8.08,0,32.66,0,32.66,16.13,0,7.91-5.44,10.62-8.68,12.24s-5.1,2.54-5.1,8.51V95.87c0,4.75,0,19-8.82,32.38C1387.79,145.12,1367.6,153.68,1338.91,153.68Z"/><path class="cls-2" d="M1387.34,14.89h1.51c7,0,27.18,0,27.18,10.65,0,10.29-13.77,4-13.77,20.75V95.87c0,8.26.18,52.33-63.35,52.33-72.35,0-64.27-55.82-64.27-58V47.76c.73-11.57-11.75-11.57-11.75-20,0-2.58-2-12.86,35.8-12.86,29.93,0,36,5.51,36,12.67,0,13.22-13.4.92-14.32,23.32V84.67c0,21.85,8.26,35.8,27.73,35.8,29,0,27.72-24,27.72-26.07V48.68c0-19.65-15.79-12.12-15.79-22.77s18.8-11,27.32-11m0-11c-6,0-13,.22-19.47,1.82-17,4.17-18.8,15.49-18.8,20.16,0,11.67,8.87,15.57,12.66,17.23a14.24,14.24,0,0,1,2.51,1.27h0s.62,1,.62,4.27V94.81c.07,4.55-1.17,8.35-3.48,10.7-2.62,2.66-7.09,4-13.29,4-5.45,0-16.77,0-16.77-24.85V51.12a19.46,19.46,0,0,1,.77-5.23l.77-.28c3.5-1.24,12.78-4.56,12.78-18,0-8.57-4.75-15.35-13.38-19.08-7.18-3.1-17.85-4.54-33.57-4.54-22,0-34.79,3.14-41.63,10.18a17.84,17.84,0,0,0-5.13,13.58v.11c0,9,6.11,14,9.38,16.6a19,19,0,0,1,2.39,2.15,2.67,2.67,0,0,1,0,.51l0,.34V90c-1.51,18.73,3.83,35.73,15,47.86,13.06,14.16,33.32,21.34,60.21,21.34,16.21,0,30.12-2.71,41.33-8a56.2,56.2,0,0,0,23.25-19.84c9.72-14.76,9.72-30.24,9.72-35.33V46.29a9,9,0,0,1,.29-2.66c.38-.25,1.2-.66,1.77-1,3.51-1.74,11.71-5.84,11.71-17.14,0-4.69-1.9-16-19.52-20-7.11-1.59-14.88-1.59-18.61-1.59h-1.51Z"/><path class="cls-1" d="M1535.39,154.78c-33.43,0-38.29-20.69-43.91-44.65l-.17-.71c-2.45-10.26-5.29-12.39-9.62-12.48a48.38,48.38,0,0,0-.32,6.64,111.1,111.1,0,0,0,1.2,16.85c.26,1.48.75,1.89,3.1,3.29,2.92,1.75,7.82,4.68,7.82,12.36,0,14.2-15.23,17-39.81,17-4.46,0-13.73,0-21.93-1.81-15.24-3.35-18.44-11.13-18.44-17.08,0-6.75,4.34-9.42,7.2-11.19,3.38-2.08,6.57-4,6.57-15.61V55.1c0-13.88-3.21-15.32-6-16.59s-7.9-3.54-7.9-11.5c0-5.07,2.64-16.86,27.14-16.86,2.73,0,5.34.17,7.86.33,1.25.08,2.51.17,3.79.23h.14l.14,0c3.88.38,7.35.7,10.66.7,5.52,0,11.05-.33,16.9-.68l.74-.05c1.9-.06,3.83-.14,5.77-.22,4-.16,8.15-.33,12.21-.33,25,0,50.28,12.08,50.28,39.08,0,12.81-6.09,24.09-16.07,30.13,14.12,5.74,20.46,15.93,23.19,36.92.74,5.75,2,6.11,4.85,6.89,3,.83,9.33,2.58,9.33,11.81S1561,154.78,1535.39,154.78Zm-54.76-91.27v.09c0,.43-.07.85-.1,1.27s-.1,1.09-.13,1.65c7.45-.12,9.86-3.23,9.86-12.52,0-12.7-4.8-12.7-7.38-12.7a6.32,6.32,0,0,0-1.08.08,29.54,29.54,0,0,0-.37,3.67l-.05,1Z"/><path class="cls-2" d="M1498.48,15.63c20.75,0,44.8,9.18,44.8,33.6,0,11-5.32,21.67-15.61,26.62-1.65.92-2.93,1.47-2.93,3.68,0,2.75,2.38,3.48,4.59,4.4,12.85,4.78,18.54,13.22,21.12,33.05,2.2,17.08,14.13,6.8,14.13,18,0,7-8.44,14.32-29.19,14.32-29.38,0-33.05-16.89-38.75-41.13-2-8.45-5.14-16.71-15.24-16.71-4,0-5.51.55-5.51,12.12a114.39,114.39,0,0,0,1.29,17.81c1.47,8.45,10.83,5.88,10.83,14.69,0,6.61-4.59,11.57-34.33,11.57-8.82,0-34.89,0-34.89-13.41,0-9.54,13.77-2.93,13.77-26.8V55.1c0-28.46-14-16.7-14-28.09,0-10.1,14.33-11.38,21.67-11.38,3.86,0,7.53.36,11.39.55,3.67.36,7.53.73,11.2.73,5.87,0,11.75-.37,17.81-.73,5.87-.19,11.93-.55,17.81-.55M1479.94,72c11.93,0,15.79-6.61,15.79-18,0-9-2.21-18.17-12.86-18.17-6.79,0-6.61,4.22-7,9.91l-.73,17.44c-.37,4.78-1.29,8.82,4.78,8.82m18.54-67.33c-4.17,0-8.37.17-12.43.34-1.92.08-3.83.16-5.73.22H1480l-.59,0c-5.76.35-11.21.68-16.56.68-3,0-6.39-.31-10.12-.68l-.28,0-.28,0c-1.22-.05-2.42-.13-3.7-.21-2.61-.17-5.31-.35-8.21-.35-30.27,0-32.62,17.1-32.62,22.34,0,11.51,8.09,15.13,11.14,16.5.44.19,1,.46,1.26.6.24.38,1.55,2.85,1.55,11v52.34c0,5.92-1,8.25-1.47,9s-.84,1-2.49,2c-2.93,1.81-9.81,6.05-9.81,15.86,0,6.51,3,18.08,22.74,22.43,8.79,1.94,18.46,1.94,23.11,1.94,15.74,0,25.8-1.29,32.6-4.18,5.61-2.38,9.48-6.18,11.37-11l.85,1.19c7.86,10.54,19.93,15.67,36.89,15.67,11.55,0,20.92-2,27.84-6,7.82-4.5,12.31-11.52,12.31-19.27,0-5.42-1.71-9.76-5.08-12.89a18.62,18.62,0,0,0-8.27-4.2l-.45-.13a13.64,13.64,0,0,1-.43-2.18c-1.54-11.91-4.12-20.15-8.36-26.71a35.43,35.43,0,0,0-10.28-10.45,41.12,41.12,0,0,0,11.57-29.19c0-14.81-7-27.33-19.79-35.27-9.65-6-22.42-9.29-36-9.29Zm-10.65,114c0-.16,0-.33-.08-.49,0,.17.09.35.13.52l-.05,0Z"/><path class="cls-1" d="M1678.07,153.13a41,41,0,0,1-5.49-.65l-3.23-.49-1.23-.11c-3.68-.35-8.25-.77-13.56-.77H1579.1c-6.64,0-17.78-1.74-17.78-13.38,0-7.78,5.26-10.19,8.09-11.49,3-1.37,5.16-2.37,5.69-10.35.2-3,.38-5.77.55-8.26,1.65-24.54,1.65-24.54,0-54.43-.6-12.91-3.5-13.84-6.31-14.75-3.13-1-8.94-2.88-8.94-12.17,0-9.93,7.32-15,21.76-15,1.37,0,2.7,0,3.94.07,1,0,1.91,0,2.73,0h52.88c17.47,0,23.71-1.91,26.71-2.83a14.35,14.35,0,0,1,4.32-.84c14.38,0,20.35,20.55,20.35,31.55,0,11.19-6,18.7-15,18.7-8.77,0-11.81-5-14-8.63-2.57-4.22-5.48-9-23.62-9-6.91,0-10.92.51-11.9,1.51s-1.06,6.66-1,12.53c0,1.63,0,3.38,0,5.28a52.63,52.63,0,0,0,.18,5.33,58.29,58.29,0,0,0,6.09.2c2.06,0,2.37,0,3.23-5.77.76-5.11,2.17-14.61,13.3-14.61,14.67,0,16.86,20.92,16.86,33.39a80.21,80.21,0,0,1-2.2,19c-1.92,7.32-6.19,16-15.58,16-9.66,0-11-8.43-11.69-12.49-.86-5.21-1.11-6.79-6.85-6.79a3,3,0,0,0-1.3.2c-.76.74-.76,5-.75,6.77v.41c0,6.12,0,16.37,1.69,18.87.73,1.09,4.81,1.18,9.28,1.18h4.67c19.69,0,23.37-7.24,26.93-14.25,2.5-4.91,5.92-11.64,15.11-11.64,9,0,14.3,8.76,14.3,17.23,0,6.77-2.46,16.15-6.41,24.48C1691,144.49,1685.34,153.13,1678.07,153.13Z"/><path class="cls-2" d="M1672.74,13.24c10.47,0,14.87,18,14.87,26.07,0,6.06-2.38,13.22-9.54,13.22-14.51,0-2.76-17.62-37.65-17.62-20.38,0-18.36,3.67-18.36,24.79,0,10.65.55,11,11.75,11,14,0,3.49-20.38,16.53-20.38,10.65,0,11.39,20.75,11.39,27.91,0,7.53-1.29,29.56-12.31,29.56-11.38,0,0-19.28-18.54-19.28-7.72,0-7.53,7-7.53,12.86,0,24.46,1.53,25.53,16.45,25.53h4.67c37.64,0,27-25.89,42-25.89,5.88,0,8.82,6.61,8.82,11.75,0,12.49-9.92,34.89-17.26,34.89-1.29,0-4.23-.55-8.08-1.1-4-.37-9.18-.92-15.43-.92H1579.1c-12.12,0-12.31-5.51-12.31-7.9,0-10.1,12.49-2,13.78-21.48,2.2-33.42,2.38-30.11.55-63.35-1.29-28.09-15.25-13.59-15.25-26.62,0-8.44,8.75-9.48,16.29-9.48,2.47,0,4.81.11,6.67.11h52.88c24.61,0,28.09-3.67,31-3.67m0-11a19.13,19.13,0,0,0-5.93,1.09c-2.74.84-8.45,2.59-25.1,2.59h-52.88c-.73,0-1.64,0-2.59,0-1.23,0-2.62-.07-4.08-.07-4.39,0-10.08.28-15.21,2.43a18.81,18.81,0,0,0-12,18c0,13.29,9.59,16.37,12.74,17.39.29.09.64.2.91.3.37.74,1.32,3.23,1.6,9.43v.11c1.63,29.55,1.63,29.55,0,53.76-.16,2.49-.35,5.22-.55,8.26-.23,3.5-.86,4.74-1,5a16.22,16.22,0,0,1-1.5.74c-3.09,1.42-11.29,5.18-11.29,16.47a17.43,17.43,0,0,0,4.54,12.31c4.1,4.41,10.22,6.55,18.72,6.55h75.46c5,0,9.29.39,13,.74l1.1.1,3,.46a43.21,43.21,0,0,0,6.32.72c8.13,0,15.29-6.4,21.28-19,4.34-9.15,6.93-19.18,6.93-26.82,0-11.16-7.39-22.71-19.77-22.71a19.18,19.18,0,0,0-16.08,8.08,86.82,86.82,0,0,0,2.25-19.89,91,91,0,0,0-1.25-15.65,23.08,23.08,0,0,0,6.64.9c12.07,0,20.5-9.94,20.5-24.18a55.37,55.37,0,0,0-4.43-20.45c-6.31-14.42-16.11-16.58-21.4-16.58Zm-39.67,43.89c.72-.08,1.71-.17,3.06-.23a17.1,17.1,0,0,0-1.33,2,20.51,20.51,0,0,0-1.83,4.21c0-2.23,0-4.42.1-6Zm1.79,69.68a63.88,63.88,0,0,1-.46-6.42,17.42,17.42,0,0,0,.84,1.59,15.47,15.47,0,0,0,4.57,4.93h0c-1,0-3.28,0-4.94-.1Z"/><path class="cls-1" d="M461.79,155c-16.16,0-30.15-5.44-40.45-15.73-12.43-12.44-17.78-30.35-15-50.42C409,69.33,419,50,434.57,34.44,453,16,476.44,5.48,499,5.48c16.16,0,30.15,5.44,40.45,15.74C564.65,46.47,558.72,93.5,526.17,126,507.77,144.45,484.3,155,461.79,155Z"/><path class="cls-2" d="M499,11c14.08,0,27,4.6,36.57,14.13,23.16,23.16,17.24,66.62-13.22,97.08-17.93,17.93-40.36,27.36-60.51,27.36-14.08,0-27-4.61-36.57-14.14C402.06,112.23,408,68.77,438.44,38.31,456.37,20.38,478.8,11,499,11m0-11V0h0c-24,0-48.83,11.14-68.26,30.56-16.41,16.42-27,36.86-29.82,57.55-3,21.81,2.92,41.35,16.6,55,11.18,11.18,26.93,17.34,44.32,17.34,24,0,48.83-11.14,68.26-30.56,16.41-16.42,27-36.85,29.82-57.55,3-21.81-2.92-41.35-16.6-55C532.09,6.16,516.35,0,499,0Z"/><ellipse class="cls-3" cx="469.23" cy="69.1" rx="47.01" ry="30.46" transform="translate(88.57 352.03) rotate(-45)"/><path class="cls-4" d="M519.46,46.05c2.09,16.8-6,36.56-21,51.58a80.45,80.45,0,0,1-10.36,8.76"/><path class="cls-1" d="M123.15,68.51c-1.65,1.47-3.31,2.57-3.31,5s2,3.12,3.86,4c7.53,2.93,20.56,12.67,20.56,28.09,0,18.36-12.3,41-49.2,41-6.25,0-11.94-.19-17.45-.55-5.51-.19-11-.37-16.71-.37-6.24,0-12.67.18-18.91.37-6.25.36-12.49.55-18.91.55-5.7,0-12.12-3.31-12.12-9.73,0-11.39,11.93.18,13-30.3l2-52.88c1.11-27.73-14.68-15.06-14.68-27.73,0-7,7.52-10.28,13.21-10.28,6.8,0,13.59.36,20.39.55,6.79.36,13.59.73,20.38.73,4.41,0,8.63-.37,12.85-.73,4.23-.19,8.63-.55,12.85-.55,33.61,0,42.24,16,42.24,30.11C133.25,54.19,129.76,63.18,123.15,68.51ZM69.72,60.43c0,7.16-.37,10.65,5.32,10.65,11,0,13.59-7.71,13.59-17.81,0-8.26-2.76-18.55-12.86-18.55-6.79,0-6,5.51-6,10.84Zm0,44.8c0,21.3,3.48,21.85,9.18,21.85,10.46,0,14.14-7.16,14.14-16.71,0-11.2-3.31-21.11-16.16-21.11-5.7,0-7,2.94-7.16,6.79Z"/><path class="cls-1" d="M156.91,145.63c-5.88,0-15.24.37-15.24-8.08,0-11.38,14.32-1.84,14.87-23.14.37-13.4.37-25.15.37-36,0-11-.92-21.3-1.29-31.58-.37-15.42-16.53-7.34-16.53-17.81,0-13.4,28.83-14.14,37.83-14.14,36.72,0,38.56,6.25,38.56,12.49C215.48,38,201,30,201,47.21V105.6c0,13.22,2.21,19.65,15.24,19.65,31.22,0,20.57-25.53,32.32-25.53,8.26,0,11.38,8.82,11.38,15.8,0,14.32-10.28,32.68-18.72,32.68-3.31,0-5.88-.73-9.18-1.29a63.82,63.82,0,0,0-13.78-1.28Z"/><path class="cls-1" d="M260.67,80.81c0-38.93,31-66.47,71.06-66.47,50.68,0,70.14,44.62,70.14,68.31,0,39.48-34.89,65.55-72.35,65.55C290.78,148.2,260.67,119.92,260.67,80.81ZM320.54,41.7c-10.28,0-15.42,10.65-15.42,19.65,0,15.61,11,59.49,30.84,59.49,11.21,0,16-9.73,16-19.65C351.94,84.48,342,41.7,320.54,41.7Z"/><path class="cls-1" d="M568.83,47c.37-18.92-13.4-9.74-13.4-21.67,0-8.45,10.65-9.73,17.08-9.73h59.85c51,0,67.76,31.58,67.76,64.63,0,34.15-20,66.29-66.47,66.29-7.89,0-14.5-.19-20.2-.55-5.69-.19-10.65-.37-15.79-.37s-10.46.18-15.61.37c-5.14.36-10.28.55-15.6.55-6.25,0-14.14-3.12-14.14-10.47,0-13.22,14.5,1.47,15.05-25.34Zm44.07,67.2c0,9.37,1.47,13.22,11.39,13.22,23.13,0,27.17-23.69,27.17-42,0-43-16.16-49.76-30.29-49.76-7.72,0-8.27,3.12-8.27,10.1Z"/><path class="cls-1" d="M777.92,131.67c-3.85,7.53-7.53,16-17.44,16-10.65,0-13.41-6.06-17.45-14.69L706.49,52.17C701,40.23,699.33,38,692.17,36.93c-3.67-.55-5.51-3.31-5.51-7.16,0-14.14,29.2-14.88,38.56-14.88,38.56,0,37.09,9.18,37.09,11.94,0,7-8.81,7.34-8.81,12.3,0,3.86,7.16,18.18,11.57,27.73,1.65,3.12,3.67,10.28,7.71,10.46,6.06.37,9.18-9.91,11.38-13.77,2.21-4.41,10.66-20.93,10.66-25.34,0-6.61-9.37-4.77-9.37-12.12,0-11.38,23.14-11.2,30.48-11.2,23.14,0,27,4.23,27,10.65,0,5-3.67,7.35-8.08,7.9-7.89.92-8.63.37-15.61,14.5Z"/><path class="cls-1" d="M922.58,16.91c24.6,0,28.09-3.67,31-3.67,10.47,0,14.87,18,14.87,26.07,0,6.06-2.38,13.22-9.55,13.22-14.5,0-2.75-17.62-37.64-17.62-20.38,0-18.36,3.67-18.36,24.79,0,10.65.55,11,11.75,11,14,0,3.49-20.38,16.53-20.38,10.65,0,11.38,20.75,11.38,27.91,0,7.53-1.28,29.56-12.3,29.56-11.38,0,0-19.28-18.55-19.28-7.71,0-7.52,7-7.52,12.86,0,26.8,1.83,25.52,21.11,25.52,37.64,0,27-25.89,42-25.89,5.88,0,8.81,6.61,8.81,11.75,0,12.49-9.91,34.89-17.26,34.89-1.28,0-4.22-.55-8.07-1.1-4-.37-9.19-.92-15.43-.92H860c-12.11,0-12.3-5.51-12.3-7.9,0-10.1,12.49-2,13.77-21.48,2.21-33.42,2.39-30.11.55-63.35-1.28-28.09-15.24-13.59-15.24-26.62,0-11.2,15.43-9.37,23-9.37Z"/><path class="cls-1" d="M1070.62,61.16c2.21,1.84,8.08,7.17,11.39,7.17,4.59,0,4.77-7.53,4.77-10.66,0-4.58-.18-12.48-1.65-16.7-2.57-7.72-12.3-5-12.3-14.88,0-11.75,18.73-11.2,26.44-11.2,8.08,0,28.09-.92,28.09,11.75,0,10.47-9.73,6.61-12.85,15.06-2.39,6.61-2.39,18-2.39,25v47.56c0,8.26,1.1,33.42-11.2,33.42-3.67,0-6.79-2.2-9.55-4.59L1034.63,92.2c-2.57-2.39-7.34-6.8-11.2-6.8-5.69,0-5.87,11.94-5.87,15.79,0,5.15.18,11.94,1.28,16.71,2.76,11.75,12.49,7.35,12.49,16.34,0,12.31-18.91,13.41-27.54,13.41-8.45,0-27.36-1.1-27.36-13,0-9.73,10.65-5.87,12.48-17.63,1.29-7.89,1.66-19.46,1.66-27.72,0-13.22,0-26.63-2-39.85-2.94-18.36-16.16-11.2-16.16-22.21,0-13,24.79-12.31,33.05-12.31,11.38,0,13.4.74,21.67,8.08Z"/><path class="cls-1" d="M1219,16.91a64.06,64.06,0,0,0,14.33-1.28,22,22,0,0,1,7.52-1.29c7.17,0,22,14.14,22,34,0,9.18-4.78,15.24-14.14,15.24-16,0-15.79-21.67-25.16-21.67-7.16,0-6.42,9.92-6.42,11.39v56.37c0,21.85,16.89,11.38,16.89,24.24,0,5.69-3.49,13.77-37.82,13.77-9.37,0-43.71.37-43.71-13.77,0-9.73,11.39-5.88,15.06-12.86,1.84-3.85,2.57-14.87,2.75-19.46L1171.8,61c.74-19.28-3.12-19.1-5.69-19.1-8.26,0-12.3,21.67-27.17,21.67-7.17,0-11.39-6.61-11.39-13.22,0-15.61,13.22-36,23.69-36,1.28,0,3.3.55,6.79,1.29a94.39,94.39,0,0,0,15.79,1.28Z"/><path class="cls-1" d="M1375.81,48.68c0-19.65-15.79-12.12-15.79-22.77,0-11.39,21.3-11,28.83-11,7,0,27.18,0,27.18,10.65,0,10.29-13.77,4-13.77,20.75V95.87c0,8.26.18,52.33-63.35,52.33-72.35,0-64.27-55.82-64.27-58V47.76c.73-11.57-11.75-11.57-11.75-20,0-2.58-2-12.86,35.8-12.86,29.93,0,36,5.51,36,12.67,0,13.22-13.4.92-14.32,23.32V84.67c0,21.85,8.26,35.8,27.73,35.8,29,0,27.72-24,27.72-26.07Z"/><path class="cls-1" d="M1432.56,55.11c0-28.47-14-16.71-14-28.1,0-10.1,14.33-11.38,21.67-11.38,3.86,0,7.53.36,11.39.55,3.67.36,7.53.73,11.2.73,5.87,0,11.75-.37,17.81-.73,5.87-.19,11.93-.55,17.81-.55,20.75,0,44.8,9.18,44.8,33.6,0,11-5.32,21.67-15.61,26.62-1.65.92-2.93,1.47-2.93,3.68,0,2.75,2.38,3.48,4.59,4.4,12.85,4.78,18.54,13.22,21.12,33.05,2.2,17.08,14.13,6.8,14.13,18,0,7-8.44,14.32-29.19,14.32-29.38,0-33.05-16.89-38.75-41.13-2-8.45-5.14-16.71-15.24-16.71-4,0-5.51.55-5.51,12.12a114.39,114.39,0,0,0,1.29,17.81c1.47,8.45,10.83,5.88,10.83,14.69,0,6.61-4.59,11.57-34.33,11.57-8.82,0-34.89,0-34.89-13.41,0-9.54,13.77-2.93,13.77-26.8Zm42.6,8.07c-.37,4.78-1.29,8.82,4.78,8.82,11.93,0,15.79-6.61,15.79-18,0-9-2.21-18.17-12.86-18.17-6.79,0-6.61,4.22-7,9.91Z"/><path class="cls-1" d="M1641.71,16.91c24.61,0,28.09-3.67,31-3.67,10.47,0,14.87,18,14.87,26.07,0,6.06-2.38,13.22-9.54,13.22-14.51,0-2.76-17.62-37.65-17.62-20.38,0-18.36,3.67-18.36,24.79,0,10.65.55,11,11.75,11,14,0,3.49-20.38,16.53-20.38,10.65,0,11.39,20.75,11.39,27.91,0,7.53-1.29,29.56-12.31,29.56-11.38,0,0-19.28-18.54-19.28-7.72,0-7.53,7-7.53,12.86,0,26.8,1.83,25.52,21.12,25.52,37.64,0,27-25.89,42-25.89,5.88,0,8.82,6.61,8.82,11.75,0,12.49-9.92,34.89-17.26,34.89-1.29,0-4.23-.55-8.08-1.1-4-.37-9.18-.92-15.43-.92H1579.1c-12.12,0-12.31-5.51-12.31-7.9,0-10.1,12.49-2,13.77-21.48,2.21-33.42,2.39-30.11.56-63.35-1.29-28.09-15.25-13.59-15.25-26.62,0-11.2,15.43-9.37,23-9.37Z"/><path class="cls-4" d="M24.82,25.65s24-11.64,7.53,95.87"/><path class="cls-4" d="M154.54,27.71s23.28-10.27,11,99.29"/><path class="cls-4" d="M567.51,27.71s23.29-10.27,11,99.29"/><path class="cls-4" d="M313,24.74s-67,23.2-34.34,88.79"/><path class="cls-4" d="M361.51,120.65S382.7,104,379,76.28"/><path class="cls-4" d="M861.29,27.71s23.28-10.27,11,99.29"/><path class="cls-4" d="M698.31,27.71s12.32-8.22,56.84,108.88"/><path class="cls-4" d="M986.6,27.71s23.29-10.27,11,99.29"/><path class="cls-4" d="M1432.4,27.71s23.29-10.27,11,99.29"/><path class="cls-4" d="M1579.63,27.71s23.29-10.27,11,99.29"/><path class="cls-4" d="M1283.8,42.09s-5.48,66.42,8.91,82.17"/><path class="cls-4" d="M1148.9,24.28c1.74-2-15.66,18.71-11,30.13"/><path class="cls-4" d="M1180.4,50.3s4.11,63-4.11,76.7"/><circle class="cls-3" cx="330.58" cy="81.81" r="41.09"/></svg>