<?xml version="1.0" encoding="UTF-8"?>
<svg id="_레이어_1" data-name=" 레이어 1" xmlns="http://www.w3.org/2000/svg" xmlns:xlink="http://www.w3.org/1999/xlink" version="1.1" viewBox="0 0 89 89">
  <defs>
    <style>
      .cls-1 {
        fill: url(#linear-gradient);
      }

      .cls-1, .cls-2, .cls-3, .cls-4 {
        stroke-width: 0px;
      }

      .cls-2 {
        fill: #000;
      }

      .cls-3 {
        fill: url(#linear-gradient-2);
      }

      .cls-4 {
        fill: url(#linear-gradient-3);
      }
    </style>
    <linearGradient id="linear-gradient" x1="15.5" y1="43.9" x2="30.1" y2="43.9" gradientUnits="userSpaceOnUse">
      <stop offset="0" stop-color="#fff"/>
      <stop offset="1" stop-color="#cfcfcf"/>
    </linearGradient>
    <linearGradient id="linear-gradient-2" x1="33.6" y1="56.6" x2="51.4" y2="56.6" xlink:href="#linear-gradient"/>
    <linearGradient id="linear-gradient-3" x1="55.9" y1="48.5" x2="73.5" y2="48.5" xlink:href="#linear-gradient"/>
  </defs>
  <path class="cls-2" d="M89,44.5c0,34.8-9.8,44.5-44.5,44.5S0,79.2,0,44.5,9.8,0,44.5,0s44.5,9.8,44.5,44.5Z"/>
  <g>
    <path class="cls-1" d="M30.1,38.4h-9.1v11h9.2v4.8h-14.6v-20.6h14.6v4.8Z"/>
    <path class="cls-3" d="M33.6,54.2h17.9v4.8h-17.9v-4.8Z"/>
    <path class="cls-4" d="M61.5,54.2v9.1h-5.6v-29.7h17.5v20.6h-12ZM61.5,49.3h6.6v-11h-6.6v11Z"/>
  </g>
</svg>