<?xml version="1.0" encoding="UTF-8"?>
<svg id="_레이어_1" data-name="레이어 1" xmlns="http://www.w3.org/2000/svg" viewBox="0 0 89 89">
  <defs>
    <style>
      .cls-1 {
        fill: #000;
      }

      .cls-1, .cls-2 {
        stroke-width: 0px;
      }

      .cls-2 {
        fill: #ff6442;
      }
    </style>
  </defs>
  <path class="cls-2" d="M89,44.5c0,34.75-9.75,44.5-44.5,44.5S0,79.25,0,44.5,9.75,0,44.5,0s44.5,9.75,44.5,44.5Z"/>
  <rect class="cls-1" x="6.08" y="28.03" width="76.84" height="32.93"/>
  <g>
    <path class="cls-2" d="M16.02,50.52c-1.05-.95-2.02-1.05-2.56-1.05-2.05,0-3.43,1.51-3.43,3.59s1.44,3.53,3.45,3.53c1.13,0,2.01-.58,2.54-1.09v1.71c-.95.56-1.93.71-2.58.71-1.71,0-2.78-.78-3.33-1.3-1.1-1.03-1.51-2.23-1.51-3.56,0-1.74.72-2.94,1.51-3.69.97-.92,2.1-1.23,3.4-1.23.86,0,1.69.16,2.51.68v1.69Z"/>
    <path class="cls-2" d="M18.68,48.32v9.42h-1.44v-9.42h1.44Z"/>
    <path class="cls-2" d="M20.09,57.74v-10.05l6.83,7.16v-6.52h1.44v10l-6.83-7.16v6.58h-1.44Z"/>
    <path class="cls-2" d="M35.26,49.68h-3.76v2.39h3.64v1.36h-3.64v2.97h3.76v1.36h-5.2v-9.42h5.2v1.36Z"/>
    <path class="cls-2" d="M35.99,57.74l1.98-10.13,3.28,7.31,3.3-7.31,1.78,10.13h-1.47l-.96-5.68-2.74,6.11-2.71-6.13-.99,5.69h-1.47Z"/>
    <path class="cls-2" d="M53.56,55.47h-4.02l-1.03,2.27h-1.55l4.69-9.97,4.46,9.97h-1.55l-.99-2.27ZM52.98,54.11l-1.4-3.19-1.45,3.19h2.85Z"/>
  </g>
</svg>