<?xml version="1.0" encoding="utf-8"?>
<!-- Generator: Adobe Illustrator 26.1.0, SVG Export Plug-In . SVG Version: 6.00 Build 0)  -->
<svg version="1.1" id="레이어_1" xmlns="http://www.w3.org/2000/svg" xmlns:xlink="http://www.w3.org/1999/xlink" x="0px"
	 y="0px" viewBox="0 0 100 42" style="enable-background:new 0 0 100 42;" xml:space="preserve">
<style type="text/css">
	.st0{fill:#61656C;}
</style>
<g>
	<path class="st0" d="M19.9,21c0-2.8,1.8-4.9,4.6-4.9c1.1,0,2,0.3,2.7,0.8c0.8,0.6,1.3,1.5,1.4,2.6h-2.3c-0.1-0.8-0.8-1.5-1.8-1.5
		c-1.5,0-2.2,1.3-2.2,3c0,1.7,0.9,2.9,2.2,2.9c1,0,1.7-0.6,1.8-1.5h2.3c-0.1,0.9-0.5,1.8-1.1,2.4c-0.7,0.7-1.7,1.1-3,1.1
		C21.8,25.8,19.9,23.8,19.9,21z"/>
	<path class="st0" d="M29,21c0-2.8,1.8-4.8,4.6-4.8c2.8,0,4.6,2.1,4.6,4.8c0,2.8-1.8,4.8-4.6,4.8C30.8,25.8,29,23.8,29,21z M35.9,21
		c0-1.7-0.7-3-2.2-3c-1.5,0-2.3,1.3-2.3,3c0,1.7,0.8,3,2.3,3C35.1,24,35.9,22.7,35.9,21z"/>
	<path class="st0" d="M39.1,16.3h2.3l2.8,4.7c0.1,0.3,0.6,1.2,0.6,1.2h0c0,0,0-1.1,0-1.4v-4.4h2.2v9.3h-2.3L42,21
		c-0.2-0.2-0.7-1.2-0.7-1.2h0c0,0,0,1.2,0,1.5v4.3h-2.2V16.3z"/>
	<path class="st0" d="M50.6,18.3h-2.7v-2h7.7v2h-2.7v7.3h-2.3V18.3z"/>
	<path class="st0" d="M58.1,16.3h2.4l3.4,9.3h-2.4L60.8,24h-3.2L57,25.6h-2.3L58.1,16.3z M60.3,22.3l-0.7-2.2
		c-0.2-0.5-0.4-1.3-0.4-1.3h0c0,0-0.2,0.8-0.4,1.3l-0.7,2.2H60.3z"/>
	<path class="st0" d="M63.5,21c0-2.8,1.8-4.9,4.6-4.9c1.1,0,2,0.3,2.7,0.8c0.8,0.6,1.3,1.5,1.4,2.6h-2.3c-0.1-0.8-0.8-1.5-1.8-1.5
		c-1.5,0-2.2,1.3-2.2,3c0,1.7,0.9,2.9,2.2,2.9c1,0,1.7-0.6,1.8-1.5h2.3c-0.1,0.9-0.5,1.8-1.1,2.4c-0.7,0.7-1.7,1.1-3,1.1
		C65.3,25.8,63.5,23.8,63.5,21z"/>
	<path class="st0" d="M75.1,18.3h-2.7v-2h7.7v2h-2.7v7.3h-2.3V18.3z"/>
</g>
</svg>
