<?xml version="1.0" encoding="utf-8"?>
<!-- Generator: Adobe Illustrator 26.1.0, SVG Export Plug-In . SVG Version: 6.00 Build 0)  -->
<svg version="1.1" id="레이어_1" xmlns="http://www.w3.org/2000/svg" xmlns:xlink="http://www.w3.org/1999/xlink" x="0px"
	 y="0px" viewBox="0 0 100 42" style="enable-background:new 0 0 100 42;" xml:space="preserve">
<style type="text/css">
	.st0{fill:#313339;}
</style>
<g>
	<path class="st0" d="M0.8,25.1l1.4-2c1.4,0.8,2.9,1.3,4.5,1.3c1.2,0,1.8-0.4,1.8-0.9c0-0.6-0.5-0.8-2.7-1.3c-3-0.6-4.2-1.7-4.2-3.4
		c0-2.1,1.9-3.5,5.1-3.5c2,0,3.6,0.8,4.8,1.5l-1.5,2c-1.1-0.7-2.4-1.1-3.6-1.1c-1,0-1.5,0.4-1.5,0.9c0,0.6,0.7,0.8,2.5,1.2
		c3.4,0.8,4.4,1.7,4.4,3.5c0,2-1.9,3.6-5.4,3.6C4.3,26.8,2.2,26,0.8,25.1z"/>
	<path class="st0" d="M12,21c0-3.6,2.8-5.8,5.7-5.8c3.4,0,5.2,2.3,5.2,5.3c0,0.6-0.1,1.2-0.1,1.5h-8.4v-2.2h6.2l-0.5,0.6
		c0-1.8-0.8-2.7-2.2-2.7c-1.6,0-2.7,1.1-2.7,3.3c0,2.3,1.2,3.3,3.4,3.3c1,0,1.9-0.3,2.8-0.8l1.1,2c-1.3,0.8-2.9,1.3-4.4,1.3
		C14.7,26.8,12,24.7,12,21z"/>
	<path class="st0" d="M22.6,24.4l1.9-2c0.8,1,1.8,1.6,2.8,1.6c1.5,0,2.2-0.6,2.2-2.6v-3.1h-5.7v-2.8h8.9v6.1c0,2.8-1.4,5.2-5.4,5.2
		C25.7,26.8,23.8,26.2,22.6,24.4z"/>
	<path class="st0" d="M33.5,23.9h3.3V18h-3.3v-2.6h9.8V18h-3.3v5.9h3.3v2.6h-9.8V23.9z"/>
	<path class="st0" d="M44.2,15.5h3l2.9,4.7c0.4,0.6,0.9,1.7,1.2,2.3h0.1c-0.1-1.4-0.3-2.8-0.3-3.9v-3.1h3.1v11h-3l-2.9-4.7
		c-0.4-0.6-0.9-1.6-1.2-2.3h-0.1c0.1,1.4,0.3,2.8,0.3,3.9v3.1h-3.1V15.5z"/>
	<path class="st0" d="M65.9,15.5h3.3v4.4h0.1l4.1-4.4h3.6l-7.7,8.3v2.8h-3.3V15.5z M70.5,21.5l1.9-2l4.9,7h-3.6L70.5,21.5z"/>
	<path class="st0" d="M77.7,23.9H81V18h-3.3v-2.6h9.8V18h-3.3v5.9h3.3v2.6h-9.8V23.9z"/>
	<path class="st0" d="M88.4,15.5h3.4l1.4,5.1l0.5,2h0.1l0.5-2l1.4-5.1h3.4v11h-2.8v-1c0-1.6,0.3-5.2,0.4-6.7h-0.1l-1.1,3.9l-1.1,3.5
		h-1.6l-1.1-3.5l-1-3.9h-0.1c0.2,1.6,0.4,5.1,0.4,6.7v1h-2.7V15.5z"/>
</g>
</svg>
