<?xml version="1.0" encoding="utf-8"?>
<!-- Generator: Adobe Illustrator 26.1.0, SVG Export Plug-In . SVG Version: 6.00 Build 0)  -->
<svg version="1.1" id="레이어_5" xmlns="http://www.w3.org/2000/svg" xmlns:xlink="http://www.w3.org/1999/xlink" x="0px"
	 y="0px" viewBox="0 0 4416.3 4416.3" style="enable-background:new 0 0 4416.3 4416.3;" xml:space="preserve">
<style type="text/css">
	.st0{fill:#F25510;}
	.st1{fill:#FFFFFF;}
</style>
<circle cx="2208.2" cy="2208.2" r="2208.2"/>
<circle class="st0" cx="2208.2" cy="2208.2" r="1860"/>
<g>
	<path class="st1" d="M1619.7,2740.9l277.3-218.3c78.6,135.4,203.1,214,345,214c155,0,238-100.4,238-209.6
		c0-131-159.4-172.5-329.7-224.9c-214-65.5-452-148.5-452-454.2c0-255.5,222.7-458.5,530.6-458.5c259.8,0,408.3,98.3,537.1,231.5
		l-251.1,190c-65.5-98.3-159.4-150.7-283.9-150.7c-141.9,0-218.3,76.4-218.3,176.9c0,122.3,152.8,163.8,323.2,220.5
		c216.2,69.9,460.7,165.9,460.7,471.6c0,253.3-200.9,497.8-552.4,497.8C1956,3027,1763.8,2904.7,1619.7,2740.9z"/>
</g>
</svg>
