<?xml version="1.0" encoding="UTF-8"?>
<svg id="_레이어_1" data-name="레이어 1" xmlns="http://www.w3.org/2000/svg" viewBox="0 0 89 89">
  <defs>
    <style>
      .cls-1 {
        fill: #000;
      }

      .cls-1, .cls-2 {
        stroke-width: 0px;
      }

      .cls-2 {
        fill: #0085bc;
      }
    </style>
  </defs>
  <path class="cls-2" d="M89,44.5c0,34.75-9.75,44.5-44.5,44.5S0,79.25,0,44.5,9.75,0,44.5,0s44.5,9.75,44.5,44.5Z"/>
  <g>
    <path class="cls-1" d="M10.47,36.57c2.45,0,4.33.62,5.65,1.87,1.32,1.25,1.98,3.14,1.98,5.7,0,1.34-.15,2.52-.44,3.55-.3,1.03-.76,1.9-1.38,2.6-.62.7-1.42,1.24-2.38,1.61-.96.37-2.11.56-3.43.56h-5.45v-15.89h5.45ZM10.65,50.67c.24,0,.53-.02.89-.06.36-.04.73-.13,1.13-.27.4-.14.8-.34,1.19-.61.39-.27.75-.63,1.06-1.09.31-.46.57-1.03.77-1.72.2-.69.3-1.52.3-2.5s-.09-1.8-.28-2.55c-.19-.75-.49-1.39-.91-1.91-.42-.53-.97-.93-1.64-1.2-.67-.27-1.49-.41-2.47-.41h-3.56v12.33h3.52Z"/>
    <path class="cls-1" d="M31.65,36.57v1.78h-8.86v5.05h8.25v1.78h-8.25v5.5h8.92v1.78h-11.04v-15.89h10.97Z"/>
    <path class="cls-1" d="M42.23,38.74c-.7-.51-1.61-.77-2.7-.77-.45,0-.88.04-1.31.13-.43.09-.81.24-1.15.45-.33.21-.6.49-.8.83-.2.35-.3.78-.3,1.3,0,.49.14.89.43,1.19.29.3.67.55,1.16.75.48.19,1.03.35,1.64.48.61.13,1.23.26,1.86.41.63.15,1.25.32,1.86.52.61.2,1.15.47,1.64.81.48.34.87.77,1.16,1.29.29.52.43,1.17.43,1.96,0,.85-.19,1.57-.57,2.17-.38.6-.86,1.09-1.46,1.47-.59.38-1.26.65-1.99.82s-1.46.26-2.19.26c-.89,0-1.73-.11-2.53-.33s-1.49-.56-2.09-1.01c-.6-.45-1.08-1.03-1.42-1.74-.35-.7-.52-1.54-.52-2.5h2c0,.67.13,1.24.39,1.72.26.48.6.88,1.02,1.19.42.31.92.54,1.48.69.56.15,1.14.22,1.74.22.47,0,.95-.04,1.44-.13.48-.09.92-.24,1.3-.46.39-.21.7-.51.93-.88.24-.37.36-.85.36-1.42,0-.55-.14-.99-.43-1.34-.29-.34-.68-.62-1.16-.83-.48-.21-1.03-.39-1.64-.52-.61-.13-1.23-.27-1.86-.41-.63-.14-1.25-.3-1.86-.49-.61-.19-1.15-.43-1.64-.73-.48-.3-.87-.7-1.16-1.18-.29-.48-.43-1.09-.43-1.81,0-.8.16-1.49.49-2.08.33-.59.76-1.07,1.3-1.45.54-.38,1.16-.66,1.85-.85.69-.19,1.4-.28,2.12-.28.82,0,1.57.1,2.27.29.7.19,1.31.5,1.84.91.53.42.94.94,1.25,1.57.3.63.47,1.38.5,2.26h-2c-.12-1.14-.53-1.97-1.23-2.48Z"/>
    <path class="cls-1" d="M50.9,36.57v15.89h-2.11v-15.89h2.11Z"/>
    <path class="cls-1" d="M64.02,52.27c-.92.36-1.85.55-2.78.55-1.19,0-2.25-.22-3.18-.66-.93-.44-1.73-1.03-2.38-1.77-.65-.74-1.15-1.59-1.49-2.56-.34-.96-.51-1.97-.51-3,0-1.16.16-2.26.48-3.3.32-1.05.79-1.96,1.42-2.75.63-.79,1.42-1.41,2.36-1.88.94-.47,2.04-.7,3.3-.7.86,0,1.67.1,2.44.3.76.2,1.45.52,2.05.95.6.43,1.1.98,1.51,1.64.41.66.69,1.46.83,2.39h-2.11c-.1-.61-.3-1.13-.58-1.57-.28-.44-.63-.8-1.05-1.08-.42-.28-.89-.49-1.41-.63-.53-.14-1.09-.21-1.68-.21-.96,0-1.79.19-2.48.58-.69.39-1.25.89-1.69,1.52-.44.63-.76,1.35-.97,2.16-.21.81-.31,1.64-.31,2.48s.12,1.63.36,2.39c.24.76.59,1.44,1.05,2.02.46.59,1.03,1.05,1.7,1.4.67.35,1.46.52,2.35.52.83,0,1.56-.13,2.2-.4.64-.27,1.18-.63,1.61-1.1.44-.47.77-1.02.99-1.65.22-.63.32-1.31.29-2.04h-5.07v-1.78h6.96v8.37h-1.33l-.56-1.98c-.62.83-1.39,1.43-2.31,1.79Z"/>
    <path class="cls-1" d="M73.57,36.57l8.37,12.88h.04v-12.88h2v15.89h-2.31l-8.3-12.75h-.04v12.75h-2v-15.89h2.25Z"/>
  </g>
</svg>