<?xml version="1.0" encoding="UTF-8"?>
<svg id="_레이어_1" data-name=" 레이어 1" xmlns="http://www.w3.org/2000/svg" version="1.1" viewBox="0 0 89 89">
  <defs>
    <style>
      .cls-1 {
        fill: #ffbc58;
      }

      .cls-1, .cls-2, .cls-3, .cls-4, .cls-5 {
        stroke-width: 0px;
      }

      .cls-2 {
        fill: #000;
      }

      .cls-3 {
        fill: #ff6442;
      }

      .cls-4 {
        fill: #0085bc;
      }

      .cls-5 {
        fill: #fff;
      }
    </style>
  </defs>
  <path class="cls-2" d="M89,44.5c0,34.8-9.8,44.5-44.5,44.5S0,79.2,0,44.5,9.8,0,44.5,0s44.5,9.8,44.5,44.5Z"/>
  <g>
    <g>
      <g>
        <path class="cls-1" d="M5.1,52.6h8.1v2H5.1v-2Z"/>
        <path class="cls-1" d="M14.3,54.5h-2.5l-1.8-5c-.3-1-.6-2-1-3h0c-.3,1-.6,2-1,3l-1.8,5h-2.4l3.8-9.8h2.8l3.9,9.8Z"/>
      </g>
      <path class="cls-3" d="M16.9,44.7h2.5v7.9h5.6v2h-8.1v-9.8Z"/>
      <path class="cls-1" d="M27,53.3l1.1-1.6c1.2.8,2.5,1.2,4.1,1.2s1.9-.5,1.9-1.1-.4-.9-2.7-1.4c-2.6-.6-3.8-1.5-3.8-3s1.6-3,4.4-3,3.1.7,4.2,1.3l-1.1,1.5c-1-.6-2.1-1-3.3-1s-1.7.5-1.7,1,.7.9,2.5,1.3c3.1.7,3.9,1.5,3.9,3.1s-1.6,3.1-4.7,3.1-3.6-.7-4.8-1.5Z"/>
      <path class="cls-4" d="M38.9,51.9c0-2.2,1.9-3.3,6.7-3.6,0-1.1-.7-1.8-2.3-1.8s-2.1.5-3.2,1l-.9-1.6c1.2-.7,2.8-1.4,4.5-1.4,2.7,0,4.3,1.5,4.3,4.3v5.8h-2l-.2-1.2h0c-1,.8-2.3,1.4-3.6,1.4-1.9,0-3.3-1.2-3.3-2.9ZM45.6,51.7v-2c-3.4.2-4.4.9-4.4,1.9s.7,1.2,1.7,1.2,1.8-.4,2.7-1.1Z"/>
      <path class="cls-1" d="M51.9,44.7h2.3l3.1,4.7c.4.6.8,1.5,1.2,2.1h0c0-1.2-.2-2.5-.2-3.5v-3.2h2.3v9.8h-2.3l-3.1-4.7c-.4-.6-.9-1.5-1.2-2.1h0c.1,1.2.2,2.5.2,3.5v3.2h-2.3v-9.8Z"/>
      <path class="cls-3" d="M63.6,53.3l1.1-1.6c1.2.8,2.5,1.2,4.1,1.2s1.9-.5,1.9-1.1-.4-.9-2.7-1.4c-2.6-.6-3.8-1.5-3.8-3s1.6-3,4.4-3,3.1.7,4.2,1.3l-1.1,1.5c-1-.6-2.1-1-3.3-1s-1.7.5-1.7,1,.7.9,2.5,1.3c3.1.7,3.9,1.5,3.9,3.1s-1.6,3.1-4.7,3.1-3.6-.7-4.8-1.5Z"/>
      <path class="cls-1" d="M75.5,49.6c0-3.2,2.4-5.1,5.1-5.1s4.6,2,4.6,4.7,0,.9-.1,1.2h-7.8v-1.7h6.2l-.4.5c0-1.9-.9-2.8-2.3-2.8s-2.8,1.1-2.8,3.3,1.3,3.3,3.3,3.3,1.8-.3,2.7-.8l.8,1.5c-1.1.7-2.5,1.2-3.9,1.2-3,0-5.4-1.9-5.4-5.2Z"/>
    </g>
    <g>
      <g>
        <path class="cls-5" d="M4.6,34.4h2.3c2.6,0,4.2.9,4.2,3.3s-1.6,3.3-4.1,3.3h-2.4v-6.6ZM6.8,39.6c1.6,0,2.6-.3,2.6-2s-.9-2-2.6-2h-.6v3.9h.6Z"/>
        <path class="cls-5" d="M57.7,34.4h2.3c2.6,0,4.2.9,4.2,3.3s-1.6,3.3-4.1,3.3h-2.4v-6.6ZM59.9,39.6c1.6,0,2.6-.3,2.6-2s-.9-2-2.6-2h-.6v3.9h.6Z"/>
        <path class="cls-5" d="M12.4,37.7c0-2.2,1.6-3.5,3.4-3.5s3.1,1.3,3.1,3.1,0,.6,0,.8h-5.2v-1.1h4.1l-.3.4c0-1.2-.6-1.9-1.6-1.9s-1.9.8-1.9,2.2.9,2.2,2.2,2.2,1.2-.2,1.8-.5l.6,1c-.7.5-1.6.8-2.6.8-2,0-3.6-1.3-3.6-3.5Z"/>
        <path class="cls-5" d="M49.9,37.7c0-2.2,1.6-3.5,3.4-3.5s3.1,1.3,3.1,3.1,0,.6,0,.8h-5.2v-1.1h4.1l-.3.4c0-1.2-.6-1.9-1.6-1.9s-1.9.8-1.9,2.2.9,2.2,2.2,2.2,1.2-.2,1.8-.5l.6,1c-.7.5-1.6.8-2.6.8-2,0-3.6-1.3-3.6-3.5Z"/>
        <path class="cls-5" d="M35,37.7c0-2.2,1.8-3.5,3.7-3.5s1.9.4,2.5.9l-.8,1c-.5-.4-.9-.6-1.6-.6-1.1,0-2.1.7-2.1,2.2s.8,2.2,2,2.2.8-.1,1.1-.3v-1.3h-1.4v-1.1h2.9v3c-.6.5-1.5.9-2.6.9-1.9,0-3.6-1.1-3.6-3.4Z"/>
        <path class="cls-5" d="M28,39.7h2.1v-4h-2.1v-1.3h5.9v1.3h-2.1v4h2.1v1.3h-5.9v-1.3Z"/>
        <path class="cls-5" d="M42.7,34.4h1.5l2.1,3.1c.2.4.6,1,.8,1.4h0c0-.8-.1-1.7-.1-2.4v-2.2h1.5v6.6h-1.5l-2.1-3.1c-.2-.4-.6-1-.8-1.4h0c0,.8.1,1.7.1,2.4v2.2h-1.5v-6.6Z"/>
        <path class="cls-5" d="M20.3,40.1l.7-1c.8.5,1.7.8,2.7.8s1.3-.3,1.3-.7-.3-.6-1.8-.9c-1.8-.4-2.5-1-2.5-2s1.1-2,2.9-2,2.1.4,2.8.9l-.8,1c-.6-.4-1.4-.7-2.2-.7s-1.1.3-1.1.7.5.6,1.7.9c2.1.5,2.6,1,2.6,2.1s-1.1,2.1-3.1,2.1-2.4-.5-3.2-1Z"/>
      </g>
      <g>
        <path class="cls-5" d="M71.4,34.4h3.1c1.5,0,2.7.4,2.7,1.7s-.4,1.2-1.1,1.4h0c.8.2,1.4.7,1.4,1.6,0,1.3-1.2,1.9-2.8,1.9h-3.2v-6.6ZM74.3,37c.9,0,1.3-.3,1.3-.8s-.4-.7-1.2-.7h-1.4v1.5h1.3ZM74.5,39.8c.9,0,1.3-.3,1.3-.8s-.4-.8-1.4-.8h-1.5v1.7h1.5Z"/>
        <path class="cls-5" d="M80.8,38.9l-2.7-4.5h1.7l.9,1.6c.3.6.5,1.1.8,1.8h0c.3-.6.5-1.1.8-1.8l.9-1.6h1.7l-2.6,4.5v2.1h-1.6v-2.1Z"/>
      </g>
    </g>
  </g>
</svg>