<?xml version="1.0" encoding="UTF-8"?>
<svg id="_레이어_1" data-name="레이어_1" xmlns="http://www.w3.org/2000/svg" version="1.1" viewBox="0 0 256 256">
  <!-- Generator: Adobe Illustrator 29.1.0, SVG Export Plug-In . SVG Version: 2.1.0 Build 142)  -->
  <defs>
    <style>
      .st0 {
        fill: #0a0a08;
      }
    </style>
  </defs>
  <path class="st0" d="M249.3,75c-3.3-8.4-7.7-15.6-14.8-22.7-7.1-7.1-14.3-11.5-22.7-14.8-8.1-3.2-17.4-5.3-31.1-6-13.7-.6-18-.8-52.8-.8s-39.1.2-52.8.8c-13.6.6-22.9,2.8-31.1,6-8.4,3.3-15.6,7.6-22.7,14.8-7.1,7.1-11.5,14.3-14.8,22.7-3.2,8.1-5.3,17.4-5.9,31.1v49.8c.6,13.6,2.8,22.9,5.9,31.1,3.3,8.4,7.7,15.5,14.8,22.7,7.1,7.1,14.3,11.5,22.7,14.8,8.1,3.2,17.4,5.3,31.1,6,13.7.6,18,.8,52.8.8s39.1-.2,52.8-.8c13.6-.6,22.9-2.8,31.1-6,8.4-3.3,15.6-7.6,22.7-14.8,7.1-7.1,11.5-14.3,14.8-22.7,3.2-8.1,5.3-17.5,5.9-31.1v-49.8c-.6-13.6-2.8-22.9-5.9-31.1ZM232.1,155.8c-.6,11.8-2.7,18.3-4.4,22.7-2.3,6-5.1,10.2-9.6,14.7s-8.8,7.2-14.7,9.6c-4.5,1.8-11.3,3.8-23.8,4.4-13.5.6-17.5.8-51.7.8s-38.2-.1-51.7-.8c-12.5-.6-19.3-2.7-23.8-4.4-6-2.3-10.2-5.1-14.7-9.6s-7.2-8.7-9.6-14.7c-1.7-4.4-3.7-10.9-4.4-22.7v-49.8c.6-11.8,2.7-18.3,4.4-22.7,2.3-6,5.1-10.2,9.6-14.7s8.7-7.2,14.7-9.6c4.5-1.8,11.3-3.8,23.8-4.4,13.5-.6,17.5-.8,51.7-.8s38.2.1,51.7.8c12.5.6,19.3,2.7,23.8,4.4,6,2.3,10.2,5.1,14.7,9.6s7.2,8.8,9.6,14.7c1.7,4.4,3.7,10.9,4.4,22.7v49.8Z"/>
  <path class="st0" d="M234.1,92.9l-80,46.2c-16.2,9.3-36.1,9.3-52.3,0L21.9,92.9l11.5-20,82.5,47.6c7.5,4.3,16.7,4.3,24.1,0l82.5-47.6,11.5,20Z"/>
</svg>