<?xml version="1.0" encoding="UTF-8"?>
<svg id="_레이어_1" data-name=" 레이어 1" xmlns="http://www.w3.org/2000/svg" version="1.1" viewBox="0 0 89 89">
  <defs>
    <style>
      .cls-1 {
        fill: #ffbc58;
      }

      .cls-1, .cls-2, .cls-3 {
        stroke-width: 0px;
      }

      .cls-2 {
        fill: #000;
      }

      .cls-3 {
        fill: #fff;
      }
    </style>
  </defs>
  <path class="cls-2" d="M89,44.5c0,34.8-9.8,44.5-44.5,44.5S0,79.2,0,44.5,9.8,0,44.5,0s44.5,9.8,44.5,44.5Z"/>
  <g>
    <polygon class="cls-1" points="26.5 22 24.2 22 24.2 11.6 34.7 11.6 34.7 13.8 26.5 13.8 26.5 22"/>
    <polygon class="cls-1" points="64.8 22 62.5 22 62.5 13.8 54.3 13.8 54.3 11.6 64.8 11.6 64.8 22"/>
    <polygon class="cls-1" points="34.7 77.4 24.2 77.4 24.2 67 26.5 67 26.5 75.2 34.7 75.2 34.7 77.4"/>
    <polygon class="cls-1" points="64.8 77.4 54.3 77.4 54.3 75.2 62.5 75.2 62.5 67 64.8 67 64.8 77.4"/>
  </g>
  <g>
    <g>
      <g>
        <path class="cls-3" d="M8.8,47.8h9.3v2.2h-9.3v-2.2Z"/>
        <path class="cls-3" d="M19.5,50h-2.9l-2.1-5.7c-.4-1.1-.7-2.3-1.1-3.4h0c-.4,1.2-.7,2.3-1.1,3.4l-2.1,5.7h-2.7l4.4-11.3h3.2l4.5,11.3Z"/>
      </g>
      <path class="cls-3" d="M22.4,38.7h2.8v9.1h6.5v2.2h-9.3v-11.3Z"/>
    </g>
    <path class="cls-3" d="M31.7,43.2h9.3v2.2h-9.3v-2.2Z"/>
    <path class="cls-3" d="M44.2,38.7h5.3c2.6,0,4.6.8,4.6,2.9s-.6,2-1.9,2.4h0c1.4.4,2.4,1.2,2.4,2.8,0,2.3-2.1,3.2-4.9,3.2h-5.6v-11.3ZM49.3,43.2c1.6,0,2.2-.5,2.2-1.3s-.6-1.2-2.1-1.2h-2.4v2.5h2.3ZM49.6,48c1.6,0,2.3-.5,2.3-1.4s-.8-1.4-2.4-1.4h-2.5v2.8h2.6Z"/>
    <path class="cls-3" d="M70.7,38.7h3.1l1.7,5.7.6,2.2h0l.6-2.2,1.7-5.7h3.1v11.3h-2.5v-2c0-1.6.3-4.9.4-6.3h0l-1,3.6-1.5,4.5h-1.5l-1.5-4.5-1-3.6h0c.2,1.5.4,4.7.4,6.3v2h-2.4v-11.3Z"/>
    <path class="cls-3" d="M56.9,44.3v-5.6h2.9v5.8c0,2.3.9,3.3,2.5,3.3s2.5-1,2.5-3.3v-5.8h2.7v5.6c0,4.1-1.9,6-5.3,6s-5.3-2-5.3-6Z"/>
  </g>
</svg>