<?xml version="1.0" encoding="UTF-8"?>
<svg id="_레이어_1" data-name="레이어 1" xmlns="http://www.w3.org/2000/svg" viewBox="0 0 89 89">
  <defs>
    <style>
      .cls-1 {
        fill: #ffbc58;
      }

      .cls-1, .cls-2 {
        stroke-width: 0px;
      }

      .cls-2 {
        fill: #000;
      }
    </style>
  </defs>
  <path class="cls-1" d="M89,44.5c0,34.75-9.75,44.5-44.5,44.5S0,79.25,0,44.5,9.75,0,44.5,0s44.5,9.75,44.5,44.5Z"/>
  <g>
    <path class="cls-2" d="M15.76,43.14c0-2.54-.09-3.99-.19-4.48.29.03.83.05,1.28.05h3.73c.54.02,1.14-.03,1.41-.09-.09.57-.12,1.33-.14,1.65-.25-.11-.49-.17-1.38-.23-.51-.03-1.68-.06-2.69-.06-.03,0-.06.02-.06.06,0,1.16-.02,2.46-.02,3.62,0,.06.02.09.06.09.29,0,1.92-.02,2.43-.03.94-.02,1.22-.08,1.41-.12-.06.22-.14,1.21-.15,1.72-.23-.12-.59-.2-1.22-.25-.49-.03-1.62-.06-2.47-.06-.03,0-.05.03-.05.09v.77c0,1.45.06,3.96.15,4.47-.14-.02-.4-.03-1-.03-.39,0-1.05.03-1.25.06.08-.53.15-2.24.15-4.5v-2.72Z"/>
    <path class="cls-2" d="M23.32,43.14c0-2.21-.05-3.88-.23-4.47.36.02.63.03.96.03.29,0,1.68-.06,2.32-.06,1.25,0,2.24.17,2.89.56.8.48,1.47,1.38,1.47,2.58,0,1.3-.68,2.4-1.9,3.2.93,1.3,1.99,2.81,3.01,3.94.7.77,1.16,1.21,1.48,1.36-.26.09-.88.12-1.38.12-.93,0-1.38-.25-1.93-.8-.88-.87-2.19-3.01-2.81-3.85-.05-.08-.11-.11-.19-.11-.34,0-1.19,0-1.75-.02-.05,0-.06.03-.06.09v.42c0,1.85.08,3.46.19,4.19-.2-.02-.57-.03-.94-.03-.4,0-1.1.03-1.31.06.09-.65.19-2.52.19-4.5v-2.72ZM25.21,44.19c0,.12.02.14.06.17.29.08.94.14,1.68.14.42,0,.68-.05.85-.17.51-.39,1-1.05,1-2.07,0-1.64-1.14-2.46-2.57-2.46-.42,0-.8.02-.97.06-.06.02-.06.05-.06.11v4.22Z"/>
    <path class="cls-2" d="M36.49,46.9s-.06.02-.08.05c-.43,1.17-.96,2.67-1.14,3.39-.2-.02-.42-.03-.88-.03-.49,0-.97.03-1.14.06.42-.82,1.05-2.19,1.82-3.97l3.09-7.2c.26-.57.34-.74.45-.74.09,0,.2.14.46.74.2.45,1.76,3.9,3.11,6.99.73,1.64,1.59,3.51,2.04,4.16-.4-.02-.8-.03-1-.03-.56,0-1.19.03-1.44.06-.26-.71-.96-2.41-1.39-3.42-.02-.03-.02-.05-.06-.05h-3.83ZM39.84,45.63s.06-.02.05-.06l-1.55-3.83-1.47,3.83s-.02.06.03.06h2.94Z"/>
    <path class="cls-2" d="M46.52,41.07c.09-.87.19-1.65.29-2.38.03-.2.06-.25.12-.25s.12.11.22.26c.32.48.97,1.68,1.45,2.47l3.35,5.95,2.8-5.04c1-1.62,1.42-2.38,1.85-3.2.23-.37.31-.45.39-.45s.11.06.15.46c.09.76.17,1.59.26,2.41.39,3.6.88,8.04,1.14,9.01-.15-.02-.45-.03-.96-.03-.54,0-1.07.02-1.33.06,0-1.17-.34-5.09-.49-7.59-1.27,2.43-2.89,5.27-3.97,7.53-.09.22-.15.2-.25.02-1.22-2.58-2.77-5.33-3.82-7.53-.17,2.57-.48,6.41-.48,7.54-.23-.03-.65-.03-.83-.03-.54,0-.94.03-1.16.06.23-.99.82-5.67,1.25-9.29Z"/>
    <path class="cls-2" d="M60,43.14c0-2.54-.08-4-.2-4.47.26.03.79.03,1.22.03h3.62c.43,0,1.13,0,1.42-.09-.06.31-.15.99-.15,1.73-.23-.14-.59-.23-1.44-.31-.51-.03-1.47-.06-2.47-.06-.02,0-.06.02-.06.05v3.43s.03.08.06.08c.29,0,1.87,0,2.38-.02.91-.03,1.22-.08,1.41-.14-.09.49-.15,1.33-.14,1.75-.26-.14-.54-.23-1.19-.28-.51-.03-2.1-.06-2.46-.06-.03,0-.06.03-.06.06v.85c0,2.74.03,3.15.11,3.22.05.05.22.09.36.11.42.05.83.06,1.48.06,1.33,0,2.12-.11,2.64-.36-.15.49-.31,1.22-.37,1.62-.06.05-.26.06-.87.06-2.09,0-3.29-.11-4.13-.11-.62,0-1.1.02-1.31.05.05-.57.15-2.23.15-4.48v-2.72Z"/>
    <path class="cls-2" d="M67.67,47.84c.49.65,1.56,1.39,2.81,1.39s1.85-.74,1.85-1.68c0-.77-.28-1.3-1.51-2.12l-.77-.51c-1.72-1.11-2.12-2.18-2.12-3.31,0-1.73,1.33-3.17,3.6-3.17.63,0,1.16.08,1.56.14.53.09.85.14.97.14-.05.17-.14,1.19-.14,2.01-.31-.36-1.05-1.02-2.43-1.02-1.07,0-1.72.66-1.72,1.48,0,.71.17,1.21,1.39,2.01l.76.49c1.9,1.25,2.38,2.15,2.38,3.42,0,.83-.39,2.06-1.5,2.78-.77.49-1.75.66-2.49.66-1.02,0-2.24-.26-2.81-.66.06-.26.17-1.39.15-2.06Z"/>
  </g>
  <g>
    <polygon class="cls-2" points="26.48 22.03 24.25 22.03 24.25 11.57 34.71 11.57 34.71 13.8 26.48 13.8 26.48 22.03"/>
    <polygon class="cls-2" points="64.75 22.03 62.52 22.03 62.52 13.8 54.29 13.8 54.29 11.57 64.75 11.57 64.75 22.03"/>
    <polygon class="cls-2" points="34.71 77.43 24.25 77.43 24.25 66.97 26.48 66.97 26.48 75.2 34.71 75.2 34.71 77.43"/>
    <polygon class="cls-2" points="64.75 77.43 54.29 77.43 54.29 75.2 62.52 75.2 62.52 66.97 64.75 66.97 64.75 77.43"/>
  </g>
</svg>