<?xml version="1.0" encoding="UTF-8"?>
<svg id="_레이어_1" data-name="레이어 1" xmlns="http://www.w3.org/2000/svg" viewBox="0 0 34 34">
  <defs>
    <style>
      .cls-1 {
        fill: #f1f3f9;
      }
    </style>
  </defs>
  <g id="_레이어_1-2" data-name=" 레이어 1">
    <path class="cls-1" d="M6.9,17c0,2.15-1.3,3.45-3.45,3.45s-3.45-1.3-3.45-3.45,1.3-3.45,3.45-3.45,3.45,1.3,3.45,3.45Z"/>
  </g>
  <g id="_레이어_1-3" data-name=" 레이어 1">
    <path class="cls-1" d="M34,17c0,2.15-1.3,3.45-3.45,3.45s-3.45-1.3-3.45-3.45,1.3-3.45,3.45-3.45,3.45,1.3,3.45,3.45Z"/>
  </g>
  <g id="_레이어_1-4" data-name=" 레이어 1">
    <path class="cls-1" d="M24.97,17c0,2.15-1.3,3.45-3.45,3.45s-3.45-1.3-3.45-3.45,1.3-3.45,3.45-3.45,3.45,1.3,3.45,3.45Z"/>
  </g>
  <g id="_레이어_1-5" data-name=" 레이어 1">
    <path class="cls-1" d="M15.93,17c0,2.15-1.3,3.45-3.45,3.45s-3.45-1.3-3.45-3.45,1.3-3.45,3.45-3.45,3.45,1.3,3.45,3.45Z"/>
  </g>
</svg>