<svg id="레이어_5" data-name="레이어 5" xmlns="http://www.w3.org/2000/svg" viewBox="0 0 210 210"><defs><style>.cls-1{fill:#ffbc58;}.cls-2{fill:#ff6442;}.cls-3{fill:#216f9b;}.cls-4{isolation:isolate;}</style></defs><path class="cls-1" d="M143.9,126.46q1.26,3.26,2.3,6.57l2.73-2.72Q146.42,128.55,143.9,126.46Z"/><path class="cls-1" d="M165.52,130.82a3.22,3.22,0,0,0,2-.13,1.71,1.71,0,0,0,.13-.8,30.4,30.4,0,0,0-1.59-6.84,63.27,63.27,0,0,1-3.18-16c0-1.12,0-2.23,0-3.33L148.1,121.15a60.22,60.22,0,0,0,11.37,7.61A20.15,20.15,0,0,0,165.52,130.82Z"/><path class="cls-1" d="M27.63,34,34,27.63Q30.7,30.69,27.63,34Z"/><path class="cls-1" d="M178.49,30l1.5,1.5Q179.26,30.74,178.49,30Z"/><path class="cls-1" d="M182.37,176l-6.39,6.4Q179.31,179.32,182.37,176Z"/><path class="cls-1" d="M12.92,68.5l65-65A104.92,104.92,0,0,0,34,27.63L27.63,34A104.92,104.92,0,0,0,5.38,71.74C7.86,70.55,10.38,69.48,12.92,68.5Z"/><path class="cls-2" d="M77.89,3.53l-65,65a101.8,101.8,0,0,1,25.94-6.15L101.14.07A105.41,105.41,0,0,0,77.89,3.53Z"/><path class="cls-1" d="M105,0h0c-1.29,0-2.58,0-3.86.07L38.86,62.35a102.16,102.16,0,0,1,19.86-.08L119.93,1.05A106.44,106.44,0,0,0,105,0Z"/><path class="cls-3" d="M119.93,1.05,58.72,62.27a101.07,101.07,0,0,1,16.78,3L136.09,4.68A104.08,104.08,0,0,0,119.93,1.05Z"/><path class="cls-1" d="M136.09,4.68,75.5,65.26a100.48,100.48,0,0,1,11,3.61l.78-.71,30.66-26h0c.67-.56,1.35-1.1,2-1.6L150.3,10.25A104,104,0,0,0,136.09,4.68Z"/><path class="cls-2" d="M150.3,10.25,120,40.59a33.41,33.41,0,0,1,25.24-5.46l17.72-17.72A104.34,104.34,0,0,0,150.3,10.25Z"/><path class="cls-1" d="M162.92,17.41,145.2,35.13a39,39,0,0,1,14.24,5.54L174.14,26A106.15,106.15,0,0,0,162.92,17.41Z"/><path class="cls-3" d="M166.4,46.26a41,41,0,0,0-7-5.59L25.81,174.3l9.89,9.89L169.79,50.1A43.52,43.52,0,0,0,166.4,46.26Z"/><path class="cls-3" d="M159.44,40.67a41,41,0,0,1,7,5.59,43.52,43.52,0,0,1,3.39,3.84L184,35.86c-1.31-1.49-2.65-2.94-4-4.35l-1.5-1.5c-1.41-1.39-2.86-2.73-4.35-4Z"/><path class="cls-1" d="M184,35.86,169.79,50.1a39.42,39.42,0,0,1,6.73,13l16.07-16.07A106.15,106.15,0,0,0,184,35.86Z"/><path class="cls-2" d="M192.59,47.08,176.52,63.15a35.63,35.63,0,0,1,.34,19.44L199.75,59.7A104.34,104.34,0,0,0,192.59,47.08Z"/><path class="cls-1" d="M199.75,59.7,176.86,82.59a31.4,31.4,0,0,1-3.3,7.82,30.34,30.34,0,0,0-3.94,16.38c0,.89.1,1.77.2,2.62l35.5-35.5A104,104,0,0,0,199.75,59.7Z"/><path class="cls-3" d="M162,137l11.69-11.69c-.33-1.31-.75-2.71-1.19-4.2a65.28,65.28,0,0,1-2.7-11.69l-20.89,20.9a61,61,0,0,0,6.32,3.9A34.3,34.3,0,0,0,162,137Z"/><path class="cls-3" d="M155.25,134.21a61,61,0,0,1-6.32-3.9L146.2,133a101.51,101.51,0,0,1,3.63,16.15L162,137A34.3,34.3,0,0,1,155.25,134.21Z"/><path class="cls-3" d="M173.71,125.3,209,90.07a104.08,104.08,0,0,0-3.63-16.16l-35.5,35.5a65.28,65.28,0,0,0,2.7,11.69C173,122.59,173.38,124,173.71,125.3Z"/><path class="cls-1" d="M163.06,137.25a15.16,15.16,0,0,0,3.34.4A9.32,9.32,0,0,0,170,137c2.79-1.15,4.39-3.74,4.39-7.1a19.47,19.47,0,0,0-.68-4.59L162,137C162.37,137.09,162.72,137.18,163.06,137.25Z"/><path class="cls-1" d="M210,105h0A106.44,106.44,0,0,0,209,90.07L173.71,125.3a19.47,19.47,0,0,1,.68,4.59c0,3.36-1.6,6-4.39,7.1a9.32,9.32,0,0,1-3.6.66,15.16,15.16,0,0,1-3.34-.4c-.34-.07-.69-.16-1-.26l-12.19,12.19a102,102,0,0,1,.9,18.89l59.2-59.21C210,107.58,210,106.29,210,105Z"/><path class="cls-2" d="M150.73,168.07a101.55,101.55,0,0,1-3.9,23.67l59.64-59.63a105.41,105.41,0,0,0,3.46-23.25Z"/><path class="cls-1" d="M206.47,132.11l-59.64,59.63a102,102,0,0,1-4,11.23A105.28,105.28,0,0,0,176,182.38l6.39-6.4A104.88,104.88,0,0,0,206.47,132.11Z"/><path d="M143.9,126.46a68.29,68.29,0,0,0,11.35,7.75,32,32,0,0,0,7.81,3,15.16,15.16,0,0,0,3.34.4A9.32,9.32,0,0,0,170,137c2.79-1.15,4.39-3.74,4.39-7.1,0-2.53-.87-5.43-1.87-8.79a56.62,56.62,0,0,1-2.9-14.31,30.34,30.34,0,0,1,3.94-16.38c7.88-13.31,5.32-31.66-7.16-44.15-13.91-13.9-35.09-15.5-48.49-4.07h0l-30.66,26-.78.71A101.93,101.93,0,0,0,5.38,71.74,104.84,104.84,0,0,0,0,105H0A105,105,0,0,0,105,210h0a104.8,104.8,0,0,0,37.86-7A102,102,0,0,0,143.9,126.46Zm19-22.73c-.05,1.1-.06,2.21,0,3.33a63.27,63.27,0,0,0,3.18,16,30.4,30.4,0,0,1,1.59,6.84,1.71,1.71,0,0,1-.13.8,3.22,3.22,0,0,1-2,.13,20.15,20.15,0,0,1-6.05-2.06,60.22,60.22,0,0,1-11.37-7.61Z"/><path class="cls-1" d="M89.81,106.42a4.68,4.68,0,0,1-3.22-8.09l17.08-16.11A4.69,4.69,0,1,1,110.1,89L93,105.14A4.63,4.63,0,0,1,89.81,106.42Z"/><path class="cls-1" d="M85.65,92.58a3.81,3.81,0,0,1-2.55-6.64l18.48-16.6A3.81,3.81,0,0,1,106.67,75L88.19,91.61A3.81,3.81,0,0,1,85.65,92.58Z"/><path class="cls-1" d="M86.75,77.77a2.9,2.9,0,0,1-1.9-5.1l19.64-17a2.91,2.91,0,1,1,3.8,4.4l-19.64,17A2.9,2.9,0,0,1,86.75,77.77Z"/><g class="cls-4"><path class="cls-1" d="M170.3,65.35a6.08,6.08,0,0,1,.78,1.1l4.3,7.8c1.1,2,.62,3.86-1.09,4.16a5.15,5.15,0,0,1-4.31-2,6.45,6.45,0,0,1-.78-1.1l-4.3-7.8c-1.1-2-.62-3.87,1.09-4.16A5.15,5.15,0,0,1,170.3,65.35Z"/><path class="cls-1" d="M164,69.79a5.12,5.12,0,0,1,1.36,3l.39,10.55c.07,1.87-1.52,2.75-3.55,2a6.4,6.4,0,0,1-2.44-1.75,5.15,5.15,0,0,1-1.36-3L158,70c-.07-1.87,1.52-2.75,3.55-2A6.29,6.29,0,0,1,164,69.79Z"/></g><path class="cls-1" d="M154,66.58c1.3,1.48,1.75,3.33,1,4.44l-5.84,8.64c-.88,1.29-3.07,1.08-4.9-.48a7.23,7.23,0,0,1-.74-.72c-1.29-1.49-1.75-3.34-1-4.45l5.84-8.63c.87-1.3,3.07-1.09,4.9.47A6.29,6.29,0,0,1,154,66.58Z"/><path class="cls-1" d="M146.13,57.57a6.13,6.13,0,0,1,.61.81c1.24,2,.94,3.94-.67,4.39l-10.65,3c-1.37.39-3.26-.46-4.56-1.94a9.41,9.41,0,0,1-.6-.81c-1.24-2-.94-3.95.67-4.4l10.65-3C143,55.23,144.84,56.08,146.13,57.57Z"/><path class="cls-1" d="M172.89,57.76a4.71,4.71,0,0,1,1.34,3.55c-.24,1.72-2.07,2.26-4.09,1.2l-3.65-1.92a6.65,6.65,0,0,1-1.87-1.5,4.75,4.75,0,0,1-1.34-3.55c.25-1.72,2.08-2.26,4.09-1.2L171,56.26A6.51,6.51,0,0,1,172.89,57.76Z"/><path class="cls-1" d="M145.08,48.07a5.45,5.45,0,0,1,1.31,2.54c.35,2-1,3.14-3,2.63l-11.3-2.89a6.12,6.12,0,0,1-3-1.93,5.5,5.5,0,0,1-1.3-2.55c-.36-2,1-3.13,3-2.62l11.3,2.89A6.05,6.05,0,0,1,145.08,48.07Z"/><path class="cls-1" d="M160.24,43.2a5.74,5.74,0,0,1,1.16,2l1.19,3.65c.66,2-.37,3.48-2.29,3.27a5.77,5.77,0,0,1-3.51-2,5.88,5.88,0,0,1-1.16-2l-1.19-3.64c-.66-2,.36-3.49,2.29-3.28A5.77,5.77,0,0,1,160.24,43.2Z"/><path class="cls-1" d="M151.41,43.62c1.21,1.38,1.71,3.11,1.12,4.25-.72,1.41-2.85,1.39-4.74-.06l-7.39-5.64a7.46,7.46,0,0,1-1-.94c-1.2-1.39-1.7-3.11-1.12-4.25.73-1.42,2.85-1.39,4.75.06l7.38,5.64A6,6,0,0,1,151.41,43.62Z"/></svg>