<?xml version="1.0" encoding="utf-8"?>
<!-- Generator: Adobe Illustrator 26.4.0, SVG Export Plug-In . SVG Version: 6.00 Build 0)  -->
<svg version="1.1" id="레이어_5" xmlns="http://www.w3.org/2000/svg" xmlns:xlink="http://www.w3.org/1999/xlink" x="0px"
	 y="0px" viewBox="0 0 250 250" style="enable-background:new 0 0 250 250;" xml:space="preserve">
<style type="text/css">
	.st0{fill:#FFFFFF;}
	.st1{fill:#FFBC58;}
	.st2{fill:#FF6442;}
	.st3{fill:#216F9B;}
</style>
<circle class="st0" cx="125" cy="125" r="125"/>
<path class="st1" d="M163.9,146.5c0.8,2.2,1.6,4.4,2.3,6.6l2.7-2.7C167.3,149.1,165.6,147.9,163.9,146.5z"/>
<path class="st1" d="M185.5,150.8c0.7,0.2,1.4,0.1,2-0.1c0.1-0.3,0.2-0.5,0.1-0.8c-0.3-2.3-0.8-4.6-1.6-6.8
	c-1.7-5.2-2.8-10.6-3.2-16c0-1.1,0-2.2,0-3.3L168,141.2c3.5,3,7.3,5.5,11.4,7.6C181.4,149.8,183.4,150.5,185.5,150.8z"/>
<path class="st1" d="M47.6,54l6.4-6.4C51.8,49.7,49.7,51.8,47.6,54z"/>
<path class="st1" d="M198.5,50l1.5,1.5C199.5,51,199,50.5,198.5,50z"/>
<path class="st1" d="M202.4,196l-6.4,6.4C198.2,200.3,200.3,198.2,202.4,196z"/>
<path class="st1" d="M32.9,88.5l65-65C81.5,27.9,66.5,36.2,54,47.6L47.6,54C37.6,64.9,30,77.7,25.4,91.7
	C27.9,90.6,30.4,89.5,32.9,88.5z"/>
<path class="st2" d="M97.9,23.5l-65,65c8.3-3.2,17.1-5.2,25.9-6.2L121.1,20C113.3,20.4,105.5,21.5,97.9,23.5z"/>
<path class="st1" d="M125,20L125,20c-1.3,0-2.6,0-3.9,0.1L58.9,82.3c6.6-0.7,13.3-0.7,19.9-0.1L139.9,21C135,20.4,130,20,125,20z"/>
<path class="st3" d="M139.9,21L78.7,82.3c5.7,0.5,11.3,1.5,16.8,3l60.6-60.6C150.8,23,145.4,21.8,139.9,21z"/>
<path class="st1" d="M156.1,24.7L95.5,85.3c3.7,1,7.4,2.2,11,3.6l0.8-0.7l30.7-26l0,0c0.7-0.6,1.4-1.1,2-1.6l30.4-30.3
	C165.7,28,161,26.2,156.1,24.7z"/>
<path class="st2" d="M170.3,30.2L140,60.6c7.3-5.1,16.4-7.1,25.2-5.5L183,37.4C178.9,34.7,174.7,32.3,170.3,30.2z"/>
<path class="st1" d="M182.9,37.4l-17.7,17.7c5.1,0.9,9.9,2.8,14.2,5.5L194.1,46C190.6,42.9,186.8,40,182.9,37.4z"/>
<path class="st3" d="M186.4,66.3c-2.1-2.1-4.5-4-7-5.6L45.8,194.3l9.9,9.9L189.8,70.1C188.7,68.8,187.6,67.5,186.4,66.3z"/>
<path class="st3" d="M179.4,60.7c2.5,1.6,4.9,3.5,7,5.6c1.2,1.2,2.3,2.5,3.4,3.8L204,55.9c-1.3-1.5-2.6-2.9-4-4.3l-1.5-1.5
	c-1.4-1.4-2.9-2.7-4.4-4L179.4,60.7z"/>
<path class="st1" d="M204,55.9l-14.2,14.2c3,3.9,5.3,8.3,6.7,13L212.6,67C210,63.1,207.1,59.4,204,55.9z"/>
<path class="st2" d="M212.6,67.1l-16.1,16.1c1.9,6.3,2,13.1,0.3,19.4l22.9-22.9C217.7,75.3,215.3,71.1,212.6,67.1z"/>
<path class="st1" d="M219.8,79.7l-22.9,22.9c-0.7,2.7-1.9,5.4-3.3,7.8c-2.8,5-4.2,10.7-3.9,16.4c0,0.9,0.1,1.8,0.2,2.6l35.5-35.5
	C223.8,89,222,84.3,219.8,79.7z"/>
<path class="st3" d="M182,157l11.7-11.7c-0.3-1.3-0.8-2.7-1.2-4.2c-1.3-3.8-2.2-7.7-2.7-11.7l-20.9,20.9c2,1.4,4.1,2.7,6.3,3.9
	C177.4,155.4,179.7,156.3,182,157z"/>
<path class="st3" d="M175.2,154.2c-2.2-1.2-4.3-2.5-6.3-3.9l-2.7,2.7c1.6,5.3,2.9,10.7,3.6,16.1L182,157
	C179.7,156.3,177.4,155.4,175.2,154.2z"/>
<path class="st3" d="M193.7,145.3l35.3-35.2c-0.8-5.5-2-10.9-3.6-16.2l-35.5,35.5c0.5,4,1.4,7.9,2.7,11.7
	C193,142.6,193.4,144,193.7,145.3z"/>
<path class="st1" d="M183.1,157.2c1.1,0.3,2.2,0.4,3.3,0.4c1.2,0,2.5-0.2,3.6-0.6c2.8-1.1,4.4-3.7,4.4-7.1c0-1.6-0.3-3.1-0.7-4.6
	L182,157C182.4,157.1,182.7,157.2,183.1,157.2z"/>
<path class="st1" d="M230,125L230,125c0-5-0.3-10-1-14.9l-35.3,35.2c0.4,1.5,0.6,3,0.7,4.6c0,3.4-1.6,6-4.4,7.1
	c-1.1,0.5-2.4,0.7-3.6,0.7c-1.1,0-2.2-0.1-3.3-0.4c-0.3-0.1-0.7-0.2-1-0.3l-12.2,12.2c0.9,6.3,1.2,12.6,0.9,18.9l59.2-59.2
	C230,127.6,230,126.3,230,125z"/>
<path class="st2" d="M170.7,188.1c-0.4,8-1.7,16-3.9,23.7l59.6-59.6c2-7.6,3.2-15.4,3.5-23.2L170.7,188.1z"/>
<path class="st1" d="M226.5,152.1l-59.6,59.6c-1.1,3.8-2.4,7.6-4,11.2c12.2-4.7,23.5-11.7,33.2-20.6l6.4-6.4
	C213.8,183.5,222.1,168.5,226.5,152.1z"/>
<path d="M163.9,146.5c3.5,3,7.3,5.6,11.4,7.8c2.5,1.3,5.1,2.3,7.8,3c1.1,0.3,2.2,0.4,3.3,0.4c1.2,0,2.5-0.2,3.6-0.6
	c2.8-1.1,4.4-3.7,4.4-7.1c0-2.5-0.9-5.4-1.9-8.8c-1.6-4.6-2.6-9.4-2.9-14.3c-0.3-5.7,1.1-11.4,3.9-16.4c7.9-13.3,5.3-31.7-7.2-44.2
	c-13.9-13.9-35.1-15.5-48.5-4.1l0,0l-30.7,26l-0.8,0.7C80,78.6,50.7,79.6,25.2,91.7c-3.6,10.7-5.4,22-5.4,33.3l0,0
	c0,58,47,105,105,105l0,0c12.9,0,25.8-2.3,37.9-7C173.1,198.6,173.5,171.1,163.9,146.5z M182.9,123.7c-0.1,1.1-0.1,2.2,0,3.3
	c0.4,5.4,1.4,10.8,3.2,16c0.8,2.2,1.3,4.5,1.6,6.8c0,0.3,0,0.5-0.1,0.8c-0.6,0.3-1.3,0.3-2,0.1c-2.1-0.4-4.2-1.1-6.1-2.1
	c-4.1-2.1-7.9-4.6-11.4-7.6L182.9,123.7z"/>
<path class="st1" d="M109.8,126.4c-2.6,0-4.7-2.1-4.7-4.7c0-1.3,0.5-2.5,1.5-3.4l17.1-16.1c1.7-1.9,4.7-2.1,6.6-0.4s2.1,4.7,0.4,6.6
	c-0.2,0.2-0.4,0.4-0.6,0.6L113,125.1C112.1,126,111,126.4,109.8,126.4z"/>
<path class="st1" d="M105.7,112.6c-2.1,0-3.8-1.7-3.8-3.8c0-1.1,0.5-2.1,1.3-2.8l18.5-16.6c1.6-1.3,4-1.1,5.4,0.5
	c1.2,1.5,1.1,3.7-0.3,5.1l-18.5,16.6C107.5,112.2,106.6,112.6,105.7,112.6z"/>
<path class="st1" d="M106.8,97.8c-1.6,0-2.9-1.3-2.9-2.9c0-0.8,0.4-1.7,1-2.2l19.6-17c1.2-1.1,3-1.1,4.1,0.1s1.1,3-0.1,4.1
	c-0.1,0.1-0.1,0.1-0.2,0.2l-19.6,17C108.1,97.5,107.4,97.8,106.8,97.8z"/>
<g>
	<path class="st1" d="M190.3,85.3c0.3,0.3,0.6,0.7,0.8,1.1l4.3,7.8c1.1,2,0.6,3.9-1.1,4.2c-1.7,0.1-3.3-0.7-4.3-2
		c-0.3-0.3-0.6-0.7-0.8-1.1l-4.3-7.8c-1.1-2-0.6-3.9,1.1-4.2C187.7,83.3,189.3,84,190.3,85.3z"/>
	<path class="st1" d="M184,89.8c0.8,0.8,1.2,1.9,1.4,3l0.4,10.6c0.1,1.9-1.5,2.8-3.6,2c-0.9-0.4-1.8-1-2.4-1.8
		c-0.8-0.8-1.2-1.9-1.4-3L178,90c-0.1-1.9,1.5-2.8,3.6-2C182.5,88.4,183.3,89,184,89.8z"/>
</g>
<path class="st1" d="M174,86.6c1.3,1.5,1.8,3.3,1,4.4l-5.8,8.6c-0.9,1.3-3.1,1.1-4.9-0.5c-0.3-0.2-0.5-0.5-0.7-0.7
	c-1.3-1.5-1.8-3.3-1-4.4l5.8-8.6c0.9-1.3,3.1-1.1,4.9,0.5C173.5,86.1,173.8,86.3,174,86.6z"/>
<path class="st1" d="M166.1,77.6c0.2,0.3,0.4,0.5,0.6,0.8c1.2,2,0.9,3.9-0.7,4.4l-10.6,3c-1.4,0.4-3.3-0.5-4.6-1.9
	c-0.2-0.3-0.4-0.5-0.6-0.8c-1.2-2-0.9-3.9,0.7-4.4l10.6-3C163,75.2,164.8,76.1,166.1,77.6z"/>
<path class="st1" d="M192.9,77.8c0.9,0.9,1.4,2.2,1.3,3.6c-0.2,1.7-2.1,2.3-4.1,1.2l-3.6-1.9c-0.7-0.4-1.3-0.9-1.9-1.5
	c-0.9-0.9-1.4-2.2-1.3-3.5c0.2-1.7,2.1-2.3,4.1-1.2l3.6,1.9C191.7,76.6,192.4,77.1,192.9,77.8z"/>
<path class="st1" d="M165.1,68.1c0.7,0.7,1.1,1.6,1.3,2.5c0.4,2-1,3.1-3,2.6l-11.3-2.9c-1.2-0.3-2.2-1-3-1.9
	c-0.7-0.7-1.1-1.6-1.3-2.5c-0.4-2,1-3.1,3-2.6l11.3,2.9C163.3,66.5,164.3,67.1,165.1,68.1z"/>
<path class="st1" d="M180.2,63.2c0.5,0.6,0.9,1.3,1.2,2l1.2,3.7c0.7,2-0.4,3.5-2.3,3.3c-1.4-0.2-2.6-0.9-3.5-2
	c-0.5-0.6-0.9-1.3-1.2-2l-1.2-3.6c-0.7-2,0.4-3.5,2.3-3.3C178.1,61.4,179.3,62.1,180.2,63.2z"/>
<path class="st1" d="M171.4,63.6c1.2,1.4,1.7,3.1,1.1,4.2c-0.7,1.4-2.9,1.4-4.7-0.1l-7.4-5.6c-0.4-0.3-0.7-0.6-1-0.9
	c-1.2-1.4-1.7-3.1-1.1-4.2c0.7-1.4,2.9-1.4,4.8,0.1l7.4,5.6C170.8,63,171.1,63.3,171.4,63.6z"/>
</svg>
