<svg id="레이어_5" data-name="레이어 5" xmlns="http://www.w3.org/2000/svg" viewBox="0 0 1482.75 1482.75"><defs><style>.cls-1{fill:#ffbc58;}.cls-2{fill:#216f9b;}.cls-3{fill:#ff6442;}</style></defs><path class="cls-1" d="M689.08,143.66h0L682.54,69h0a678.86,678.86,0,0,0-115.9,20.33l19.42,72.45A604.29,604.29,0,0,1,689.08,143.66Z"/><path class="cls-2" d="M793.67,143.57l6.54-74.73A679.09,679.09,0,0,0,682.54,69l6.54,74.71A603.9,603.9,0,0,1,793.67,143.57Z"/><path class="cls-3" d="M487.73,197.45a595.72,595.72,0,0,1,98.33-35.72L566.64,89.28A669.94,669.94,0,0,0,456,129.46Z"/><path class="cls-1" d="M487.73,197.45l-31.7-68a670.82,670.82,0,0,0-101.88,58.91l43,61.44A598.38,598.38,0,0,1,487.73,197.45Z"/><path class="cls-2" d="M317.1,317.11a602.33,602.33,0,0,1,80.07-67.3l-43-61.44a676.36,676.36,0,0,0-90.08,75.71Z"/><path class="cls-1" d="M317.1,317.11l-53-53a678.46,678.46,0,0,0-75.63,90.13l61.44,43A603.28,603.28,0,0,1,317.1,317.11Z"/><path class="cls-3" d="M197.5,487.77a602,602,0,0,1,52.38-90.54l-61.44-43a676.27,676.27,0,0,0-58.92,101.86Z"/><path class="cls-1" d="M197.5,487.77l-68-31.7A670.8,670.8,0,0,0,89.2,566.63l72.46,19.42A597.34,597.34,0,0,1,197.5,487.77Z"/><path class="cls-2" d="M143.56,689.08a596.23,596.23,0,0,1,18.1-103L89.2,566.63A670.7,670.7,0,0,0,68.84,682.54Z"/><path class="cls-1" d="M143.56,689.08l-74.72-6.54a679.08,679.08,0,0,0,.1,117.67l74.71-6.54A604.89,604.89,0,0,1,143.56,689.08Z"/><path class="cls-1" d="M916.12,89.21A669.76,669.76,0,0,0,800.21,68.84l-6.54,74.73a595.28,595.28,0,0,1,103,18.1Z"/><path class="cls-3" d="M995,197.51l31.7-68A670.8,670.8,0,0,0,916.12,89.21L896.7,161.67A596.43,596.43,0,0,1,995,197.51Z"/><path class="cls-1" d="M1128.54,188.45a676.76,676.76,0,0,0-101.86-58.92l-31.7,68a601,601,0,0,1,90.54,52.37Z"/><path class="cls-2" d="M1165.64,317.11l53-53a678.46,678.46,0,0,0-90.13-75.63l-43,61.43A604.11,604.11,0,0,1,1165.64,317.11Z"/><path class="cls-1" d="M1294.38,354.15a676.27,676.27,0,0,0-75.71-90.07l-53,53a601.06,601.06,0,0,1,67.3,80.07Z"/><path class="cls-3" d="M1285.3,487.74l68-31.7a671.4,671.4,0,0,0-58.91-101.89l-61.44,43A597.89,597.89,0,0,1,1285.3,487.74Z"/><path class="cls-1" d="M1393.47,566.65A670.52,670.52,0,0,0,1353.29,456l-68,31.7A595.58,595.58,0,0,1,1321,586.06Z"/><path class="cls-2" d="M1339.09,689.08l74.71-6.53a678.69,678.69,0,0,0-20.33-115.9L1321,586.06A603.49,603.49,0,0,1,1339.09,689.08Z"/><path class="cls-3" d="M161.73,896.69a603.32,603.32,0,0,1-18.08-103l-74.71,6.54a679.84,679.84,0,0,0,20.33,115.9Z"/><path class="cls-1" d="M161.73,896.69,89.27,916.11a670.85,670.85,0,0,0,40.18,110.61l68-31.71A595.25,595.25,0,0,1,161.73,896.69Z"/><path class="cls-2" d="M249.8,1085.58A598,598,0,0,1,197.44,995l-68,31.71a672.14,672.14,0,0,0,58.91,101.88Z"/><path class="cls-1" d="M249.8,1085.58l-61.44,43a676.36,676.36,0,0,0,75.71,90.08l53-53A602.33,602.33,0,0,1,249.8,1085.58Z"/><path class="cls-3" d="M354.2,1294.31l43-61.44a603.28,603.28,0,0,1-80.12-67.22l-53,53A678.46,678.46,0,0,0,354.2,1294.31Z"/><path class="cls-1" d="M397.22,1232.87l-43,61.44a676.76,676.76,0,0,0,101.86,58.92l31.7-68A602,602,0,0,1,397.22,1232.87Z"/><path class="cls-2" d="M586,1321.09a598.25,598.25,0,0,1-98.28-35.84l-31.7,68a671.13,671.13,0,0,0,110.56,40.32Z"/><path class="cls-1" d="M586,1321.09l-19.42,72.46a670.7,670.7,0,0,0,115.91,20.36l6.54-74.73A595.43,595.43,0,0,1,586,1321.09Z"/><path class="cls-1" d="M1339.18,793.68l74.72,6.54a678.09,678.09,0,0,0-.1-117.67l-74.71,6.53A604,604,0,0,1,1339.18,793.68Z"/><path class="cls-3" d="M1321.08,896.71l72.46,19.42a668.8,668.8,0,0,0,20.36-115.91l-74.72-6.54A595.45,595.45,0,0,1,1321.08,896.71Z"/><path class="cls-1" d="M1353.22,1026.69a671.47,671.47,0,0,0,40.32-110.56l-72.46-19.42A596.76,596.76,0,0,1,1285.24,995Z"/><path class="cls-2" d="M1232.87,1085.53l61.44,43a677.2,677.2,0,0,0,58.91-101.86l-68-31.7A601.53,601.53,0,0,1,1232.87,1085.53Z"/><path class="cls-1" d="M1165.64,1165.65l53,53a679.94,679.94,0,0,0,75.64-90.13l-61.44-43A604.75,604.75,0,0,1,1165.64,1165.65Z"/><path class="cls-3" d="M1085.57,1232.94l43,61.45a675.64,675.64,0,0,0,90.07-75.71l-53-53A601,601,0,0,1,1085.57,1232.94Z"/><path class="cls-1" d="M1026.72,1353.3a672.63,672.63,0,0,0,101.88-58.91l-43-61.45A596.21,596.21,0,0,1,995,1285.3Z"/><path class="cls-2" d="M896.69,1321l19.41,72.46a671,671,0,0,0,110.62-40.18l-31.71-68A595.61,595.61,0,0,1,896.69,1321Z"/><path class="cls-3" d="M793.66,1339.09a602.9,602.9,0,0,1-104.59.09l-6.54,74.73a680.08,680.08,0,0,0,117.67-.1Z"/><path class="cls-1" d="M800.2,1413.81a679.67,679.67,0,0,0,115.9-20.33L896.69,1321a603.43,603.43,0,0,1-103,18.07h0l6.54,74.72Z"/></svg>