<svg id="레이어_5" data-name="레이어 5" xmlns="http://www.w3.org/2000/svg" viewBox="0 0 600 600"><defs><style>.cls-1{fill:none;stroke:#000;stroke-miterlimit:10;}.cls-2{fill-rule:evenodd;}</style></defs><path d="M582,197.87l-70.44,25.64a225.18,225.18,0,0,1,13.45,77h75A299.57,299.57,0,0,0,582,197.87Z"/><path d="M582,403.14a299.49,299.49,0,0,1-52.18,90.19l-57.43-48.19a223.44,223.44,0,0,0,39.16-67.64Z"/><path d="M260.92,522.14,247.9,596A297.58,297.58,0,0,1,150,560.34l37.47-64.9A222.36,222.36,0,0,0,260.92,522.14Z"/><path d="M127.63,445.14l-57.44,48.2A299.63,299.63,0,0,1,18,403.14L88.47,377.5A223,223,0,0,0,127.63,445.14Z"/><path d="M88.46,223.51A225,225,0,0,0,75,300.5H0A299.57,299.57,0,0,1,18,197.87Z"/><path d="M187.45,105.56A226.18,226.18,0,0,0,140.9,141.4q-7,7-13.28,14.46L70.19,107.67a300.87,300.87,0,0,1,79.79-67Z"/><path d="M529.82,107.67l-57.44,48.2q-6.28-7.47-13.28-14.47a226.18,226.18,0,0,0-46.55-35.84L450,40.66A301.08,301.08,0,0,1,529.82,107.67Z"/><path class="cls-1" d="M450,560.34A297.52,297.52,0,0,1,352.11,596l-13-73.84a222.53,222.53,0,0,0,73.46-26.7Z"/><path class="cls-2" d="M450,560.34A297.52,297.52,0,0,1,352.11,596l-13-73.84a222.53,222.53,0,0,0,73.46-26.7Z"/><path class="cls-1" d="M352.11,5l-13,73.84a229,229,0,0,0-78.17,0L247.9,5A302.58,302.58,0,0,1,352.11,5Z"/><path class="cls-2" d="M352.11,5l-13,73.84a229,229,0,0,0-78.17,0L247.9,5A302.58,302.58,0,0,1,352.11,5Z"/></svg>