<svg xmlns="http://www.w3.org/2000/svg" viewBox="0 0 1247.32 159.38"><defs><style>.cls-1{fill:#3d444c;}</style></defs><g id="silitim"><path class="cls-1" d="M35.21,118.42a24.32,24.32,0,0,0,7.36,8.64A32,32,0,0,0,53.35,132a51.19,51.19,0,0,0,12.8,1.6,66.36,66.36,0,0,0,9.6-.75,33.42,33.42,0,0,0,9.6-2.88,20.89,20.89,0,0,0,7.47-5.87,14.72,14.72,0,0,0,3-9.49,13.37,13.37,0,0,0-4-10,31.16,31.16,0,0,0-10.35-6.4A102.38,102.38,0,0,0,67,93.67q-8.1-1.92-16.42-4.27a143.72,143.72,0,0,1-16.65-5.23,57.29,57.29,0,0,1-14.51-8A37.69,37.69,0,0,1,9.08,63.9q-4-7.36-3.95-17.81,0-11.73,5-20.38a45.45,45.45,0,0,1,13.12-14.4A57.35,57.35,0,0,1,41.61,2.77,78.49,78.49,0,0,1,62.1,0,96.76,96.76,0,0,1,85,2.67a57.3,57.3,0,0,1,19.53,8.64,43.91,43.91,0,0,1,13.55,15.25q5,9.29,5,22.51H90.69a27,27,0,0,0-2.88-11.3,18.94,18.94,0,0,0-6.51-7.05A27.64,27.64,0,0,0,72,27.1,57.27,57.27,0,0,0,60.6,26a39.8,39.8,0,0,0-8.1.85,21.79,21.79,0,0,0-7.37,3,18.56,18.56,0,0,0-5.44,5.33,14.37,14.37,0,0,0-2.13,8.11,13.69,13.69,0,0,0,1.71,7.26c1.13,1.85,3.37,3.55,6.72,5.12a85.61,85.61,0,0,0,13.87,4.69q8.85,2.35,23.15,6,4.26.86,11.84,3.09a56.7,56.7,0,0,1,15,7.15A45.52,45.52,0,0,1,122.8,89.72q5.45,8.22,5.44,21a46.55,46.55,0,0,1-4.05,19.41,42.28,42.28,0,0,1-12.06,15.47,58,58,0,0,1-19.84,10.14,94.15,94.15,0,0,1-27.42,3.62,96.34,96.34,0,0,1-24.43-3.09,61.48,61.48,0,0,1-20.91-9.71,47.89,47.89,0,0,1-14.4-16.85Q-.21,119.49,0,105.4H32.44A28,28,0,0,0,35.21,118.42Z"/><path class="cls-1" d="M145.73,28.59v-25H176v25ZM176,45.66V156h-30.3V45.66Z"/><path class="cls-1" d="M231.08,3.63V156h-30.3V3.63Z"/><path class="cls-1" d="M255.83,28.59v-25h30.29v25Zm30.29,17.07V156H255.83V45.66Z"/><path class="cls-1" d="M362.72,65.5a21.3,21.3,0,0,0-12.16,3.31,26.36,26.36,0,0,0-8,8.53,36.91,36.91,0,0,0-4.38,11.53,62.65,62.65,0,0,0-1.28,12.48,60.14,60.14,0,0,0,1.28,12.16,37.72,37.72,0,0,0,4.16,11.2,24,24,0,0,0,7.79,8.22,21.44,21.44,0,0,0,11.95,3.2q10.88,0,16.75-6.09t7.36-16.32h29.23q-3,22-17.07,33.5t-36.06,11.52a60.24,60.24,0,0,1-22.72-4.16A50.24,50.24,0,0,1,322,143a52.74,52.74,0,0,1-11.31-17.81,61.84,61.84,0,0,1-4.05-22.73,73.51,73.51,0,0,1,3.73-23.79,53.58,53.58,0,0,1,11-19A50.32,50.32,0,0,1,339,47.15a60.23,60.23,0,0,1,23.89-4.48,69.52,69.52,0,0,1,18.89,2.56A50.54,50.54,0,0,1,398,53a40.28,40.28,0,0,1,16.75,31.47H385.12Q382.14,65.5,362.72,65.5Z"/><path class="cls-1" d="M433.13,76.92a50.47,50.47,0,0,1,29.44-30.09A63.07,63.07,0,0,1,486,42.67a63.92,63.92,0,0,1,23.58,4.16,50.25,50.25,0,0,1,29.55,30.09,67.74,67.74,0,0,1,4.05,24,66.9,66.9,0,0,1-4.05,23.9,51.79,51.79,0,0,1-11.52,18.24,50.2,50.2,0,0,1-18,11.63A65.4,65.4,0,0,1,486,158.74a64.52,64.52,0,0,1-23.47-4.05,50.37,50.37,0,0,1-17.92-11.63,51.79,51.79,0,0,1-11.52-18.24,66.68,66.68,0,0,1-4.06-23.9A67.51,67.51,0,0,1,433.13,76.92Zm27.52,36.91A34.33,34.33,0,0,0,465,125.14a23.3,23.3,0,0,0,8.21,8,25.07,25.07,0,0,0,12.8,3,25.71,25.71,0,0,0,12.91-3,23.05,23.05,0,0,0,8.32-8,34.55,34.55,0,0,0,4.38-11.31,64.83,64.83,0,0,0,1.28-12.91,66.35,66.35,0,0,0-1.28-13,33.37,33.37,0,0,0-4.38-11.31,24.27,24.27,0,0,0-8.32-8A25,25,0,0,0,486,65.5a23.31,23.31,0,0,0-21,11.1,33.17,33.17,0,0,0-4.38,11.31,66.35,66.35,0,0,0-1.28,13A64.83,64.83,0,0,0,460.65,113.83Z"/><path class="cls-1" d="M591.66,45.66V61h.64a34.69,34.69,0,0,1,14.93-14A43.17,43.17,0,0,1,626,42.67q12.16,0,20,3.31a29.56,29.56,0,0,1,12.26,9.17,35.55,35.55,0,0,1,6.3,14.3,88.86,88.86,0,0,1,1.81,18.67V156H636V93.67q0-13.65-4.27-20.38t-15.15-6.72q-12.37,0-17.92,7.36t-5.55,24.22V156h-30.3V45.66Z"/><path class="cls-1" d="M666.33,31.79V3.63H791.15V31.79H745.49V156H712V31.79Z"/><path class="cls-1" d="M806.3,28.59v-25h30.3v25Zm30.3,17.07V156H806.3V45.66Z"/><path class="cls-1" d="M889.94,45.66V60.6h.42a43,43,0,0,1,14.41-13.23,39,39,0,0,1,19.31-4.7,44.44,44.44,0,0,1,19.09,4.06q8.64,4.05,13.12,14.29a47,47,0,0,1,13.34-12.8,35.45,35.45,0,0,1,20-5.55,58.9,58.9,0,0,1,16.21,2.14,32.77,32.77,0,0,1,12.81,6.82,31.44,31.44,0,0,1,8.32,12.27,49.78,49.78,0,0,1,3,18.24V156H999.61V93.45c0-3.69-.15-7.18-.43-10.45a22.33,22.33,0,0,0-2.35-8.54,14.35,14.35,0,0,0-5.65-5.76q-3.73-2.13-10.14-2.13T970.7,69a17.73,17.73,0,0,0-6.19,6.4,25.6,25.6,0,0,0-3,9,68.36,68.36,0,0,0-.75,10.13V156H930.48V94.09c0-3.27-.08-6.5-.22-9.7a27.07,27.07,0,0,0-1.81-8.86A13.68,13.68,0,0,0,923.11,69q-3.74-2.44-11-2.45a22.71,22.71,0,0,0-5.66,1,18.65,18.65,0,0,0-6.82,3.63A21.12,21.12,0,0,0,894,78.84q-2.36,5-2.35,13.12v64H861.35V45.66Z"/><path class="cls-1" d="M1086.23,129.51q6.82,6.62,19.63,6.62a27,27,0,0,0,15.79-4.59q6.61-4.59,8.11-9.71h26.67q-6.4,19.85-19.63,28.38t-32,8.53a62.87,62.87,0,0,1-23.47-4.16,48.79,48.79,0,0,1-17.71-11.84,53.14,53.14,0,0,1-11.2-18.35,67.17,67.17,0,0,1-4-23.47,64.15,64.15,0,0,1,4.06-23,53.31,53.31,0,0,1,29.34-30.73,57.2,57.2,0,0,1,22.93-4.48q14.09,0,24.54,5.44a49,49,0,0,1,17.17,14.62,59.93,59.93,0,0,1,9.71,20.91,78.18,78.18,0,0,1,2.14,24.54h-79.59Q1079.41,122.89,1086.23,129.51Zm34.24-58q-5.43-6-16.53-6A26.31,26.31,0,0,0,1091.88,68,22.85,22.85,0,0,0,1084.2,74a22.26,22.26,0,0,0-4,7.68,34.78,34.78,0,0,0-1.39,7.25h49.29Q1125.92,77.45,1120.47,71.48Z"/><path class="cls-1" d="M1205.07,45.66V66.14h.43a37.07,37.07,0,0,1,5.76-9.49,37.61,37.61,0,0,1,8.32-7.47,40.78,40.78,0,0,1,10-4.8,36.06,36.06,0,0,1,11.09-1.71,23.74,23.74,0,0,1,6.62,1.07V71.9c-1.43-.28-3.13-.53-5.12-.74a52.68,52.68,0,0,0-5.77-.32,32.28,32.28,0,0,0-14.08,2.77,24.41,24.41,0,0,0-9.28,7.57,30.31,30.31,0,0,0-5,11.21,60.65,60.65,0,0,0-1.5,13.86V156h-30.29V45.66Z"/></g></svg>