<svg id="백" xmlns="http://www.w3.org/2000/svg" viewBox="0 0 729.09 152.34"><defs><style>.cls-1{fill:#f5000c;}</style></defs><path class="cls-1" d="M3.05,112.08H82.48c6.75,0,10-3,10-8,0-4.79-3.26-7.84-10.23-7.84H46.14C20.68,96.19,0,78.78,0,48.1,0,12.84,24.16,0,48.53,0h90.1V40.26H60.94c-5.88,0-10,2.18-10,7.62,0,5.66,4.13,8,10,8h34c29.16,0,48.53,17.19,48.53,47.88,0,28.95-21.76,48.53-50.06,48.53h-91Z"/><path class="cls-1" d="M160.84,0h50.92V152.34H160.84Z"/><path class="cls-1" d="M307.31,96H283.37v56.36H232.44V0H340.17c30.9,0,49.62,17.85,49.62,48.31,0,20.24-13.49,36.57-31.56,43.75l36.57,60.28H339.52ZM283.37,56.15h47.22a7.88,7.88,0,0,0,8.27-8.27c0-5.44-3.48-7.84-8.27-7.84H283.37Z"/><path class="cls-1" d="M462.05,40V55.93h83.57V96.19H462.05V112.3h83.57v40H411.13V0H545.62V40Z"/><path class="cls-1" d="M565.22,0h50.92l60.5,79.22h1.53V0h50.92V152.34H678.17l-60.28-76.6h-1.75v76.6H565.22Z"/></svg>