<?xml version="1.0" encoding="utf-8"?>
<!-- Generator: Adobe Illustrator 26.1.0, SVG Export Plug-In . SVG Version: 6.00 Build 0)  -->
<svg version="1.1" id="레이어_1" xmlns="http://www.w3.org/2000/svg" xmlns:xlink="http://www.w3.org/1999/xlink" x="0px"
	 y="0px" viewBox="0 0 415.7 360" style="enable-background:new 0 0 415.7 360;" xml:space="preserve">
<style type="text/css">
	.st0{fill:#1C435E;}
</style>
<path class="st0" d="M103.9-15c8.3,0,15,6.7,15,15s-6.7,15-15,15s-15-6.7-15-15S95.6-15,103.9-15L103.9-15 M103.9-30
	c-16.6,0-30,13.4-30,30s13.4,30,30,30s30-13.4,30-30S120.5-30,103.9-30L103.9-30z M103.9-45c24.9,0,45,20.1,45,45s-20.1,45-45,45
	s-45-20.1-45-45c0-11.9,4.7-23.4,13.2-31.8C80.5-40.3,92-45,103.9-45 M103.9-60c-33.1,0-60,26.9-60,60s26.9,60,60,60s60-26.9,60-60
	S137.1-60,103.9-60z M311.8-15c8.3,0,15,6.7,15,15s-6.7,15-15,15s-15-6.7-15-15S303.5-15,311.8-15L311.8-15 M311.8-30
	c-16.6,0-30,13.4-30,30s13.4,30,30,30s30-13.4,30-30S328.3-30,311.8-30L311.8-30z M311.8-45c24.9,0,45,20.1,45,45s-20.1,45-45,45
	s-45-20.1-45-45c0-11.9,4.7-23.4,13.2-31.8C288.4-40.3,299.8-45,311.8-45 M311.8-60c-33.1,0-60,26.9-60,60s26.9,60,60,60
	s60-26.9,60-60S344.9-60,311.8-60z M0,165c8.3,0,15,6.7,15,15s-6.7,15-15,15s-15-6.7-15-15S-8.3,165,0,165L0,165 M0,150
	c-16.6,0-30,13.4-30,30s13.4,30,30,30s30-13.4,30-30l0,0C30,163.4,16.6,150,0,150z M0,135c24.9,0,45,20.1,45,45s-20.1,45-45,45
	s-45-20.1-45-45c0-11.9,4.7-23.4,13.2-31.8C-23.4,139.7-11.9,135,0,135 M0,120c-33.1,0-60,26.9-60,60s26.9,60,60,60s60-26.9,60-60
	l0,0C60,146.9,33.1,120,0,120z M100.2,60.1L44,116.2C45.9,86.1,70,62,100.2,60.1z M134.4,68.3l-82.2,82.2c-2.8-4.7-4.9-9.7-6.3-15
	L119.5,62C124.7,63.4,129.7,65.6,134.4,68.3z M155.6,89.5l-82.2,82.2c-4.4-2.6-8.4-5.7-11.9-9.3l84.8-84.8
	C149.9,81.1,153,85.2,155.6,89.5z M163.8,123.8l-56.1,56.1c-6.5,0.4-13-0.2-19.3-1.9l73.5-73.5C163.6,110.7,164.2,117.3,163.8,123.8
	z M56.4,39.5l-14.1,5.1C44.1,49.5,45,54.8,45,60h15C60,53,58.8,46.1,56.4,39.5z M56.4,80.5c-2.4,6.6-5.9,12.7-10.4,18l-11.5-9.6
	c3.4-4,6-8.6,7.8-13.5L56.4,80.5z M-7.8,104.3l-2.6,14.8c-6.9-1.2-13.5-3.6-19.6-7.1l7.5-13C-18,101.6-13,103.4-7.8,104.3z
	 M-34.5,88.9L-46,98.6c-4.5-5.3-8-11.4-10.4-18l14.1-5.1C-40.5,80.4-37.9,84.9-34.5,88.9z M-42.3,44.6C-44.1,49.5-45,54.8-45,60h-15
	c0-7,1.2-13.9,3.6-20.5L-42.3,44.6z M-22.5,21c-3.4,2-6.5,4.4-9.3,7.2c-0.9,0.9-1.8,1.9-2.7,2.9L-46,21.4c4.5-5.4,9.9-9.9,16-13.4
	L-22.5,21z M46,21.4L34.5,31c-0.8-1-1.7-2-2.7-2.9C29,25.4,25.9,23,22.5,21L30,8C36.1,11.5,41.5,16.1,46,21.4z M30,112
	c-6.1,3.5-12.7,5.9-19.6,7.1l-2.6-14.8c5.2-0.9,10.1-2.7,14.7-5.3L30,112z M10.4,0.9L7.8,15.7c-5.2-0.9-10.5-0.9-15.6,0l-2.6-14.8
	C-3.5-0.3,3.5-0.3,10.4,0.9z M207.9,165c8.3,0,15,6.7,15,15s-6.7,15-15,15s-15-6.7-15-15S199.6,165,207.9,165L207.9,165 M207.9,150
	c-16.6,0-30,13.4-30,30s13.4,30,30,30s30-13.4,30-30l0,0C237.9,163.4,224.4,150,207.9,150z M207.9,135c24.9,0,45,20.1,45,45
	s-20.1,45-45,45s-45-20.1-45-45c0-11.9,4.7-23.4,13.2-31.8C184.5,139.7,195.9,135,207.9,135 M207.9,120c-33.1,0-60,26.9-60,60
	s26.9,60,60,60s60-26.9,60-60l0,0C267.9,146.9,241,120,207.9,120z M308,60.1l-56.1,56.1C253.8,86.1,277.8,62,308,60.1z M342.3,68.3
	l-82.2,82.2c-2.8-4.7-4.9-9.7-6.3-15L327.3,62C332.6,63.4,337.6,65.6,342.3,68.3z M363.5,89.5l-82.2,82.2c-4.4-2.6-8.4-5.7-12-9.3
	l84.9-84.8C357.7,81.1,360.9,85.2,363.5,89.5z M371.7,123.8l-56.1,56.1c-6.5,0.4-13-0.2-19.3-1.9l73.5-73.5
	C371.4,110.7,372.1,117.3,371.7,123.8z M264.3,39.5l-14.1,5.1c1.8,4.9,2.7,10.1,2.7,15.4h15C267.9,53,266.6,46.1,264.3,39.5z
	 M264.3,80.5c-2.4,6.6-5.9,12.7-10.4,18l-11.5-9.6c3.4-4,6-8.6,7.8-13.5L264.3,80.5z M200,104.3l-2.6,14.8
	c-6.9-1.2-13.5-3.6-19.6-7.1l7.5-13C189.9,101.6,194.9,103.4,200,104.3z M173.4,88.9l-11.5,9.6c-4.5-5.3-8-11.4-10.4-18l14.1-5.1
	C167.3,80.4,170,84.9,173.4,88.9z M165.5,44.6c-1.8,4.9-2.7,10.1-2.7,15.4h-15c0-7,1.2-13.9,3.6-20.5L165.5,44.6z M185.4,21
	c-3.4,2-6.5,4.4-9.3,7.2c-0.9,0.9-1.8,1.9-2.7,2.9l-11.5-9.6c4.5-5.4,9.9-9.9,16-13.4L185.4,21z M253.8,21.4L242.3,31
	c-0.8-1-1.7-2-2.7-2.9c-2.8-2.8-5.9-5.2-9.3-7.2l7.5-13C243.9,11.5,249.3,16.1,253.8,21.4z M237.9,112c-6.1,3.5-12.7,5.9-19.6,7.1
	l-2.6-14.8c5.2-0.9,10.1-2.7,14.7-5.3L237.9,112z M218.3,0.9l-2.6,14.8c-5.2-0.9-10.5-0.9-15.6,0l-2.6-14.8
	C204.3-0.3,211.4-0.3,218.3,0.9z M415.7,165c8.3,0,15,6.7,15,15s-6.7,15-15,15s-15-6.7-15-15S407.4,165,415.7,165L415.7,165
	 M415.7,150c-16.6,0-30,13.4-30,30s13.4,30,30,30s30-13.4,30-30l0,0C445.7,163.4,432.3,150,415.7,150L415.7,150z M415.7,135
	c24.9,0,45,20.1,45,45s-20.1,45-45,45s-45-20.1-45-45c0-11.9,4.7-23.4,13.2-31.8C392.3,139.7,403.7,135,415.7,135 M415.7,120
	c-33.1,0-60,26.9-60,60s26.9,60,60,60s60-26.9,60-60l0,0C475.7,146.9,448.8,120,415.7,120L415.7,120z M472.1,39.5L458,44.6
	c1.8,4.9,2.7,10.1,2.7,15.4h15C475.7,53,474.5,46.1,472.1,39.5z M472.1,80.5c-2.4,6.6-5.9,12.7-10.4,18l-11.5-9.6
	c3.4-4,6-8.6,7.8-13.5L472.1,80.5z M407.9,104.3l-2.6,14.8c-6.9-1.2-13.5-3.6-19.6-7.1l7.5-13C397.7,101.6,402.7,103.4,407.9,104.3z
	 M381.2,88.9l-11.5,9.6c-4.5-5.3-8-11.4-10.4-18l14.1-5.1C375.2,80.4,377.8,84.9,381.2,88.9z M373.4,44.6
	c-1.8,4.9-2.7,10.1-2.7,15.4h-15c0-7,1.2-13.9,3.6-20.5L373.4,44.6z M393.2,21c-3.4,2-6.5,4.4-9.3,7.2c-0.9,0.9-1.8,1.9-2.7,2.9
	l-11.5-9.6c4.5-5.4,9.9-9.9,16-13.4L393.2,21z M461.7,21.4L450.2,31c-0.8-1-1.7-2-2.7-2.9c-2.8-2.8-5.9-5.2-9.3-7.2l7.5-13
	C451.8,11.5,457.2,16.1,461.7,21.4z M445.7,112c-6.1,3.5-12.7,5.9-19.6,7.1l-2.6-14.8c5.2-0.9,10.1-2.7,14.7-5.3L445.7,112z
	 M426.1,0.9l-2.6,14.8c-5.2-0.9-10.5-0.9-15.6,0l-2.6-14.8C412.2-0.3,419.2-0.3,426.1,0.9z M-3.8,240.1l-56.1,56.1
	C-58,266.1-33.9,242-3.8,240.1z M30.5,248.3l-82.1,82.1c-2.8-4.7-4.9-9.7-6.3-15L15.6,242C20.8,243.4,25.8,245.6,30.5,248.3z
	 M51.7,269.5l-82.2,82.2c-4.4-2.6-8.4-5.7-12-9.3l84.9-84.8C46,261.1,49.1,265.2,51.7,269.5z M59.9,303.8L3.8,359.9
	c-6.5,0.4-13-0.2-19.3-1.9L58,284.5C59.6,290.7,60.3,297.3,59.9,303.8z M103.9,345c8.3,0,15,6.7,15,15s-6.7,15-15,15s-15-6.7-15-15
	S95.6,345,103.9,345L103.9,345 M103.9,330c-16.6,0-30,13.4-30,30s13.4,30,30,30s30-13.4,30-30S120.5,330,103.9,330L103.9,330z
	 M103.9,315c24.9,0,45,20.1,45,45s-20.1,45-45,45s-45-20.1-45-45c0-11.9,4.7-23.4,13.2-31.8C80.5,319.7,92,315,103.9,315 M103.9,300
	c-33.1,0-60,26.9-60,60s26.9,60,60,60s60-26.9,60-60S137.1,300,103.9,300L103.9,300z M204.1,240.1L148,296.2
	C149.9,266.1,173.9,242,204.1,240.1z M238.4,248.3l-82.2,82.2c-2.8-4.7-4.9-9.7-6.3-15l73.5-73.5
	C228.6,243.4,233.7,245.6,238.4,248.3z M259.5,269.5l-82.2,82.2c-4.4-2.6-8.4-5.7-11.9-9.3l84.8-84.8
	C253.8,261.1,257,265.2,259.5,269.5z M267.7,303.8l-56.1,56.1c-6.5,0.4-13-0.2-19.3-1.9l73.5-73.5
	C267.5,290.7,268.1,297.3,267.7,303.8z M160.4,219.5l-14.1,5.1c1.8,4.9,2.7,10.1,2.7,15.4h15C164,233,162.7,226.1,160.4,219.5z
	 M160.4,260.5c-2.4,6.6-5.9,12.7-10.4,18l-11.5-9.6c3.4-4,6-8.6,7.8-13.5L160.4,260.5z M96.1,284.3l-2.6,14.8
	c-6.9-1.2-13.5-3.6-19.6-7.1l7.5-13C86,281.6,90.9,283.4,96.1,284.3z M69.5,268.9L58,278.6c-4.5-5.3-8-11.4-10.4-18l14.1-5.1
	C63.4,260.4,66.1,264.9,69.5,268.9z M61.6,224.6c-1.8,4.9-2.7,10.1-2.7,15.4h-15c0-7,1.2-13.9,3.6-20.5L61.6,224.6z M81.4,201
	c-3.4,2-6.5,4.4-9.3,7.2c-0.9,0.9-1.8,1.9-2.7,2.9L58,201.4c4.5-5.4,9.9-9.9,16-13.4L81.4,201z M149.9,201.4l-11.5,9.6
	c-0.8-1-1.7-2-2.7-2.9c-2.8-2.8-5.9-5.2-9.3-7.2l7.5-13C140,191.5,145.4,196.1,149.9,201.4z M133.9,292c-6.1,3.5-12.7,5.9-19.6,7.1
	l-2.6-14.8c5.2-0.9,10.1-2.7,14.7-5.3L133.9,292z M114.4,180.9l-2.6,14.8c-5.2-0.9-10.5-0.9-15.6,0l-2.6-14.8
	C100.4,179.7,107.5,179.7,114.4,180.9z M311.8,345c8.3,0,15,6.7,15,15s-6.7,15-15,15s-15-6.7-15-15S303.5,345,311.8,345L311.8,345
	 M311.8,330c-16.6,0-30,13.4-30,30s13.4,30,30,30s30-13.4,30-30S328.3,330,311.8,330L311.8,330z M311.8,315c24.9,0,45,20.1,45,45
	s-20.1,45-45,45s-45-20.1-45-45c0-11.9,4.7-23.4,13.2-31.8C288.4,319.7,299.8,315,311.8,315 M311.8,300c-33.1,0-60,26.9-60,60
	s26.9,60,60,60s60-26.9,60-60S344.9,300,311.8,300L311.8,300z M411.9,240.1l-56.1,56.1C357.7,266.1,381.8,242,411.9,240.1z
	 M446.2,248.3L364,330.5c-2.8-4.7-4.9-9.7-6.3-15l73.5-73.5C436.5,243.4,441.5,245.6,446.2,248.3z M467.4,269.5l-82.2,82.2
	c-4.4-2.6-8.4-5.7-11.9-9.3l84.8-84.8C461.7,261.1,464.8,265.2,467.4,269.5z M475.6,303.8l-56.1,56.1c-6.5,0.4-13-0.2-19.3-1.9
	l73.5-73.5C475.3,290.7,476,297.3,475.6,303.8z M368.2,219.5l-14.1,5.1c1.8,4.9,2.7,10.1,2.7,15.4h15
	C371.8,233,370.6,226.1,368.2,219.5z M368.2,260.5c-2.4,6.6-5.9,12.7-10.4,18l-11.5-9.6c3.4-4,6-8.6,7.8-13.5L368.2,260.5z
	 M304,284.3l-2.6,14.8c-6.9-1.2-13.5-3.6-19.6-7.1l7.5-13C293.8,281.6,298.8,283.4,304,284.3z M277.4,268.9l-11.5,9.6
	c-4.5-5.3-8-11.4-10.4-18l14.1-5.1C271.3,260.4,274,264.9,277.4,268.9z M269.5,224.6c-1.8,4.9-2.7,10.1-2.7,15.4h-15
	c0-7,1.2-13.9,3.6-20.5L269.5,224.6z M289.3,201c-3.4,2-6.5,4.4-9.3,7.2c-0.9,0.9-1.8,1.9-2.7,2.9l-11.5-9.6
	c4.5-5.4,9.9-9.9,16-13.4L289.3,201z M357.7,201.4l-11.5,9.6c-0.8-1-1.7-2-2.7-2.9c-2.8-2.8-5.9-5.2-9.3-7.2l7.5-13
	C347.8,191.5,353.2,196.1,357.7,201.4z M341.8,292c-6.1,3.5-12.7,5.9-19.6,7.1l-2.6-14.8c5.2-0.9,10.1-2.7,14.7-5.3L341.8,292z
	 M322.2,180.9l-2.6,14.8c-5.2-0.9-10.5-0.9-15.6,0l-2.6-14.8C308.2,179.7,315.3,179.7,322.2,180.9z"/>
</svg>
