<?xml version="1.0" encoding="utf-8"?>
<!-- Generator: Adobe Illustrator 26.1.0, SVG Export Plug-In . SVG Version: 6.00 Build 0)  -->
<svg version="1.1" id="레이어_1" xmlns="http://www.w3.org/2000/svg" xmlns:xlink="http://www.w3.org/1999/xlink" x="0px"
	 y="0px" viewBox="0 0 415.7 360" style="enable-background:new 0 0 415.7 360;" xml:space="preserve">
<style type="text/css">
	.st0{opacity:3.000000e-02;fill:#1C435E;}
</style>
<g>
	<path class="st0" d="M230.4,99c-4.6,2.6-9.5,4.4-14.7,5.3l2.6,14.8c6.9-1.2,13.5-3.6,19.6-7.1L230.4,99z"/>
	<path class="st0" d="M342.3,68.3c-4.7-2.7-9.7-4.9-15-6.3l-73.5,73.5c1.2,4.6,3,9,5.3,13.2c0.4,0.6,0.7,1.2,1.1,1.8L342.3,68.3z"/>
	<path class="st0" d="M164,240c0-7-1.3-13.9-3.6-20.5l-14.1,5.1c1.8,4.9,2.7,10.1,2.7,15.4H164z"/>
	<path class="st0" d="M269.5,224.6l-14.1-5.1c-2.4,6.6-3.6,13.5-3.6,20.5h15C266.8,234.7,267.7,229.5,269.5,224.6z"/>
	<path class="st0" d="M111.8,195.7l2.6-14.8c-3.4-0.6-6.8-0.9-10.1-0.9c1.1,0,2.3,0,3.4-0.1l56.1-56.1c0.4-6.5-0.2-13.1-1.9-19.3
		L88.4,178c5,1.3,10.1,2,15.2,2c-3.4,0-6.7,0.3-10,0.9l2.6,14.8C101.3,194.8,106.6,194.8,111.8,195.7z"/>
	<path class="st0" d="M138.4,211l11.5-9.6c-4.5-5.3-9.9-9.9-16-13.5l-7.5,13c3.4,2,6.5,4.4,9.3,7.2C136.7,209,137.6,210,138.4,211z"
		/>
	<path class="st0" d="M133.9,292l-7.5-13c-4.6,2.6-9.5,4.4-14.7,5.3l2.6,14.8C121.2,297.9,127.8,295.5,133.9,292z"/>
	<path class="st0" d="M238.4,248.3c-4.7-2.7-9.8-4.9-15-6.3l-73.5,73.5c1.4,5.3,3.5,10.3,6.3,15L238.4,248.3z"/>
	<path class="st0" d="M264.3,39.5l-14.1,5.1c1.8,4.9,2.7,10.1,2.7,15.4h15C267.9,53,266.6,46.1,264.3,39.5z"/>
	<path class="st0" d="M185.3,99l-7.5,13c6.1,3.5,12.7,5.9,19.6,7.1l2.6-14.8C194.9,103.4,189.9,101.6,185.3,99z"/>
	<path class="st0" d="M96.1,284.3c-5.2-0.9-10.1-2.7-14.7-5.3l-7.5,13c6.1,3.5,12.7,5.9,19.6,7.1L96.1,284.3z"/>
	<path class="st0" d="M267.9,180c0-10.7-2.8-20.8-7.8-29.5l0,0c-0.4-0.6-0.7-1.2-1-1.8c-10.6-17.2-29.5-28.7-51.2-28.7
		c-33.1,0-60,26.9-60,60c0,33.1,26.9,60,60,60C241,240,267.9,213.1,267.9,180z M207.9,225c-24.9,0-45-20.1-45-45
		c0-11.9,4.7-23.4,13.2-31.8c8.4-8.5,19.8-13.2,31.8-13.2c24.9,0,45,20.1,45,45C252.9,204.9,232.8,225,207.9,225z"/>
	<path class="st0" d="M242.4,88.9l11.5,9.6c1.9-2.3,3.7-4.7,5.2-7.2c-4.1,7.5-6.6,15.9-7.2,24.9L308,60.1
		c-20.1,1.3-37.5,12.4-47.4,28.6c1.4-2.6,2.7-5.4,3.7-8.2l-14.1-5.1C248.4,80.3,245.8,84.9,242.4,88.9z"/>
	<path class="st0" d="M415.7,120c-33.1,0-60,26.9-60,60c0,33.1,26.9,60,60,60c33.1,0,60-26.9,60-60C475.7,146.9,448.8,120,415.7,120
		z M415.7,225c-24.9,0-45-20.1-45-45c0-11.9,4.7-23.4,13.2-31.8c8.4-8.5,19.8-13.2,31.8-13.2c24.9,0,45,20.1,45,45
		C460.7,204.9,440.6,225,415.7,225z"/>
	<path class="st0" d="M207.9,150c-16.6,0-30,13.4-30,30c0,16.6,13.4,30,30,30c16.6,0,30-13.4,30-30C237.9,163.4,224.4,150,207.9,150
		z M207.9,195c-8.3,0-15-6.7-15-15s6.7-15,15-15s15,6.7,15,15S216.2,195,207.9,195z"/>
	<path class="st0" d="M460.7,60h15c0-7-1.2-13.9-3.6-20.5L458,44.6C459.8,49.5,460.7,54.7,460.7,60z"/>
	<path class="st0" d="M385.7,112c6.1,3.5,12.7,5.9,19.6,7.1l2.6-14.8c-5.2-0.9-10.2-2.7-14.7-5.3L385.7,112z"/>
	<path class="st0" d="M61.5,162.4c3.5,3.6,7.5,6.7,11.9,9.3l82.2-82.2c-2.6-4.3-5.7-8.4-9.3-11.9L61.5,162.4z"/>
	<path class="st0" d="M423.5,15.7l2.6-14.8c-6.9-1.2-13.9-1.2-20.8,0l2.6,14.8C413,14.8,418.3,14.8,423.5,15.7z"/>
	<path class="st0" d="M411.9,240.1c-20.2,1.3-37.7,12.6-47.6,29c1.5-2.8,2.8-5.6,3.9-8.6l-14.1-5.1c-1.8,4.9-4.4,9.5-7.8,13.5
		l11.5,9.6c2-2.4,3.8-4.9,5.4-7.5c-4.2,7.6-6.8,16.1-7.4,25.2L411.9,240.1z"/>
	<path class="st0" d="M354.1,224.6c1.8,4.9,2.7,10.1,2.7,15.4h15c0-7-1.2-13.9-3.6-20.5L354.1,224.6z"/>
	<path class="st0" d="M450.2,88.9l11.5,9.6c4.5-5.3,8-11.4,10.4-18L458,75.4C456.2,80.3,453.6,84.9,450.2,88.9z"/>
	<path class="st0" d="M426.1,119.1c6.9-1.2,13.5-3.6,19.6-7.1l-7.5-13c-4.6,2.6-9.5,4.4-14.7,5.3L426.1,119.1z"/>
	<path class="st0" d="M277.4,268.9c-3.4-4-6.1-8.5-7.8-13.5l-14.1,5.1c2.4,6.6,5.9,12.7,10.4,18L277.4,268.9z"/>
	<path class="st0" d="M450.2,31l11.5-9.6c-4.5-5.3-9.9-9.9-16-13.5l-7.5,13c3.4,2,6.5,4.4,9.3,7.2C448.5,29,449.4,30,450.2,31z"/>
	<path class="st0" d="M381.2,31.1c0.9-1,1.8-2,2.7-2.9c2.8-2.8,5.9-5.2,9.3-7.2l-7.5-12.9c-6.1,3.5-11.5,8-16,13.4L381.2,31.1z"/>
	<path class="st0" d="M147.8,60h15c0-5.3,0.9-10.5,2.7-15.4l-14.1-5.1C149,46.1,147.8,53,147.8,60z"/>
	<path class="st0" d="M43.9,240h15c0-5.3,0.9-10.5,2.7-15.4l-14.1-5.1C45.1,226.1,43.9,233,43.9,240z"/>
	<path class="st0" d="M72.1,208.2c2.8-2.8,5.9-5.2,9.3-7.2L74,188c-6.1,3.5-11.5,8-16,13.4l11.4,9.7
		C70.3,210.1,71.2,209.1,72.1,208.2z"/>
	<path class="st0" d="M161.9,98.5l11.5-9.6c-3.4-4-6.1-8.5-7.8-13.5l-14.1,5.1C153.9,87.1,157.4,93.2,161.9,98.5z"/>
	<path class="st0" d="M341.7,187.9l-7.5,13c3.4,2,6.5,4.4,9.3,7.2c1,0.9,1.9,1.9,2.7,2.9l11.5-9.6
		C353.2,196.1,347.8,191.5,341.7,187.9z"/>
	<path class="st0" d="M204.1,240.1c-20.1,1.3-37.5,12.4-47.4,28.6c1.4-2.6,2.7-5.4,3.7-8.2l-14.1-5.1c-1.8,4.9-4.4,9.5-7.8,13.5
		l11.5,9.6c1.9-2.3,3.7-4.7,5.2-7.2c-4.1,7.5-6.6,15.9-7.2,24.9L204.1,240.1z"/>
	<path class="st0" d="M322.2,299.1c6.9-1.2,13.5-3.6,19.6-7.1l-7.5-13c-4.6,2.6-9.5,4.4-14.7,5.3L322.2,299.1z"/>
	<path class="st0" d="M369.8,104.5L296.3,178c4.9,1.3,10,2,15.1,2c-3.3,0-6.7,0.3-10,0.9l2.6,14.8c5.1-0.9,10.4-0.9,15.6,0l2.6-14.8
		c-3.3-0.6-6.7-0.9-10.1-0.9c1.2,0,2.4,0,3.5-0.1l56.1-56.1C372.1,117.3,371.4,110.7,369.8,104.5z"/>
	<path class="st0" d="M10.4,119.1c6.9-1.2,13.5-3.6,19.6-7.1l-7.5-13c-4.6,2.6-9.5,4.4-14.7,5.3L10.4,119.1z"/>
	<path class="st0" d="M364,330.5c-0.4-0.6-0.7-1.2-1-1.8c-10.6-17.2-29.5-28.7-51.2-28.7c-33.1,0-60,26.9-60,60
		c0,33.1,26.9,60,60,60c33.1,0,60-26.9,60-60C371.8,349.3,369,339.2,364,330.5L364,330.5z M311.8,405c-24.9,0-45-20.1-45-45
		c0-11.9,4.7-23.4,13.2-31.8c8.4-8.5,19.8-13.2,31.8-13.2c24.9,0,45,20.1,45,45C356.8,384.9,336.7,405,311.8,405z"/>
	<path class="st0" d="M0,240c33.1,0,60-26.9,60-60c0-10.7-2.8-20.8-7.8-29.5l0,0c-0.4-0.6-0.7-1.2-1-1.8C40.6,131.5,21.6,120,0,120
		c-33.1,0-60,26.9-60,60C-60,213.1-33.1,240,0,240z M-31.8,148.2C-23.4,139.7-11.9,135,0,135c24.9,0,45,20.1,45,45
		c0,24.9-20.1,45-45,45c-24.9,0-45-20.1-45-45C-45,168.1-40.3,156.6-31.8,148.2z"/>
	<path class="st0" d="M0,210c16.6,0,30-13.4,30-30c0-16.6-13.4-30-30-30s-30,13.4-30,30C-30,196.6-16.6,210,0,210z M0,165
		c8.3,0,15,6.7,15,15s-6.7,15-15,15s-15-6.7-15-15S-8.3,165,0,165z"/>
	<path class="st0" d="M311.8,330c-16.6,0-30,13.4-30,30c0,16.6,13.4,30,30,30c16.6,0,30-13.4,30-30C341.8,343.4,328.3,330,311.8,330
		z M311.8,375c-8.3,0-15-6.7-15-15s6.7-15,15-15s15,6.7,15,15S320.1,375,311.8,375z"/>
	<path class="st0" d="M134.4,68.3c-4.7-2.7-9.7-4.9-14.9-6.3l-73.6,73.5c1.2,4.6,3,9,5.3,13.2c0.4,0.6,0.7,1.2,1.1,1.8L134.4,68.3z"
		/>
	<path class="st0" d="M-56.4,80.6c2.4,6.6,5.9,12.7,10.4,18l11.5-9.7c-3.4-4-6-8.5-7.8-13.4L-56.4,80.6z"/>
	<path class="st0" d="M7.8,15.7l2.6-14.8c-6.9-1.2-13.9-1.2-20.8,0l2.6,14.8C-2.7,14.8,2.6,14.8,7.8,15.7z"/>
	<path class="st0" d="M-31.8,28.2c2.8-2.8,5.9-5.2,9.3-7.2L-30,8c-6.1,3.5-11.5,8-16,13.4l11.5,9.7C-33.6,30.1-32.7,29.1-31.8,28.2z
		"/>
	<path class="st0" d="M-42.3,44.6l-14.1-5.1C-58.8,46.1-60,53-60,60h15C-45,54.8-44.1,49.5-42.3,44.6z"/>
	<path class="st0" d="M-30,112c6.1,3.5,12.7,5.9,19.6,7.1l2.6-14.8c-5.2-0.9-10.2-2.7-14.7-5.3L-30,112z"/>
	<path class="st0" d="M103.9,330c-16.6,0-30,13.4-30,30c0,16.6,13.4,30,30,30c16.6,0,30-13.4,30-30C133.9,343.4,120.5,330,103.9,330
		z M103.9,375c-8.3,0-15-6.7-15-15s6.7-15,15-15c8.3,0,15,6.7,15,15S112.2,375,103.9,375z"/>
	<path class="st0" d="M103.9,300c-33.1,0-60,26.9-60,60c0,33.1,26.9,60,60,60c33.1,0,60-26.9,60-60C163.9,326.9,137.1,300,103.9,300
		z M103.9,405c-24.9,0-45-20.1-45-45c0-11.9,4.7-23.4,13.2-31.8c8.4-8.5,19.9-13.2,31.8-13.2c24.9,0,45,20.1,45,45
		C148.9,384.9,128.8,405,103.9,405z"/>
	<path class="st0" d="M250.2,257.6l-84.8,84.8c3.5,3.6,7.5,6.7,11.9,9.3l82.2-82.2C257,265.2,253.8,261.1,250.2,257.6z"/>
	<path class="st0" d="M265.8,284.5L192.3,358c6.3,1.7,12.8,2.3,19.3,1.9l56.1-56.1C268.1,297.3,267.5,290.7,265.8,284.5z"/>
	<path class="st0" d="M-59.9,296.2l56.1-56.1C-33.9,242-58,266.1-59.9,296.2z"/>
	<path class="st0" d="M15.6,242l-73.5,73.4c1.4,5.3,3.5,10.3,6.3,15l82.1-82.1C25.8,245.6,20.8,243.4,15.6,242z"/>
	<path class="st0" d="M58,284.5L-15.5,358c6.3,1.7,12.8,2.3,19.3,1.9l56.1-56.1C60.3,297.3,59.6,290.7,58,284.5z"/>
	<path class="st0" d="M58,278.6l11.5-9.7c-3.4-4-6.1-8.5-7.8-13.4l-14.1,5.1c1.1,3.1,2.5,6,4,8.8c-2.6-4.3-5.7-8.3-9.2-11.8
		l-84.9,84.8c3.6,3.6,7.6,6.7,12,9.3l82.2-82.2C53.5,272.7,55.6,275.8,58,278.6z"/>
	<path class="st0" d="M56.4,39.5l-14.1,5.1C44.1,49.5,45,54.8,45,60h15C60,53,58.8,46.1,56.4,39.5z"/>
	<path class="st0" d="M215.7,15.7l2.6-14.8c-6.9-1.2-14-1.2-20.8,0l2.6,14.8C205.2,14.8,210.5,14.8,215.7,15.7z"/>
	<path class="st0" d="M311.8,60c33.1,0,60-26.9,60-60s-26.9-60-60-60c-33.1,0-60,26.9-60,60S278.7,60,311.8,60z M280-31.8
		c8.4-8.5,19.8-13.2,31.8-13.2c24.9,0,45,20.1,45,45s-20.1,45-45,45c-24.9,0-45-20.1-45-45C266.8-11.9,271.5-23.4,280-31.8z"/>
	<path class="st0" d="M242.3,31l11.5-9.6c-4.5-5.3-9.9-9.9-16-13.5l-7.5,13c3.4,2,6.5,4.4,9.3,7.2C240.6,29,241.5,30,242.3,31z"/>
	<path class="st0" d="M415.7,150c-16.6,0-30,13.4-30,30c0,16.6,13.4,30,30,30c16.6,0,30-13.4,30-30C445.7,163.4,432.3,150,415.7,150
		z M415.7,195c-8.3,0-15-6.7-15-15s6.7-15,15-15s15,6.7,15,15S424,195,415.7,195z"/>
	<path class="st0" d="M311.8,30c16.6,0,30-13.4,30-30s-13.5-30-30-30c-16.6,0-30,13.4-30,30S295.2,30,311.8,30z M311.8-15
		c8.3,0,15,6.7,15,15s-6.7,15-15,15s-15-6.7-15-15S303.5-15,311.8-15z"/>
	<path class="st0" d="M373.4,44.6l-14.1-5.1c-2.4,6.6-3.6,13.5-3.6,20.5h15C370.7,54.7,371.6,49.5,373.4,44.6z"/>
	<path class="st0" d="M304,284.3c-5.2-0.9-10.2-2.7-14.7-5.3l-7.5,13c6.1,3.5,12.7,5.9,19.6,7.1L304,284.3z"/>
	<path class="st0" d="M373.4,75.4l-14.1,5.1c1.1,2.9,2.4,5.7,3.8,8.5c-2.5-4.1-5.6-8-8.9-11.4l-84.9,84.8c3.6,3.6,7.6,6.7,12,9.3
		l82.2-82.2c1.8,3.2,3.9,6.2,6.2,9l11.5-9.6C377.8,84.9,375.2,80.4,373.4,75.4z"/>
	<path class="st0" d="M400.2,358c6.3,1.7,12.8,2.3,19.3,1.9l56.1-56.1c0.4-6.5-0.3-13.1-1.9-19.3L400.2,358z"/>
	<path class="st0" d="M289.3,201l-7.5-12.9c-6.1,3.5-11.5,8-16,13.4l11.5,9.6c0.9-1,1.8-2,2.7-2.9C282.8,205.4,285.9,203,289.3,201z
		"/>
	<path class="st0" d="M100.2,60.1c-20.3,1.3-37.9,12.6-47.8,29.1c1.5-2.8,2.9-5.7,4-8.7l-14.1-5.1c-1.8,4.9-4.4,9.5-7.8,13.5
		L46,98.5c2-2.4,3.8-4.9,5.4-7.6c-4.2,7.6-6.8,16.1-7.4,25.3L100.2,60.1z"/>
	<path class="st0" d="M103.9,60c33.1,0,60-26.9,60-60s-26.8-60-60-60c-33.1,0-60,26.9-60,60S70.8,60,103.9,60z M72.1-31.8
		C80.5-40.3,92-45,103.9-45c24.9,0,45,20.1,45,45s-20.1,45-45,45c-24.9,0-45-20.1-45-45C58.9-11.9,63.6-23.4,72.1-31.8z"/>
	<path class="st0" d="M34.5,31L46,21.4c-4.5-5.3-9.9-9.9-16-13.4l-7.5,13c3.4,2,6.5,4.4,9.3,7.1C32.8,29,33.7,30,34.5,31z"/>
	<path class="st0" d="M458.1,257.6l-84.8,84.8c3.5,3.6,7.5,6.7,11.9,9.3l82.2-82.2C464.8,265.2,461.7,261.1,458.1,257.6z"/>
	<path class="st0" d="M446.2,248.3c-4.7-2.7-9.7-4.9-15-6.3l-73.5,73.5c1.2,4.6,3,9,5.3,13.2c0.4,0.6,0.7,1.2,1.1,1.8L446.2,248.3z"
		/>
	<path class="st0" d="M173.4,31.1c0.9-1,1.8-2,2.7-2.9c2.8-2.8,5.9-5.2,9.3-7.2l-7.5-12.9c-6.1,3.5-11.5,8-16,13.4L173.4,31.1z"/>
	<path class="st0" d="M103.9,30c16.6,0,30-13.4,30-30s-13.4-30-30-30c-16.6,0-30,13.4-30,30S87.3,30,103.9,30z M103.9-15
		c8.3,0,15,6.7,15,15s-6.7,15-15,15c-8.3,0-15-6.7-15-15S95.6-15,103.9-15z"/>
</g>
</svg>
