<?xml version="1.0" encoding="UTF-8"?>
<svg xmlns="http://www.w3.org/2000/svg" version="1.1" viewBox="0 0 89 89">
  <defs>
    <style>
      .cls-1 {
        fill: #ffbc58;
      }

      .cls-2 {
        fill: #0085bc;
      }

      .cls-3 {
        fill: #ff6442;
      }
    </style>
  </defs>
  <!-- Generator: Adobe Illustrator 28.6.0, SVG Export Plug-In . SVG Version: 1.2.0 Build 709)  -->
  <g>
    <g id="_레이어_1">
      <path d="M89,44.5c0,27.7-16.8,44.5-44.5,44.5S0,72.2,0,44.5,16.8,0,44.5,0s44.5,16.8,44.5,44.5Z"/>
      <path class="cls-2" d="M25.3,22.2l5.9,18.1-4.8,1.6-5.9-18.1-10.6,3.5-1.5-4.5,26.1-8.5,1.5,4.5s-10.6,3.5-10.6,3.5Z"/>
      <path class="cls-1" d="M35.6,25.6c2-7.6,7-10.8,12.2-9.3s8,6.6,5.9,14.2c-2.1,7.6-7,10.7-12.3,9.3s-7.9-6.6-5.9-14.2ZM49.2,29.3c1.2-4.5,0-7.3-2.7-8s-5.1,1-6.3,5.6,0,7.3,2.7,8,5.2-1,6.4-5.6Z"/>
      <path class="cls-3" d="M55.7,20l5.9.8,3.7,9.9,1.4,4.1,8.7-12.2,5.9.8-13.2,17.5c-2.9,3.8-5.7,4.7-9.1,4.2-1.7-.2-3.4-.7-5.4-1.4l.5-3.9c1.3.4,3.1,1.1,4.8,1.3,1.8.2,3.5,0,4.5-1.5l.4-.6-7.9-19.1h0Z"/>
      <path class="cls-1" d="M8.2,67.8l4.6-23.3,15.8,3.1c5.1,1,8.2,3.2,7.3,7.6-.5,2.4-1.8,3.7-3.6,4.4,2.4,1.4,3.8,3.6,3.1,6.8-.8,3.8-3.7,6-9.6,4.8l-17.6-3.4h0ZM16.9,50.1l-.9,4.3,10.8,2.1c2.8.5,3.9.2,4.2-1.4s-.6-2.4-3.4-2.9l-10.8-2.1h0ZM15.1,59.1l-1,5,12.6,2.5c2.7.5,3.9,0,4.2-1.8s-.6-2.7-3.2-3.2c0,0-12.6-2.5-12.6-2.5Z"/>
      <path class="cls-3" d="M51,55.7c7.7,1.4,11.3,6.1,10.3,11.4-1,5.4-6,8.5-13.7,7.1s-11.3-6.1-10.3-11.5,6-8.5,13.7-7h0ZM48.5,69.6c4.6.8,7.3-.7,7.8-3.4s-1.5-5-6.1-5.9-7.3.7-7.7,3.3,1.5,5.1,6.1,5.9h0Z"/>
      <path class="cls-2" d="M58.3,56.3l-3.3-6,12.3,4,3.4-12.5,3.3,6-2.4,7.6,7.7,2.1,3.3,6-12.3-4-3.4,12.4-3.2-6,2.4-7.6-7.7-2.1h0Z"/>
    </g>
  </g>
</svg>