<?xml version="1.0" encoding="UTF-8"?>
<svg id="_레이어_1" data-name="레이어 1" xmlns="http://www.w3.org/2000/svg" viewBox="0 0 89 89">
  <defs>
    <style>
      .cls-1 {
        fill: #ffbc58;
      }

      .cls-1, .cls-2, .cls-3, .cls-4 {
        stroke-width: 0px;
      }

      .cls-2 {
        fill: #000;
      }

      .cls-3 {
        fill: #ff6442;
      }

      .cls-4 {
        fill: #0085bc;
      }
    </style>
  </defs>
  <path class="cls-2" d="M89,44.5c0,34.75-9.75,44.5-44.5,44.5S0,79.25,0,44.5,9.75,0,44.5,0s44.5,9.75,44.5,44.5Z"/>
  <path class="cls-4" d="M25.29,20.62l5.87,18.06-4.84,1.57-5.87-18.06-10.64,3.46-1.47-4.51,26.12-8.49,1.47,4.51-10.64,3.46Z"/>
  <path class="cls-1" d="M35.56,25.58c2.05-7.59,6.98-10.76,12.25-9.33s7.97,6.65,5.91,14.24-7.01,10.75-12.28,9.32-7.93-6.64-5.88-14.23ZM49.18,29.26c1.22-4.52-.1-7.3-2.72-8s-5.13,1.04-6.35,5.55.07,7.29,2.69,8,5.16-1.03,6.38-5.55Z"/>
  <path class="cls-3" d="M56.32,18.98l5.88.79,3.67,9.9,1.36,4.15,8.69-12.21,5.88.79-13.23,17.52c-2.86,3.75-5.65,4.65-9.11,4.18-1.65-.22-3.43-.73-5.42-1.41l.52-3.86c1.31.42,3.07,1.06,4.75,1.29,1.78.24,3.49.02,4.54-1.48l.38-.56-7.9-19.09Z"/>
  <path class="cls-1" d="M7.68,70.37l4.57-23.29,15.81,3.1c5.12,1,8.18,3.23,7.32,7.59-.47,2.4-1.77,3.73-3.6,4.44,2.38,1.43,3.76,3.57,3.12,6.8-.75,3.83-3.66,5.98-9.65,4.81l-17.58-3.45ZM16.32,52.72l-.85,4.33,10.82,2.12c2.79.55,3.94.15,4.25-1.41s-.61-2.36-3.4-2.91l-10.82-2.12ZM14.56,61.7l-.98,4.99,12.58,2.47c2.66.52,3.88-.07,4.22-1.8s-.58-2.67-3.24-3.19l-12.58-2.47Z"/>
  <path class="cls-3" d="M50.99,55.71c7.74,1.41,11.3,6.06,10.32,11.43s-5.96,8.49-13.7,7.08-11.29-6.09-10.32-11.46,5.95-8.46,13.69-7.05ZM48.46,69.59c4.6.84,7.26-.71,7.75-3.38s-1.46-5.02-6.06-5.86-7.26.68-7.74,3.34,1.46,5.06,6.06,5.9Z"/>
  <path class="cls-4" d="M60.23,57.13l-2.68-6.3,11.83,5.14,4.54-12.13,2.68,6.3-3.16,7.38,7.51,2.85,2.68,6.3-11.88-5.16-4.53,12.05-2.66-6.27,3.15-7.34-7.47-2.83Z"/>
</svg>