<svg xmlns="http://www.w3.org/2000/svg" viewBox="0 0 70.6 70.6"><defs><style>.cls-1{fill:#ffb600;}.cls-2{fill:#181919;}</style></defs><g id="새로_만들기" data-name="새로 만들기"><circle class="cls-1" cx="35.3" cy="35.3" r="35.3"/><path class="cls-2" d="M27.18,32.27c-4,.1-7.78.15-11.24.15l-.48-3a259,259,0,0,0,28-1.1l.24,2.59c-4.18.58-8.45.91-12.63,1.15v6.63H27.18Zm-8.4-11.71c0-4,4.22-6.48,10.6-6.48S40,16.53,40,20.56,35.77,27,29.38,27,18.78,24.5,18.78,20.56ZM52.33,52.87V55.8H22.09V46.44H47V43H22V40.15H50.84v9H26v3.75ZM22.47,20.56c0,2.21,2.74,3.7,6.91,3.7s6.92-1.49,6.92-3.7-2.69-3.74-6.92-3.74S22.47,18.26,22.47,20.56ZM46.91,33.71V13.26h3.93v25.3H46.91V36.31H38.36v-2.6Z"/></g></svg>