<svg id="레이어_1" data-name="레이어 1" xmlns="http://www.w3.org/2000/svg" viewBox="0 0 2427.65 164.76"><defs><style>.cls-1{isolation:isolate;}.cls-2{fill:#d01;}.cls-3{fill:#fcfcfc;}</style></defs><g class="cls-1"><path class="cls-2" d="M763.74,85.53H664.46a53.26,53.26,0,0,1-13.34,11.12,76.76,76.76,0,0,1-17.35,7.47,122.24,122.24,0,0,1-20.65,4.19,196.22,196.22,0,0,1-23.22,1.29,169.17,169.17,0,0,1-22.11-1.29,72.55,72.55,0,0,1-17.17-4.19,29,29,0,0,1-11.31-7.47,18.55,18.55,0,0,1-4.6-11.12H314.45c-.09.22-.19.43-.29.65s-.2.43-.31.65-.22.44-.33.66l-.36.68a39.29,39.29,0,0,1-12.37,13.38,63.32,63.32,0,0,1-18.44,8.33,131.22,131.22,0,0,1-23.44,4.23c-8.52.84-17.68,1.17-27.31,1.17h-84l19.21-29.75H54.57l-53,74.17H237.84c16.5,0,33.39-.46,50-1.8a349.91,349.91,0,0,0,48.51-7c15.44-3.46,30-8.18,42.93-14.53s24.18-14.19,33.3-24c.86,10.4,6.16,18.88,14.83,25.74s20.85,12.17,35.2,16.09,31.06,6.53,48.74,8.13,36.45,2.22,55,2.22a600.78,600.78,0,0,0,64.35-3.11c21.11-2.3,41.45-6.07,59.75-12s34.22-13.79,46.91-24.39c12.52-10.47,21.68-23.47,26.29-39.52"/><polyline class="cls-2" points="1115.04 85.53 872.21 85.53 963.09 159.7 1004.27 159.7 1115.04 85.53"/><polyline class="cls-2" points="1229.45 85.53 1116.93 85.53 1112.47 159.7 1230.13 159.7 1229.45 85.53"/><polyline class="cls-2" points="870.63 85.53 774.99 85.53 754.89 159.7 854.9 159.7 870.63 85.53"/><path class="cls-2" d="M1357.69,123.05l-2-23.12h115.09a87.91,87.91,0,0,1,12.62.79,34.84,34.84,0,0,1,8.8,2.29,14.52,14.52,0,0,1,5.39,3.74,10.31,10.31,0,0,1,2.38,5.11,7.62,7.62,0,0,1-.76,5.3,8.91,8.91,0,0,1-4.23,3.45,26.63,26.63,0,0,1-7.33,1.88,77.23,77.23,0,0,1-10.05.56H1357.69m657.73-37.52h-122l.34.65.33.65.3.67.3.67c2.84,6.8,2.17,12.21-1,16.49s-9,7.45-16.34,9.73-16.21,3.71-25.59,4.56-19.25,1.12-28.59,1.12c-10.85,0-21.7-.39-32-1.38a168.78,168.78,0,0,1-28.67-5c-8.62-2.4-16.12-5.6-22-9.81s-10-9.37-12-15.73c-.07-.23-.14-.45-.2-.67l-.18-.67c-.06-.22-.11-.44-.16-.65s-.09-.43-.13-.65h-122l.12.66c0,.22.09.44.13.66s.09.44.14.66.1.44.16.66c.34,1.41.74,2.8,1.2,4.18s1,2.74,1.57,4.09,1.23,2.69,1.93,4,1.48,2.63,2.31,3.92A59.16,59.16,0,0,0,1600,96.25a96.69,96.69,0,0,0-14.82-5.17,131.06,131.06,0,0,0-13.79-2.86c-4.15-.64-7.72-1-10.3-1.15l-.19-.88,1-.13,1.08-.15,1.12-.18,1.16-.2h-323l1.26,74.17h282.4c15.77,0,30.34-.52,43.2-1.78s24-3.23,32.9-6.13,15.59-6.7,19.59-11.61,5.31-10.84,3.53-18.05c-.14-.57-.3-1.14-.48-1.7s-.36-1.1-.56-1.64-.42-1.07-.65-1.59-.47-1-.73-1.53q11.63,11.39,30.87,20.45,19.41,9.07,46.51,15.48a470.77,470.77,0,0,0,62.13,9.78q35,3.35,77.35,3.38,54.21,0,92.27-5.48c25.28-3.58,45.15-8.85,59.72-15.6s23.64-14.86,27.76-24.25,3.15-19.78-2.52-31.26l-.33-.66-.35-.66c-.11-.22-.23-.44-.35-.66s-.23-.44-.35-.66"/><polyline class="cls-2" points="2257.15 85.53 2078.94 85.53 1995.24 159.7 2143.63 159.7 2176.88 122.36 2253.45 159.7 2427.65 159.7 2256.92 85.75 2257.15 85.53"/></g><g class="cls-1"><path class="cls-3" d="M528,4.86H415L394.93,45.94c-2.34-7.49-7.34-13.81-14.41-19.07s-16.13-9.41-26.75-12.67A203.42,203.42,0,0,0,318,7.09a365,365,0,0,0-41.77-2.23H49.2L0,73.93H117.5L134,48.31h85.1a251.16,251.16,0,0,1,25.56,1.09c7.47.78,13.77,2,18.6,3.93s8.21,4.44,9.8,7.81,1.4,7.58-.91,12.79H502.77a27.53,27.53,0,0,1,.07-3.94,35.44,35.44,0,0,1,.62-4.25,45.24,45.24,0,0,1,1.22-4.57c.5-1.57,1.1-3.19,1.8-4.88L528,4.86"/><path class="cls-3" d="M761.61,4.86H665.53L648.35,56.29c-.56,1.69-1.19,3.31-1.88,4.88s-1.44,3.1-2.25,4.57-1.68,2.88-2.62,4.25-1.92,2.68-3,3.94h104a321825353008.27,321825353008.27,0,0,1,.1-.36c0-.06,0-.12,0-.18a1.21,1.21,0,0,0,0-.18L761.61,4.86"/><polyline class="cls-3" points="1229.43 4.86 1079.03 4.86 997.1 59.37 928.95 4.86 772.9 4.86 754.38 73.93 854.52 73.93 854.78 72.73 856.18 73.93 1110.45 73.93 1112.52 72.48 1112.43 73.93 1230.26 73.93 1229.43 4.86"/><path class="cls-3" d="M1360.13,62.45l-2-22.27h112.28a83.54,83.54,0,0,1,11,.63,36,36,0,0,1,8.28,2,14.91,14.91,0,0,1,5.48,3.46,9.7,9.7,0,0,1,2.54,5.11,7,7,0,0,1-1,5.3,10.05,10.05,0,0,1-4.59,3.42,29.55,29.55,0,0,1-7.44,1.83,73,73,0,0,1-9.48.54H1360.13M1493.48,4.86H1242.29l1.37,69.07H1581.9a71,71,0,0,0,12-3.4,46.2,46.2,0,0,0,11.56-6.3,24.24,24.24,0,0,0,7.79-9.66,21.22,21.22,0,0,0,.79-13.47c-1.89-7.77-6.72-13.92-13.82-18.76S1583.86,14,1573,11.4a238.23,238.23,0,0,0-36.84-5.21c-13.45-1-27.88-1.33-42.63-1.33"/><path class="cls-3" d="M1811.29,0c-33.76,0-62.74,1.67-87.1,4.87s-44.35,8-59.78,14.2-26.64,14-33.3,23.09-9,19.83-6.73,31.77h127.71c-1.38-6.73.41-12,4.41-16.18s10.18-7.16,17.67-9.34a134.13,134.13,0,0,1,25.36-4.36c9.13-.82,18.66-1.09,27.66-1.09,10.61,0,21.22.39,31.36,1.36a181.5,181.5,0,0,1,28.64,4.81,85.41,85.41,0,0,1,23.25,9.44c6.56,4.07,11.76,9.12,15.11,15.36h127.72C2046.7,62,2036.6,51.44,2023,42.25q-20.1-13.64-50.44-23.1c-20.06-6.22-43.53-11-70.41-14.25S1845.13,0,1811.29,0"/><polyline class="cls-3" points="2370.71 4.86 2229.1 4.86 2202.52 34.42 2140.56 4.86 1973.84 4.86 2119.78 73.93 2306.39 73.93 2370.71 4.86"/></g></svg>