<svg xmlns="http://www.w3.org/2000/svg" viewBox="0 0 70.6 70.6"><defs><style>.cls-1{fill:#ffb600;}.cls-2{fill:#181919;}</style></defs><g id="새로_만들기" data-name="새로 만들기"><circle class="cls-1" cx="35.3" cy="35.3" r="35.3"/><path class="cls-2" d="M27.63,33.86c-6.43,0-11.09-3.84-11.09-9.51s4.66-9.6,11.09-9.6,11.14,3.89,11.14,9.6S34.06,33.86,27.63,33.86Zm0-3.17c4.22,0,7.29-2.64,7.29-6.34S31.85,18,27.63,18s-7.3,2.64-7.3,6.38S23.45,30.69,27.63,30.69ZM52.3,52.58V55.7H23.07V44.9H47V40.53H23V37.41H50.86V47.83H27v4.75ZM50.86,35.3H46.93V13.22h3.93Z"/></g></svg>