<svg xmlns="http://www.w3.org/2000/svg" viewBox="0 0 70.6 70.6"><defs><style>.cls-1{fill:#ffb600;}.cls-2{fill:#181919;}</style></defs><g id="새로_만들기" data-name="새로 만들기"><circle class="cls-1" cx="35.3" cy="35.3" r="35.3"/><path class="cls-2" d="M30.81,44.51a110.8,110.8,0,0,0,11.56-1l.24,2.93C33.4,48,23.27,48.12,15.73,48.12L15.2,44.8c3.46,0,7.49,0,11.67-.14V40c-4.94-.62-8.21-3.6-8.21-7.87,0-4.85,4.18-8,10.18-8S39,27.23,39,32.08c0,4.27-3.26,7.25-8.2,7.87ZM41.65,21.57H15.92V18.45h11V13.26h3.94v5.19H41.65ZM28.84,37c3.84,0,6.43-1.92,6.43-4.9s-2.59-4.94-6.43-4.94-6.44,2-6.44,4.94S25,37,28.84,37Zm26.74-2.16H48.85V56.28H44.92V13.22h3.93V31.51h6.73Z"/></g></svg>