<svg id="레이어_1" data-name="레이어 1" xmlns="http://www.w3.org/2000/svg" viewBox="0 0 494.59 494.59"><defs><style>.cls-1{fill:#f32;}.cls-2{fill:#af0f08;}.cls-3{fill:#d31616;}.cls-4{fill:#ff756e;}</style></defs><circle class="cls-1" cx="247.29" cy="247.29" r="235.38"/><path class="cls-2" d="M247.29,23.84c123.41,0,223.46,100,223.46,223.45S370.7,470.75,247.29,470.75,23.84,370.7,23.84,247.29s100-223.45,223.45-223.45m0-23.84C110.94,0,0,110.93,0,247.29s110.94,247.3,247.29,247.3,247.3-110.94,247.3-247.3S383.65,0,247.29,0Z"/><circle class="cls-2" cx="247.29" cy="248.49" r="110.52"/><path class="cls-3" d="M247.29,149.88a98.61,98.61,0,1,1-98.6,98.61,98.73,98.73,0,0,1,98.6-98.61m0-23.83A122.44,122.44,0,1,0,369.73,248.49,122.44,122.44,0,0,0,247.29,126.05Z"/><path class="cls-4" d="M249.29,413.33A156.92,156.92,0,0,1,211,408.57a11.92,11.92,0,1,1,5.83-23.11,133,133,0,0,0,32.51,4c51.28,0,98.79-29.77,124-77.69a11.92,11.92,0,1,1,21.09,11.11C365,378.68,309.44,413.33,249.29,413.33Z"/><path class="cls-4" d="M71.38,174.78a11.94,11.94,0,0,1-10.58-17.4C98.25,85,169.19,40,245.93,40a197.27,197.27,0,0,1,48.91,6.18,11.92,11.92,0,0,1-5.91,23.09,173.29,173.29,0,0,0-43-5.44c-67.79,0-130.62,40.06-163.95,104.55A11.94,11.94,0,0,1,71.38,174.78Z"/></svg>