<svg xmlns="http://www.w3.org/2000/svg" viewBox="0 0 1663.12 844.44"><defs><style>.cls-1,.cls-3,.cls-6,.cls-7{fill:none;}.cls-1{stroke:#ff6442;stroke-width:4px;}.cls-1,.cls-5,.cls-6{stroke-miterlimit:10;}.cls-2{fill:#ff6442;}.cls-3,.cls-5{stroke:#216f9b;}.cls-3,.cls-7{stroke-linejoin:round;}.cls-3,.cls-5,.cls-7{stroke-width:2px;}.cls-4{fill:#ffbc58;}.cls-5{fill:#f1f3f9;}.cls-6,.cls-7{stroke:#ffbc58;}</style></defs><g id="silitim"><path class="cls-1" d="M1009.72,553.65c-21.52.81-43.69-14.36-53.89-38.93a68.84,68.84,0,0,1-5.28-23.44"/><polygon class="cls-2" points="968.36 503 965.69 505.98 951.03 492.79 938.94 508.37 935.78 505.92 950.51 486.94 968.36 503"/><polygon class="cls-3" points="942.44 80.92 1039.59 101.35 1039.59 286.38 942.44 265.96 942.44 80.92"/><path class="cls-4" d="M988.15,261.2a1.24,1.24,0,0,1,.33,0,2.37,2.37,0,0,1,1.74,2.28,1.45,1.45,0,0,1-1.41,1.58,2.11,2.11,0,0,1-.33,0,2.38,2.38,0,0,1-1.73-2.28,1.45,1.45,0,0,1,1.4-1.58m0-2a3.45,3.45,0,0,0-3.4,3.58,4.36,4.36,0,0,0,3.31,4.24,3.82,3.82,0,0,0,.75.08,3.47,3.47,0,0,0,3.41-3.58,4.37,4.37,0,0,0-3.32-4.24,3.82,3.82,0,0,0-.75-.08Z"/><path class="cls-4" d="M988.15,245.91a1.84,1.84,0,0,1,.33,0,2.4,2.4,0,0,1,1.74,2.29,1.45,1.45,0,0,1-1.41,1.57l-.33,0a2.39,2.39,0,0,1-1.73-2.29,1.44,1.44,0,0,1,1.4-1.57m0-2a3.45,3.45,0,0,0-3.4,3.57,4.34,4.34,0,0,0,3.31,4.24,3.19,3.19,0,0,0,.75.08,3.46,3.46,0,0,0,3.41-3.57A4.36,4.36,0,0,0,988.9,244a3.82,3.82,0,0,0-.75-.08Z"/><path class="cls-4" d="M988.15,230.62a1.84,1.84,0,0,1,.33,0,2.4,2.4,0,0,1,1.74,2.29,1.45,1.45,0,0,1-1.41,1.57,1.93,1.93,0,0,1-.33,0,2.39,2.39,0,0,1-1.73-2.29,1.44,1.44,0,0,1,1.4-1.57m0-2a3.45,3.45,0,0,0-3.4,3.57,4.35,4.35,0,0,0,3.31,4.24,3.82,3.82,0,0,0,.75.08,3.46,3.46,0,0,0,3.41-3.57,4.35,4.35,0,0,0-3.32-4.24,3.19,3.19,0,0,0-.75-.08Z"/><path class="cls-4" d="M988.15,215.32a1.86,1.86,0,0,1,.33,0,2.39,2.39,0,0,1,1.74,2.28,1.45,1.45,0,0,1-1.41,1.58,1.29,1.29,0,0,1-.33,0,2.37,2.37,0,0,1-1.73-2.28,1.45,1.45,0,0,1,1.4-1.58m0-2a3.46,3.46,0,0,0-3.4,3.58,4.36,4.36,0,0,0,3.31,4.24,3.82,3.82,0,0,0,.75.08,3.46,3.46,0,0,0,3.41-3.58,4.37,4.37,0,0,0-3.32-4.24,3.82,3.82,0,0,0-.75-.08Z"/><path class="cls-4" d="M988.15,200a1.24,1.24,0,0,1,.33,0,2.38,2.38,0,0,1,1.74,2.28,1.45,1.45,0,0,1-1.41,1.58,1.29,1.29,0,0,1-.33,0,2.37,2.37,0,0,1-1.73-2.28,1.45,1.45,0,0,1,1.4-1.58m0-2a3.45,3.45,0,0,0-3.4,3.58,4.36,4.36,0,0,0,3.31,4.24,3.82,3.82,0,0,0,.75.08,3.46,3.46,0,0,0,3.41-3.58,4.37,4.37,0,0,0-3.32-4.24,3.82,3.82,0,0,0-.75-.08Z"/><path class="cls-4" d="M988.15,184.74a1.24,1.24,0,0,1,.33,0,2.37,2.37,0,0,1,1.74,2.28,1.45,1.45,0,0,1-1.41,1.58,2.11,2.11,0,0,1-.33,0,2.38,2.38,0,0,1-1.73-2.28,1.45,1.45,0,0,1,1.4-1.58m0-2a3.45,3.45,0,0,0-3.4,3.58,4.36,4.36,0,0,0,3.31,4.24,3.82,3.82,0,0,0,.75.08,3.47,3.47,0,0,0,3.41-3.58,4.37,4.37,0,0,0-3.32-4.24,3.82,3.82,0,0,0-.75-.08Z"/><polyline class="cls-3" points="1132.81 62.91 1039.59 101.35 942.44 80.92 1035.66 42.49 1132.81 62.91 1132.81 247.94 1039.59 286.38"/><polygon class="cls-3" points="942.44 608.33 1039.59 628.75 1039.59 813.78 942.44 793.36 942.44 608.33"/><polyline class="cls-3" points="1132.81 590.31 1039.59 628.75 942.44 608.33 1035.66 569.89 1132.81 590.31 1132.81 775.35 1039.59 813.78"/><polygon class="cls-5" points="1091.19 525.88 1091.21 417.67 910.28 378.88 910.27 487.09 1091.19 525.88"/><path class="cls-4" d="M921.89,433.11l.35,0a2.5,2.5,0,0,1,1.79,2.52,1.66,1.66,0,0,1-1.59,1.75l-.35,0a2.51,2.51,0,0,1-1.79-2.52,1.66,1.66,0,0,1,1.59-1.75m0-2h0a3.64,3.64,0,0,0-3.59,3.68,4.52,4.52,0,0,0,3.37,4.54,3.42,3.42,0,0,0,.77.08,3.64,3.64,0,0,0,3.59-3.68,4.5,4.5,0,0,0-3.37-4.54,3.42,3.42,0,0,0-.77-.08Z"/><path class="cls-4" d="M936.84,436.31a1.45,1.45,0,0,1,.35,0,2.51,2.51,0,0,1,1.8,2.52,1.67,1.67,0,0,1-1.59,1.75,1.47,1.47,0,0,1-.36,0,2.5,2.5,0,0,1-1.79-2.52,1.66,1.66,0,0,1,1.59-1.75m0-2h0a3.65,3.65,0,0,0-3.59,3.69,4.52,4.52,0,0,0,3.38,4.54,3.94,3.94,0,0,0,.77.08,3.65,3.65,0,0,0,3.59-3.68,4.53,4.53,0,0,0-3.38-4.55,3.94,3.94,0,0,0-.77-.08Z"/><path class="cls-4" d="M951.79,439.52a1.39,1.39,0,0,1,.35,0,2.49,2.49,0,0,1,1.8,2.51,1.67,1.67,0,0,1-1.59,1.75,2.07,2.07,0,0,1-.35,0,2.5,2.5,0,0,1-1.8-2.52,1.67,1.67,0,0,1,1.59-1.75m0-2h0a3.65,3.65,0,0,0-3.59,3.68,4.52,4.52,0,0,0,3.38,4.54,3.3,3.3,0,0,0,.77.08,3.65,3.65,0,0,0,3.59-3.68,4.52,4.52,0,0,0-3.38-4.54,3.94,3.94,0,0,0-.77-.08Z"/><path class="cls-4" d="M966.74,442.72a2.2,2.2,0,0,1,.36,0,2.5,2.5,0,0,1,1.79,2.52A1.66,1.66,0,0,1,967.3,447a1.45,1.45,0,0,1-.35,0,2.51,2.51,0,0,1-1.8-2.51,1.67,1.67,0,0,1,1.59-1.76m0-2h0a3.66,3.66,0,0,0-3.59,3.69,4.52,4.52,0,0,0,3.38,4.54,3.94,3.94,0,0,0,.77.08,3.65,3.65,0,0,0,3.59-3.68,4.52,4.52,0,0,0-3.37-4.54,3.46,3.46,0,0,0-.78-.09Z"/><path class="cls-4" d="M981.7,445.93a1.45,1.45,0,0,1,.35,0,2.5,2.5,0,0,1,1.79,2.51,1.66,1.66,0,0,1-1.59,1.76,2.21,2.21,0,0,1-.35,0,2.49,2.49,0,0,1-1.79-2.52,1.66,1.66,0,0,1,1.59-1.75m0-2h0a3.64,3.64,0,0,0-3.59,3.68,4.51,4.51,0,0,0,3.37,4.54,3.44,3.44,0,0,0,.77.09,3.65,3.65,0,0,0,3.59-3.69,4.52,4.52,0,0,0-3.37-4.54,4.11,4.11,0,0,0-.77-.08Z"/><path class="cls-4" d="M996.65,449.14l.35,0a2.51,2.51,0,0,1,1.8,2.52,1.67,1.67,0,0,1-1.6,1.75,1.45,1.45,0,0,1-.35,0,2.49,2.49,0,0,1-1.79-2.51,1.66,1.66,0,0,1,1.59-1.75m0-2h0a3.65,3.65,0,0,0-3.59,3.68,4.52,4.52,0,0,0,3.37,4.54,4.11,4.11,0,0,0,.77.08,3.64,3.64,0,0,0,3.59-3.68,4.5,4.5,0,0,0-3.37-4.54,3.36,3.36,0,0,0-.77-.08Z"/><polyline class="cls-3" points="1184.41 379.31 1091.21 417.67 1091.19 525.88 1184.39 487.51 1184.41 379.31 1003.49 340.51 910.28 378.88"/><path class="cls-4" d="M990.68,628.64a1.86,1.86,0,0,1,.33,0,2.38,2.38,0,0,1,1.74,2.28,1.45,1.45,0,0,1-1.41,1.58,1.35,1.35,0,0,1-.33,0,2.37,2.37,0,0,1-1.73-2.28,1.45,1.45,0,0,1,1.4-1.58m0-2a3.45,3.45,0,0,0-3.4,3.58,4.36,4.36,0,0,0,3.31,4.24,3.91,3.91,0,0,0,.75.08,3.46,3.46,0,0,0,3.41-3.58,4.37,4.37,0,0,0-3.32-4.24,3.82,3.82,0,0,0-.75-.08Z"/><path class="cls-4" d="M990.68,643.94l.33,0a2.39,2.39,0,0,1,1.74,2.28,1.45,1.45,0,0,1-1.41,1.58,1.35,1.35,0,0,1-.33,0,2.37,2.37,0,0,1-1.73-2.28,1.44,1.44,0,0,1,1.4-1.57m0-2a3.45,3.45,0,0,0-3.4,3.57,4.35,4.35,0,0,0,3.31,4.24,3.91,3.91,0,0,0,.75.08,3.46,3.46,0,0,0,3.41-3.58,4.35,4.35,0,0,0-3.32-4.23,3.19,3.19,0,0,0-.75-.08Z"/><path class="cls-4" d="M990.68,659.23l.33,0a2.4,2.4,0,0,1,1.74,2.29,1.45,1.45,0,0,1-1.41,1.57l-.33,0a2.39,2.39,0,0,1-1.73-2.29,1.44,1.44,0,0,1,1.4-1.57m0-2a3.45,3.45,0,0,0-3.4,3.57,4.34,4.34,0,0,0,3.31,4.24,3.25,3.25,0,0,0,.75.08,3.46,3.46,0,0,0,3.41-3.57,4.36,4.36,0,0,0-3.32-4.24,3.19,3.19,0,0,0-.75-.08Z"/><path class="cls-4" d="M990.68,674.52a1.24,1.24,0,0,1,.33,0,2.37,2.37,0,0,1,1.74,2.28,1.45,1.45,0,0,1-1.41,1.57l-.33,0a2.38,2.38,0,0,1-1.73-2.28,1.45,1.45,0,0,1,1.4-1.58m0-2a3.45,3.45,0,0,0-3.4,3.58,4.34,4.34,0,0,0,3.31,4.23,3.25,3.25,0,0,0,.75.08,3.46,3.46,0,0,0,3.41-3.57,4.37,4.37,0,0,0-3.32-4.24,3.82,3.82,0,0,0-.75-.08Z"/><path class="cls-4" d="M990.68,689.81a1.24,1.24,0,0,1,.33,0,2.38,2.38,0,0,1,1.74,2.28,1.45,1.45,0,0,1-1.41,1.58,1.35,1.35,0,0,1-.33,0,2.37,2.37,0,0,1-1.73-2.28,1.45,1.45,0,0,1,1.4-1.58m0-2a3.45,3.45,0,0,0-3.4,3.58,4.36,4.36,0,0,0,3.31,4.24,3.91,3.91,0,0,0,.75.08,3.46,3.46,0,0,0,3.41-3.58,4.37,4.37,0,0,0-3.32-4.24,3.82,3.82,0,0,0-.75-.08Z"/><path class="cls-4" d="M990.68,705.1a1.86,1.86,0,0,1,.33,0,2.38,2.38,0,0,1,1.74,2.28,1.45,1.45,0,0,1-1.41,1.58,1.35,1.35,0,0,1-.33,0,2.37,2.37,0,0,1-1.73-2.28,1.45,1.45,0,0,1,1.4-1.58m0-2a3.45,3.45,0,0,0-3.4,3.58,4.36,4.36,0,0,0,3.31,4.24,3.91,3.91,0,0,0,.75.08,3.46,3.46,0,0,0,3.41-3.58,4.37,4.37,0,0,0-3.32-4.24,3.82,3.82,0,0,0-.75-.08Z"/><line class="cls-1" x1="1016.04" y1="634.23" x2="1016.04" y2="712.17"/><polygon class="cls-2" points="999.68 698.91 1002.61 696.18 1016.03 710.63 1029.46 696.18 1032.39 698.91 1016.03 716.5 999.68 698.91"/><path class="cls-6" d="M989,666.82h0a2.6,2.6,0,0,0-3.14-2.64h0a2.59,2.59,0,0,0-.71-4h0a2.6,2.6,0,0,0,2-3.56h0a2.6,2.6,0,0,0,3.85-1.4h0a2.6,2.6,0,0,0,3.86,1.4h0a2.6,2.6,0,0,0,2,3.56h0a2.59,2.59,0,0,0-.72,4h0a2.61,2.61,0,0,0-3.14,2.64h0A2.59,2.59,0,0,0,989,666.82Z"/><path class="cls-6" d="M989,682.11h0a2.59,2.59,0,0,0-3.14-2.63h0a2.6,2.6,0,0,0-.71-4h0a2.6,2.6,0,0,0,2-3.55h0a2.59,2.59,0,0,0,3.85-1.41h0a2.6,2.6,0,0,0,3.86,1.41h0a2.6,2.6,0,0,0,2,3.55h0a2.6,2.6,0,0,0-.72,4h0a2.6,2.6,0,0,0-3.14,2.63h0A2.61,2.61,0,0,0,989,682.11Z"/><path class="cls-6" d="M989,697.4h0a2.59,2.59,0,0,0-3.14-2.63h0a2.6,2.6,0,0,0-.71-4h0a2.59,2.59,0,0,0,2-3.55h0a2.6,2.6,0,0,0,3.85-1.4h0a2.6,2.6,0,0,0,3.86,1.4h0a2.59,2.59,0,0,0,2,3.55h0a2.6,2.6,0,0,0-.72,4h0a2.6,2.6,0,0,0-3.14,2.63h0A2.61,2.61,0,0,0,989,697.4Z"/><path class="cls-6" d="M989,712.7h0a2.59,2.59,0,0,0-3.14-2.64h0a2.6,2.6,0,0,0-.71-4h0a2.59,2.59,0,0,0,2-3.55h0a2.6,2.6,0,0,0,3.85-1.4h0a2.6,2.6,0,0,0,3.86,1.4h0a2.59,2.59,0,0,0,2,3.55h0a2.6,2.6,0,0,0-.72,4h0a2.6,2.6,0,0,0-3.14,2.64h0A2.59,2.59,0,0,0,989,712.7Z"/><path class="cls-1" d="M1061.59,322.24c21.52-.81,43.69,14.36,53.89,38.93a68.84,68.84,0,0,1,5.28,23.44"/><polygon class="cls-2" points="1102.95 372.89 1105.62 369.91 1120.28 383.1 1132.37 367.51 1135.53 369.97 1120.8 388.95 1102.95 372.89"/><path class="cls-1" d="M621.07,522.84c-25.39.95-51.54-16.94-63.57-45.92a81.19,81.19,0,0,1-6.26-28.43"/><polygon class="cls-2" points="568.82 460.5 566.1 463.44 551.65 450.01 539.32 465.4 536.19 462.89 551.22 444.15 568.82 460.5"/><path class="cls-3" d="M698,51.34C691.75,36,676,28.5,649.78,28.5s-42,7.47-48.23,22.84c-9.8,24.07,7.1,59.3,38.15,108-31.05,48.69-48,83.92-38.15,108,6.26,15.36,22,22.83,48.23,22.83s42-7.47,48.23-22.83c9.8-24.07-7.1-59.3-38.15-108C690.91,110.64,707.81,75.41,698,51.34Z"/><path class="cls-3" d="M649.78,63.36c-21.61,0-39.13-7.13-39.13-15.91"/><path class="cls-3" d="M649.78,31.54c21.61,0,39.13,7.12,39.13,15.91"/><path class="cls-7" d="M611.09,223c-6.5,16.39-8.28,29.89-3.83,40.8,5.52,13.55,19.42,20.14,42.52,20.14s37-6.59,42.52-20.14c4.44-10.91,2.67-24.41-3.83-40.8"/><ellipse class="cls-7" cx="649.78" cy="225.45" rx="39.13" ry="15.91"/><path class="cls-3" d="M698,576.36c-6.26-15.37-22-22.84-48.23-22.84s-42,7.47-48.23,22.84c-9.8,24.07,7.1,59.3,38.15,108-31.05,48.69-48,83.92-38.15,108,6.26,15.36,22,22.83,48.23,22.83s42-7.47,48.23-22.83c9.8-24.07-7.1-59.3-38.15-108C690.91,635.66,707.81,600.43,698,576.36Z"/><path class="cls-3" d="M649.78,588.38c-21.61,0-39.13-7.13-39.13-15.91"/><path class="cls-3" d="M649.78,556.56c21.61,0,39.13,7.12,39.13,15.91"/><path class="cls-7" d="M655.3,773.09c-1.9-.55-3.75-1.07-5.52-1.56l-5.5,1.55h0"/><path class="cls-7" d="M623.78,780.07h0c-7.56,3.3-13.12,7.1-13.12,11.42,0,9.64,17.52,17.46,39.13,17.46s39.13-7.82,39.13-17.46c0-4.31-5.55-8.12-13.11-11.41h0"/><path class="cls-7" d="M617.6,634.73c6,12,13.92,25.31,23.3,40l5.41,7.81a4.22,4.22,0,0,0,6.94,0l5.41-7.81c9.38-14.7,17.3-28,23.3-40"/><ellipse class="cls-7" cx="649.78" cy="632.44" rx="32.54" ry="13.23"/><path class="cls-7" d="M664.17,775.71c-.27-.16-.56-.31-.86-.45a27.28,27.28,0,0,0-8-2.17"/><path class="cls-7" d="M654.62,786.94c7.48-.86,13-3.65,13-7a3.24,3.24,0,0,0-.31-1.35"/><path class="cls-7" d="M632,780c0,2.28,2.6,4.32,6.65,5.64"/><path class="cls-7" d="M644.28,773.08h0a27.19,27.19,0,0,0-8,2.17,11,11,0,0,0-2.9,1.9"/><path class="cls-7" d="M679.52,784.61a9.23,9.23,0,0,0-3.72-4.52h0c-2.91-2.07-7.26-3.75-12.49-4.83h0"/><path class="cls-7" d="M633.8,796.46a65.52,65.52,0,0,0,16,1.87,69.75,69.75,0,0,0,9.59-.64"/><path class="cls-7" d="M636.26,775.26h0c-5.22,1.08-9.56,2.76-12.47,4.81h0c-2.52,1.79-4,3.86-4,6.06a5.47,5.47,0,0,0,.11,1.07"/><path class="cls-5" d="M745.38,491.46c16.33-2.93,26.91-16.81,32.36-42.43s1.42-42.6-12.31-51.92c-21.5-14.6-59.48-5.39-113.56,14.87-41.16-40.5-72.1-64.36-97.69-59.77-16.33,2.92-26.92,16.8-32.36,42.42s-1.42,42.61,12.31,51.93c21.5,14.59,59.48,5.39,113.55-14.87C688.85,472.19,719.79,496.05,745.38,491.46Z"/><path class="cls-3" d="M743.65,441.79c4.49-21.14,15.1-36.8,23.7-35"/><path class="cls-3" d="M774.78,448.4c-4.5,21.14-15.11,36.8-23.7,35"/><path class="cls-7" d="M530.47,385.8a90.44,90.44,0,0,0-2.58,10.13c-4.8,22.59-1.25,37.56,10.85,45.77,19,12.87,49.58,5.82,97.26-12"/><path class="cls-7" d="M633.87,430.45c-12.35,4.61-58.23-.66-80.78-12.4-16.83-8.76-33.35-31.56-15.21-39.83,12.43-5.67,31.63,1.63,60.72,26.47C632.24,433.42,640.77,427.87,633.87,430.45Z"/><line class="cls-1" x1="649.78" y1="694.66" x2="649.78" y2="760.35"/><polygon class="cls-2" points="633.42 747.1 636.35 744.37 649.78 758.82 663.21 744.37 666.14 747.1 649.78 764.69 633.42 747.1"/><path class="cls-1" d="M673.78,325.57c25.39-.95,51.54,16.94,63.57,45.92a81.63,81.63,0,0,1,6.26,28.43"/><polygon class="cls-2" points="726.02 387.91 728.75 384.98 743.2 398.4 755.53 383.01 758.65 385.52 743.63 404.26 726.02 387.91"/></g></svg>