<?xml version="1.0" encoding="UTF-8"?><svg id="_이어_1" xmlns="http://www.w3.org/2000/svg" viewBox="0 0 287.78 287.74"><defs><style>.cls-1{fill:#0fd;}</style></defs><polygon class="cls-1" points="12.35 143.87 22.37 141.98 12.42 139.78 22.49 138.2 12.6 135.7 22.72 134.42 12.92 131.62 23.07 130.66 13.36 127.55 23.53 126.91 13.92 123.5 24.11 123.17 14.62 119.46 24.81 119.45 15.43 115.45 25.62 115.76 16.38 111.47 26.55 112.1 17.44 107.52 27.59 108.47 18.63 103.6 28.75 104.87 19.95 99.73 30.02 101.31 21.38 95.89 31.4 97.79 22.93 92.11 32.89 94.32 24.6 88.37 34.48 90.89 26.39 84.69 36.19 87.51 28.29 81.06 37.99 84.19 30.3 77.5 39.9 80.93 32.43 74 41.91 77.73 34.66 70.57 44.02 74.59 36.99 67.21 46.23 71.52 39.43 63.93 48.53 68.52 41.97 60.72 50.92 65.59 44.6 57.59 53.4 62.74 47.34 54.55 55.97 59.96 50.16 51.59 58.63 57.27 53.08 48.72 61.36 54.66 56.08 45.94 64.18 52.13 59.16 43.25 67.07 49.7 62.33 40.67 70.03 47.35 65.58 38.18 73.07 45.1 68.9 35.79 76.17 42.94 72.3 33.51 79.34 40.88 75.76 31.33 82.57 38.92 79.29 29.27 85.87 37.06 82.89 27.31 89.21 35.3 86.54 25.46 92.61 33.65 90.25 23.74 96.07 32.11 94.01 22.12 99.56 30.68 97.82 20.63 103.1 29.35 101.68 19.26 106.68 28.14 105.58 18.01 110.3 27.04 109.51 16.88 113.95 26.06 113.48 15.87 117.62 25.19 117.47 14.99 121.33 24.43 121.5 14.24 125.05 23.79 125.54 13.61 128.8 23.27 129.6 13.1 132.56 22.86 133.67 12.73 136.33 22.57 137.76 12.48 140.11 22.4 141.84 12.35 143.89 22.34 145.93 12.35 147.67 22.4 150.02 12.48 151.45 22.57 154.1 12.73 155.22 22.86 158.18 13.1 158.98 23.27 162.24 13.61 162.72 23.79 166.28 14.24 166.45 24.43 170.3 14.99 170.15 25.19 174.3 15.87 173.83 26.06 178.27 16.88 177.48 27.04 182.2 18.01 181.1 28.14 186.1 19.26 184.68 29.35 189.96 20.63 188.22 30.68 193.77 22.12 191.71 32.11 197.53 23.74 195.16 33.65 201.24 25.47 198.56 35.3 204.89 27.31 201.91 37.06 208.48 29.27 205.2 38.92 212.02 31.33 208.44 40.88 215.48 33.51 211.61 42.94 218.88 35.79 214.71 45.1 222.2 38.18 217.75 47.35 225.45 40.67 220.71 49.7 228.61 43.26 223.6 52.13 231.7 45.94 226.42 54.66 234.7 48.72 229.15 57.27 237.62 51.59 231.81 59.97 240.44 54.55 234.37 62.74 243.17 57.59 236.86 65.59 245.81 60.72 239.25 68.52 248.35 63.93 241.55 71.52 250.79 67.21 243.75 74.59 253.12 70.57 245.86 77.73 255.35 74 247.87 80.93 257.47 77.5 249.78 84.2 259.49 81.07 251.59 87.52 261.39 84.69 253.29 90.89 263.17 88.37 254.89 94.32 264.84 92.11 256.38 97.79 266.4 95.89 257.76 101.31 267.83 99.73 259.03 104.87 269.14 103.61 260.18 108.47 270.33 107.52 261.23 112.1 271.4 111.47 262.15 115.76 272.34 115.46 262.97 119.46 273.16 119.46 263.66 123.17 273.85 123.5 264.24 126.91 274.42 127.55 264.71 130.66 274.86 131.62 265.06 134.42 275.17 135.7 265.29 138.2 275.36 139.78 265.4 141.98 275.42 143.87 265.4 145.76 275.36 147.96 265.29 149.54 275.17 152.05 265.06 153.32 274.86 156.12 264.71 157.09 274.42 160.19 264.24 160.84 273.85 164.25 263.66 164.57 273.16 168.28 262.97 168.29 272.34 172.29 262.15 171.98 271.4 176.27 261.23 175.64 270.33 180.22 260.18 179.28 269.14 184.14 259.03 182.87 267.83 188.02 257.76 186.43 266.4 191.85 256.38 189.95 264.84 195.64 254.89 193.43 263.17 199.37 253.29 196.85 261.39 203.05 251.59 200.23 259.49 206.68 249.78 203.55 257.47 210.24 247.87 206.81 255.35 213.74 245.86 210.01 253.12 217.17 243.75 213.15 250.79 220.53 241.55 216.22 248.35 223.82 239.25 219.22 245.81 227.02 236.86 222.15 243.17 230.15 234.37 225 240.44 233.2 231.8 227.78 237.62 236.15 229.15 230.47 234.7 239.02 226.42 233.08 231.7 241.8 223.6 235.61 228.61 244.49 220.71 238.05 225.44 247.08 217.75 240.39 222.2 249.56 214.71 242.65 218.87 251.95 211.6 244.8 215.48 254.23 208.43 246.86 212.01 256.41 205.2 248.83 208.48 258.48 201.91 250.68 204.89 260.43 198.56 252.44 201.24 262.28 195.16 254.09 197.53 264.01 191.71 255.63 193.76 265.62 188.21 257.07 189.95 267.11 184.67 258.39 186.1 268.49 181.1 259.6 182.2 269.74 177.48 260.7 178.27 270.87 173.83 261.69 174.3 271.87 170.15 262.56 170.3 272.75 166.45 263.31 166.28 273.51 162.72 263.95 162.24 274.14 158.98 264.47 158.18 274.64 155.22 264.88 154.1 275.01 151.45 265.17 150.02 275.26 147.67 265.34 145.93 275.39 143.89 265.4 141.84 275.39 140.11 265.34 137.76 275.26 136.33 265.17 133.67 275.01 132.56 264.88 129.6 274.64 128.8 264.47 125.54 274.14 125.05 263.95 121.5 273.51 121.33 263.31 117.47 272.75 117.62 262.56 113.48 271.87 113.95 261.69 109.51 270.87 110.3 260.7 105.57 269.74 106.68 259.6 101.68 268.48 103.1 258.39 97.82 267.11 99.56 257.07 94.01 265.62 96.06 255.63 90.25 264.01 92.61 254.09 86.54 262.28 89.21 252.44 82.89 260.43 85.86 250.68 79.29 258.48 82.57 248.82 75.76 256.41 79.34 246.86 72.3 254.23 76.17 244.8 68.9 251.95 73.07 242.64 65.58 249.56 70.03 240.39 62.33 247.07 67.06 238.05 59.16 244.49 64.17 235.61 56.08 241.8 61.36 233.08 53.07 239.02 58.62 230.47 50.16 236.15 55.97 227.78 47.33 233.19 53.4 225 44.6 230.15 50.92 222.15 41.97 227.02 48.53 219.22 39.43 223.81 46.23 216.22 36.99 220.53 44.02 213.15 34.65 217.17 41.91 210.01 32.42 213.74 39.9 206.81 30.3 210.24 37.99 203.55 28.29 206.68 36.19 200.23 26.39 203.05 34.48 196.85 24.6 199.37 32.89 193.43 22.93 195.63 31.4 189.95 21.38 191.85 30.02 186.43 19.95 188.01 28.75 182.87 18.63 184.14 27.59 179.27 17.44 180.22 26.55 175.64 16.38 176.27 25.62 171.98 15.43 172.29 24.81 168.29 14.62 168.28 24.11 164.57 13.92 164.24 23.53 160.84 13.36 160.19 23.07 157.08 12.92 156.12 22.72 153.32 12.6 152.05 22.49 149.54 12.42 147.96 22.37 145.76 12.35 143.87"/></svg>