<?xml version="1.0" encoding="UTF-8"?><svg id="_이어_1" xmlns="http://www.w3.org/2000/svg" viewBox="0 0 287.78 287.74"><defs><style>.cls-1{fill:#ffb666;}</style></defs><polygon class="cls-1" points="123.54 143.87 133.55 143.71 123.55 143.24 133.56 143.39 123.58 142.61 133.58 143.06 123.63 141.98 133.61 142.74 123.7 141.35 133.65 142.42 123.79 140.73 133.7 142.1 123.89 140.1 133.76 141.79 124.02 139.48 133.83 141.48 124.17 138.86 133.9 141.16 124.33 138.25 133.99 140.86 124.52 137.64 134.09 140.55 124.72 137.04 134.2 140.25 124.94 136.45 134.32 139.95 125.18 135.86 134.44 139.66 125.44 135.28 134.58 139.37 125.72 134.71 134.72 139.08 126.01 134.15 134.88 138.8 126.32 133.6 135.04 138.52 126.65 133.06 135.21 138.25 127 132.53 135.39 137.98 127.36 132.01 135.58 137.72 127.73 131.5 135.77 137.46 128.13 131.01 135.98 137.21 128.53 130.52 136.19 136.97 128.96 130.05 136.41 136.73 129.39 129.6 136.63 136.5 129.84 129.15 136.87 136.28 130.31 128.72 137.11 136.06 130.78 128.31 137.35 135.86 131.27 127.91 137.61 135.66 131.77 127.53 137.87 135.46 132.29 127.16 138.13 135.28 132.81 126.8 138.4 135.1 133.35 126.47 138.67 134.94 133.89 126.15 138.95 134.78 134.45 125.84 139.24 134.63 135.02 125.56 139.53 134.49 135.59 125.29 139.82 134.36 136.17 125.04 140.12 134.24 136.76 124.81 140.42 134.13 137.36 124.6 140.72 134.02 137.96 124.4 141.03 133.93 138.57 124.23 141.34 133.85 139.19 124.07 141.65 133.77 139.81 123.94 141.96 133.71 140.43 123.82 142.28 133.65 141.06 123.72 142.6 133.61 141.68 123.65 142.92 133.57 142.31 123.59 143.24 133.55 142.94 123.55 143.56 133.54 143.57 123.53 143.89 133.53 144.2 123.53 144.21 133.54 144.83 123.55 144.54 133.55 145.46 123.59 144.86 133.57 146.09 123.65 145.18 133.61 146.72 123.72 145.5 133.65 147.35 123.82 145.81 133.71 147.97 123.94 146.13 133.77 148.59 124.07 146.44 133.85 149.2 124.23 146.75 133.93 149.81 124.4 147.06 134.02 150.42 124.6 147.36 134.13 151.02 124.81 147.66 134.24 151.61 125.04 147.96 134.36 152.19 125.29 148.25 134.49 152.76 125.56 148.54 134.63 153.33 125.85 148.82 134.78 153.88 126.15 149.1 134.94 154.43 126.47 149.38 135.11 154.97 126.8 149.65 135.28 155.49 127.16 149.91 135.46 156 127.53 150.17 135.66 156.51 127.91 150.42 135.86 157 128.31 150.67 136.06 157.47 128.73 150.91 136.28 157.94 129.16 151.14 136.5 158.39 129.6 151.37 136.73 158.82 130.06 151.59 136.97 159.24 130.53 151.8 137.21 159.65 131.01 152 137.46 160.04 131.5 152.2 137.72 160.42 132.01 152.39 137.98 160.78 132.53 152.57 138.25 161.13 133.06 152.74 138.52 161.45 133.6 152.9 138.8 161.77 134.15 153.06 139.08 162.06 134.72 153.2 139.37 162.34 135.29 153.34 139.66 162.6 135.86 153.46 139.95 162.84 136.45 153.58 140.25 163.06 137.04 153.69 140.55 163.26 137.64 153.78 140.86 163.45 138.25 153.87 141.16 163.61 138.86 153.95 141.48 163.76 139.48 154.02 141.79 163.88 140.1 154.08 142.1 163.99 140.73 154.13 142.42 164.08 141.35 154.17 142.74 164.15 141.98 154.2 143.06 164.19 142.61 154.22 143.38 164.22 143.24 154.23 143.71 164.23 143.87 154.23 144.03 164.22 144.5 154.22 144.36 164.19 145.13 154.2 144.68 164.15 145.76 154.17 145 164.08 146.39 154.13 145.32 163.99 147.02 154.08 145.64 163.88 147.64 154.02 145.95 163.76 148.26 153.95 146.27 163.61 148.88 153.87 146.58 163.45 149.49 153.78 146.89 163.26 150.1 153.69 147.19 163.06 150.7 153.58 147.49 162.84 151.29 153.46 147.79 162.59 151.88 153.34 148.09 162.34 152.46 153.2 148.38 162.06 153.03 153.06 148.66 161.77 153.59 152.9 148.95 161.45 154.14 152.74 149.22 161.13 154.68 152.57 149.5 160.78 155.21 152.39 149.76 160.42 155.73 152.2 150.03 160.04 156.24 152 150.28 159.65 156.74 151.8 150.53 159.24 157.22 151.59 150.77 158.82 157.69 151.37 151.01 158.38 158.15 151.14 151.24 157.93 158.59 150.91 151.46 157.47 159.02 150.67 151.68 156.99 159.43 150.42 151.89 156.5 159.83 150.17 152.09 156 160.22 149.91 152.28 155.49 160.59 149.65 152.46 154.96 160.94 149.38 152.64 154.43 161.28 149.1 152.8 153.88 161.6 148.82 152.96 153.33 161.9 148.54 153.11 152.76 162.18 148.25 153.25 152.19 162.45 147.96 153.38 151.6 162.7 147.66 153.5 151.01 162.93 147.36 153.62 150.42 163.14 147.06 153.72 149.81 163.34 146.75 153.81 149.2 163.51 146.44 153.9 148.59 163.67 146.13 153.97 147.97 163.81 145.81 154.03 147.35 163.92 145.5 154.09 146.72 164.02 145.18 154.13 146.09 164.1 144.86 154.17 145.46 164.16 144.54 154.19 144.83 164.19 144.21 154.21 144.2 164.21 143.89 154.21 143.57 164.21 143.56 154.21 142.94 164.19 143.24 154.19 142.31 164.16 142.92 154.17 141.68 164.1 142.6 154.13 141.06 164.02 142.28 154.09 140.43 163.92 141.96 154.03 139.81 163.81 141.65 153.97 139.19 163.67 141.34 153.9 138.57 163.51 141.03 153.81 137.96 163.34 140.72 153.72 137.36 163.14 140.42 153.62 136.76 162.93 140.12 153.5 136.17 162.7 139.82 153.38 135.59 162.45 139.53 153.25 135.01 162.18 139.24 153.11 134.45 161.9 138.95 152.96 133.89 161.59 138.67 152.8 133.35 161.27 138.4 152.64 132.81 160.94 138.13 152.46 132.29 160.59 137.86 152.28 131.77 160.22 137.61 152.09 131.27 159.83 137.35 151.89 130.78 159.43 137.11 151.68 130.3 159.02 136.87 151.46 129.84 158.59 136.63 151.24 129.39 158.14 136.41 151.01 128.95 157.69 136.19 150.77 128.53 157.22 135.98 150.53 128.12 156.73 135.77 150.28 127.73 156.24 135.58 150.02 127.36 155.73 135.39 149.76 127 155.21 135.21 149.5 126.65 154.68 135.04 149.22 126.32 154.14 134.87 148.95 126.01 153.59 134.72 148.66 125.72 153.03 134.58 148.38 125.44 152.46 134.44 148.09 125.18 151.88 134.31 147.79 124.94 151.29 134.2 147.49 124.72 150.7 134.09 147.19 124.52 150.1 133.99 146.89 124.33 149.49 133.9 146.58 124.17 148.88 133.83 146.27 124.02 148.26 133.76 145.95 123.89 147.64 133.7 145.64 123.79 147.02 133.65 145.32 123.7 146.39 133.61 145 123.63 145.76 133.58 144.68 123.58 145.13 133.56 144.36 123.55 144.5 133.55 144.03 123.54 143.87"/></svg>