<?xml version="1.0" encoding="UTF-8"?><svg id="_이어_1" xmlns="http://www.w3.org/2000/svg" viewBox="0 0 287.78 287.74"><defs><style>.cls-1{fill:#00b1ff;}</style></defs><polygon class="cls-1" points="80.3 143.87 90.31 143.04 80.33 141.9 90.36 141.37 80.42 139.92 90.47 139.7 80.58 137.95 90.62 138.04 80.79 135.98 90.82 136.39 81.06 134.03 91.08 134.74 81.4 132.08 91.39 133.1 81.79 130.14 91.75 131.48 82.25 128.21 92.16 129.86 82.76 126.3 92.62 128.26 83.34 124.41 93.12 126.67 83.97 122.53 93.68 125.11 84.67 120.68 94.29 123.55 85.42 118.85 94.95 122.02 86.23 117.04 95.65 120.51 87.09 115.26 96.4 119.03 88.01 113.51 97.2 117.56 88.98 111.78 98.04 116.12 90.01 110.09 98.93 114.71 91.09 108.44 99.86 113.33 92.21 106.81 100.83 111.97 93.39 105.22 101.85 110.65 94.62 103.67 102.9 109.36 95.89 102.16 103.99 108.1 97.21 100.69 105.13 106.88 98.58 99.26 106.3 105.69 99.99 97.87 107.5 104.54 101.44 96.53 108.75 103.42 102.93 95.23 110.02 102.35 104.46 93.98 111.33 101.31 106.03 92.78 112.67 100.32 107.64 91.63 114.04 99.37 109.28 90.52 115.43 98.46 110.95 89.47 116.86 97.6 112.66 88.47 118.31 96.78 114.4 87.52 119.79 96 116.17 86.63 121.28 95.28 117.96 85.8 122.8 94.6 119.78 85.02 124.35 93.96 121.62 84.3 125.91 93.38 123.48 83.63 127.48 92.85 125.37 83.03 129.08 92.36 127.27 82.48 130.68 91.93 129.19 82 132.31 91.54 131.12 81.57 133.94 91.21 133.07 81.2 135.58 90.93 135.02 80.9 137.23 90.7 136.98 80.66 138.89 90.52 138.95 80.48 140.55 90.39 140.93 80.35 142.22 90.32 142.9 80.29 143.89 90.29 144.88 80.29 145.56 90.32 146.85 80.35 147.23 90.39 148.82 80.48 148.89 90.52 150.79 80.66 150.55 90.7 152.76 80.9 152.2 90.93 154.71 81.2 153.84 91.21 156.66 81.57 155.47 91.54 158.59 82 157.09 91.93 160.51 82.48 158.7 92.36 162.41 83.03 160.29 92.85 164.29 83.63 161.87 93.38 166.16 84.3 163.43 93.96 168 85.02 164.97 94.6 169.82 85.8 166.49 95.28 171.61 86.63 167.99 96 173.38 87.53 169.47 96.78 175.12 88.47 170.92 97.6 176.82 89.47 172.35 98.46 178.5 90.52 173.74 99.37 180.14 91.63 175.11 100.32 181.75 92.78 176.45 101.32 183.32 93.98 177.76 102.35 184.85 95.23 179.03 103.43 186.34 96.53 180.27 104.54 187.79 97.87 181.48 105.69 189.2 99.26 182.65 106.88 190.56 100.69 183.78 108.1 191.88 102.16 184.88 109.36 193.16 103.68 185.93 110.65 194.39 105.23 186.95 111.98 195.56 106.81 187.92 113.33 196.69 108.44 188.85 114.71 197.77 110.1 189.74 116.13 198.8 111.79 190.58 117.56 199.77 113.51 191.38 119.03 200.69 115.26 192.13 120.51 201.55 117.04 192.83 122.02 202.36 118.85 193.49 123.56 203.11 120.68 194.09 125.11 203.8 122.53 194.65 126.68 204.44 124.41 195.16 128.26 205.01 126.3 195.62 129.86 205.53 128.21 196.03 131.48 205.99 130.14 196.39 133.1 206.38 132.08 196.7 134.74 206.72 134.03 196.95 136.39 206.99 135.98 197.16 138.04 207.2 137.95 197.31 139.7 207.35 139.92 197.41 141.37 207.44 141.9 197.46 143.04 207.47 143.87 197.46 144.71 207.44 145.85 197.41 146.37 207.35 147.82 197.31 148.04 207.2 149.79 197.16 149.7 206.99 151.76 196.95 151.36 206.72 153.72 196.7 153 206.38 155.67 196.39 154.64 205.98 157.61 196.03 156.27 205.53 159.53 195.62 157.88 205.01 161.44 195.16 159.48 204.44 163.34 194.65 161.07 203.8 165.21 194.09 162.64 203.11 167.07 193.49 164.19 202.36 168.9 192.83 165.72 201.55 170.7 192.13 167.23 200.69 172.48 191.37 168.72 199.77 174.24 190.58 170.18 198.79 175.96 189.74 171.62 197.77 177.65 188.85 173.03 196.69 179.31 187.92 174.41 195.56 180.93 186.95 175.77 194.38 182.52 185.93 177.09 193.16 184.07 184.88 178.38 191.88 185.58 183.78 179.64 190.56 187.05 182.65 180.87 189.2 188.48 181.48 182.05 187.79 189.87 180.27 183.21 186.34 191.21 179.03 184.32 184.85 192.51 177.76 185.39 183.31 193.76 176.45 186.43 181.74 194.96 175.11 187.42 180.14 196.12 173.74 188.37 178.5 197.22 172.34 189.28 176.82 198.27 170.92 190.15 175.12 199.27 169.47 190.97 173.38 200.22 167.99 191.74 171.61 201.11 166.49 192.47 169.82 201.95 164.97 193.15 168 202.72 163.43 193.78 166.16 203.45 161.87 194.36 164.29 204.11 160.29 194.9 162.41 204.72 158.7 195.38 160.51 205.26 157.09 195.81 158.59 205.75 155.47 196.2 156.65 206.17 153.84 196.53 154.71 206.54 152.2 196.81 152.76 206.84 150.55 197.04 150.79 207.09 148.89 197.22 148.82 207.27 147.23 197.35 146.85 207.39 145.56 197.43 144.88 207.45 143.89 197.45 142.9 207.45 142.22 197.43 140.93 207.39 140.55 197.35 138.95 207.27 138.89 197.22 136.98 207.09 137.23 197.04 135.02 206.84 135.58 196.81 133.07 206.54 133.94 196.53 131.12 206.17 132.31 196.2 129.19 205.75 130.68 195.81 127.27 205.26 129.08 195.38 125.37 204.72 127.48 194.9 123.48 204.11 125.9 194.36 121.62 203.45 124.34 193.78 119.78 202.72 122.8 193.15 117.96 201.94 121.28 192.47 116.16 201.11 119.78 191.74 114.4 200.22 118.31 190.96 112.66 199.27 116.86 190.15 110.95 198.27 115.43 189.28 109.28 197.22 114.03 188.37 107.64 196.12 112.66 187.42 106.03 194.96 111.33 186.43 104.46 193.76 110.02 185.39 102.93 192.51 108.74 184.32 101.44 191.21 107.5 183.2 99.99 189.87 106.3 182.05 98.58 188.48 105.13 180.86 97.21 187.05 103.99 179.64 95.89 185.58 102.9 178.38 94.62 184.07 101.84 177.09 93.39 182.52 100.83 175.77 92.21 180.93 99.86 174.41 91.08 179.31 98.93 173.03 90.01 177.65 98.04 171.62 88.98 175.96 97.2 170.18 88.01 174.23 96.4 168.72 87.09 172.48 95.65 167.23 86.23 170.7 94.95 165.72 85.42 168.89 94.29 164.19 84.67 167.06 93.68 162.64 83.97 165.21 93.12 161.07 83.34 163.34 92.62 159.48 82.76 161.44 92.16 157.88 82.25 159.53 91.75 156.27 81.79 157.61 91.39 154.64 81.4 155.67 91.08 153 81.06 153.72 90.82 151.36 80.79 151.76 90.62 149.7 80.58 149.79 90.47 148.04 80.42 147.82 90.36 146.38 80.33 145.85 90.31 144.71 80.3 143.87"/></svg>