<?xml version="1.0" encoding="UTF-8"?><svg id="_이어_1" xmlns="http://www.w3.org/2000/svg" viewBox="0 0 287.78 287.74"><defs><style>.cls-1{fill:#0fd;}</style></defs><polygon class="cls-1" points="74.13 143.87 84.14 142.94 74.16 141.7 84.19 141.08 74.26 139.54 84.31 139.22 74.43 137.38 84.48 137.37 74.66 135.22 84.71 135.53 74.96 133.07 84.99 133.69 75.33 130.93 85.34 131.86 75.76 128.8 85.74 130.05 76.26 126.69 86.19 128.25 76.83 124.59 86.7 126.46 77.46 122.51 87.27 124.69 78.15 120.46 87.9 122.94 78.91 118.42 88.57 121.21 79.74 116.42 89.31 119.5 80.62 114.43 90.09 117.82 81.57 112.48 90.93 116.16 82.58 110.56 91.82 114.53 83.65 108.67 92.76 112.92 84.77 106.81 93.75 111.35 85.96 104.99 94.78 109.81 87.19 103.21 95.87 108.3 88.49 101.47 97 106.82 89.83 99.77 98.17 105.38 91.23 98.11 99.4 103.98 92.68 96.5 100.66 102.61 94.18 94.93 101.96 101.29 95.72 93.4 103.31 100 97.32 91.93 104.69 98.76 98.95 90.51 106.12 97.56 100.63 89.14 107.57 96.41 102.35 87.82 109.07 95.3 104.12 86.55 110.59 94.24 105.92 85.34 112.15 93.23 107.75 84.19 113.74 92.26 109.63 83.09 115.36 91.35 111.53 82.05 117.01 90.49 113.47 81.07 118.68 89.67 115.44 80.16 120.37 88.92 117.44 79.3 122.09 88.21 119.46 78.51 123.83 87.56 121.5 77.78 125.59 86.96 123.57 77.12 127.37 86.42 125.66 76.52 129.16 85.94 127.76 75.98 130.97 85.51 129.88 75.52 132.79 85.14 132.01 75.12 134.62 84.83 134.16 74.78 136.46 84.57 136.31 74.52 138.31 84.37 138.47 74.32 140.17 84.23 140.64 74.18 142.03 84.14 142.8 74.12 143.89 84.11 144.97 74.12 145.75 84.14 147.14 74.18 147.61 84.23 149.3 74.32 149.46 84.37 151.46 74.52 151.31 84.57 153.62 74.78 153.15 84.83 155.76 75.12 154.99 85.14 157.9 75.52 156.81 85.51 160.02 75.98 158.61 85.94 162.12 76.52 160.41 86.42 164.21 77.12 162.19 86.96 166.28 77.78 163.95 87.56 168.32 78.51 165.69 88.21 170.34 79.3 167.4 88.92 172.34 80.16 169.1 89.67 174.31 81.07 170.77 90.49 176.24 82.05 172.42 91.35 178.15 83.09 174.04 92.26 180.02 84.19 175.63 93.23 181.86 85.34 177.19 94.24 183.66 86.55 178.71 95.3 185.42 87.82 180.21 96.41 187.15 89.14 181.66 97.56 188.83 90.51 183.09 98.76 190.46 91.93 184.47 100 192.06 93.41 185.81 101.29 193.6 94.93 187.12 102.61 195.1 96.5 188.38 103.98 196.55 98.11 189.6 105.38 197.95 99.77 190.78 106.82 199.29 101.47 191.91 108.3 200.58 103.21 193 109.81 201.82 105 194.03 111.35 203 106.81 195.02 112.93 204.13 108.67 195.96 114.53 205.2 110.56 196.85 116.16 206.21 112.48 197.69 117.82 207.15 114.44 198.47 119.51 208.04 116.42 199.2 121.21 208.86 118.43 199.88 122.94 209.62 120.46 200.5 124.69 210.32 122.52 201.07 126.46 210.95 124.59 201.59 128.25 211.52 126.69 202.04 130.05 212.02 128.8 202.44 131.86 212.45 130.93 202.78 133.69 212.82 133.07 203.07 135.53 213.12 135.22 203.3 137.37 213.35 137.38 203.47 139.22 213.52 139.54 203.58 141.08 213.62 141.7 203.64 142.94 213.65 143.87 203.64 144.8 213.62 146.04 203.58 146.66 213.52 148.2 203.47 148.52 213.35 150.37 203.3 150.37 213.12 152.52 203.07 152.22 212.82 154.67 202.78 154.05 212.45 156.81 202.44 155.88 212.02 158.94 202.04 157.69 211.52 161.05 201.58 159.5 210.95 163.15 201.07 161.28 210.32 165.23 200.5 163.05 209.62 167.29 199.88 164.8 208.86 169.32 199.2 166.53 208.04 171.33 198.47 168.24 207.15 173.31 197.69 169.92 206.2 175.26 196.85 171.58 205.2 177.19 195.96 173.21 204.13 179.07 195.02 174.82 203 180.93 194.03 176.39 201.82 182.75 192.99 177.94 200.58 184.53 191.91 179.45 199.29 186.27 190.78 180.92 197.94 187.97 189.6 182.36 196.55 189.63 188.38 183.77 195.1 191.25 187.12 185.13 193.6 192.82 185.81 186.46 192.05 194.34 184.47 187.74 190.46 195.81 183.08 188.98 188.82 197.24 181.66 190.18 187.14 198.61 180.2 191.33 185.42 199.93 178.71 192.44 183.66 201.19 177.18 193.5 181.86 202.4 175.62 194.52 180.02 203.56 174.04 195.48 178.15 204.65 172.42 196.39 176.24 205.69 170.77 197.26 174.3 206.67 169.1 198.07 172.34 207.59 167.4 198.83 170.34 208.44 165.68 199.53 168.32 209.23 163.94 200.18 166.27 209.96 162.18 200.78 164.21 210.63 160.41 201.32 162.12 211.23 158.61 201.8 160.02 211.76 156.81 202.23 157.9 212.23 154.99 202.6 155.76 212.63 153.15 202.92 153.62 212.96 151.31 203.17 151.46 213.23 149.46 203.37 149.3 213.43 147.61 203.52 147.14 213.56 145.75 203.6 144.97 213.63 143.89 203.63 142.8 213.63 142.03 203.6 140.64 213.56 140.17 203.52 138.47 213.43 138.31 203.37 136.31 213.23 136.46 203.17 134.16 212.96 134.62 202.92 132.01 212.63 132.79 202.6 129.88 212.23 130.97 202.23 127.76 211.76 129.16 201.8 125.66 211.23 127.37 201.32 123.57 210.63 125.59 200.78 121.5 209.96 123.83 200.18 119.45 209.23 122.09 199.53 117.43 208.44 120.37 198.83 115.44 207.59 118.68 198.07 113.47 206.67 117 197.26 111.53 205.69 115.36 196.39 109.63 204.65 113.74 195.48 107.75 203.56 112.15 194.52 105.92 202.4 110.59 193.5 104.11 201.19 109.07 192.44 102.35 199.93 107.57 191.33 100.63 198.61 106.11 190.18 98.95 197.23 104.69 188.98 97.31 195.81 103.31 187.74 95.72 194.34 101.96 186.45 94.18 192.81 100.66 185.13 92.68 191.25 99.39 183.76 91.23 189.63 98.17 182.36 89.83 187.97 97 180.92 88.49 186.27 95.87 179.44 87.19 184.53 94.78 177.93 85.95 182.75 93.74 176.39 84.77 180.93 92.76 174.82 83.65 179.07 91.82 173.21 82.58 177.18 90.93 171.58 81.57 175.26 90.09 169.92 80.62 173.31 89.31 168.24 79.74 171.33 88.57 166.53 78.91 169.32 87.9 164.8 78.15 167.28 87.27 163.05 77.46 165.23 86.7 161.28 76.83 163.15 86.19 159.5 76.26 161.05 85.74 157.69 75.76 158.94 85.34 155.88 75.33 156.81 84.99 154.05 74.96 154.67 84.71 152.22 74.66 152.52 84.48 150.37 74.43 150.37 84.31 148.52 74.26 148.2 84.19 146.66 74.16 146.04 84.14 144.8 74.13 143.87"/></svg>