<?xml version="1.0" encoding="UTF-8"?><svg id="_이어_1" xmlns="http://www.w3.org/2000/svg" viewBox="0 0 287.78 287.74"><defs><style>.cls-1{fill:#7466ff;}</style></defs><polygon class="cls-1" points="0 143.87 10.02 141.79 .07 139.4 10.15 137.62 .27 134.93 10.4 133.46 .62 130.47 10.79 129.31 1.1 126.02 11.3 125.18 1.72 121.58 11.94 121.07 2.47 117.17 12.71 116.97 3.37 112.78 13.6 112.91 4.4 108.43 14.62 108.87 5.57 104.11 15.77 104.87 6.87 99.82 17.05 100.9 8.31 95.58 18.44 96.98 9.87 91.39 19.96 93.11 11.57 87.24 21.6 89.28 13.4 83.16 23.36 85.5 15.35 79.13 25.24 81.79 17.43 75.17 27.23 78.13 19.63 71.27 29.33 74.53 21.96 67.44 31.55 71.01 24.39 63.69 33.87 67.55 26.95 60.01 36.3 64.17 29.62 56.42 38.84 60.86 32.39 52.91 41.47 57.64 35.28 49.49 44.21 54.49 38.27 46.16 47.03 51.43 41.36 42.92 49.96 48.47 44.55 39.78 52.97 45.59 47.83 36.74 56.07 42.81 51.21 33.8 59.26 40.12 54.67 30.97 62.52 37.54 58.22 28.25 65.87 35.06 61.86 25.64 69.29 32.68 65.57 23.14 72.78 30.41 69.36 20.76 76.34 28.25 73.23 18.5 79.97 26.2 77.16 16.36 83.66 24.27 81.16 14.34 87.4 22.45 85.21 12.45 91.2 20.75 89.33 10.69 95.06 19.17 93.5 9.06 98.96 17.71 97.71 7.55 102.9 16.38 101.98 6.18 106.88 15.16 106.28 4.95 110.9 14.08 110.62 3.85 114.95 13.12 114.99 2.89 119.03 12.29 119.39 2.06 123.14 11.58 123.82 1.37 127.26 11.01 128.26 .82 131.4 10.56 132.71 .41 135.56 10.24 137.18 .14 139.72 10.05 141.65 0 143.89 9.99 146.13 0 148.06 10.05 150.6 .14 152.22 10.24 155.06 .41 156.37 10.56 159.52 .82 160.51 11.01 163.96 1.37 164.64 11.58 168.39 2.06 168.74 12.29 172.79 2.89 172.82 13.12 177.16 3.85 176.88 14.08 181.5 4.95 180.9 15.17 185.8 6.18 184.88 16.38 190.06 7.55 188.82 17.71 194.28 9.06 192.72 19.17 198.45 10.69 196.57 20.75 202.57 12.45 200.38 22.45 206.62 14.34 204.12 24.27 210.62 16.36 207.81 26.2 214.55 18.5 211.44 28.25 218.41 20.76 215 30.41 222.2 23.14 218.49 32.68 225.92 25.64 221.91 35.06 229.55 28.25 225.26 37.54 233.11 30.97 228.52 40.12 236.57 33.81 231.71 42.81 239.95 36.74 234.81 45.59 243.23 39.78 237.82 48.47 246.42 42.92 240.74 51.44 249.51 46.16 243.57 54.49 252.5 49.49 246.31 57.64 255.38 52.91 248.94 60.86 258.16 56.42 251.48 64.17 260.83 60.02 253.91 67.55 263.38 63.69 256.23 71.01 265.82 67.44 258.44 74.54 268.14 71.27 260.55 78.13 270.35 75.17 262.54 81.79 272.42 79.13 264.42 85.5 274.38 83.16 266.18 89.28 276.21 87.25 267.82 93.11 277.9 91.39 269.33 96.98 279.47 95.58 270.73 100.91 280.91 99.82 272 104.87 282.21 104.11 273.15 108.87 283.38 108.43 274.18 112.91 284.41 112.79 275.07 116.97 285.3 117.17 275.84 121.07 286.06 121.58 276.48 125.18 286.68 126.02 276.99 129.32 287.16 130.47 277.37 133.46 287.5 134.93 277.63 137.62 287.71 139.4 277.76 141.79 287.78 143.87 277.76 145.96 287.71 148.34 277.63 150.12 287.5 152.81 277.37 154.28 287.16 157.28 276.99 158.43 286.68 161.73 276.48 162.56 286.06 166.16 275.84 166.68 285.3 170.57 275.07 170.77 284.41 174.96 274.18 174.84 283.38 179.32 273.15 178.87 282.21 183.64 272 182.87 280.91 187.92 270.73 186.84 279.47 192.16 269.33 190.76 277.9 196.36 267.81 194.64 276.2 200.5 266.17 198.47 274.38 204.58 264.42 202.24 272.42 208.61 262.54 205.96 270.34 212.58 260.55 209.61 268.14 216.47 258.44 213.21 265.82 220.3 256.23 216.74 263.38 224.05 253.9 220.19 260.83 227.73 251.47 223.58 258.16 231.32 248.94 226.88 255.38 234.83 246.31 230.11 252.5 238.25 243.57 233.25 249.51 241.59 240.74 236.31 246.42 244.82 237.82 239.28 243.23 247.96 234.81 242.15 239.95 251 231.71 244.94 236.57 253.94 228.52 247.62 233.1 256.77 225.25 250.2 229.55 259.49 221.91 252.69 225.92 262.1 218.49 255.06 222.2 264.6 215 257.33 218.41 266.98 211.44 259.49 214.55 269.24 207.81 261.54 210.62 271.38 204.12 263.48 206.62 273.4 200.37 265.29 202.56 275.29 196.57 266.99 198.45 277.05 192.72 268.57 194.28 278.69 188.82 270.03 190.06 280.19 184.88 271.37 185.8 281.56 180.89 272.58 181.5 282.79 176.87 273.66 177.16 283.89 172.82 274.62 172.78 284.86 168.74 275.45 168.38 285.68 164.64 276.16 163.96 286.37 160.51 276.73 159.52 286.92 156.37 277.18 155.06 287.33 152.22 277.5 150.6 287.61 148.06 277.69 146.13 287.74 143.89 277.76 141.65 287.74 139.72 277.69 137.18 287.61 135.56 277.5 132.71 287.33 131.4 277.18 128.26 286.92 127.26 276.73 123.81 286.37 123.14 276.16 119.39 285.68 119.03 275.45 114.99 284.86 114.95 274.62 110.62 283.89 110.9 273.66 106.28 282.79 106.88 272.58 101.98 281.56 102.9 271.37 97.71 280.19 98.95 270.03 93.49 278.69 95.05 268.57 89.33 277.05 91.2 266.99 85.21 275.29 87.4 265.29 81.15 273.4 83.65 263.48 77.16 271.38 79.97 261.54 73.23 269.24 76.34 259.49 69.36 266.98 72.78 257.33 65.57 264.6 69.29 255.06 61.86 262.1 65.87 252.69 58.22 259.49 62.52 250.2 54.67 256.77 59.25 247.62 51.2 253.94 56.07 244.93 47.83 251 52.97 242.15 44.54 247.96 49.96 239.28 41.36 244.82 47.03 236.31 38.26 241.58 44.2 233.25 35.28 238.25 41.47 230.11 32.39 234.83 38.83 226.88 29.62 231.32 36.3 223.57 26.95 227.73 33.87 220.19 24.39 224.05 31.55 216.73 21.95 220.3 29.33 213.21 19.63 216.47 27.23 209.61 17.43 212.58 25.24 205.96 15.35 208.61 23.36 202.24 13.4 204.58 21.6 198.46 11.57 200.5 19.96 194.64 9.87 196.35 18.44 190.76 8.3 192.16 17.05 186.84 6.87 187.92 15.77 182.87 5.57 183.64 14.62 178.87 4.4 179.31 13.6 174.84 3.37 174.96 12.71 170.77 2.47 170.57 11.94 166.68 1.72 166.16 11.3 162.56 1.1 161.73 10.79 158.43 .62 157.28 10.4 154.28 .27 152.81 10.15 150.12 .07 148.34 10.02 145.96 0 143.87"/></svg>