<?xml version="1.0" encoding="UTF-8"?><svg id="_이어_1" xmlns="http://www.w3.org/2000/svg" viewBox="0 0 287.78 287.74"><defs><style>.cls-1{fill:#dfb;}</style></defs><polygon class="cls-1" points="105.01 143.87 115.02 143.42 105.03 142.66 115.05 142.52 105.09 141.46 115.1 141.62 105.18 140.25 115.18 140.73 105.31 139.05 115.3 139.84 105.48 137.85 115.43 138.95 105.68 136.66 115.6 138.07 105.92 135.47 115.79 137.19 106.2 134.3 116.01 136.32 106.52 133.13 116.26 135.46 106.87 131.97 116.53 134.6 107.26 130.82 116.83 133.76 107.68 129.69 117.16 132.92 108.14 128.57 117.52 132.1 108.63 127.46 117.89 131.29 109.16 126.38 118.3 130.48 109.73 125.3 118.73 129.7 110.32 124.25 119.18 128.92 110.95 123.22 119.66 128.16 111.61 122.2 120.16 127.41 112.3 121.21 120.69 126.68 113.02 120.24 121.23 125.97 113.77 119.29 121.8 125.28 114.55 118.37 122.39 124.6 115.35 117.47 123 123.94 116.19 116.6 123.63 123.3 117.05 115.75 124.28 122.68 117.93 114.93 124.95 122.08 118.85 114.13 125.64 121.5 119.78 113.37 126.34 120.94 120.74 112.63 127.07 120.4 121.72 111.93 127.8 119.89 122.73 111.25 128.56 119.4 123.75 110.61 129.33 118.93 124.79 110 130.11 118.49 125.86 109.42 130.9 118.08 126.94 108.88 131.71 117.68 128.03 108.37 132.53 117.32 129.15 107.89 133.36 116.98 130.27 107.45 134.2 116.66 131.41 107.04 135.05 116.38 132.57 106.67 135.91 116.12 133.73 106.34 136.77 115.88 134.9 106.04 137.64 115.67 136.08 105.78 138.52 115.5 137.27 105.56 139.41 115.34 138.47 105.37 140.3 115.22 139.67 105.22 141.19 115.12 140.87 105.11 142.09 115.05 142.08 105.04 142.99 115.01 143.29 105 143.89 115 144.49 105 144.79 115.01 145.7 105.04 145.69 115.05 146.9 105.11 146.59 115.12 148.11 105.22 147.48 115.22 149.31 105.37 148.37 115.34 150.5 105.56 149.25 115.5 151.69 105.78 150.13 115.67 152.88 106.04 151.01 115.88 154.05 106.34 151.87 116.12 155.21 106.67 152.73 116.38 156.36 107.04 153.58 116.66 157.51 107.45 154.42 116.98 158.63 107.89 155.25 117.32 159.74 108.37 156.07 117.69 160.84 108.88 156.88 118.08 161.92 109.42 157.67 118.49 162.98 110 158.45 118.94 164.03 110.61 159.22 119.4 165.05 111.26 159.97 119.89 166.06 111.93 160.71 120.4 167.04 112.64 161.43 120.94 168 113.37 162.14 121.5 168.93 114.14 162.83 122.08 169.84 114.93 163.5 122.68 170.73 115.75 164.15 123.3 171.59 116.6 164.78 123.94 172.43 117.47 165.39 124.6 173.23 118.37 165.98 125.28 174.01 119.29 166.55 125.97 174.76 120.24 167.09 126.69 175.48 121.21 167.62 127.42 176.17 122.21 168.12 128.16 176.83 123.22 168.6 128.92 177.46 124.25 169.05 129.7 178.05 125.31 169.48 130.49 178.61 126.38 169.88 131.29 179.14 127.47 170.26 132.1 179.64 128.57 170.62 132.92 180.1 129.69 170.94 133.76 180.52 130.82 171.24 134.6 180.91 131.97 171.52 135.46 181.26 133.13 171.77 136.32 181.58 134.3 171.99 137.19 181.85 135.48 172.18 138.07 182.1 136.66 172.34 138.95 182.3 137.85 172.48 139.84 182.47 139.05 172.59 140.73 182.6 140.25 172.68 141.62 182.69 141.46 172.73 142.52 182.75 142.66 172.76 143.42 182.76 143.87 172.76 144.32 182.75 145.08 172.73 145.22 182.69 146.28 172.67 146.12 182.6 147.49 172.59 147.02 182.47 148.69 172.48 147.91 182.3 149.89 172.34 148.79 182.1 151.08 172.18 149.68 181.85 152.27 171.99 150.55 181.58 153.45 171.76 151.42 181.26 154.61 171.52 152.29 180.91 155.77 171.24 153.14 180.52 156.92 170.94 153.98 180.1 158.05 170.61 154.82 179.64 159.17 170.26 155.64 179.14 160.28 169.88 156.46 178.61 161.37 169.48 157.26 178.05 162.44 169.05 158.05 177.46 163.49 168.59 158.82 176.83 164.53 168.12 159.58 176.17 165.54 167.62 160.33 175.48 166.53 167.09 161.06 174.76 167.5 166.54 161.77 174.01 168.45 165.98 162.47 173.23 169.37 165.39 163.15 172.42 170.27 164.78 163.81 171.59 171.15 164.14 164.45 170.73 172 163.49 165.07 169.84 172.82 162.82 165.67 168.93 173.61 162.14 166.25 167.99 174.37 161.43 166.8 167.03 175.11 160.71 167.34 166.05 175.81 159.97 167.85 165.05 176.49 159.22 168.34 164.03 177.13 158.45 168.81 162.98 177.74 157.67 169.25 161.92 178.32 156.88 169.67 160.84 178.87 156.07 170.06 159.74 179.38 155.25 170.42 158.63 179.85 154.42 170.77 157.5 180.3 153.58 171.08 156.36 180.7 152.73 171.37 155.21 181.07 151.87 171.63 154.05 181.41 151 171.86 152.87 181.7 150.13 172.07 151.69 181.96 149.25 172.25 150.5 182.19 148.37 172.4 149.31 182.37 147.48 172.52 148.11 182.52 146.59 172.62 146.9 182.63 145.69 172.69 145.7 182.71 144.79 172.73 144.49 182.74 143.89 172.74 143.29 182.74 142.99 172.73 142.08 182.71 142.09 172.69 140.87 182.63 141.19 172.62 139.67 182.52 140.3 172.52 138.47 182.37 139.41 172.4 137.27 182.19 138.52 172.25 136.08 181.96 137.64 172.07 134.9 181.7 136.77 171.86 133.73 181.41 135.9 171.63 132.56 181.07 135.05 171.37 131.41 180.7 134.2 171.08 130.27 180.29 133.36 170.76 129.14 179.85 132.53 170.42 128.03 179.38 131.71 170.06 126.94 178.87 130.9 169.67 125.86 178.32 130.11 169.25 124.79 177.74 129.32 168.81 123.75 177.13 128.56 168.34 122.73 176.49 127.8 167.85 121.72 175.81 127.06 167.34 120.74 175.11 126.34 166.8 119.78 174.37 125.64 166.25 118.84 173.61 124.95 165.67 117.93 172.81 124.28 165.07 117.05 171.99 123.63 164.45 116.19 171.15 123 163.8 115.35 170.27 122.39 163.14 114.54 169.37 121.8 162.47 113.76 168.45 121.23 161.77 113.02 167.5 120.68 161.06 112.29 166.53 120.16 160.33 111.6 165.54 119.66 159.58 110.95 164.52 119.18 158.82 110.32 163.49 118.73 158.05 109.72 162.44 118.3 157.26 109.16 161.36 117.89 156.46 108.63 160.28 117.52 155.64 108.14 159.17 117.16 154.82 107.68 158.05 116.83 153.98 107.26 156.92 116.53 153.14 106.87 155.77 116.26 152.28 106.52 154.61 116.01 151.42 106.2 153.44 115.79 150.55 105.92 152.27 115.6 149.68 105.68 151.08 115.43 148.79 105.48 149.89 115.3 147.91 105.31 148.69 115.18 147.02 105.18 147.49 115.1 146.12 105.09 146.28 115.05 145.22 105.03 145.08 115.02 144.32 105.01 143.87"/></svg>