<?xml version="1.0" encoding="UTF-8"?><svg id="_이어_1" xmlns="http://www.w3.org/2000/svg" viewBox="0 0 287.78 287.74"><defs><style>.cls-1{fill:#0fd;}</style></defs><polygon class="cls-1" points="98.84 143.87 108.84 143.32 98.86 142.47 108.88 142.23 98.92 141.07 108.94 141.14 99.03 139.68 109.04 140.06 99.18 138.28 109.18 138.97 99.37 136.9 109.35 137.9 99.61 135.51 109.55 136.82 99.89 134.14 109.78 135.76 100.21 132.77 110.05 134.71 100.58 131.42 110.35 133.66 100.99 130.08 110.68 132.62 101.44 128.75 111.05 131.6 101.93 127.44 111.44 130.58 102.46 126.14 111.87 129.58 103.03 124.86 112.33 128.59 103.65 123.6 112.83 127.62 104.3 122.36 113.35 126.66 104.99 121.13 113.9 125.72 105.71 119.94 114.48 124.8 106.48 118.76 115.09 123.89 107.28 117.61 115.72 123.01 108.11 116.49 116.39 122.14 108.98 115.39 117.08 121.3 109.88 114.32 117.79 120.47 110.82 113.27 118.53 119.67 111.79 112.26 119.3 118.89 112.78 111.28 120.09 118.14 113.81 110.33 120.9 117.41 114.87 109.41 121.73 116.71 115.95 108.52 122.59 116.03 117.06 107.67 123.47 115.38 118.2 106.85 124.36 114.76 119.37 106.07 125.28 114.17 120.55 105.33 126.21 113.6 121.76 104.62 127.16 113.06 122.99 103.95 128.12 112.56 124.24 103.32 129.1 112.08 125.52 102.72 130.1 111.64 126.8 102.17 131.11 111.22 128.11 101.66 132.13 110.84 129.43 101.19 133.16 110.49 130.77 100.76 134.2 110.18 132.11 100.37 135.25 109.89 133.47 100.03 136.31 109.64 134.84 99.73 137.38 109.42 136.22 99.47 138.45 109.24 137.61 99.25 139.53 109.09 139 99.08 140.62 108.97 140.39 98.95 141.7 108.89 141.79 98.87 142.8 108.84 143.19 98.82 143.89 108.82 144.59 98.82 144.98 108.84 145.99 98.87 146.07 108.89 147.38 98.95 147.16 108.97 148.78 99.08 148.25 109.09 150.17 99.25 149.33 109.24 151.56 99.47 150.4 109.42 152.93 99.73 151.47 109.64 154.3 100.03 152.53 109.89 155.66 100.37 153.58 110.18 157.01 100.76 154.62 110.49 158.35 101.19 155.65 110.84 159.67 101.66 156.67 111.22 160.97 102.17 157.68 111.64 162.26 102.72 158.68 112.08 163.53 103.32 159.66 112.56 164.79 103.95 160.62 113.06 166.02 104.62 161.57 113.6 167.23 105.33 162.5 114.17 168.41 106.07 163.42 114.76 169.58 106.85 164.31 115.38 170.71 107.67 165.19 116.03 171.83 108.52 166.04 116.71 172.91 109.41 166.88 117.41 173.97 110.33 167.69 118.14 175 111.28 168.48 118.9 175.99 112.26 169.25 119.67 176.96 113.28 169.99 120.47 177.9 114.32 170.7 121.3 178.8 115.39 171.39 122.14 179.67 116.49 172.06 123.01 180.5 117.61 172.69 123.89 181.3 118.76 173.3 124.8 182.07 119.94 173.88 125.72 182.79 121.14 174.43 126.66 183.48 122.36 174.95 127.62 184.13 123.6 175.44 128.59 184.75 124.86 175.9 129.58 185.32 126.14 176.33 130.58 185.85 127.44 176.73 131.6 186.34 128.75 177.1 132.62 186.79 130.08 177.43 133.66 187.2 131.42 177.73 134.71 187.56 132.78 178 135.76 187.89 134.14 178.23 136.83 188.17 135.52 178.43 137.9 188.4 136.9 178.6 138.97 188.6 138.29 178.73 140.06 188.75 139.68 178.83 141.14 188.86 141.07 178.9 142.23 188.92 142.47 178.93 143.32 188.94 143.87 178.93 144.42 188.92 145.27 178.9 145.51 188.86 146.67 178.83 146.6 188.75 148.07 178.73 147.69 188.6 149.46 178.6 148.77 188.4 150.85 178.43 149.85 188.17 152.23 178.23 150.92 187.89 153.6 178 151.98 187.56 154.97 177.73 153.04 187.2 156.32 177.43 154.08 186.79 157.66 177.1 155.12 186.34 158.99 176.73 156.15 185.85 160.31 176.33 157.16 185.32 161.6 175.9 158.16 184.74 162.88 175.44 159.15 184.13 164.15 174.95 160.12 183.48 165.39 174.43 161.08 182.79 166.61 173.88 162.02 182.06 167.81 173.3 162.94 181.3 168.98 172.69 163.85 180.5 170.13 172.05 164.74 179.67 171.26 171.39 165.6 178.8 172.36 170.7 166.45 177.89 173.43 169.98 167.27 176.96 174.47 169.24 168.07 175.99 175.48 168.48 168.85 174.99 176.46 167.69 169.6 173.97 177.42 166.88 170.33 172.91 178.33 166.04 171.03 171.82 179.22 165.19 171.71 170.71 180.07 164.31 172.36 169.57 180.89 163.41 172.98 168.41 181.67 162.5 173.58 167.22 182.42 161.57 174.14 166.02 183.13 160.62 174.68 164.78 183.8 159.65 175.18 163.53 184.43 158.67 175.66 162.26 185.02 157.68 176.11 160.97 185.57 156.67 176.52 159.67 186.08 155.65 176.9 158.35 186.55 154.62 177.25 157.01 186.98 153.58 177.57 155.66 187.37 152.53 177.85 154.3 187.71 151.47 178.1 152.93 188.02 150.4 178.32 151.55 188.27 149.33 178.5 150.17 188.49 148.25 178.65 148.78 188.66 147.16 178.77 147.38 188.79 146.07 178.85 145.99 188.88 144.98 178.9 144.59 188.92 143.89 178.92 143.19 188.92 142.8 178.9 141.79 188.88 141.7 178.85 140.39 188.79 140.62 178.77 139 188.66 139.53 178.65 137.61 188.49 138.45 178.5 136.22 188.27 137.38 178.32 134.84 188.02 136.31 178.1 133.47 187.71 135.25 177.85 132.11 187.37 134.2 177.57 130.76 186.98 133.16 177.25 129.43 186.55 132.12 176.9 128.11 186.08 131.1 176.52 126.8 185.57 130.1 176.1 125.51 185.02 129.1 175.66 124.24 184.43 128.12 175.18 122.99 183.79 127.16 174.68 121.76 183.12 126.21 174.14 120.55 182.42 125.27 173.58 119.36 181.67 124.36 172.98 118.2 180.89 123.46 172.36 117.06 180.07 122.59 171.71 115.95 179.22 121.73 171.03 114.87 178.33 120.9 170.33 113.81 177.41 120.09 169.6 112.78 176.46 119.3 168.85 111.78 175.48 118.53 168.07 110.82 174.47 117.79 167.27 109.88 173.42 117.07 166.44 108.98 172.35 116.38 165.6 108.11 171.25 115.72 164.73 107.27 170.13 115.08 163.85 106.47 168.98 114.48 162.94 105.71 167.8 113.9 162.02 104.98 166.61 113.35 161.08 104.29 165.39 112.82 160.12 103.64 164.14 112.33 159.15 103.03 162.88 111.87 158.16 102.46 161.6 111.44 157.16 101.93 160.3 111.05 156.15 101.44 158.99 110.68 155.12 100.99 157.66 110.35 154.08 100.58 156.32 110.05 153.04 100.21 154.97 109.78 151.98 99.89 153.6 109.55 150.92 99.61 152.23 109.35 149.85 99.37 150.85 109.18 148.77 99.18 149.46 109.04 147.69 99.03 148.06 108.94 146.6 98.92 146.67 108.88 145.51 98.86 145.27 108.84 144.42 98.84 143.87"/></svg>