<?xml version="1.0" encoding="UTF-8"?><svg id="_이어_1" xmlns="http://www.w3.org/2000/svg" viewBox="0 0 287.78 287.74"><defs><style>.cls-1{fill:#dfb;}</style></defs><polygon class="cls-1" points="67.95 143.87 77.96 142.84 67.99 141.51 78.02 140.79 68.09 139.15 78.15 138.74 68.27 136.8 78.34 136.7 68.53 134.45 78.59 134.66 68.85 132.11 78.91 132.64 69.25 129.78 79.28 130.62 69.73 127.47 79.72 128.62 70.27 125.17 80.23 126.63 70.89 122.89 80.79 124.66 71.58 120.62 81.42 122.71 72.33 118.38 82.11 120.78 73.16 116.17 82.86 118.87 74.06 113.98 83.66 116.99 75.02 111.83 84.53 115.13 76.05 109.7 85.45 113.3 77.15 107.61 86.43 111.5 78.31 105.55 87.47 109.73 79.54 103.53 88.56 107.99 80.83 101.55 89.71 106.29 82.17 99.61 90.9 104.62 83.58 97.72 92.15 102.99 85.05 95.86 93.45 101.4 86.57 94.06 94.8 99.85 88.15 92.3 96.19 98.35 89.78 90.59 97.63 96.89 91.46 88.94 99.11 95.47 93.19 87.33 100.64 94.1 94.97 85.78 102.21 92.78 96.8 84.29 103.82 91.5 98.68 82.85 105.47 90.28 100.6 81.47 107.15 89.11 102.56 80.16 108.87 87.99 104.56 78.9 110.62 86.93 106.59 77.71 112.41 85.92 108.67 76.58 114.23 84.97 110.78 75.51 116.07 84.07 112.92 74.51 117.94 83.24 115.09 73.58 119.84 82.46 117.29 72.72 121.76 81.74 119.52 71.93 123.7 81.08 121.77 71.21 125.66 80.49 124.04 70.55 127.64 79.95 126.33 69.97 129.64 79.48 128.64 69.46 131.65 79.07 130.96 69.03 133.67 78.72 133.3 68.67 135.7 78.44 135.64 68.38 137.74 78.22 137.99 68.16 139.78 78.06 140.35 68.01 141.83 77.97 142.71 67.94 143.89 77.94 145.07 67.94 145.94 77.97 147.43 68.01 147.99 78.06 149.78 68.16 150.04 78.22 152.14 68.38 152.08 78.44 154.48 68.67 154.11 78.72 156.81 69.03 156.13 79.07 159.14 69.46 158.14 79.48 161.44 69.97 160.14 79.95 163.74 70.55 162.12 80.49 166.01 71.21 164.08 81.08 168.26 71.93 166.02 81.74 170.49 72.72 167.94 82.46 172.69 73.58 169.84 83.24 174.86 74.51 171.71 84.07 177 75.51 173.55 84.97 179.11 76.58 175.37 85.92 181.18 77.71 177.15 86.93 183.22 78.9 178.91 87.99 185.22 80.16 180.63 89.11 187.18 81.48 182.31 90.28 189.1 82.85 183.96 91.5 190.98 84.29 185.57 92.78 192.81 85.78 187.14 94.1 194.59 87.33 188.66 95.47 196.32 88.94 190.15 96.89 198 90.59 191.59 98.35 199.63 92.3 192.98 99.86 201.21 94.06 194.33 101.4 202.73 95.87 195.63 102.99 204.2 97.72 196.87 104.62 205.6 99.61 198.07 106.29 206.95 101.55 199.22 107.99 208.24 103.53 200.31 109.73 209.46 105.55 201.34 111.5 210.63 107.61 202.32 113.3 211.72 109.7 203.25 115.13 212.76 111.83 204.11 116.99 213.72 113.99 204.92 118.87 214.62 116.17 205.67 120.78 215.44 118.39 206.36 122.71 216.2 120.62 206.98 124.66 216.89 122.89 207.55 126.63 217.51 125.17 208.05 128.62 218.05 127.47 208.49 130.62 218.52 129.78 208.87 132.64 218.92 132.11 209.19 134.66 219.25 134.45 209.44 136.7 219.5 136.8 209.63 138.74 219.68 139.15 209.75 140.79 219.79 141.51 209.82 142.84 219.83 143.87 209.82 144.9 219.79 146.23 209.75 146.95 219.68 148.59 209.63 149 219.5 150.94 209.44 151.04 219.25 153.29 209.19 153.08 218.92 155.63 208.87 155.11 218.52 157.96 208.49 157.12 218.05 160.28 208.05 159.12 217.51 162.58 207.55 161.11 216.89 164.86 206.98 163.08 216.2 167.12 206.36 165.03 215.44 169.36 205.67 166.96 214.62 171.57 204.92 168.87 213.72 173.76 204.11 170.76 212.75 175.92 203.25 172.62 211.72 178.04 202.32 174.45 210.63 180.13 201.34 176.25 209.46 182.19 200.31 178.02 208.24 184.21 199.21 179.75 206.95 186.19 198.07 181.46 205.6 188.13 196.87 183.12 204.2 190.03 195.63 184.75 202.73 191.88 194.33 186.34 201.21 193.68 192.98 187.89 199.63 195.44 191.59 189.39 198 197.15 190.15 190.86 196.32 198.81 188.66 192.27 194.59 200.41 187.14 193.64 192.8 201.96 185.57 194.97 190.97 203.45 183.96 196.24 189.1 204.89 182.31 197.46 187.18 206.27 180.63 198.63 185.22 207.59 178.91 199.75 183.22 208.84 177.15 200.81 181.18 210.04 175.37 201.82 179.11 211.17 173.55 202.78 177 212.23 171.71 203.67 174.86 213.23 169.83 204.51 172.68 214.16 167.94 205.29 170.48 215.02 166.02 206 168.26 215.81 164.08 206.66 166.01 216.54 162.11 207.26 163.74 217.19 160.14 207.79 161.44 217.77 158.14 208.26 159.14 218.28 156.13 208.67 156.81 218.71 154.11 209.02 154.48 219.08 152.08 209.3 152.14 219.37 150.04 209.52 149.78 219.59 147.99 209.68 147.43 219.73 145.94 209.78 145.07 219.8 143.89 209.81 142.71 219.8 141.83 209.78 140.35 219.73 139.78 209.68 137.99 219.59 137.74 209.52 135.64 219.37 135.7 209.3 133.3 219.08 133.67 209.02 130.96 218.71 131.64 208.67 128.64 218.28 129.64 208.26 126.33 217.77 127.64 207.79 124.04 217.19 125.66 207.26 121.77 216.54 123.7 206.66 119.52 215.81 121.76 206 117.29 215.02 119.84 205.28 115.09 214.16 117.94 204.51 112.92 213.23 116.07 203.67 110.78 212.23 114.23 202.78 108.67 211.17 112.41 201.82 106.59 210.04 110.62 200.81 104.55 208.84 108.87 199.75 102.55 207.59 107.15 198.63 100.59 206.27 105.47 197.46 98.68 204.89 103.82 196.24 96.8 203.45 102.21 194.97 94.97 201.96 100.64 193.64 93.19 200.41 99.11 192.27 91.46 198.81 97.63 190.86 89.77 197.15 96.19 189.39 88.14 195.44 94.79 187.89 86.57 193.68 93.45 186.34 85.05 191.88 92.15 184.75 83.58 190.03 90.9 183.12 82.17 188.13 89.71 181.46 80.82 186.19 88.56 179.75 79.54 184.21 87.47 178.02 78.31 182.19 86.43 176.25 77.15 180.13 85.45 174.44 76.05 178.04 84.53 172.61 75.02 175.91 83.66 170.76 74.06 173.76 82.86 168.87 73.16 171.57 82.11 166.96 72.33 169.36 81.42 165.03 71.57 167.12 80.79 163.08 70.89 164.86 80.23 161.11 70.27 162.58 79.72 159.12 69.73 160.28 79.28 157.12 69.25 157.96 78.91 155.11 68.85 155.63 78.59 153.08 68.53 153.29 78.34 151.04 68.27 150.94 78.15 149 68.09 148.59 78.02 146.95 67.99 146.23 77.96 144.9 67.95 143.87"/></svg>