<?xml version="1.0" encoding="UTF-8"?><svg id="_이어_1" xmlns="http://www.w3.org/2000/svg" viewBox="0 0 287.78 287.74"><defs><style>.cls-1{fill:#fdfdbb;}</style></defs><polygon class="cls-1" points="24.71 143.87 34.73 142.17 24.77 140.17 34.83 138.77 24.94 136.47 35.04 135.38 25.22 132.77 35.35 132 25.62 129.08 35.77 128.63 26.13 125.41 36.29 125.27 26.76 121.76 36.92 121.94 27.5 118.12 37.65 118.62 28.35 114.51 38.48 115.33 29.32 110.93 39.42 112.07 30.4 107.39 40.45 108.83 31.59 103.87 41.59 105.64 32.89 100.4 42.83 102.47 34.29 96.97 44.17 99.35 35.81 93.58 45.6 96.28 37.43 90.25 47.13 93.24 39.15 86.96 48.76 90.26 40.97 83.73 50.47 87.33 42.89 80.57 52.28 84.45 44.92 77.46 54.18 81.64 47.03 74.41 56.16 78.88 49.24 71.44 58.22 76.18 51.54 68.53 60.37 73.55 53.93 65.7 62.6 70.99 56.4 62.94 64.91 68.49 58.96 60.26 67.29 66.07 61.6 57.66 69.75 63.73 64.32 55.14 72.28 61.46 67.12 52.71 74.88 59.27 69.99 50.36 77.54 57.16 72.93 48.11 80.27 55.14 75.95 45.94 83.06 53.2 79.02 43.87 85.9 51.35 82.16 41.9 88.81 49.59 85.36 40.03 91.77 47.92 88.62 38.26 94.77 46.34 91.93 36.59 97.83 44.86 95.29 35.02 100.93 43.47 98.7 33.56 104.07 42.18 102.15 32.21 107.25 40.99 105.64 30.96 110.46 39.91 109.17 29.83 113.71 38.92 112.74 28.8 116.99 38.03 116.33 27.89 120.29 37.25 119.96 27.1 123.62 36.57 123.6 26.41 126.97 36 127.26 25.84 130.33 35.53 130.94 25.39 133.71 35.16 134.63 25.05 137.09 34.9 138.33 24.82 140.49 34.75 142.04 24.71 143.89 34.7 145.74 24.71 147.29 34.75 149.44 24.82 150.68 34.9 153.14 25.05 154.07 35.16 156.83 25.39 157.45 35.53 160.51 25.84 160.81 36 164.18 26.41 164.16 36.57 167.82 27.1 167.48 37.25 171.44 27.89 170.79 38.03 175.04 28.81 174.07 38.92 178.6 29.83 177.31 39.91 182.13 30.96 180.53 40.99 185.63 32.21 183.71 42.18 189.08 33.56 186.85 43.47 192.49 35.02 189.95 44.86 195.85 36.59 193.01 46.34 199.16 38.26 196.01 47.92 202.42 40.03 198.97 49.59 205.62 41.9 201.87 51.35 208.76 43.88 204.72 53.2 211.83 45.94 207.51 55.14 214.84 48.11 210.24 57.16 217.79 50.36 212.9 59.27 220.66 52.71 215.5 61.46 223.45 55.14 218.03 63.73 226.17 57.66 220.49 66.07 228.81 60.26 222.87 68.5 231.37 62.94 225.18 70.99 233.85 65.7 227.41 73.55 236.24 68.53 229.55 76.18 238.54 71.44 231.62 78.88 240.75 74.41 233.6 81.64 242.86 77.46 235.5 84.46 244.88 80.57 237.3 87.33 246.81 83.74 239.02 90.26 248.63 86.96 240.64 93.25 250.35 90.25 242.17 96.28 251.97 93.58 243.61 99.35 253.48 96.97 244.94 102.48 254.89 100.4 246.18 105.64 256.19 103.87 247.32 108.83 257.38 107.39 248.36 112.07 258.46 110.94 249.3 115.33 259.42 114.52 250.13 118.62 260.28 118.12 250.86 121.94 261.02 121.76 251.49 125.27 261.65 125.41 252.01 128.63 262.16 129.08 252.43 132 262.56 132.77 252.74 135.38 262.84 136.47 252.95 138.77 263.01 140.17 253.05 142.17 263.07 143.87 253.05 145.57 263.01 147.58 252.95 148.97 262.84 151.28 252.74 152.36 262.56 154.97 252.43 155.74 262.16 158.66 252.01 159.11 261.65 162.33 251.49 162.47 261.02 165.99 250.86 165.81 260.28 169.62 250.13 169.12 259.42 173.23 249.3 172.41 258.46 176.81 248.36 175.68 257.38 180.36 247.32 178.91 256.19 183.87 246.18 182.11 254.89 187.34 244.94 185.27 253.48 190.77 243.61 188.39 251.97 194.16 242.17 191.47 250.35 197.5 240.64 194.5 248.63 200.78 239.02 197.48 246.8 204.01 237.3 200.41 244.88 207.18 235.5 203.29 242.86 210.29 233.6 206.11 240.75 213.33 231.62 208.87 238.54 216.31 229.55 211.56 236.24 219.21 227.4 214.19 233.85 222.05 225.18 216.76 231.37 224.81 222.87 219.25 228.81 227.49 220.48 221.67 226.17 230.09 218.03 224.02 223.45 232.61 215.5 226.28 220.66 235.04 212.9 228.47 217.78 237.38 210.24 230.58 214.84 239.64 207.51 232.61 211.83 241.8 204.72 234.54 208.76 243.87 201.87 236.39 205.62 245.84 198.97 238.16 202.42 247.71 196.01 239.83 199.16 249.49 193 241.4 195.85 251.16 189.95 242.89 192.49 252.72 186.85 244.27 189.08 254.18 183.71 245.56 185.63 255.54 180.53 246.75 182.13 256.78 177.31 247.84 178.6 257.91 174.06 248.82 175.04 258.94 170.79 249.71 171.44 259.85 167.48 250.49 167.82 260.65 164.16 251.17 164.18 261.33 160.81 251.74 160.51 261.9 157.45 252.21 156.83 262.36 154.07 252.58 153.14 262.7 150.68 252.84 149.44 262.92 147.29 253 145.74 263.04 143.89 253.05 142.04 263.04 140.49 253 138.33 262.92 137.09 252.84 134.63 262.7 133.71 252.58 130.94 262.36 130.33 252.21 127.26 261.9 126.97 251.74 123.6 261.33 123.62 251.17 119.95 260.65 120.29 250.49 116.33 259.85 116.99 249.71 112.74 258.94 113.71 248.82 109.17 257.91 110.46 247.84 105.64 256.78 107.25 246.75 102.15 255.54 104.07 245.56 98.7 254.18 100.93 244.27 95.29 252.72 97.83 242.88 91.93 251.16 94.77 241.4 88.62 249.49 91.76 239.83 85.36 247.71 88.81 238.16 82.16 245.84 85.9 236.39 79.02 243.87 83.06 234.54 75.94 241.8 80.27 232.6 72.93 239.64 77.54 230.58 69.99 237.38 74.87 228.47 67.12 235.04 72.28 226.28 64.32 232.6 69.75 224.01 61.6 230.09 67.29 221.67 58.96 227.49 64.91 219.25 56.4 224.8 62.6 216.75 53.93 222.05 60.37 214.19 51.54 219.21 58.22 211.56 49.24 216.31 56.16 208.86 47.03 213.33 54.17 206.11 44.91 210.28 52.28 203.29 42.89 207.18 50.47 200.41 40.97 204.01 48.76 197.48 39.15 200.78 47.13 194.5 37.43 197.49 45.6 191.47 35.81 194.16 44.17 188.39 34.29 190.77 42.83 185.27 32.89 187.34 41.59 182.11 31.59 183.87 40.45 178.91 30.4 180.36 39.42 175.68 29.32 176.81 38.48 172.41 28.35 173.23 37.65 169.12 27.5 169.62 36.92 165.81 26.76 165.98 36.29 162.47 26.13 162.33 35.77 159.11 25.62 158.66 35.35 155.74 25.22 154.97 35.04 152.36 24.94 151.28 34.83 148.97 24.77 147.58 34.73 145.57 24.71 143.87"/></svg>