<?xml version="1.0" encoding="UTF-8"?><svg id="_이어_1" xmlns="http://www.w3.org/2000/svg" viewBox="0 0 287.78 287.74"><defs><style>.cls-1{fill:#ffb666;}</style></defs><polygon class="cls-1" points="37.06 143.87 47.08 142.36 37.11 140.55 47.17 139.35 37.27 137.23 47.35 136.34 37.52 133.92 47.63 133.34 37.88 130.62 48 130.35 38.34 127.33 48.47 127.38 38.9 124.05 49.02 124.42 39.56 120.79 49.67 121.48 40.33 117.56 50.41 118.56 41.2 114.35 51.24 115.66 42.16 111.17 52.16 112.8 43.23 108.02 53.17 109.96 44.39 104.91 54.27 107.16 45.66 101.83 55.45 104.39 47.01 98.8 56.73 101.66 48.46 95.81 58.08 98.97 50.01 92.86 59.52 96.33 51.64 89.97 61.04 93.73 53.36 87.13 62.65 91.18 55.18 84.34 64.33 88.68 57.07 81.61 66.08 86.23 59.05 78.94 67.92 83.84 61.11 76.34 69.82 81.51 63.25 73.8 71.8 79.23 65.47 71.33 73.85 77.02 67.77 68.92 75.96 74.88 70.13 66.59 78.14 72.8 72.57 64.34 80.38 70.78 75.08 62.16 82.69 68.84 77.65 60.05 85.05 66.97 80.29 58.03 87.47 65.18 82.99 56.09 89.94 63.46 85.75 54.24 92.47 61.82 88.56 52.47 95.04 60.26 91.43 50.79 97.66 58.77 94.35 49.21 100.33 57.38 97.31 47.71 103.04 56.06 100.33 46.3 105.79 54.83 103.38 44.99 108.57 53.69 106.48 43.78 111.39 52.64 109.61 42.67 114.25 51.67 112.77 41.65 117.13 50.79 115.97 40.73 120.03 50.01 119.19 39.92 122.96 49.32 122.44 39.2 125.91 48.71 125.7 38.59 128.88 48.21 128.99 38.08 131.86 47.79 132.29 37.67 134.86 47.46 135.59 37.36 137.86 47.23 138.91 37.16 140.87 47.1 142.23 37.06 143.89 47.05 145.55 37.06 146.9 47.1 148.87 37.16 149.91 47.23 152.18 37.36 152.92 47.46 155.49 37.67 155.91 47.79 158.79 38.08 158.9 48.21 162.07 38.59 161.86 48.71 165.34 39.2 164.81 49.32 168.59 39.92 167.74 50.01 171.81 40.73 170.65 50.79 175 41.65 173.53 51.67 178.17 42.67 176.38 52.64 181.3 43.78 179.2 53.69 184.4 45 181.99 54.83 187.45 46.3 184.74 56.06 190.46 47.71 187.45 57.38 193.43 49.21 190.11 58.78 196.35 50.8 192.74 60.26 199.22 52.47 195.31 61.82 202.03 54.24 197.84 63.46 204.79 56.1 200.31 65.18 207.49 58.03 202.73 66.97 210.13 60.06 205.09 68.84 212.7 62.16 207.4 70.79 215.21 64.34 209.64 72.8 217.64 66.59 211.82 74.88 220.01 68.92 213.93 77.03 222.31 71.33 215.98 79.24 224.52 73.8 217.96 81.51 226.66 76.34 219.86 83.84 228.73 78.95 221.69 86.23 230.71 81.61 223.45 88.68 232.6 84.34 225.13 91.18 234.41 87.13 226.73 93.73 236.14 89.97 228.25 96.33 237.77 92.86 229.69 98.97 239.31 95.81 231.05 101.66 240.77 98.8 232.32 104.39 242.12 101.83 233.51 107.16 243.38 104.91 234.61 109.96 244.55 108.02 235.62 112.8 245.61 111.17 236.54 115.67 246.58 114.35 237.37 118.56 247.45 117.56 238.11 121.48 248.21 120.79 238.76 124.42 248.88 124.05 239.31 127.38 249.44 127.33 239.77 130.35 249.9 130.62 240.14 133.34 250.26 133.92 240.42 136.34 250.51 137.23 240.61 139.35 250.66 140.55 240.7 142.36 250.71 143.87 240.7 145.38 250.66 147.19 240.61 148.39 250.51 150.51 240.42 151.4 250.26 153.82 240.14 154.4 249.9 157.13 239.77 157.39 249.44 160.42 239.31 160.37 248.88 163.69 238.76 163.33 248.21 166.95 238.11 166.27 247.45 170.18 237.37 169.18 246.58 173.39 236.54 172.08 245.61 176.57 235.62 174.94 244.55 179.72 234.61 177.78 243.38 182.84 233.51 180.58 242.12 185.91 232.32 183.35 240.76 188.95 231.05 186.08 239.31 191.94 229.69 188.77 237.77 194.88 228.25 191.41 236.14 197.77 226.73 194.01 234.41 200.62 225.13 196.56 232.6 203.4 223.45 199.06 230.71 206.13 221.69 201.51 228.73 208.8 219.86 203.9 226.66 211.4 217.95 206.23 224.52 213.94 215.98 208.51 222.3 216.42 213.93 210.72 220.01 218.82 211.82 212.87 217.64 221.15 209.64 214.95 215.2 223.41 207.39 216.96 212.7 225.59 205.09 218.9 210.12 227.69 202.73 220.77 207.49 229.71 200.31 222.56 204.79 231.65 197.84 224.28 202.03 233.5 195.31 225.93 199.22 235.27 192.74 227.49 196.35 236.95 190.11 228.97 193.43 238.54 187.45 230.37 190.46 240.03 184.74 231.68 187.45 241.44 181.99 232.91 184.4 242.75 179.2 234.05 181.3 243.96 176.38 235.11 178.17 245.08 173.53 236.07 175 246.09 170.65 236.95 171.81 247.01 167.74 237.73 168.59 247.83 164.81 238.43 165.34 248.54 161.86 239.03 162.07 249.15 158.9 239.54 158.79 249.67 155.91 239.95 155.49 250.07 152.92 240.28 152.18 250.38 149.91 240.51 148.87 250.58 146.9 240.65 145.55 250.68 143.89 240.69 142.23 250.68 140.87 240.65 138.91 250.58 137.86 240.51 135.59 250.38 134.86 240.28 132.28 250.07 131.86 239.95 128.99 249.67 128.88 239.54 125.7 249.15 125.91 239.03 122.44 248.54 122.96 238.43 119.19 247.83 120.03 237.73 115.97 247.01 117.13 236.95 112.77 246.09 114.25 236.07 109.61 245.08 111.39 235.11 106.48 243.96 108.57 234.05 103.38 242.75 105.79 232.91 100.32 241.44 103.04 231.68 97.31 240.03 100.33 230.37 94.34 238.54 97.66 228.97 91.43 236.95 95.04 227.49 88.56 235.27 92.46 225.92 85.74 233.5 89.94 224.28 82.99 231.65 87.47 222.56 80.29 229.71 85.05 220.77 77.65 227.69 82.68 218.9 75.08 225.59 80.38 216.96 72.57 223.41 78.14 214.95 70.13 221.15 75.96 212.86 67.77 218.82 73.85 210.72 65.47 216.42 71.8 208.51 63.25 213.94 69.82 206.23 61.11 211.4 67.92 203.9 59.05 208.8 66.08 201.51 57.07 206.13 64.33 199.06 55.17 203.4 62.65 196.56 53.36 200.61 61.04 194.01 51.64 197.77 59.52 191.41 50.01 194.88 58.08 188.77 48.46 191.94 56.73 186.08 47.01 188.95 55.45 183.35 45.65 185.91 54.27 180.58 44.39 182.84 53.17 177.78 43.23 179.72 52.16 174.94 42.16 176.57 51.24 172.08 41.2 173.39 50.41 169.18 40.33 170.18 49.67 166.26 39.56 166.95 49.02 163.32 38.9 163.69 48.47 160.36 38.34 160.42 48 157.39 37.88 157.13 47.63 154.4 37.52 153.82 47.35 151.4 37.27 150.51 47.17 148.39 37.11 147.19 47.08 145.38 37.06 143.87"/></svg>