<?xml version="1.0" encoding="UTF-8"?><svg id="_이어_1" xmlns="http://www.w3.org/2000/svg" viewBox="0 0 287.78 287.74"><defs><style>.cls-1{fill:#50a8ff;}</style></defs><polygon class="cls-1" points="6.18 143.87 16.2 141.88 6.24 139.59 16.32 137.91 6.44 135.31 16.56 133.94 6.77 131.04 16.93 129.99 7.23 126.78 17.41 126.04 7.82 122.54 18.03 122.12 8.54 118.32 18.76 118.21 9.4 114.12 19.61 114.34 10.39 109.95 20.59 110.49 11.51 105.81 21.68 106.67 12.75 101.71 22.9 102.89 14.13 97.65 24.23 99.15 15.63 93.64 25.68 95.45 17.25 89.68 27.24 91.8 19 85.76 28.92 88.2 20.87 81.91 30.71 84.65 22.86 78.12 32.61 81.16 24.97 74.38 34.62 77.73 27.19 70.72 36.73 74.37 29.53 67.13 38.95 71.07 31.97 63.61 41.27 67.84 34.52 60.17 43.68 64.69 37.18 56.81 46.2 61.61 39.94 53.54 48.8 58.62 42.8 50.35 51.5 55.7 45.76 47.25 54.29 52.87 48.81 44.25 57.17 50.12 51.95 41.34 60.12 47.47 55.19 38.53 63.16 44.91 58.5 35.82 66.28 42.44 61.9 33.21 69.47 40.08 65.38 30.72 72.73 37.81 68.94 28.33 76.06 35.64 72.56 26.05 79.46 33.58 76.26 23.88 82.92 31.63 80.02 21.83 86.43 29.79 83.85 19.9 90.01 28.05 87.73 18.09 93.63 26.43 91.67 16.41 97.31 24.92 95.66 14.84 101.03 23.53 99.7 13.41 104.79 22.26 103.78 12.09 108.59 21.1 107.89 10.91 112.42 20.07 112.05 9.86 116.29 19.15 116.23 8.94 120.18 18.36 120.44 8.15 124.1 17.69 124.68 7.49 128.03 17.14 128.93 6.96 131.98 16.71 133.19 6.57 135.94 16.41 137.47 6.31 139.91 16.22 141.75 6.18 143.89 16.16 146.03 6.18 147.86 16.22 150.31 6.31 151.83 16.41 154.58 6.57 155.8 16.71 158.85 6.96 159.75 17.14 163.1 7.49 163.68 17.69 167.33 8.15 167.6 18.36 171.54 8.94 171.49 19.15 175.73 9.86 175.35 20.07 179.88 10.91 179.19 21.1 184 12.1 182.99 22.26 188.08 13.41 186.75 23.53 192.12 14.84 190.47 24.92 196.11 16.41 194.14 26.43 200.05 18.09 197.77 28.05 203.93 19.9 201.34 29.79 207.76 21.84 204.86 31.63 211.52 23.88 208.32 33.58 215.22 26.05 211.72 35.64 218.84 28.33 215.05 37.81 222.4 30.72 218.31 40.08 225.88 33.22 221.5 42.45 229.28 35.82 224.62 44.91 232.59 38.53 227.66 47.47 235.83 41.34 230.61 50.13 238.97 44.25 233.49 52.87 242.02 47.26 236.27 55.7 244.98 50.35 238.97 58.62 247.84 53.54 241.58 61.62 250.6 56.82 244.1 64.69 253.26 60.18 246.51 67.85 255.81 63.61 248.83 71.07 258.25 67.13 251.05 74.37 260.59 70.72 253.16 77.73 262.81 74.39 255.17 81.16 264.92 78.12 257.07 84.65 266.91 81.91 258.86 88.2 268.78 85.77 260.53 91.8 270.52 89.68 262.1 95.45 272.15 93.64 263.55 99.15 273.65 97.66 264.88 102.89 275.03 101.71 266.09 106.67 276.27 105.81 267.19 110.49 277.39 109.95 268.16 114.34 278.38 114.12 269.02 118.21 279.23 118.32 269.75 122.12 279.96 122.54 270.36 126.04 280.55 126.78 270.85 129.99 281.01 131.04 271.22 133.94 281.34 135.31 271.46 137.91 281.53 139.59 271.58 141.88 281.6 143.87 271.58 145.86 281.53 148.15 271.46 149.83 281.34 152.43 271.22 153.8 281.01 156.7 270.85 157.76 280.55 160.96 270.36 161.7 279.96 165.2 269.75 165.63 279.23 169.43 269.02 169.53 278.38 173.62 268.16 173.41 277.39 177.79 267.19 177.26 276.27 181.93 266.09 181.08 275.03 186.03 264.88 184.86 273.65 190.09 263.55 188.6 272.15 194.1 262.1 192.3 270.52 198.07 260.53 195.95 268.78 201.98 258.85 199.55 266.9 205.83 257.07 203.09 264.92 209.63 255.17 206.58 262.81 213.36 253.16 210.01 260.59 217.02 251.05 213.37 258.25 220.61 248.83 216.67 255.81 224.13 246.51 219.9 253.25 227.57 244.09 223.05 250.6 230.93 241.58 226.13 247.84 234.2 238.97 229.13 244.98 237.39 236.27 232.04 242.02 240.49 233.49 234.87 238.97 243.49 230.61 237.62 235.82 246.4 227.65 240.27 232.59 249.21 224.62 242.83 229.27 251.92 221.5 245.3 225.87 254.53 218.31 247.67 222.4 257.03 215.05 249.93 218.84 259.42 211.72 252.1 215.21 261.7 208.32 254.16 211.52 263.86 204.86 256.11 207.75 265.91 201.34 257.96 203.93 267.84 197.77 259.69 200.05 269.65 194.14 261.31 196.11 271.34 190.47 262.82 192.12 272.9 186.75 264.21 188.08 274.34 182.99 265.48 184 275.65 179.19 266.64 179.88 276.83 175.35 267.68 175.73 277.88 171.49 268.59 171.54 278.8 167.6 269.38 167.33 279.59 163.68 270.06 163.1 280.25 159.75 270.6 158.85 280.78 155.8 271.03 154.58 281.17 151.83 271.34 150.31 281.44 147.86 271.52 146.03 281.57 143.89 271.58 141.75 281.57 139.91 271.52 137.47 281.44 135.94 271.34 133.19 281.17 131.98 271.03 128.93 280.78 128.03 270.6 124.68 280.25 124.1 270.06 120.44 279.59 120.18 269.38 116.23 278.8 116.29 268.59 112.05 277.88 112.42 267.67 107.89 276.83 108.59 266.64 103.77 275.65 104.79 265.48 99.7 274.34 101.03 264.21 95.66 272.9 97.31 262.82 91.67 271.34 93.63 261.31 87.73 269.65 90.01 259.69 83.85 267.84 86.43 257.96 80.02 265.91 82.92 256.11 76.26 263.86 79.46 254.16 72.56 261.69 76.06 252.1 68.93 259.42 72.73 249.93 65.38 257.03 69.47 247.67 61.9 254.53 66.28 245.3 58.5 251.92 63.16 242.83 55.18 249.21 60.12 240.27 51.95 246.4 57.16 237.62 48.81 243.49 54.29 234.87 45.76 240.49 51.5 232.04 42.8 237.39 48.8 229.13 39.94 234.2 46.2 226.13 37.18 230.93 43.68 223.05 34.52 227.57 41.26 219.9 31.97 224.13 38.95 216.67 29.52 220.61 36.73 213.37 27.19 217.02 34.62 210.01 24.97 213.36 32.61 206.58 22.86 209.63 30.71 203.09 20.87 205.83 28.92 199.54 19 201.98 27.24 195.94 17.25 198.07 25.68 192.29 15.63 194.1 24.23 188.6 14.13 190.09 22.9 184.86 12.75 186.03 21.68 181.07 11.5 181.93 20.59 177.26 10.39 177.79 19.61 173.41 9.4 173.62 18.76 169.53 8.54 169.42 18.03 165.62 7.82 165.2 17.41 161.7 7.23 160.96 16.93 157.76 6.77 156.7 16.56 153.8 6.44 152.43 16.32 149.83 6.24 148.15 16.2 145.86 6.18 143.87"/></svg>