<?xml version="1.0" encoding="UTF-8"?><svg id="_이어_1" xmlns="http://www.w3.org/2000/svg" viewBox="0 0 287.78 287.74"><defs><style>.cls-1{fill:#fdfdbb;}</style></defs><polygon class="cls-1" points="61.77 143.87 71.78 142.75 61.81 141.32 71.85 140.5 61.93 138.77 71.99 138.26 62.12 136.22 72.2 136.03 62.4 133.68 72.47 133.8 62.75 131.15 72.82 131.59 63.18 128.64 73.23 129.38 63.69 126.13 73.71 127.19 64.28 123.65 74.26 125.02 64.95 121.18 74.88 122.86 65.69 118.73 75.57 120.73 66.51 116.31 76.32 118.62 67.41 113.92 77.14 116.53 68.38 111.55 78.02 114.47 69.42 109.22 78.97 112.43 70.54 106.92 79.98 110.43 71.72 104.66 81.05 108.46 72.98 102.43 82.19 106.53 74.3 100.25 83.38 104.63 75.7 98.11 84.63 102.76 77.15 96.01 85.94 100.94 78.68 93.96 87.3 99.16 80.26 91.96 88.72 97.42 81.91 90.01 90.2 95.73 83.61 88.11 91.72 94.08 85.37 86.26 93.3 92.48 87.19 84.47 94.92 90.93 89.07 82.73 96.59 89.44 90.99 81.06 98.31 87.99 92.97 79.44 100.07 86.6 95 77.89 101.87 85.26 97.07 76.4 103.71 83.98 99.19 74.97 105.59 82.76 101.36 73.61 107.51 81.59 103.56 72.32 109.46 80.49 105.8 71.1 111.45 79.45 108.09 69.95 113.47 78.47 110.4 68.87 115.51 77.55 112.75 67.87 117.59 76.7 115.13 66.93 119.69 75.92 117.54 66.08 121.81 75.2 119.97 65.29 123.96 74.55 122.43 64.59 126.12 73.96 124.9 63.96 128.3 73.45 127.4 63.41 130.5 73 129.91 62.94 132.71 72.62 132.44 62.55 134.93 72.31 134.97 62.23 137.16 72.07 137.51 62 139.4 71.9 140.06 61.84 141.64 71.79 142.61 61.76 143.89 71.76 145.16 61.76 146.13 71.79 147.72 61.84 148.38 71.9 150.26 62 150.62 72.07 152.81 62.23 152.85 72.31 155.34 62.55 155.07 72.62 157.87 62.94 157.28 73 160.38 63.41 159.48 73.45 162.87 63.96 161.66 73.96 165.35 64.59 163.82 74.55 167.81 65.29 165.97 75.2 170.24 66.08 168.09 75.92 172.65 66.93 170.19 76.7 175.03 67.87 172.27 77.56 177.38 68.87 174.31 78.47 179.69 69.95 176.33 79.45 181.97 71.1 178.32 80.49 184.22 72.32 180.27 81.59 186.42 73.62 182.19 82.76 188.59 74.97 184.07 83.98 190.7 76.4 185.91 85.26 192.78 77.89 187.71 86.6 194.81 79.44 189.47 87.99 196.78 81.06 191.19 89.44 198.71 82.73 192.86 90.94 200.58 84.47 194.48 92.49 202.4 86.26 196.06 94.08 204.17 88.11 197.58 95.73 205.87 90.01 199.05 97.42 207.52 91.96 200.47 99.16 209.1 93.96 201.84 100.94 210.62 96.01 203.15 102.77 212.08 98.11 204.4 104.63 213.47 100.25 205.59 106.53 214.8 102.44 206.73 108.46 216.06 104.66 207.8 110.43 217.24 106.92 208.81 112.44 218.36 109.22 209.76 114.47 219.4 111.56 210.64 116.53 220.37 113.92 211.46 118.62 221.26 116.31 212.21 120.73 222.08 118.73 212.89 122.86 222.83 121.18 213.51 125.02 223.49 123.65 214.06 127.19 224.08 126.13 214.55 129.38 224.59 128.64 214.96 131.59 225.03 131.15 215.3 133.8 225.38 133.68 215.58 136.03 225.65 136.22 215.79 138.26 225.85 138.77 215.92 140.5 225.97 141.32 215.99 142.75 226.01 143.87 215.99 144.99 225.97 146.42 215.92 147.24 225.85 148.97 215.79 149.48 225.65 151.52 215.58 151.71 225.38 154.06 215.3 153.94 225.03 156.59 214.96 156.16 224.59 159.11 214.55 158.36 224.08 161.61 214.06 160.55 223.49 164.1 213.51 162.73 222.83 166.56 212.89 164.88 222.08 169.01 212.21 167.02 221.26 171.43 211.46 169.13 220.37 173.82 210.64 171.21 219.4 176.19 209.76 173.28 218.36 178.52 208.81 175.31 217.24 180.82 207.8 177.31 216.05 183.08 206.72 179.28 214.8 185.31 205.59 181.22 213.47 187.49 204.4 183.12 212.08 189.63 203.15 184.98 210.62 191.73 201.84 186.8 209.1 193.78 200.47 188.58 207.52 195.78 199.05 190.32 205.87 197.74 197.58 192.01 204.17 199.64 196.06 193.66 202.4 201.48 194.48 195.26 200.58 203.28 192.86 196.81 198.71 205.01 191.19 198.31 196.78 206.69 189.47 199.75 194.8 208.3 187.71 201.15 192.78 209.85 185.91 202.48 190.7 211.34 184.07 203.76 188.58 212.77 182.19 204.99 186.42 214.13 180.27 206.15 184.22 215.42 178.32 207.25 181.97 216.64 176.33 208.29 179.69 217.79 174.31 209.27 177.38 218.87 172.26 210.19 175.03 219.88 170.19 211.04 172.65 220.81 168.09 211.82 170.24 221.67 165.97 212.54 167.81 222.45 163.82 213.2 165.35 223.15 161.66 213.78 162.87 223.78 159.48 214.3 160.38 224.33 157.28 214.74 157.87 224.8 155.07 215.12 155.34 225.19 152.85 215.43 152.81 225.51 150.62 215.68 150.26 225.74 148.38 215.85 147.72 225.9 146.13 215.95 145.16 225.98 143.89 215.98 142.61 225.98 141.64 215.95 140.06 225.9 139.4 215.85 137.51 225.74 137.16 215.68 134.97 225.51 134.93 215.43 132.44 225.19 132.71 215.12 129.91 224.8 130.5 214.74 127.4 224.33 128.3 214.3 124.9 223.78 126.12 213.78 122.43 223.15 123.95 213.2 119.97 222.45 121.81 212.54 117.54 221.67 119.69 211.82 115.13 220.81 117.59 211.04 112.75 219.88 115.51 210.19 110.4 218.87 113.46 209.27 108.08 217.79 111.45 208.29 105.8 216.64 109.46 207.25 103.56 215.42 107.51 206.15 101.35 214.13 105.59 204.99 99.19 212.77 103.71 203.76 97.07 211.34 101.87 202.48 95 209.85 100.06 201.14 92.97 208.3 98.3 199.75 90.99 206.68 96.59 198.31 89.07 205.01 94.92 196.81 87.19 203.27 93.29 195.26 85.37 201.48 91.72 193.66 83.61 199.64 90.2 192.01 81.9 197.74 88.72 190.32 80.26 195.78 87.3 188.58 78.67 193.78 85.94 186.8 77.15 191.73 84.63 184.98 75.69 189.63 83.38 183.11 74.3 187.49 82.18 181.22 72.98 185.31 81.05 179.28 71.72 183.08 79.98 177.31 70.53 180.82 78.97 175.31 69.42 178.52 78.02 173.27 68.38 176.19 77.14 171.21 67.41 173.82 76.32 169.13 66.51 171.43 75.57 167.01 65.69 169.01 74.88 164.88 64.95 166.56 74.26 162.72 64.28 164.1 73.71 160.55 63.69 161.61 73.23 158.36 63.18 159.11 72.82 156.16 62.75 156.59 72.47 153.94 62.4 154.06 72.2 151.71 62.12 151.52 71.99 149.48 61.93 148.97 71.85 147.24 61.81 146.42 71.78 144.99 61.77 143.87"/></svg>