<?xml version="1.0" encoding="UTF-8"?><svg id="_이어_1" xmlns="http://www.w3.org/2000/svg" viewBox="0 0 287.78 287.74"><defs><style>.cls-1{fill:#ffb666;}</style></defs><polygon class="cls-1" points="49.42 143.87 59.43 142.56 49.46 140.94 59.51 139.93 49.6 138 59.67 137.3 49.82 135.07 59.91 134.69 50.14 132.15 60.24 132.08 50.54 129.24 60.64 129.48 51.04 126.34 61.13 126.9 51.63 123.46 61.69 124.33 52.31 120.6 62.34 121.79 53.07 117.76 63.06 119.26 53.93 114.95 63.86 116.76 54.87 112.17 64.74 114.29 55.9 109.41 65.7 111.84 57.02 106.69 66.74 109.43 58.22 104.01 67.85 107.05 59.5 101.36 69.03 104.7 60.86 98.76 70.29 102.4 62.31 96.2 71.62 100.13 63.83 93.69 73.01 97.9 65.44 91.23 74.48 95.72 67.11 88.81 76.01 93.59 68.86 86.45 77.61 91.5 70.69 84.15 79.27 89.47 72.58 81.9 81 87.48 74.54 79.72 82.78 85.55 76.57 77.59 84.63 83.68 78.66 75.53 86.53 81.87 80.82 73.53 88.49 80.11 83.04 71.61 90.5 78.42 85.31 69.75 92.56 76.79 87.64 67.96 94.67 75.22 90.03 66.25 96.82 73.72 92.47 64.61 99.03 72.29 94.96 63.04 101.27 70.92 97.49 61.56 103.56 69.63 100.08 60.15 105.89 68.41 102.7 58.83 108.25 67.27 105.36 57.59 110.65 66.19 108.07 56.43 113.08 65.2 110.8 55.36 115.54 64.28 113.57 54.37 118.03 63.43 116.37 53.47 120.54 62.67 119.2 52.66 123.08 61.99 122.05 51.94 125.63 61.38 124.92 51.31 128.21 60.86 127.81 50.76 130.8 60.41 130.71 50.31 133.4 60.05 133.63 49.95 136.01 59.77 136.55 49.68 138.63 59.56 139.49 49.5 141.26 59.44 142.42 49.41 143.89 59.4 145.36 49.41 146.52 59.44 148.29 49.5 149.15 59.56 151.22 49.68 151.77 59.77 154.15 49.95 154.38 60.05 157.07 50.31 156.98 60.41 159.97 50.76 159.57 60.86 162.86 51.31 162.15 61.38 165.73 51.94 164.7 61.99 168.58 52.66 167.24 62.67 171.41 53.47 169.75 63.44 174.21 54.37 172.24 64.28 176.97 55.36 174.7 65.2 179.71 56.43 177.13 66.19 182.41 57.59 179.53 67.27 185.08 58.83 181.89 68.41 187.7 60.15 184.22 69.63 190.28 61.56 186.5 70.93 192.82 63.05 188.75 72.29 195.31 64.61 190.95 73.72 197.75 66.25 193.11 75.22 200.13 67.96 195.22 76.79 202.47 69.75 197.28 78.42 204.74 71.61 199.29 80.11 206.96 73.54 201.25 81.87 209.11 75.53 203.15 83.68 211.21 77.59 204.99 85.55 213.24 79.72 206.78 87.48 215.2 81.9 208.5 89.47 217.09 84.15 210.17 91.5 218.91 86.45 211.77 93.59 220.67 88.81 213.3 95.72 222.34 91.23 214.77 97.9 223.94 93.69 216.16 100.13 225.47 96.2 217.49 102.4 226.91 98.76 218.75 104.7 228.28 101.37 219.93 107.05 229.56 104.01 221.04 109.43 230.76 106.69 222.07 111.84 231.88 109.41 223.03 114.29 232.91 112.17 223.91 116.76 233.85 114.95 224.72 119.26 234.7 117.76 225.44 121.79 235.47 120.6 226.09 124.33 236.15 123.46 226.65 126.9 236.74 126.34 227.14 129.48 237.23 129.24 227.54 132.08 237.64 132.15 227.86 134.69 237.95 135.07 228.1 137.3 238.18 138 228.27 139.93 238.31 140.94 228.35 142.56 238.36 143.87 228.35 145.19 238.31 146.81 228.27 147.82 238.18 149.74 228.1 150.44 237.95 152.67 227.86 153.06 237.64 155.59 227.54 155.67 237.23 158.5 227.14 158.26 236.74 161.4 226.65 160.84 236.15 164.28 226.09 163.41 235.47 167.14 225.44 165.95 234.7 169.98 224.72 168.48 233.85 172.79 223.91 170.98 232.91 175.58 223.03 173.45 231.88 178.33 222.07 175.9 230.76 181.05 221.04 178.31 229.56 183.73 219.93 180.69 228.28 186.38 218.75 183.04 226.91 188.98 217.49 185.35 225.47 191.54 216.16 187.61 223.94 194.05 214.76 189.84 222.34 196.52 213.3 192.02 220.66 198.93 211.76 194.16 218.91 201.29 210.17 196.24 217.09 203.59 208.5 198.28 215.2 205.84 206.78 200.26 213.23 208.03 204.99 202.19 211.21 210.15 203.15 204.06 209.11 212.21 201.25 205.88 206.96 214.21 199.29 207.63 204.74 216.14 197.28 209.33 202.46 217.99 195.22 210.96 200.13 219.78 193.11 212.52 197.75 221.5 190.95 214.02 195.31 223.14 188.75 215.46 192.82 224.7 186.5 216.82 190.28 226.18 184.21 218.11 187.7 227.59 181.89 219.33 185.08 228.91 179.52 220.48 182.41 230.15 177.13 221.55 179.71 231.31 174.7 222.55 176.97 232.39 172.24 223.47 174.2 233.37 169.75 224.31 171.41 234.27 167.24 225.07 168.58 235.08 164.7 225.76 165.73 235.8 162.14 226.36 162.86 236.44 159.57 226.89 159.97 236.98 156.98 227.33 157.07 237.43 154.38 227.69 154.15 237.79 151.77 227.98 151.22 238.06 149.15 228.18 148.29 238.24 146.52 228.3 145.36 238.33 143.89 228.34 142.42 238.33 141.26 228.3 139.49 238.24 138.63 228.18 136.55 238.06 136.01 227.98 133.63 237.79 133.4 227.69 130.71 237.43 130.79 227.33 127.81 236.98 128.21 226.89 124.92 236.44 125.63 226.36 122.05 235.8 123.08 225.76 119.2 235.08 120.54 225.07 116.37 234.27 118.03 224.31 113.57 233.37 115.54 223.47 110.8 232.38 113.08 222.55 108.06 231.31 110.65 221.55 105.36 230.15 108.25 220.48 102.7 228.91 105.89 219.33 100.07 227.59 103.56 218.11 97.49 226.18 101.27 216.82 94.96 224.7 99.03 215.45 92.47 223.13 96.82 214.02 90.03 221.5 94.67 212.52 87.64 219.78 92.56 210.96 85.31 217.99 90.49 209.33 83.04 216.14 88.48 207.63 80.82 214.21 86.53 205.88 78.66 212.21 84.63 204.06 76.57 210.15 82.78 202.19 74.54 208.03 81 200.26 72.58 205.84 79.27 198.28 70.69 203.59 77.61 196.24 68.86 201.29 76.01 194.15 67.11 198.93 74.48 192.02 65.43 196.52 73.01 189.84 63.83 194.05 71.61 187.61 62.31 191.54 70.29 185.35 60.86 188.98 69.03 183.04 59.5 186.38 67.85 180.69 58.22 183.73 66.74 178.31 57.02 181.05 65.7 175.9 55.9 178.33 64.74 173.45 54.87 175.58 63.86 170.98 53.93 172.79 63.06 168.48 53.07 169.98 62.34 165.95 52.31 167.14 61.69 163.41 51.63 164.28 61.13 160.84 51.04 161.4 60.64 158.26 50.54 158.5 60.24 155.67 50.14 155.59 59.91 153.06 49.82 152.67 59.67 150.44 49.6 149.74 59.51 147.82 49.46 146.81 59.43 145.19 49.42 143.87"/></svg>