<?xml version="1.0" encoding="UTF-8"?><svg id="_이어_1" xmlns="http://www.w3.org/2000/svg" viewBox="0 0 287.78 287.74"><defs><style>.cls-1{fill:#ffe98d;}</style></defs><polygon class="cls-1" points="55.59 143.87 65.61 142.65 55.64 141.13 65.68 140.22 55.76 138.39 65.83 137.78 55.97 135.65 66.06 135.36 56.27 132.92 66.35 132.94 56.65 130.2 66.73 130.53 57.11 127.49 67.18 128.14 57.66 124.8 67.7 125.76 58.29 122.12 68.3 123.4 59.01 119.47 68.97 121.06 59.81 116.84 69.72 118.75 60.69 114.24 70.53 116.45 61.65 111.67 71.42 114.19 62.7 109.12 72.38 111.95 63.82 106.61 73.41 109.74 65.02 104.14 74.51 107.57 66.29 101.71 75.67 105.43 67.64 99.32 76.9 103.33 69.07 96.97 78.2 101.26 70.57 94.67 79.55 99.24 72.13 92.41 80.98 97.26 73.77 90.21 82.46 95.33 75.47 88.05 84 93.44 77.24 85.95 85.6 91.61 79.08 83.91 87.25 89.82 80.97 81.92 88.96 88.08 82.93 80 90.72 86.4 84.94 78.13 92.54 84.77 87.02 76.33 94.4 83.2 89.14 74.59 96.31 81.69 91.32 72.92 98.27 80.24 93.55 71.32 100.27 78.85 95.83 69.79 102.31 77.52 98.16 68.33 104.39 76.26 100.53 66.94 106.51 75.06 102.94 65.63 108.67 73.93 105.39 64.39 110.86 72.87 107.88 63.23 113.08 71.87 110.41 62.15 115.33 70.95 112.97 61.15 117.61 70.1 115.55 60.22 119.92 69.32 118.17 59.38 122.25 68.61 120.81 58.63 124.6 67.97 123.48 57.95 126.97 67.41 126.16 57.36 129.35 66.93 128.86 56.85 131.75 66.52 131.57 56.43 134.16 66.18 134.3 56.09 136.59 65.92 137.03 55.84 139.02 65.73 139.77 55.67 141.45 65.62 142.52 55.59 143.89 65.58 145.26 55.59 146.33 65.62 148 55.67 148.76 65.73 150.74 55.84 151.19 65.92 153.48 56.09 153.61 66.18 156.2 56.43 156.03 66.52 158.92 56.85 158.42 66.93 161.62 57.36 160.81 67.41 164.3 57.95 163.18 67.97 166.97 58.63 165.53 68.61 169.61 59.38 167.86 69.32 172.22 60.22 170.16 70.1 174.81 61.15 172.44 70.95 177.37 62.15 174.7 71.87 179.9 63.23 176.92 72.87 182.39 64.39 179.11 73.93 184.84 65.63 181.27 75.06 187.25 66.94 183.39 76.26 189.62 68.33 185.47 77.52 191.95 69.79 187.51 78.85 194.23 71.32 189.51 80.24 196.46 72.93 191.47 81.69 198.64 74.6 193.38 83.2 200.76 76.33 195.24 84.77 202.83 78.13 197.05 86.4 204.85 80 198.82 88.08 206.81 81.93 200.53 89.82 208.7 83.91 202.18 91.61 210.54 85.96 203.78 93.45 212.3 88.06 205.32 95.33 214.01 90.21 206.8 97.27 215.65 92.41 208.22 99.24 217.21 94.67 209.58 101.27 218.71 96.97 210.88 103.33 220.13 99.32 212.11 105.43 221.48 101.71 213.27 107.57 222.76 104.14 214.37 109.74 223.96 106.62 215.4 111.95 225.08 109.12 216.36 114.19 226.12 111.67 217.24 116.45 227.09 114.24 218.06 118.75 227.97 116.84 218.81 121.06 228.77 119.47 219.48 123.4 229.48 122.12 220.08 125.76 230.12 124.8 220.6 128.14 230.66 127.49 221.05 130.53 231.13 130.2 221.42 132.94 231.51 132.92 221.72 135.36 231.8 135.65 221.95 137.78 232.01 138.39 222.09 140.22 232.14 141.13 222.17 142.65 232.18 143.87 222.17 145.09 232.14 146.62 222.09 147.53 232.01 149.36 221.95 149.96 231.8 152.09 221.72 152.39 231.51 154.83 221.42 154.8 231.13 157.55 221.05 157.21 230.66 160.25 220.6 159.6 230.12 162.95 220.07 161.98 229.48 165.62 219.48 164.34 228.77 168.27 218.81 166.68 227.97 170.9 218.06 169 227.09 173.5 217.24 171.29 226.12 176.08 216.36 173.56 225.08 178.62 215.4 175.79 223.96 181.13 214.37 178 222.76 183.6 213.27 180.18 221.48 186.03 212.11 182.31 220.13 188.42 210.88 184.42 218.71 190.77 209.58 186.48 217.21 193.08 208.22 188.5 215.64 195.33 206.8 190.48 214.01 197.54 205.32 192.41 212.3 199.69 203.78 194.3 210.53 201.79 202.18 196.14 208.7 203.83 200.52 197.92 206.8 205.82 198.81 199.66 204.85 207.74 197.05 201.34 202.83 209.61 195.24 202.97 200.76 211.41 193.38 204.54 198.63 213.15 191.47 206.05 196.45 214.82 189.51 207.5 194.22 216.42 187.51 208.89 191.95 217.95 185.47 210.22 189.62 219.41 183.39 211.48 187.25 220.8 181.27 212.68 184.84 222.11 179.11 213.81 182.38 223.35 176.92 214.87 179.89 224.51 174.7 215.87 177.37 225.59 172.44 216.79 174.81 226.6 170.16 217.64 172.22 227.52 167.86 218.43 169.61 228.36 165.53 219.13 166.96 229.12 163.18 219.77 164.3 229.79 160.81 220.33 161.62 230.38 158.42 220.82 158.92 230.89 156.02 221.23 156.2 231.31 153.61 221.56 153.48 231.65 151.19 221.83 150.74 231.9 148.76 222.01 148 232.07 146.33 222.12 145.26 232.15 143.89 222.16 142.52 232.15 141.45 222.12 139.77 232.07 139.02 222.01 137.03 231.9 136.59 221.83 134.3 231.65 134.16 221.56 131.57 231.31 131.75 221.23 128.86 230.89 129.35 220.82 126.16 230.38 126.97 220.33 123.48 229.79 124.6 219.77 120.81 229.12 122.25 219.13 118.17 228.36 119.92 218.43 115.55 227.52 117.61 217.64 112.97 226.6 115.33 216.79 110.41 225.59 113.08 215.87 107.88 224.51 110.86 214.87 105.39 223.35 108.67 213.81 102.94 222.11 106.51 212.68 100.53 220.8 104.39 211.48 98.16 219.41 102.31 210.22 95.83 217.95 100.27 208.89 93.55 216.42 98.27 207.5 91.32 214.82 96.31 206.05 89.14 213.15 94.4 204.54 87.01 211.41 92.54 202.97 84.94 209.61 90.72 201.34 82.93 207.74 88.96 199.66 80.97 205.82 87.25 197.92 79.08 203.83 85.6 196.14 77.24 201.79 84 194.3 75.47 199.69 82.46 192.41 73.77 197.53 80.97 190.48 72.13 195.33 79.55 188.5 70.56 193.07 78.19 186.48 69.07 190.77 76.9 184.41 67.64 188.42 75.67 182.31 66.29 186.03 74.5 180.17 65.02 183.6 73.41 178 63.82 181.13 72.38 175.79 62.7 178.62 71.42 173.56 61.65 176.08 70.53 171.29 60.69 173.5 69.72 169 59.81 170.9 68.97 166.68 59.01 168.27 68.3 164.34 58.29 165.62 67.7 161.98 57.66 162.94 67.18 159.6 57.11 160.25 66.73 157.21 56.65 157.55 66.35 154.8 56.27 154.82 66.06 152.39 55.97 152.09 65.83 149.96 55.76 149.36 65.68 147.53 55.64 146.62 65.61 145.09 55.59 143.87"/></svg>