<?xml version="1.0" encoding="UTF-8"?><svg id="_이어_1" xmlns="http://www.w3.org/2000/svg" viewBox="0 0 287.78 287.74"><defs><style>.cls-1{fill:#fdfdbb;}</style></defs><polygon class="cls-1" points="111.19 143.87 121.2 143.52 111.2 142.86 121.22 142.81 111.25 141.84 121.26 142.1 111.33 140.83 121.33 141.4 111.44 139.82 121.41 140.7 111.58 138.81 121.52 140 111.75 137.81 121.65 139.31 111.95 136.81 121.8 138.62 112.19 135.82 121.98 137.93 112.46 134.84 122.17 137.26 112.75 133.86 122.39 136.59 113.08 132.9 122.62 135.92 113.43 131.94 122.88 135.27 113.82 131 123.16 134.62 114.24 130.07 123.46 133.98 114.68 129.16 123.77 133.35 115.15 128.25 124.11 132.73 115.65 127.37 124.47 132.12 116.18 126.5 124.84 131.52 116.74 125.65 125.24 130.94 117.32 124.81 125.65 130.36 117.92 123.99 126.08 129.8 118.55 123.2 126.53 129.25 119.21 122.42 126.99 128.72 119.89 121.66 127.47 128.2 120.59 120.93 127.97 127.7 121.31 120.22 128.48 127.21 122.06 119.53 129 126.74 122.83 118.86 129.54 126.28 123.61 118.22 130.1 125.84 124.42 117.6 130.67 125.42 125.25 117 131.25 125.02 126.09 116.44 131.84 124.64 126.95 115.9 132.44 124.27 127.83 115.38 133.06 123.92 128.72 114.9 133.68 123.59 129.63 114.44 134.32 123.29 130.55 114.01 134.96 123 131.49 113.61 135.61 122.73 132.44 113.24 136.27 122.48 133.4 112.89 136.94 122.26 134.37 112.58 137.61 122.05 135.34 112.3 138.29 121.87 136.33 112.05 138.98 121.71 137.33 111.83 139.67 121.57 138.33 111.64 140.37 121.45 139.33 111.49 141.06 121.35 140.34 111.36 141.77 121.27 141.35 111.27 142.47 121.22 142.37 111.21 143.18 121.19 143.38 111.18 143.89 121.18 144.4 111.18 144.6 121.19 145.41 111.21 145.3 121.22 146.42 111.27 146.01 121.27 147.44 111.36 146.71 121.35 148.45 111.49 147.41 121.45 149.45 111.64 148.11 121.57 150.45 111.83 148.8 121.71 151.45 112.05 149.48 121.87 152.43 112.3 150.16 122.05 153.41 112.58 150.84 122.26 154.38 112.89 151.51 122.48 155.34 113.24 152.17 122.73 156.29 113.61 152.82 123 157.23 114.01 153.46 123.29 158.15 114.44 154.1 123.59 159.06 114.9 154.72 123.92 159.95 115.38 155.34 124.27 160.83 115.9 155.94 124.64 161.69 116.44 156.53 125.02 162.53 117.01 157.11 125.42 163.36 117.6 157.68 125.85 164.17 118.22 158.23 126.28 164.95 118.86 158.77 126.74 165.72 119.53 159.3 127.21 166.47 120.22 159.81 127.7 167.19 120.93 160.31 128.2 167.89 121.67 160.79 128.72 168.57 122.42 161.25 129.26 169.23 123.2 161.7 129.8 169.86 124 162.13 130.36 170.46 124.81 162.54 130.94 171.04 125.65 162.93 131.52 171.6 126.5 163.31 132.12 172.12 127.37 163.67 132.73 172.62 128.26 164 133.35 173.1 129.16 164.32 133.98 173.54 130.07 164.62 134.62 173.96 131 164.9 135.27 174.34 131.94 165.15 135.92 174.7 132.9 165.39 136.59 175.03 133.86 165.61 137.26 175.32 134.84 165.8 137.94 175.59 135.82 165.97 138.62 175.82 136.81 166.13 139.31 176.03 137.81 166.26 140 176.2 138.81 166.36 140.7 176.34 139.82 166.45 141.4 176.45 140.83 166.52 142.1 176.53 141.84 166.56 142.81 176.57 142.86 166.58 143.52 176.59 143.87 166.58 144.23 176.57 144.89 166.56 144.93 176.53 145.9 166.52 145.64 176.45 146.91 166.45 146.34 176.34 147.92 166.36 147.05 176.2 148.93 166.26 147.74 176.03 149.94 166.13 148.44 175.82 150.93 165.97 149.12 175.59 151.92 165.8 149.81 175.32 152.91 165.61 150.49 175.03 153.88 165.39 151.16 174.7 154.85 165.15 151.82 174.34 155.8 164.9 152.48 173.96 156.74 164.62 153.12 173.54 157.67 164.32 153.76 173.1 158.59 164 154.39 172.62 159.49 163.67 155.01 172.12 160.37 163.31 155.62 171.6 161.24 162.93 156.22 171.04 162.1 162.54 156.81 170.46 162.93 162.13 157.38 169.85 163.75 161.7 157.94 169.22 164.55 161.25 158.49 168.57 165.32 160.79 159.02 167.89 166.08 160.31 159.54 167.19 166.81 159.81 160.04 166.46 167.53 159.3 160.53 165.72 168.22 158.77 161 164.95 168.88 158.23 161.46 164.16 169.53 157.68 161.9 163.36 170.14 157.11 162.32 162.53 170.74 156.53 162.72 161.69 171.31 155.94 163.11 160.83 171.85 155.34 163.47 159.95 172.36 154.72 163.82 159.06 172.85 154.1 164.15 158.15 173.31 153.46 164.46 157.22 173.74 152.82 164.74 156.29 174.14 152.17 165.01 155.34 174.51 151.51 165.26 154.38 174.85 150.84 165.48 153.41 175.16 150.16 165.69 152.43 175.44 149.48 165.87 151.45 175.69 148.8 166.04 150.45 175.91 148.11 166.18 149.45 176.1 147.41 166.3 148.45 176.25 146.71 166.39 147.44 176.38 146.01 166.47 146.42 176.47 145.3 166.52 145.41 176.54 144.6 166.56 144.4 176.57 143.89 166.57 143.38 176.57 143.18 166.56 142.37 176.54 142.47 166.52 141.35 176.47 141.77 166.47 140.34 176.38 141.06 166.39 139.33 176.25 140.37 166.3 138.33 176.1 139.67 166.18 137.32 175.91 138.98 166.04 136.33 175.69 138.29 165.87 135.34 175.44 137.61 165.69 134.36 175.16 136.94 165.48 133.39 174.85 136.27 165.26 132.44 174.51 135.61 165.01 131.49 174.14 134.96 164.74 130.55 173.73 134.31 164.46 129.63 173.3 133.68 164.15 128.72 172.85 133.05 163.82 127.83 172.36 132.44 163.47 126.95 171.85 131.84 163.11 126.09 171.3 131.24 162.72 125.24 170.74 130.66 162.32 124.42 170.14 130.1 161.9 123.61 169.53 129.54 161.46 122.82 168.88 129 161 122.06 168.22 128.48 160.53 121.31 167.52 127.97 160.04 120.59 166.81 127.47 159.54 119.89 166.08 126.99 159.02 119.21 165.32 126.53 158.49 118.55 164.54 126.08 157.94 117.92 163.75 125.65 157.38 117.32 162.93 125.24 156.81 116.73 162.1 124.84 156.22 116.18 161.24 124.47 155.62 115.65 160.37 124.11 155.01 115.15 159.49 123.77 154.39 114.68 158.59 123.45 153.76 114.24 157.67 123.16 153.12 113.82 156.74 122.88 152.48 113.43 155.8 122.62 151.82 113.08 154.84 122.39 151.16 112.75 153.88 122.17 150.48 112.45 152.91 121.98 149.81 112.19 151.92 121.8 149.12 111.95 150.93 121.65 148.44 111.75 149.93 121.52 147.74 111.58 148.93 121.41 147.05 111.44 147.92 121.33 146.34 111.33 146.91 121.26 145.64 111.25 145.9 121.22 144.93 111.2 144.89 121.2 144.23 111.19 143.87"/></svg>