<?xml version="1.0" encoding="UTF-8"?><svg id="_이어_1" xmlns="http://www.w3.org/2000/svg" viewBox="0 0 287.78 287.74"><defs><style>.cls-1{fill:#ffe98d;}</style></defs><polygon class="cls-1" points="30.89 143.87 40.9 142.27 30.94 140.36 41 139.06 31.1 136.85 41.2 135.86 31.37 133.35 41.49 132.67 31.75 129.85 41.88 129.49 32.23 126.37 42.38 126.33 32.83 122.9 42.97 123.18 33.53 119.46 43.66 120.05 34.34 116.04 44.44 116.94 35.26 112.64 45.33 113.87 36.28 109.28 46.31 110.82 37.41 105.95 47.38 107.8 38.64 102.65 48.55 104.82 39.97 99.4 49.81 101.87 41.41 96.19 51.17 98.97 42.94 93.03 52.61 96.11 44.58 89.91 54.14 93.3 46.31 86.85 55.76 90.53 48.13 83.85 57.46 87.82 50.05 80.9 59.25 85.16 52.05 78.01 61.12 82.55 54.15 75.19 63.07 80.01 56.33 72.43 65.1 77.53 58.59 69.75 67.2 75.11 60.94 67.13 69.38 72.76 63.37 64.59 71.63 70.48 65.87 62.12 73.94 68.26 68.45 59.74 76.33 66.12 71.1 57.43 78.78 64.06 73.82 55.21 81.29 62.07 76.61 53.07 83.87 60.16 79.47 51.02 86.5 58.33 82.38 49.06 89.19 56.58 85.36 47.19 91.92 54.92 88.39 45.41 94.71 53.35 91.48 43.73 97.55 51.86 94.62 42.15 100.43 50.46 97.81 40.66 103.36 49.15 101.04 39.28 106.32 47.94 104.31 37.99 109.32 46.82 107.63 36.81 112.35 45.79 110.97 35.74 115.42 44.86 114.35 34.77 118.51 44.02 117.76 33.91 121.63 43.28 121.2 33.15 124.77 42.64 124.65 32.5 127.92 42.1 128.13 31.96 131.1 41.66 131.61 31.53 134.28 41.31 135.11 31.2 137.48 41.07 138.62 30.99 140.68 40.92 142.13 30.88 143.89 40.87 145.64 30.88 147.1 40.92 149.16 30.99 150.3 41.07 152.66 31.2 153.49 41.31 156.16 31.53 156.68 41.66 159.65 31.96 159.85 42.1 163.13 32.5 163.01 42.64 166.58 33.15 166.15 43.28 170.02 33.91 169.27 44.02 173.42 34.77 172.36 44.86 176.8 35.74 175.42 45.79 180.15 36.81 178.46 46.82 183.46 37.99 181.46 47.94 186.74 39.28 184.42 49.15 189.97 40.66 187.34 50.46 193.16 42.15 190.23 51.86 196.3 43.73 193.06 53.35 199.38 45.41 195.85 54.92 202.42 47.19 198.59 56.58 205.39 49.06 201.28 58.33 208.31 51.02 203.91 60.16 211.17 53.07 206.48 62.07 213.96 55.21 209 64.06 216.68 57.43 211.45 66.12 219.33 59.74 213.83 68.26 221.91 62.13 216.15 70.48 224.41 64.59 218.4 72.76 226.84 67.13 220.58 75.11 229.19 69.75 222.68 77.53 231.45 72.44 224.71 80.01 233.63 75.19 226.66 82.56 235.73 78.01 228.53 85.16 237.73 80.9 230.31 87.82 239.65 83.85 232.02 90.53 241.47 86.85 233.64 93.3 243.2 89.91 235.17 96.11 244.83 93.03 236.61 98.97 246.37 96.19 237.97 101.87 247.8 99.4 239.23 104.82 249.14 102.65 240.4 107.8 250.37 105.95 241.47 110.82 251.5 109.28 242.45 113.87 252.52 112.64 243.33 116.94 253.44 116.04 244.12 120.05 254.25 119.46 244.81 123.18 254.95 122.9 245.4 126.33 255.54 126.37 245.89 129.49 256.03 129.85 246.29 132.67 256.41 133.35 246.58 135.86 256.68 136.85 246.78 139.06 256.84 140.36 246.88 142.27 256.89 143.87 246.88 145.48 256.84 147.38 246.78 148.68 256.68 150.89 246.58 151.88 256.41 154.4 246.29 155.07 256.03 157.89 245.89 158.25 255.54 161.37 245.4 161.42 254.95 164.84 244.81 164.57 254.25 168.28 244.12 167.69 253.44 171.71 243.33 170.8 252.52 175.1 242.45 173.88 251.5 178.47 241.47 176.93 250.37 181.8 240.4 179.94 249.14 185.09 239.23 182.93 247.8 188.34 237.96 185.87 246.37 191.55 236.61 188.77 244.83 194.72 235.17 191.63 243.2 197.83 233.64 194.45 241.47 200.89 232.02 197.21 239.65 203.9 230.31 199.93 237.73 206.84 228.53 202.59 235.73 209.73 226.66 205.19 233.63 212.55 224.71 207.73 231.45 215.31 222.68 210.21 229.19 218 220.58 212.63 226.84 220.61 218.4 214.98 224.41 223.15 216.15 217.27 221.91 225.62 213.83 219.48 219.33 228.01 211.45 221.62 216.68 230.31 209 223.69 213.95 232.54 206.48 225.68 211.16 234.67 203.91 227.58 208.31 236.72 201.28 229.41 205.39 238.68 198.59 231.16 202.42 240.55 195.85 232.82 199.38 242.33 193.06 234.4 196.3 244.01 190.23 235.88 193.16 245.6 187.34 237.28 189.97 247.08 184.42 238.59 186.74 248.47 181.46 239.81 183.46 249.75 178.46 240.93 180.15 250.93 175.42 241.96 176.8 252 172.36 242.89 173.42 252.97 169.27 243.72 170.01 253.84 166.15 244.46 166.58 254.59 163.01 245.1 163.13 255.24 159.85 245.64 159.65 255.78 156.68 246.08 156.16 256.21 153.49 246.43 152.66 256.54 150.3 246.67 149.16 256.75 147.1 246.82 145.64 256.86 143.89 246.87 142.13 256.86 140.68 246.82 138.62 256.75 137.48 246.67 135.11 256.54 134.28 246.43 131.61 256.21 131.1 246.08 128.12 255.78 127.92 245.64 124.65 255.24 124.77 245.1 121.2 254.59 121.63 244.46 117.76 253.84 118.51 243.72 114.35 252.97 115.42 242.89 110.97 252 112.35 241.95 107.62 250.93 109.32 240.93 104.31 249.75 106.32 239.81 101.04 248.47 103.36 238.59 97.81 247.08 100.43 237.28 94.62 245.59 97.55 235.88 91.48 244.01 94.71 234.4 88.39 242.33 91.92 232.82 85.36 240.55 89.18 231.16 82.38 238.68 86.5 229.41 79.47 236.72 83.87 227.58 76.61 234.67 81.29 225.67 73.82 232.53 78.78 223.69 71.1 230.31 76.33 221.62 68.45 228 73.94 219.48 65.87 225.62 71.63 217.27 63.36 223.15 69.38 214.98 60.94 220.61 67.2 212.63 58.59 217.99 65.1 210.21 56.33 215.31 63.07 207.73 54.14 212.55 61.12 205.19 52.05 209.73 59.25 202.58 50.04 206.84 57.46 199.92 48.13 203.9 55.76 197.21 46.31 200.89 54.14 194.45 44.58 197.83 52.61 191.63 42.94 194.72 51.16 188.77 41.41 191.55 49.81 185.87 39.97 188.34 48.55 182.93 38.64 185.09 47.38 179.94 37.41 181.8 46.31 176.93 36.28 178.46 45.33 173.88 35.26 175.1 44.44 170.8 34.34 171.71 43.66 167.69 33.53 168.28 42.97 164.57 32.83 164.84 42.38 161.42 32.23 161.37 41.88 158.25 31.75 157.89 41.49 155.07 31.37 154.4 41.2 151.88 31.1 150.89 41 148.68 30.94 147.38 40.9 145.48 30.89 143.87"/></svg>