<?xml version="1.0" encoding="UTF-8"?><svg id="_이어_1" xmlns="http://www.w3.org/2000/svg" viewBox="0 0 287.78 287.74"><defs><style>.cls-1{fill:#00b1ff;}</style></defs><polygon class="cls-1" points="92.66 143.87 102.67 143.23 92.68 142.28 102.71 141.94 92.76 140.69 102.78 140.66 92.88 139.1 102.9 139.38 93.05 137.52 103.06 138.11 93.27 135.94 103.26 136.84 93.54 134.37 103.49 135.58 93.86 132.81 103.77 134.33 94.22 131.25 104.08 133.09 94.64 129.71 104.44 131.86 95.1 128.19 104.83 130.64 95.62 126.68 105.26 129.43 96.17 125.18 105.73 128.24 96.78 123.71 106.23 127.06 97.43 122.25 106.77 125.9 98.13 120.82 107.35 124.75 98.87 119.41 107.96 123.63 99.65 118.02 108.61 122.52 100.48 116.66 109.29 121.44 101.35 115.32 110.01 120.37 102.26 114.01 110.76 119.33 103.21 112.73 111.54 118.31 104.19 111.48 112.35 117.32 105.22 110.26 113.19 116.35 106.28 109.08 114.06 115.41 107.38 107.93 114.97 114.49 108.52 106.81 115.89 113.61 109.69 105.73 116.85 112.75 110.89 104.68 117.83 111.92 112.12 103.68 118.84 111.13 113.39 102.71 119.87 110.36 114.68 101.78 120.92 109.63 116 100.89 122 108.93 117.35 100.04 123.09 108.27 118.73 99.24 124.21 107.63 120.13 98.47 125.34 107.04 121.55 97.76 126.5 106.48 123 97.08 127.67 105.96 124.46 96.45 128.85 105.47 125.95 95.87 130.05 105.02 127.45 95.34 131.27 104.61 128.97 94.85 132.49 104.24 130.5 94.41 133.73 103.9 132.05 94.02 134.98 103.61 133.6 93.67 136.23 103.35 135.17 93.38 137.49 103.14 136.75 93.14 138.76 102.96 138.33 92.94 140.04 102.82 139.91 92.79 141.32 102.72 141.5 92.7 142.6 102.66 143.09 92.65 143.89 102.64 144.68 92.65 145.17 102.66 146.27 92.7 146.46 102.72 147.86 92.79 147.74 102.82 149.45 92.94 149.01 102.96 151.03 93.14 150.28 103.14 152.61 93.38 151.55 103.35 154.17 93.67 152.8 103.61 155.73 94.02 154.05 103.9 157.28 94.41 155.29 104.24 158.81 94.85 156.51 104.61 160.33 95.34 157.73 105.02 161.83 95.87 158.93 105.47 163.32 96.45 160.11 105.96 164.78 97.08 161.28 106.48 166.23 97.76 162.44 107.04 167.65 98.47 163.57 107.64 169.05 99.24 164.69 108.27 170.43 100.04 165.78 108.93 171.78 100.89 166.86 109.63 173.1 101.78 167.91 110.36 174.39 102.71 168.94 111.13 175.66 103.68 169.95 111.92 176.89 104.69 170.93 112.75 178.09 105.73 171.89 113.61 179.26 106.81 172.81 114.49 180.4 107.93 173.71 115.41 181.5 109.08 174.59 116.35 182.56 110.27 175.43 117.32 183.59 111.49 176.24 118.31 184.57 112.73 177.02 119.33 185.52 114.01 177.77 120.37 186.43 115.32 178.48 121.44 187.3 116.66 179.17 122.52 188.13 118.02 179.81 123.63 188.91 119.41 180.43 124.76 189.65 120.82 181 125.9 190.35 122.25 181.55 127.06 191 123.71 182.05 128.24 191.6 125.19 182.52 129.43 192.16 126.68 182.95 130.64 192.67 128.19 183.34 131.86 193.14 129.72 183.69 133.09 193.55 131.25 184.01 134.33 193.92 132.81 184.28 135.59 194.24 134.37 184.52 136.84 194.51 135.94 184.72 138.11 194.73 137.52 184.87 139.38 194.9 139.1 184.99 140.66 195.02 140.69 185.07 141.94 195.09 142.28 185.11 143.23 195.12 143.87 185.11 144.51 195.09 145.46 185.07 145.8 195.02 147.05 184.99 147.08 194.9 148.64 184.87 148.36 194.73 150.23 184.72 149.63 194.51 151.8 184.52 150.9 194.24 153.38 184.28 152.16 193.92 154.94 184.01 153.41 193.55 156.49 183.69 154.65 193.14 158.03 183.34 155.88 192.67 159.56 182.95 157.1 192.16 161.07 182.52 158.31 191.6 162.56 182.05 159.5 191 164.04 181.54 160.68 190.35 165.49 181 161.84 189.65 166.93 180.43 162.99 188.91 168.34 179.81 164.11 188.13 169.73 179.16 165.22 187.3 171.09 178.48 166.31 186.43 172.42 177.77 167.37 185.52 173.73 177.02 168.41 184.57 175.01 176.24 169.43 183.58 176.26 175.43 170.43 182.56 177.48 174.58 171.39 181.49 178.66 173.71 172.34 180.39 179.82 172.81 173.25 179.26 180.93 171.88 174.14 178.09 182.01 170.93 174.99 176.89 183.06 169.95 175.82 175.65 184.07 168.94 176.62 174.39 185.04 167.91 177.38 173.1 185.97 166.86 178.11 171.77 186.85 165.78 178.81 170.42 187.7 164.69 179.48 169.05 188.51 163.57 180.11 167.65 189.27 162.43 180.7 166.23 189.99 161.28 181.26 164.78 190.66 160.11 181.79 163.31 191.29 158.92 182.27 161.83 191.87 157.72 182.72 160.33 192.41 156.51 183.13 158.81 192.89 155.29 183.5 157.28 193.33 154.05 183.84 155.73 193.73 152.8 184.13 154.17 194.07 151.55 184.39 152.61 194.36 150.28 184.61 151.03 194.61 149.01 184.78 149.45 194.8 147.74 184.92 147.86 194.95 146.46 185.02 146.27 195.05 145.17 185.08 144.68 195.1 143.89 185.1 143.09 195.1 142.6 185.08 141.5 195.05 141.32 185.02 139.91 194.95 140.04 184.92 138.33 194.8 138.76 184.78 136.74 194.61 137.49 184.61 135.17 194.36 136.23 184.39 133.6 194.07 134.97 184.13 132.04 193.72 133.73 183.84 130.5 193.33 132.49 183.5 128.97 192.89 131.26 183.13 127.45 192.41 130.05 182.72 125.94 191.87 128.85 182.27 124.46 191.29 127.66 181.78 122.99 190.66 126.49 181.26 121.55 189.99 125.34 180.7 120.13 189.27 124.21 180.11 118.73 188.51 123.09 179.48 117.35 187.7 121.99 178.81 116 186.85 120.92 178.11 114.68 185.96 119.86 177.38 113.38 185.03 118.83 176.62 112.12 184.07 117.83 175.82 110.89 183.06 116.85 174.99 109.68 182.01 115.89 174.13 108.52 180.93 114.96 173.25 107.38 179.81 114.06 172.33 106.28 178.66 113.19 171.39 105.22 177.48 112.35 170.42 104.19 176.26 111.54 169.43 103.2 175.01 110.76 168.41 102.25 173.73 110.01 167.37 101.34 172.42 109.29 166.3 100.48 171.09 108.61 165.22 99.65 169.72 107.96 164.11 98.87 168.33 107.35 162.99 98.13 166.92 106.77 161.84 97.43 165.49 106.23 160.68 96.78 164.03 105.73 159.5 96.17 162.56 105.26 158.31 95.62 161.06 104.83 157.1 95.1 159.55 104.44 155.88 94.64 158.03 104.08 154.65 94.22 156.49 103.77 153.41 93.86 154.94 103.49 152.16 93.54 153.37 103.26 150.9 93.27 151.8 103.06 149.63 93.05 150.22 102.9 148.36 92.88 148.64 102.78 147.08 92.76 147.05 102.71 145.8 92.68 145.46 102.67 144.51 92.66 143.87"/></svg>