<?xml version="1.0" encoding="UTF-8"?><svg id="_이어_1" xmlns="http://www.w3.org/2000/svg" viewBox="0 0 287.78 287.74"><defs><style>.cls-1{fill:#ffe98d;}</style></defs><polygon class="cls-1" points="117.37 143.87 127.37 143.61 117.38 143.05 127.39 143.1 117.42 142.23 127.42 142.58 117.48 141.41 127.47 142.07 117.57 140.59 127.53 141.56 117.68 139.77 127.61 141.05 117.82 138.95 127.7 140.55 117.99 138.14 127.81 140.05 118.18 137.34 127.94 139.55 118.39 136.54 128.08 139.06 118.63 135.75 128.24 138.57 118.9 134.97 128.41 138.09 119.19 134.2 128.6 137.61 119.5 133.43 128.8 137.14 119.84 132.68 129.02 136.67 120.2 131.93 129.25 136.21 120.58 131.2 129.49 135.76 120.99 130.49 129.75 135.32 121.42 129.78 130.03 134.88 121.87 129.09 130.31 134.46 122.34 128.41 130.61 134.04 122.83 127.75 130.93 133.63 123.34 127.1 131.25 133.23 123.87 126.47 131.59 132.84 124.42 125.86 131.94 132.47 124.99 125.26 132.3 132.1 125.58 124.68 132.67 131.74 126.18 124.13 133.06 131.4 126.8 123.58 133.45 131.07 127.44 123.06 133.85 130.75 128.1 122.56 134.27 130.44 128.77 122.08 134.69 130.15 129.45 121.62 135.12 129.87 130.15 121.18 135.56 129.6 130.86 120.76 136.01 129.35 131.59 120.37 136.46 129.11 132.32 120 136.92 128.89 133.07 119.65 137.39 128.68 133.83 119.32 137.86 128.48 134.6 119.02 138.34 128.31 135.38 118.75 138.83 128.14 136.16 118.49 139.32 127.99 136.96 118.27 139.82 127.86 137.76 118.06 140.31 127.74 138.57 117.88 140.82 127.64 139.38 117.73 141.32 127.55 140.19 117.61 141.83 127.48 141.01 117.5 142.34 127.42 141.83 117.43 142.86 127.38 142.65 117.38 143.37 127.36 143.48 117.35 143.89 127.35 144.3 117.35 144.41 127.36 145.12 117.38 144.92 127.38 145.94 117.43 145.43 127.42 146.77 117.5 145.95 127.48 147.58 117.61 146.45 127.55 148.4 117.73 146.96 127.64 149.21 117.88 147.46 127.74 150.02 118.06 147.96 127.86 150.82 118.27 148.46 127.99 151.61 118.49 148.95 128.14 152.4 118.75 149.43 128.31 153.18 119.02 149.91 128.48 153.95 119.32 150.39 128.68 154.71 119.65 150.86 128.89 155.46 120 151.32 129.11 156.19 120.37 151.77 129.35 156.92 120.77 152.22 129.6 157.63 121.18 152.66 129.87 158.33 121.62 153.09 130.15 159.01 122.08 153.51 130.44 159.68 122.56 153.93 130.75 160.34 123.06 154.33 131.07 160.97 123.59 154.72 131.4 161.6 124.13 155.11 131.75 162.2 124.69 155.48 132.1 162.79 125.26 155.84 132.47 163.36 125.86 156.19 132.85 163.91 126.47 156.53 133.23 164.44 127.1 156.85 133.63 164.95 127.75 157.16 134.04 165.44 128.41 157.46 134.46 165.91 129.09 157.75 134.89 166.36 129.78 158.02 135.32 166.79 130.49 158.28 135.76 167.19 131.21 158.53 136.21 167.58 131.94 158.76 136.67 167.94 132.68 158.98 137.14 168.28 133.43 159.18 137.61 168.59 134.2 159.37 138.09 168.88 134.97 159.54 138.57 169.14 135.75 159.7 139.06 169.38 136.54 159.84 139.55 169.6 137.34 159.96 140.05 169.79 138.15 160.07 140.55 169.95 138.95 160.17 141.05 170.09 139.77 160.25 141.56 170.21 140.59 160.31 142.07 170.3 141.41 160.36 142.58 170.36 142.23 160.39 143.1 170.4 143.05 160.4 143.61 170.41 143.87 160.4 144.13 170.4 144.69 160.39 144.65 170.36 145.52 160.36 145.16 170.3 146.34 160.31 145.67 170.21 147.16 160.25 146.18 170.09 147.98 160.17 146.69 169.95 148.79 160.07 147.2 169.79 149.6 159.96 147.7 169.6 150.4 159.84 148.19 169.38 151.2 159.7 148.69 169.14 151.99 159.54 149.17 168.88 152.77 159.37 149.66 168.59 153.55 159.18 150.13 168.28 154.31 158.98 150.61 167.94 155.07 158.76 151.07 167.58 155.81 158.53 151.53 167.19 156.54 158.28 151.98 166.79 157.26 158.02 152.42 166.36 157.96 157.75 152.86 165.91 158.65 157.46 153.29 165.44 159.33 157.16 153.7 164.95 159.99 156.85 154.11 164.44 160.64 156.53 154.51 163.91 161.27 156.19 154.9 163.36 161.88 155.84 155.28 162.79 162.48 155.48 155.64 162.2 163.06 155.1 156 161.59 163.62 154.72 156.34 160.97 164.16 154.33 156.67 160.33 164.68 153.92 156.99 159.68 165.18 153.51 157.3 159.01 165.66 153.09 157.59 158.33 166.12 152.66 157.87 157.63 166.56 152.22 158.14 156.92 166.98 151.77 158.39 156.19 167.37 151.32 158.63 155.45 167.74 150.86 158.85 154.71 168.09 150.39 159.06 153.95 168.42 149.91 159.26 153.18 168.72 149.43 159.44 152.4 169 148.95 159.6 151.61 169.25 148.46 159.75 150.82 169.48 147.96 159.88 150.02 169.68 147.46 160 149.21 169.86 146.96 160.11 148.4 170.01 146.45 160.19 147.58 170.14 145.95 160.26 146.76 170.24 145.43 160.32 145.94 170.31 144.92 160.36 145.12 170.36 144.41 160.38 144.3 170.39 143.89 160.39 143.48 170.39 143.37 160.38 142.65 170.36 142.86 160.36 141.83 170.31 142.34 160.32 141.01 170.24 141.83 160.26 140.19 170.14 141.32 160.19 139.38 170.01 140.82 160.11 138.57 169.86 140.31 160 137.76 169.68 139.81 159.88 136.96 169.48 139.32 159.75 136.16 169.25 138.83 159.6 135.38 169 138.34 159.44 134.6 168.72 137.86 159.26 133.83 168.42 137.39 159.06 133.07 168.09 136.92 158.85 132.32 167.74 136.46 158.63 131.58 167.37 136 158.39 130.86 166.98 135.56 158.14 130.15 166.56 135.12 157.87 129.45 166.12 134.69 157.59 128.76 165.66 134.26 157.3 128.1 165.18 133.85 156.99 127.44 164.68 133.45 156.67 126.8 164.16 133.05 156.34 126.18 163.62 132.67 156 125.58 163.06 132.3 155.64 124.99 162.48 131.94 155.27 124.42 161.88 131.59 154.9 123.87 161.27 131.25 154.51 123.34 160.64 130.93 154.11 122.83 159.99 130.61 153.7 122.34 159.33 130.31 153.28 121.87 158.65 130.03 152.86 121.42 157.96 129.75 152.42 120.99 157.26 129.49 151.98 120.58 156.54 129.25 151.53 120.2 155.81 129.02 151.07 119.84 155.06 128.8 150.6 119.5 154.31 128.6 150.13 119.19 153.55 128.41 149.66 118.9 152.77 128.24 149.17 118.63 151.99 128.08 148.69 118.39 151.2 127.94 148.19 118.18 150.4 127.81 147.7 117.99 149.6 127.7 147.19 117.82 148.79 127.61 146.69 117.68 147.97 127.53 146.18 117.57 147.16 127.47 145.67 117.48 146.34 127.42 145.16 117.42 145.52 127.39 144.65 117.38 144.69 127.37 144.13 117.37 143.87"/></svg>