<?xml version="1.0" encoding="UTF-8"?><svg id="_이어_1" xmlns="http://www.w3.org/2000/svg" viewBox="0 0 287.78 287.74"><defs><style>.cls-1{fill:#f33;}</style></defs><polygon class="cls-1" points="129.72 143.87 139.73 143.81 129.73 143.43 139.73 143.67 129.75 142.99 139.74 143.54 129.78 142.56 139.75 143.41 129.83 142.12 139.77 143.28 129.89 141.68 139.79 143.16 129.96 141.25 139.81 143.03 130.05 140.81 139.84 142.9 130.15 140.38 139.87 142.78 130.27 139.96 139.9 142.66 130.4 139.53 139.94 142.53 130.54 139.11 139.99 142.41 130.7 138.7 140.03 142.29 130.86 138.29 140.08 142.17 131.04 137.89 140.14 142.06 131.24 137.49 140.2 141.94 131.44 137.1 140.26 141.83 131.66 136.72 140.32 141.72 131.89 136.34 140.39 141.61 132.13 135.97 140.46 141.5 132.38 135.61 140.54 141.39 132.64 135.26 140.62 141.29 132.91 134.91 140.7 141.19 133.2 134.58 140.79 141.09 133.49 134.25 140.88 141 133.79 133.93 140.97 140.9 134.11 133.62 141.06 140.81 134.43 133.32 141.16 140.73 134.76 133.03 141.26 140.64 135.1 132.76 141.36 140.56 135.45 132.49 141.47 140.48 135.81 132.23 141.57 140.41 136.18 131.99 141.68 140.34 136.55 131.75 141.79 140.27 136.93 131.53 141.9 140.21 137.32 131.32 142.02 140.15 137.71 131.12 142.13 140.09 138.11 130.93 142.25 140.04 138.52 130.76 142.37 139.99 138.93 130.6 142.49 139.95 139.34 130.45 142.61 139.91 139.76 130.32 142.73 139.87 140.19 130.19 142.86 139.83 140.62 130.08 142.98 139.81 141.05 129.99 143.11 139.78 141.48 129.91 143.24 139.76 141.92 129.84 143.37 139.74 142.35 129.79 143.49 139.73 142.79 129.75 143.62 139.72 143.23 129.72 143.76 139.71 143.67 129.71 143.89 139.71 144.11 129.71 144.02 139.71 144.55 129.72 144.15 139.72 144.98 129.75 144.28 139.73 145.42 129.79 144.41 139.74 145.86 129.84 144.54 139.76 146.3 129.91 144.67 139.78 146.73 129.99 144.79 139.81 147.16 130.09 144.92 139.83 147.59 130.19 145.04 139.87 148.02 130.32 145.17 139.91 148.44 130.45 145.29 139.95 148.85 130.6 145.41 139.99 149.26 130.76 145.53 140.04 149.67 130.93 145.64 140.09 150.07 131.12 145.76 140.15 150.46 131.32 145.87 140.21 150.85 131.53 145.99 140.27 151.23 131.75 146.1 140.34 151.6 131.99 146.21 140.41 151.97 132.23 146.31 140.48 152.33 132.49 146.42 140.56 152.68 132.76 146.52 140.64 153.02 133.04 146.62 140.73 153.35 133.33 146.72 140.81 153.67 133.62 146.81 140.9 153.99 133.93 146.9 141 154.29 134.25 146.99 141.09 154.58 134.58 147.08 141.19 154.87 134.91 147.16 141.29 155.14 135.26 147.24 141.4 155.4 135.61 147.31 141.5 155.65 135.97 147.39 141.61 155.89 136.34 147.45 141.72 156.12 136.72 147.52 141.83 156.34 137.1 147.58 141.94 156.54 137.5 147.64 142.06 156.73 137.89 147.69 142.18 156.91 138.29 147.74 142.29 157.08 138.7 147.79 142.41 157.24 139.12 147.83 142.53 157.38 139.54 147.87 142.66 157.51 139.96 147.91 142.78 157.62 140.39 147.94 142.9 157.72 140.81 147.97 143.03 157.81 141.25 147.99 143.16 157.89 141.68 148.01 143.28 157.95 142.12 148.03 143.41 158 142.56 148.04 143.54 158.03 142.99 148.05 143.67 158.05 143.43 148.05 143.81 158.06 143.87 148.05 143.94 158.05 144.31 148.05 144.07 158.03 144.75 148.04 144.2 158 145.19 148.03 144.33 157.95 145.63 148.01 144.46 157.89 146.06 147.99 144.59 157.81 146.5 147.97 144.71 157.72 146.93 147.94 144.84 157.62 147.36 147.91 144.96 157.51 147.79 147.87 145.09 157.38 148.21 147.83 145.21 157.24 148.63 147.79 145.33 157.08 149.04 147.74 145.45 156.91 149.45 147.69 145.57 156.73 149.85 147.64 145.68 156.54 150.25 147.58 145.8 156.34 150.64 147.52 145.91 156.12 151.03 147.45 146.02 155.89 151.4 147.38 146.13 155.65 151.77 147.31 146.24 155.4 152.13 147.24 146.35 155.14 152.49 147.16 146.45 154.86 152.83 147.07 146.55 154.58 153.17 146.99 146.65 154.29 153.49 146.9 146.75 153.98 153.81 146.81 146.84 153.67 154.12 146.71 146.93 153.35 154.42 146.62 147.02 153.01 154.71 146.52 147.1 152.67 154.99 146.42 147.18 152.32 155.25 146.31 147.26 151.97 155.51 146.2 147.33 151.6 155.76 146.1 147.4 151.23 155.99 145.99 147.47 150.85 156.21 145.87 147.53 150.46 156.42 145.76 147.59 150.07 156.62 145.64 147.65 149.67 156.81 145.53 147.7 149.26 156.98 145.41 147.75 148.85 157.14 145.29 147.8 148.43 157.29 145.16 147.84 148.01 157.43 145.04 147.87 147.59 157.55 144.92 147.91 147.16 157.66 144.79 147.94 146.73 157.75 144.67 147.96 146.3 157.83 144.54 147.99 145.86 157.9 144.41 148 145.42 157.96 144.28 148.02 144.98 158 144.15 148.03 144.55 158.02 144.02 148.03 144.11 158.04 143.89 148.04 143.67 158.04 143.76 148.03 143.23 158.02 143.62 148.03 142.79 158 143.49 148.02 142.35 157.96 143.36 148 141.92 157.9 143.24 147.99 141.48 157.83 143.11 147.96 141.05 157.75 142.98 147.94 140.61 157.66 142.86 147.91 140.19 157.55 142.73 147.87 139.76 157.43 142.61 147.84 139.34 157.29 142.49 147.8 138.92 157.14 142.37 147.75 138.51 156.98 142.25 147.7 138.11 156.81 142.13 147.65 137.71 156.62 142.02 147.59 137.31 156.42 141.9 147.53 136.93 156.21 141.79 147.47 136.55 155.99 141.68 147.4 136.17 155.75 141.57 147.33 135.81 155.51 141.46 147.26 135.45 155.25 141.36 147.18 135.1 154.98 141.26 147.1 134.76 154.71 141.16 147.02 134.43 154.42 141.06 146.93 134.1 154.12 140.97 146.84 133.79 153.81 140.88 146.75 133.49 153.49 140.79 146.65 133.19 153.16 140.7 146.55 132.91 152.83 140.62 146.45 132.64 152.48 140.54 146.35 132.38 152.13 140.46 146.24 132.12 151.77 140.39 146.13 131.88 151.4 140.32 146.02 131.66 151.02 140.26 145.91 131.44 150.64 140.2 145.8 131.23 150.25 140.14 145.68 131.04 149.85 140.08 145.57 130.86 149.45 140.03 145.45 130.69 149.04 139.99 145.33 130.54 148.63 139.94 145.21 130.4 148.21 139.9 145.09 130.27 147.78 139.87 144.96 130.15 147.36 139.84 144.84 130.05 146.93 139.81 144.71 129.96 146.5 139.78 144.59 129.89 146.06 139.77 144.46 129.83 145.62 139.75 144.33 129.78 145.19 139.74 144.2 129.75 144.75 139.73 144.07 129.73 144.31 139.73 143.94 129.72 143.87"/></svg>