<?xml version="1.0" encoding="UTF-8"?><svg id="_이어_1" xmlns="http://www.w3.org/2000/svg" viewBox="0 0 287.78 287.74"><defs><style>.cls-1{fill:#dfb;}</style></defs><polygon class="cls-1" points="18.53 143.87 28.55 142.08 18.59 139.97 28.66 138.49 18.77 136.08 28.88 134.9 19.07 132.19 29.21 131.33 19.49 128.32 29.65 127.77 20.03 124.45 30.2 124.22 20.69 120.61 30.86 120.7 21.47 116.79 31.63 117.19 22.36 112.99 32.52 113.71 23.38 109.23 33.51 110.27 24.52 105.5 34.6 106.85 25.77 101.8 35.81 103.47 27.13 98.15 37.12 100.13 28.61 94.54 38.53 96.83 30.21 90.98 40.04 93.58 31.91 87.47 41.66 90.38 33.72 84.01 43.38 87.23 35.64 80.62 45.19 84.13 37.66 77.28 47.1 81.09 39.79 74.01 49.1 78.11 42.01 70.81 51.19 75.2 44.33 67.68 53.38 72.35 46.75 64.62 55.65 69.57 49.27 61.64 58 66.86 51.87 58.74 60.44 64.23 54.56 55.92 62.96 61.67 57.34 53.19 65.56 59.19 60.2 50.54 68.23 56.8 63.14 47.98 70.97 54.48 66.16 45.51 73.79 52.26 69.26 43.14 76.67 50.12 72.42 40.87 79.61 48.07 75.66 38.69 82.62 46.11 78.96 36.62 85.69 44.25 82.33 34.65 88.82 42.49 85.75 32.78 91.99 40.82 89.23 31.03 95.22 39.26 92.77 29.38 98.5 37.79 96.35 27.84 101.82 36.43 99.99 26.42 105.18 35.17 103.66 25.11 108.57 34.02 107.37 23.92 112 32.98 111.12 22.84 115.47 32.04 114.91 21.88 118.96 31.22 118.71 21.04 122.47 30.5 122.55 20.32 126.01 29.89 126.4 19.73 129.56 29.4 130.27 19.25 133.13 29.01 134.15 18.89 136.71 28.74 138.04 18.65 140.3 28.57 141.94 18.53 143.89 28.52 145.84 18.53 147.48 28.57 149.73 18.65 151.07 28.74 153.62 18.89 154.65 29.01 157.51 19.25 158.21 29.4 161.38 19.73 161.77 29.89 165.23 20.32 165.3 30.5 169.06 21.04 168.82 31.22 172.87 21.88 172.31 32.04 176.65 22.84 175.77 32.98 180.4 23.92 179.21 34.02 184.12 25.11 182.6 35.17 187.79 26.42 185.96 36.43 191.42 27.84 189.28 37.79 195.01 29.38 192.56 39.26 198.54 31.03 195.79 40.82 202.03 32.78 198.96 42.49 205.45 34.65 202.09 44.25 208.82 36.62 205.15 46.11 212.12 38.69 208.16 48.07 215.35 40.87 211.11 50.12 218.52 43.14 213.99 52.26 221.62 45.51 216.81 54.48 224.64 47.98 219.55 56.8 227.58 50.54 222.22 59.19 230.44 53.19 224.82 61.67 233.22 55.92 227.34 64.23 235.91 58.74 229.78 66.86 238.51 61.65 232.13 69.57 241.02 64.63 234.4 72.35 243.44 67.68 236.58 75.2 245.77 70.81 238.68 78.12 247.99 74.02 240.68 81.09 250.12 77.29 242.59 84.13 252.14 80.62 244.4 87.23 254.06 84.02 246.12 90.38 255.87 87.47 247.73 93.58 257.57 90.98 249.25 96.84 259.16 94.54 250.66 100.13 260.64 98.15 251.97 103.47 262.01 101.8 253.17 106.85 263.26 105.5 254.27 110.27 264.4 109.23 255.26 113.72 265.41 112.99 256.14 117.19 266.31 116.79 256.91 120.7 267.09 120.61 257.58 124.22 267.75 124.46 258.13 127.77 268.29 128.32 258.57 131.33 268.71 132.19 258.9 134.9 269.01 136.08 259.12 138.49 269.19 139.97 259.23 142.08 269.25 143.87 259.23 145.67 269.19 147.77 259.12 149.26 269.01 151.66 258.9 152.84 268.71 155.55 258.57 156.41 268.29 159.43 258.13 159.98 267.75 163.29 257.58 163.52 267.09 167.13 256.91 167.05 266.31 170.95 256.14 170.55 265.41 174.75 255.26 174.03 264.4 178.52 254.27 177.48 263.26 182.25 253.17 180.89 262.01 185.94 251.97 184.27 260.64 189.6 250.66 187.61 259.16 193.21 249.25 190.91 257.57 196.77 247.73 194.16 255.87 200.27 246.12 197.36 254.06 203.73 244.4 200.51 252.14 207.12 242.59 203.61 250.12 210.46 240.68 206.65 247.99 213.73 238.68 209.63 245.77 216.93 236.58 212.54 243.44 220.06 234.4 215.39 241.02 223.12 232.13 218.17 238.51 226.1 229.77 220.88 235.91 229 227.34 223.51 233.21 231.82 224.82 226.07 230.44 234.56 222.22 228.55 227.58 237.2 219.55 230.95 224.63 239.76 216.81 233.26 221.61 242.23 213.99 235.49 218.52 244.6 211.11 237.63 215.35 246.88 208.16 239.67 212.12 249.05 205.15 241.63 208.81 251.13 202.09 243.49 205.45 253.1 198.96 245.26 202.02 254.96 195.78 246.92 198.54 256.72 192.56 248.49 195.01 258.36 189.28 249.95 191.42 259.9 185.96 251.31 187.79 261.32 182.6 252.57 184.12 262.63 179.2 253.72 180.4 263.83 175.77 254.76 176.65 264.9 172.31 255.7 172.87 265.86 168.82 256.52 169.06 266.7 165.3 257.24 165.23 267.42 161.77 257.85 161.38 268.02 158.21 258.34 157.51 268.5 154.65 258.73 153.62 268.86 151.07 259.01 149.73 269.09 147.48 259.17 145.84 269.21 143.89 259.22 141.94 269.21 140.3 259.17 138.04 269.09 136.71 259.01 134.15 268.86 133.13 258.73 130.27 268.5 129.56 258.34 126.4 268.02 126.01 257.85 122.55 267.42 122.47 257.24 118.71 266.7 118.96 256.52 114.9 265.86 115.47 255.7 111.12 264.9 112 254.76 107.37 263.83 108.57 253.72 103.66 262.63 105.17 252.57 99.99 261.32 101.81 251.31 96.35 259.9 98.49 249.95 92.77 258.36 95.22 248.49 89.23 256.72 91.99 246.92 85.75 254.96 88.81 245.25 82.33 253.09 85.69 243.49 78.96 251.12 82.62 241.63 75.66 249.05 79.61 239.67 72.42 246.87 76.67 237.62 69.26 244.6 73.78 235.49 66.16 242.23 70.97 233.26 63.14 239.76 68.23 230.95 60.2 237.2 65.55 228.55 57.34 234.55 62.96 226.07 54.56 231.82 60.44 223.51 51.87 229 58 220.88 49.26 226.1 55.65 218.17 46.75 223.12 53.38 215.39 44.33 220.06 51.19 212.54 42.01 216.93 49.1 209.63 39.78 213.73 47.1 206.65 37.66 210.46 45.19 203.61 35.64 207.12 43.37 200.51 33.72 203.73 41.66 197.36 31.91 200.27 40.04 194.16 30.21 196.76 38.53 190.91 28.61 193.2 37.11 187.61 27.13 189.59 35.81 184.27 25.77 185.94 34.6 180.89 24.52 182.25 33.5 177.48 23.38 178.51 32.52 174.03 22.36 174.75 31.63 170.55 21.47 170.95 30.86 167.05 20.69 167.13 30.2 163.52 20.03 163.29 29.65 159.98 19.49 159.43 29.21 156.41 19.07 155.55 28.88 152.84 18.77 151.66 28.66 149.26 18.59 147.77 28.55 145.67 18.53 143.87"/></svg>