<?xml version="1.0" encoding="UTF-8"?><svg id="_이어_1" xmlns="http://www.w3.org/2000/svg" viewBox="0 0 287.78 287.74"><defs><style>.cls-1{fill:#7466ff;}</style></defs><polygon class="cls-1" points="86.48 143.87 96.49 143.13 86.51 142.09 96.54 141.66 86.59 140.31 96.63 140.18 86.73 138.53 96.76 138.71 86.92 136.75 96.94 137.25 87.17 134.98 97.17 135.79 87.47 133.22 97.44 134.34 87.82 131.47 97.76 132.9 88.24 129.73 98.12 131.48 88.7 128.01 98.53 130.06 89.22 126.3 98.98 128.66 89.8 124.6 99.47 127.27 90.42 122.93 100.01 125.9 91.1 121.28 100.59 124.54 91.83 119.65 101.21 123.21 92.61 118.04 101.88 121.89 93.44 116.46 102.58 120.6 94.32 114.9 103.33 119.32 95.24 113.37 104.11 118.07 96.22 111.88 104.93 116.85 97.24 110.41 105.79 115.65 98.3 108.98 106.69 114.48 99.41 107.58 107.63 113.34 100.56 106.21 108.59 112.23 101.75 104.88 109.6 111.14 102.98 103.59 110.63 110.09 104.25 102.34 111.7 109.07 105.56 101.13 112.8 108.09 106.91 99.96 113.93 107.14 108.29 98.83 115.08 106.22 109.71 97.74 116.27 105.34 111.16 96.7 117.48 104.5 112.64 95.71 118.71 103.7 114.15 94.76 119.98 102.93 115.69 93.85 121.26 102.21 117.26 93 122.56 101.52 118.86 92.19 123.89 100.88 120.48 91.44 125.24 100.28 122.12 90.74 126.6 99.72 123.78 90.08 127.98 99.2 125.47 89.48 129.37 98.73 127.17 88.94 130.78 98.3 128.89 88.45 132.21 97.92 130.62 88.01 133.64 97.58 132.36 87.62 135.08 97.28 134.12 87.29 136.54 97.03 135.88 87.02 138 96.83 137.66 86.8 139.46 96.67 139.43 86.63 140.94 96.56 141.21 86.52 142.41 96.49 143 86.47 143.89 96.47 144.78 86.47 145.37 96.49 146.56 86.52 146.84 96.56 148.34 86.63 148.31 96.67 150.12 86.8 149.78 96.83 151.89 87.02 151.24 97.03 153.66 87.29 152.69 97.28 155.42 87.62 154.14 97.58 157.16 88.01 155.57 97.92 158.89 88.45 156.99 98.3 160.61 88.94 158.4 98.73 162.31 89.49 159.8 99.2 164 90.08 161.18 99.72 165.66 90.74 162.54 100.28 167.3 91.44 163.89 100.88 168.92 92.2 165.21 101.52 170.52 93 166.52 102.21 172.08 93.85 167.8 102.93 173.63 94.76 169.06 103.7 175.14 95.71 170.3 104.5 176.62 96.7 171.51 105.34 178.07 97.74 172.7 106.22 179.49 98.83 173.85 107.14 180.87 99.96 174.98 108.09 182.22 101.13 176.08 109.07 183.53 102.34 177.15 110.09 184.8 103.6 178.18 111.14 186.03 104.89 179.18 112.23 187.22 106.22 180.15 113.34 188.37 107.58 181.09 114.48 189.48 108.98 181.98 115.65 190.54 110.41 182.84 116.85 191.56 111.88 183.67 118.08 192.54 113.38 184.45 119.32 193.46 114.9 185.2 120.6 194.34 116.46 185.9 121.89 195.17 118.04 186.57 123.21 195.95 119.65 187.19 124.54 196.68 121.28 187.77 125.9 197.36 122.93 188.31 127.27 197.98 124.61 188.8 128.66 198.56 126.3 189.25 130.06 199.07 128.01 189.66 131.48 199.54 129.73 190.02 132.91 199.95 131.47 190.34 134.34 200.31 133.22 190.61 135.79 200.61 134.98 190.83 137.25 200.86 136.75 191.02 138.71 201.05 138.53 191.15 140.18 201.19 140.31 191.24 141.66 201.27 142.09 191.29 143.13 201.3 143.87 191.29 144.61 201.27 145.65 191.24 146.09 201.19 147.44 191.15 147.56 201.05 149.22 191.02 149.03 200.86 150.99 190.83 150.49 200.61 152.76 190.61 151.95 200.31 154.52 190.34 153.4 199.95 156.27 190.02 154.84 199.54 158.01 189.66 156.27 199.07 159.74 189.25 157.68 198.55 161.45 188.8 159.09 197.98 163.14 188.31 160.47 197.36 164.81 187.77 161.85 196.68 166.47 187.19 163.2 195.95 168.1 186.56 164.54 195.17 169.7 185.9 165.85 194.34 171.29 185.2 167.15 193.46 172.84 184.45 168.42 192.53 174.37 183.67 169.67 191.56 175.87 182.84 170.89 190.54 177.33 181.98 172.09 189.48 178.77 181.08 173.26 188.37 180.17 180.15 174.4 187.22 181.53 179.18 175.52 186.03 182.86 178.18 176.6 184.8 184.15 177.15 177.65 183.52 185.4 176.08 178.67 182.21 186.61 174.98 179.66 180.87 187.79 173.85 180.61 179.48 188.91 172.69 181.52 178.07 190 171.51 182.4 176.62 191.04 170.3 183.24 175.14 192.04 169.06 184.05 173.62 192.99 167.8 184.81 172.08 193.89 166.52 185.54 170.51 194.74 165.21 186.22 168.92 195.55 163.89 186.86 167.3 196.3 162.54 187.47 165.66 197.01 161.18 188.03 163.99 197.66 159.8 188.54 162.31 198.26 158.4 189.01 160.61 198.8 156.99 189.44 158.89 199.3 155.57 189.83 157.16 199.74 154.14 190.17 155.41 200.12 152.69 190.46 153.66 200.45 151.24 190.71 151.89 200.72 149.78 190.91 150.12 200.94 148.31 191.07 148.34 201.11 146.84 191.19 146.56 201.22 145.37 191.25 144.78 201.27 143.89 191.28 143 201.27 142.41 191.25 141.21 201.22 140.94 191.19 139.43 201.11 139.46 191.07 137.66 200.94 138 190.91 135.88 200.72 136.54 190.71 134.12 200.45 135.08 190.46 132.36 200.12 133.64 190.17 130.62 199.74 132.21 189.83 128.88 199.3 130.78 189.44 127.17 198.8 129.37 189.01 125.46 198.26 127.98 188.54 123.78 197.66 126.6 188.02 122.12 197.01 125.23 187.47 120.48 196.3 123.89 186.86 118.86 195.55 122.56 186.22 117.26 194.74 121.26 185.54 115.69 193.89 119.97 184.81 114.15 192.99 118.71 184.05 112.64 192.04 117.48 183.24 111.16 191.04 116.26 182.4 109.71 190 115.08 181.52 108.29 188.91 113.92 180.61 106.91 187.78 112.8 179.65 105.56 186.61 111.7 178.67 104.25 185.4 110.63 177.65 102.98 184.15 109.59 176.6 101.75 182.86 108.59 175.52 100.56 181.53 107.62 174.4 99.4 180.16 106.69 173.26 98.3 178.76 105.79 172.09 97.23 177.33 104.93 170.89 96.21 175.86 104.11 169.67 95.24 174.37 103.33 168.42 94.32 172.84 102.58 167.15 93.44 171.28 101.88 165.85 92.61 169.7 101.21 164.53 91.83 168.09 100.59 163.2 91.1 166.46 100.01 161.84 90.42 164.81 99.47 160.47 89.79 163.14 98.98 159.08 89.22 161.44 98.53 157.68 88.7 159.74 98.12 156.27 88.24 158.01 97.76 154.84 87.82 156.27 97.44 153.4 87.47 154.52 97.17 151.95 87.17 152.76 96.94 150.49 86.92 150.99 96.76 149.03 86.73 149.22 96.63 147.56 86.59 147.44 96.54 146.09 86.51 145.65 96.49 144.61 86.48 143.87"/></svg>