<?xml version="1.0" encoding="UTF-8"?><svg id="_레이어_1" xmlns="http://www.w3.org/2000/svg" viewBox="0 0 1080 360"><defs><style>.cls-1{fill:#ffbc58;}</style></defs><path class="cls-1" d="m545.19,204.4c0-23.83,20.68-35.77,72.66-39.31-.94-11.35-8.04-19.57-24.67-19.57-11.57,0-23.03,4.93-34.2,10.98l-9.74-17.52c13.32-7.88,30.64-14.73,48.91-14.73,29.6,0,46.26,16.19,46.26,46.5v62.43h-21.78l-2-12.9h-.74c-11.06,8.49-25.12,15.49-39.22,15.49-20.92,0-35.47-13.05-35.47-31.36Zm72.66-1.67v-21.21c-36.6,2.29-47.01,9.89-47.01,20.81,0,8.78,7.7,12.66,17.86,12.66s19.86-4.84,29.15-12.26Z"/><path class="cls-1" d="m180.5,204.4c0-23.83,20.68-35.77,72.66-39.31-.94-11.35-8.04-19.57-24.67-19.57-11.57,0-23.03,4.93-34.2,10.98l-9.74-17.52c13.32-7.88,30.64-14.73,48.91-14.73,29.6,0,46.26,16.19,46.26,46.5v62.43h-21.78l-2-12.9h-.74c-11.06,8.49-25.12,15.49-39.22,15.49-20.92,0-35.47-13.05-35.47-31.36Zm72.66-1.67v-21.21c-36.6,2.29-47.01,9.89-47.01,20.81,0,8.78,7.7,12.66,17.86,12.66s19.86-4.84,29.15-12.26Z"/><path class="cls-1" d="m425.58,180.12c0-35.5,28.14-55.88,60.67-55.88,16.97,0,30.56,6.33,39.39,14.85l-12.44,16.58c-8.35-6.47-16.45-9.85-25.63-9.85-20.61,0-34.82,13.58-34.82,34.29s13.99,34.05,34,34.05c11.89,0,21.72-5.25,29.78-11.34l11,16.9c-12.44,10.66-28.17,16.03-43.14,16.03-33.41,0-58.81-20.38-58.81-55.64Z"/><path class="cls-1" d="m675.07,126.83h37.41c41.49,0,66.93,14.81,66.93,53.17s-25.44,53.17-65.48,53.17h-38.86v-106.33Zm35.83,84.74c25.79,0,41.1-4.99,41.1-31.58s-15.31-31.58-41.1-31.58h-9.16v63.15h9.16Z"/><path class="cls-1" d="m795.07,179.88c0-34.71,26.46-55.64,54.92-55.64,31.99,0,49.5,21.3,49.5,50.61,0,5.17-.72,10.22-1.15,12.93h-84.13v-18.48h66.76l-4.83,5.65c0-20.09-9.31-30.37-25.34-30.37-17.12,0-29.89,12.17-29.89,35.3s14.22,35.42,36,35.42c10.78,0,19.75-3.11,29.25-8.39l9,16.31c-11.53,7.49-26.47,12.53-41.77,12.53-32.7,0-58.34-20.5-58.34-55.88Z"/><path class="cls-1" d="m310.38,126.83h53.49c23.84,0,42.55,8.48,42.55,33.82s-22.23,35.35-42.37,35.35h-27.12v37.17h-26.55v-106.33Zm49.79,50.5c13.05,0,20.12-5.88,20.12-15.96s-7.06-14.66-20.12-14.66h-23.23v30.62h23.23Zm-7.51,11.83l22.8-7.32,37.46,51.32h-29.68l-30.58-44Z"/></svg>