<?xml version="1.0" encoding="UTF-8"?><svg id="_레이어_1" xmlns="http://www.w3.org/2000/svg" viewBox="0 0 1080 360"><defs><style>.cls-1{fill:#ffbc58;}</style></defs><path class="cls-1" d="m801.82,204.4c0-23.83,20.68-35.77,72.66-39.31-.94-11.35-8.04-19.57-24.67-19.57-11.57,0-23.03,4.93-34.2,10.98l-9.74-17.52c13.32-7.88,30.64-14.73,48.91-14.73,29.6,0,46.26,16.19,46.26,46.5v62.43h-21.78l-2-12.9h-.74c-11.06,8.49-25.12,15.49-39.22,15.49-20.92,0-35.47-13.05-35.47-31.36Zm72.66-1.67v-21.21c-36.6,2.29-47.01,9.89-47.01,20.81,0,8.78,7.7,12.66,17.86,12.66s19.86-4.84,29.15-12.26Z"/><path class="cls-1" d="m178.97,180.12c0-35.5,28.14-55.88,60.67-55.88,16.97,0,30.56,6.33,39.39,14.85l-12.44,16.58c-8.35-6.47-16.45-9.85-25.63-9.85-20.61,0-34.82,13.58-34.82,34.29s13.99,34.05,34,34.05c11.89,0,21.72-5.25,29.78-11.34l11,16.9c-12.44,10.66-28.17,16.03-43.14,16.03-33.41,0-58.81-20.38-58.81-55.64Z"/><path class="cls-1" d="m544.71,179.88c0-34.71,26.46-55.64,54.92-55.64,31.99,0,49.5,21.3,49.5,50.61,0,5.17-.72,10.22-1.15,12.93h-84.13v-18.48h66.76l-4.83,5.65c0-20.09-9.31-30.37-25.34-30.37-17.12,0-29.89,12.17-29.89,35.3s14.22,35.42,36,35.42c10.78,0,19.75-3.11,29.25-8.39l9,16.31c-11.53,7.49-26.47,12.53-41.77,12.53-32.7,0-58.34-20.5-58.34-55.88Z"/><path class="cls-1" d="m306.07,212.08h33.86v-64.29h-33.86v-20.96h94.39v20.96h-33.98v64.29h33.98v21.08h-94.39v-21.08Z"/><path class="cls-1" d="m674.29,126.83h29.11l16.09,53.89,5.55,20.76h.87l5.44-20.76,16.21-53.89h29.11v106.33h-23.29v-19.11c0-15.08,2.55-45.57,3.8-59.61h-.65l-9.74,33.95-14.49,42.16h-14.51l-14.45-42.16-9.37-33.95h-.62c1.49,14.03,3.8,44.52,3.8,59.61v19.11h-22.86v-106.33Z"/><path class="cls-1" d="m425.62,126.83h24.72l33.05,50.58c3.93,6.29,9.16,15.96,12.92,22.46h.77c-1.06-13.32-2.31-27.1-2.31-38.04v-35.01h24.79v106.33h-24.72l-33.05-50.58c-3.93-6.19-9.28-15.77-12.92-22.46h-.87c1.15,13.41,2.41,27.1,2.41,38.04v35.01h-24.79v-106.33Z"/></svg>