<?xml version="1.0" encoding="UTF-8"?><svg id="_레이어_1" xmlns="http://www.w3.org/2000/svg" viewBox="0 0 1080 360"><defs><style>.cls-1{fill:#ffbc58;}</style></defs><path class="cls-1" d="m186.29,126.83h37.41c41.49,0,66.93,14.81,66.93,53.17s-25.44,53.17-65.48,53.17h-38.86v-106.33Zm35.83,84.74c25.79,0,41.1-4.99,41.1-31.58s-15.31-31.58-41.1-31.58h-9.16v63.15h9.16Z"/><path class="cls-1" d="m312.27,179.88c0-34.71,26.46-55.64,54.92-55.64,31.99,0,49.5,21.3,49.5,50.61,0,5.17-.72,10.22-1.15,12.93h-84.13v-18.48h66.76l-4.83,5.65c0-20.09-9.31-30.37-25.34-30.37-17.12,0-29.89,12.17-29.89,35.3s14.22,35.42,36,35.42c10.78,0,19.75-3.11,29.25-8.39l9,16.31c-11.53,7.49-26.47,12.53-41.77,12.53-32.7,0-58.34-20.5-58.34-55.88Z"/><path class="cls-1" d="m678.64,180.39c0-35.6,28.22-56.15,59.01-56.15,19.25,0,30.72,6.45,40.24,14.54l-12.25,16.08c-7.63-5.8-14-10.16-26.35-10.16-17.72,0-33.66,11.78-33.66,35.69,0,22,13.44,34.91,32.1,34.91,6.89,0,12.79-1.88,17.56-5.3v-20.2h-23.21v-17.88h46.05v49.13c-9.15,8.52-24.78,14.71-41.46,14.71-31.3,0-58.03-18.37-58.03-55.37Z"/><path class="cls-1" d="m562.62,212.08h33.86v-64.29h-33.86v-20.96h94.39v20.96h-33.98v64.29h33.98v21.08h-94.39v-21.08Z"/><path class="cls-1" d="m799.77,126.83h24.72l33.05,50.58c3.93,6.29,9.16,15.96,12.92,22.46h.77c-1.06-13.32-2.31-27.1-2.31-38.04v-35.01h24.79v106.33h-24.72l-33.05-50.58c-3.93-6.19-9.28-15.77-12.92-22.46h-.87c1.15,13.41,2.41,27.1,2.41,38.04v35.01h-24.79v-106.33Z"/><path class="cls-1" d="m438.34,219.34l11.5-16.82c12.78,8.35,27.32,13.29,44.12,13.29,14.03,0,20.54-5.21,20.54-11.84s-4.78-10.22-28.64-15.18c-28.5-6-40.85-16.16-40.85-32.42,0-18.79,17.23-32.13,47.12-32.13,17.92,0,34,7.04,44.86,14.17l-12.13,16.2c-10.4-6.6-22.69-10.53-35.11-10.53s-18.38,4.9-18.38,11.05c0,7.13,7.52,9.47,26.99,13.72,33.71,7.46,42.62,16.59,42.62,33.56,0,18.52-17.79,33.35-50.53,33.35-19.65,0-38.88-7.46-52.11-16.42Z"/></svg>