<?xml version="1.0" encoding="UTF-8"?><svg id="_레이어_1" xmlns="http://www.w3.org/2000/svg" viewBox="0 0 1080 360"><defs><style>.cls-1{fill:#ffbc58;}</style></defs><path class="cls-1" d="m422.4,204.4c0-23.83,20.68-35.77,72.66-39.31-.94-11.35-8.04-19.57-24.67-19.57-11.57,0-23.03,4.93-34.2,10.98l-9.74-17.52c13.32-7.88,30.64-14.73,48.91-14.73,29.6,0,46.26,16.19,46.26,46.5v62.43h-21.78l-2-12.9h-.74c-11.06,8.49-25.12,15.49-39.22,15.49-20.92,0-35.47-13.05-35.47-31.36Zm72.66-1.67v-21.21c-36.6,2.29-47.01,9.89-47.01,20.81,0,8.78,7.7,12.66,17.86,12.66s19.86-4.84,29.15-12.26Z"/><path class="cls-1" d="m671.38,179.88c0-34.71,26.46-55.64,54.92-55.64,31.99,0,49.5,21.3,49.5,50.61,0,5.17-.72,10.22-1.15,12.93h-84.13v-18.48h66.76l-4.83,5.65c0-20.09-9.31-30.37-25.34-30.37-17.12,0-29.89,12.17-29.89,35.3s14.22,35.42,36,35.42c10.78,0,19.75-3.11,29.25-8.39l9,16.31c-11.53,7.49-26.47,12.53-41.77,12.53-32.7,0-58.34-20.5-58.34-55.88Z"/><path class="cls-1" d="m188.36,126.83h91.12v22.41h-64.45v20.6h54.83v22.41h-54.83v40.91h-26.67v-106.33Z"/><path class="cls-1" d="m548.81,126.83h29.11l16.09,53.89,5.55,20.76h.87l5.44-20.76,16.21-53.89h29.11v106.33h-23.29v-19.11c0-15.08,2.55-45.57,3.8-59.61h-.65l-9.74,33.95-14.49,42.16h-14.51l-14.45-42.16-9.37-33.95h-.62c1.49,14.03,3.8,44.52,3.8,59.61v19.11h-22.86v-106.33Z"/><path class="cls-1" d="m303.67,126.83h53.49c23.84,0,42.55,8.48,42.55,33.82s-22.23,35.35-42.37,35.35h-27.12v37.17h-26.55v-106.33Zm49.79,50.5c13.05,0,20.12-5.88,20.12-15.96s-7.06-14.66-20.12-14.66h-23.23v30.62h23.23Zm-7.51,11.83l22.8-7.32,37.46,51.32h-29.68l-30.58-44Z"/><path class="cls-1" d="m789,219.34l11.5-16.82c12.78,8.35,27.32,13.29,44.12,13.29,14.03,0,20.54-5.21,20.54-11.84s-4.78-10.22-28.64-15.18c-28.5-6-40.85-16.16-40.85-32.42,0-18.79,17.23-32.13,47.12-32.13,17.92,0,34,7.04,44.86,14.17l-12.13,16.2c-10.4-6.6-22.69-10.53-35.11-10.53s-18.38,4.9-18.38,11.05c0,7.13,7.52,9.47,26.99,13.72,33.71,7.46,42.62,16.59,42.62,33.56,0,18.52-17.79,33.35-50.53,33.35-19.65,0-38.88-7.46-52.11-16.42Z"/></svg>