<?xml version="1.0" encoding="UTF-8"?><svg id="_레이어_1" xmlns="http://www.w3.org/2000/svg" viewBox="0 0 1080 360"><defs><style>.cls-1{fill:#ffbc58;}</style></defs><path class="cls-1" d="m555.62,126.83h49.86c24.77,0,43.63,7.17,43.63,27.63,0,10.11-6.06,18.72-18.26,22.27v.74c12.99,3.22,22.51,10.44,22.51,25.18,0,21.51-20.08,30.51-45.57,30.51h-52.17v-106.33Zm47.51,42.47c14.65,0,20.56-4.45,20.56-12.14s-5.81-11.62-19.94-11.62h-22.21v23.76h21.59Zm2.81,45.15c15.23,0,21.57-4.8,21.57-13.55,0-7.97-7.13-13.12-22.16-13.12h-23.8v26.68h24.4Z"/><path class="cls-1" d="m664.96,180.12c0-35.5,25.55-55.88,53.58-55.88s53.59,20.38,53.59,55.88-25.55,55.64-53.59,55.64-53.58-20.38-53.58-55.64Zm79.99,0c0-20.7-9.71-34.29-26.41-34.29s-26.41,13.58-26.41,34.29,9.71,34.05,26.41,34.05,26.41-13.47,26.41-34.05Z"/><path class="cls-1" d="m313.45,180.12c0-35.5,25.55-55.88,53.58-55.88s53.59,20.38,53.59,55.88-25.55,55.64-53.59,55.64-53.58-20.38-53.58-55.64Zm79.99,0c0-20.7-9.71-34.29-26.41-34.29s-26.41,13.58-26.41,34.29,9.71,34.05,26.41,34.05,26.41-13.47,26.41-34.05Z"/><path class="cls-1" d="m231.21,149.24h-43.97v-22.41h114.6v22.41h-43.97v83.92h-26.67v-83.92Z"/><path class="cls-1" d="m821.83,177.96l-35.46-51.13h28.67l13.14,19.41c3.38,5.93,7.7,12.29,11.54,18.1h.86c3.21-5.81,6.95-12.29,10.04-18.22l11.78-19.29h27.82l-35.79,53.9,38.33,52.44h-28.79l-14.46-20.12c-4.15-5.93-8.71-12.77-12.86-18.81h-.86c-3.64,6.17-7.48,12.43-11.12,18.93l-13.12,20h-27.82l38.1-55.21Z"/><path class="cls-1" d="m475,199.68l-42.78-72.85h28.04l14.2,25.62c4.48,9.65,8.77,17.82,13.45,28.22h.87c4.56-10.3,8.42-18.44,13.64-28.22l13.76-25.62h27.85l-42.47,72.85v33.49h-26.55v-33.49Z"/></svg>