<svg id="레이어_1" data-name="레이어 1" xmlns="http://www.w3.org/2000/svg" viewBox="0 0 494.59 494.59"><defs><style>.cls-1{fill:#f32;}.cls-2{fill:#af0f08;}.cls-3{fill:#d31616;}.cls-4{fill:#ff756e;}</style></defs><path class="cls-1" d="M194.23,457.71c-45.29,0-84.44-15.21-113.21-44-70.89-70.88-53.89-203.21,37.88-295,52-52,118.28-81.87,181.78-81.87,45.29,0,84.44,15.21,113.21,44,70.89,70.88,53.9,203.22-37.87,295C324,427.87,257.73,457.71,194.23,457.71Z"/><path class="cls-2" d="M300.68,48.79c40.35,0,77.49,13.2,104.79,40.49,66.34,66.35,49.38,190.88-37.88,278.14C316.23,418.78,252,445.79,194.23,445.79c-40.34,0-77.48-13.19-104.78-40.49C23.1,339,40.06,214.43,127.33,127.16,178.69,75.8,243,48.8,300.68,48.79m0-23.83h0c-66.64,0-136,31.11-190.21,85.35C64.61,156.18,35,213.2,27.17,270.86,19,331,35.12,384.68,72.6,422.15c31.05,31.06,73.11,47.48,121.63,47.48,66.64,0,136-31.11,190.21-85.35C480.86,287.86,497.85,148,422.32,72.43,391.26,41.37,349.2,25,300.69,25Z"/><path class="cls-2" d="M169.06,317c-16.73,0-30.68-5.11-40.34-14.77-28.88-28.89-13.53-93,33.53-140.09,30.24-30.25,67.54-48.3,99.76-48.3,16.73,0,30.67,5.1,40.33,14.76,28.89,28.89,13.53,93-33.53,140.1C238.57,298.89,201.28,317,169.06,317Z"/><path class="cls-3" d="M262,125.7h0c9.41,0,22.58,2,31.9,11.28,14.27,14.27,11.95,37.26,9.29,49.7-5.3,24.83-20.91,51.64-42.81,73.54C232.75,287.86,197.76,305,169.06,305c-9.41,0-22.59-2-31.91-11.28-14.27-14.27-11.94-37.26-9.29-49.7,5.31-24.83,20.91-51.64,42.82-73.54,27.63-27.64,62.63-44.8,91.33-44.81m0-23.83c-33.94,0-74.65,18.26-108.18,51.79-52.6,52.59-67.61,122.86-33.53,156.94,12.36,12.36,29.47,18.26,48.77,18.26,33.94,0,74.65-18.25,108.18-51.78,52.6-52.6,67.61-122.87,33.53-156.95-12.36-12.36-29.46-18.26-48.77-18.26Z"/><path class="cls-4" d="M269.71,334.11a11.91,11.91,0,0,1-6.91-21.63,220.86,220.86,0,0,0,28.13-23.78c40.5-40.5,62.22-93.34,56.7-137.9a11.92,11.92,0,0,1,23.65-2.93c6.41,51.69-17.92,112.11-63.5,157.68a242.83,242.83,0,0,1-31.19,26.36A11.82,11.82,0,0,1,269.71,334.11Z"/></svg>