<svg id="레이어_1" data-name="레이어 1" xmlns="http://www.w3.org/2000/svg" viewBox="0 0 580 900"><defs><style>.cls-1{fill:#750300;}.cls-11,.cls-2,.cls-22,.cls-23,.cls-24{fill:none;}.cls-20,.cls-3{fill:#ffc69f;}.cls-4{fill:#bc1313;}.cls-5{fill:#ea3636;}.cls-6{opacity:0.46;}.cls-7{opacity:0.05;}.cls-8{fill:#f32;}.cls-9{fill:#af0f08;}.cls-10{fill:#d31616;}.cls-11{stroke:#ff756e;stroke-width:4px;}.cls-11,.cls-20{stroke-linecap:round;}.cls-11,.cls-20,.cls-22,.cls-23,.cls-24{stroke-miterlimit:10;}.cls-12{opacity:0.2;}.cls-13{opacity:0.15;}.cls-14{opacity:0.25;}.cls-15{opacity:0.3;}.cls-16{opacity:0.35;}.cls-17{opacity:0.4;}.cls-18{opacity:0.45;}.cls-19{opacity:0.5;}.cls-20{stroke:#ea3636;stroke-width:15px;}.cls-21{fill:#ffdec5;}.cls-22,.cls-23,.cls-24{stroke:#fff;stroke-width:6px;}.cls-23{stroke-dasharray:6.35 12.71 6.35 12.71;}.cls-24{stroke-dasharray:6.35 12.71 6.35 12.71 6.35 12.71;}.cls-25{fill:#fff;}</style></defs><rect class="cls-1" width="580" height="900" rx="32"/><path d="M108.22,900H32A32,32,0,0,1,0,868V32A32,32,0,0,1,32,0h76.22Z"/><path d="M547.72,900H471.11V0h76.61a32,32,0,0,1,32,32V868A32,32,0,0,1,547.72,900Z"/><rect class="cls-2" width="580" height="900"/><path class="cls-3" d="M111.43,0H67.17V900h44.26ZM512.14,0H467.89V900h44.25Z"/><path class="cls-4" d="M79.88,795.06c5.5-47.4,5.6-86.67.34-131.28-3.84-32.5-3.43-63.89,1.32-104.95a445.3,445.3,0,0,0,3.07-51.94A514.14,514.14,0,0,0,81,447.35c-4.14-35.68-2.08-70.44.1-107.26,2.21-37.4,4.49-76.07-.21-116-4.75-40.5-2.86-75.22,2-121.49,3.78-35.9.91-69.81-2.37-102.63H52.59c3.35,33.26,6.33,64.83,2.85,97.8-5.21,49.51-7.2,86.93-1.93,131.7,4.21,35.87,2.15,70.83,0,107.85C51.28,374.53,49,413,53.59,452.66c4.25,36.73,4.43,67.83.61,100.86-5.14,44.22-5.54,79.89-1.32,115.65,4.81,40.87,4.71,76.93-.34,120.58C48,828.52,50.7,863.57,54.17,900H82C78.62,864.49,75.76,830.67,79.88,795.06Zm446.91-5.31c-5.07-43.65-5.17-79.71-.35-120.56,4.22-35.79,3.81-71.45-1.31-115.67-3.84-33-3.66-64.13.59-100.86,4.6-39.67,2.33-78.13.13-115.31-2.19-37-4.26-72,0-107.85,5.25-44.77,3.27-82.19-2-131.7-3.46-33-.49-64.54,2.87-97.8H498.85c-3.28,32.82-6.16,66.73-2.38,102.63,4.87,46.27,6.76,81,2,121.49-4.69,39.9-2.41,78.57-.2,116,2.17,36.82,4.23,71.58.1,107.26-4.67,40.4-4.86,74.79-.6,111.48,4.77,41.06,5.16,72.45,1.33,104.95-5.27,44.61-5.16,83.87.33,131.28,4.12,35.61,1.26,69.43-2.15,104.94h27.86C528.61,863.57,531.28,828.53,526.79,789.75Z"/><path class="cls-5" d="M122.54,858.62c.09-16-2.21-31.39-4.45-46.3-1.12-7.43-2.28-15.11-3.07-22.56-2.27-21.27.4-41.62,3.22-63.17,2.29-17.45,4.64-35.51,4.25-54.36-.35-16.49-2.3-32-4.17-47-2.85-22.8-5.54-44.35-2.68-67.83,4.62-38,7.73-70.24,2.19-109.11-5.07-35.6-2-63.87,2-99.66.34-3.12.68-6.28,1-9.5,2.59-24-.39-46.51-3.26-68.27-2.25-17-4.37-33.08-4-49.79.31-15.17,2.14-30.21,3.9-44.76,2-16.4,4-33.17,4-50.67A193.49,193.49,0,0,0,119.84,100c-.6-4.55-1.25-9.11-1.88-13.53-2.57-17.9-5-34.79-4.18-52.22.52-11.4,2-22.63,3.6-34.28h-15c-1.48,10.84-2.81,21.92-3.33,33.13-.92,19.77,1.78,38.63,4.41,56.86.62,4.34,1.26,8.85,1.84,13.25,3.17,23.94.45,46.35-2.44,70.07-1.83,15.17-3.73,30.83-4.07,47.24-.37,18.57,2,36.34,4.25,53.51,2.81,21.26,5.46,41.35,3.2,62.41-.36,3.2-.7,6.35-1,9.45-4,36-7.37,67.15-1.88,105.81,5.12,36,2.3,65.25-2.26,102.68-3.22,26.49-.21,50.58,2.7,73.86,1.8,14.39,3.65,29.26,4,44.49.36,17-1.78,33.33-4,50.64-2.89,22-5.86,44.79-3.29,69,.85,8,2,15.9,3.2,23.59,2.2,14.63,4.31,28.46,4.18,42.48-.09,13.68-1.85,27.32-3.91,41.55h15C120.79,886.46,122.45,872.6,122.54,858.62Zm349-.17c-.1-14,2-27.85,4.18-42.48,1.16-7.68,2.35-15.62,3.2-23.59,2.58-24.19-.41-47-3.29-69-2.26-17.31-4.4-33.67-4-50.64.32-15.23,2.18-30.1,4-44.49,2.9-23.3,5.92-47.37,2.69-73.86-4.54-37.43-7.37-66.69-2.26-102.68,5.51-38.67,2.09-69.79-1.87-105.82-.34-3.1-.69-6.24-1-9.44-2.28-21.06.39-41.15,3.2-62.41,2.27-17.17,4.61-34.92,4.24-53.51-.34-16.41-2.24-32.07-4.08-47.24-2.87-23.72-5.59-46.13-2.44-70.06.58-4.41,1.23-8.9,1.85-13.25,2.62-18.23,5.32-37.1,4.41-56.87-.52-11.21-1.85-22.29-3.35-33.13h-15c1.64,11.65,3.07,22.88,3.61,34.28.8,17.43-1.63,34.34-4.19,52.23-.63,4.41-1.29,9-1.89,13.52-3.56,27-.52,52,2.41,76.26,1.77,14.55,3.59,29.59,3.9,44.76.34,16.71-1.78,32.77-4,49.79-2.88,21.76-5.85,44.27-3.26,68.27q.52,4.81,1,9.49c3.93,35.79,7,64.07,2,99.67-5.53,38.89-2.43,71.07,2.2,109.11,2.84,23.48.15,45-2.7,67.83-1.87,15-3.8,30.53-4.15,47-.41,18.84,2,36.91,4.24,54.36,2.82,21.55,5.48,41.9,3.21,63.17-.79,7.45-1.94,15.13-3.06,22.56-2.24,14.92-4.51,30.33-4.45,46.3.09,14,1.74,27.84,3.65,41.38h15C473.38,885.77,471.62,872.13,471.53,858.45Z"/><g class="cls-6"><g class="cls-7"><path class="cls-8" d="M335.75,703.06c-10.67,0-21.8-5-30.55-13.76-15.42-15.42-18.27-37.66-6.36-49.57,4.83-4.83,11.41-7.39,19-7.39,10.67,0,21.81,5,30.55,13.76,7.4,7.4,12.17,16.57,13.43,25.83,1.29,9.46-1.22,17.89-7.07,23.74C349.94,700.5,343.36,703.06,335.75,703.06Z"/><path class="cls-9" d="M317.86,634.34c9.7,0,20.5,4.54,29.13,13.17,14.67,14.67,17.52,35.59,6.37,46.74-4.59,4.59-10.83,6.81-17.61,6.81-9.7,0-20.5-4.54-29.13-13.17-14.67-14.67-17.52-35.59-6.37-46.74,4.59-4.59,10.83-6.81,17.61-6.81m0-4h0c-8.15,0-15.22,2.76-20.44,8-12.69,12.69-9.83,36.2,6.37,52.4,9.11,9.11,20.76,14.34,32,14.34,8.15,0,15.22-2.76,20.44-8,6.29-6.29,9-15.32,7.63-25.42-1.32-9.69-6.29-19.27-14-27-9.11-9.11-20.76-14.34-32-14.34Z"/><path class="cls-9" d="M340,679.41c-5.42,0-11.68-3-16.77-8.12a27.69,27.69,0,0,1-7.73-13.36c-.92-4.29-.17-7.91,2.1-10.19a9.33,9.33,0,0,1,6.78-2.48c5.42,0,11.68,3,16.77,8.12,7.91,7.91,10.49,18.69,5.63,23.55A9.33,9.33,0,0,1,340,679.41Z"/><path class="cls-10" d="M324.36,647.26h0c4.83,0,10.71,2.89,15.35,7.53,7,7,9.66,16.7,5.64,20.72a7.54,7.54,0,0,1-5.37,1.9c-4.82,0-10.71-2.89-15.35-7.53a26.1,26.1,0,0,1-7.2-12.36c-.44-2.1-.84-6,1.56-8.36a7.54,7.54,0,0,1,5.37-1.9m0-4a11.25,11.25,0,0,0-8.19,3.07c-5.73,5.73-3.21,17.54,5.63,26.38,5.64,5.63,12.48,8.7,18.18,8.7a11.28,11.28,0,0,0,8.2-3.07c5.72-5.73,3.2-17.54-5.64-26.38-5.63-5.63-12.47-8.7-18.18-8.7Z"/><path class="cls-11" d="M343.27,686.52c-8.09,1-17.61-2.87-24.84-10.1a38.94,38.94,0,0,1-4.21-5"/></g><g class="cls-12"><path class="cls-8" d="M326.26,703.06c-10.67,0-21.81-5-30.55-13.76-15.42-15.42-18.28-37.66-6.36-49.57,4.83-4.83,11.41-7.39,19-7.39,10.67,0,21.8,5,30.55,13.76,7.4,7.4,12.17,16.57,13.43,25.83,1.29,9.46-1.22,17.89-7.07,23.74C340.45,700.5,333.87,703.06,326.26,703.06Z"/><path class="cls-9" d="M308.37,634.34c9.7,0,20.5,4.54,29.13,13.17,14.67,14.67,17.52,35.59,6.37,46.74-4.59,4.59-10.83,6.81-17.61,6.81-9.7,0-20.5-4.54-29.13-13.17-14.67-14.67-17.52-35.59-6.37-46.74,4.59-4.59,10.83-6.81,17.61-6.81m0-4h0c-8.15,0-15.22,2.76-20.44,8-12.69,12.69-9.83,36.2,6.37,52.4,9.11,9.11,20.76,14.34,32,14.34,8.15,0,15.22-2.76,20.44-8,12.69-12.69,9.83-36.2-6.37-52.4-9.11-9.11-20.76-14.34-32-14.34Z"/><path class="cls-9" d="M330.49,679.41c-5.42,0-11.69-3-16.77-8.12A27.79,27.79,0,0,1,306,657.93c-.91-4.29-.17-7.91,2.11-10.19a9.33,9.33,0,0,1,6.78-2.48c5.42,0,11.68,3,16.77,8.12,7.9,7.91,10.48,18.69,5.63,23.55A9.33,9.33,0,0,1,330.49,679.41Z"/><path class="cls-10" d="M314.87,647.26h0c4.82,0,10.71,2.89,15.35,7.53,7,7,9.65,16.7,5.64,20.72a7.54,7.54,0,0,1-5.37,1.9c-4.83,0-10.71-2.89-15.35-7.53a26.1,26.1,0,0,1-7.2-12.36c-.45-2.1-.84-6,1.56-8.36a7.54,7.54,0,0,1,5.37-1.9m0-4a11.28,11.28,0,0,0-8.2,3.07c-5.72,5.73-3.2,17.54,5.64,26.38,5.63,5.63,12.47,8.7,18.18,8.7a11.25,11.25,0,0,0,8.19-3.07c5.73-5.73,3.21-17.54-5.63-26.38-5.64-5.63-12.48-8.7-18.18-8.7Z"/><path class="cls-11" d="M333.78,686.52c-8.09,1-17.61-2.87-24.84-10.1a38.94,38.94,0,0,1-4.21-5"/></g><g class="cls-13"><path class="cls-8" d="M316.77,703.06c-10.68,0-21.81-5-30.55-13.76-15.42-15.42-18.28-37.66-6.37-49.57,4.84-4.83,11.42-7.39,19-7.39,10.67,0,21.8,5,30.54,13.76,7.4,7.4,12.17,16.57,13.43,25.83,1.29,9.46-1.22,17.89-7.06,23.74C331,700.5,324.38,703.06,316.77,703.06Z"/><path class="cls-9" d="M298.88,634.34c9.7,0,20.5,4.54,29.13,13.17,14.67,14.67,17.52,35.59,6.37,46.74-4.59,4.59-10.83,6.81-17.61,6.81-9.7,0-20.5-4.54-29.14-13.17-14.66-14.67-17.51-35.59-6.36-46.74,4.58-4.59,10.83-6.81,17.61-6.81m0-4h0c-8.16,0-15.22,2.76-20.44,8-12.69,12.69-9.84,36.2,6.37,52.4,9.11,9.11,20.76,14.34,32,14.34,8.15,0,15.22-2.76,20.43-8,6.3-6.29,9-15.32,7.64-25.42-1.32-9.69-6.29-19.27-14-27-9.12-9.11-20.77-14.34-32-14.34Z"/><path class="cls-9" d="M321,679.41c-5.42,0-11.69-3-16.77-8.12a27.71,27.71,0,0,1-7.74-13.36c-.92-4.29-.17-7.91,2.11-10.19a9.33,9.33,0,0,1,6.78-2.48c5.41,0,11.68,3,16.76,8.12,7.91,7.91,10.49,18.69,5.64,23.55A9.35,9.35,0,0,1,321,679.41Z"/><path class="cls-10" d="M305.38,647.26h0c4.82,0,10.7,2.89,15.35,7.53,7,7,9.65,16.7,5.63,20.72a7.5,7.5,0,0,1-5.36,1.9c-4.83,0-10.71-2.89-15.36-7.53-7-7-9.65-16.7-5.63-20.72a7.52,7.52,0,0,1,5.37-1.9m0-4a11.27,11.27,0,0,0-8.2,3.07c-5.73,5.73-3.2,17.54,5.64,26.38,5.63,5.63,12.47,8.7,18.18,8.7a11.25,11.25,0,0,0,8.19-3.07c5.73-5.73,3.21-17.54-5.63-26.38-5.64-5.63-12.48-8.7-18.18-8.7Z"/><path class="cls-11" d="M324.28,686.52c-8.08,1-17.6-2.87-24.83-10.1a39,39,0,0,1-4.22-5"/></g><g class="cls-12"><path class="cls-8" d="M307.27,703.06c-10.67,0-21.8-5-30.54-13.76-15.42-15.42-18.28-37.66-6.37-49.57,4.84-4.83,11.42-7.39,19-7.39,10.67,0,21.8,5,30.54,13.76,7.4,7.4,12.17,16.57,13.43,25.83,1.29,9.46-1.22,17.89-7.06,23.74C321.46,700.5,314.88,703.06,307.27,703.06Z"/><path class="cls-9" d="M289.39,634.34c9.7,0,20.5,4.54,29.13,13.17,14.66,14.67,17.51,35.59,6.36,46.74-4.58,4.59-10.83,6.81-17.61,6.81-9.7,0-20.5-4.54-29.13-13.17-14.66-14.67-17.51-35.59-6.36-46.74,4.58-4.59,10.83-6.81,17.61-6.81m0-4h0c-8.15,0-15.22,2.76-20.43,8-12.69,12.69-9.84,36.2,6.36,52.4,9.12,9.11,20.77,14.34,32,14.34,8.16,0,15.22-2.76,20.44-8,6.3-6.29,9-15.32,7.63-25.42-1.31-9.69-6.29-19.27-14-27-9.12-9.11-20.77-14.34-32-14.34Z"/><path class="cls-9" d="M311.5,679.41c-5.41,0-11.68-3-16.76-8.12A27.71,27.71,0,0,1,287,657.93c-.92-4.29-.17-7.91,2.1-10.19a9.35,9.35,0,0,1,6.78-2.48c5.42,0,11.69,3,16.77,8.12a27.63,27.63,0,0,1,7.74,13.36c.92,4.29.17,7.91-2.1,10.19A9.36,9.36,0,0,1,311.5,679.41Z"/><path class="cls-10" d="M295.89,647.26h0c4.82,0,10.7,2.89,15.35,7.53,7,7,9.65,16.7,5.63,20.72a7.52,7.52,0,0,1-5.37,1.9c-4.82,0-10.7-2.89-15.35-7.53-7-7-9.65-16.7-5.63-20.72a7.52,7.52,0,0,1,5.37-1.9m0-4a11.27,11.27,0,0,0-8.2,3.07c-5.73,5.73-3.21,17.54,5.63,26.38,5.64,5.63,12.48,8.7,18.18,8.7a11.27,11.27,0,0,0,8.2-3.07c5.73-5.73,3.2-17.54-5.63-26.38-5.64-5.63-12.48-8.7-18.18-8.7Z"/><path class="cls-11" d="M314.79,686.52c-8.09,1-17.6-2.87-24.83-10.1a39,39,0,0,1-4.22-5"/></g><g class="cls-14"><path class="cls-8" d="M297.78,703.06c-10.67,0-21.8-5-30.54-13.76-7.41-7.4-12.17-16.57-13.44-25.83-1.28-9.46,1.23-17.89,7.07-23.74,4.84-4.83,11.41-7.39,19-7.39,10.67,0,21.81,5,30.55,13.76,7.4,7.4,12.17,16.57,13.43,25.83,1.29,9.46-1.22,17.89-7.06,23.74C312,700.5,305.39,703.06,297.78,703.06Z"/><path class="cls-9" d="M279.89,634.34c9.7,0,20.5,4.54,29.14,13.17,14.66,14.67,17.51,35.59,6.36,46.74-4.59,4.59-10.83,6.81-17.61,6.81-9.7,0-20.5-4.54-29.13-13.17-14.67-14.67-17.52-35.59-6.37-46.74,4.59-4.59,10.83-6.81,17.61-6.81m0-4h0c-8.15,0-15.22,2.76-20.43,8-12.7,12.69-9.84,36.2,6.36,52.4,9.12,9.11,20.76,14.34,32,14.34,8.15,0,15.22-2.76,20.44-8,6.3-6.29,9-15.32,7.63-25.42-1.32-9.69-6.29-19.27-14-27-9.11-9.11-20.76-14.34-32-14.34Z"/><path class="cls-9" d="M302,679.41c-5.41,0-11.68-3-16.76-8.12a27.63,27.63,0,0,1-7.74-13.36c-.92-4.29-.17-7.91,2.1-10.19a9.35,9.35,0,0,1,6.78-2.48c5.42,0,11.69,3,16.77,8.12a27.71,27.71,0,0,1,7.74,13.36c.92,4.29.17,7.91-2.11,10.19A9.32,9.32,0,0,1,302,679.41Z"/><path class="cls-10" d="M286.39,647.26h0c4.83,0,10.71,2.89,15.35,7.53,7,7,9.66,16.7,5.64,20.72a7.52,7.52,0,0,1-5.37,1.9c-4.82,0-10.7-2.89-15.35-7.53a26.18,26.18,0,0,1-7.2-12.36c-.44-2.1-.83-6,1.57-8.36a7.5,7.5,0,0,1,5.36-1.9m0-4a11.25,11.25,0,0,0-8.19,3.07c-5.73,5.73-3.21,17.54,5.63,26.38,5.64,5.63,12.48,8.7,18.18,8.7a11.27,11.27,0,0,0,8.2-3.07c5.73-5.73,3.2-17.54-5.64-26.38-5.63-5.63-12.47-8.7-18.18-8.7Z"/><path class="cls-11" d="M305.3,686.52c-8.09,1-17.6-2.87-24.84-10.1a38.94,38.94,0,0,1-4.21-5"/></g><g class="cls-15"><path class="cls-8" d="M288.29,703.06c-10.67,0-21.8-5-30.55-13.76-7.4-7.4-12.17-16.57-13.43-25.83-1.29-9.46,1.22-17.89,7.07-23.74,4.83-4.83,11.41-7.39,19-7.39,10.67,0,21.81,5,30.55,13.76,7.4,7.4,12.17,16.57,13.43,25.83,1.29,9.46-1.22,17.89-7.07,23.74C302.48,700.5,295.9,703.06,288.29,703.06Z"/><path class="cls-9" d="M270.4,634.34c9.7,0,20.5,4.54,29.13,13.17,14.67,14.67,17.52,35.59,6.37,46.74-4.59,4.59-10.83,6.81-17.61,6.81-9.7,0-20.5-4.54-29.13-13.17-14.67-14.67-17.52-35.59-6.37-46.74,4.59-4.59,10.83-6.81,17.61-6.81m0-4h0c-8.15,0-15.22,2.76-20.44,8-12.69,12.69-9.83,36.2,6.37,52.4,9.11,9.11,20.76,14.34,32,14.34,8.15,0,15.22-2.76,20.44-8,12.69-12.69,9.83-36.19-6.37-52.4-9.11-9.11-20.76-14.34-32-14.34Z"/><path class="cls-9" d="M292.52,679.41c-5.42,0-11.68-3-16.77-8.12A27.69,27.69,0,0,1,268,657.93c-.92-4.29-.17-7.91,2.1-10.19a9.33,9.33,0,0,1,6.78-2.48c5.42,0,11.68,3,16.77,8.12a27.79,27.79,0,0,1,7.74,13.36c.91,4.29.17,7.91-2.11,10.19A9.33,9.33,0,0,1,292.52,679.41Z"/><path class="cls-10" d="M276.9,647.26h0c4.83,0,10.71,2.89,15.35,7.53,7,7,9.66,16.7,5.64,20.72a7.54,7.54,0,0,1-5.37,1.9c-4.82,0-10.71-2.89-15.35-7.53a26.1,26.1,0,0,1-7.2-12.36c-.44-2.1-.84-6,1.56-8.36a7.54,7.54,0,0,1,5.37-1.9m0-4a11.25,11.25,0,0,0-8.19,3.07c-5.73,5.73-3.21,17.54,5.63,26.38,5.64,5.63,12.48,8.7,18.18,8.7a11.28,11.28,0,0,0,8.2-3.07c5.72-5.73,3.2-17.54-5.64-26.38-5.63-5.63-12.48-8.7-18.18-8.7Z"/><path class="cls-11" d="M295.81,686.52c-8.09,1-17.61-2.87-24.84-10.1a38.94,38.94,0,0,1-4.21-5"/></g><g class="cls-16"><path class="cls-8" d="M278.8,703.06c-10.67,0-21.81-5-30.55-13.76-15.42-15.42-18.28-37.66-6.36-49.57,4.83-4.83,11.41-7.39,19-7.39,10.67,0,21.8,5,30.55,13.76,7.4,7.4,12.17,16.57,13.43,25.83,1.28,9.46-1.22,17.89-7.07,23.74C293,700.5,286.41,703.06,278.8,703.06Z"/><path class="cls-9" d="M260.91,634.34c9.7,0,20.5,4.54,29.13,13.17,14.67,14.67,17.52,35.59,6.37,46.74-4.59,4.59-10.83,6.81-17.61,6.81-9.7,0-20.5-4.54-29.13-13.17-14.67-14.67-17.52-35.59-6.37-46.74,4.59-4.59,10.83-6.81,17.61-6.81m0-4h0c-8.15,0-15.22,2.76-20.44,8-12.69,12.69-9.83,36.2,6.37,52.4,9.11,9.11,20.76,14.34,32,14.34,8.15,0,15.22-2.76,20.44-8,12.69-12.69,9.83-36.19-6.37-52.4-9.11-9.11-20.76-14.34-32-14.34Z"/><path class="cls-9" d="M283,679.41c-5.42,0-11.69-3-16.77-8.12a27.79,27.79,0,0,1-7.74-13.36c-.91-4.29-.17-7.91,2.11-10.19a9.33,9.33,0,0,1,6.78-2.48c5.42,0,11.68,3,16.77,8.12,7.9,7.91,10.48,18.69,5.63,23.55A9.33,9.33,0,0,1,283,679.41Z"/><path class="cls-10" d="M267.41,647.26h0c4.82,0,10.71,2.89,15.35,7.53,7,7,9.65,16.7,5.64,20.72a7.54,7.54,0,0,1-5.37,1.9c-4.83,0-10.71-2.89-15.35-7.53a26,26,0,0,1-7.2-12.36c-.45-2.1-.84-6,1.56-8.36a7.54,7.54,0,0,1,5.37-1.9m0-4a11.28,11.28,0,0,0-8.2,3.07c-5.72,5.73-3.2,17.54,5.64,26.38,5.63,5.63,12.47,8.7,18.18,8.7a11.25,11.25,0,0,0,8.19-3.07c5.73-5.73,3.21-17.54-5.63-26.38-5.64-5.63-12.48-8.7-18.18-8.7Z"/><path class="cls-11" d="M286.32,686.52c-8.09,1-17.61-2.87-24.84-10.1a38.94,38.94,0,0,1-4.21-5"/></g><g class="cls-17"><path class="cls-8" d="M269.31,703.06c-10.68,0-21.81-5-30.55-13.76-15.42-15.42-18.28-37.66-6.37-49.57,4.84-4.83,11.42-7.39,19-7.39,10.67,0,21.8,5,30.54,13.76,7.4,7.4,12.17,16.57,13.43,25.83,1.29,9.46-1.22,17.89-7.06,23.74C283.49,700.5,276.92,703.06,269.31,703.06Z"/><path class="cls-9" d="M251.42,634.34c9.7,0,20.5,4.54,29.13,13.17,14.66,14.67,17.51,35.59,6.37,46.74-4.59,4.59-10.83,6.81-17.61,6.81-9.7,0-20.5-4.54-29.14-13.17-14.66-14.67-17.51-35.59-6.36-46.74,4.58-4.59,10.83-6.81,17.61-6.81m0-4h0c-8.16,0-15.22,2.76-20.44,8-12.69,12.69-9.84,36.2,6.36,52.4,9.12,9.11,20.77,14.34,32,14.34,8.15,0,15.22-2.76,20.43-8,6.3-6.29,9-15.32,7.64-25.42-1.32-9.69-6.29-19.27-14-27-9.12-9.11-20.77-14.34-32-14.34Z"/><path class="cls-9" d="M273.54,679.41c-5.42,0-11.69-3-16.77-8.12A27.71,27.71,0,0,1,249,657.93c-.92-4.29-.17-7.91,2.11-10.19a9.33,9.33,0,0,1,6.78-2.48c5.41,0,11.68,3,16.76,8.12,7.91,7.91,10.49,18.69,5.64,23.55A9.35,9.35,0,0,1,273.54,679.41Z"/><path class="cls-10" d="M257.92,647.26h0c4.82,0,10.7,2.89,15.35,7.53,7,7,9.65,16.7,5.63,20.72a7.5,7.5,0,0,1-5.36,1.9c-4.83,0-10.71-2.89-15.36-7.53A26.07,26.07,0,0,1,251,657.52c-.45-2.1-.84-6,1.56-8.36a7.52,7.52,0,0,1,5.37-1.9m0-4a11.27,11.27,0,0,0-8.2,3.07c-5.73,5.73-3.2,17.54,5.64,26.38,5.63,5.63,12.47,8.7,18.18,8.7a11.25,11.25,0,0,0,8.19-3.07c5.73-5.73,3.21-17.54-5.63-26.38-5.64-5.63-12.48-8.7-18.18-8.7Z"/><path class="cls-11" d="M276.82,686.52c-8.08,1-17.6-2.87-24.83-10.1a39,39,0,0,1-4.22-5"/></g><g class="cls-18"><path class="cls-8" d="M259.81,703.06c-10.67,0-21.8-5-30.54-13.76-15.42-15.42-18.28-37.66-6.37-49.57,4.84-4.83,11.41-7.39,19-7.39,10.68,0,21.81,5,30.55,13.76,7.4,7.4,12.17,16.57,13.43,25.83,1.29,9.46-1.22,17.89-7.06,23.74C274,700.5,267.42,703.06,259.81,703.06Z"/><path class="cls-9" d="M241.92,634.34c9.71,0,20.51,4.54,29.14,13.17,14.66,14.67,17.51,35.59,6.36,46.74-4.58,4.59-10.83,6.81-17.61,6.81-9.7,0-20.5-4.54-29.13-13.17-14.66-14.67-17.51-35.59-6.36-46.74,4.58-4.59,10.83-6.81,17.6-6.81m0-4h0c-8.15,0-15.22,2.76-20.43,8-12.69,12.69-9.84,36.2,6.36,52.4,9.12,9.11,20.77,14.34,32,14.34,8.16,0,15.22-2.76,20.44-8,6.3-6.29,9-15.32,7.63-25.42-1.32-9.69-6.29-19.27-14-27-9.12-9.11-20.77-14.34-32-14.34Z"/><path class="cls-9" d="M264,679.41c-5.41,0-11.68-3-16.76-8.12a27.63,27.63,0,0,1-7.74-13.36c-.92-4.29-.17-7.91,2.1-10.19a9.35,9.35,0,0,1,6.78-2.48c5.42,0,11.69,3,16.77,8.12,7.91,7.91,10.49,18.69,5.64,23.55A9.36,9.36,0,0,1,264,679.41Z"/><path class="cls-10" d="M248.43,647.26h0c4.82,0,10.7,2.89,15.35,7.53A26.07,26.07,0,0,1,271,667.15c.45,2.1.84,6-1.56,8.36a7.52,7.52,0,0,1-5.37,1.9c-4.82,0-10.7-2.89-15.35-7.53a26.07,26.07,0,0,1-7.19-12.36c-.45-2.1-.84-6,1.56-8.36a7.52,7.52,0,0,1,5.37-1.9m0-4a11.26,11.26,0,0,0-8.19,3.07c-5.73,5.73-3.21,17.54,5.63,26.38,5.64,5.63,12.48,8.7,18.18,8.7a11.27,11.27,0,0,0,8.2-3.07c5.73-5.73,3.2-17.54-5.63-26.38-5.64-5.63-12.48-8.7-18.19-8.7Z"/><path class="cls-11" d="M267.33,686.52c-8.09,1-17.6-2.87-24.84-10.1a39.77,39.77,0,0,1-4.21-5"/></g><g class="cls-19"><path class="cls-8" d="M250.32,703.06c-10.67,0-21.8-5-30.54-13.76-15.43-15.42-18.28-37.66-6.37-49.57,4.83-4.83,11.41-7.39,19-7.39,10.67,0,21.81,5,30.55,13.76,7.4,7.4,12.17,16.57,13.43,25.83,1.29,9.46-1.22,17.89-7.06,23.74C264.51,700.5,257.93,703.06,250.32,703.06Z"/><path class="cls-9" d="M232.43,634.34c9.7,0,20.5,4.54,29.14,13.17,14.66,14.67,17.51,35.59,6.36,46.74-4.59,4.59-10.83,6.81-17.61,6.81-9.7,0-20.5-4.54-29.13-13.17-14.67-14.67-17.52-35.59-6.37-46.74,4.59-4.59,10.83-6.81,17.61-6.81m0-4h0c-8.15,0-15.22,2.76-20.43,8-12.7,12.69-9.84,36.2,6.36,52.4,9.12,9.11,20.76,14.34,32,14.34,8.15,0,15.22-2.76,20.44-8,12.69-12.69,9.84-36.2-6.37-52.4-9.11-9.11-20.76-14.34-32-14.34Z"/><path class="cls-9" d="M254.55,679.41c-5.41,0-11.68-3-16.76-8.12a27.63,27.63,0,0,1-7.74-13.36c-.92-4.29-.17-7.91,2.1-10.19a9.35,9.35,0,0,1,6.78-2.48c5.42,0,11.69,3,16.77,8.12a27.71,27.71,0,0,1,7.74,13.36c.92,4.29.17,7.91-2.11,10.19A9.32,9.32,0,0,1,254.55,679.41Z"/><path class="cls-10" d="M238.93,647.26h0c4.83,0,10.71,2.89,15.35,7.53,7,7,9.66,16.7,5.64,20.72a7.52,7.52,0,0,1-5.37,1.9c-4.82,0-10.7-2.89-15.35-7.53a26.18,26.18,0,0,1-7.2-12.36c-.44-2.1-.83-6,1.57-8.36a7.5,7.5,0,0,1,5.36-1.9m0-4a11.25,11.25,0,0,0-8.19,3.07c-5.73,5.73-3.21,17.54,5.63,26.38,5.64,5.63,12.48,8.7,18.18,8.7a11.27,11.27,0,0,0,8.2-3.07c5.73-5.73,3.2-17.54-5.64-26.38-5.63-5.63-12.47-8.7-18.18-8.7Z"/><path class="cls-11" d="M257.84,686.52c-8.09,1-17.6-2.87-24.84-10.1a38.94,38.94,0,0,1-4.21-5"/></g></g><path class="cls-8" d="M240.83,703.06c-10.67,0-21.8-5-30.55-13.76-15.42-15.42-18.27-37.66-6.36-49.57,4.83-4.83,11.41-7.39,19-7.39,10.67,0,21.81,5,30.55,13.76,7.4,7.4,12.17,16.57,13.43,25.83,1.29,9.46-1.22,17.89-7.07,23.74C255,700.5,248.44,703.06,240.83,703.06Z"/><path class="cls-9" d="M222.94,634.34c9.7,0,20.5,4.54,29.13,13.17,14.67,14.67,17.52,35.59,6.37,46.74-4.59,4.59-10.83,6.81-17.61,6.81-9.7,0-20.5-4.54-29.13-13.17-14.67-14.67-17.52-35.59-6.37-46.74,4.59-4.59,10.83-6.81,17.61-6.81m0-4h0c-8.15,0-15.22,2.76-20.44,8-12.69,12.69-9.83,36.2,6.37,52.4,9.11,9.11,20.76,14.34,32,14.34,8.15,0,15.22-2.76,20.44-8,6.29-6.29,9-15.32,7.63-25.42-1.32-9.69-6.29-19.27-14-27-9.11-9.11-20.76-14.34-32-14.34Z"/><path class="cls-9" d="M245.06,679.41c-5.42,0-11.68-3-16.77-8.12a27.69,27.69,0,0,1-7.73-13.36c-.92-4.29-.17-7.91,2.1-10.19a9.33,9.33,0,0,1,6.78-2.48c5.42,0,11.68,3,16.77,8.12A27.79,27.79,0,0,1,254,666.74c.91,4.29.17,7.91-2.11,10.19A9.33,9.33,0,0,1,245.06,679.41Z"/><path class="cls-10" d="M229.44,647.26h0c4.82,0,10.71,2.89,15.35,7.53,7,7,9.66,16.7,5.64,20.72a7.54,7.54,0,0,1-5.37,1.9c-4.82,0-10.71-2.89-15.35-7.53a26.1,26.1,0,0,1-7.2-12.36c-.44-2.1-.84-6,1.56-8.36a7.54,7.54,0,0,1,5.37-1.9m0-4a11.25,11.25,0,0,0-8.19,3.07c-5.73,5.73-3.21,17.54,5.63,26.38,5.64,5.63,12.48,8.7,18.18,8.7a11.28,11.28,0,0,0,8.2-3.07c5.72-5.73,3.2-17.54-5.64-26.38-5.63-5.63-12.48-8.7-18.18-8.7Z"/><path class="cls-11" d="M248.35,686.52c-8.09,1-17.61-2.87-24.84-10.1a38.94,38.94,0,0,1-4.21-5"/><path class="cls-3" d="M468.19,634.5c-12.14-101-150.88-171.77-150.88-273.17S456.05,189.16,468.19,88.15l24.26,5V630.5Z"/><path class="cls-20" d="M467.14,633.69c-12.13-101-149.83-171-149.83-272.36S456.05,189.16,468.19,88.15"/><circle class="cls-21" cx="476.31" cy="139.29" r="11.99"/><circle class="cls-21" cx="452.34" cy="205.4" r="11.99"/><circle class="cls-21" cx="424.76" cy="217.39" r="11.99"/><circle class="cls-21" cx="459.02" cy="175.57" r="11.99"/><circle class="cls-21" cx="402.87" cy="241.93" r="11.99"/><circle class="cls-21" cx="431.9" cy="253.52" r="11.99"/><circle class="cls-21" cx="404.88" cy="309.68" r="11.99"/><circle class="cls-21" cx="414.85" cy="338.97" r="11.99"/><circle class="cls-21" cx="395.49" cy="372.91" r="11.99"/><circle class="cls-21" cx="431.92" cy="403.47" r="11.99"/><circle class="cls-21" cx="389.27" cy="406.3" r="11.99"/><circle class="cls-21" cx="403.95" cy="432.49" r="11.99"/><circle class="cls-21" cx="354.4" cy="415.46" r="11.99"/><circle class="cls-21" cx="471.11" cy="291.03" r="11.99"/><circle class="cls-21" cx="456.78" cy="465.47" r="11.99"/><circle class="cls-21" cx="427.92" cy="373.68" r="11.99"/><circle class="cls-21" cx="371.52" cy="354.42" r="11.99"/><circle class="cls-21" cx="374.52" cy="432.49" r="11.99"/><circle class="cls-21" cx="431.92" cy="439.43" r="11.99"/><circle class="cls-21" cx="418.07" cy="496.82" r="11.99"/><circle class="cls-21" cx="443.89" cy="493.79" r="11.99"/><circle class="cls-21" cx="467.89" cy="363.54" r="11.99"/><circle class="cls-21" cx="444.79" cy="321.66" r="11.99"/><circle class="cls-21" cx="418.07" cy="282.57" r="11.99"/><circle class="cls-21" cx="358.61" cy="387.61" r="11.99"/><circle class="cls-21" cx="383.51" cy="456.46" r="11.99"/><circle class="cls-21" cx="443.89" cy="528.42" r="11.99"/><circle class="cls-21" cx="406.09" cy="473.97" r="11.99"/><circle class="cls-21" cx="473.86" cy="567.03" r="11.99"/><circle class="cls-21" cx="464.33" cy="420.5" r="11.99"/><circle class="cls-21" cx="468.76" cy="246.62" r="11.99"/><circle class="cls-21" cx="380.02" cy="274.59" r="11.99"/><circle class="cls-21" cx="377.99" cy="323.69" r="11.99"/><circle class="cls-21" cx="365.99" cy="297.69" r="11.99"/><circle class="cls-21" cx="351.99" cy="332.69" r="11.99"/><circle class="cls-21" cx="344.99" cy="361.69" r="11.99"/><line class="cls-22" x1="147.19" y1="595.45" x2="150.19" y2="595.45"/><line class="cls-23" x1="162.9" y1="595.45" x2="194.68" y2="595.45"/><line class="cls-24" x1="201.03" y1="595.45" x2="423.45" y2="595.45"/><line class="cls-22" x1="429.81" y1="595.45" x2="432.81" y2="595.45"/><polygon class="cls-25" points="162.3 614.1 165.41 610.76 148.94 595.45 165.41 580.14 162.3 576.8 142.25 595.45 162.3 614.1"/><polygon class="cls-25" points="417.7 614.1 414.59 610.76 431.06 595.45 414.59 580.14 417.7 576.8 437.75 595.45 417.7 614.1"/></svg>