<?xml version="1.0" encoding="utf-8"?>
<!-- Generator: Adobe Illustrator 26.1.0, SVG Export Plug-In . SVG Version: 6.00 Build 0)  -->
<svg version="1.1" id="레이어_1" xmlns="http://www.w3.org/2000/svg" xmlns:xlink="http://www.w3.org/1999/xlink" x="0px"
	 y="0px" viewBox="0 0 600 920" style="enable-background:new 0 0 600 920;" xml:space="preserve">
<style type="text/css">
	.st0{fill:#750300;}
	.st1{fill:none;}
	.st2{fill:#FFC69F;}
	.st3{fill:#BC1313;}
	.st4{fill:#EA3636;}
</style>
<rect x="109.4" y="-195" class="st0" width="381.1" height="1136.8"/>
<rect x="109.4" y="-195" class="st1" width="381.1" height="1136.8"/>
<rect width="118.2" height="920"/>
<rect x="481.1" width="118.6" height="920"/>
<rect class="st1" width="600" height="920"/>
<path class="st2" d="M121.4,0H77.2v920h44.3L121.4,0z M522.1,0h-44.2v920h44.2V0z"/>
<path class="st3" d="M89.9,805.1c5.5-47.4,5.6-86.7,0.3-131.3c-3.8-32.5-3.4-63.9,1.3-105c2-17.2,3.1-34.6,3.1-51.9
	c-0.1-19.9-1.3-39.8-3.6-59.5c-4.1-35.7-2.1-70.4,0.1-107.3c2.2-37.4,4.5-76.1-0.2-116c-4.8-40.5-2.9-75.2,2-121.5
	C96.7,76.7,93.8,32.8,90.5,0H62.6c3.4,33.3,6.3,74.8,2.9,107.8c-5.2,49.5-7.2,86.9-1.9,131.7c4.2,35.9,2.2,70.8,0,107.9
	c-2.2,37.2-4.5,75.7,0.1,115.3c4.2,36.7,4.4,67.8,0.6,100.9c-5.1,44.2-5.5,79.9-1.3,115.7c4.8,40.9,4.7,76.9-0.3,120.6
	c-4.5,38.8-3.4,83.8,0,120.2h27.9C87.1,884.5,85.8,840.7,89.9,805.1z M536.8,799.8c-5.1-43.7-5.2-79.7-0.3-120.6
	c4.2-35.8,3.8-71.4-1.3-115.7c-3.8-33-3.7-64.1,0.6-100.9c4.6-39.7,2.3-78.1,0.1-115.3c-2.2-37-4.3-72,0-107.9
	c5.2-44.8,3.3-82.2-2-131.7c-3.5-33-0.5-74.5,2.9-107.8h-27.9c-3.3,32.8-6.2,76.7-2.4,112.6c4.9,46.3,6.8,81,2,121.5
	c-4.7,39.9-2.4,78.6-0.2,116c2.2,36.8,4.2,71.6,0.1,107.3c-4.7,40.4-4.9,74.8-0.6,111.5c4.8,41.1,5.2,72.4,1.3,104.9
	c-5.3,44.6-5.2,83.9,0.3,131.3c4.1,35.6,2.8,79.4-0.6,114.9h27.9C540.2,883.6,541.3,838.5,536.8,799.8z"/>
<path class="st4" d="M132.5,868.7c0.1-16-2.2-31.4-4.4-46.3c-1.1-7.4-2.3-15.1-3.1-22.6c-2.3-21.3,0.4-41.6,3.2-63.2
	c2.3-17.5,4.6-35.5,4.2-54.4c-0.4-16.5-2.3-32-4.2-47c-2.8-22.8-5.5-44.3-2.7-67.8c4.6-38,7.7-70.2,2.2-109.1
	c-5.1-35.6-2-63.9,2-99.7c0.3-3.1,0.7-6.3,1-9.5c2.6-24-0.4-46.5-3.3-68.3c-2.2-17-4.4-33.1-4-49.8c0.3-15.2,2.1-30.2,3.9-44.8
	c2-16.4,4-33.2,4-50.7c0-8.6-0.5-17.1-1.6-25.6c-0.6-4.6-1.2-9.1-1.9-13.5c-2.6-17.9-5-34.8-4.2-52.2c0.5-11.4,2-32.6,3.6-44.3h-15
	c-1.5,10.8-2.8,31.9-3.3,43.1c-0.9,19.8,1.8,38.6,4.4,56.9c0.6,4.3,1.3,8.8,1.8,13.2c3.2,23.9,0.4,46.3-2.4,70.1
	c-1.8,15.2-3.7,30.8-4.1,47.2c-0.4,18.6,2,36.3,4.2,53.5c2.8,21.3,5.5,41.4,3.2,62.4c-0.4,3.2-0.7,6.4-1,9.5
	c-4,36-7.4,67.1-1.9,105.8c5.1,36,2.3,65.2-2.3,102.7c-3.2,26.5-0.2,50.6,2.7,73.9c1.8,14.4,3.7,29.3,4,44.5c0.4,17-1.8,33.3-4,50.6
	c-2.9,22-5.9,44.8-3.3,69c0.8,8,2,15.9,3.2,23.6c2.2,14.6,4.3,28.5,4.2,42.5c-0.1,13.7-3.3,37.3-5.4,51.6h15
	C129.3,906.5,132.4,882.6,132.5,868.7z M481.5,868.5c-0.1-14,2-27.8,4.2-42.5c1.2-7.7,2.4-15.6,3.2-23.6c2.6-24.2-0.4-47-3.3-69
	c-2.3-17.3-4.4-33.7-4-50.6c0.3-15.2,2.2-30.1,4-44.5c2.9-23.3,5.9-47.4,2.7-73.9c-4.5-37.4-7.4-66.7-2.3-102.7
	c5.5-38.7,2.1-69.8-1.9-105.8c-0.3-3.1-0.7-6.2-1-9.4c-2.3-21.1,0.4-41.1,3.2-62.4c2.3-17.2,4.6-34.9,4.2-53.5
	c-0.3-16.4-2.2-32.1-4.1-47.2c-2.9-23.7-5.6-46.1-2.4-70.1c0.6-4.4,1.2-8.9,1.9-13.2c2.6-18.2,5.3-37.1,4.4-56.9
	c-0.5-11.2-1.9-32.3-3.4-43.1h-15c1.6,11.6,3.1,32.9,3.6,44.3c0.8,17.4-1.6,34.3-4.2,52.2c-0.6,4.4-1.3,9-1.9,13.5
	c-3.6,27-0.5,52,2.4,76.3c1.8,14.6,3.6,29.6,3.9,44.8c0.3,16.7-1.8,32.8-4,49.8c-2.9,21.8-5.9,44.3-3.3,68.3c0.3,3.2,0.7,6.4,1,9.5
	c3.9,35.8,7,64.1,2,99.7c-5.5,38.9-2.4,71.1,2.2,109.1c2.8,23.5,0.1,45-2.7,67.8c-1.9,15-3.8,30.5-4.1,47c-0.4,18.8,2,36.9,4.2,54.4
	c2.8,21.6,5.5,41.9,3.2,63.2c-0.8,7.4-1.9,15.1-3.1,22.6c-2.2,14.9-4.5,30.3-4.5,46.3c0.1,14,3.2,37.8,5.2,51.4h15
	C484.9,905.8,481.6,882.2,481.5,868.5L481.5,868.5z"/>
</svg>
