<?xml version="1.0" encoding="UTF-8"?><svg id="_레이어_1" xmlns="http://www.w3.org/2000/svg" viewBox="0 0 830 2835"><defs><style>.cls-1{fill:#f8f4f0;}.cls-2{fill:#fff;}.cls-3{fill:#e6b197;}.cls-4{fill:#95d99a;}.cls-5{fill:#6e97ec;}.cls-6,.cls-7{stroke:#020000;stroke-width:2px;}.cls-6,.cls-7,.cls-8,.cls-9,.cls-10{stroke-miterlimit:10;}.cls-6,.cls-8,.cls-9,.cls-10{fill:none;}.cls-8{stroke:#95d99a;}.cls-9{stroke:#e6b197;}.cls-10{stroke:#6e97ec;}</style></defs><rect id="_사각형_496" class="cls-1" width="830" height="2835"/><rect id="_사각형_496-2" class="cls-1" x="-.83" y="2833" width="10892" height="1156"/><g id="_그룹_212"><rect id="_사각형_625" class="cls-4" x="-.28" y="881.94" width="140.52" height="99.79"/><g id="_그룹_715"><path id="_패스_31" class="cls-4" d="M832.17,881.8v53.85c0-27.8-162.68-50.68-371.47-53.54,.28-.1,.56-.2,.83-.3h370.64Z"/><path id="_패스_32" class="cls-4" d="M832.17,927.74v53.85H416.65c229.49,0,415.52-24.11,415.52-53.85Z"/></g><g id="_그룹_194"><line id="_선_5" class="cls-8" x1="-.28" y1="881.94" x2="832.17" y2="881.94"/><line id="_선_7" class="cls-8" x1="-.28" y1="886.94" x2="832.17" y2="886.94"/><line id="_선_9" class="cls-8" x1="-.28" y1="891.94" x2="832.17" y2="891.94"/><line id="_선_11" class="cls-8" x1="-.28" y1="896.94" x2="832.17" y2="896.94"/><line id="_선_13" class="cls-8" x1="-.28" y1="901.94" x2="832.17" y2="901.94"/><line id="_선_15" class="cls-8" x1="-.28" y1="906.94" x2="832.17" y2="906.94"/><line id="_선_17" class="cls-8" x1="-.28" y1="911.94" x2="832.17" y2="911.94"/><line id="_선_19" class="cls-8" x1="-.28" y1="916.94" x2="832.17" y2="916.94"/><line id="_선_21" class="cls-8" x1="-.28" y1="921.94" x2="832.17" y2="921.94"/><line id="_선_23" class="cls-8" x1="-.28" y1="926.94" x2="832.17" y2="926.94"/><line id="_선_25" class="cls-8" x1="-.28" y1="931.94" x2="832.17" y2="931.94"/><line id="_선_27" class="cls-8" x1="-.28" y1="936.94" x2="832.17" y2="936.94"/><line id="_선_29" class="cls-8" x1="-.28" y1="941.94" x2="832.17" y2="941.94"/><line id="_선_31" class="cls-8" x1="-.28" y1="946.94" x2="832.17" y2="946.94"/><line id="_선_33" class="cls-8" x1="-.28" y1="951.94" x2="832.17" y2="951.94"/><line id="_선_35" class="cls-8" x1="-.28" y1="956.94" x2="832.17" y2="956.94"/><line id="_선_37" class="cls-8" x1="-.28" y1="961.94" x2="832.17" y2="961.94"/><line id="_선_39" class="cls-8" x1="-.28" y1="966.94" x2="832.17" y2="966.94"/><line id="_선_41" class="cls-8" x1="-.28" y1="971.94" x2="832.17" y2="971.94"/><line id="_선_43" class="cls-8" x1="-.28" y1="976.94" x2="832.17" y2="976.94"/><line id="_선_52" class="cls-8" x1="-.28" y1="981.94" x2="832.17" y2="981.94"/></g></g><g id="_그룹_197"><g id="_그룹_714"><g id="_그룹_162"><g id="_그룹_160"><path id="_패스_23" class="cls-3" d="M564.21,667.32l-12.98,1.77-26.93,3.67-26.95,3.67-26.94,3.67-26.95,3.67-26.95,3.67-1.07,.15h-.01l-1.07-.15-26.95-3.67-26.95-3.67-26.94-3.67-26.95-3.67-26.94-3.67-12.98-1.77h297.53Z"/><path id="_패스_24" class="cls-3" d="M596.3,764.73H234.59l180.86-24.63,180.85,24.63Z"/></g><g id="_그룹_161"><path id="_패스_25" class="cls-3" d="M831.17,685.64v59.48l-218.35-29.74,218.35-29.74Z"/><path id="_패스_26" class="cls-3" d="M-.28,684.32v62.13l228.05-31.06L-.28,684.32Z"/></g></g></g><g id="_그룹_192"><line id="_선_5-2" class="cls-9" x1="-.28" y1="667.32" x2="834.17" y2="667.32"/><line id="_선_7-2" class="cls-9" x1="-.28" y1="672.32" x2="834.17" y2="672.32"/><line id="_선_9-2" class="cls-9" x1="-.28" y1="677.32" x2="834.17" y2="677.32"/><line id="_선_11-2" class="cls-9" x1="-.28" y1="682.32" x2="834.17" y2="682.32"/><line id="_선_13-2" class="cls-9" x1="-.28" y1="687.32" x2="834.17" y2="687.32"/><line id="_선_15-2" class="cls-9" x1="-.28" y1="692.32" x2="834.17" y2="692.32"/><line id="_선_17-2" class="cls-9" x1="-.28" y1="697.32" x2="834.17" y2="697.32"/><line id="_선_19-2" class="cls-9" x1="-.28" y1="702.32" x2="834.17" y2="702.32"/><line id="_선_21-2" class="cls-9" x1="-.28" y1="707.32" x2="834.17" y2="707.32"/><line id="_선_23-2" class="cls-9" x1="-.28" y1="712.32" x2="834.17" y2="712.32"/><line id="_선_25-2" class="cls-9" x1="-.28" y1="717.32" x2="834.17" y2="717.32"/><line id="_선_27-2" class="cls-9" x1="-.28" y1="722.32" x2="834.17" y2="722.32"/><line id="_선_29-2" class="cls-9" x1="-.28" y1="727.32" x2="834.17" y2="727.32"/><line id="_선_31-2" class="cls-9" x1="-.28" y1="732.32" x2="834.17" y2="732.32"/><line id="_선_33-2" class="cls-9" x1="-.28" y1="737.32" x2="834.17" y2="737.32"/><line id="_선_35-2" class="cls-9" x1="-.28" y1="742.32" x2="834.17" y2="742.32"/><line id="_선_37-2" class="cls-9" x1="-.28" y1="747.32" x2="834.17" y2="747.32"/><line id="_선_39-2" class="cls-9" x1="-.28" y1="752.32" x2="834.17" y2="752.32"/><line id="_선_41-2" class="cls-9" x1="-.28" y1="757.32" x2="834.17" y2="757.32"/><line id="_선_43-2" class="cls-9" x1="-.28" y1="762.32" x2="834.17" y2="762.32"/><line id="_선_44" class="cls-9" x1="-.28" y1="764.82" x2="834.17" y2="764.82"/></g></g><g id="_그룹_213"><g id="_그룹_714-2"><g id="_그룹_162-2"><g id="_그룹_160-2"><path id="_패스_23-2" class="cls-3" d="M563.23,2096.89l-12.96,1.77-26.88,3.67-26.9,3.67-26.89,3.67-26.9,3.67-26.9,3.67-1.07,.15h-.01l-1.07-.15-26.9-3.67-26.9-3.67-26.89-3.67-26.9-3.67-26.89-3.67-12.96-1.77h297.01Z"/><path id="_패스_24-2" class="cls-3" d="M595.26,2194.3H234.18l180.54-24.63,180.53,24.63Z"/></g><g id="_그룹_161-2"><path id="_패스_25-2" class="cls-3" d="M829.72,2115.22v59.48l-217.97-29.74,217.97-29.74Z"/><path id="_패스_26-2" class="cls-3" d="M-.28,2113.89v62.13l227.66-31.06L-.28,2113.89Z"/></g></g></g><g id="_그룹_192-2"><line id="_선_5-3" class="cls-9" x1="-.28" y1="2096.89" x2="832.72" y2="2096.89"/><line id="_선_7-3" class="cls-9" x1="-.28" y1="2101.89" x2="832.72" y2="2101.89"/><line id="_선_9-3" class="cls-9" x1="-.28" y1="2106.89" x2="832.72" y2="2106.89"/><line id="_선_11-3" class="cls-9" x1="-.28" y1="2111.89" x2="832.72" y2="2111.89"/><line id="_선_13-3" class="cls-9" x1="-.28" y1="2116.89" x2="832.72" y2="2116.89"/><line id="_선_15-3" class="cls-9" x1="-.28" y1="2121.89" x2="832.72" y2="2121.89"/><line id="_선_17-3" class="cls-9" x1="-.28" y1="2126.89" x2="832.72" y2="2126.89"/><line id="_선_19-3" class="cls-9" x1="-.28" y1="2131.89" x2="832.72" y2="2131.89"/><line id="_선_21-3" class="cls-9" x1="-.28" y1="2136.89" x2="832.72" y2="2136.89"/><line id="_선_23-3" class="cls-9" x1="-.28" y1="2141.89" x2="832.72" y2="2141.89"/><line id="_선_25-3" class="cls-9" x1="-.28" y1="2146.89" x2="832.72" y2="2146.89"/><line id="_선_27-3" class="cls-9" x1="-.28" y1="2151.89" x2="832.72" y2="2151.89"/><line id="_선_29-3" class="cls-9" x1="-.28" y1="2156.89" x2="832.72" y2="2156.89"/><line id="_선_31-3" class="cls-9" x1="-.28" y1="2161.89" x2="832.72" y2="2161.89"/><line id="_선_33-3" class="cls-9" x1="-.28" y1="2166.89" x2="832.72" y2="2166.89"/><line id="_선_35-3" class="cls-9" x1="-.28" y1="2171.89" x2="832.72" y2="2171.89"/><line id="_선_37-3" class="cls-9" x1="-.28" y1="2176.89" x2="832.72" y2="2176.89"/><line id="_선_39-3" class="cls-9" x1="-.28" y1="2181.89" x2="832.72" y2="2181.89"/><line id="_선_41-3" class="cls-9" x1="-.28" y1="2186.89" x2="832.72" y2="2186.89"/><line id="_선_43-3" class="cls-9" x1="-.28" y1="2191.89" x2="832.72" y2="2191.89"/><line id="_선_44-2" class="cls-9" x1="-.28" y1="2194.39" x2="832.72" y2="2194.39"/></g></g><g id="_그룹_196"><g id="_그룹_170"><g id="_그룹_191"><g id="_그룹_189"><g id="_그룹_188"><path id="_패스_27" class="cls-5" d="M416.9,881.4H-.28v-58.02c0,32.04,186.78,58.02,417.18,58.02Z"/><path id="_패스_28" class="cls-5" d="M416.9,765.36C186.5,765.36-.28,791.33-.28,823.37v-58.02H416.9Z"/><path id="_패스_29" class="cls-5" d="M831.17,765.36v58.02c0-32.04-186.82-58.02-417.27-58.02h417.27Z"/></g><path id="_패스_30" class="cls-5" d="M831.17,824.2v57.53H417.63c228.39,0,413.53-25.76,413.53-57.53Z"/></g></g></g><g id="_그룹_193"><line id="_선_5-4" class="cls-10" x1="-.28" y1="764.82" x2="834.17" y2="764.82"/><line id="_선_7-4" class="cls-10" x1="-.28" y1="769.82" x2="834.17" y2="769.82"/><line id="_선_9-4" class="cls-10" x1="-.28" y1="774.82" x2="834.17" y2="774.82"/><line id="_선_11-4" class="cls-10" x1="-.28" y1="779.82" x2="834.17" y2="779.82"/><line id="_선_13-4" class="cls-10" x1="-.28" y1="784.82" x2="834.17" y2="784.82"/><line id="_선_15-4" class="cls-10" x1="-.28" y1="789.82" x2="834.17" y2="789.82"/><line id="_선_17-4" class="cls-10" x1="-.28" y1="794.82" x2="834.17" y2="794.82"/><line id="_선_19-4" class="cls-10" x1="-.28" y1="799.82" x2="834.17" y2="799.82"/><line id="_선_21-4" class="cls-10" x1="-.28" y1="804.82" x2="834.17" y2="804.82"/><line id="_선_23-4" class="cls-10" x1="-.28" y1="809.82" x2="834.17" y2="809.82"/><line id="_선_25-4" class="cls-10" x1="-.28" y1="814.82" x2="834.17" y2="814.82"/><line id="_선_27-4" class="cls-10" x1="-.28" y1="819.82" x2="834.17" y2="819.82"/><line id="_선_29-4" class="cls-10" x1="-.28" y1="824.82" x2="834.17" y2="824.82"/><line id="_선_31-4" class="cls-10" x1="-.28" y1="829.82" x2="834.17" y2="829.82"/><line id="_선_33-4" class="cls-10" x1="-.28" y1="834.82" x2="834.17" y2="834.82"/><line id="_선_35-4" class="cls-10" x1="-.28" y1="839.82" x2="834.17" y2="839.82"/><line id="_선_37-4" class="cls-10" x1="-.28" y1="844.82" x2="834.17" y2="844.82"/><line id="_선_39-4" class="cls-10" x1="-.28" y1="849.82" x2="834.17" y2="849.82"/><line id="_선_41-4" class="cls-10" x1="-.28" y1="854.82" x2="834.17" y2="854.82"/><line id="_선_43-4" class="cls-10" x1="-.28" y1="859.82" x2="834.17" y2="859.82"/><line id="_선_45" class="cls-10" x1="-.28" y1="864.82" x2="834.17" y2="864.82"/><line id="_선_47" class="cls-10" x1="-.28" y1="869.82" x2="834.17" y2="869.82"/><line id="_선_49" class="cls-10" x1="-.28" y1="874.82" x2="834.17" y2="874.82"/><line id="_선_51" class="cls-10" x1="-.28" y1="879.82" x2="834.17" y2="879.82"/></g></g><line id="_선_1" class="cls-6" x1="196.22" y1="1198.32" x2="770.72" y2="1198.32"/><line id="_선_2" class="cls-6" x1="194.22" y1="2145.39" x2="770.72" y2="2145.39"/><g id="_그룹_718"><rect id="_사각형_634" class="cls-7" x="83.61" y="1029" width="8.16" height="44.76"/><g id="_그룹_717"><path id="_패스_41" class="cls-7" d="M61.65,1052.67l4.66-4.34,21.37,22.99,21.38-22.99,4.66,4.34-26.04,28-26.03-28Z"/></g></g><rect id="_사각형_638" x="300.17" y="700.53" width="363.55" height="3.43"/><rect id="_사각형_638-2" x="138.17" y="944.45" width="362.55" height="2.73"/><g id="_그룹_258"><g id="_그룹_230"><g id="_그룹_95"><g id="_그룹_94"><rect id="_사각형_39" x="386.57" y="2551.85" width="14.38" height="14.38"/></g></g><g id="_그룹_95-2"><g id="_그룹_94-2"><rect id="_사각형_39-2" x="566.57" y="2553.85" width="14.38" height="14.38"/></g></g><rect id="_사각형_43" x="289.12" y="2789.67" width="14.92" height="8.69"/><rect id="_사각형_43-2" x="350.12" y="2789.67" width="14.92" height="8.69"/><polygon points="289.12 2796.39 220.9 2796.39 220.9 2427.52 60.72 2427.52 60.72 2422.52 225.9 2422.52 225.9 2791.39 289.12 2791.39 289.12 2796.39"/><polygon points="770.68 2796.39 393.21 2796.39 393.21 2791.39 765.68 2791.39 765.68 2297.89 63.22 2297.89 63.22 2558.71 299.9 2558.71 299.9 2563.71 58.22 2563.71 58.22 2292.89 770.68 2292.89 770.68 2796.39"/><rect x="222.71" y="2295.39" width="5" height="90.5"/><rect x="390.71" y="2295.39" width="5" height="90.5"/><rect x="571.71" y="2295.39" width="5" height="90.5"/><rect x="571.71" y="2702.39" width="5" height="90.5"/><rect x="677.46" y="2422.64" width="90.5" height="5"/><rect x="677.46" y="2558.64" width="90.5" height="5"/><polygon points="396.26 2796.51 357.57 2796.51 357.57 2791.51 391.26 2791.51 391.26 2483.45 396.26 2483.45 396.26 2796.51"/><polygon points="576.71 2563.69 462.7 2563.69 462.7 2558.69 571.71 2558.69 571.71 2483.89 576.71 2483.89 576.71 2563.69"/></g><g id="_그룹_231"><ellipse id="_타원_20" cx="259.59" cy="2521.02" rx="8.57" ry="8.87"/></g><g id="_그룹_233"><ellipse id="_타원_20-2" cx="144.59" cy="2359.02" rx="8.57" ry="8.87"/><g id="_그룹_232"><path id="_패스_89" class="cls-2" d="M141.35,2363.66v-.11c0-1.49,.76-2.81,2.7-4.23,1.34-1,1.74-1.34,1.74-2.2,.09-.66-.37-1.27-1.03-1.36-.09-.01-.18-.01-.27,0-.97,0-1.35,.57-1.49,1.47h-1.67c.06-1.62,1.42-2.89,3.04-2.83,.04,0,.08,0,.13,0,2.24,0,3.03,1.37,3.03,2.7s-.57,1.95-2.24,3.17c-1.18,.86-1.7,1.44-1.88,1.95h4.46l-.22,1.45h-6.3Z"/></g></g><g id="_그룹_235"><ellipse id="_타원_20-3" cx="308.59" cy="2330.69" rx="8.57" ry="8.87"/><g id="_1-3"><g id="_그룹_234"><path id="_패스_90" class="cls-2" d="M305.5,2328.42c.17-1.52,1.54-2.62,3.06-2.45,0,0,.01,0,.02,0,2.03,0,2.95,1.18,2.95,2.43,.05,.8-.41,1.55-1.15,1.87v.03c.96,.31,1.58,1.23,1.52,2.24,0,1.35-.84,2.86-3.33,2.86-2.31,0-3.17-1.41-3.28-2.63h1.69c.13,.79,.85,1.35,1.65,1.29,.78,.07,1.47-.51,1.54-1.29,0-.09,0-.17,0-.26,0-.97-.54-1.49-1.66-1.49h-.76v-1.34h.66c1.01,0,1.43-.36,1.43-1.19,0-.69-.43-1.16-1.3-1.16-.68-.08-1.3,.4-1.38,1.08,0,0,0,0,0,.01h-1.64Z"/></g></g></g><g id="_그룹_237"><ellipse id="_타원_20-4" cx="485.59" cy="2330.69" rx="8.57" ry="8.87"/><g id="_1-4"><g id="_그룹_236"><path id="_패스_91" class="cls-2" d="M486.31,2335.24v-2.14h-4.16v-1.52l3.91-5.43h1.87v5.54h1.12l-.17,1.41h-.95v2.14h-1.62Zm0-5.4c0-.89,.01-1.56,.04-2.14-.36,.75-1.74,2.71-2.64,4h2.6v-1.86Z"/></g></g></g><g id="_그룹_239"><ellipse id="_타원_20-5" cx="662.59" cy="2330.69" rx="8.57" ry="8.87"/><g id="_1-5"><g id="_그룹_238"><path id="_패스_92" class="cls-2" d="M665.37,2327.48h-3.69c-.07,.57-.25,1.62-.32,2.03,.48-.41,1.1-.62,1.73-.58,1.51-.03,2.76,1.16,2.79,2.67,0,.12,0,.24-.02,.35,.16,1.69-1.09,3.2-2.78,3.36-.18,.02-.36,.02-.54,0-1.58,.17-3.01-.94-3.24-2.52h1.73c.15,.73,.81,1.23,1.55,1.18,1.04,0,1.55-.76,1.55-1.88,0-1.02-.4-1.78-1.52-1.78-.7-.08-1.35,.34-1.56,1.01l-1.56-.22c.25-1.16,.64-3.83,.77-5.05h5.35l-.25,1.42Z"/></g></g></g><g id="_그룹_241"><ellipse id="_타원_20-6" cx="729.59" cy="2395.02" rx="8.57" ry="8.87"/><g id="_1-6"><g id="_그룹_240"><path id="_패스_93" class="cls-2" d="M731,2392.6c-.1-.61-.67-1.04-1.29-.97-1.33,0-1.7,1.25-1.76,2.71,.5-.67,1.3-1.05,2.14-1,1.54-.03,2.81,1.19,2.84,2.73,0,.1,0,.2,0,.29,.13,1.72-1.15,3.22-2.87,3.35-.13,.01-.26,.01-.38,0-2.6,0-3.43-2.03-3.43-4.6,0-2.41,.83-4.82,3.54-4.82,1.43-.15,2.71,.87,2.88,2.3h-1.67Zm.21,3.91c0-.91-.35-1.8-1.55-1.8-.97,0-1.57,.58-1.57,1.74-.11,.93,.55,1.77,1.47,1.89,.03,0,.06,0,.09,0,1.09,0,1.56-.84,1.56-1.84h0Z"/></g></g></g><g id="_그룹_243"><ellipse id="_타원_20-7" cx="729.59" cy="2457.02" rx="8.57" ry="8.87"/><g id="_1-7"><g id="_그룹_242"><path id="_패스_94" class="cls-2" d="M732.69,2452.48v1.3c-1.67,2.32-2.8,4.99-3.32,7.8h-1.77c.52-2.77,1.66-5.38,3.32-7.66h-4.42v-1.44h6.19Z"/></g></g></g><g id="_그룹_245"><ellipse id="_타원_20-8" cx="729.59" cy="2534.02" rx="8.57" ry="8.87"/><g id="_1-8"><g id="_그룹_244"><path id="_패스_95" class="cls-2" d="M726.21,2535.97c.01-.99,.62-1.88,1.55-2.24-.74-.35-1.2-1.09-1.18-1.91,0-1.49,1.08-2.52,3.07-2.52,1.81,0,2.99,.98,2.99,2.5,.05,.81-.44,1.56-1.2,1.84,.94,.36,1.55,1.26,1.53,2.27,0,1.82-1.45,2.82-3.46,2.82-1.83,0-3.31-1.01-3.31-2.76Zm5.03-.08c0-.98-.65-1.47-1.64-1.47-1.11,0-1.66,.61-1.66,1.47,0,.83,.68,1.51,1.52,1.5,.06,0,.11,0,.17-.01,.78,.1,1.5-.44,1.61-1.23,.01-.09,.02-.18,.01-.27Zm-3.01-4.01c0,.66,.46,1.15,1.4,1.15s1.37-.37,1.37-1.13c.02-.67-.5-1.23-1.17-1.26-.07,0-.14,0-.22,.01-.94,0-1.39,.46-1.39,1.23Z"/></g></g></g><g id="_그룹_247"><ellipse id="_타원_20-9" cx="729.59" cy="2595.02" rx="8.57" ry="8.87"/><g id="_1-9"><g id="_그룹_246"><path id="_패스_96" class="cls-2" d="M728.17,2597.4c.15,.63,.74,1.04,1.38,.97,1.44,0,1.59-1.84,1.63-2.9-.47,.62-1.22,.95-1.99,.88-1.52,.08-2.81-1.08-2.89-2.6,0-.11,0-.21,0-.32-.05-1.67,1.25-3.06,2.92-3.12,.11,0,.22,0,.33,0,2.46,0,3.33,1.91,3.33,4.22,0,2.5-.61,5.19-3.41,5.19-1.47,.16-2.8-.86-3.03-2.32h1.73Zm-.12-4.05c-.1,.81,.48,1.54,1.28,1.64,.07,0,.15,.01,.22,0,1.01,0,1.52-.53,1.52-1.6,.1-.84-.49-1.6-1.33-1.7-.06,0-.12-.01-.19-.01-.81-.02-1.49,.62-1.52,1.43,0,.08,0,.16,.01,.24Z"/></g></g></g><g id="_그룹_249"><ellipse id="_타원_20-10" cx="729.59" cy="2763.02" rx="8.57" ry="8.87"/><g id="_1-10"><g id="_그룹_248"><path id="_패스_97" class="cls-2" d="M725.41,2767.57v-7.09c-.55,.26-1.13,.44-1.73,.53v-1.3c.85-.2,1.63-.63,2.24-1.26h1.23v9.12h-1.74Z"/><path id="_패스_98" class="cls-2" d="M735.5,2762.97c0,2.41-.75,4.77-3.39,4.77s-3.39-2.25-3.39-4.72,.86-4.71,3.43-4.71,3.35,2.15,3.35,4.66Zm-4.99,.04c0,1.69,.22,3.33,1.62,3.33s1.59-1.55,1.59-3.37-.25-3.28-1.56-3.28-1.65,1.34-1.65,3.32h0Z"/></g></g></g><g id="_그룹_251"><ellipse id="_타원_20-11" cx="607.59" cy="2763.02" rx="8.57" ry="8.87"/><g id="_1-11"><g id="_그룹_250"><path id="_패스_99" class="cls-2" d="M605.23,2767.59v-7.09c-.55,.26-1.13,.44-1.73,.53v-1.3c.85-.2,1.63-.63,2.24-1.26h1.23v9.12h-1.74Z"/><path id="_패스_100" class="cls-2" d="M609.94,2767.59v-7.09c-.55,.26-1.13,.44-1.73,.53v-1.3c.85-.2,1.63-.63,2.24-1.26h1.23v9.12h-1.74Z"/></g></g></g><g id="_그룹_253"><ellipse id="_타원_20-12" cx="541.59" cy="2763.02" rx="8.57" ry="8.87"/><g id="_1-12"><g id="_그룹_252"><path id="_패스_101" class="cls-2" d="M537.56,2767.66v-7.09c-.55,.26-1.13,.44-1.73,.53v-1.3c.85-.2,1.63-.63,2.24-1.26h1.23v9.12h-1.74Z"/><path id="_패스_102" class="cls-2" d="M540.85,2767.66v-.11c0-1.49,.76-2.81,2.7-4.23,1.34-1,1.74-1.34,1.74-2.2,.09-.66-.37-1.27-1.03-1.36-.09-.01-.18-.01-.27,0-.97,0-1.35,.57-1.49,1.47h-1.67c.06-1.62,1.42-2.89,3.04-2.83,.04,0,.09,0,.13,0,2.24,0,3.03,1.37,3.03,2.7s-.57,1.95-2.24,3.17c-1.18,.86-1.7,1.44-1.88,1.95h4.47l-.22,1.45h-6.29Z"/></g></g></g><g id="_그룹_255"><ellipse id="_타원_20-13" cx="541.59" cy="2526.02" rx="8.57" ry="8.87"/><g id="_1-13"><g id="_그룹_254"><path id="_패스_103" class="cls-2" d="M537.4,2530.59v-7.09c-.55,.26-1.13,.44-1.73,.53v-1.3c.85-.2,1.63-.63,2.24-1.26h1.23v9.12h-1.74Z"/><path id="_패스_104" class="cls-2" d="M544.78,2530.59v-2.14h-4.16v-1.52l3.91-5.43h1.87v5.54h1.12l-.17,1.41h-.95v2.14h-1.62Zm0-5.4c0-.89,.01-1.56,.04-2.14-.36,.75-1.74,2.71-2.64,4h2.6v-1.86Z"/></g></g></g><g id="_그룹_257"><ellipse id="_타원_20-14" cx="422.59" cy="2693.02" rx="8.57" ry="8.87"/><g id="_1-14"><g id="_그룹_256"><path id="_패스_105" class="cls-2" d="M418.6,2697.57v-7.09c-.55,.26-1.13,.44-1.73,.53v-1.3c.85-.2,1.63-.63,2.24-1.26h1.23v9.12h-1.74Z"/><path id="_패스_106" class="cls-2" d="M421.91,2690.76c.17-1.52,1.54-2.62,3.06-2.45,0,0,.01,0,.02,0,2.03,0,2.95,1.18,2.95,2.43,.05,.8-.41,1.55-1.15,1.87v.03c.96,.31,1.58,1.23,1.52,2.24,0,1.35-.84,2.86-3.33,2.86-2.31,0-3.17-1.41-3.28-2.63h1.69c.13,.79,.85,1.35,1.65,1.28,.78,.07,1.47-.51,1.54-1.29,0-.09,0-.17,0-.26,0-.97-.54-1.49-1.66-1.49h-.76v-1.34h.66c1.01,0,1.43-.36,1.43-1.19,0-.69-.43-1.16-1.3-1.16-.68-.08-1.3,.4-1.38,1.08,0,0,0,0,0,.01h-1.64Z"/></g></g></g></g><g id="_그룹_204"><g id="_그룹_203"><line id="_선_4" class="cls-6" x1="56.47" y1="1992.77" x2="443.97" y2="1992.77"/></g></g></svg>