<?xml version="1.0" encoding="UTF-8"?><svg id="_레이어_1" xmlns="http://www.w3.org/2000/svg" viewBox="0 0 830 554"><defs><style>.cls-1{fill:#f8f4f0;}.cls-2{fill:#95d99a;}.cls-3{fill:#6e97ec;}.cls-4{fill:none;}.cls-4,.cls-5{stroke:#020000;stroke-miterlimit:10;stroke-width:2px;}</style></defs><rect id="_사각형_496" class="cls-1" x="-.83" width="830" height="554"/><g id="_그룹_718"><rect id="_사각형_634" class="cls-5" x="718.33" y="26.22" width="44.76" height="8.16"/><g id="_그룹_717"><path id="_패스_41" class="cls-5" d="M742,56.34l-4.34-4.66,22.99-21.37-22.99-21.38,4.34-4.66,28,26.04-28,26.03Z"/></g></g><g id="_그룹_205"><g id="_그룹_172"><rect id="_사각형_589" class="cls-3" x="441.46" y="100.33" width="13.39" height=".63"/><rect id="_사각형_590" class="cls-2" x="-1" y="99.89" width="832" height="2.14"/><rect id="_사각형_591" class="cls-2" x="-1" y="107.23" width="832" height="2.14"/><rect id="_사각형_592" class="cls-2" x="-1" y="114.56" width="832" height="2.14"/><rect id="_사각형_593" class="cls-2" x="-1" y="121.89" width="832" height="2.14"/><rect id="_사각형_594" class="cls-2" x="-1" y="129.23" width="832" height="2.14"/><rect id="_사각형_595" class="cls-2" x="-1" y="136.56" width="832" height="2.14"/><rect id="_사각형_596" class="cls-2" x="-1" y="143.9" width="832" height="2.14"/><rect id="_사각형_597" class="cls-2" x="-1" y="151.23" width="832" height="2.14"/><rect id="_사각형_598" class="cls-2" x="-1" y="158.56" width="832" height="2.14"/><rect id="_사각형_599" class="cls-2" x="-1" y="165.89" width="832" height="2.14"/><rect id="_사각형_600" class="cls-2" x="-1" y="173.23" width="832" height="2.14"/><rect id="_사각형_601" class="cls-2" x="-1" y="180.56" width="832" height="2.14"/><rect id="_사각형_602" class="cls-2" x="-1" y="187.9" width="832" height="2.14"/><rect id="_사각형_603" class="cls-2" x="-1" y="195.22" width="832" height="2.14"/><rect id="_사각형_604" class="cls-2" x="-1" y="202.56" width="832" height="2.14"/><rect id="_사각형_605" class="cls-2" x="-1" y="209.89" width="832" height="2.14"/><rect id="_사각형_606" class="cls-2" x="-1" y="217.23" width="832" height="2.14"/><rect id="_사각형_607" class="cls-2" x="-1" y="224.56" width="832" height="2.14"/><rect id="_사각형_608" class="cls-2" x="-1" y="231.89" width="832" height="2.14"/><rect id="_사각형_609" class="cls-2" x="-1" y="239.23" width="832" height="2.14"/><rect id="_사각형_610" class="cls-2" x="-1" y="246.56" width="832" height="2.14"/><rect id="_사각형_611" class="cls-2" x="-1" y="253.9" width="832" height="2.14"/><rect id="_사각형_612" class="cls-2" x="-1" y="261.23" width="832" height="2.14"/><rect id="_사각형_613" class="cls-2" x="-1" y="268.56" width="832" height="2.14"/><rect id="_사각형_614" class="cls-2" x="-1" y="275.89" width="832" height="2.14"/><rect id="_사각형_615" class="cls-2" x="-1" y="283.23" width="832" height="2.14"/><rect id="_사각형_616" class="cls-2" x="-1" y="290.56" width="832" height="2.14"/><rect id="_사각형_617" class="cls-2" x="-1" y="297.9" width="832" height="2.14"/><rect id="_사각형_618" class="cls-2" x="-1" y="305.23" width="832" height="2.14"/><rect id="_사각형_619" class="cls-2" x="-1" y="312.56" width="832" height="2.14"/><rect id="_사각형_620" class="cls-2" x="-1" y="319.9" width="832" height="2.14"/><rect id="_사각형_621" class="cls-2" x="-1" y="327.83" width="832" height="2.14"/><rect id="_사각형_622" class="cls-2" x="-1" y="335.75" width="832" height="2.14"/><rect id="_사각형_623" class="cls-2" x="-1" y="343.68" width="832" height="2.14"/><rect id="_사각형_624" class="cls-2" x="-1" y="351.62" width="832" height="2.14"/><rect id="_사각형_625" class="cls-2" x="-1" y="100.33" width="140.11" height="253.56"/><g id="_그룹_715"><path id="_패스_31" class="cls-2" d="M831,100.33v126.77c0-65.46-161.45-119.33-368.67-126.06,.27-.24,.55-.47,.83-.71h367.84Z"/><path id="_패스_32" class="cls-2" d="M831,227.1v126.78H418.41c227.87,0,412.59-56.76,412.59-126.78Z"/></g></g></g><g id="_그룹_204"><g id="_그룹_203"><line id="_선_4" class="cls-4" x1="56.47" y1="432.77" x2="443.97" y2="432.77"/></g></g></svg>