<svg id="레이어_1" data-name="레이어 1" xmlns="http://www.w3.org/2000/svg" xmlns:xlink="http://www.w3.org/1999/xlink" viewBox="0 0 1920 1080"><defs><style>.cls-1{fill:none;}.cls-2{clip-path:url(#clip-path);}.cls-3{fill:#ff0082;}.cls-4{fill:#6666f5;}.cls-5{fill:#1ac400;}</style><clipPath id="clip-path"><rect class="cls-1" width="1920" height="1080"/></clipPath></defs><g class="cls-2"><polygon class="cls-3" points="1092.09 760.99 1128.57 787.11 1232.52 787.11 1255.44 669.58 1092.09 760.99"/><polygon class="cls-3" points="1237.19 656.52 1200.71 630.4 1096.76 630.4 1073.84 747.93 1237.19 656.52"/><polygon points="1132.33 711.77 1132.32 690.67 1143.09 684.64 1143.09 711.77 1132.33 711.77"/><polygon points="1186.18 708.71 1186.18 672.59 1196.95 666.56 1196.95 708.71 1186.18 708.71"/><polygon points="1196.95 699.71 1159.25 720.81 1159.25 723.84 1170.03 726.84 1196.95 711.77 1196.95 699.71"/><polygon points="1159.25 726.84 1132.33 711.77 1132.33 699.71 1170.03 720.81 1170.03 723.8 1159.25 726.84"/><polygon points="1196.95 750.95 1143.1 750.95 1132.33 756.97 1132.33 763 1196.95 763 1196.95 750.95"/><polygon points="1159.25 763 1159.25 723.82 1170.03 723.82 1170.03 750.95 1175.41 750.95 1175.41 763 1159.25 763"/><polygon points="1152.43 653.72 1131.51 658.84 1122.48 667.25 1123.92 673.11 1144.83 667.99 1153.86 659.57 1152.43 653.72"/><polygon points="1128.21 690.67 1122.48 667.25 1131.51 658.84 1137.24 682.26 1128.21 690.67"/><polygon points="1171.63 670.38 1186.12 663.24 1193.12 653.08 1178.63 660.22 1171.63 670.38"/><polygon points="1190.2 639.81 1182.8 654.17 1172.51 660.99 1179.91 646.63 1190.2 639.81"/><polygon points="1170.24 655.08 1168.62 671.15 1161.53 681.26 1163.16 665.18 1170.24 655.08"/><polygon class="cls-3" points="1296.72 760.99 1333.21 787.11 1437.16 787.11 1460.08 669.58 1296.72 760.99"/><polygon class="cls-3" points="1441.83 656.52 1405.35 630.4 1301.4 630.4 1278.48 747.93 1441.83 656.52"/><polygon points="1396 668.28 1399.72 656.82 1394.6 655.15 1398.33 643.69 1386.22 646.09 1380.63 663.29 1396 668.28"/><polygon points="1401.6 720.81 1414.63 680.68 1406.25 671.62 1393.21 711.75 1401.6 720.81"/><polygon points="1357.83 681.24 1365.28 658.31 1353.17 660.71 1349.45 672.18 1357.83 681.24"/><polyline points="1365.28 658.31 1367.14 652.58 1379.25 650.17 1399.73 656.83 1408.11 665.89 1406.25 671.62 1375.52 661.64"/><rect x="1336.97" y="750.95" width="70.01" height="12.05"/><polygon points="1347.74 756.97 1347.74 714.78 1336.97 708.75 1336.97 750.95 1347.74 756.97"/><polygon points="1401.59 763 1401.59 720.81 1390.82 714.78 1390.82 756.97 1401.59 763"/><polygon points="1360.13 708.75 1347.79 708.75 1319.6 692.96 1313.15 682.44 1360.13 708.75"/><polygon points="1367.68 707.63 1364.77 695.63 1342.79 671.95 1331.04 668.15 1367.68 707.63"/><polygon points="1340.3 685.68 1345.07 697.07 1315.38 673.84 1310.61 662.45 1340.3 685.68"/><polygon class="cls-3" points="682.81 760.99 719.29 787.11 823.24 787.11 846.16 669.58 682.81 760.99"/><polygon class="cls-3" points="827.91 656.52 791.43 630.4 687.48 630.4 664.56 747.93 827.91 656.52"/><polyline points="733.81 787.11 733.81 708.75 723.04 702.73 723.04 787.11"/><polygon points="787.66 787.11 776.89 787.11 776.89 732.86 787.66 738.89 787.66 787.11"/><polygon points="733.81 675.6 749.97 666.56 749.97 654.51 732.02 664.55 733.81 675.6"/><polygon points="740.54 669.58 732.02 664.55 723.04 684.64 723.04 690.67 733.81 696.7 733.81 684.64 740.54 669.58"/><polygon points="749.97 654.51 760.74 654.51 764.78 666.56 745.93 666.56 749.97 654.51"/><polygon points="776.89 675.6 760.74 666.56 760.74 654.51 778.69 664.55 776.89 675.6"/><polygon points="770.16 669.58 778.69 664.55 787.66 684.64 776.89 684.64 770.16 669.58"/><polygon points="787.66 684.64 776.89 684.64 776.89 720.81 787.66 726.84 787.66 684.64"/><polygon points="733.81 696.7 733.81 708.75 798.43 744.92 819.98 744.92 733.81 696.7"/><polygon points="701.5 672.59 723.04 696.7 679.96 684.65 689.87 679.1 698.82 681.61 694.3 676.62 701.5 672.59"/><polygon class="cls-3" points="478.17 760.99 514.65 787.11 618.6 787.11 641.52 669.58 478.17 760.99"/><polygon class="cls-3" points="623.27 656.52 586.79 630.4 482.84 630.4 459.92 747.93 623.27 656.52"/><polygon points="529.18 654.51 518.41 660.54 518.41 666.56 572.26 666.56 583.03 660.54 583.03 654.51 529.18 654.51"/><polygon points="529.18 750.95 518.41 756.97 518.41 763 588.42 763 588.42 756.97 588.42 750.95 529.18 750.95"/><polygon points="518.41 763 518.41 678.62 529.18 678.62 529.18 750.95 534.57 750.95 534.57 763 518.41 763"/><polygon points="523.79 675.6 502.25 687.66 513.02 693.69 523.79 687.66 534.57 693.69 545.34 687.66 523.79 675.6"/><polygon points="572.26 738.89 572.26 660.53 583.03 654.51 583.03 738.89 572.26 738.89"/><polygon points="577.65 741.9 599.19 729.85 588.42 723.82 577.65 729.85 566.88 723.82 556.11 729.85 577.65 741.9"/><polygon class="cls-3" points="418.63 656.52 382.15 630.4 278.2 630.4 255.28 747.93 418.63 656.52"/><polygon class="cls-3" points="273.53 760.99 310.01 787.11 413.96 787.11 436.88 669.58 273.53 760.99"/><polygon points="340.69 702.73 351.47 702.73 359 719.6 350.39 724.42 340.69 702.73"/><polygon points="353.08 730.45 361.7 725.63 367.62 738.89 356.85 738.89 353.08 730.45"/><polygon points="351.47 702.73 340.69 702.73 324.54 738.89 335.31 738.89 351.47 702.73"/><rect x="340.7" y="753.96" width="10.77" height="12.05"/><polygon points="329.93 747.93 340.69 753.96 340.69 766.01 329.93 759.99 329.93 747.93"/><polygon points="340.69 759.99 329.93 759.99 324.54 747.93 335.31 747.93 340.69 759.99"/><polygon points="362.24 747.93 351.47 753.96 351.47 766.01 362.24 759.99 362.24 747.93"/><polygon points="351.47 759.99 362.24 759.99 367.62 747.93 356.85 747.93 351.47 759.99"/><polygon points="354.16 666.56 363.58 666.56 373.01 687.66 363.58 687.66 354.16 666.56"/><polygon points="319.15 687.66 328.58 687.66 338 666.56 328.58 666.56 319.15 687.66"/><polygon points="341.68 696.19 350.49 691.26 350.49 669.07 341.68 669.07 341.68 696.19"/><polygon points="320.5 657.52 336.66 666.56 336.66 678.62 320.5 669.58 320.5 657.52"/><polygon points="324.54 654.51 331.27 669.58 320.5 669.58 313.77 654.51 324.54 654.51"/><rect x="336.66" y="666.56" width="18.85" height="12.05"/><polygon points="371.66 657.52 355.5 666.56 355.5 678.62 371.66 669.58 371.66 657.52"/><polygon points="360.89 669.58 371.66 669.58 378.39 654.51 367.62 654.51 360.89 669.58"/><rect x="324.54" y="738.89" width="10.77" height="9.04"/><rect x="356.85" y="738.89" width="10.77" height="9.04"/><polygon class="cls-3" points="1501.37 760.99 1537.85 787.11 1641.8 787.11 1664.72 669.58 1501.37 760.99"/><polygon class="cls-3" points="1646.47 656.52 1609.99 630.4 1506.04 630.4 1483.12 747.93 1646.47 656.52"/><polygon points="1593.71 684.52 1503.66 642.59 1506.05 630.4 1598.8 673.59 1597.53 676.32 1594.99 681.78 1593.71 684.52"/><polygon points="1585.64 650.84 1578.42 640.83 1590.75 646.57 1597.97 656.58 1585.64 650.84"/><polygon points="1585.64 650.84 1597.97 656.58 1597.77 669.78 1585.43 664.04 1585.64 650.84"/><polygon points="1541.61 756.93 1541.61 708.75 1552.38 702.73 1552.38 756.93 1541.61 756.93"/><polygon points="1595.46 756.93 1595.46 720.81 1606.23 714.78 1606.23 756.93 1595.46 756.93"/><polygon points="1606.23 747.93 1568.53 769.03 1568.53 772.06 1579.3 775.05 1606.23 759.99 1606.23 747.93"/><polygon points="1568.53 775.05 1541.61 759.99 1541.61 747.93 1579.31 769.03 1579.31 772.02 1568.53 775.05"/><polygon points="1552.38 702.73 1541.61 708.75 1541.61 714.78 1595.46 714.78 1606.23 708.75 1606.23 702.73 1552.38 702.73"/><rect x="1568.53" y="772.04" width="10.77" height="15.07"/><rect x="1574.24" y="680.15" width="12.05" height="16.16" transform="translate(289.35 1830.34) rotate(-65.03)"/><polygon class="cls-3" points="887.45 760.99 923.93 787.11 1027.88 787.11 1050.8 669.58 887.45 760.99"/><polygon class="cls-3" points="1032.55 656.52 996.07 630.4 892.12 630.4 869.2 747.93 1032.55 656.52"/><polygon points="985.58 741.9 969.42 750.95 969.42 763 985.58 753.96 985.58 741.9"/><polygon points="974.81 753.96 985.58 753.96 992.31 738.89 981.54 738.89 974.81 753.96"/><rect x="950.58" y="750.95" width="18.85" height="12.05"/><polygon points="934.42 741.9 950.58 750.95 950.58 763 934.42 753.96 934.42 741.9"/><polygon points="945.19 753.96 934.42 753.96 927.69 738.89 938.46 738.89 945.19 753.96"/><rect x="927.69" y="726.84" width="10.77" height="12.05"/><rect x="981.54" y="726.84" width="10.77" height="12.05"/><polygon points="927.69 732.86 927.69 720.81 938.46 714.78 938.46 738.89 927.69 732.86"/><polygon points="938.46 714.78 938.46 684.64 949.23 678.62 949.23 708.75 938.46 714.78"/><polygon points="949.23 690.67 949.23 660.54 960 654.51 960 684.64 949.23 690.67"/><polygon points="986.93 708.75 986.93 696.7 976.15 690.67 976.15 714.78 986.93 708.75"/><polygon points="992.31 738.89 992.31 712.02 981.54 718.05 981.54 744.92 992.31 738.89"/><polygon points="976.16 702.73 976.16 681.63 965.38 675.6 965.38 696.7 976.16 702.73"/><polygon points="964.49 723.82 964.49 705.24 955.51 700.22 955.51 718.8 964.49 723.82"/><polygon points="973.46 738.89 973.46 719.8 964.49 714.78 964.49 743.91 973.46 738.89"/><polygon points="946.54 738.89 946.54 731.86 955.51 726.84 955.51 743.91 946.54 738.89"/><polygon class="cls-4" points="546.84 437.53 442.89 437.53 372.88 476.7 349.96 594.24 453.91 594.24 523.92 555.06 546.84 437.53"/><polygon points="443.01 461.64 432.25 467.66 432.25 473.69 453.79 473.69 464.56 473.69 464.56 461.64 443.01 461.64"/><polygon points="426.86 473.69 416.09 479.72 416.09 485.75 437.63 485.75 437.63 479.72 437.63 473.69 426.86 473.69"/><polygon points="464.56 473.69 459.17 473.69 459.17 485.75 469.94 485.75 480.71 479.72 480.71 473.69 464.56 473.69"/><polygon points="469.94 570.13 469.94 491.77 480.71 485.75 480.71 558.07 486.1 558.07 486.1 570.13 469.94 570.13"/><polygon points="416.09 570.13 416.09 479.72 426.86 473.69 426.86 558.07 469.94 558.07 469.94 570.13 416.09 570.13"/><polygon class="cls-4" points="751.48 437.53 647.53 437.53 577.52 476.7 554.6 594.24 658.55 594.24 728.56 555.06 751.48 437.53"/><polygon points="636.88 461.64 626.11 467.66 626.11 473.69 669.2 473.69 679.97 467.66 679.97 461.64 636.88 461.64"/><polygon points="631.5 533.96 620.73 539.99 620.73 546.02 674.58 546.02 685.35 539.99 685.35 533.96 631.5 533.96"/><polygon points="674.58 570.13 674.58 539.99 685.35 533.96 685.35 558.07 690.74 558.07 690.74 570.13 674.58 570.13"/><polygon points="620.73 570.13 620.73 539.99 631.5 533.96 631.5 558.07 674.58 558.07 674.58 570.13 620.73 570.13"/><polygon points="626.11 539.99 626.11 473.69 636.88 467.66 636.88 546.02 626.11 539.99"/><polygon points="647.65 539.99 647.65 484.46 658.43 484.46 658.43 546.02 647.65 539.99"/><polygon points="669.2 543 669.2 479.72 679.97 473.69 679.97 549.03 669.2 543"/><rect x="636.89" y="570.13" width="10.77" height="6.03"/><rect x="658.43" y="570.13" width="10.77" height="6.03"/><polygon class="cls-4" points="956.12 437.53 852.17 437.53 782.16 476.7 759.24 594.24 863.19 594.24 933.2 555.06 956.12 437.53"/><polygon points="836.14 485.75 825.37 491.77 825.37 497.8 879.22 497.8 889.99 491.77 889.99 485.75 836.14 485.75"/><polygon points="879.22 533.96 879.22 503.83 889.99 497.8 889.99 521.91 895.38 521.91 895.38 533.96 879.22 533.96"/><polygon points="825.37 533.96 825.37 491.77 836.14 485.75 836.14 521.91 836.14 533.96 825.37 533.96"/><polygon points="841.52 497.8 841.52 467.66 852.29 461.64 852.29 485.75 852.29 497.8 841.52 497.8"/><polygon points="863.19 497.8 863.19 467.66 873.96 461.64 873.96 485.75 873.96 497.8 863.19 497.8"/><polygon points="890.12 521.91 852.42 543 852.42 546.04 863.19 549.03 890.12 533.96 890.12 521.91"/><polygon points="852.42 549.03 825.37 533.96 825.37 521.91 863.19 543 863.19 546 852.42 549.03"/><polygon points="852.29 576.15 852.42 546.02 863.19 546.02 863.19 570.13 852.29 576.15"/><polygon points="852.42 549.03 825.37 533.96 825.37 521.91 863.19 543 863.19 546 852.42 549.03"/><polygon class="cls-4" points="1160.76 437.53 1056.81 437.53 986.8 476.7 963.88 594.24 1067.83 594.24 1137.84 555.06 1160.76 437.53"/><polygon points="1056.93 461.64 1046.16 467.66 1046.16 473.69 1078.48 473.69 1089.25 467.66 1089.25 461.64 1056.93 461.64"/><polygon points="1051.55 479.72 1051.55 484.74 1051.55 489.76 1069.5 489.76 1078.47 484.74 1078.47 479.72 1051.55 479.72"/><polygon points="1051.55 497.8 1051.55 502.82 1051.55 507.85 1069.5 507.85 1078.47 502.82 1078.47 497.8 1051.55 497.8"/><polygon points="1030.01 558.07 1019.24 564.1 1019.24 570.13 1056.93 570.13 1067.7 564.1 1067.7 558.07 1030.01 558.07"/><polygon points="1078.48 552.04 1078.48 479.72 1089.25 473.69 1089.25 539.99 1094.63 539.99 1094.63 552.04 1078.48 552.04"/><polyline points="1046.16 521.91 1046.16 467.66 1056.93 461.64 1056.93 521.91"/><polyline points="1019.24 570.13 1019.24 539.99 1030.01 533.96 1030.01 570.13"/><polygon points="1046.16 521.91 1019.24 536.98 1019.24 549.03 1056.93 527.94 1056.93 521.91 1046.16 521.91"/><polygon points="1078.48 546.02 1056.93 558.07 1056.93 570.13 1089.25 552.04 1089.25 546.02 1078.48 546.02"/><polygon class="cls-4" points="1570.04 437.53 1466.09 437.53 1396.08 476.7 1373.16 594.24 1477.11 594.24 1547.12 555.06 1570.04 437.53"/><polygon points="1466.21 485.75 1455.44 491.77 1460.83 491.77 1476.98 491.77 1482.37 488.76 1487.76 485.75 1482.37 482.73 1476.98 485.75 1466.21 485.75"/><polygon points="1487.76 461.64 1476.98 467.66 1476.98 473.69 1493.14 473.69 1493.14 485.75 1503.91 479.72 1503.91 467.66 1503.91 461.64 1487.76 461.64"/><polygon points="1450.06 461.64 1439.29 467.66 1439.29 473.69 1466.21 473.69 1466.21 467.66 1466.21 461.64 1450.06 461.64"/><polygon points="1460.83 558.07 1460.83 564.1 1460.83 570.13 1493.14 570.13 1493.14 564.1 1493.14 558.07 1460.83 558.07"/><polygon points="1493.14 570.13 1493.14 491.77 1503.91 485.75 1503.91 558.07 1509.3 558.07 1509.3 570.13 1493.14 570.13"/><polyline points="1439.29 552.04 1439.29 467.66 1450.06 461.64 1450.06 552.04"/><polygon points="1455.44 491.77 1455.44 467.66 1466.28 461.64 1466.28 485.75 1455.44 491.77"/><polygon points="1477.02 491.77 1476.98 467.66 1487.76 461.64 1487.76 485.75 1477.02 491.77"/><polygon points="1450.06 552.04 1471.6 564.1 1460.83 570.13 1439.29 558.07 1439.29 552.04 1450.06 552.04"/><polygon class="cls-4" points="1365.4 437.53 1261.45 437.53 1191.44 476.7 1168.52 594.24 1272.47 594.24 1342.48 555.06 1365.4 437.53"/><polygon points="1272.35 499.73 1261.57 499.73 1261.57 510.5 1261.57 532.04 1266.96 532.04 1272.35 532.04 1272.35 499.73"/><polygon points="1283.12 521.27 1283.12 510.5 1272.34 510.5 1250.8 510.5 1250.8 515.88 1250.8 521.27 1283.12 521.27"/><polyline points="1288.5 546.02 1288.5 503.83 1299.27 497.8 1299.27 546.02"/><polyline points="1234.65 546.02 1234.65 491.77 1245.42 485.75 1245.42 546.02"/><polygon points="1292.54 549.03 1276.38 558.07 1276.38 570.13 1292.54 561.09 1292.54 549.03"/><polygon points="1281.77 561.09 1292.54 561.09 1299.27 546.02 1288.5 546.02 1281.77 561.09"/><rect x="1257.54" y="558.07" width="18.85" height="12.05"/><rect x="1288.5" y="533.96" width="16.16" height="12.05"/><polygon points="1241.38 549.03 1257.54 558.07 1257.54 570.13 1241.38 561.09 1241.38 549.03"/><polygon points="1252.15 561.09 1241.38 561.09 1234.65 546.02 1245.42 546.02 1252.15 561.09"/><rect x="1234.65" y="533.96" width="10.77" height="12.05"/><polygon points="1292.54 482.73 1276.38 473.69 1276.38 461.64 1292.54 470.68 1292.54 482.73"/><polygon points="1281.77 470.68 1292.54 470.68 1299.27 485.75 1299.27 491.77 1288.5 497.8 1288.5 485.75 1281.77 470.68"/><rect x="1257.54" y="461.64" width="18.85" height="12.05"/><polygon points="1241.38 482.73 1257.54 473.69 1257.54 461.64 1241.38 470.68 1241.38 482.73"/><polygon points="1252.15 470.68 1241.38 470.68 1234.65 485.75 1245.42 485.75 1252.15 470.68"/><rect x="1234.65" y="485.74" width="10.77" height="12.05"/><polygon class="cls-4" points="1467.72 244.65 1363.77 244.65 1293.76 283.83 1270.84 401.36 1374.79 401.36 1444.8 362.19 1467.72 244.65"/><polygon points="1336.97 377.25 1336.97 335.06 1347.74 329.04 1347.74 365.2 1353.12 365.2 1353.12 377.25 1336.97 377.25"/><polygon points="1363.89 332.05 1363.89 320 1347.74 329.04 1347.74 341.09 1363.89 332.05"/><polygon points="1380.05 316.98 1390.82 310.95 1401.59 316.98 1401.59 323.01 1390.82 329.04 1390.82 323.01 1380.05 316.98"/><polygon points="1390.82 365.2 1347.74 365.2 1336.97 371.23 1336.97 377.25 1390.82 377.25 1390.82 365.2"/><polygon points="1347.74 268.76 1336.97 274.79 1336.97 280.82 1390.82 280.82 1401.59 274.79 1390.82 268.76 1347.74 268.76"/><polygon points="1390.82 377.25 1390.82 335.06 1401.59 329.04 1401.59 365.2 1406.98 365.2 1406.98 377.25 1390.82 377.25"/><polygon points="1363.89 332.05 1363.89 301.91 1374.66 295.89 1374.66 326.02 1363.89 332.05"/><polygon points="1380.05 316.98 1380.05 301.91 1390.82 295.89 1390.82 316.98 1380.05 316.98"/><polygon points="1336.97 292.87 1336.97 274.79 1347.74 268.76 1347.74 286.85 1336.97 292.87"/><polygon points="1385.43 274.79 1401.59 274.79 1406.98 286.85 1393.51 294.38 1385.43 274.79"/><polygon points="1342.35 316.98 1353.12 316.98 1363.89 292.87 1353.12 292.87 1342.35 316.98"/><polygon points="1393.51 294.38 1380.05 301.91 1380.05 292.87 1390.82 286.85 1393.51 294.38"/><polygon class="cls-4" points="649.16 244.65 545.21 244.65 475.2 283.83 452.28 401.36 556.23 401.36 626.24 362.19 649.16 244.65"/><polygon points="529.18 295.88 529.18 300.7 529.18 305.52 565.8 305.52 572.26 301.89 572.26 295.88 529.18 295.88"/><polygon points="572.26 377.25 572.26 307.94 583.03 301.91 583.03 365.2 588.42 365.2 588.42 377.25 572.26 377.25"/><polygon points="518.41 377.25 518.41 289.86 529.18 289.86 529.18 365.2 572.26 365.2 572.26 377.25 518.41 377.25"/><polygon points="545.34 268.76 518.41 283.83 518.41 289.86 529.18 289.86 556.11 274.79 556.11 268.76 545.34 268.76"/><polygon points="572.26 289.86 545.34 274.79 545.34 268.76 556.11 268.76 583.03 283.83 583.03 295.89 572.26 301.91 572.26 289.86"/><polygon points="545.34 262.74 556.11 256.71 556.11 274.79 545.34 274.79 545.34 262.74"/><polygon class="cls-4" points="853.8 244.65 749.85 244.65 679.84 283.83 656.92 401.36 760.87 401.36 830.88 362.19 853.8 244.65"/><polygon points="723.05 322.97 723.05 274.79 733.82 268.76 733.82 322.97 723.05 322.97"/><polygon points="776.9 322.97 776.9 286.85 787.67 280.82 787.67 322.97 776.9 322.97"/><polygon points="787.67 313.97 749.98 335.06 749.98 338.1 760.75 341.09 787.67 326.02 787.67 313.97"/><polygon points="749.98 341.09 723.05 326.02 723.05 313.97 760.75 335.06 760.75 338.06 749.98 341.09"/><polygon points="787.67 365.2 733.82 365.2 723.05 371.23 723.05 377.25 787.67 377.25 787.67 365.2"/><polygon points="733.82 268.76 723.05 274.79 723.05 280.82 776.9 280.82 787.67 274.79 787.67 268.76 733.82 268.76"/><polygon points="749.98 377.25 749.98 338.08 760.75 338.08 760.75 365.2 766.13 365.2 766.13 377.25 749.98 377.25"/><polygon class="cls-4" points="1058.44 244.65 954.49 244.65 884.48 283.83 861.56 401.36 965.51 401.36 1035.52 362.19 1058.44 244.65"/><rect x="938.46" y="365.2" width="43.08" height="12.05"/><rect x="981.54" y="353.15" width="16.15" height="12.05"/><polygon points="927.69 365.2 927.69 286.85 938.46 280.82 938.46 371.23 927.69 365.2"/><polygon points="981.54 371.23 981.54 304.93 992.31 298.9 992.31 365.2 981.54 371.23"/><polygon points="981.54 298.9 981.54 280.82 992.31 286.85 992.31 292.87 981.54 298.9"/><polygon points="954.62 271.78 938.46 262.74 949.23 262.74 965.39 271.78 954.62 271.78"/><polyline points="981.54 280.82 981.54 274.79 970.77 268.76 949.23 268.76 938.46 274.79 938.46 280.82 970.77 280.82"/><polygon class="cls-4" points="1263.08 244.65 1159.13 244.65 1089.12 283.83 1066.2 401.36 1170.15 401.36 1240.16 362.19 1263.08 244.65"/><polygon points="1159.25 262.74 1148.48 268.76 1148.48 274.79 1170.03 274.79 1180.8 268.76 1180.8 262.74 1159.25 262.74"/><polygon points="1148.48 347.12 1148.48 320 1137.71 313.97 1137.71 353.14 1148.48 347.12"/><polygon points="1180.8 347.12 1180.8 320 1191.57 313.97 1191.57 353.14 1180.8 347.12"/><polygon points="1132.33 320 1132.33 295.89 1143.1 289.86 1143.1 326.02 1132.33 320"/><polygon points="1196.95 320 1196.95 301.91 1186.18 307.94 1186.18 326.02 1196.95 320"/><polygon points="1132.33 371.23 1132.33 347.12 1143.1 341.09 1143.1 377.25 1132.33 371.23"/><polygon points="1191.57 377.25 1186.18 377.25 1186.18 341.09 1196.95 347.12 1196.95 371.23 1191.57 377.25"/><polygon points="1132.33 371.23 1132.33 362.19 1143.1 362.19 1143.1 365.2 1148.48 362.19 1159.25 368.21 1170.03 368.21 1180.8 362.19 1186.18 365.2 1186.18 377.25 1180.8 374.24 1170.03 380.27 1159.25 380.27 1148.48 374.24 1143.1 377.25 1137.71 377.25 1132.33 371.23"/><polygon points="1148.48 280.82 1132.33 289.86 1132.33 295.89 1143.1 295.89 1159.25 286.85 1159.25 280.82 1148.48 280.82"/><polyline points="1180.8 280.82 1196.95 289.86 1196.95 295.89 1186.18 301.91 1186.18 295.89 1170.02 286.85"/><rect x="1148.48" y="268.76" width="10.77" height="13.56"/><polygon points="1170.03 262.74 1180.8 262.74 1180.8 280.82 1170.03 286.85 1170.03 262.74"/><rect x="1186.18" y="353.15" width="16.16" height="12.05"/><rect x="1011.28" y="154.24" width="10.77" height="54.24"/><polygon points="1032.82 208.49 1032.82 160.27 1043.59 154.25 1043.59 208.49 1032.82 208.49"/><polygon points="1048.97 148.22 1048.97 133.15 1059.74 127.12 1059.74 148.22 1048.97 148.22"/><polygon points="1048.97 196.44 1022.05 196.44 1011.27 202.46 1011.27 208.49 1048.97 208.49 1048.97 196.44"/><polygon points="1048.97 142.19 1032.82 151.23 1032.82 163.29 1059.74 148.22 1059.74 142.19 1048.97 142.19"/><polygon points="1011.27 100 995.12 109.04 995.12 121.09 1022.05 106.03 1022.05 100 1011.27 100"/><polygon points="1043.59 100 1059.74 109.04 1059.74 118.08 1048.97 124.11 1048.97 115.07 1032.82 106.03 1032.82 100 1043.59 100"/><polygon points="1005.89 142.19 1022.05 151.23 1022.05 163.29 995.12 148.22 995.12 142.19 1005.89 142.19"/><polygon points="1022.05 136.16 1032.82 136.16 1038.2 133.15 1038.2 130.14 1027.43 130.14 1016.66 130.14 1016.66 133.15 1022.05 136.16"/><polyline points="995.12 148.22 995.12 115.07 1005.89 109.04 1005.89 148.22"/><rect x="1016.66" y="100" width="10.77" height="30.14"/><polygon points="1032.82 136.16 1032.82 106.03 1038.2 100 1038.2 133.15 1032.82 136.16"/><polygon points="596.61 100 585.84 106.03 585.84 112.06 639.69 112.06 650.46 106.03 650.46 100 596.61 100"/><polygon points="585.84 136.16 585.84 106.03 596.61 100 596.61 142.19 585.84 136.16"/><polygon points="639.69 142.19 639.69 121.1 650.46 115.07 650.46 136.15 639.69 142.19"/><polygon points="614.21 162.52 614.12 144.44 622.19 139.93 622.19 157.98 614.21 162.52"/><polygon points="596.61 208.47 596.61 130.14 607.38 136.16 607.38 208.47 596.61 208.47"/><polygon points="628.92 208.47 628.92 136.16 639.69 130.14 639.69 208.47 628.92 208.47"/><polygon points="645.08 196.44 607.38 196.44 596.61 202.46 596.61 208.49 645.08 208.49 645.08 196.44"/><polygon points="596.61 142.19 585.84 136.16 585.84 124.11 607.38 136.16 607.38 142.17 596.61 142.19"/><polygon points="733.04 148.22 722.27 154.25 722.27 160.27 743.81 160.27 743.81 154.25 743.81 148.22 733.04 148.22"/><polygon points="765.35 148.22 765.35 154.25 765.35 160.27 776.12 160.27 786.89 154.25 786.89 148.22 765.35 148.22"/><polygon points="733.04 196.44 722.27 202.46 722.27 208.49 786.89 208.49 786.89 202.46 786.89 196.44 733.04 196.44"/><polygon points="776.12 208.49 776.12 169.31 786.89 163.29 786.89 196.44 792.28 196.44 792.28 208.49 776.12 208.49"/><polygon points="722.27 208.49 722.27 154.25 733.04 148.22 733.04 208.49 722.27 208.49"/><rect x="750.02" y="100" width="9.13" height="78.35"/><polygon points="750.26 100 759.15 100 775.3 136.16 766.42 136.16 750.26 100"/><polygon points="733.86 136.16 742.75 136.16 758.9 100 750.01 100 733.86 136.16"/><polygon points="896.39 160.27 908.51 160.27 927.63 203.07 917.93 208.49 896.39 160.27"/><polygon points="916.59 145.21 900.43 154.25 900.43 166.3 916.59 157.26 916.59 145.21"/><polygon points="905.82 157.26 916.59 157.26 923.32 142.19 912.55 142.19 905.82 157.26"/><rect x="881.58" y="154.25" width="18.85" height="12.05"/><polygon points="923.32 142.19 912.55 142.19 923.32 136.16 923.32 142.19"/><polygon points="865.43 145.21 881.58 154.25 881.58 166.3 865.43 157.26 865.43 145.21"/><polygon points="876.2 157.26 865.43 157.26 858.7 142.19 869.47 142.19 876.2 157.26"/><rect x="858.7" y="130.14" width="10.77" height="12.05"/><polygon points="916.59 121.1 900.43 112.06 900.43 100 916.59 109.04 916.59 121.1"/><polygon points="905.82 109.04 916.59 109.04 923.32 124.11 923.32 127.12 912.55 133.15 912.55 124.11 905.82 109.04"/><rect x="881.58" y="100" width="18.85" height="12.05"/><polygon points="865.43 121.1 881.58 112.06 881.58 100 865.43 109.04 865.43 121.1"/><polygon points="876.2 109.04 865.43 109.04 858.7 124.11 869.47 124.11 876.2 109.04"/><rect x="858.7" y="124.11" width="10.77" height="12.05"/><polygon points="1316.44 160.27 1334.16 180.1 1321.83 190.41 1305.67 172.33 1316.44 160.27"/><polyline points="1300.28 166.3 1266.41 128.39 1278.74 118.08 1311.06 154.25"/><polygon points="1278.74 190.41 1334.16 128.39 1321.83 118.08 1266.41 180.1 1278.74 190.41"/><polygon points="1142.32 160.27 1160.04 180.1 1147.7 190.41 1131.55 172.33 1142.32 160.27"/><polygon points="1126.16 166.3 1160.04 128.39 1147.7 118.08 1115.39 154.25 1126.16 166.3"/><polygon points="1185.4 148.22 1167.68 128.39 1180.01 118.08 1196.17 136.16 1185.4 148.22"/><polygon points="1201.55 142.19 1167.68 180.1 1180.01 190.41 1212.33 154.25 1201.55 142.19"/><polygon class="cls-5" points="1577.8 980 1619.38 980 1582.89 953.88 1577.8 980"/><polygon class="cls-5" points="1774.68 823.29 1608.36 823.29 1585.44 940.82 1640.05 980 1744.12 980 1774.68 823.29"/><polygon points="1681.62 859.46 1681.62 847.4 1676.24 847.4 1676.24 835.35 1665.47 841.37 1665.47 859.46 1681.62 859.46"/><rect x="1638.54" y="943.84" width="70.01" height="12.05"/><polygon points="1638.54 943.84 1638.54 865.48 1649.31 859.45 1649.31 949.86 1638.54 943.84"/><polygon points="1692.39 949.86 1692.39 907.67 1703.17 901.65 1703.17 943.84 1692.39 949.86"/><polygon points="1692.39 883.56 1692.39 859.46 1703.17 865.48 1703.17 877.54 1692.39 883.56"/><polyline points="1692.39 859.46 1692.39 853.43 1681.62 847.4 1660.08 847.4 1649.31 853.43 1649.31 859.45 1681.62 859.45"/><polygon points="1674.89 900.89 1670.85 907.67 1678.93 907.67 1735.48 876.03 1731.44 869.25 1674.89 900.89"/><polygon class="cls-5" points="554.6 980 596.18 980 559.7 953.88 554.6 980"/><polygon class="cls-5" points="751.48 823.29 585.16 823.29 562.24 940.82 616.85 980 720.92 980 751.48 823.29"/><polygon points="647.65 904.66 658.43 904.66 665.97 921.53 657.35 926.36 647.65 904.66"/><polygon points="660.04 932.38 668.66 927.56 674.58 940.82 663.81 940.82 660.04 932.38"/><polygon points="658.42 904.66 647.65 904.66 631.5 940.82 642.27 940.82 658.42 904.66"/><rect x="647.66" y="955.89" width="10.77" height="12.06"/><polygon points="636.88 949.86 647.66 955.89 647.66 967.95 636.88 961.92 636.88 949.86"/><polygon points="647.65 961.92 636.88 961.92 631.5 949.86 642.27 949.86 647.65 961.92"/><polygon points="669.2 949.86 658.42 955.89 658.42 967.95 669.2 961.92 669.2 949.86"/><polygon points="658.42 961.92 669.2 961.92 674.58 949.86 663.81 949.86 658.42 961.92"/><rect x="631.5" y="940.82" width="10.77" height="9.04"/><rect x="663.81" y="940.82" width="10.77" height="9.04"/><polygon points="647.65 830.36 647.65 835.38 647.65 840.41 665.61 840.41 674.58 835.38 674.58 830.36 647.65 830.36"/><polygon points="647.65 847.44 647.65 852.46 647.65 857.48 665.61 857.48 674.58 852.46 674.58 847.44 647.65 847.44"/><polygon points="626.11 895.62 615.34 901.66 615.34 907.67 653.04 907.69 663.81 901.66 663.81 895.62 626.11 895.62"/><polygon points="674.58 889.59 674.58 823.27 685.35 823.27 685.35 877.54 690.74 877.54 690.74 889.59 674.58 889.59"/><polyline points="642.27 859.46 642.27 823.29 653.04 823.29 653.04 859.46"/><polyline points="615.34 907.67 615.34 877.55 626.12 871.53 626.12 907.68"/><polygon points="642.27 859.46 615.34 874.52 615.34 886.58 653.04 865.48 653.04 859.46 642.27 859.46"/><polygon points="674.6 883.56 653.04 895.62 653.04 907.69 685.38 889.59 685.38 883.56 674.6 883.56"/><polygon class="cls-5" points="145.32 980 186.9 980 150.42 953.88 145.32 980"/><polygon class="cls-5" points="342.2 823.29 175.88 823.29 152.96 940.82 207.57 980 311.64 980 342.2 823.29"/><polygon points="227.6 967.95 227.6 946.85 216.83 940.82 216.83 973.97 227.6 967.95"/><polygon points="259.92 967.95 259.92 946.85 270.69 940.82 270.69 973.97 259.92 967.95"/><polygon points="211.45 946.85 211.45 922.74 222.22 916.71 222.22 952.88 211.45 946.85"/><polygon points="276.07 946.85 276.07 928.77 265.3 934.79 265.3 952.88 276.07 946.85"/><polygon points="211.45 980 211.45 967.95 222.22 961.92 222.22 980 211.45 980"/><polygon points="265.3 980 265.3 961.92 276.07 967.95 276.07 980 265.3 980"/><polygon points="227.6 907.67 211.45 916.71 211.45 922.74 222.22 922.74 238.38 913.7 238.38 907.67 227.6 907.67"/><polyline points="259.92 907.67 276.07 916.71 276.07 922.74 265.3 928.77 265.3 922.74 249.15 913.7"/><rect x="227.6" y="901.65" width="10.77" height="7.53"/><polygon points="249.15 901.64 259.92 901.64 259.92 909.93 249.15 913.7 249.15 901.64"/><polygon points="238.38 835.35 227.6 841.37 227.6 847.4 249.15 847.4 259.92 841.37 259.92 835.35 238.38 835.35"/><rect x="227.6" y="841.37" width="10.77" height="12.05"/><rect x="249.15" y="835.35" width="10.77" height="18.08"/><rect x="239.48" y="862.47" width="8.56" height="33.15"/><polygon points="243.76 859.46 230.3 866.99 230.3 876.03 243.76 868.5 257.22 876.03 257.22 866.99 243.76 859.46"/><polygon class="cls-5" points="349.96 980 391.54 980 355.06 953.88 349.96 980"/><polygon class="cls-5" points="546.84 823.29 380.52 823.29 357.6 940.82 412.21 980 516.28 980 546.84 823.29"/><polygon points="453.79 925.75 453.79 913.66 475.33 901.7 475.33 877.54 486.1 871.51 486.1 907.73 453.79 925.75"/><polygon points="469.94 874.52 469.94 856.44 475.33 853.43 480.71 856.44 480.71 868.5 469.94 874.52"/><polygon points="410.7 889.59 410.7 907.67 421.48 901.65 421.48 883.56 410.7 889.59"/><polygon points="443.02 931.78 421.48 931.78 410.7 937.81 410.7 943.84 432.25 943.84 443.02 937.81 443.02 931.78"/><polygon points="475.33 931.78 453.79 931.78 453.79 937.81 464.56 943.84 475.33 943.84 486.1 937.81 475.33 931.78"/><polygon points="486.1 949.86 421.48 949.86 410.7 955.89 421.48 961.92 475.33 961.92 486.1 955.89 486.1 949.86"/><polygon points="432.25 943.7 432.25 919.73 443.02 913.7 443.02 937.81 432.25 943.7"/><polygon points="453.79 937.81 453.79 925.81 464.56 931.78 464.56 943.84 453.79 937.81"/><polygon points="410.7 955.89 410.7 937.84 421.48 943.81 421.48 961.92 410.7 955.89"/><polygon points="475.33 961.92 475.33 937.84 486.1 937.81 486.1 955.89 475.33 961.92"/><polygon points="443.02 925.75 410.7 907.67 421.48 901.65 443.02 913.66 443.02 919.69 443.02 925.75"/><polygon points="414.74 896.37 469.94 865.48 469.94 856.44 410.7 889.59 414.74 896.37"/><polygon points="486.1 871.51 429.55 903.15 437.63 907.67 486.1 880.55 486.1 871.51"/><rect x="475.33" y="949.86" width="16.16" height="12.05"/><polygon points="416.09 883.56 416.09 853.43 426.86 847.4 426.86 877.54 416.09 883.56"/><polygon points="426.86 847.4 416.09 853.43 416.09 859.45 459.17 859.45 469.94 853.43 469.94 847.4 426.86 847.4"/><polygon class="cls-5" points="759.24 980 800.82 980 764.34 953.88 759.24 980"/><polygon class="cls-5" points="956.12 823.29 789.8 823.29 766.88 940.82 821.49 980 925.56 980 956.12 823.29"/><polygon points="852.29 835.35 863.07 835.35 870.61 852.22 861.99 857.04 852.29 835.35"/><polygon points="864.68 863.07 873.3 858.25 879.22 871.51 868.45 871.51 864.68 863.07"/><polygon points="863.07 835.35 852.29 835.35 836.14 871.51 846.91 871.51 863.07 835.35"/><rect x="852.29" y="886.58" width="10.77" height="12.05"/><polygon points="841.52 880.55 852.29 886.58 852.29 898.63 841.52 892.6 841.52 880.55"/><polygon points="852.29 892.61 841.52 892.61 836.14 880.55 846.91 880.55 852.29 892.61"/><polygon points="873.84 880.55 863.07 886.58 863.07 898.63 873.84 892.6 873.84 880.55"/><polygon points="863.07 892.61 873.84 892.61 879.22 880.55 868.45 880.55 863.07 892.61"/><rect x="836.14" y="871.51" width="10.77" height="9.04"/><rect x="868.45" y="871.51" width="10.77" height="9.04"/><polygon points="852.29 907.67 841.52 913.7 841.52 919.73 863.07 919.73 873.84 913.7 873.84 907.67 852.29 907.67"/><polygon points="841.52 980 841.52 964.93 830.75 958.9 830.75 980 841.52 980"/><polygon points="873.84 980 873.84 964.93 884.61 958.9 884.61 980 873.84 980"/><polygon points="825.37 964.93 825.37 940.82 836.14 934.8 836.14 970.96 825.37 964.93"/><polygon points="889.99 964.93 889.99 946.85 879.22 952.88 879.22 970.96 889.99 964.93"/><polygon points="841.52 925.75 825.37 934.8 825.37 940.82 836.14 940.82 852.29 931.78 852.29 925.75 841.52 925.75"/><polyline points="873.84 925.75 889.99 934.8 889.99 940.82 879.22 946.85 879.22 940.82 863.07 931.78"/><rect x="841.52" y="913.7" width="10.77" height="13.56"/><polygon points="863.07 907.67 873.84 907.67 873.84 925.75 863.07 931.78 863.07 907.67"/><polygon class="cls-5" points="963.88 980 1005.46 980 968.98 953.88 963.88 980"/><polygon class="cls-5" points="1160.76 823.29 994.44 823.29 971.52 940.82 1026.13 980 1130.2 980 1160.76 823.29"/><polygon class="cls-5" points="1168.52 980 1210.1 980 1173.62 953.88 1168.52 980"/><polygon class="cls-5" points="1365.4 823.29 1199.08 823.29 1176.16 940.82 1230.77 980 1334.84 980 1365.4 823.29"/><polygon points="1250.8 874.51 1250.8 879.34 1250.8 884.16 1265.88 884.16 1272.35 880.53 1272.35 874.51 1250.8 874.51"/><polygon points="1272.35 961.92 1272.35 886.58 1283.12 880.55 1283.12 949.86 1288.5 949.86 1288.5 961.92 1272.35 961.92"/><polygon points="1250.8 871.51 1261.58 871.51 1272.35 847.4 1261.58 847.4 1250.8 871.51"/><polygon points="1283.12 871.51 1272.34 871.51 1261.57 847.4 1272.34 847.4 1283.12 871.51"/><polygon points="1261.57 841.37 1272.35 835.35 1272.35 853.43 1261.57 853.43 1261.57 841.37"/><polygon points="1272.35 880.55 1272.35 871.51 1283.12 871.51 1283.12 874.52 1272.35 880.55"/><polygon points="1250.8 934.8 1250.8 871.51 1261.58 871.51 1261.58 940.82 1250.8 934.8"/><polygon points="1272.22 961.92 1229.26 937.81 1234.65 928.77 1288.5 958.9 1288.5 961.9 1272.22 961.92"/><polygon points="1234.65 901.64 1202.34 883.56 1202.34 895.62 1213.11 901.64 1234.65 901.64"/><polygon points="1202.34 907.67 1202.34 919.73 1234.65 901.65 1213.11 901.65 1202.34 907.67"/><polygon points="1299.27 901.64 1331.58 883.56 1331.58 895.62 1320.81 901.64 1299.27 901.64"/><polygon points="1331.58 907.67 1331.58 919.73 1299.27 901.65 1320.81 901.65 1331.58 907.67"/><polygon class="cls-5" points="1373.16 980 1414.74 980 1378.26 953.88 1373.16 980"/><polygon class="cls-5" points="1570.04 823.29 1403.72 823.29 1380.8 940.82 1435.41 980 1539.48 980 1570.04 823.29"/><polygon points="1476.99 907.67 1455.45 919.73 1476.99 919.73 1498.52 907.67 1476.99 907.67"/><polygon points="1476.99 925.75 1455.45 937.8 1476.99 937.8 1498.52 925.75 1476.99 925.75"/><polygon points="1444.68 925.76 1444.68 937.81 1466.22 925.76 1444.68 925.76"/><polygon points="1459.42 896.49 1442.18 889.77 1452.85 888.28 1470.09 895.01 1459.42 896.49"/><polygon points="1487.33 901.73 1486.5 895.76 1475.01 891.28 1453.68 894.25 1443.84 901.71 1444.68 907.67 1476.67 903.22 1487.33 901.73"/><rect x="1444.67" y="943.84" width="43.07" height="12.05"/><rect x="1487.76" y="931.78" width="16.16" height="12.05"/><polygon points="1433.9 931.78 1433.9 913.7 1444.67 907.67 1444.65 937.81 1433.9 931.78"/><polygon points="1433.9 943.84 1433.9 937.81 1444.67 937.81 1444.67 949.87 1433.9 943.84"/><polygon points="1487.74 949.87 1487.76 925.75 1498.53 919.73 1498.51 943.84 1487.74 949.87"/><polygon points="1487.72 907.67 1487.76 901.65 1498.52 907.67 1487.72 907.67"/><polygon points="1420.44 883.56 1420.44 871.51 1511.99 871.51 1511.99 883.56 1485.06 883.56 1485.06 877.54 1474.29 883.56 1420.44 883.56"/><polygon points="1420.44 868.5 1431.21 868.5 1431.21 859.45 1433.9 853.43 1441.98 850.41 1452.75 853.43 1452.75 844.39 1441.98 841.37 1425.82 847.4 1420.44 859.45 1420.44 868.5"/><polygon points="1458.14 844.39 1452.75 844.39 1452.75 853.43 1463.52 853.43 1479.68 844.39 1479.68 832.33 1458.14 844.39"/><polygon points="1501.22 868.5 1501.22 841.37 1511.99 847.4 1511.99 868.5 1501.22 868.5"/><polygon points="1468.91 847.4 1468.91 823.29 1479.68 823.29 1479.68 841.37 1468.91 847.4"/><polygon points="1495.83 850.41 1495.83 823.29 1506.6 823.29 1506.6 856.44 1495.83 850.41"/><polygon points="1046.16 874.49 1046.16 879.32 1046.16 884.14 1083.5 884.14 1089.25 880.51 1089.25 874.49 1046.16 874.49"/><polygon points="1089.25 955.87 1089.25 886.56 1100.02 880.53 1100.02 943.82 1105.4 943.82 1105.4 955.87 1089.25 955.87"/><polygon points="1035.39 955.87 1035.39 898.61 1046.16 892.59 1046.16 943.82 1089.25 943.82 1089.25 955.87 1035.39 955.87"/><polygon points="1062.32 847.38 1035.39 862.45 1035.39 874.5 1046.16 868.48 1073.09 853.41 1073.09 847.38 1062.32 847.38"/><polygon points="1089.25 868.48 1062.32 853.41 1062.32 847.38 1073.09 847.38 1100.02 862.45 1100.02 874.51 1089.25 880.53 1089.25 868.48"/><polygon points="1062.32 841.35 1073.09 835.33 1073.09 853.41 1062.32 853.41 1062.32 841.35"/><polygon points="1013.85 967.93 1013.85 892.59 1003.08 898.61 1003.08 973.95 1013.85 967.93"/><polygon points="1046.16 874.49 1013.85 892.59 1013.85 904.64 1051.55 883.54 1046.16 877.52 1046.16 874.49"/><polygon points="1035.39 943.82 1008.47 958.89 1008.47 970.94 1040.78 952.86 1040.78 943.82 1035.39 943.82"/></g></svg>